ply
format ascii 1.0
comment PCL generated
element vertex 243
property float x
property float y
property float z
property uchar red
property uchar green
property uchar blue
element camera 1
property float view_px
property float view_py
property float view_pz
property float x_axisx
property float x_axisy
property float x_axisz
property float y_axisx
property float y_axisy
property float y_axisz
property float z_axisx
property float z_axisy
property float z_axisz
property float focal
property float scalex
property float scaley
property float centerx
property float centery
property int viewportx
property int viewporty
property float k1
property float k2
end_header
-0.018294 -0.036842 -0.5341 164 130 82
-0.020375 -0.033637 -0.53324 163 129 76
-0.02616 -0.0078001 -0.52502 167 133 90
-0.0355 -0.0060283 -0.52231 176 144 98
-0.035655 -0.0096142 -0.52306 174 141 96
-0.044372 -0.01707 -0.52452 138 106 69
-0.046815 0.011825 -0.51551 146 119 77
-0.048067 0.013773 -0.51557 100 74 40
-0.049587 0.011508 -0.51547 147 118 76
-0.050447 -0.0042868 -0.51989 148 118 78
-0.050605 0.007821 -0.51625 149 123 79
0 0 0 0 0 0
-0.05851 0.010429 -0.51455 156 125 81
-0.062104 0.012488 -0.51388 138 110 69
-0.062104 0.012488 -0.51388 138 110 69
-0.061953 0.010247 -0.51426 142 114 73
0 0 0 0 0 0
0 0 0 0 0 0
-0.06709 0.0018025 -0.516 108 84 47
-0.068494 0.0032038 -0.51524 153 128 86
0.0049546 -0.012152 -0.53179 174 137 84
-0.027035 -0.043015 -0.53557 182 147 98
-0.029327 -0.0042702 -0.52318 121 96 57
0 0 0 0 0 0
-0.050414 0.0043085 -0.51739 154 125 80
-0.056865 0.0042032 -0.51669 148 118 75
-0.056394 0.025534 -0.50013 141 120 80
-0.05898 0.0001105 -0.51754 172 147 105
-0.060208 0.023985 -0.4992 145 122 87
-0.060373 0.030469 -0.49715 125 106 70
-0.063305 -0.0083085 -0.51867 160 135 90
-0.063975 -0.010931 -0.51985 158 130 89
0 0 0 0 0 0
0 0 0 0 0 0
0 0 0 0 0 0
-0.069358 0.0074412 -0.51439 131 107 68
-0.03871 -0.01818 -0.52562 146 120 79
-0.055454 -0.0035868 -0.51891 155 128 87
-0.065068 0.023344 -0.49784 162 145 100
-0.069654 -0.0011032 -0.51618 163 138 94
-0.037924 0.0081486 -0.51863 139 111 69
-0.060292 0.018075 -0.50281 149 124 80
-0.070225 0.0038872 -0.51487 154 129 87
-0.069942 -0.0011774 -0.51625 162 135 94
-0.021803 -0.032299 -0.53335 111 86 49
-0.047695 -0.033344 -0.53101 150 118 77
-0.047695 -0.033344 -0.53101 150 118 77
0.0015518 -0.006672 -0.53013 135 110 71
0.0015518 -0.006672 -0.53013 135 110 71
0 0 0 0 0 0
0 0 0 0 0 0
0.13035 -0.33824 -0.032704 131 98 60
0.12014 -0.34072 -0.02535 112 80 45
0.053652 -0.29753 0.073991 167 136 87
0.049502 -0.30152 0.070615 123 99 66
0.047334 -0.30129 0.071962 51 31 2
0.043845 -0.29379 0.084001 174 143 94
0.043069 -0.29918 0.076753 168 137 91
0.042466 -0.30585 0.06792 169 143 98
0.027967 -0.29073 0.093926 145 117 79
0.030173 -0.27185 0.12208 149 121 76
0.028246 -0.2455 0.16903 155 134 96
0.016122 -0.31838 0.059065 163 136 92
0.02219 -0.26775 0.13044 156 127 83
0.014695 -0.31174 0.067767 176 146 102
0.014695 -0.31174 0.067767 176 146 102
0.018727 -0.26479 0.13583 138 110 69
0.018354 -0.26809 0.13044 144 115 73
0.010387 -0.28363 0.10721 121 96 57
0.0084064 -0.2979 0.086971 174 145 101
0.00090013 -0.29087 0.096951 145 112 68
-0.0020167 -0.29341 0.093289 174 143 90
-0.0091151 -0.29963 0.084402 172 146 112
-0.0077549 -0.28773 0.10075 178 151 108
0 0 0 0 0 0
0.11326 -0.3483 -0.026108 205 170 134
0.07235 -0.30113 0.057474 72 47 21
0.07242 -0.28964 0.072861 168 136 85
0.04923 -0.28722 0.090931 51 31 3
0.046268 -0.30499 0.067452 52 33 12
0.038289 -0.30717 0.067766 89 61 30
0.03566 -0.30828 0.067222 148 119 77
0.028386 -0.31296 0.063316 161 129 83
0.028386 -0.31296 0.063316 161 129 83
0.029663 -0.27735 0.11354 154 125 78
0 0 0 0 0 0
0.029471 -0.25215 0.15669 180 157 110
0.028235 -0.24916 0.16233 72 49 22
0.022624 -0.27751 0.11493 148 117 72
0 0 0 0 0 0
0.028096 -0.23911 0.18107 142 122 83
0.025325 -0.25245 0.15692 161 140 101
0.019387 -0.28383 0.1059 175 148 107
0.011652 -0.30087 0.082619 157 130 88
0.058849 -0.28883 0.083281 175 143 90
0.038484 -0.31276 0.060365 146 120 79
0.038332 -0.30692 0.068086 92 63 36
0.026375 -0.30838 0.069838 131 99 62
0.022554 -0.2895 0.096975 156 126 84
0 0 0 0 0 0
-0.0081944 -0.29349 0.092749 179 152 113
-0.0064564 -0.28053 0.11114 177 145 97
0 0 0 0 0 0
0.029554 -0.23379 0.19106 133 113 70
0.011517 -0.27183 0.12507 126 100 61
-0.0061318 -0.27999 0.11195 175 145 91
0 0 0 0 0 0
0.024273 -0.26775 0.13009 154 125 77
0.01489 -0.3189 0.058643 176 148 105
0.01298 -0.28379 0.1068 135 107 68
0.082802 -0.29881 0.052488 175 155 110
0.082802 -0.29881 0.052488 175 155 110
0.064739 -0.29784 0.067032 162 131 83
0.064739 -0.29784 0.067032 162 131 83
0 0 0 0 0 0
0 0 0 0 0 0
0.054744 -0.33189 0.027062 167 135 91
0.054744 -0.33189 0.027062 167 135 91
0.048453 -0.33568 0.025379 52 30 6
0.044775 -0.32736 0.037635 177 143 97
0.044015 -0.33251 0.031359 175 142 96
0.026272 -0.37789 -0.014172 162 131 94
0.021744 -0.35653 0.0098875 46 28 2
0.021233 -0.3608 0.0052209 159 134 105
0.0168 -0.35116 0.017194 164 137 94
0.015197 -0.34468 0.025115 176 146 103
0.015197 -0.34468 0.025115 176 146 103
0.0027313 -0.25445 0.1415 172 147 112
0.0082445 -0.33133 0.042628 174 146 103
0.0090428 -0.30803 0.074081 130 107 67
0.0023478 -0.33569 0.037737 131 101 62
0.0023478 -0.33569 0.037737 131 101 62
0.0006506 -0.32531 0.051029 150 119 71
0.0034265 -0.30371 0.080743 139 109 65
0.0034265 -0.30371 0.080743 139 109 65
0.088149 -0.34316 -0.0074133 179 145 90
0 0 0 0 0 0
0.035894 -0.37694 -0.016022 188 149 102
0.029319 -0.34595 0.02017 159 130 85
0.029319 -0.34595 0.02017 159 130 85
0 0 0 0 0 0
0 0 0 0 0 0
0.020666 -0.33695 0.033356 156 127 84
0 0 0 0 0 0
0.011824 -0.33414 0.038577 158 130 87
0.0034213 -0.33176 0.04259 184 155 108
0.00012924 -0.33248 0.04191 185 155 106
0.001369 -0.30606 0.077379 157 126 78
-0.0023298 -0.32811 0.047558 175 142 90
-0.0023298 -0.32811 0.047558 175 142 90
-0.0049424 -0.27086 0.13202 158 133 90
0.03949 -0.3405 0.02326 88 62 35
0.040685 -0.27241 0.12288 146 120 75
0.027127 -0.3416 0.026007 125 94 59
0.030576 -0.27989 0.11366 172 153 106
0.019398 -0.35498 0.012301 168 144 104
0.0071685 -0.31976 0.057913 158 136 89
-0.0049842 -0.27117 0.13151 158 133 90
0.0082092 -0.30323 0.081154 176 150 102
0.0072959 -0.31296 0.067244 155 128 87
0.00030574 -0.31543 0.06423 171 141 90
0.00030574 -0.31543 0.06423 171 141 90
0 0 0 0 0 0
0 0 0 0 0 0
-0.0081486 -0.28974 0.10102 161 133 79
0.028539 -0.37393 -0.010687 171 139 97
0.04475 -0.32416 0.041869 165 134 90
0.014388 -0.35566 0.012276 188 157 113
0.084391 -0.33443 0.0051195 191 161 119
0.084391 -0.33443 0.0051195 191 161 119
0 0 0 0 0 0
0 0 0 0 0 0
0.086255 -0.23347 -0.067161 115 87 46
0.049762 -0.23554 -0.036438 90 62 26
0.046446 -0.24057 -0.044856 146 118 81
0.036845 -0.24036 -0.039668 145 118 74
0.036681 -0.23481 -0.027609 73 51 21
0.031236 -0.25726 -0.0707 146 117 77
0.034124 -0.23634 -0.029932 121 92 56
0.028535 -0.27671 -0.10273 160 129 90
0.030281 -0.24829 -0.053414 153 124 79
0 0 0 0 0 0
0.025428 -0.28503 -0.1142 154 129 95
0.023082 -0.28551 -0.11444 77 50 23
0.021228 -0.28766 -0.117 171 141 105
0.025192 -0.24818 -0.051921 149 120 75
0.02587 -0.2339 -0.021991 158 134 98
0.018566 -0.26369 -0.079544 106 81 43
0.012402 -0.26205 -0.076115 171 143 100
0.0093442 -0.25853 -0.069796 145 116 73
0.01709 -0.21113 0.036608 166 144 91
0.011156 -0.23108 -0.014338 147 122 81
0.049475 -0.27273 -0.1035 174 147 101
0.052044 -0.2345 -0.03583 151 129 93
0.048679 -0.24027 -0.04539 45 28 7
0.040498 -0.29009 -0.1258 159 126 83
0.045994 -0.21633 0.011783 164 144 98
0.041579 -0.21799 0.010285 150 124 81
0.032698 -0.27345 -0.098714 162 131 85
0.032698 -0.27345 -0.098714 162 131 85
0.039463 -0.22404 -0.0040356 153 129 79
0.038508 -0.22132 0.0033621 48 28 2
0.026012 -0.25618 -0.067339 153 125 86
0.024297 -0.2665 -0.085249 159 130 86
0.022574 -0.25242 -0.059589 175 151 107
0.016952 -0.26078 -0.074172 155 130 86
0.015857 -0.26424 -0.080204 161 134 91
0.007869 -0.26229 -0.076419 182 156 108
0.0047738 -0.26279 -0.077328 182 151 103
0 0 0 0 0 0
0.045788 -0.24481 -0.05309 147 121 80
0.042227 -0.26925 -0.09526 90 63 37
0.042167 -0.24529 -0.052161 136 106 66
0.03938 -0.25993 -0.078324 130 100 60
0.030525 -0.2701 -0.092704 126 98 62
0 0 0 0 0 0
0.023549 -0.28035 -0.10725 169 143 101
0.029098 -0.23158 -0.017652 106 83 45
0.011091 -0.2532 -0.06001 160 135 89
0.0060716 -0.22974 -0.011848 132 107 68
0.045716 -0.24482 -0.053071 143 115 73
0.032824 -0.22798 -0.010524 99 78 48
0 0 0 0 0 0
0 0 0 0 0 0
0.04152 -0.23388 -0.027978 103 73 44
0.026496 -0.24125 -0.038085 155 126 78
0.063441 -0.23484 -0.045674 161 127 70
0.061067 -0.22668 -0.026411 81 62 33
0.032718 -0.29536 -0.13014 149 120 80
0.016529 -0.25208 -0.058166 136 105 68
0.037157 -0.27969 -0.10975 153 126 81
0.036747 -0.23208 -0.021766 118 91 54
0.018842 -0.28117 -0.10692 155 126 86
0.0194 -0.23282 -0.018553 104 81 51
0 0 0 0 0 0
0 0 0 0 0 0
0 0 0 0 0 0
0.049435 -0.21741 0.0061876 156 136 94
0 0 0 0 0 0
0.0033484 -0.25922 -0.070423 168 138 87
0.022993 -0.15591 0.10248 53 30 3
0.022993 -0.15591 0.10248 53 30 3
0.026488 -0.15921 0.058911 180 146 94
0 0 0 1 0 0 0 1 0 0 0 1 0 0 0 0 0 243 1 0 0
