ply
format ascii 1.0
comment PCL generated
element vertex 334
property float x
property float y
property float z
property uchar red
property uchar green
property uchar blue
element camera 1
property float view_px
property float view_py
property float view_pz
property float x_axisx
property float x_axisy
property float x_axisz
property float y_axisx
property float y_axisy
property float y_axisz
property float z_axisx
property float z_axisy
property float z_axisz
property float focal
property float scalex
property float scaley
property float centerx
property float centery
property int viewportx
property int viewporty
property float k1
property float k2
end_header
0.084202 -0.013607 -0.52063 50 38 36
0 0 0 0 0 0
0 0 0 0 0 0
0.060381 0.016665 -0.51848 61 54 51
0.060204 0.015358 -0.521 57 50 47
0.060075 0.014329 -0.5229 52 45 43
0 0 0 0 0 0
0.054507 0.021927 -0.51536 130 107 73
0.055519 -0.0085457 -0.48067 158 134 96
0 0 0 0 0 0
0.05227 0.028809 -0.51534 103 83 49
0.05282 -0.0047938 -0.51355 148 122 88
0.051816 0.020468 -0.51562 105 84 54
0.051072 0.036002 -0.51532 127 111 74
0.050208 -0.014506 -0.51335 147 119 80
0.035929 0.057835 -0.51076 61 54 45
0.049303 -0.00098292 -0.51385 120 92 56
0.048296 0.033806 -0.51545 129 108 72
0.048406 0.026864 -0.51589 132 112 79
0.048406 0.026864 -0.51589 132 112 79
0 0 0 0 0 0
0.046999 0.023517 -0.51592 94 74 42
0.048415 -0.039872 -0.51283 137 105 70
0.046304 0.052641 -0.50675 44 32 23
0.045956 0.016035 -0.51619 81 58 29
0.043807 0.014871 -0.51644 142 118 81
0.042532 0.024725 -0.51643 122 104 75
0.043383 -0.040002 -0.51315 136 100 61
0.04158 0.0010914 -0.5142 163 135 97
0.040702 0.0064602 -0.51648 171 149 114
0.03886 0.0054715 -0.5158 62 38 16
0.038918 -0.0085213 -0.51309 136 111 85
-0.018834 -0.056804 0.42839 39 32 26
0.038594 -0.015151 -0.5143 72 51 31
0.036235 0.018613 -0.51683 146 124 94
0.034229 0.018349 -0.51625 70 48 25
0.034951 -0.031927 -0.51295 110 77 45
0.033522 -0.028314 -0.5157 92 64 37
0.031018 0.01851 -0.51654 140 114 75
0.030475 -0.036142 -0.51372 134 103 66
0.030442 0.046368 -0.48381 33 30 25
0.029223 -0.0073585 -0.51201 210 179 144
0.027618 -0.0080173 -0.51129 121 90 55
0.026506 -0.037305 -0.51437 135 100 61
0.024739 -0.0054446 -0.51038 159 121 74
0.023622 -0.0020387 -0.5096 182 147 93
0.020831 -0.035249 -0.5146 63 38 15
0.020831 -0.035249 -0.5146 63 38 15
0.012393 -0.0080381 -0.51109 68 47 22
0.012393 -0.0080381 -0.51109 68 47 22
0.0095322 -0.0039225 -0.51044 74 47 15
0.0095322 -0.0039225 -0.51044 74 47 15
0.0075372 -0.0053735 -0.51107 175 140 88
0.0047435 -0.0082128 -0.51152 193 164 119
0.0022912 -0.010059 -0.51143 147 112 58
-0.0054051 -0.036258 -0.5233 175 138 85
0 0 0 0 0 0
-0.0064646 -0.0086492 -0.51251 174 142 98
-0.0092135 -0.0057439 -0.5091 172 139 89
-0.013707 -0.037109 -0.53309 176 136 87
-0.020327 -0.038035 -0.54687 164 130 82
-0.022987 -0.035877 -0.55891 163 129 76
-0.026162 -0.037272 -0.57809 146 112 67
0 0 0 0 0 0
-0.025797 -0.0078773 -0.50253 167 133 90
-0.027276 -0.012434 -0.49043 179 148 99
0 0 0 0 0 0
-0.032515 -0.0025779 -0.50078 149 124 82
-0.034788 -0.0059268 -0.50065 176 144 98
-0.034848 -0.0093098 -0.50031 174 141 96
-0.036903 0.018723 -0.52345 105 84 55
-0.04001 0.024716 -0.52113 114 95 54
-0.042187 -0.015795 -0.48751 138 106 69
-0.046068 0.024824 -0.51659 164 137 94
-0.046308 0.011417 -0.50116 146 119 77
0 0 0 0 0 0
-0.04743 0.013256 -0.49991 100 74 40
-0.048898 0.01112 -0.5 147 118 76
-0.048926 -0.0040318 -0.49564 148 118 78
-0.049752 0.0075405 -0.49966 149 123 79
0 0 0 0 0 0
-0.053379 0.024176 -0.51445 129 107 70
-0.054406 0.017778 -0.51298 178 154 108
-0.055284 -0.02069 -0.48835 164 137 93
-0.057463 0.010118 -0.49859 156 125 81
-0.057401 -0.016799 -0.49026 177 147 105
-0.057401 -0.016799 -0.49026 177 147 105
-0.060973 0.012087 -0.49807 138 110 69
-0.060973 0.012087 -0.49807 138 110 69
-0.060765 0.0099342 -0.49805 142 114 73
0 0 0 0 0 0
0 0 0 0 0 0
0 0 0 0 0 0
-0.06528 0.0017578 -0.496 108 84 47
-0.065209 0.00030978 -0.49529 122 94 58
-0.066754 0.0031232 -0.49647 153 128 86
-0.070435 0.026304 -0.50948 119 100 59
-0.072195 -0.0040919 -0.49417 150 117 69
-0.07433 -0.0057453 -0.49396 171 140 91
-0.076145 0.021329 -0.50617 192 166 108
-0.079314 -0.0090895 -0.49221 170 145 111
-0.08001 -0.001815 -0.49365 177 149 109
0 0 0 0 0 0
0 0 0 0 0 0
0 0 0 0 0 0
0.074385 -0.030577 -0.51371 55 44 38
0 0 0 0 0 0
0 0 0 0 0 0
0.070065 -0.033563 -0.51178 37 30 24
0.067645 0.025404 -0.52185 40 30 26
0 0 0 0 0 0
0 0 0 0 0 0
0.049725 0.005422 -0.51585 158 134 92
0 0 0 0 0 0
-0.062365 0.052473 0.5668 162 134 93
0.03664 0.048107 -0.4537 45 34 25
0.045155 0.059841 -0.50678 47 34 27
0.061819 0.062625 -0.58056 45 37 27
0 0 0 0 0 0
0.043447 -0.024149 -0.51321 132 103 65
0.041377 0.069367 -0.49981 67 56 48
0.041377 0.069367 -0.49981 67 56 48
0.041209 0.011064 -0.51714 145 124 87
0.041437 -0.011012 -0.5131 139 115 87
0.039876 -0.017063 -0.51379 140 113 72
0.038124 0.050661 -0.498 36 28 21
0.035924 0.022553 -0.51635 141 118 83
0.034104 0.024322 -0.51598 55 39 23
0.032984 0.020595 -0.51653 123 101 65
0.029016 0.012252 -0.51099 114 88 56
0.028505 -0.0026924 -0.51065 195 167 129
0.028764 -0.037016 -0.51385 198 168 127
0.026832 -0.010302 -0.51125 128 98 67
0.025923 -0.033693 -0.51412 106 75 43
0 0 0 0 0 0
-0.0095616 0.0048685 0.1977 155 118 69
0.017447 -0.0037741 -0.51043 79 53 21
0 0 0 0 0 0
0.013733 -0.0055719 -0.51036 156 123 72
0 0 0 0 0 0
0 0 0 0 0 0
0.0036679 -0.012492 -0.50871 174 137 84
-0.0091136 -0.0097746 -0.51055 72 46 23
-0.011364 -0.033921 -0.52934 151 116 69
-0.027941 -0.043557 -0.54014 182 147 98
-0.028949 -0.0044108 -0.5024 121 96 57
-0.028153 -0.035648 -0.49771 85 58 30
0 0 0 0 0 0
-0.034869 0.02209 -0.52291 166 148 109
-0.034755 0.0012093 -0.50208 176 147 100
-0.032877 -0.028528 -0.44827 71 44 20
-0.039851 -0.014497 -0.49214 145 116 73
-0.04245 0.021936 -0.52094 168 143 99
-0.046487 0.022192 -0.51561 145 119 78
-0.045403 -0.017144 -0.48719 162 131 88
-0.045403 -0.017144 -0.48719 162 131 88
-0.048094 0.02895 -0.51326 44 24 5
-0.049375 0.0041439 -0.49869 154 125 80
-0.056016 0.019811 -0.51193 69 47 21
-0.055529 0.0040713 -0.4973 148 118 75
0 0 0 0 0 0
-0.057938 0.02632 -0.51146 141 120 80
-0.057363 0.00013906 -0.49627 172 147 105
-0.061722 0.024928 -0.51138 145 122 87
-0.062136 0.031542 -0.51061 125 106 70
0 0 0 0 0 0
-0.061171 -0.0077887 -0.4943 160 135 90
-0.061555 -0.01032 -0.49269 158 130 89
0 0 0 0 0 0
0 0 0 0 0 0
0 0 0 0 0 0
-0.067751 0.007157 -0.49684 131 107 68
-0.072737 0.02573 -0.50767 180 159 110
-0.074679 0.0094513 -0.49562 161 131 84
-0.08121 0.012616 -0.49584 152 126 83
-0.084679 0.028366 -0.50082 127 103 61
-0.087008 0.031383 -0.49968 160 134 92
-0.087506 0.028538 -0.5002 164 141 100
0 0 0 0 0 0
0 0 0 0 0 0
0 0 0 0 0 0
0 0 0 0 0 0
0.075316 -0.036238 -0.51146 57 51 45
0.075316 -0.036238 -0.51146 57 51 45
0 0 0 0 0 0
0 0 0 0 0 0
0.068808 0.020729 -0.52409 36 27 24
0.067722 0.031597 -0.52268 37 27 22
0 0 0 0 0 0
0 0 0 0 0 0
0 0 0 0 0 0
0.060389 0.019434 -0.51889 65 56 52
0.05448 0.026272 -0.51534 121 100 67
0.051825 -0.024778 -0.51249 167 137 96
0.051825 -0.024778 -0.51249 167 137 96
0 0 0 0 0 0
0 0 0 0 0 0
0.046737 0.062861 -0.50812 71 62 48
0.043595 0.0094845 -0.51649 99 77 45
0.042616 0.02521 -0.5151 125 107 75
0.04073 -0.035658 -0.51336 111 77 45
0.038818 0.069762 -0.49764 43 33 26
0.034411 -0.017039 -0.51355 90 62 35
0.033174 -0.023167 -0.514 134 102 63
0.032736 -0.019676 -0.5142 188 158 118
0.027428 0.0010842 -0.51038 209 177 133
0.027928 0.028877 -0.52126 206 179 131
0 0 0 0 0 0
0.023761 -0.035344 -0.65335 159 121 72
0 0 0 0 0 0
0.010343 -0.011876 -0.5103 177 142 90
-0.0011589 -0.0009709 -0.49363 181 148 100
-0.0098054 -0.0022089 -0.50656 165 132 84
0 0 0 0 0 0
-0.030136 0.026176 -0.52138 115 97 59
-0.024003 -0.023664 -0.39274 51 34 15
0 0 0 0 0 0
-0.036752 -0.016821 -0.48764 146 120 79
0 0 0 0 0 0
-0.045933 -0.02757 -0.47935 165 138 103
-0.047801 -0.014616 -0.49037 128 96 62
-0.053796 -0.0033617 -0.49565 155 128 87
-0.057696 0.03035 -0.50831 136 114 70
0 0 0 0 0 0
-0.066556 0.024477 -0.5109 162 145 100
-0.067664 -0.0010171 -0.4958 163 138 94
-0.074087 0.0028015 -0.49489 176 146 95
-0.074087 0.0028015 -0.49489 176 146 95
-0.079482 -0.0054262 -0.49326 182 156 114
-0.080039 0.0027827 -0.49398 175 146 95
-0.082229 0.027263 -0.50337 153 129 79
0 0 0 0 0 0
-0.086494 0.016682 -0.49898 167 141 99
-0.087018 0.031275 -0.50007 160 134 92
0.067726 0.031656 -0.52258 37 27 22
0 0 0 0 0 0
0 0 0 0 0 0
0 0 0 0 0 0
0 0 0 0 0 0
0.06306 -0.048913 -0.50829 66 56 51
0.06306 -0.048913 -0.50829 66 56 51
0.052196 -0.0011809 -0.51298 129 99 62
0.050825 -0.01244 -0.5475 167 137 96
0.049439 0.029072 -0.51554 136 118 79
0.044231 -0.020717 -0.51314 157 128 88
0.041781 0.063212 -0.50001 60 53 40
0.033906 0.016632 -0.51582 79 58 33
0 0 0 0 0 0
0.01147 -0.0012849 -0.50828 99 61 19
0.010353 -0.011792 -0.51001 177 142 90
-0.022091 -0.0020248 -0.50163 185 152 104
0 0 0 0 0 0
-0.034125 -0.042678 -0.50148 178 150 109
-0.037457 0.0076866 -0.5009 139 111 69
-0.036883 -0.016984 -0.48864 152 123 80
-0.0414 -0.026984 -0.47727 136 103 68
-0.06125 0.018747 -0.50994 149 124 80
-0.06847 0.0037634 -0.49662 154 129 87
-0.067915 -0.0010915 -0.49554 162 135 94
0 0 0 0 0 0
-0.074086 0.002886 -0.49487 174 144 90
-0.074086 0.002886 -0.49487 174 144 90
-0.079872 0.0030625 -0.49413 176 146 93
0 0 0 0 0 0
-0.088168 0.024049 -0.49918 156 131 81
0 0 0 0 0 0
0.064879 -0.0043506 -0.51316 56 45 42
0.0475 -0.031445 -0.51259 163 131 93
0.043798 0.019781 -0.51663 132 115 82
0.041045 -0.00025499 -0.51455 153 127 90
0.041067 -0.0078833 -0.51311 142 117 78
0.018343 -0.03107 -0.51776 87 52 18
-0.0051256 -0.018326 -0.51819 146 121 87
-0.02503 -0.035556 -0.57181 111 86 49
0 0 0 0 0 0
0 0 0 0 0 0
-0.049783 0.021402 -0.51608 48 37 25
-0.063406 -0.026423 -0.74477 49 33 16
0 0 0 0 0 0
0 0 0 0 0 0
0.051503 -0.0094057 -0.51376 130 103 64
0 0 0 0 0 0
0.030351 -0.016057 -0.51387 157 132 95
0 0 0 0 0 0
0 0 0 0 0 0
-0.043775 -0.030818 -0.47381 150 118 77
-0.043775 -0.030818 -0.47381 150 118 77
-0.051671 -0.0048765 -0.49666 147 115 76
0 0 0 0 0 0
0 0 0 0 0 0
-0.084641 0.039066 -0.50198 164 137 79
0 0 0 0 0 0
0.052082 0.0082024 -0.51521 147 128 87
0.044389 -0.040507 -0.5072 138 104 63
0 0 0 0 0 0
0 0 0 0 0 0
0 0 0 0 0 0
0 0 0 0 0 0
0.036283 -0.030283 -0.51292 126 92 61
0.030532 0.0097826 -0.5139 201 174 131
0 0 0 0 0 0
-0.056131 -0.020491 -0.48716 177 148 106
-0.062871 0.00021748 -0.4959 137 107 70
-0.075454 -0.0066443 -0.49074 160 130 78
-0.075454 -0.0066443 -0.49074 160 130 78
0 0 0 0 0 0
0 0 0 0 0 0
-0.014302 0.020484 -0.50924 150 129 90
-0.014302 0.020484 -0.50924 150 129 90
0 0 0 0 0 0
0 0 0 0 0 0
0 0 0 0 0 0
0 0 0 0 0 0
0 0 0 0 0 0
0.012905 -0.036702 -0.51693 122 91 53
0.00053709 -0.0072369 -0.50701 135 110 71
0.00053709 -0.0072369 -0.50701 135 110 71
-0.015388 -0.0070855 -0.49983 116 86 46
-0.015388 -0.0070855 -0.49983 116 86 46
-0.01703 -0.037796 -0.53196 160 124 80
-0.01703 -0.037796 -0.53196 160 124 80
0 0 0 0 0 0
0 0 0 0 0 0
0 0 0 0 0 0
0 0 0 0 0 0
-0.03417 -0.0060745 -0.5011 175 143 99
-0.037607 0.022165 -0.51362 158 142 100
0.038063 0.069905 -0.50503 50 43 34
-0.077116 0.023771 -0.50536 165 140 92
-0.077116 0.023771 -0.50536 165 140 92
0.03615 -0.032524 -0.51006 117 86 51
-0.077072 0.023335 -0.50756 158 135 85
-0.077072 0.023335 -0.50756 158 135 85
-0.072762 0.0086781 -0.5935 140 114 76
0 0 0 1 0 0 0 1 0 0 0 1 0 0 0 0 0 334 1 0 0
