ply
format ascii 1.0
comment PCL generated
element vertex 47
property float x
property float y
property float z
property uchar red
property uchar green
property uchar blue
element camera 1
property float view_px
property float view_py
property float view_pz
property float x_axisx
property float x_axisy
property float x_axisz
property float y_axisx
property float y_axisy
property float y_axisz
property float z_axisx
property float z_axisy
property float z_axisz
property float focal
property float scalex
property float scaley
property float centerx
property float centery
property int viewportx
property int viewporty
property float k1
property float k2
end_header
0 0 0 0 0 0
0.038447 0.059747 -0.052953 174 141 96
0 0 0 0 0 0
0.032814 0.075773 -0.05473 148 118 78
0.052083 0.083313 -0.056056 164 137 93
0.016761 0.085208 -0.054182 156 125 81
0.047542 0.0856 -0.055626 177 147 105
0.047542 0.0856 -0.055626 177 147 105
0.014563 0.089095 -0.055345 138 110 69
0.014563 0.089095 -0.055345 138 110 69
0.016998 0.088908 -0.054636 142 114 73
0 0 0 0 0 0
0 0 0 0 0 0
0.026285 0.094072 -0.055132 108 84 47
0.027948 0.094015 -0.055636 122 94 58
0.024739 0.095716 -0.054509 153 128 86
0.034819 0.1043 -0.05556 171 140 91
0.044872 0.065762 -0.054504 145 116 73
-0.0035295 0.075952 -0.02902 44 24 5
0.0063552 0.084504 -0.029252 69 47 21
0.023597 0.08308 -0.054869 148 118 75
-0.00051517 0.086607 -0.028915 141 120 80
0.028078 0.085195 -0.055045 172 147 105
0.0011387 0.090776 -0.026787 145 122 87
-0.0059065 0.091179 -0.028064 125 106 70
0 0 0 0 0 0
0.03711 0.089714 -0.053102 160 135 90
0.040063 0.090139 -0.055015 158 130 89
0 0 0 0 0 0
0 0 0 0 0 0
0 0 0 0 0 0
0.00045183 0.10256 -0.029472 180 159 110
0.045108 0.074813 -0.05508 128 96 62
0.032057 0.081265 -0.054556 155 128 87
0 0 0 0 0 0
0.001824 0.096038 -0.024613 162 145 100
0.029418 0.096795 -0.054227 163 138 94
0.0076256 0.090176 -0.02993 149 124 80
0.029515 0.097078 -0.05453 162 135 94
0.045291 -0.015516 -0.050026 157 132 95
0.027997 0.091327 -0.056207 137 107 70
0.069097 0.03589 -0.062587 160 124 80
0.069097 0.03589 -0.062587 160 124 80
0.0023229 0.10716 -0.035853 165 140 92
0.0023229 0.10716 -0.035853 165 140 92
0.00291 0.10712 -0.031386 158 135 85
0.00291 0.10712 -0.031386 158 135 85
0 0 0 1 0 0 0 1 0 0 0 1 0 0 0 0 0 47 1 0 0
