ply
format ascii 1.0
comment PCL generated
element vertex 13
property float x
property float y
property float z
property uchar red
property uchar green
property uchar blue
element camera 1
property float view_px
property float view_py
property float view_pz
property float x_axisx
property float x_axisy
property float x_axisz
property float y_axisx
property float y_axisy
property float y_axisz
property float z_axisx
property float z_axisy
property float z_axisz
property float focal
property float scalex
property float scaley
property float centerx
property float centery
property int viewportx
property int viewporty
property float k1
property float k2
end_header
-0.49 0.17639 -1.2173 0 200 0
-1.2118 0.16087 -1.145 128 128 0
-1.906 0.12381 -0.85521 128 128 0
-2.298 0.16381 -0.38899 128 128 0
-2.5503 0.13788 0.49233 128 128 0
-3.1263 0.13421 0.70582 128 128 0
-3.4285 0.12289 1.3446 128 128 0
-3.4911 0.16259 1.7016 128 128 0
-3.3894 0.18819 2.334 128 128 0
-3.4443 0.15468 2.4606 128 128 0
-3.372 0.15434 2.469 128 128 0
-3.4219 0.15205 2.5129 128 128 0
-3.4107 0.15435 2.5046 200 0 0
0 0 0 1 0 0 0 1 0 0 0 1 0 0 0 0 0 13 1 0 0
