ply
format ascii 1.0
comment PCL generated
element vertex 308
property float x
property float y
property float z
property uchar red
property uchar green
property uchar blue
element camera 1
property float view_px
property float view_py
property float view_pz
property float x_axisx
property float x_axisy
property float x_axisz
property float y_axisx
property float y_axisy
property float y_axisz
property float z_axisx
property float z_axisy
property float z_axisz
property float focal
property float scalex
property float scaley
property float centerx
property float centery
property int viewportx
property int viewporty
property float k1
property float k2
end_header
-2.657 1.5805 8.4141 94 49 37
-5.3633 1.9501 20.232 27 15 7
-5.3616 1.9463 20.228 27 15 7
-5.3613 2.6039 20 22 11 2
-5.3858 2.6264 20.116 22 11 2
-0.11597 2.8295 19.904 47 24 17
-3.3359 1.5605 8.5427 42 23 13
0.11956 1.8684 8.4935 137 92 67
0.013376 0.37507 19.646 91 72 55
-5.1736 0.39208 20.507 97 80 58
-2.2763 1.7876 13.383 227 188 157
-1.2216 1.6406 11.48 193 0 10
-2.1987 1.6653 9.0447 7 0 0
-0.10715 1.8207 8.4386 134 86 67
0.036773 -3.6437 21 82 67 59
-0.22263 -3.4384 21.387 255 255 255
-3.6256 1.5496 8.9446 104 77 58
-1.1035 1.6986 9.0727 7 8 0
-0.98411 -1.5795 18.366 53 40 30
0.013964 -3.7785 20.632 255 255 255
-2.7787 1.3996 -3.257 255 255 255
-2.7787 1.3996 -3.257 255 255 255
-5.1453 -3.7264 21.504 255 255 255
-5.2002 -3.6697 21.531 102 85 80
-5.1992 -3.6699 21.525 102 85 80
-0.66718 1.5541 12.072 242 95 97
-0.05764 -3.7141 20.668 89 81 79
-0.05764 -3.7141 20.668 89 81 79
-3.1458 1.8821 12.981 213 61 22
-3.0767 1.903 12.96 176 95 79
-0.16033 1.2953 19.434 27 15 10
-0.16941 1.9307 19.348 30 18 12
-1.4655 1.6092 11.544 234 88 57
-1.7574 1.7066 11.659 224 78 44
-3.5054 1.7515 9.0958 48 22 10
-3.9523 1.7328 9.6471 26 13 8
-4.626 1.8233 9.9092 74 50 39
-1.0758 1.8054 8.9796 97 78 60
-1.0758 1.8054 8.9796 97 78 60
-4.6179 1.7062 9.9303 25 10 2
-2.1946 1.7308 9.0243 141 113 98
-0.607 1.5921 12.183 248 102 99
-2.8512 1.6735 13.342 254 218 158
-1.6016 1.6781 11.564 10 0 0
-1.6024 1.673 11.553 10 0 0
-0.53174 1.4698 8.9441 28 17 1
-0.77621 1.463 8.8272 10 14 2
-1.3517 1.5598 11.616 225 155 157
-1.3517 1.5598 11.616 225 155 157
-3.5837 -0.92482 9.3242 93 76 66
-0.56865 1.5396 8.7423 17 10 0
-1.6558 1.5672 9.4378 11 10 0
-0.64018 1.5944 12.018 252 116 115
-0.69646 1.4885 9.0364 40 31 10
-1.7343 1.7381 8.5978 125 89 72
-0.16632 1.2944 19.416 29 15 10
-0.16469 1.933 19.363 25 14 8
-0.60306 1.7522 8.4522 50 22 9
-0.63175 1.7813 8.5328 44 23 11
-3.4771 1.9046 9.7981 91 61 45
-2.7216 2.3232 11.96 34 0 0
-4.4327 1.7815 9.5056 39 25 22
0.0055123 -3.6072 20.809 79 64 57
-2.4046 1.7171 9.3607 13 10 3
-3.9031 1.8106 9.8201 139 115 98
-5.043 -3.5662 21.719 96 80 70
-4.9423 -3.4866 21.532 88 72 62
-3.9426 -0.94756 8.9593 92 76 65
-0.28502 -2.9932 21.476 52 40 34
-0.58811 1.4329 9.1215 241 159 54
-2.2581 1.5892 9.6643 10 6 0
-0.8969 1.657 9.1469 2 7 0
-2.5272 1.2054 9.8307 204 63 5
-0.13961 -3.6501 20.764 76 67 70
-0.11822 -3.6865 20.902 76 67 70
-10.27 -3.6354 22.597 95 82 82
-2.3423 1.9665 13.624 220 206 214
-10.223 -3.5935 22.565 94 81 79
-10.223 -3.5935 22.565 94 81 79
-4.0845 1.5416 9.7382 15 13 7
-8.8624 8.4149 -33.009 89 78 80
-2.9441 -0.40398 6.0373 96 82 76
-3.2526 2.0191 10.086 180 145 125
-10.636 -2.5015 22.946 249 254 255
-0.52488 1.6769 12.106 195 0 17
-3.8973 1.8658 9.4585 124 91 68
-2.8243 1.8082 9.0719 44 18 10
-10.539 -2.4401 22.59 255 255 255
-10.347 0.40494 21.803 88 72 53
-0.15571 1.289 19.442 21 15 10
-5.3369 1.2737 20.372 27 17 8
-5.3382 1.2743 20.381 27 17 8
-5.362 1.9511 20.268 29 15 10
-5.3602 1.9495 20.251 29 15 10
-5.4237 2.6661 20.422 27 15 7
-5.382 2.6277 20.158 27 15 7
-2.3527 2.0073 13.712 209 184 186
-3.9748 1.7794 9.7594 23 10 4
-3.4461 1.871 9.6633 68 44 29
-3.4461 1.871 9.6633 68 44 29
-2.705 1.8257 9.5541 45 28 17
-2.1394 1.9404 9.6095 161 132 116
-2.129 1.9719 9.7034 161 132 116
-2.1794 1.8747 9.2532 20 10 9
-2.0986 1.8796 9.1979 25 11 10
-3.0826 -0.4691 6.6512 255 255 255
-3.5279 -0.58336 7.2171 255 255 255
-2.1939 1.7253 9.2147 13 3 0
-1.1194 1.7673 8.8826 103 80 59
-2.3634 1.8805 9.4768 116 86 67
-5.1449 1.7758 9.712 27 13 10
-1.0702 1.7368 9.0866 8 7 0
-2.3946 1.6922 9.2426 10 8 1
-3.848 1.7514 9.6367 164 144 128
-5.0441 -3.5546 21.665 95 79 69
-4.7681 1.8759 10.005 4 1 0
-3.4927 -1.2377 10.29 100 87 76
-4.9699 -3.5093 21.612 88 72 62
-9.4292 -3.0921 21.201 90 73 61
-1.8969 1.61 11.437 239 155 154
-4.8503 1.7991 10.151 14 7 2
-2.5183 1.4823 10.82 133 66 56
-1.476 -0.99813 15.949 50 34 26
-3.3202 1.7118 13.094 213 167 172
-2.0969 1.9442 13.159 250 96 58
-5.069 1.6081 9.7542 105 86 70
-5.1723 1.7232 9.9787 55 42 36
-9.8974 -3.3001 22.433 89 72 60
-12.011 -2.4822 24.771 255 242 192
-4.7411 2.9631 18.612 16 26 0
-10.404 -2.3454 22.515 87 58 34
-10.678 2.0071 21.863 20 13 10
-10.678 2.0071 21.863 20 13 10
-5.3137 1.5462 9.3849 23 14 9
-3.9047 1.2467 9.4496 48 33 19
-1.111 1.7336 11.937 191 0 10
-3.1051 1.6268 8.8982 137 107 92
-3.1051 1.6268 8.8982 137 107 92
-10.665 -2.0195 22.605 254 226 165
-10.721 0.12732 22.004 25 26 21
-10.066 -3.3949 22.917 88 72 58
-1.2803 1.6131 11.911 214 163 164
-0.86581 1.9627 12.376 102 0 1
-1.9813 1.8029 9.3471 96 69 58
-4.088 1.5181 9.7261 12 11 2
-2.4599 1.6692 11.648 204 59 35
-2.3038 1.4358 9.1378 14 10 3
-12.121 -2.5623 23.535 177 149 123
-4.6387 2.9499 18.495 82 85 46
-0.046875 0.31391 19.631 86 75 57
-10.733 0.36612 22.243 79 65 55
-10.71 0.37125 22.186 79 65 55
-10.892 -2.6954 23.44 255 255 255
-11.073 -2.6595 23.144 254 217 177
-10.134 -3.6773 22.552 91 87 93
-0.1566 -3.6051 20.675 72 58 64
-2.3213 1.8333 13.543 233 205 183
-5.4333 -3.2744 21.5 255 255 255
-2.4599 1.3932 8.2574 10 0 0
-4.9681 -3.4669 21.387 96 79 67
-0.68509 -1.8637 20.162 44 30 23
-12.026 -2.4933 23.779 162 136 108
-10.486 -1.8857 22.263 254 227 173
-4.7624 1.1654 -1.7018 255 255 255
-11.86 -2.332 24.337 169 142 116
-10.448 0.34053 21.445 80 71 58
-5.3363 1.2743 20.4 29 15 10
-5.3362 1.2757 20.407 29 15 10
-10.438 1.9171 21.21 23 11 10
-10.345 2.0165 21.152 83 64 46
-10.428 2.564 20.956 10 7 0
-0.11942 1.3102 19.565 27 15 11
-1.7677 2.3023 10.725 12 2 0
-10.174 -0.34741 20.843 26 20 12
-1.8016 1.9565 13.11 41 18 10
-2.0782 2.2884 15.004 212 191 196
-3.8646 1.7104 11.295 32 29 15
-6.0602 2.0096 11.334 137 113 98
-10.526 -2.0131 22.161 254 227 170
-10.656 0.091069 21.742 25 25 25
-10.69 0.092112 21.838 26 23 25
-1.894 2.1565 10.607 10 8 4
0.031337 -3.564 20.815 74 61 51
0.0011079 -3.5416 20.71 74 60 52
-1.3218 2.0858 13.554 199 186 194
-6.046 2.0556 11.298 132 110 90
-6.046 2.0556 11.298 132 110 90
-9.3646 -3.0029 20.854 86 70 58
-9.3646 -3.0029 20.854 86 70 58
-0.74303 1.8909 13.221 226 150 148
-2.4874 1.9806 10.898 15 20 10
-0.36185 -1.9975 21.17 26 20 12
-12.076 -2.5295 24.631 255 239 188
-12.081 -2.4667 24.449 178 146 110
-0.098129 -3.2335 21.667 53 41 37
-1.818 2.3377 10.677 178 146 127
-2.3782 2.1038 10.315 36 20 11
-10.847 -1.8541 22.323 151 123 98
-1.2998 1.876 12.482 10 0 0
-1.2998 1.876 12.482 10 0 0
-7.5316 3.0077 17.273 246 229 208
-4.0759 -0.14446 3.897 11 13 7
-3.8599 -0.29529 3.4351 103 71 60
-3.5507 0.45723 6.4084 198 187 199
-10.566 1.995 21.329 82 66 51
-5.3801 2.6384 20.217 30 21 12
-2.6356 2.0482 14.477 221 22 18
-10.663 -0.45888 22.057 29 15 10
-12.067 -3.1221 25.572 255 255 255
-4.733 3.0097 18.871 14 23 0
-0.1514 -3.6066 20.694 64 54 62
-12.231 -2.7865 23.158 255 237 188
-10.542 -0.10963 21.794 13 15 15
-10.385 1.1805 21.605 84 68 51
-2.2198 1.8807 13.75 226 207 195
-9.8164 -3.2379 22.133 89 72 60
-9.8629 -3.274 22.297 89 72 60
-12.408 -3.2805 26.627 255 255 255
-0.079884 -3.692 20.599 84 73 72
-14.065 -3.2774 29.414 255 234 184
-0.027469 -3.7297 20.45 255 255 255
-4.7646 -0.57755 7.111 255 255 255
-12.271 -2.7028 22.99 165 139 110
-10.402 -2.2353 22.224 255 255 255
-10.264 1.8623 20.668 17 8 0
-10.399 2.03 21.316 83 67 48
-9.4794 -3.5109 21.963 85 67 56
-10.503 -1.8389 22.291 254 229 178
-0.12777 1.3053 19.539 25 17 10
-2.2596 2.0125 13.758 199 190 196
-10.525 -0.11368 21.706 21 18 19
-2.8259 1.8272 13.455 216 33 21
-5.7372 1.6163 10.16 13 18 8
-5.4976 1.5556 9.9104 10 17 7
-6.4885 1.6717 10.411 20 10 1
-6.9866 1.7565 10.568 158 131 110
-6.3342 1.6801 10.324 134 107 87
-5.629 1.6612 10.078 162 137 120
-12.45 0.1499 22.092 114 118 123
-12.45 0.1499 22.092 114 118 123
-12.152 -2.6794 22.729 177 143 108
-4.7279 2.972 18.672 18 29 1
-0.15947 -3.586 20.659 64 55 60
-12.09 -2.4415 24.327 172 145 117
-6.8495 1.7752 10.619 45 28 17
-5.7037 1.8329 10.25 106 79 66
-5.4539 -3.2567 21.371 255 255 255
-5.4533 -3.2562 21.366 255 255 255
-10.769 0.063708 22.074 31 28 29
-10.769 0.063708 22.074 31 28 29
-6.1824 1.7049 10.371 33 23 17
-3.6524 1.7234 9.6515 140 112 99
-5.6399 1.6964 10.205 162 137 120
-9.8857 -3.2775 22.452 91 71 60
-11.771 0.20851 20.38 17 14 17
-10.921 2.2746 17.709 26 17 10
-12.3 -3.3725 22.259 101 73 45
-12.323 -3.3833 22.318 101 73 45
-7.3877 1.5488 10.268 18 13 2
-7.1214 1.7071 10.692 30 19 9
-5.7775 1.6936 10.091 10 10 3
-5.2259 -0.58973 7.5696 255 255 255
-5.1906 -0.28627 6.0336 255 255 255
-6.1011 1.5532 10.03 23 22 12
-4.2784 1.6069 10.015 48 0 0
-0.27956 -3.5936 20.261 255 255 255
-12.202 -3.3007 22.165 255 236 191
-12.395 -2.7267 22.049 151 127 105
-12.395 -2.7267 22.049 151 127 105
-12.919 0.0903 23.211 48 42 31
-12.566 0.16148 22.348 114 119 115
-12.566 0.16148 22.348 114 119 115
-12.174 -3.3903 22.205 252 237 237
-12.411 -2.9177 22.162 255 239 188
-12.319 -2.9133 22.384 254 226 172
-12.427 -2.9671 22.702 254 226 173
-12.437 -2.2249 22.187 52 37 26
-5.7577 2.7959 18.154 10 8 6
-5.7577 2.7959 18.154 10 8 6
-7.1829 1.7951 10.536 10 0 0
-5.5036 1.655 10.248 10 14 9
-3.8712 1.4935 10.051 15 18 4
-6.5772 -1.2203 19.951 78 58 43
-0.3662 -3.4972 20.113 67 58 64
-12.395 -3.4271 21.824 255 255 255
-12.732 -2.3013 22.26 50 38 26
-13.106 -0.37748 22.508 40 27 17
-12.358 -3.3206 21.852 107 88 74
-7.105 1.8312 10.512 28 14 11
-2.8046 1.8286 13.562 217 30 22
-5.1157 1.686 10.002 12 1 0
-0.2721 -3.4424 21.288 255 255 255
-12.618 -3.2951 22.27 105 86 70
-6.6275 1.7018 10.442 25 10 4
-0.079574 -3.6895 20.589 77 68 71
-12.477 -2.9436 22.341 254 231 189
-13.392 1.305 22.626 9 4 0
-13.362 0.37108 23.157 86 69 52
-0.027472 2.8761 19.595 33 19 14
-10.565 -0.10428 21.805 26 23 22
-12.1 -2.8666 22.071 254 229 179
-10.855 -2.5622 21.532 255 255 255
-13.315 1.2258 22.292 72 53 38
-13.315 1.2258 22.292 72 53 38
-12.583 -2.2725 22.568 48 33 19
-12.205 -3.0328 21.097 139 118 104
-10.902 -2.5821 21.699 255 255 255
-2.0919 -1.437 16.272 26 17 12
0 0 0 1 0 0 0 1 0 0 0 1 0 0 0 0 0 308 1 0 0
