ply
format ascii 1.0
comment PCL generated
element vertex 171
property float x
property float y
property float z
property uchar red
property uchar green
property uchar blue
element camera 1
property float view_px
property float view_py
property float view_pz
property float x_axisx
property float x_axisy
property float x_axisz
property float y_axisx
property float y_axisy
property float y_axisz
property float z_axisx
property float z_axisy
property float z_axisz
property float focal
property float scalex
property float scaley
property float centerx
property float centery
property int viewportx
property int viewporty
property float k1
property float k2
end_header
0.64434 -0.49319 11.632 19 12 1
0.61487 -0.44463 11.636 1 0 5
0.73948 -0.41189 11.531 3 92 62
0.86091 -0.39167 11.311 9 11 6
0.89429 -1.0175 12.398 3 128 13
-0.49526 -1.0226 12.886 143 101 40
1.092 -0.71951 11.897 4 7 3
0.67162 -0.58704 11.728 1 36 74
1.4334 -0.55707 11.419 114 92 62
0.33938 -0.53634 11.722 86 15 9
0.2152 -0.51423 11.722 3 18 30
-0.13162 -0.49209 11.751 13 7 8
0.20838 -0.48063 11.709 2 29 15
1.4072 -0.44843 11.233 54 99 87
0.21085 -0.45347 11.703 1 8 10
0.59738 -0.42122 11.639 125 34 2
0.59738 -0.42122 11.639 85 29 4
1.3921 -0.38747 11.097 9 1 1
1.9176 -0.38809 11.459 7 6 11
1.8925 -0.31242 11.271 22 22 19
1.901 -0.27165 11.285 7 121 51
1.3492 -0.23565 10.774 149 124 90
0.58515 -0.12667 10.793 78 61 1
1.4761 -0.10155 9.9947 76 41 3
0.70255 -0.067792 10.58 5 119 45
-0.44732 -0.055377 10.847 4 1 12
0.44592 -0.014094 10.72 6 57 18
0.56525 -0.0031657 10.694 66 2 0
1.2755 0.02823 10.442 70 84 5
0.66953 0.035145 10.609 215 179 118
1.2936 0.060073 10.395 37 28 5
1.2853 0.083724 10.507 7 1 6
1.2319 0.15551 10.755 4 73 17
1.4968 0.17432 10.24 174 147 115
1.4968 0.17432 10.24 174 147 115
1.3231 0.20619 10.583 33 62 134
1.3278 0.24397 10.613 31 132 19
1.3162 0.2578 10.724 134 101 55
1.1803 0.26178 10.789 2 9 0
1.348 0.37908 10.799 192 158 118
-1.058 0.37277 10.651 6 117 14
0.71039 0.42289 11.052 49 59 46
0.97606 0.42923 11.032 57 22 6
0.97606 0.42923 11.032 5 0 0
1.3562 0.46096 10.9 13 14 26
1.2717 0.46831 10.998 130 91 42
1.3626 0.50051 10.966 168 132 92
1.2775 0.51156 11.043 15 16 12
1.6972 0.56418 10.978 114 83 40
1.564 0.62851 11.101 1 0 0
0.43736 -1.1699 12.947 5 29 5
0.29865 -1.1184 12.893 16 0 0
0.079015 -0.98458 12.758 45 70 2
-0.47378 -0.98597 12.872 2 78 80
0.9245 -0.93199 12.458 185 159 108
1.3866 -0.69915 11.805 73 0 1
1.4065 -0.66635 11.708 158 132 86
1.4247 -0.60793 11.588 11 2 4
0.89702 -0.6054 11.719 1 1 0
-1.1637 -0.52762 10.841 2 1 93
0.46011 -0.56271 11.734 49 5 4
0.46011 -0.56271 11.734 3 1 9
-0.37993 -0.55058 11.816 8 77 11
0.49695 -0.5335 11.692 30 2 1
0.65858 -0.52076 11.649 41 49 24
-0.39799 -0.51746 11.79 95 3 11
-0.12031 -0.51549 11.747 3 24 10
-0.44388 -0.51636 11.801 147 105 40
0.12263 -0.50811 11.697 76 86 11
1.548 -0.40606 11.044 13 15 25
1.4507 -0.32106 10.363 4 3 2
1.3583 -0.32375 11.072 23 3 20
1.3654 -0.29499 10.902 11 151 9
0.37887 -0.11658 8.1023 30 4 13
1.3586 -0.10168 10.213 1 20 9
0.17012 -0.058419 10.76 19 13 40
0.55079 -0.02894 10.692 33 13 14
1.2277 -0.0032476 10.409 176 138 86
-0.20589 0.068531 6.1173 11 35 1
1.5564 0.21241 10.036 70 39 28
1.255 0.24087 10.765 20 125 6
1.6086 0.28428 10.749 3 2 8
1.3461 0.32902 10.765 176 142 105
1.6354 0.32123 10.163 6 5 6
1.9165 0.37179 10.642 25 131 8
1.0457 0.40616 10.931 7 3 8
1.3383 0.40892 10.946 12 18 26
1.6695 0.41775 10.521 159 133 98
1.6695 0.41775 10.521 16 10 6
1.1958 0.45108 10.981 8 2 7
1.2371 0.45049 10.981 7 1 0
1.6347 0.5565 10.994 128 34 2
1.2125 0.63184 11.16 15 11 2
-0.71529 -1.4538 13.239 10 0 1
0.84615 -1.1856 12.819 14 110 49
0.29884 -1.1211 12.91 11 3 21
-1.1401 -0.84569 11.642 4 104 27
0.56929 -0.62123 11.836 47 28 4
0.53846 -0.49554 11.649 2 6 9
0.18261 -0.33291 8.894 25 1 12
1.3063 -0.4733 11.389 62 70 31
0.82633 -0.040925 10.571 255 255 189
-0.17868 -0.033033 10.799 6 9 3
0.65127 -0.0034507 10.619 3 1 12
0.60221 0.055873 10.782 1 139 8
0.46582 0.11627 13.859 31 103 79
1.2957 0.34223 10.855 13 19 22
0.76309 0.38927 11.009 23 8 16
1.2984 0.39343 10.909 23 3 47
1.3021 0.45436 10.951 10 0 1
1.314 0.5771 11.103 4 35 122
1.5967 0.6356 11.083 10 30 91
-0.88552 -1.492 13.163 126 8 1
0.93296 -1.3207 12.879 3 0 0
-0.57828 -1.2759 13.2 5 18 37
0.65212 -1.1675 12.972 9 16 2
-0.17047 -1.18 13.132 5 129 15
-2.0692 4.2318 -60.383 2 1 11
0.29731 -0.73755 11.736 142 124 91
1.1421 -0.63756 11.701 48 68 21
1.4741 -0.54848 11.179 2 58 16
1.4741 -0.54848 11.179 17 9 6
-1.158 -0.38881 10.506 6 1 14
1.8978 -0.0063194 10.783 22 133 79
0.4778 0.32997 11.276 14 57 6
0.71503 0.38492 11.03 59 135 28
1.1015 0.4179 10.985 125 89 55
1.1696 0.41832 10.979 35 2 4
1.4032 0.41576 10.592 5 2 9
-0.27653 0.48061 11.44 1 0 3
0.092655 0.19922 4.7663 1 15 45
-0.075668 0.4849 11.026 218 172 108
0.37159 0.34125 7.383 15 26 74
1.279 0.60891 11.14 5 6 9
1.279 0.60891 11.14 3 2 2
1.6355 0.62154 11.01 3 73 76
1.6994 0.62186 11.003 11 49 4
0.9115 0.65474 11.354 2 1 2
1.5533 0.68511 11.094 7 22 0
-0.8179 -1.4922 13.292 28 9 3
1.7808 -0.68423 11.532 8 34 65
1.808 -0.60811 11.481 8 130 121
-1.1465 -0.57258 10.922 84 25 6
0.28013 -0.50563 11.706 31 2 2
1.8607 -0.12826 10.948 5 116 112
1.427 -0.049729 9.9694 139 112 70
1.427 -0.049729 9.9694 139 112 70
1.0073 0.13961 10.628 6 5 1
1.3842 0.32828 10.415 32 121 23
1.1242 0.60438 11.155 74 84 82
-0.7859 0.68856 11.399 121 31 10
-0.7859 0.68856 11.399 251 216 161
-0.8603 0.74954 11.348 5 163 21
-0.8603 0.74954 11.348 31 21 15
-1.0332 0.79719 11.077 240 205 150
-0.7418 -1.3744 13.16 29 17 0
1.391 -0.90252 12.237 144 8 16
1.7674 -0.83736 11.551 1 101 87
1.4764 -0.0069133 9.9162 239 210 146
1.9333 0.42872 10.596 23 0 0
-0.65756 0.60484 11.498 2 19 5
-0.20948 -1.1408 13.122 221 187 116
-0.016989 -1.1417 13.084 1 25 145
0.81354 0.67978 11.204 1 0 0
-1.1148 -0.18812 10.091 1 47 30
0.73139 -1.2918 12.989 1 5 51
0.60205 0.63677 11.403 9 12 4
1.4187 -1.1665 12.318 1 4 74
-0.73511 -0.12942 10.979 255 226 155
-0.73511 -0.12942 10.979 255 226 155
1.1293 0.026997 10.904 90 112 81
0 0 0 1 0 0 0 1 0 0 0 1 0 0 0 0 0 171 1 0 0
