ply
format ascii 1.0
comment PCL generated
element vertex 781
property float x
property float y
property float z
property uchar red
property uchar green
property uchar blue
element camera 1
property float view_px
property float view_py
property float view_pz
property float x_axisx
property float x_axisy
property float x_axisz
property float y_axisx
property float y_axisy
property float y_axisz
property float z_axisx
property float z_axisy
property float z_axisz
property float focal
property float scalex
property float scaley
property float centerx
property float centery
property int viewportx
property int viewporty
property float k1
property float k2
end_header
3.4061 -1.7999 12.051 64 29 1
-8.7949 -7.1623 25.933 42 0 0
3.372 -2.9326 11.771 111 72 2
-5.8965 -7.2223 28.296 66 22 1
-6.4601 -7.6118 35.121 219 165 83
-1.5726 -8.9454 44.763 179 75 4
-1.35 0.1699 1.7145 65 26 1
3.8855 -2.0953 16.737 219 198 99
3.3697 -0.2011 15.298 255 253 152
3.9126 0.60883 16.788 255 235 135
4.2836 -0.43401 18.288 255 253 152
-4.2725 -2.8003 38.354 202 162 67
-4.1123 -2.6967 38.378 151 114 20
3.8058 -0.5818 16.686 255 253 152
3.4155 0.35898 15.893 124 132 53
-6.774 1.9957 -22.048 124 132 53
-1.2717 -0.70646 33.856 112 92 52
4.3311 -1.0903 24.048 52 20 0
-2.1432 -0.46292 33.087 78 53 9
-7.78 -0.080013 28.422 185 108 18
-2.4549 0.32683 -3.8849 255 253 152
-2.1369 1.2242 29.853 43 25 0
-1.4879 0.2667 2.0892 87 42 3
3.7248 3.6892 17.004 59 32 1
3.8848 3.6075 17.5 60 34 1
3.7706 5.7478 28.159 142 125 57
-0.43302 6.5399 21.925 37 20 0
-9.7104 -6.9828 23.511 243 167 58
-9.6065 -7.0818 23.832 242 165 54
-9.159 -6.7068 22.624 242 165 54
-10.114 -6.6707 22.941 146 84 3
1.959 -6.8183 24.605 14 0 0
4.2588 -6.4233 24.314 120 124 69
3.4871 -2.9171 12.103 102 71 2
-6.495 -7.2335 30.773 79 61 1
2.2108 -7.1037 30.598 147 124 72
5.3297 -6.9855 32.331 153 127 79
-4.2836 -7.9003 37.234 196 148 39
-3.0187 -7.6708 36.211 192 147 39
-3.0187 -7.6708 36.211 192 147 39
3.8587 -2.3367 16.07 146 107 21
3.9285 -2.3622 16.292 146 107 21
3.4828 -1.5198 12.29 66 33 1
3.8216 -2.0715 16.53 219 198 99
3.7543 -2.0607 16.082 91 60 2
1.5424 -5.7184 43.976 91 59 2
3.6951 -2.0365 15.893 91 60 2
3.5154 -1.0154 12.291 128 96 23
-5.7075 -2.9313 32.15 225 199 123
-5.7075 -2.9313 32.15 225 199 123
3.5406 -0.56931 15.709 186 161 58
-0.48671 -2.4464 36.116 44 29 0
3.3751 -0.59872 12.297 142 103 16
-0.4444 -1.8164 35.726 38 26 0
-2.3722 0.32316 -5.3625 186 161 58
-2.3722 0.32316 -5.3625 186 161 58
3.7595 0.67155 16.761 255 253 152
3.5351 -0.62576 12.719 142 103 16
3.9012 -0.082824 16.849 186 161 58
-2.3865 0.32549 -5.4306 186 161 58
4.4026 -0.48524 18.605 186 161 58
1.8243 -1.0617 33.949 66 68 1
-6.8219 -0.88072 30.909 122 94 16
-2.3886 0.32727 -5.4402 186 161 58
-2.389 0.35185 -5.4431 186 161 58
-2.3948 0.32179 -5.4694 186 161 58
-3.5942 -0.66587 44.612 200 145 45
-9.079 -0.11642 27.974 74 55 1
2.9515 -0.28164 13.904 255 253 152
-8.3601 0.99434 -23.316 255 253 152
-9.1002 0.61763 28.158 62 51 8
-2.4256 0.091401 -5.6146 186 161 58
-1.9003 0.24611 -1.5613 55 25 1
-1.565 0.13128 -2.5914 124 132 53
-1.5876 0.75375 -2.8807 58 15 1
-1.5876 0.75375 -2.8807 58 15 1
-5.1367 1.2463 32.127 91 70 21
-2.9393 0.39571 5.7114 130 86 3
-2.499 1.3124 29.506 143 126 49
-2.0128 1.3112 29.177 154 137 61
4.0851 0.87674 17.419 255 253 152
3.8461 0.85706 16.837 55 25 1
-1.543 0.001016 -2.446 124 132 53
5.2952 1.0339 21.149 55 25 1
-1.8918 0.24536 -1.5389 55 25 1
-9.7134 4.4522 36.203 34 14 0
-8.4795 4.3345 33.113 158 133 73
-8.4795 4.3345 33.113 158 133 73
-8.6926 4.4055 33.033 174 135 69
-8.6907 6.0427 32.386 70 57 23
-9.3982 6.4712 29.375 96 60 2
-6.5735 6.0557 23.893 142 106 29
-6.5247 6.0155 23.694 142 106 29
2.2628 3.0266 11.606 91 60 2
-1.3115 0.92952 2.9955 37 20 0
3.5932 6.5746 23.041 60 38 1
-0.42757 3.5224 12.455 37 20 0
8.1279 21.782 84.142 48 28 0
4.1154 -4.7949 16.544 254 225 106
-5.9346 -8.3828 28.55 52 14 0
3.8376 -4.3125 15.704 254 225 106
-5.9262 -7.1713 24.969 254 218 135
3.9128 -4.3732 15.897 254 225 106
-9.9356 -6.7967 25.89 206 153 49
-8.4213 -7.0676 27.688 51 0 0
-8.4213 -7.0676 27.688 51 0 0
-8.364 -7.9381 31.604 244 196 104
-8.2107 -7.1676 29.211 44 0 0
-7.8866 -7.7413 36.539 255 255 120
-1.593 -0.046614 1.593 58 15 1
-4.3516 -7.0229 38.409 109 57 2
3.9303 -2.1469 16.646 91 60 2
3.8183 -2.2933 16.273 91 60 2
3.4919 -1.4101 12.331 63 33 1
-3.0615 -5.5772 43.483 77 56 1
1.6982 -4.7466 40.634 145 106 20
3.43 -1.1747 12.191 51 22 0
-0.39557 -3.7922 36.32 115 74 2
1.4389 -3.434 37.745 38 15 0
1.8114 -3.4289 37.66 17 7 0
3.4304 -0.85026 12.241 67 37 1
-6.4994 -1.8163 24.55 216 181 90
-6.5337 -1.6668 23.467 149 110 34
3.4808 -0.75873 12.394 59 28 1
-3.905 -2.758 38.339 197 174 69
3.4982 -0.59282 11.564 64 29 1
3.4657 -0.64152 12.365 57 26 1
3.3995 -0.5263 11.054 68 34 1
3.3059 -0.46442 10.557 66 34 1
3.4547 -0.53377 12.352 56 29 1
1.642 -1.1556 33.467 203 201 124
1.3428 -1.0096 32.659 18 10 0
1.5608 -0.91505 33.294 175 175 91
-0.62105 -0.86654 35.109 30 20 0
-2.9948 -1.1143 43.922 160 121 37
-1.1095 -0.73572 33.829 97 79 37
-7.6092 -1.0131 46.073 255 255 255
3.4924 -0.11584 12.527 55 29 1
-8.1831 -0.75658 39.256 80 39 1
-8.1835 -0.76332 42.054 68 36 1
-9.0078 0.34237 27.822 90 69 2
-1.2315 0.41804 34.582 34 31 0
3.4477 0.42386 12.471 69 39 1
-9.1783 2.1282 35.11 33 9 0
-10.379 1.9388 23.932 45 0 0
-10.288 1.9271 23.703 45 0 0
-9.8551 2.9969 29.096 49 18 0
-1.5404 -0.098252 -2.4465 124 132 53
-9.7245 6.5213 29.552 111 68 9
3.7805 6.957 27.908 206 174 70
-7.1024 6.6347 26.179 142 106 29
-7.1024 6.6347 26.179 142 106 29
-2.0024 6.7359 24.071 37 23 0
-5.8848 6.6636 23.316 77 55 14
3.6309 6.3626 22.146 58 42 1
-2.7073 7.5837 26.051 27 14 0
-5.3384 -9.7504 33.511 88 74 42
3.6895 -4.806 17.438 255 255 223
-8.1878 -7.9411 31.95 32 0 0
-8.6089 -5.7855 24.363 16 6 0
2.1461 -7.2424 30.398 23 8 0
-5.5607 -8.241 39.092 255 245 123
-0.78367 0.7773 -3.1633 65 26 1
5.0827 -5.7651 31.001 110 81 21
-4.3583 -7.0711 38.665 109 57 2
-3.3104 -7.5992 43.016 254 210 89
5.2403 -4.0753 31.87 88 74 4
2.0009 -5.111 41.749 105 95 23
5.7819 -7.2068 58.933 59 56 20
-4.3111 -4.2056 38.408 74 49 10
-0.43897 -3.605 36.884 192 161 53
3.593 -0.012975 12.791 55 28 1
-2.7278 0.24436 -3.7289 55 28 1
-8.0505 -0.74984 41.259 68 36 1
1.635 -0.41549 34 61 57 9
13.276 -0.10054 40.695 54 28 1
5.3086 0.21181 32.907 74 50 1
-1.9424 0.17789 -1.6811 55 29 1
4.1436 1.4467 50.224 84 51 1
6.0346 1.7637 57.489 124 90 26
6.8906 2.1193 52.615 159 116 37
3.6407 3.6664 46.582 108 66 9
3.8613 2.4445 16.747 217 195 99
0.065906 6.4907 35.448 86 58 9
3.76 5.673 27.284 10 10 0
-9.0913 6.5016 29.015 15 7 0
-9.9394 6.6082 29.297 41 19 1
-3.9374 4.9482 20.862 18 10 0
4.2497 6.4941 27.621 7 0 0
1.9755 7.0251 26.727 93 66 11
-8.978 -5.4254 19.583 149 98 12
-7.2797 -5.9331 24.163 255 254 255
-5.4707 -7.6464 33.002 191 135 32
-5.9988 -7.9476 35.864 187 150 44
-8.1999 -7.7148 36.372 87 51 1
-0.33513 -8.4472 40.951 255 255 137
-1.2479 -8.6159 43.552 166 60 4
-0.034484 -8.4001 42.481 168 37 4
-0.017041 -8.5691 43.317 168 37 4
3.141 -7.5068 38.071 71 36 1
-8.0354 -6.6892 35.168 148 106 13
-7.4024 -8.3248 45.476 81 45 1
-4.293 -6.5824 43.413 168 118 24
6.5686 -7.0638 56.396 83 72 30
6.9427 -7.4176 59.204 83 72 30
4.3913 -2.761 23.162 188 171 93
1.278 -4.8922 43.368 172 127 26
1.7573 -4.5459 42.479 34 0 0
-4.3214 -0.78893 46.393 224 156 35
-4.3214 -0.78893 46.393 224 156 35
-1.4075 0.76568 33.946 44 33 0
-10.43 0.79857 27.098 86 51 1
-10.297 1.034 24.856 114 71 2
-8.7357 1.7146 37.61 16 6 0
-3.4347 2.9502 19.194 29 30 0
4.4221 5.1062 27.954 22 18 0
3.9304 3.0267 15.979 38 23 0
-5.4614 6.2352 24.488 158 111 17
-5.4614 6.2352 24.488 158 111 17
-2.0491 6.3274 24.801 47 28 0
-0.92077 -0.15308 -1.9045 80 53 3
3.4929 3.7505 13.467 148 119 43
3.5393 6.2557 22.333 255 255 217
3.5689 6.2944 22.465 255 255 217
-8.5203 -7.3171 34.446 25 11 0
-8.5203 -7.3171 34.446 25 11 0
-3.7955 -8.6958 40.879 255 255 255
-7.2696 -8.476 42.678 120 75 9
0.047311 -7.5838 43.664 255 239 116
-0.39903 -6.9356 42.01 36 44 12
0.59874 -6.364 38.745 11 10 0
-4.876 -6.6818 46.56 108 46 2
1.411 -5.2591 42.322 121 92 6
-3.3194 -5.1874 44.421 164 115 24
4.5828 -2.4983 25.561 255 251 161
5.4802 -1.186 40.226 227 203 96
-6.7542 -0.96557 51.366 255 255 251
-6.7542 -0.96557 51.366 255 255 251
-9.1835 0.78184 28.784 51 50 3
-9.1835 0.78184 28.784 51 50 3
-8.9102 2.7584 36.892 119 82 16
-9.4351 2.5003 28.68 112 70 5
-9.0202 3.6043 37.486 95 57 5
-11.14 4.0275 27.705 10 2 0
3.4292 2.4151 12.699 89 65 9
4.5247 5.4139 27.116 11 12 0
-1.6504 5.9567 26.054 23 10 0
-5.1819 5.8344 24.159 181 136 34
4.0457 6.0228 23.237 15 10 0
-6.323 6.9595 26.467 7 0 0
-2.9154 7.8699 26.181 13 6 0
-5.6631 -7.8739 29.55 254 223 104
4.388 -5.9005 24.467 103 104 50
-4.0846 -7.7535 38.255 167 117 21
-1.6848 -6.9049 42.412 18 33 0
6.4714 -6.6342 58.99 164 132 53
-4.7011 -3.5042 38.19 25 22 0
-5.239 -2.9489 37.691 188 153 28
-5.239 -2.9489 37.691 188 153 28
-2.7354 -1.2117 38.582 156 119 24
-2.3843 -0.1324 37.586 64 40 1
-4.7883 0.6678 40.224 80 44 1
-0.47409 5.7803 31.612 161 118 34
-5.8183 6.0244 26.573 23 10 0
3.357 6.5932 22.806 34 20 0
3.5422 6.8737 23.78 34 20 0
-9.1057 -6.733 25.859 48 36 7
0.021877 -7.6623 42.53 249 199 82
4.823 -3.94 25.386 227 205 130
-1.7362 -4.6302 39.627 228 182 66
3.9121 -1.7532 16.213 131 91 10
-4.7436 -4.2423 38.056 123 104 34
6.0316 1.4079 44.775 138 83 11
-5.3295 1.5674 32.116 26 21 0
-9.3205 3.6955 34.221 101 64 4
-0.4156 3.3705 30.801 159 116 30
0.39569 5.2503 36.146 117 83 26
4.0067 2.8984 17.266 39 21 0
-1.083 6.1974 33.344 32 17 0
3.699 6.497 29.035 156 129 46
4.0398 4.6786 19.004 150 119 33
-6.2767 6.9963 26.137 13 6 0
-2.0371 6.5613 24.439 20 12 0
2.3919 -6.1302 27.988 189 161 74
-5.2054 -7.5837 41.824 207 146 28
-8.8601 -5.5098 32.518 168 116 21
4.2415 -3.0714 20.376 130 103 18
-4.9497 -5.6778 38.924 254 218 130
-6.1065 -4.9096 41.404 60 42 5
2.827 -3.2535 35.348 115 130 53
-1.5174 -3.4919 38.477 39 38 3
-1.0377 3.112 34.174 47 18 0
-9.6416 3.1511 30.091 19 13 0
-10.669 3.8423 28.156 15 6 0
-1.0683 4.3434 30.681 49 19 0
-3.8062 -7.0438 39.759 113 73 8
1.73 -7.7095 44.23 254 219 142
1.703 -7.6306 43.827 254 219 142
-7.0001 -5.6567 39.148 189 130 21
5.4431 -3.8772 40.368 52 50 1
-2.6413 -2.4965 38.067 193 167 66
-6.7732 -2.0495 44.667 133 91 10
5.4899 0.59701 53.739 140 99 29
2.2988 5.8907 45.808 228 175 69
-2.5418 5.735 22.687 215 178 60
-7.3281 -8.1366 38.141 255 255 164
5.7689 -7.7943 40.824 82 39 1
5.4071 -11.444 59.928 159 110 24
-6.4348 -7.3368 41.67 36 10 0
-6.4348 -7.3368 41.67 36 10 0
-9.4408 -5.471 47.105 91 57 8
2.1245 1.1676 36.827 195 156 53
-9.525 -6.1955 33.327 150 98 14
-8.4077 -5.4439 34.933 255 255 208
-3.6677 -4.4061 41.326 30 21 0
-2.5297 1.8726 28.202 57 40 1
3.3062 -1.8497 36.637 242 223 110
0.53516 -1.6753 34.953 33 23 1
-3.1614 -1.0882 44.093 172 135 45
-9.097 -0.29831 32.323 158 140 94
-10.818 -2.8407 33.084 44 25 0
1.5349 5.7733 31.614 156 121 38
-9.2781 -6.37 20.284 254 185 87
-8.4025 -6.5222 21.94 255 241 147
-1.8041 -9.0952 31.177 80 72 42
-8.4649 -6.368 21.941 26 0 0
-8.5486 -6.8991 24.978 39 6 0
-5.5364 -8.5158 31.505 39 0 0
-9.6901 -6.2168 23.842 145 90 3
4.5533 -5.7666 23.79 251 227 129
4.5426 -5.4449 23.791 255 236 138
0.48615 -8.0967 39.571 255 255 146
-0.0053304 -8.7116 43.236 174 32 4
7.3173 -9.7098 56.715 168 137 61
8.3893 -8.573 32.499 152 118 11
-2.6287 1.0007 -2.6135 154 129 59
3.7845 -2.1682 16.416 200 176 70
-1.7504 -6.1583 43.454 1 21 0
-4.428 -4.7695 38.991 48 14 0
-4.8426 -3.9262 36.53 104 112 32
1.9527 -3.4003 35.698 71 76 8
-0.92327 -3.1783 37.524 66 67 8
2.3268 -2.9001 35.868 115 109 30
-6.4595 -1.7141 23.598 27 11 0
-6.4595 -1.7141 23.598 27 11 0
-0.72731 -1.664 35.512 64 60 5
-4.5467 -0.20831 41.997 189 143 62
-4.2028 0.40769 46.065 110 37 2
5.2917 0.73473 30.324 47 16 0
-1.6132 0.57699 3.5883 180 152 70
-1.7897 0.2147 2.1272 52 22 0
-8.8889 2.0148 36.112 48 10 0
-9.4641 2.4461 32.797 55 16 0
-10.521 3.4088 29.1 57 27 1
3.8646 5.8339 28.522 135 117 57
-6.1697 6.0183 25.94 70 39 1
3.9387 7.1625 27.974 91 72 14
-1.9753 7.0733 24.711 255 255 196
4.1924 -4.7998 16.387 99 73 2
3.8939 -4.5397 15.403 181 164 60
-6.1604 3.4803 -10.912 126 101 35
3.8194 -4.289 15.278 177 152 52
0.33447 -7.6142 36.169 221 180 72
-3.0115 -7.5998 35.895 182 144 39
4.7489 -7.9251 38.819 116 80 18
-6.3898 -7.7807 43.061 252 28 39
4.0219 -2.6186 16.503 148 106 24
-0.23614 -7.0023 41.63 22 10 0
-6.3719 -3.0487 23.137 44 26 0
-6.3719 -3.0487 23.137 44 26 0
-6.268 -2.9875 23.118 255 245 150
-4.2952 -1.2461 10.562 255 255 165
-6.7075 -2.4833 21 176 154 85
3.1965 -3.6521 14.555 210 172 66
3.8125 -1.6461 16.565 255 246 145
-0.68989 -3.4268 36.889 66 62 1
-5.4776 -3.0241 32.553 228 201 124
3.8303 -1.3257 16.665 255 254 155
3.5675 -1.0378 14.001 147 111 34
-5.8203 -2.6531 30.088 196 177 104
3.8886 -1.2345 16.837 255 255 161
-0.44238 -2.7276 36.134 44 31 0
-0.46217 -2.4439 36.21 30 18 0
1.7216 -2.4301 36.814 25 15 0
3.8627 -0.75624 16.415 255 246 151
1.6296 -1.6163 33.432 16 8 0
3.9314 -0.44055 16.654 255 236 141
-0.51769 -1.2056 36.021 20 13 0
-9.2286 0.32862 28.6 82 68 1
-14.166 0.49603 48.49 73 54 5
5.1348 0.6951 29.096 225 198 104
5.9347 1.678 39.164 255 255 255
5.9347 1.678 39.164 255 255 255
-2.2735 1.3327 30.037 150 132 60
-8.1684 1.9834 43.733 134 84 16
5.1379 4.6698 33.382 120 85 11
-8.8116 4.4869 33.668 181 138 51
4.0354 2.6637 17.359 34 11 0
4.927 4.1756 26.821 174 151 59
-8.6378 4.7616 32.018 64 49 12
5.0323 5.9319 38.245 232 193 88
5.0323 5.9319 38.245 232 193 88
5.4435 5.7839 36.096 216 183 63
5.4435 5.7839 36.096 216 183 63
-9.5291 6.589 29.138 29 15 0
-3.5672 6.3698 23.923 11 2 0
4.4781 6.4337 22.825 123 98 21
4.0337 6.5543 22.667 133 117 48
3.5482 4.5751 16.929 140 112 31
-0.69178 7.1592 23.708 91 61 8
4.0245 5.6716 18.24 59 33 1
-1.9062 0.89976 -3.8473 150 106 10
-12.206 7.1542 -23.043 245 210 93
-5.5166 -7.962 26.711 83 58 16
-12.078 6.7482 -22.78 220 185 70
-9.3741 -6.0338 20.47 192 125 43
-6.5791 -6.1302 21.803 224 178 96
-9.2767 -6.0586 23.95 182 130 41
-5.5747 2.3793 -8.4733 109 81 2
3.26 -2.5405 11.786 160 120 22
1.7537 -7.5539 33.542 161 141 75
2.4822 -8.1258 41.021 56 27 1
3.8752 -2.7585 16.057 136 91 3
-9.6135 -3.6785 25.293 57 19 1
-5.0117 -4.894 36.655 207 186 104
19.315 11.764 -84.173 67 45 21
4.9066 -3.5734 30.342 255 254 158
1.8389 -5.0107 42.963 153 114 31
-1.3663 -4.0444 36.763 201 156 51
-6.1021 -2.2174 27.018 186 157 75
-6.5128 -1.6567 23.216 206 183 99
1.8277 -2.2609 34.675 27 20 0
-7.0352 -1.3712 21.909 39 25 0
1.6861 -1.4193 33.086 206 199 119
-0.92514 -1.2245 34.642 84 78 10
7.5771 -1.3954 62.046 130 91 3
6.1724 -0.83954 43.409 174 114 8
-1.5433 -0.57058 33.588 255 249 234
-1.5433 -0.57058 33.588 255 249 234
-7.2799 -0.63707 34.033 87 51 1
-0.73566 -0.54814 35.005 32 25 0
-8.2343 -0.72325 45.363 254 221 96
-1.0739 0.087665 33.725 46 44 1
7.3916 0.89843 64.447 105 62 6
3.718 -0.42572 16.118 255 242 149
0.67205 0.86955 33.109 25 10 0
0.83886 1.468 29.837 20 17 0
4.7753 1.4343 25.535 41 18 0
-3.5025 0.59837 4.6131 90 66 2
3.8863 5.4935 28.168 33 25 0
3.9477 3.6619 15.873 134 118 35
-9.5664 6.3913 28.973 109 65 2
-9.6018 6.6272 29.26 33 24 0
4.6458 6.458 26.784 114 91 20
-1.6178 6.6381 25.911 45 29 7
3.6746 3.7482 14.087 136 109 39
-4.176 6.6 24.579 160 143 81
3.5301 3.8526 12.894 96 80 25
-1.9948 7.7265 26.36 50 35 7
3.6804 4.0647 13.291 105 83 24
-2.9221 7.0424 21.86 12 3 0
-2.6433 7.3492 22.022 4 0 0
-2.6433 7.3492 22.022 4 0 0
-5.2783 -8.5357 28.394 117 103 56
-5.2783 -8.5357 28.394 117 103 56
-7.6977 -6.4123 21.653 254 214 81
-8.4458 -7.3139 27.915 254 228 113
2.1281 -7.7964 33.62 159 132 73
-8.4394 -6.7487 32.495 157 107 18
0.96526 -8.286 42.166 158 49 3
4.3359 -3.9916 22.927 69 43 1
-0.73949 -7.4034 44.224 22 53 0
-4.0967 -6.3245 43.861 85 45 5
-1.8455 -6.0009 43.183 72 58 9
1.3073 -5.6306 46.013 131 96 4
-0.91529 -3.7028 38.097 203 184 94
0.81906 0.81188 30.129 59 57 12
7.5493 1.6868 56.886 71 39 2
4.6786 1.3879 24.424 216 198 114
-8.1857 3.3402 42.431 32 9 0
4.5136 2.0919 21.851 30 10 0
-9.7076 2.908 29.762 10 3 0
-3.1983 2.22 19.988 10 12 0
4.4923 2.6242 21.369 159 143 56
-2.3145 2.6248 19.822 10 12 0
5.5613 4.6812 34.718 255 241 149
-1.9765 3.287 20.358 13 15 0
-10.202 3.7879 19.725 89 64 9
-6.2506 5.7621 25.044 60 32 1
4.2183 5.131 20.452 19 11 0
-3.0277 5.5718 21.962 16 7 0
2.0626 7.1709 27.277 93 67 14
-4.2855 6.4247 24.57 2 0 0
-2.4432 7.1532 26.537 20 10 0
3.3859 6.2706 23.021 255 243 167
-3.4168 6.8863 23.893 71 62 29
3.6882 5.062 15.052 137 109 29
-0.22186 7.3157 21.872 19 1 0
-9.9576 -6.8374 23.356 188 125 13
3.873 -5.0593 20.593 160 147 66
3.697 -3.3986 14.039 116 101 30
-4.6191 -7.2944 32.267 145 101 18
3.1969 -6.309 28.761 137 107 34
-8.1126 -6.9072 33.667 163 117 24
-1.2662 -8.5357 43.15 191 44 10
-3.6387 -7.5131 41.44 84 48 1
4.9995 -4.4261 29.534 255 255 159
-0.24662 -6.754 44.103 10 26 0
-1.3787 -6.5749 44.515 191 255 226
-4.3547 -5.663 39.524 123 39 4
-0.97436 -6.3102 44.053 139 123 59
4.2902 -2.4484 22.558 255 255 178
-2.7963 -4.5971 42.089 28 0 0
5.1234 -3.1706 30.828 245 228 120
7.9664 -6.5378 61.881 149 137 53
4.0126 -1.4585 16.623 224 212 116
5.1792 -2.0879 31.203 225 200 91
-7.5317 -0.50791 32.921 87 58 1
7.3386 1.1086 55.34 169 132 52
-10.049 0.76903 25.939 90 53 1
-8.9637 2.7791 37.19 111 72 13
4.3268 2.3396 20.36 37 15 0
-2.4839 2.5437 19.683 64 68 18
-2.4839 2.5437 19.683 64 68 18
-0.19774 6.4434 32.816 47 31 0
-0.19774 6.4434 32.816 47 31 0
4.0138 6.3798 28.41 1 0 0
4.6884 6.2232 25.441 255 245 154
-6.8637 6.4606 25.61 156 107 16
4.1257 5.3511 20.254 14 10 0
3.5876 4.0085 13.668 137 108 33
-5.1898 -7.7728 32.204 33 2 0
0.20727 -8.1909 39.622 255 255 147
-5.656 -7.8754 39.291 133 84 13
4.246 -2.7193 22.544 201 188 99
3.9746 -2.5825 21.56 201 188 99
1.5446 -5.5458 44.617 125 99 14
6.9311 -6.1544 50.362 177 142 57
-6.3851 -4.1682 36.925 99 69 9
3.7374 -1.2157 14.552 200 163 51
-5.8763 -2.3562 29.748 62 52 10
-7.1183 -1.1736 33.525 119 77 4
-3.7959 -1.0926 38.345 144 107 17
2.9452 2.2975 39.129 125 86 26
-9.1602 2.1759 35.903 16 7 0
-9.1068 3.645 37.968 79 43 1
4.4608 2.8337 23.993 97 83 14
0.11853 5.9271 33.397 93 62 11
-2.6645 4.9048 20.988 15 11 0
3.5167 3.1135 12.691 144 120 48
3.6045 3.7072 14.927 64 54 12
3.6012 3.3892 12.873 13 3 0
-1.8412 7.6153 25.6 30 17 0
-2.7715 7.3444 24.443 9 1 0
-9.2274 -6.2904 22.069 23 1 0
-4.8337 -0.65095 40.069 79 35 1
-4.8337 -0.65095 40.069 79 35 1
-7.4792 0.15449 25.511 149 92 6
-7.4792 0.15449 25.511 149 92 6
-8.8923 4.4323 31.689 0 0 0
4.0988 3.3781 16.934 152 134 48
1.8052 7.1114 26.49 92 66 15
1.7935 7.0803 26.402 92 66 15
-5.3263 -7.0778 23.584 26 25 0
-8.2464 -7.2077 36.755 118 80 7
-4.0811 -2.8457 40.52 198 167 63
1.6104 -2.1375 34.34 114 103 57
-5.7228 -0.056407 36.569 55 43 1
4.9731 0.37048 29.002 216 192 95
-5.0613 1.1547 36.242 111 85 21
-2.7458 1.1439 30.983 99 72 2
-0.05496 1.1116 29.289 116 98 24
-0.05496 1.1116 29.289 116 98 24
4.4596 3.6515 27.22 104 86 18
4.3838 5.5167 21.321 36 26 1
-3.9098 -8.2147 27.419 104 87 36
-9.1503 -6.7532 30.106 148 92 12
3.8795 -3.4394 18.825 55 36 1
-3.907 -7.2293 40.8 111 68 9
4.4122 -4.2935 25.998 48 29 0
5.9175 -5.4675 40.363 130 89 9
6.4583 -0.00079562 45.792 159 90 6
0.75561 0.56509 31.323 74 71 31
6.2239 1.4846 45.813 142 79 9
3.9351 3.0903 18.229 164 136 40
3.9351 3.0903 18.229 164 136 40
3.8389 3.8821 18.142 138 107 20
-5.8843 6.4013 26.019 171 123 21
-1.9622 7.6826 24.824 14 8 0
5.5792 -3.9068 34.838 255 255 157
5.6375 -4.0048 41.404 66 72 12
-3.4639 -0.36778 46.793 255 255 236
-8.6719 3.2732 29.953 94 61 2
-8.6574 3.2493 29.885 98 66 4
-7.8224 -6.2896 26.129 204 147 45
-7.8224 -6.2896 26.129 204 147 45
3.6722 -2.9244 18.556 119 91 12
3.6722 -2.9244 18.556 119 91 12
-6.9019 2.9042 38.869 102 59 2
3.5474 3.3063 14.151 140 103 16
3.8917 4.0019 16.755 29 19 0
3.8917 4.0019 16.755 29 19 0
0.11821 6.5825 23.737 85 59 11
0.11821 6.5825 23.737 85 59 11
-0.23543 6.9139 21.974 236 202 81
-0.13487 7.339 23.353 236 202 81
-4.6255 -8.2218 30.756 40 40 9
-10.293 -5.2642 21.872 107 66 10
4.3978 6.159 28.657 23 23 6
0.87818 8.2608 36.233 159 125 43
1.277 7.393 26.309 91 68 16
-3.3242 6.9081 23.633 23 15 0
-8.6573 5.0407 28.85 2 0 0
-9.1834 -2.2494 27.092 42 23 0
-1.3144 -8.3162 38.988 255 255 163
3.2544 -0.83336 17.736 255 240 125
4.0955 -4.047 16.631 104 67 2
-0.45704 -6.543 43.048 2 31 0
-6.0707 -0.85787 33.549 157 113 24
-4.5051 -0.88354 41.15 254 202 102
-4.7176 -0.88248 42.242 77 33 1
-1.3736 0.58976 17.542 149 126 46
-4.9308 -0.8994 -40.082 137 118 49
6.5498 1.8112 44.167 206 154 45
-2.5244 4.6453 20.349 18 4 0
-1.7477 -9.4609 30.49 40 29 0
-8.72 -6.0526 20.503 238 165 65
-8.3332 -6.0426 20.487 220 151 61
4.3068 -6.193 21.459 255 255 153
1.5675 -7.3983 27.895 25 12 0
4.1292 -4.1775 16.036 154 128 39
-2.3969 -0.00061429 1.0809 101 81 2
4.8191 -5.363 24.756 221 191 89
0.97825 -6.0285 43.995 25 11 0
1.7117 -5.5126 45.008 80 53 1
-6.6048 -1.8564 16.57 112 77 11
4.9755 -3.263 28.648 244 234 141
2.0564 -3.1712 38.464 10 3 0
2.288 -2.9213 39.492 12 6 0
2.0217 -2.0605 36.119 11 3 0
1.7746 -1.2101 34.531 219 218 156
8.2281 -0.73886 66.227 189 127 30
7.8692 -0.6379 60.441 152 119 42
0.58541 -0.091849 30.548 22 15 0
-8.3704 0.070826 25.131 59 48 1
-3.6843 0.034586 46.207 246 189 77
1.2362 0.20958 31.81 47 49 1
0.75551 1.3308 30.338 142 125 57
-0.56625 -0.46817 -5.1837 117 63 2
-9.0616 2.0914 34.52 28 9 0
5.0316 2.3206 26.392 90 76 11
4.4788 2.9524 20.915 65 51 1
3.8379 3.7106 15.253 139 115 33
-5.369 6.4187 25.104 7 0 0
-8.441 -5.9908 20.618 28 5 0
2.6177 -6.0301 24.431 52 16 2
5.2081 -6.7862 30.785 129 110 65
-5.9525 2.675 -7.6975 140 110 6
3.9451 -3.0886 16.113 125 84 10
5.5403 -5.9869 32.413 61 39 3
-6.0674 2.6451 -7.9963 157 125 12
4.2363 -2.9854 18.978 73 66 10
8.821 -6.9764 61.662 89 58 9
-5.7427 -1.7133 -8.0588 141 111 38
-1.1695 -4.0464 38.471 86 51 4
-5.3788 0.81534 -6.5807 80 52 1
-6.1788 -1.6645 22.647 207 193 94
-2.0105 -0.63787 35.399 255 255 241
-9.3213 1.7774 52.732 137 89 13
3.2917 3.9615 43.123 119 73 9
-2.953 0.38473 2.4832 159 106 11
-8.3531 4.8574 30.578 69 56 20
4.8876 5.176 28.227 59 40 1
3.4173 6.3709 23.752 0 0 0
3.5973 7.0623 25.138 135 116 49
-3.1788 6.7296 21.093 68 56 22
3.2484 6.4822 19.397 7 7 0
-6.0242 -6.872 24.23 38 0 0
-7.9902 -7.4532 31.586 13 0 0
3.9055 -3.3975 16.001 152 111 11
5.1222 -5.5169 29.819 255 255 255
5.1222 -5.5169 29.819 255 255 255
-4.3237 -7.1082 39.05 90 51 1
8.0818 -9.8219 62.056 255 233 143
0.91668 -6.3572 43.736 2 28 0
0.64709 -6.115 43.545 157 194 171
-0.3884 -5.951 43.487 26 29 0
-3.1176 -5.6619 44.013 99 83 13
7.5916 -7.4998 59.661 217 201 112
-0.76669 -3.9025 37.403 90 67 4
4.2931 -1.5623 16.896 199 175 77
-5.4316 -2.9272 33.658 64 56 4
-7.5482 -0.71336 43.511 123 70 3
-7.5482 -0.71336 43.511 123 70 3
-7.8877 0.45424 42.206 159 107 26
-7.7912 3.3552 41.739 128 83 11
4.7994 2.9252 27.598 16 2 0
4.8039 6.115 27.943 33 17 0
-1.1528 6.0491 24.515 17 6 0
4.9449 6.7126 27.172 7 0 0
-1.3605 6.1755 24.822 94 74 21
-3.4242 5.7875 21.666 13 8 0
-2.8315 6.2689 23.356 10 0 0
3.4769 6.3644 23.374 246 241 161
1.4437 -6.3462 24.571 29 3 0
-7.7498 -7.4076 29.797 34 0 0
-7.7498 -7.4076 29.797 34 0 0
-8.5516 -5.3189 23.771 121 71 2
3.3181 -7.7241 39.182 72 34 1
8.7037 -11.015 69.534 128 97 18
-6.7422 -5.2853 42.38 23 18 0
7.8451 -8.1769 65.06 48 35 7
4.0851 -1.6821 15.905 211 162 50
6.7433 -5.1907 49.904 130 116 42
-4.8955 -2.8139 31.523 64 60 3
-8.9565 4.0985 37.112 70 39 1
-2.4821 2.4696 19.066 78 82 29
5.1697 4.6122 29.097 165 139 55
-9.1462 6.5383 29.312 12 7 0
-1.5941 6.4076 25.221 65 46 17
-3.4275 5.7544 22.29 206 165 58
-5.0364 6.5187 24.394 92 72 16
1.04 -6.2044 21.903 124 72 23
1.04 -6.2044 21.903 124 72 23
1.377 -6.2037 22.751 30 7 0
-0.29468 -7.4159 44.76 0 10 0
-5.5195 -5.8845 39.153 108 67 10
-2.3266 -6.7957 46.394 240 198 71
1.9187 -4.7318 44.172 26 2 0
-6.3501 -1.4895 23.272 66 53 7
5.033 2.5156 30.637 176 141 45
-8.7912 4.1197 34.092 4 1 0
3.8715 2.8047 15.401 189 166 71
4.8761 5.6456 25.898 38 29 2
4.9875 6.1867 27.192 248 227 140
-5.2236 6.3046 24.423 29 13 0
3.6961 3.8638 13.913 137 108 30
-2.4514 7.1675 24.171 120 97 52
2.9943 7.2938 21.599 60 42 5
4.8365 -3.5176 27.593 163 159 78
-4.7359 -4.2249 38.081 151 125 31
-7.6838 -0.9214 41.481 254 209 99
3.1872 3.5324 40.764 125 75 13
-2.6045 1.8647 18.677 70 82 21
-2.6045 1.8647 18.677 70 82 21
-0.98736 5.098 30.945 39 10 0
4.2152 3.4339 17.228 147 128 43
3.8789 3.8969 15.645 57 49 10
4.2204 6.5122 21.769 240 224 129
-4.9024 -8.3734 28.101 84 73 33
1.6523 -7.4179 30.619 58 33 1
4.4292 -4.4098 21.696 255 255 255
0.88354 -7.5572 46.471 17 21 0
-1.6096 1.253 33.834 138 116 40
6.0641 1.5272 39.931 255 247 244
-2.196 2.1851 25.209 39 12 0
-2.196 2.1851 25.209 39 12 0
4.2067 2.943 17.724 25 10 0
-9.2022 3.1132 18.633 94 68 9
4.7377 6.3492 23.981 105 78 2
-3.0441 5.4838 20.293 34 24 3
3.9739 6.7711 22.613 20 9 0
-7.6876 -6.3411 44.408 182 130 21
-7.6876 -6.3411 44.408 182 130 21
-5.9507 -1.5369 36.682 127 85 9
-1.1059 2.6591 28.801 36 10 0
-1.1231 5.5749 29.781 14 6 0
-5.2144 -7.8045 31.996 45 14 0
4.6422 -4.4417 26.984 48 30 0
-7.2665 -3.9413 34.887 65 40 1
-9.2464 3.0378 28.545 53 35 8
1.9719 -6.0715 23.671 23 9 0
6.1909 -8.1061 43.01 84 42 1
6.709 3.5387 49.738 83 45 4
4.9901 -6.4499 23.165 255 255 238
-10.568 4.1902 26.695 15 7 0
3.0315 7.2328 54.653 202 153 48
4.235 8.554 36.476 151 123 39
0.1826 -7.1274 32.579 255 255 151
-11.517 1.3431 30.521 162 101 4
3.6891 -0.90837 19.139 255 245 140
0 0 0 1 0 0 0 1 0 0 0 1 0 0 0 0 0 781 1 0 0
