ply
format ascii 1.0
comment PCL generated
element vertex 984
property float x
property float y
property float z
property uchar red
property uchar green
property uchar blue
element camera 1
property float view_px
property float view_py
property float view_pz
property float x_axisx
property float x_axisy
property float x_axisz
property float y_axisx
property float y_axisy
property float y_axisz
property float z_axisx
property float z_axisy
property float z_axisz
property float focal
property float scalex
property float scaley
property float centerx
property float centery
property int viewportx
property int viewporty
property float k1
property float k2
end_header
2.8207 -1.5671 10.946 64 29 1
-8.2029 -6.5476 24.049 42 0 0
2.7972 -2.5763 10.714 111 72 2
-5.5486 -6.6116 26.25 66 22 1
-6.1199 -7.0638 32.946 219 165 83
-1.5629 -8.4696 42.724 179 75 4
-1.4067 0.17782 1.76 65 26 1
3.3498 -1.8736 15.411 219 198 99
2.8495 -0.157 13.99 255 253 152
3.6713 -0.36336 16.681 255 253 152
-4.0816 -2.5869 35.969 202 162 67
-3.9321 -2.4902 35.987 151 114 20
3.3541 -0.32994 15.644 255 253 152
2.8734 0.34409 14.479 124 132 53
-5.9318 1.6927 -18.005 124 132 53
-1.295 -0.62896 31.458 112 92 52
3.7657 -0.96271 22.044 52 20 0
-2.0999 -0.40499 30.759 78 53 9
-7.2606 -0.052472 26.287 185 108 18
-2.3683 0.31102 -3.0754 255 253 152
-2.0927 1.1422 27.558 43 25 0
-5.1237 0.68104 11.1 87 42 3
3.1519 3.3277 15.479 59 32 1
3.2993 3.3333 15.95 60 34 1
3.2917 5.2657 25.927 142 125 57
3.3248 3.356 16.037 60 34 1
-0.56059 5.8981 19.955 37 20 0
-8.9992 -6.3435 21.703 243 167 58
-8.9076 -6.4368 22.006 242 165 54
-8.5134 -6.1052 20.935 242 165 54
-9.3637 -6.0555 21.172 146 84 3
1.6306 -6.1753 22.631 14 0 0
3.7265 -5.8221 22.387 120 124 69
2.9027 -2.5637 11.016 102 71 2
-6.114 -6.6488 28.64 79 61 1
1.9012 -6.5025 28.364 147 124 72
4.8166 -6.4399 30.186 153 127 79
-4.1589 -7.5096 35.735 196 148 39
-2.9171 -7.1228 33.979 192 147 39
-2.9171 -7.1228 33.979 192 147 39
3.3941 -2.1265 15.041 146 107 21
3.3515 -2.0999 14.891 146 107 21
2.8981 -1.3222 11.18 66 33 1
3.2433 -1.8306 15.069 219 198 99
3.3647 -1.8193 15.294 91 60 2
1.3701 -5.3644 41.65 91 59 2
3.1155 -1.7917 14.455 91 60 2
2.9265 -0.87408 11.18 128 96 23
-5.4 -2.6909 30.003 225 199 123
-5.3864 -2.6814 29.904 225 199 123
2.9836 -0.48222 14.311 186 161 58
-0.56298 -2.2499 33.788 44 29 0
2.7992 -0.50385 11.179 142 103 16
-0.52675 -1.6584 33.3 38 26 0
-2.2868 0.30633 -4.2947 186 161 58
-2.2868 0.30633 -4.2947 186 161 58
2.9478 -0.52858 11.569 142 103 16
3.3131 -0.049598 15.349 186 161 58
-2.2992 0.30833 -4.3533 186 161 58
3.7746 -0.40815 16.951 186 161 58
1.559 -0.95653 31.553 66 68 1
-6.414 -0.79116 28.752 122 94 16
-2.301 0.30991 -4.3618 186 161 58
-2.3014 0.3302 -4.3643 186 161 58
-2.3064 0.30488 -4.3869 186 161 58
-3.475 -0.6111 42.419 200 145 45
-8.4552 -0.086907 25.896 74 55 1
2.4348 -0.22355 12.636 255 253 152
-7.3037 0.86273 -19.22 255 253 152
-8.3787 0.57054 25.719 62 51 8
-2.333 0.10789 -4.5109 186 161 58
-1.89 0.24199 -1.0792 55 25 1
2.5819 -0.35068 13.866 124 132 53
-1.6236 0.67827 -2.2087 58 15 1
-1.6236 0.67827 -2.2087 58 15 1
-4.8545 1.1675 29.824 91 70 21
-2.784 0.3723 5.2486 130 86 3
-2.4235 1.2223 27.225 143 126 49
-1.9967 1.2413 27.502 154 137 61
3.3674 0.58119 15.466 255 253 152
3.2603 0.79391 15.329 55 25 1
-0.32853 -0.23185 7.1413 124 132 53
4.6149 0.95858 19.352 55 25 1
-1.8827 0.24136 -1.0603 55 25 1
-9.1422 4.1569 33.928 34 14 0
-7.895 3.9883 30.576 158 133 73
-7.895 3.9883 30.576 158 133 73
-8.1372 4.0824 30.713 174 135 69
-8.072 5.5345 29.834 70 57 23
-8.7456 5.9461 27.173 96 60 2
-6.1073 5.5024 21.885 142 106 29
-6.0538 5.4532 21.665 142 106 29
3.4058 -1.8272 15.381 91 60 2
-1.3684 0.84207 2.8961 37 20 0
3.0772 5.9593 21.049 60 38 1
-0.58014 3.1454 11.295 37 20 0
-0.54384 4.037 15.724 48 28 0
3.5234 -4.2855 15.134 254 225 106
-5.5788 -7.67 26.462 52 14 0
3.2593 -3.8392 14.333 254 225 106
-5.545 -6.5088 23.009 254 218 135
3.325 -3.8923 14.504 254 225 106
-9.2394 -6.2046 23.985 206 153 49
-7.8774 -6.4799 25.732 51 0 0
-8.2016 -6.8037 26.954 51 0 0
-7.8566 -7.3232 29.501 244 196 104
-7.688 -6.578 27.16 44 0 0
-7.6727 -7.4545 35.508 255 255 120
-1.6166 -0.011288 1.6582 58 15 1
-4.1691 -6.5519 36.199 109 57 2
3.3439 -1.898 15.181 91 60 2
3.3035 -2.0568 15.02 91 60 2
2.9067 -1.2249 11.217 63 33 1
-2.9716 -5.2525 41.346 77 56 1
1.503 -4.4346 38.391 145 106 20
2.8486 -1.0153 11.087 51 22 0
-0.48406 -3.4741 33.746 115 74 2
1.2194 -3.1578 35.186 38 15 0
1.6049 -3.1988 35.579 17 7 0
2.8488 -0.72724 11.13 67 37 1
-6.0542 -1.6267 22.559 216 181 90
-6.0764 -1.4878 21.531 149 110 34
2.8959 -0.64609 11.272 59 28 1
-3.7417 -2.5498 35.981 197 174 69
2.9038 -0.49805 10.519 64 29 1
2.878 -0.54138 11.234 57 26 1
2.8116 -0.43854 10.058 68 34 1
2.7242 -0.38327 9.6094 66 34 1
2.8672 -0.44579 11.22 56 29 1
-31.261 3.7959 -85.62 55 29 1
1.3939 -1.044 31.151 203 201 124
1.1097 -0.90698 30.32 18 10 0
1.328 -0.82485 31.088 175 175 91
-0.69545 -0.77564 32.547 30 20 0
-2.907 -1.033 41.706 160 121 37
-1.145 -0.67219 31.848 97 79 37
-7.2994 -0.94658 44.037 255 255 255
2.905 -0.075204 11.386 55 29 1
-7.7623 -0.69124 37.039 80 39 1
-7.798 -0.7026 39.898 68 36 1
-8.3945 0.33557 25.77 90 69 2
-1.2576 0.40812 32.221 34 31 0
2.8636 0.404 11.333 69 39 1
-8.6201 1.993 32.8 33 9 0
-9.5909 1.7836 22.037 45 0 0
-9.5051 1.7715 21.821 45 0 0
-9.1818 2.7732 26.979 49 18 0
3.7362 1.7417 16.881 124 132 53
-9.0481 5.9982 27.347 111 68 9
3.2169 6.2574 25.254 206 174 70
-6.6024 6.0464 24.043 142 106 29
-6.6024 6.0464 24.043 142 106 29
1.3938 6.5099 22.203 48 28 0
-1.9642 6.0439 21.763 37 23 0
-5.4772 6.041 21.32 77 55 14
3.0999 5.754 20.197 58 42 1
-2.6075 6.8866 23.841 27 14 0
-5.0573 -9.0054 31.282 88 74 42
3.1354 -4.2875 15.911 255 255 223
-7.6972 -7.3305 29.839 32 0 0
-7.9948 -5.2521 22.479 16 6 0
1.8461 -6.6408 28.225 23 8 0
-5.3087 -7.7113 36.926 255 245 123
-0.92699 0.69756 -2.4284 65 26 1
4.6529 -5.3761 29.265 110 81 21
-4.1685 -6.5835 36.363 109 57 2
-3.259 -7.3491 41.887 254 210 89
4.7029 -3.7314 29.617 88 74 4
1.7863 -4.7734 39.403 105 95 23
5.6469 -7.0358 57.905 59 56 20
-4.1498 -3.9496 36.45 74 49 10
-0.53448 -3.256 33.829 192 161 53
2.999 0.015771 11.632 55 28 1
-2.5894 0.23911 -2.9026 55 28 1
-7.6607 -0.68814 39.069 68 36 1
1.3902 -0.36111 31.668 61 57 9
12.374 -0.067904 38.434 54 28 1
4.7416 0.22232 30.451 74 50 1
-1.9258 0.18266 -1.1808 55 29 1
3.9051 1.4029 48.256 84 51 1
5.8386 1.7324 56.093 124 90 26
6.3241 1.997 49.206 159 116 37
3.3764 3.4948 44.381 108 66 9
3.266 2.2105 15.224 217 195 99
-0.059991 6.016 32.989 86 58 9
3.2711 5.1858 25.077 10 10 0
-8.4558 5.9663 26.81 15 7 0
-9.2442 6.0774 27.111 41 19 1
-3.7065 4.4638 18.988 18 10 0
3.7129 5.927 25.363 7 0 0
1.6364 6.3932 24.49 93 66 11
-8.2774 -4.8804 17.972 149 98 12
-6.7743 -5.3767 22.258 255 254 255
-5.1789 -7.0544 30.795 191 135 32
-5.7045 -7.4035 33.758 187 150 44
-7.7479 -7.1737 34.172 87 51 1
-0.82883 -1.0573 6.3981 255 255 137
-1.2544 -8.1802 41.687 166 60 4
-0.1133 -7.9082 40.343 168 37 4
-0.086201 -8.1339 41.464 168 37 4
2.8408 -7.0023 35.868 71 36 1
-7.5913 -6.2112 33.02 148 106 13
-7.1092 -7.9037 43.53 81 45 1
-4.1291 -6.1905 41.201 168 118 24
6.3732 -6.8593 55.137 83 72 30
6.8049 -7.2629 58.324 83 72 30
3.8246 -2.4779 21.257 188 171 93
1.1387 -4.6201 41.364 172 127 26
1.5948 -4.295 40.558 34 0 0
-4.1719 -0.73138 44.289 224 156 35
-4.1719 -0.73138 44.289 224 156 35
-1.421 0.71814 31.123 44 33 0
-9.6875 0.75098 25.075 86 51 1
-9.5668 0.97222 23.016 114 71 2
-8.1937 1.6059 35.047 16 6 0
-3.2507 2.6629 17.436 29 30 0
3.8945 4.6882 25.784 22 18 0
3.3655 2.7437 14.645 38 23 0
-5.0725 5.6233 22.26 158 111 17
-5.0725 5.6233 22.26 158 111 17
-2.0087 5.7152 22.555 47 28 0
-0.45351 3.8473 14.938 80 53 3
2.9059 3.3585 12.221 148 119 43
3.0223 5.6642 20.385 255 255 217
3.0322 5.6768 20.429 255 255 217
-8.036 -6.7886 32.312 25 11 0
-8.036 -6.7886 32.312 25 11 0
-3.6514 -8.142 38.621 255 255 255
-6.9377 -7.978 40.517 120 75 9
-0.036931 -7.1226 41.372 255 239 116
-0.45967 -6.5166 39.84 36 44 12
0.46263 -5.932 36.495 11 10 0
-4.7077 -6.3461 44.595 108 46 2
1.2454 -4.9344 40.122 121 92 6
-3.2172 -4.8948 42.326 164 115 24
4.0264 -2.2508 23.54 255 251 161
5.1078 -1.1077 38.324 227 203 96
-6.5357 -0.9124 49.593 255 255 251
-6.5357 -0.9124 49.593 255 255 251
-8.5588 0.73652 26.669 51 50 3
-8.5588 0.73652 26.669 51 50 3
-8.3055 2.5533 34.135 119 82 16
-8.782 2.3108 26.547 112 70 5
-8.3876 3.32 34.587 95 57 5
-10.336 3.7068 25.626 10 2 0
2.8478 2.1717 11.538 89 65 9
3.9112 4.8988 24.673 11 12 0
-1.6515 5.4228 23.879 23 10 0
-4.8411 5.2908 22.085 181 136 34
3.499 5.4711 21.281 15 10 0
-5.891 6.3364 24.286 7 0 0
-2.7961 7.1468 23.963 13 6 0
-5.3373 -7.2185 27.437 254 223 104
3.8444 -5.3463 22.527 103 104 50
-3.9433 -7.3073 36.406 167 117 21
-1.671 -6.6042 40.905 18 33 0
6.324 -6.4772 57.977 164 132 53
-4.4822 -3.2463 35.83 25 22 0
-4.9626 -2.7101 35.155 188 153 28
-4.9811 -2.7246 35.338 188 153 28
-2.6521 -1.109 36.205 156 119 24
-2.3242 -0.1027 35.19 64 40 1
-4.5797 0.64402 37.924 80 44 1
-0.56976 5.3174 29.216 161 118 34
-5.4275 5.4803 24.349 23 10 0
2.8609 5.9702 20.824 34 20 0
3.0373 6.2363 21.741 34 20 0
-8.474 -6.1408 23.937 48 36 7
-0.050504 -7.2559 40.636 249 199 82
4.3206 -3.6085 23.674 227 205 130
-1.7178 -4.271 36.978 228 182 66
3.318 -1.5417 14.766 131 91 10
-4.5312 -3.9429 35.804 123 104 34
5.6288 1.3537 42.599 138 83 11
-5.0317 1.4626 29.812 26 21 0
-8.7501 3.4412 31.961 101 64 4
-0.51725 3.1078 28.451 159 116 30
0.24913 4.8809 33.704 117 83 26
3.4026 2.6204 15.707 39 21 0
-1.1245 5.7207 30.917 32 17 0
3.232 5.9536 26.753 156 129 46
3.4455 4.223 17.301 150 119 33
-5.8506 6.3738 23.989 13 6 0
-2.0013 5.9465 22.324 20 12 0
2.0508 -5.5871 25.874 189 161 74
-4.9946 -7.1406 39.733 207 146 28
-8.616 -5.2912 31.616 168 116 21
3.6593 -2.7447 18.639 130 103 18
-4.7037 -5.2555 36.427 254 218 130
-5.837 -4.6062 39.255 60 42 5
2.6499 -3.1131 34.237 115 130 53
-1.5169 -3.2471 36.241 39 38 3
-1.0802 2.8924 31.778 47 18 0
-8.9925 2.9143 27.921 19 13 0
-9.9067 3.5387 26.046 15 6 0
-1.1151 3.9977 28.337 49 19 0
-3.6638 -6.591 37.57 113 73 8
1.5656 -7.2855 42.157 254 219 142
1.532 -7.1896 41.653 254 219 142
-6.6599 -5.288 36.984 189 130 21
5.0407 -3.6392 38.267 52 50 1
-2.5625 -2.3017 35.663 193 167 66
-6.491 -1.9247 42.572 133 91 10
5.2622 0.59403 52.126 140 99 29
2.0745 5.5535 43.279 228 175 69
-2.4552 5.1843 20.679 215 178 60
-7.0365 -7.7165 36.484 255 255 164
5.3555 -7.329 38.739 82 39 1
5.311 -11.233 59.133 159 110 24
-6.1365 -6.8812 39.441 36 10 0
-6.2167 -6.9951 40.103 36 10 0
-9.0823 -5.2139 45.281 91 57 8
1.8643 1.1075 34.476 195 156 53
-8.9655 -5.7398 31.243 150 98 14
-7.9846 -5.0816 33.026 255 255 208
-3.5228 -4.0811 38.851 30 21 0
-2.4498 1.7286 25.951 57 40 1
2.9175 -1.6768 33.945 242 223 110
0.38689 -1.5267 32.763 33 23 1
-3.0656 -1.0093 41.902 172 135 45
-8.4349 -0.25308 29.756 158 140 94
-9.3633 -2.3415 28.239 44 25 0
1.2671 5.3028 29.168 156 121 38
-8.5494 -5.7368 18.61 254 185 87
3.5107 -4.1408 15.228 195 160 42
-3.3532 1.2774 -3.1314 247 188 70
-7.8314 -5.9492 20.347 255 241 147
-1.7877 -8.3618 28.991 80 72 42
-7.8888 -5.8083 20.348 26 0 0
-7.989 -6.3202 23.219 39 6 0
-5.2379 -7.8527 29.384 39 0 0
-6.1783 -6.4879 25.153 187 39 11
-9.469 -6.0463 23.47 145 90 3
3.4951 -3.6099 15.427 155 115 16
3.9805 -5.2129 21.859 251 227 129
3.969 -4.9193 21.853 255 236 138
0.34895 -7.5219 37.11 255 255 146
-0.096993 -8.1446 40.765 174 32 4
-1.2365 -0.50162 5.3452 255 255 168
6.8584 -9.1662 53.945 168 137 61
7.8488 -8.0769 30.915 152 118 11
-2.5216 0.89635 -1.996 154 129 59
3.212 -1.918 14.972 200 176 70
-1.7323 -5.7475 40.942 1 21 0
-4.2269 -4.4197 36.551 48 14 0
3.455 -1.4647 15.38 197 166 64
-4.6031 -3.6199 34.131 104 112 32
5.1809 -3.5008 37.127 50 45 1
1.6794 -3.116 33.188 71 76 8
3.1923 -1.0639 14.03 163 131 38
-0.96985 -2.9219 34.996 66 67 8
1.9165 -2.5803 32.449 115 109 30
-6.0336 -1.5387 21.769 27 11 0
-6.0336 -1.5387 21.769 27 11 0
-0.79367 -1.5126 32.996 64 60 5
-4.3389 -0.17328 39.385 189 143 62
-0.58781 -0.0070857 33.906 97 88 36
-0.58781 -0.0070857 33.906 97 88 36
-4.0281 0.402 43.391 110 37 2
4.5427 0.68289 27.344 47 16 0
-1.1344 0.87685 30.128 133 108 40
-1.6317 0.53433 3.4255 180 152 70
-1.8585 0.26284 3.4762 52 22 0
-3.8369 1.5044 40.396 60 43 1
-2.3511 1.118 27.734 66 49 1
-8.3488 1.889 33.71 48 10 0
-8.8553 2.2803 30.522 55 16 0
-7.6993 1.5341 15.869 208 157 63
-9.7778 3.1458 26.935 57 27 1
9.5516 8.0746 43.342 177 142 46
3.139 5.099 25.091 135 117 57
-2.4432 4.2669 18.866 18 8 0
-5.756 5.4921 23.826 70 39 1
3.408 6.5072 25.583 91 72 14
3.1168 5.4342 20.489 230 221 161
-1.9458 6.4085 22.566 255 255 196
-2.6027 6.432 19.869 37 26 0
3.5685 -4.2651 14.92 99 73 2
3.3137 -4.0488 14.074 181 164 60
3.4595 -4.2961 15.275 228 195 72
3.4465 -4.1841 15.248 216 183 63
-5.5668 3.0361 -9.139 126 101 35
3.455 -3.9872 15.291 203 163 53
3.253 -3.8279 13.975 177 152 52
3.4748 -3.7991 15.357 191 151 45
-9.4367 -5.8704 23.043 223 169 61
-9.4251 -5.9575 23.589 212 161 49
-6.7786 -7.4936 34.516 255 255 255
0.19597 -7.0343 33.765 221 180 72
-2.9058 -7.0304 33.556 182 144 39
4.3537 -7.3957 36.605 116 80 18
-6.2602 -7.5901 42.341 252 28 39
3.4236 -2.3238 15.047 148 106 24
-0.3188 -6.5205 39.134 22 10 0
-1.2493 -6.6521 41.334 182 255 178
-3.5369 -6.0586 42.483 136 86 6
3.5205 -1.7855 15.471 172 132 41
-5.9553 -2.7564 21.356 44 26 0
-5.9553 -2.7564 21.356 44 26 0
-5.8596 -2.6999 21.334 255 245 150
-4.0231 -1.0888 9.711 255 255 165
-6.2506 -2.2347 19.36 176 154 85
-15.867 -6.7646 56.37 109 72 12
3.4049 -1.6948 15.595 250 231 132
2.7484 -3.2915 13.458 210 172 66
3.2367 -1.4501 15.104 255 246 145
3.4453 -1.4252 15.535 128 99 10
3.4393 -1.4186 15.72 255 245 144
-0.75561 -3.1467 34.357 66 62 1
5.1881 -3.2524 36.354 197 173 52
-0.48847 -3.0107 33.321 37 25 0
-6.9546 -4.2522 45.549 228 201 124
3.2524 -1.163 15.192 255 254 155
-8.4324 -4.2206 47.566 55 42 1
2.9954 -0.90061 12.755 147 111 34
-0.82916 -3.0117 35.145 162 160 62
-7.8777 -4.0433 45.301 196 177 104
-8.7929 -3.9875 48.321 181 131 31
3.3056 -1.0815 15.349 255 255 161
-0.52676 -2.708 33.063 49 34 1
1.3018 -2.8469 35.073 36 19 0
1.3018 -2.8469 35.073 36 19 0
3.4513 -1.0502 15.602 109 81 2
-0.52844 -2.4979 33.626 44 31 0
-4.0879 -2.5877 36.045 184 149 52
-0.57147 -2.1947 33.108 30 18 0
1.4701 -2.2233 34.253 25 15 0
-0.52745 -1.9707 33.8 25 12 0
-0.52745 -1.9707 33.8 25 12 0
-0.52745 -1.9707 33.8 25 12 0
3.2798 -0.6504 14.964 255 246 151
1.446 -1.5038 31.696 16 8 0
3.4164 -0.7608 15.36 251 235 130
3.6823 0.0079768 16.115 255 236 141
-0.59966 -1.0905 33.48 20 13 0
3.8539 0.52649 -31.341 255 255 234
4.6329 0.066561 29.449 220 194 90
-8.3011 0.30863 25.352 82 68 1
-13.472 0.48449 46.116 73 54 5
4.532 0.65588 26.765 225 198 104
-0.18988 1.1118 38.356 137 115 40
5.1717 1.4805 36.29 215 164 43
5.3615 1.5702 36.422 255 255 255
-2.8464 0.08389 -5.1452 255 255 255
0.57411 1.2433 28.163 137 120 45
0.35909 1.2568 28.137 135 116 43
-2.2176 1.2407 27.702 150 132 60
-7.736 1.8765 41.164 134 84 16
-7.96 3.8325 29.988 19 0 0
4.5793 4.3055 30.876 120 85 11
-8.2444 4.1583 31.284 181 138 51
3.4278 2.407 15.79 34 11 0
1.0835 -1.3401 11.027 255 255 184
4.5791 4.9096 32.418 206 175 71
4.3051 3.8047 24.55 174 151 59
-7.9549 4.3189 29.149 64 49 12
4.4996 5.4755 35.42 232 193 88
4.4996 5.4755 35.42 232 193 88
4.8571 5.324 33.346 216 183 63
4.8571 5.324 33.346 216 183 63
-8.003 5.4535 29.531 63 49 12
3.489 3.504 17.728 152 118 33
-8.8615 6.0577 26.939 29 15 0
-5.0398 5.5073 23.77 89 57 1
3.0137 3.2866 12.825 42 9 0
-3.38 5.7643 21.824 11 2 0
3.8554 5.8084 20.784 123 98 21
3.3716 5.8284 20.328 133 117 48
2.9708 4.099 15.34 140 112 31
-0.86955 -3.3012 16.062 197 161 46
-0.78931 6.4753 21.629 91 61 8
3.4035 5.0815 16.533 59 33 1
-1.8986 0.80317 -3.0362 150 106 10
2.9768 4.4942 13.422 131 100 21
-10.554 6.0446 -19.079 245 210 93
-5.1971 -7.2875 24.779 83 58 16
-10.454 5.7089 -18.877 220 185 70
-8.7221 -5.5027 19.004 192 125 43
-6.1017 -5.5107 19.952 224 178 96
-8.5854 -5.4873 22.047 182 130 41
-5.06 2.0856 -7.0339 109 81 2
2.7223 -6.5263 27.932 36 22 10
2.6799 -2.2169 10.686 160 120 22
1.4961 -6.9499 31.207 161 141 75
-4.1315 -7.4765 35.905 198 147 37
2.2123 -7.5567 38.495 56 27 1
3.2924 -2.4465 14.648 136 91 3
-8.9673 -3.3588 23.508 57 19 1
-4.7629 -4.5224 34.282 207 186 104
14.555 9.1669 -65 67 45 21
4.3477 -3.2442 28.002 255 254 158
1.695 -4.7623 41.212 153 114 31
-1.3804 -3.7225 34.281 201 156 51
-5.7236 -2.007 24.992 186 157 75
-6.0806 -1.4858 21.413 206 183 99
1.5556 -2.0587 32.167 27 20 0
-6.5126 -1.2136 20.042 39 25 0
1.4143 -1.2796 30.609 206 199 119
-0.9716 -1.1152 32.341 84 78 10
7.3314 -1.3406 60.47 130 91 3
5.322 -0.72407 38.965 174 114 8
5.3232 -0.72116 38.921 179 120 18
-1.5475 -0.50238 31.13 255 249 234
-1.5475 -0.50238 31.13 255 249 234
-6.8343 -0.56648 31.633 87 51 1
-0.81494 -0.47871 32.163 32 25 0
-7.8378 -0.66369 42.974 254 221 96
-1.0996 0.099617 31.922 46 44 1
7.0437 0.87704 62.038 105 62 6
3.5191 -0.10974 15.682 255 242 149
0.48211 0.81931 30.608 25 10 0
0.62099 1.3616 27.467 20 17 0
4.1839 1.3257 23.448 41 18 0
-3.4596 0.21897 5.1032 90 66 2
3.1291 4.7803 24.663 33 25 0
3.3348 3.2911 14.423 134 118 35
-8.8959 5.8767 26.789 109 65 2
-8.7472 5.9345 26.359 33 24 0
4.0507 5.8727 24.519 114 91 20
-1.6224 6.0277 23.694 45 29 7
3.076 3.3588 12.794 136 109 39
-3.9364 5.9946 22.494 160 143 81
3.4567 5.7209 20.412 59 36 1
2.9195 3.433 11.669 96 80 25
-1.9631 7.0091 24.096 50 35 7
3.0738 3.6352 12.07 105 83 24
-2.7983 6.362 19.933 12 3 0
-2.5473 6.6365 20.074 4 0 0
-2.5473 6.6365 20.074 4 0 0
-4.9852 -7.835 26.39 117 103 56
-4.9852 -7.835 26.39 117 103 56
-7.1765 -5.8385 20.051 254 214 81
-7.862 -6.6668 25.792 254 228 113
1.957 -7.3966 32.219 159 132 73
-8.3788 -6.6962 32.544 157 107 18
1.0498 -8.4499 43.249 158 49 3
3.7481 -3.5757 20.947 69 43 1
-0.78816 -6.8961 41.568 22 53 0
-3.9333 -5.9151 41.406 85 45 5
-1.8215 -5.6002 40.688 72 58 9
0.97995 -4.9785 41.174 131 96 4
-1.3904 -4.0108 36.386 218 172 49
-0.96727 -3.3897 35.33 203 184 94
3.504 -1.0741 15.463 233 219 118
-1.0003 -1.5203 32.041 160 157 67
0.603 0.76327 27.732 59 57 12
7.2038 1.6354 54.869 71 39 2
4.0717 1.2787 22.35 216 198 114
-7.734 3.1364 39.821 32 9 0
3.8711 1.8997 19.855 30 10 0
-9.0099 2.6776 27.454 10 3 0
-3.049 2.0253 18.274 10 12 0
3.8719 2.3853 19.488 159 143 56
-2.2492 2.374 18.003 10 12 0
4.6783 4.1448 30.785 255 241 149
-1.9468 2.9683 18.495 13 15 0
-9.645 3.5513 18.726 89 64 9
-5.8354 5.2682 23.046 60 32 1
3.6079 4.6263 18.607 19 11 0
-2.8906 5.0275 19.986 16 7 0
1.7065 6.5098 24.934 93 67 14
-4.0153 5.7785 22.273 2 0 0
-2.3687 6.495 24.271 20 10 0
2.7666 5.5422 20.51 255 243 167
-3.2442 6.2279 21.791 71 62 29
-0.67272 4.5721 15.418 93 64 2
3.0767 4.5169 13.621 137 109 29
-0.3723 6.5924 19.899 19 1 0
-9.2052 -6.1961 21.508 188 125 13
3.3071 -4.5181 18.761 160 147 66
3.1617 -3.0368 12.901 116 101 30
-4.5877 -7.2548 32.387 145 101 18
3.0258 -6.0456 27.873 137 107 34
-5.9608 -7.0807 32.196 194 150 43
-7.9703 -6.7682 33.295 163 117 24
-1.264 -8.1575 41.57 191 44 10
-3.4999 -7.0125 39.037 84 48 1
4.4347 -4.0272 27.274 255 255 159
-0.32341 -6.3078 41.564 10 26 0
-1.3812 -6.1673 42.143 191 255 226
-4.1577 -5.2504 37.037 123 39 4
-0.99733 -5.9388 41.857 139 123 59
3.7001 -2.181 20.591 255 255 178
-2.7102 -4.2757 39.575 28 0 0
4.5536 -2.8812 28.48 245 228 120
6.8756 -5.7668 55.158 149 137 53
3.504 -1.3044 15.391 224 212 116
4.6049 -1.8899 28.824 225 200 91
-7.072 -0.44688 30.638 87 58 1
6.9774 1.0777 53.243 169 132 52
-9.3525 0.7291 24.055 90 53 1
-8.2572 2.5336 33.857 111 72 13
3.7312 2.1347 18.606 37 15 0
-2.4096 2.34 18.194 64 68 18
-2.4041 2.3135 17.972 64 68 18
-0.39074 5.6715 29.007 47 31 0
-0.39074 5.6715 29.007 47 31 0
3.3277 5.642 25.284 1 0 0
4.0689 5.6412 23.226 255 245 154
-6.1793 5.6269 22.517 159 107 22
-6.3867 5.8943 23.528 156 107 16
3.5157 4.8163 18.399 14 10 0
2.9947 3.5873 12.412 137 108 33
-5.1068 -7.6187 31.866 33 2 0
0.085196 -7.5959 37.083 255 255 147
-5.4539 -7.4931 37.728 133 84 13
-0.70861 -6.3293 41.668 156 255 58
3.6851 -2.438 20.666 201 188 99
3.4058 -2.2972 19.656 201 188 99
1.3909 -5.2324 42.497 125 99 14
6.3522 -5.7075 47.156 177 142 57
-6.0418 -3.8524 34.566 99 69 9
3.3286 -1.1007 13.706 200 163 51
-5.5105 -2.1316 27.456 62 52 10
-6.6803 -1.0597 31.132 119 77 4
-3.6421 -0.99449 36.024 144 107 17
2.532 -1.7267 -15.362 43 31 0
2.5687 2.1174 36.153 125 86 26
-8.4506 1.9911 32.772 16 7 0
-8.3256 3.2839 34.236 79 43 1
3.8602 2.581 21.908 97 83 14
-0.031495 5.4385 30.774 93 62 11
-2.5652 4.4295 19.11 15 11 0
2.907 2.7794 11.487 144 120 48
3.0032 3.3157 13.511 64 54 12
2.9832 3.0239 11.651 13 3 0
-1.8245 6.899 23.377 30 17 0
-2.6632 6.6439 22.297 9 1 0
-8.5208 -5.6803 20.276 23 1 0
-4.5954 -0.58299 37.429 79 35 1
-4.6004 -0.58438 37.499 79 35 1
-6.9442 0.16334 23.435 149 92 6
-6.9442 0.16334 23.435 149 92 6
-8.2176 4.0417 29.001 1 0 0
3.4798 3.0434 15.396 152 134 48
1.4146 6.3388 23.803 92 66 15
1.4156 6.3386 23.818 92 66 15
-4.9767 -6.3799 21.604 26 25 0
-7.7926 -6.7024 34.533 118 80 7
-3.9049 -2.631 37.997 198 167 63
1.5107 -2.0382 33.369 114 103 57
-5.4101 -0.03177 34.08 55 43 1
4.3859 0.36104 26.686 216 192 95
-4.7938 1.0876 33.723 111 85 21
-2.688 1.1067 30.068 99 72 2
-0.19695 1.035 26.92 116 98 24
-0.19695 1.035 26.92 116 98 24
3.8912 3.336 24.952 104 86 18
3.6649 4.8996 19.086 36 26 1
-3.7054 -7.455 25.223 104 87 36
-5.0655 -8.4228 30.684 2 0 0
-8.5407 -6.1889 27.939 148 92 12
3.2956 -3.0528 17.119 55 36 1
-3.7487 -6.7374 38.386 111 68 9
3.8658 -3.8838 23.914 48 29 0
5.5586 -5.1954 38.601 130 89 9
5.9857 0.018107 43.302 159 90 6
0.55085 0.53921 28.883 74 71 31
5.7626 1.4142 43.308 142 79 9
3.329 2.7845 16.538 164 136 40
3.329 2.7845 16.538 164 136 40
3.2408 3.4897 16.453 138 107 20
-5.4874 5.8236 23.841 171 123 21
-1.9353 6.7852 22.111 14 8 0
5.0675 -3.6144 32.583 255 255 157
5.1428 -3.7071 38.792 66 72 12
-3.3062 -0.29275 43.073 255 255 236
-8.0927 3.0286 27.756 94 61 2
-8.0807 3.0091 27.701 98 66 4
-7.271 -5.7067 24.065 204 147 45
-7.271 -5.7067 24.065 204 147 45
3.1037 -2.5878 16.859 119 91 12
3.1037 -2.5878 16.859 119 91 12
-6.519 2.7165 36.352 102 59 2
2.9462 2.9566 12.808 140 103 16
3.2752 3.5884 15.18 29 19 0
3.2752 3.5884 15.18 29 19 0
-0.060679 5.9528 21.641 85 59 11
-0.060679 5.9528 21.641 85 59 11
-0.42422 6.0877 19.519 236 202 81
-0.29161 6.621 21.256 236 202 81
-4.3727 -7.5125 28.446 40 40 9
-9.4966 -4.7562 20.122 107 66 10
3.5688 5.3668 25.081 23 23 6
0.44349 6.9759 30.691 159 125 43
0.99275 6.7038 24.033 91 68 16
-3.1946 6.4374 22.181 23 15 0
-6.3023 -3.948 34.753 59 40 1
-8.0501 4.6273 26.621 2 0 0
-9.0409 -2.1918 26.866 42 23 0
-1.328 -7.7302 36.585 255 255 163
2.7209 -0.71717 16.095 255 240 125
3.5301 -3.6271 15.263 104 67 2
-0.52491 -6.0941 40.472 2 31 0
-5.7283 -0.77081 31.259 157 113 24
-4.2954 -0.80009 38.505 254 202 102
-4.4967 -0.80042 39.577 77 33 1
-1.4462 0.37705 14.972 105 97 38
-0.74192 0.58741 31.09 96 88 30
-1.4487 0.37439 14.95 105 97 38
-1.0392 0.45026 19.916 103 94 39
0.2194 0.77418 43.341 96 88 30
-0.92163 0.45878 20.26 111 102 48
-1.4003 0.55696 16.115 149 126 46
-4.4771 -0.74151 -34.095 137 118 49
5.9239 1.6887 41.026 206 154 45
-13.879 -11.687 -36.865 59 37 2
3.9397 4.9942 24.377 42 29 0
-2.4405 4.2191 18.635 18 4 0
-4.8671 5.9434 22.266 110 91 38
-1.7311 -8.7536 28.527 40 29 0
-8.1873 -5.5857 19.243 238 165 65
-7.8232 -5.5706 19.21 220 151 61
3.7686 -5.6102 19.775 255 255 153
1.611 -7.3592 28.035 25 12 0
3.5697 -3.7532 14.746 154 128 39
-2.3173 0.026495 1.2275 101 81 2
4.249 -4.8674 22.827 221 191 89
6.2465 -8.9401 54.069 153 122 52
0.84563 -5.6594 41.756 25 11 0
1.5021 -5.1329 42.315 80 53 1
-6.1769 -1.6757 15.417 112 77 11
-17.12 -6.3397 -32.042 103 84 24
4.4536 -2.9839 26.618 244 234 141
1.8305 -2.9486 36.233 10 3 0
2.0034 -2.6847 36.822 12 6 0
1.74 -1.8784 33.55 11 3 0
1.4525 -1.0706 31.579 219 218 156
7.7284 -0.68367 63.037 189 127 30
6.1632 -0.49449 50.281 152 119 42
0.3915 -0.063805 28.135 22 15 0
-7.8256 0.088209 23.375 59 48 1
-3.5381 0.053155 43.347 246 189 77
0.99674 0.21395 29.391 47 49 1
0.54916 1.2379 27.966 142 125 57
-0.68387 -0.39357 -4.3606 117 63 2
-8.4995 1.958 32.191 28 9 0
4.4046 2.1258 24.181 90 76 11
3.8644 2.6814 19.092 65 51 1
3.2481 3.34 13.895 139 115 33
3.8451 4.7439 19.705 97 78 21
3.0481 3.2332 12.911 169 135 62
-5.0266 5.8545 23.059 7 0 0
-7.9249 -5.5245 19.337 28 5 0
2.2519 -5.4872 22.576 52 16 2
4.6665 -6.2247 28.586 129 110 65
-5.3787 2.3324 -6.3522 140 110 6
3.4976 -2.8147 15.055 125 84 10
4.9679 -5.4862 30.068 61 39 3
-5.4666 2.299 -6.5831 157 125 12
3.6693 -2.6756 17.415 73 66 10
8.3111 -6.6109 58.819 89 58 9
-5.231 -1.4629 -6.7469 141 111 38
-1.1957 -3.7353 35.96 86 51 4
-4.9258 0.74256 -5.4903 80 52 1
-5.7984 -1.5043 21.032 207 193 94
-0.72879 -2.3418 33.544 167 165 71
6.1064 -1.0372 49.447 106 77 11
-1.9764 -0.56651 32.9 255 255 241
-7.3536 0.2701 40.962 166 116 22
-6.7801 0.44508 23.168 255 255 255
-6.7801 0.44508 23.168 255 255 255
-8.8957 1.7064 50.166 137 89 13
2.9073 3.6715 39.989 119 73 9
-7.7974 4.4824 28.32 69 56 20
4.2666 4.7086 25.815 59 40 1
3.8062 4.4017 19.575 113 95 34
2.9069 5.7576 21.639 0 0 0
3.0723 6.3843 22.903 135 116 49
-3.0518 6.2501 19.779 68 56 22
2.7314 5.8293 17.635 7 7 0
-6.1802 -7.2587 25.775 38 0 0
-5.8823 -7.4141 28.842 82 45 9
-6.2051 -7.313 29.705 41 0 0
-8.1095 -7.6725 32.751 13 0 0
3.8885 -3.3396 15.969 152 111 11
4.7761 -5.2177 28.435 255 255 255
4.7761 -5.2177 28.435 255 255 255
-4.1393 -6.6307 36.783 90 51 1
6.6897 -9.4311 53.268 255 240 151
7.6511 -9.355 59.448 255 233 143
0.81594 -6.0361 41.894 2 28 0
6.739 -7.7131 54.216 246 222 138
0.614 -5.9227 42.52 157 194 171
-0.45982 -5.5439 40.904 26 29 0
-3.0033 -5.2141 40.972 99 83 13
6.5657 -6.6392 53.449 217 201 112
-0.78942 -3.6883 35.751 90 67 4
3.7578 -1.3974 15.625 199 175 77
-5.1451 -2.6907 31.438 64 56 4
-7.152 -0.64558 40.917 123 70 3
-7.152 -0.64558 40.917 123 70 3
-7.4539 0.44508 39.587 159 107 26
-7.3413 3.1363 38.986 128 83 11
-7.6302 1.6349 15.396 255 255 255
3.9066 2.5687 24.171 16 2 0
4.1825 5.5516 25.524 33 17 0
-1.1974 5.5196 22.519 17 6 0
3.95 5.7631 23.491 7 0 0
-1.3895 5.6083 22.705 94 74 21
-3.2539 5.2541 19.837 13 8 0
-2.719 5.691 21.371 10 0 0
2.7316 5.5075 20.386 246 241 161
1.1855 -5.7868 22.745 29 3 0
-7.32 -6.8801 28.007 34 0 0
-7.32 -6.8801 28.007 34 0 0
-8.9987 -5.7397 25.837 121 71 2
2.4989 -7.5952 37.029 160 106 13
0.08343 -8.5991 43.752 180 39 8
2.98 -7.1654 36.697 72 34 1
6.1957 -8.4069 53.651 128 97 18
-1.8103 -5.8672 42.467 60 68 16
-6.4138 -4.9378 40.001 23 18 0
7.4342 -7.7933 62.376 48 35 7
3.5032 -1.4889 14.564 211 162 50
6.2224 -4.8442 46.997 130 116 42
-4.6411 -2.5785 29.381 64 60 3
-8.2956 0.67146 25.665 55 51 1
-8.3977 3.8123 34.562 70 39 1
-2.4025 2.2577 17.503 78 82 29
4.1218 3.9483 25.048 165 139 55
-8.289 5.8007 26.169 12 7 0
-1.6067 5.7744 22.871 65 46 17
-3.2578 5.2275 20.413 206 165 58
-4.7626 6.0351 22.746 92 72 16
-0.6827 6.6928 20.389 82 53 10
0.80693 -5.6381 20.239 124 72 23
0.80693 -5.6381 20.239 124 72 23
1.117 -5.6424 21.03 30 7 0
-0.39524 -6.8327 41.592 1 16 0
-5.4332 -5.8254 38.989 108 67 10
-2.2731 -6.366 43.839 240 198 71
1.688 -4.3925 41.451 26 2 0
-5.9578 -1.3446 21.617 66 53 7
-3.7109 -1.0679 37.845 139 105 14
-8.3339 0.21698 25.752 78 66 10
4.2039 2.2302 27.195 176 141 45
-8.494 2.1683 25.408 111 68 2
-8.2221 3.8249 31.655 4 1 0
3.3408 2.5551 14.181 189 166 71
4.2376 5.1188 23.637 38 29 2
3.954 5.295 23.391 248 227 140
-4.8921 5.7461 22.422 29 13 0
3.1111 3.4704 12.673 137 108 30
-2.3737 6.4199 21.821 120 97 52
2.5125 6.5688 19.644 60 42 5
-8.0971 -6.909 32.636 15 13 0
4.3329 -3.2319 25.675 163 159 78
-4.5416 -3.9666 36.144 151 125 31
-7.2681 -0.83812 38.944 254 209 99
2.8017 3.2698 37.742 125 75 13
-2.5133 1.7115 17.161 70 82 21
-2.5133 1.7115 17.161 70 82 21
-1.0454 4.6672 28.446 39 10 0
3.5998 3.1005 15.699 147 128 43
3.1818 3.4489 13.991 57 49 10
3.6165 5.8711 19.81 240 224 129
-4.6552 -7.7424 26.303 84 73 33
1.7077 -7.407 30.85 58 33 1
3.8738 -3.9843 19.971 255 255 255
0.69912 -6.9725 43.271 17 21 0
-1.6086 1.1731 31.328 138 116 40
5.4514 1.4259 36.997 255 247 244
-2.1451 2.0118 23.196 39 12 0
-2.1451 2.0118 23.196 39 12 0
3.4484 2.6079 15.757 25 10 0
-8.832 2.9883 18.039 94 68 9
3.6853 5.3693 20.466 105 78 2
-2.9092 4.9734 18.572 34 24 3
3.2306 5.9337 19.985 20 9 0
-7.1026 -5.6721 40.276 182 130 21
-7.3215 -5.9521 42.066 182 130 21
3.5881 -1.6447 15.459 98 60 2
-5.7494 -1.4527 35.447 127 85 9
-1.1518 2.4476 26.521 36 10 0
-1.1704 5.0932 27.34 14 6 0
-5.2287 -7.9784 32.947 45 14 0
4.2238 -4.1229 25.38 48 30 0
-6.8665 -3.647 32.719 65 40 1
0.027718 -4.6091 39.432 233 186 59
-8.6319 2.8184 26.514 53 35 8
1.6653 -5.5299 21.899 23 9 0
5.6727 -7.5422 40.368 84 42 1
5.2553 2.9629 41.693 83 45 4
4.3826 -5.841 21.307 255 255 238
-9.8427 3.8766 24.796 15 7 0
1.7873 5.5174 41.6 202 153 48
3.7008 7.7998 33.431 151 123 39
0.25482 -7.1755 32.988 255 255 151
-9.2167 1.0688 23.323 162 101 4
3.1662 -0.79656 17.533 255 245 140
-3.7302 1.0496 -2.3924 70 28 1
-7.3892 -2.3877 19.364 122 83 13
-3.9414 -3.085 35.935 48 52 8
-10.597 -5.9727 21.55 224 172 59
-10.803 -6.4368 23.217 121 68 2
-5.6624 -8.745 32.286 51 8 0
4.6825 -6.2112 26.53 255 252 230
-6.5734 -8.0252 43.832 73 36 1
1.8771 1.9286 -12.724 97 59 2
-6.1121 -1.8254 25.244 63 53 5
1.4153 -1.2578 32.058 20 12 0
-4.9206 1.1078 28.865 73 65 13
3.6225 2.5926 20.687 173 141 45
3.7702 3.6753 21.702 67 51 8
-5.1305 5.333 23.619 101 73 27
-1.5078 5.3893 23.118 107 88 35
3.1844 3.6319 13.889 47 37 2
-3.0402 5.0146 19.514 32 11 0
-2.1438 5.8898 20.937 32 19 0
-6.2117 -8.334 28.993 49 0 0
2.2533 -8.4258 33.011 20 10 0
3.474 -7.3932 30.054 37 6 0
2.1115 -7.5104 31.183 98 65 25
3.1626 -6.9468 29.014 128 95 39
3.9903 -2.0212 18.418 174 168 73
3.7162 -1.275 14.229 60 43 1
1.2162 -0.94873 31.352 18 10 0
5.4502 -1.0531 48.901 109 75 14
0.90326 -0.35609 30.376 18 10 0
-1.8169 0.16993 -3.4433 120 74 2
3.0704 4.7137 23.874 37 29 1
-8.6505 6.0983 26.8 94 62 2
3.5806 5.4875 22.879 110 92 25
3.2429 5.1482 20.721 13 7 0
-1.8525 5.9333 22.27 20 5 0
-1.6373 6.1775 20.947 27 10 0
-1.6373 6.1775 20.947 27 10 0
-9.0661 -7.0231 25.58 245 185 67
-9.2884 -6.4264 27.135 22 10 0
-5.378 -8.0291 38.325 255 255 155
-4.2189 -5.4046 38.02 59 26 1
3.811 3.4339 -23.501 37 25 0
-7.1877 -0.9161 19.002 28 14 0
5.7624 -0.98589 47.632 106 77 11
0.66314 0.48699 28.144 42 40 0
5.775 1.4262 46.843 71 39 1
-9.3127 2.5942 28.139 120 73 2
-2.7265 0.35318 1.81 56 43 3
3.1315 4.9683 25.643 138 113 38
2.9033 4.8608 23.54 14 9 0
-9.9582 3.9142 19.365 23 10 0
-9.9582 3.9142 19.365 23 10 0
3.7134 4.1475 19.645 49 39 1
2.9816 5.6509 24.635 127 101 30
-6.3719 5.6342 23.154 39 12 0
2.6096 5.4243 20.472 0 0 0
2.7859 6.0914 21.815 135 112 43
-1.5547 5.8764 21.235 10 0 0
-6.1926 -9.0834 33.043 43 0 0
-6.3873 -7.4555 27.604 37 12 0
-8.6154 -7.3522 29.883 243 217 183
2.9659 -7.1439 36.604 76 40 1
4.0024 -2.2967 21.631 255 255 177
-2.7553 -4.4858 41.296 39 9 0
-2.7553 -4.4858 41.296 39 9 0
-2.7553 -4.4858 41.296 39 9 0
-5.5096 -0.67969 36.881 255 255 255
-7.6771 -0.52665 34.548 77 55 1
3.6158 2.8674 18.273 74 65 17
-9.8083 3.6205 19.157 92 68 10
-2.2458 5.6876 21.962 224 191 71
-5.9437 -8.5992 32.328 254 214 99
4.3558 -7.7405 38.339 8 0 0
6.8175 -8.7735 51.155 98 65 10
5.0527 -0.22488 37.717 142 72 3
-6.8303 1.7666 35.089 121 79 10
-1.6563 5.4059 23.782 25 11 0
-0.83208 5.9596 24.027 131 105 33
-8.3464 -7.2665 34.238 15 13 0
3.6196 -1.1536 14.306 172 131 26
-9.6265 -6.3901 27.566 10 7 0
-2.0175 5.9922 22.354 20 9 0
3.191 3.9084 14.152 25 17 0
2.6727 5.8341 20.201 32 17 0
2.6727 5.8341 20.201 32 17 0
2.3915 6.5563 20.434 142 122 48
-9.2184 -6.9195 31.372 146 93 10
-5.3548 0.15345 33.834 43 32 0
4.6272 0.32671 27.576 221 186 83
3.1587 5.5848 24.055 8 0 0
-6.8173 1.4765 38.259 113 69 6
-5.7276 2.3778 29.633 103 55 4
-7.3094 -0.21202 24.255 156 113 19
0 0 0 1 0 0 0 1 0 0 0 1 0 0 0 0 0 984 1 0 0
