ply
format ascii 1.0
comment PCL generated
element vertex 317
property float x
property float y
property float z
property uchar red
property uchar green
property uchar blue
element camera 1
property float view_px
property float view_py
property float view_pz
property float x_axisx
property float x_axisy
property float x_axisz
property float y_axisx
property float y_axisy
property float y_axisz
property float z_axisx
property float z_axisy
property float z_axisz
property float focal
property float scalex
property float scaley
property float centerx
property float centery
property int viewportx
property int viewporty
property float k1
property float k2
end_header
-2.7221 1.5142 8.2849 94 49 37
-5.2681 1.8823 19.488 27 15 7
-5.2678 1.8799 19.491 27 15 7
-5.266 2.5017 19.267 22 11 2
-5.2908 2.5247 19.386 22 11 2
-0.29456 2.7161 19.186 47 24 17
-3.3643 1.4952 8.4065 42 23 13
-0.09067 1.7875 8.36 137 92 67
-0.17371 0.38773 18.94 91 72 55
-5.0903 0.40736 19.761 97 80 58
-2.354 1.7179 12.995 227 188 157
-1.3576 1.5754 11.19 193 0 10
-2.287 1.5949 8.881 7 0 0
-0.3058 1.7422 8.308 134 86 67
-0.15039 -3.4229 20.236 82 67 59
-0.39238 -3.2329 20.624 255 255 255
-3.6379 1.4855 8.7872 104 77 58
-1.2493 1.6277 8.9109 7 8 0
-1.1227 -1.4671 17.728 53 40 30
-0.17385 -3.5488 19.878 255 255 255
-2.8539 1.3248 -2.7504 255 255 255
-2.8539 1.3248 -2.7504 255 255 255
-5.0638 -3.4954 20.711 255 255 255
-5.1168 -3.443 20.743 102 85 80
-5.1154 -3.4425 20.735 102 85 80
-0.83131 1.4946 11.752 242 95 97
-0.24083 -3.4899 19.921 89 81 79
-0.24083 -3.4899 19.921 89 81 79
-3.1785 1.808 12.618 213 61 22
-3.1129 1.8275 12.597 176 95 79
-0.3387 1.2598 18.736 27 15 10
-0.34733 1.862 18.653 30 18 12
-1.5889 1.5457 11.249 234 88 57
-1.8652 1.6376 11.356 224 78 44
-3.5249 1.6787 8.9355 48 22 10
-3.9478 1.6622 9.4598 26 13 8
-4.5866 1.7492 9.7107 74 50 39
-1.2242 1.7268 8.8169 97 78 60
-1.2242 1.7268 8.8169 97 78 60
-4.5788 1.6382 9.7308 25 10 2
-2.2831 1.6574 8.8629 141 113 98
-0.77403 1.5306 11.857 248 102 99
-2.8987 1.6104 12.958 254 218 158
-1.7175 1.6114 11.27 10 0 0
-1.7184 1.6062 11.259 10 0 0
-0.70979 1.4086 8.7819 28 17 1
-0.94126 1.4022 8.6718 10 14 2
-1.481 1.4989 11.317 225 155 157
-1.481 1.4989 11.317 225 155 157
-3.5982 -0.85521 9.1494 93 76 66
-0.74505 1.4743 8.5907 17 10 0
-1.7724 1.5026 9.2531 11 10 0
-0.80643 1.532 11.697 252 116 115
-0.8654 1.4266 8.8698 40 31 10
-1.848 1.6631 8.4571 125 89 72
-0.34457 1.2589 18.719 29 15 10
-0.34287 1.8642 18.667 25 14 8
-0.77805 1.6751 8.3158 50 22 9
-0.805 1.7028 8.3922 44 23 11
-3.4971 1.8247 9.6011 91 61 45
-2.7774 2.2222 11.643 34 0 0
-4.4039 1.709 9.3279 39 25 22
-0.18032 -3.3881 20.055 79 64 57
-2.4815 1.6451 9.1824 13 10 3
-3.901 1.7363 9.6238 139 115 98
-4.9677 -3.3464 20.929 96 80 70
-4.8713 -3.268 20.737 88 72 62
-3.9376 -0.87489 8.7905 92 76 65
-0.45537 -2.8052 20.683 52 40 34
-0.76279 1.3741 8.9502 241 159 54
-2.3423 1.5249 9.4717 10 6 0
-1.0547 1.5865 8.975 2 7 0
-2.5971 1.1613 9.6285 204 63 5
-0.3185 -3.4278 20.009 76 67 70
-0.29574 -3.466 20.155 76 67 70
-9.9281 -3.4102 21.775 95 82 82
-2.416 1.8877 13.223 220 206 214
-9.8865 -3.3731 21.75 94 81 79
-9.8865 -3.3731 21.75 94 81 79
-4.0722 1.4805 9.5432 15 13 7
-8.8082 8.1442 -31.84 89 78 80
-2.9984 -0.36674 6.0393 96 82 76
-3.284 1.9359 9.8802 180 145 125
-10.271 -2.3308 22.096 249 254 255
-0.69884 1.6088 11.775 195 0 17
-3.8974 1.7916 9.2905 124 91 68
-2.8794 1.7336 8.916 44 18 10
-10.186 -2.2765 21.777 255 255 255
-9.9799 0.42402 20.966 88 72 53
-0.33359 1.2541 18.748 21 15 10
-5.2448 1.243 19.632 27 17 8
-5.2493 1.2458 19.668 27 17 8
-5.2685 1.8851 19.534 29 15 10
-5.2672 1.8841 19.521 29 15 10
-5.3265 2.5636 19.681 27 15 7
-5.2878 2.5272 19.433 27 15 7
-2.4254 1.927 13.309 209 184 186
-3.9707 1.7101 9.5768 23 10 4
-3.4685 1.7955 9.481 68 44 29
-3.4685 1.7955 9.481 68 44 29
-2.7655 1.7505 9.3721 45 28 17
-2.2297 1.8576 9.4196 161 132 116
-2.2196 1.8877 9.5088 161 132 116
-2.2681 1.7952 9.0829 20 10 9
-2.1917 1.7995 9.0299 25 11 10
-3.1284 -0.42774 6.6191 255 255 255
-3.5485 -0.53341 7.1503 255 255 255
-2.2821 1.6531 9.0453 13 3 0
-1.2666 1.69 8.724 103 80 59
-2.4421 1.8006 9.2938 116 86 67
-5.0847 1.7097 9.5409 27 13 10
-1.2197 1.6615 8.9173 8 7 0
-2.4722 1.6218 9.0718 10 8 1
-3.8505 1.6833 9.4597 164 144 128
-4.9692 -3.3372 20.885 95 79 69
-4.7249 1.8039 9.815 4 1 0
-4.9073 -3.294 20.793 100 87 76
-4.8997 -3.2957 20.832 88 72 62
-9.1309 -2.8948 20.444 90 73 61
-1.9972 1.5473 11.153 239 155 154
-4.803 1.7314 9.9545 14 7 2
-2.5869 1.4262 10.571 133 66 56
-1.5929 -0.9182 15.432 50 34 26
-3.343 1.6444 12.713 213 167 172
-2.1838 1.8667 12.785 250 96 58
-4.9967 1.5383 9.5392 105 86 70
-5.0939 1.6475 9.7516 55 42 36
-9.5392 -3.0706 21.52 89 72 60
-11.578 -2.3131 23.841 255 242 192
-4.6811 2.841 17.957 16 26 0
-10.048 -2.1826 21.68 87 58 34
-10.317 1.946 21.08 20 13 10
-10.317 1.946 21.08 20 13 10
-5.2355 1.4848 9.2092 23 14 9
-3.9019 1.2007 9.2689 48 33 19
-1.2525 1.664 11.623 191 0 10
-3.1455 1.5595 8.7456 137 107 92
-3.1455 1.5595 8.7456 137 107 92
-10.306 -1.8773 21.792 254 226 165
-10.353 0.16139 21.203 25 26 21
-9.732 -3.1801 22.074 88 72 58
-1.413 1.5499 11.598 214 163 164
-1.019 1.882 12.039 102 0 1
-2.0806 1.7265 9.1699 96 69 58
-4.0749 1.4582 9.5311 12 11 2
-2.5304 1.6035 11.351 204 59 35
-2.3866 1.3786 8.9721 14 10 3
-11.679 -2.388 22.654 177 149 123
-4.5842 2.8281 17.845 82 85 46
-0.23171 0.32974 18.924 86 75 57
-10.37 0.38838 21.444 79 65 55
-10.344 0.39305 21.38 79 65 55
-10.512 -2.5142 22.563 255 255 255
-10.677 -2.4776 22.263 254 217 177
-5.9297 2.0462 -4.5873 112 93 77
-9.8026 -3.453 21.744 91 87 93
-0.33791 -3.3809 19.911 72 58 64
-2.3979 1.7586 13.133 233 205 183
-5.337 -3.0675 20.71 255 255 255
-2.5373 1.3339 8.1318 10 0 0
-4.8959 -3.2508 20.601 96 79 67
-0.83629 -1.7336 19.434 44 30 23
-11.614 -2.3313 22.949 162 136 108
-10.137 -1.7506 21.468 254 227 173
-4.7182 1.0968 -1.2355 255 255 255
-11.462 -2.1781 23.497 169 142 116
-10.099 0.36246 20.683 80 71 58
-5.2416 1.2415 19.623 29 15 10
-5.2431 1.2435 19.643 29 15 10
-10.123 1.8708 20.553 23 11 10
-9.9989 1.9531 20.395 83 64 46
-10.08 2.4728 20.215 10 7 0
-0.30322 1.2723 18.848 27 15 11
-1.8776 2.1983 10.468 12 2 0
-9.8272 -0.29099 20.08 26 20 12
-1.9071 1.8738 12.722 41 18 10
-2.1651 2.1921 14.519 212 191 196
-7.3129 3.6662 -14.296 255 255 255
-3.8604 1.638 11.003 32 29 15
-5.9323 1.9197 11.036 137 113 98
-10.175 -1.8718 21.372 254 227 170
-10.292 0.12596 20.954 25 25 25
-10.325 0.12713 21.049 26 23 25
-1.9974 2.06 10.356 10 8 4
-0.15592 -3.3454 20.058 74 61 51
-0.18515 -3.324 19.957 74 60 52
-1.4506 1.9987 13.15 199 186 194
-5.9187 1.963 11.001 132 110 90
-5.9187 1.963 11.001 132 110 90
-9.0669 -2.8103 20.109 86 70 58
-9.0669 -2.8103 20.109 86 70 58
-0.90251 1.814 12.837 226 150 148
-2.5594 1.8924 10.626 15 20 10
-0.51917 -1.8628 20.42 26 20 12
-11.668 -2.3664 23.779 255 239 188
-11.655 -2.301 23.563 178 146 110
-0.28772 -3.0224 20.829 53 41 37
-1.9281 2.2285 10.414 178 146 127
-2.458 2.0068 10.072 36 20 11
-10.48 -1.7206 21.525 151 123 98
-1.4344 1.7964 12.125 10 0 0
-1.4344 1.7964 12.125 10 0 0
-7.3265 2.8822 16.689 246 229 208
-4.0683 -0.12428 4.014 11 13 7
-3.8641 -0.26789 3.5765 103 71 60
-3.5695 0.44824 6.3887 198 187 199
-10.203 1.9282 20.549 82 66 51
-5.2859 2.5373 19.489 30 21 12
-2.6994 1.9565 13.983 221 22 18
-10.296 -0.39534 21.244 29 15 10
-11.656 -2.9304 24.673 255 255 255
-4.6728 2.8865 18.207 14 23 0
-0.34199 -3.3751 19.9 64 54 62
-11.813 -2.6126 22.367 255 237 188
-10.207 -0.065233 21.069 13 15 15
-10.029 1.1581 20.804 84 68 51
-2.2988 1.8053 13.338 226 207 195
-9.4958 -3.0304 21.325 89 72 60
-9.548 -3.0725 21.51 89 72 60
-11.985 -3.0816 25.692 255 255 255
-0.26159 -3.4672 19.853 84 73 72
-13.593 -3.0833 28.434 255 234 184
-0.21325 -3.5022 19.708 255 255 255
-4.7146 -0.52712 7.0476 255 255 255
-11.842 -2.5302 22.184 165 139 110
-10.047 -2.0772 21.399 255 255 255
-10.131 1.8772 20.554 17 8 0
-10.053 1.9676 20.562 83 67 48
-9.2024 -3.3124 21.263 85 67 56
-10.191 -1.7191 21.614 254 229 178
-0.31439 1.2673 18.817 25 17 10
-2.339 1.9282 13.336 199 190 196
-10.179 -0.069206 20.95 21 18 19
-2.8753 1.7523 13.048 216 33 21
-5.629 1.5471 9.9281 13 18 8
-5.4029 1.4889 9.6909 10 17 7
-6.3384 1.6005 10.167 20 10 1
-6.8096 1.6819 10.319 158 131 110
-6.1927 1.6082 10.085 134 107 87
-5.5268 1.589 9.8498 162 137 120
-12.016 0.18252 21.335 114 118 123
-12.016 0.18252 21.335 114 118 123
-11.733 -2.5101 21.945 177 143 108
-4.6689 2.8451 17.993 18 29 1
-0.33783 -3.366 19.908 64 55 60
-11.642 -2.2701 23.376 172 145 117
-6.6763 1.6955 10.353 45 28 17
-5.5973 1.7519 10.013 106 79 66
-5.3573 -3.0632 20.644 255 255 255
-5.3572 -3.0636 20.644 255 255 255
-10.416 0.098396 21.32 31 28 29
-10.416 0.098396 21.32 31 28 29
-6.0485 1.6301 10.124 33 23 17
-3.6564 1.6525 9.463 140 112 99
-5.5371 1.623 9.9712 162 137 120
-9.5701 -3.0765 21.659 91 71 60
-11.371 0.23582 19.707 17 14 17
-10.561 2.198 17.156 26 17 10
-11.918 -3.1922 21.611 101 73 45
-11.901 -3.1834 21.569 101 73 45
-7.1953 1.4899 10.053 18 13 2
-6.9369 1.6353 10.436 30 19 9
-5.6666 1.6186 9.8587 10 10 3
-5.1509 -0.55826 7.5856 255 255 255
-5.1163 -0.25407 6.0324 255 255 255
-5.9731 1.4881 9.8086 23 22 12
-4.2548 1.5324 9.7733 48 0 0
-0.44411 -3.379 19.551 255 255 255
-11.794 -3.1092 21.444 255 236 191
-11.953 -2.5517 21.27 151 127 105
-11.953 -2.5517 21.27 151 127 105
-12.469 0.12793 22.42 48 42 31
-12.129 0.19404 21.587 114 119 115
-12.129 0.19404 21.587 114 119 115
-11.766 -3.1945 21.481 252 237 237
-12.059 -2.7716 21.612 255 239 188
-11.949 -2.7581 21.767 254 226 172
-11.988 -2.7815 21.904 254 226 173
-12.138 -2.1219 21.77 52 37 26
-5.6452 2.6882 17.551 10 8 6
-5.6452 2.6882 17.551 10 8 6
-6.9918 1.7147 10.276 10 0 0
-5.4083 1.5854 10.016 10 14 9
-3.8615 1.4359 9.8433 15 18 4
-6.4382 -1.14 19.466 78 58 43
-0.54788 -3.2736 19.35 67 58 64
-11.986 -3.2341 21.141 255 255 255
-12.302 -2.1566 21.543 50 38 26
-12.64 -0.3205 21.731 40 27 17
-12.503 0.23958 21.797 25 15 10
-12.022 -3.1699 21.354 107 88 74
-6.9218 1.7532 10.267 28 14 11
-2.8756 1.7409 13.086 217 30 22
-5.0444 1.6055 9.7568 12 1 0
-0.44739 -3.2286 20.495 255 255 255
-12.211 -3.1135 21.597 105 86 70
-6.4694 1.6285 10.195 25 10 4
-0.26095 -3.4653 19.844 77 68 71
-12.148 -2.8094 21.856 254 231 189
-12.771 1.2572 21.506 9 4 0
-12.802 0.38961 22.148 86 69 52
-0.2547 2.7336 18.78 33 19 14
-10.263 -0.062339 21.21 26 23 22
-11.69 -2.6919 21.334 254 229 179
-10.615 -2.4548 21.207 255 255 255
-12.217 -3.3537 22.062 107 89 84
-12.854 1.2062 21.563 72 53 38
-12.808 1.2018 21.451 72 53 38
-12.109 -2.1112 21.699 48 33 19
-12.093 -2.9979 21.208 139 118 104
-10.66 -2.4747 21.372 255 255 255
-1.5595 -1.549 17.516 26 17 12
-12.018 0.26537 21.149 25 17 14
-0.81199 -0.65672 18.396 72 58 51
-12.622 0.37646 21.652 85 69 52
-5.444 2.106 16.963 30 18 10
0.26011 -3.5069 20.928 71 59 55
0 0 0 1 0 0 0 1 0 0 0 1 0 0 0 0 0 317 1 0 0
