ply
format ascii 1.0
comment PCL generated
element vertex 285
property float x
property float y
property float z
property uchar red
property uchar green
property uchar blue
element camera 1
property float view_px
property float view_py
property float view_pz
property float x_axisx
property float x_axisy
property float x_axisz
property float y_axisx
property float y_axisy
property float y_axisz
property float z_axisx
property float z_axisy
property float z_axisz
property float focal
property float scalex
property float scaley
property float centerx
property float centery
property int viewportx
property int viewporty
property float k1
property float k2
end_header
-2.6073 1.6496 8.5301 94 49 37
-5.4519 2.0626 21.167 27 15 7
-5.4479 2.057 21.146 27 15 7
-5.4459 2.7527 20.894 22 11 2
-5.4748 2.7791 21.032 22 11 2
0.13068 3.0096 20.834 47 24 17
-3.3187 1.6261 8.6624 42 23 13
0.32242 1.9659 8.6291 137 92 67
0.26857 0.39164 20.532 91 72 55
-5.2493 0.40519 21.471 97 80 58
-2.1915 1.8797 13.81 227 188 157
-1.0843 1.7219 11.779 193 0 10
-2.1237 1.7416 9.1984 7 0 0
0.081872 1.9143 8.5698 134 86 67
0.30241 -3.8836 21.975 82 67 59
0.030268 -3.666 22.409 255 255 255
-3.6218 1.6146 9.0865 104 77 58
-0.96883 1.7829 9.239 7 8 0
-0.80008 -1.6829 19.122 53 40 30
0.2826 -4.0376 21.628 255 255 255
-2.7539 1.4223 -3.5362 255 255 255
-2.7539 1.4223 -3.5362 255 255 255
-5.2175 -3.9883 22.568 255 255 255
-5.2738 -3.924 22.584 102 85 80
-5.2725 -3.9243 22.576 102 85 80
-0.50002 1.6289 12.389 242 95 97
0.19889 -3.9562 21.611 89 81 79
0.19889 -3.9562 21.611 89 81 79
-3.1098 1.975 13.371 213 61 22
-3.0367 1.9962 13.345 176 95 79
0.081349 1.3699 20.299 27 15 10
0.062637 2.041 20.167 30 18 12
-1.3427 1.6866 11.838 234 88 57
-1.6523 1.7779 11.911 224 78 44
-3.4997 1.8328 9.2626 48 22 10
-3.9687 1.813 9.8455 26 13 8
-4.6802 1.9094 10.13 74 50 39
-0.94303 1.89 9.1252 97 78 60
-0.94303 1.89 9.1252 97 78 60
-4.6715 1.786 10.153 25 10 2
-2.1196 1.811 9.1782 141 113 98
-0.43827 1.6673 12.497 248 102 99
-2.7973 1.7547 13.747 254 218 158
-1.4864 1.7583 11.857 10 0 0
-1.4869 1.7536 11.848 10 0 0
-0.37044 1.5377 9.0864 28 17 1
-0.62815 1.5302 8.9636 10 14 2
-1.2224 1.6347 11.914 225 155 157
-1.2224 1.6347 11.914 225 155 157
-3.5623 -0.97596 9.4481 93 76 66
-0.41045 1.6108 8.873 17 10 0
-1.551 1.6395 9.6115 11 10 0
-0.46994 1.6734 12.342 252 116 115
-0.54308 1.5575 9.185 40 31 10
-1.637 1.8176 8.7239 125 89 72
0.076374 1.3694 20.287 29 15 10
0.06882 2.0445 20.19 25 14 8
-0.44792 1.8341 8.5678 50 22 9
-0.47776 1.8647 8.6529 44 23 11
-3.4673 1.9935 9.9997 91 61 45
-2.6621 2.421 12.223 34 0 0
-4.4751 1.8637 9.6976 39 25 22
0.26985 -3.8461 21.78 79 64 57
-2.3393 1.7961 9.5319 13 10 3
-3.9161 1.8947 10.026 139 115 98
-5.1125 -3.8294 22.855 96 80 70
-5.0018 -3.735 22.616 88 72 62
-3.9403 -1.0023 9.0808 92 76 65
-0.024831 -3.2073 22.581 52 40 34
-0.42856 1.4993 9.2747 241 159 54
-2.1841 1.6606 9.8469 10 6 0
-0.75381 1.7345 9.3018 2 7 0
-2.4663 1.2582 10.03 204 63 5
0.125 -3.9049 21.793 76 67 70
0.14045 -3.9332 21.892 76 67 70
-10.747 -3.9318 23.918 95 82 82
-2.2605 2.06 14.021 220 206 214
-4.1061 1.6105 9.937 15 13 7
-7.1185 5.9727 -22.385 89 78 80
-2.9112 -0.42937 6.0066 96 82 76
-3.2285 2.1076 10.281 180 145 125
-11.2 -2.7299 24.443 249 254 255
-0.36114 1.7507 12.387 195 0 17
-3.9077 1.9477 9.6293 124 91 68
-2.7816 1.8816 9.2016 44 18 10
-11.06 -2.6558 23.962 255 255 255
-10.924 0.42179 23.284 88 72 53
0.08497 1.3626 20.298 21 15 10
-5.4226 1.3432 21.316 27 17 8
-5.4223 1.343 21.313 27 17 8
-5.4478 2.0619 21.185 29 15 10
-5.4484 2.063 21.19 29 15 10
-5.5286 2.8374 21.452 27 15 7
-5.4716 2.7841 21.085 27 15 7
-2.2718 2.105 14.124 209 184 186
-3.989 1.858 9.9494 23 10 4
-3.4325 1.9515 9.8367 68 44 29
-3.4325 1.9515 9.8367 68 44 29
-2.6552 1.9011 9.7089 45 28 17
-2.0644 2.0174 9.7528 161 132 116
-2.0524 2.053 9.8582 161 132 116
-2.1068 1.9499 9.3835 20 10 9
-2.0227 1.9546 9.3243 25 11 10
-3.0508 -0.49457 6.6304 255 255 255
-3.5112 -0.61214 7.2164 255 255 255
-2.1236 1.7888 9.3293 13 3 0
-1.0039 1.8339 8.9802 103 80 59
-2.2993 1.9516 9.6062 116 86 67
-5.2287 1.8603 9.9263 27 13 10
-0.95123 1.8029 9.195 8 7 0
-2.3328 1.7536 9.3575 10 8 1
-3.8556 1.828 9.8175 164 144 128
-5.1132 -3.8173 22.798 95 79 69
-4.8278 1.9639 10.226 4 1 0
-3.4733 -1.3048 10.472 100 87 76
-5.0318 -3.7611 22.706 88 72 62
-9.8227 -3.3319 22.353 90 73 61
-1.8015 1.6798 11.694 239 155 154
-4.915 1.8839 10.384 14 7 2
-2.4554 1.5439 11.044 133 66 56
-1.3357 -1.0623 16.503 50 34 26
-3.2898 1.7791 13.402 213 167 172
-2.0103 2.0247 13.473 250 96 58
-5.0985 1.6467 9.8395 105 86 70
-5.2062 1.7665 10.075 55 42 36
-10.331 -3.5613 23.698 89 72 60
-13.268 -2.8798 27.817 255 242 192
-4.7885 3.131 19.389 16 26 0
-10.957 -2.5633 23.997 87 58 34
-11.203 2.1456 23.149 20 13 10
-11.203 2.1456 23.149 20 13 10
-5.3884 1.6088 9.5471 23 14 9
-3.9067 1.2899 9.5853 48 33 19
-0.99539 1.7938 12.143 191 0 10
-3.0739 1.6823 8.9929 137 107 92
-3.0739 1.6823 8.9929 137 107 92
-11.204 -2.2107 24.004 254 226 165
-11.294 0.1195 23.415 25 26 21
-10.549 -3.6842 24.323 88 72 58
-1.1715 1.6681 12.115 214 163 164
-0.72636 2.0437 12.646 102 0 1
-1.9049 1.8654 9.454 96 69 58
-4.0987 1.5747 9.88 12 11 2
-2.3938 1.7348 11.887 204 59 35
-2.2402 1.4834 9.2374 14 10 3
-12.763 -2.7857 24.968 177 149 123
-4.68 3.1166 19.261 82 85 46
0.18949 0.32208 20.449 86 75 57
-11.272 0.37671 23.588 79 65 55
-11.273 0.38359 23.59 79 65 55
-11.491 -2.948 25.016 255 255 255
-11.685 -2.907 24.686 254 217 177
-10.587 -3.97 23.827 91 87 93
0.13541 -3.8829 21.798 72 58 64
-2.24 1.9129 13.899 233 205 183
-5.528 -3.515 22.602 255 255 255
-2.4084 1.4275 8.2895 10 0 0
-5.0372 -3.7458 22.598 96 79 67
-0.45999 -1.9967 21.133 44 30 23
-12.598 -2.6916 25.081 162 136 108
-10.955 -2.0416 23.472 254 227 173
-4.7839 1.1791 -1.9417 255 255 255
-12.442 -2.5248 25.728 169 142 116
-10.829 0.34478 22.368 80 71 58
-5.4233 1.344 21.346 29 15 10
-5.422 1.3434 21.332 29 15 10
-10.884 2.0341 22.278 23 11 10
-10.871 2.7273 22.003 10 7 0
0.12688 1.389 20.442 27 15 11
-1.6748 2.3891 10.896 12 2 0
-10.61 -0.38974 21.917 26 20 12
-1.6869 2.0479 13.485 41 18 10
-1.9789 2.3986 15.467 212 191 196
-3.858 1.7645 11.468 32 29 15
-6.1341 2.0696 11.497 137 113 98
-11.001 -2.1781 23.372 254 227 170
-11.138 0.079664 22.91 25 25 25
-11.173 0.080798 23.011 26 23 25
-1.8074 2.2357 10.77 10 8 4
0.31543 -3.8183 21.866 74 61 51
0.30707 -3.8134 21.839 74 60 52
-1.1917 2.1789 13.909 199 186 194
-6.1192 2.1171 11.459 132 110 90
-6.1192 2.1171 11.459 132 110 90
-9.7418 -3.2323 21.931 86 70 58
-9.7418 -3.2323 21.931 86 70 58
-0.58214 1.9766 13.567 226 150 148
-2.4226 2.056 11.086 15 20 10
-0.070318 -2.1584 22.368 26 20 12
-12.713 -2.7489 26.143 255 239 188
-12.709 -2.6777 25.925 178 146 110
0.20014 -3.4838 22.871 53 41 37
-1.7138 2.4403 10.888 178 146 127
-2.3028 2.1917 10.5 36 20 11
-11.346 -2.0079 23.544 151 123 98
-1.1623 1.963 12.804 10 0 0
-1.1623 1.963 12.804 10 0 0
-7.7474 3.1774 17.966 246 229 208
-4.0727 -0.16288 3.7811 11 13 7
-3.8419 -0.32401 3.2868 103 71 60
-3.5052 0.4831 6.4781 198 187 199
-11.06 2.1226 22.515 82 66 51
-5.4695 2.7944 21.136 30 21 12
-2.569 2.1395 14.891 221 22 18
-11.156 -0.51059 23.278 29 15 10
-12.694 -3.3798 27.13 255 255 255
-4.781 3.2034 19.77 14 23 0
0.17633 -3.9083 21.932 64 54 62
-12.569 -2.9139 23.801 255 237 188
-11.028 -0.13456 23.004 13 15 15
-10.85 1.2507 22.77 84 68 51
-2.1132 1.9783 14.205 226 207 195
-10.272 -3.5106 23.465 89 72 60
-10.383 -3.5862 23.844 89 72 60
-13.095 -3.5648 28.361 255 255 255
0.22586 -3.9763 21.728 84 73 72
-7.5469 -1.0048 11.921 255 234 184
0.26871 -4.0064 21.528 255 255 255
-4.7966 -0.6152 7.1388 255 255 255
-13.007 -2.9677 24.594 165 139 110
-10.861 -2.4121 23.417 255 255 255
-10.722 1.9842 21.772 17 8 0
-10.984 -1.9929 23.534 254 229 178
0.061697 1.3645 20.243 25 17 10
-2.1678 2.1088 14.173 199 190 196
-10.945 -0.13251 22.713 21 18 19
-2.7651 1.9124 13.848 216 33 21
-5.8192 1.6766 10.335 13 18 8
-5.5682 1.6132 10.074 10 17 7
-6.6063 1.7356 10.599 20 10 1
-7.1304 1.8258 10.771 158 131 110
-6.4451 1.7445 10.511 134 107 87
-5.7062 1.7239 10.251 162 137 120
-12.993 0.14292 23.113 114 118 123
-12.993 0.14292 23.113 114 118 123
-12.688 -2.8731 23.831 177 143 108
-4.7747 3.1449 19.469 18 29 1
0.20756 -3.9108 22.015 64 55 60
-12.721 -2.6525 25.799 172 145 117
-6.9834 1.8419 10.812 45 28 17
-5.7845 1.9028 10.429 106 79 66
-5.5484 -3.5027 22.494 255 255 255
-5.548 -3.5005 22.47 255 255 255
-11.18 0.053703 23.018 31 28 29
-11.18 0.053703 23.018 31 28 29
-6.2857 1.7694 10.557 33 23 17
-3.6315 1.7977 9.8297 140 112 99
-5.718 1.7616 10.386 162 137 120
-10.273 -3.5089 23.541 91 71 60
-12.32 0.208 21.419 17 14 17
-11.366 2.4069 18.469 26 17 10
-12.82 -3.595 23.257 101 73 45
-12.922 -3.6446 23.515 101 73 45
-7.5451 1.605 10.444 18 13 2
-7.2643 1.7677 10.876 30 19 9
-5.8639 1.7658 10.288 10 10 3
-5.2385 -0.31167 6.0123 255 255 255
-5.2385 -0.31167 6.0123 255 255 255
-6.1999 1.6109 10.201 23 22 12
-4.2907 1.6727 10.204 48 0 0
0.019558 -3.874 21.383 255 255 255
-12.66 -3.4939 23.014 255 236 191
-12.977 -2.9326 23.172 151 127 105
-12.977 -2.9326 23.172 151 127 105
-12.645 -3.596 23.096 252 237 237
-12.863 -3.0828 22.964 255 239 188
-12.799 -3.0898 23.281 254 226 172
-13.017 -3.1915 23.88 254 226 173
-12.898 -2.357 23.009 52 37 26
-5.8641 2.9347 18.808 10 8 6
-5.8641 2.9347 18.808 10 8 6
-7.3317 1.8626 10.724 10 0 0
-5.5752 1.7128 10.413 10 14 9
-3.8727 1.5441 10.21 15 18 4
-6.6742 -1.2409 19.947 78 58 43
0.00719 -3.8216 21.451 67 58 64
-12.964 -2.3589 22.478 50 38 26
-13.188 -0.39857 22.353 40 27 17
-12.626 -3.4115 22.176 107 88 74
-7.2385 1.8864 10.654 28 14 11
-2.5987 2.0114 14.417 217 30 22
-5.156 1.7959 10.313 12 1 0
-0.046859 -3.6606 22.259 255 255 255
-13.034 -3.4567 22.957 105 86 70
-6.7501 1.7646 10.624 25 10 4
0 0 0 1 0 0 0 1 0 0 0 1 0 0 0 0 0 285 1 0 0
