ply
format ascii 1.0
comment PCL generated
element vertex 298
property float x
property float y
property float z
property uchar red
property uchar green
property uchar blue
element camera 1
property float view_px
property float view_py
property float view_pz
property float x_axisx
property float x_axisy
property float x_axisz
property float y_axisx
property float y_axisy
property float y_axisz
property float z_axisx
property float z_axisy
property float z_axisz
property float focal
property float scalex
property float scaley
property float centerx
property float centery
property int viewportx
property int viewporty
property float k1
property float k2
end_header
-2.6633 1.5827 8.4183 94 49 37
-5.368 1.9604 20.26 27 15 7
-5.3657 1.956 20.251 27 15 7
-5.3641 2.6131 20.017 22 11 2
-5.3901 2.6368 20.14 22 11 2
-0.11474 2.8402 19.925 47 24 17
-3.3416 1.5625 8.5465 42 23 13
0.11374 1.8719 8.4995 137 92 67
0.016742 0.38288 19.679 91 72 55
-5.1779 0.4004 20.535 97 80 58
-2.2805 1.7931 13.392 227 188 157
-1.2265 1.6447 11.485 193 0 10
-2.2049 1.668 9.0494 7 0 0
-0.11318 1.8241 8.4445 134 86 67
0.039094 -3.6396 21.026 82 67 59
-0.22084 -3.4316 21.411 255 255 255
-3.631 1.5517 8.9484 104 77 58
-1.1095 1.7021 9.079 7 8 0
-0.98471 -1.5737 18.383 53 40 30
0.017783 -3.7776 20.669 255 255 255
-2.7856 1.3879 -3.198 255 255 255
-2.7856 1.3879 -3.198 255 255 255
-5.1517 -3.7269 21.552 255 255 255
-5.2051 -3.6678 21.57 102 85 80
-5.2042 -3.6681 21.564 102 85 80
-0.672 1.5584 12.076 242 95 97
-0.055318 -3.7107 20.696 89 81 79
-0.055318 -3.7107 20.696 89 81 79
-3.1502 1.8872 12.989 213 61 22
-3.0809 1.9076 12.966 176 95 79
-0.15897 1.304 19.456 27 15 10
-0.16657 1.9411 19.378 30 18 12
-1.4706 1.6131 11.548 234 88 57
-1.7631 1.7071 11.648 224 78 44
-3.5114 1.7544 9.1015 48 22 10
-3.9579 1.7359 9.6531 26 13 8
-4.6321 1.8268 9.9168 74 50 39
-1.0827 1.8074 8.9817 97 78 60
-1.0827 1.8074 8.9817 97 78 60
-4.6239 1.7097 9.9381 25 10 2
-2.2008 1.7332 9.0279 141 113 98
-0.61255 1.5957 12.183 248 102 99
-2.8552 1.6783 13.347 254 218 158
-1.6066 1.682 11.568 10 0 0
-1.6075 1.6769 11.557 10 0 0
-0.53905 1.4719 8.9458 28 17 1
-0.78344 1.4651 8.829 10 14 2
-1.3568 1.5637 11.62 225 155 157
-1.3568 1.5637 11.62 225 155 157
-3.5845 -0.91853 9.3138 93 76 66
-0.57608 1.5416 8.7441 17 10 0
-1.662 1.5697 9.4407 11 10 0
-0.64479 1.5989 12.024 252 116 115
-0.70357 1.4908 9.0383 40 31 10
-1.741 1.7398 8.6001 125 89 72
-0.16502 1.303 19.438 29 15 10
-0.16107 1.9437 19.396 25 14 8
-0.61068 1.7539 8.4539 50 22 9
-0.63928 1.783 8.5346 44 23 11
-3.4826 1.9075 9.8031 91 61 45
-2.725 2.3211 11.944 34 0 0
-4.4385 1.7846 9.5121 39 25 22
0.0092051 -3.6048 20.844 79 64 57
-2.4105 1.7194 9.3639 13 10 3
-3.9087 1.8137 9.8259 139 115 98
-5.0485 -3.5656 21.765 96 80 70
-4.9487 -3.4877 21.588 88 72 62
-3.9433 -0.94167 8.9538 92 76 65
-0.27791 -2.994 21.537 52 40 34
-0.59522 1.4352 9.1234 241 159 54
-2.2639 1.5918 9.6676 10 6 0
-0.90379 1.6592 9.1489 2 7 0
-2.5328 1.2082 9.8343 204 63 5
-0.13335 -3.6517 20.816 76 67 70
-0.11495 -3.6838 20.935 76 67 70
-10.297 -3.6405 22.676 95 82 82
-2.3464 1.9702 13.624 220 206 214
-10.243 -3.5952 22.626 94 81 79
-10.243 -3.5952 22.626 94 81 79
-4.0906 1.5452 9.7461 15 13 7
-7.051 5.9207 -22.041 89 78 80
-2.9505 -0.40082 6.0382 96 82 76
-3.258 2.0217 10.09 180 145 125
-10.679 -2.5069 23.062 249 254 255
-0.53346 1.6785 12.097 195 0 17
-3.9033 1.8693 9.4656 124 91 68
-2.8302 1.8095 9.073 44 18 10
-10.561 -2.4377 22.646 255 255 255
-10.364 0.41448 21.85 88 72 53
-0.15467 1.2977 19.464 21 15 10
-5.3412 1.2829 20.397 27 17 8
-5.3392 1.2816 20.38 27 17 8
-5.3659 1.961 20.29 29 15 10
-5.3636 1.9591 20.269 29 15 10
-5.4298 2.6786 20.456 27 15 7
-5.3848 2.6369 20.171 27 15 7
-2.357 2.0114 13.713 209 184 186
-3.9809 1.7831 9.7672 23 10 4
-3.4517 1.8737 9.6677 68 44 29
-3.4517 1.8737 9.6677 68 44 29
-2.7108 1.8272 9.5546 45 28 17
-2.1459 1.9413 9.6082 161 132 116
-2.1356 1.9724 9.7008 161 132 116
-2.1862 1.8751 9.2509 20 10 9
-2.1056 1.8798 9.1953 25 11 10
-3.0872 -0.46399 6.6431 255 255 255
-3.5311 -0.57692 7.2053 255 255 255
-2.2011 1.7245 9.2086 13 3 0
-1.1296 1.7658 8.8754 103 80 59
-2.3701 1.8796 9.4706 116 86 67
-5.1542 1.7816 9.7271 27 13 10
-1.0803 1.7357 9.0793 8 7 0
-2.4014 1.6913 9.236 10 8 1
-3.854 1.755 9.6439 164 144 128
-5.0495 -3.5539 21.71 95 79 69
-4.7758 1.8811 10.017 4 1 0
-3.4959 -1.2304 10.281 100 87 76
-4.9753 -3.5085 21.657 88 72 62
-9.4418 -3.0894 21.242 90 73 61
-1.9028 1.6125 11.435 239 155 154
-4.8583 1.8046 10.164 14 7 2
-2.5238 1.4847 10.819 133 66 56
-1.4796 -0.99169 15.951 50 34 26
-3.3235 1.7113 13.072 213 167 172
-2.1036 1.9437 13.139 250 96 58
-5.0613 1.6012 9.7251 105 86 70
-5.164 1.7158 9.9487 55 42 36
-9.9214 -3.3028 22.506 89 72 60
-12.524 -2.619 26.005 255 242 192
-4.7441 2.9722 18.627 16 26 0
-10.461 -2.3551 22.669 87 58 34
-10.705 2.0224 21.93 20 13 10
-10.705 2.0224 21.93 20 13 10
-5.3171 1.5485 9.3883 23 14 9
-3.9077 1.2469 9.4425 48 33 19
-1.1262 1.7289 11.902 191 0 10
-3.1104 1.6239 8.8866 137 107 92
-3.1104 1.6239 8.8866 137 107 92
-10.688 -2.0165 22.667 254 226 165
-10.774 0.1366 22.137 25 26 21
-10.099 -3.4022 23.015 88 72 58
-1.2946 1.6089 11.875 214 163 164
-0.8775 1.961 12.354 102 0 1
-1.9916 1.7983 9.3301 96 69 58
-4.0907 1.5181 9.7198 12 11 2
-2.4662 1.6687 11.633 204 59 35
-2.3126 1.433 9.1228 14 10 3
-12.085 -2.5393 23.443 177 149 123
-4.6418 2.9591 18.51 82 85 46
-0.040938 0.32178 19.673 86 75 57
-10.766 0.37622 22.326 79 65 55
-10.759 0.38218 22.309 79 65 55
-10.957 -2.7093 23.611 255 255 255
-11.133 -2.6708 23.296 254 217 177
-10.158 -3.681 22.622 91 87 93
-0.14207 -3.6147 20.755 72 58 64
-2.3259 1.8343 13.528 233 205 183
-5.4395 -3.2735 21.546 255 255 255
-2.4713 1.384 8.2285 10 0 0
-4.9731 -3.4661 21.431 96 79 67
-0.6821 -1.8594 20.197 44 30 23
-12.043 -2.4879 23.817 162 136 108
-10.495 -1.8782 22.282 254 227 173
-4.7669 1.1674 -1.7131 255 255 255
-11.878 -2.3262 24.374 169 142 116
-10.456 0.34961 21.465 80 71 58
-5.3418 1.2845 20.435 29 15 10
-5.3407 1.2845 20.428 29 15 10
-10.452 1.9295 21.241 23 11 10
-10.351 2.0262 21.164 83 64 46
-10.44 2.5769 20.983 10 7 0
-0.11702 1.3215 19.592 27 15 11
-1.7788 2.2939 10.695 12 2 0
-10.201 -0.34016 20.91 26 20 12
-1.8032 1.9612 13.116 41 18 10
-2.0821 2.2908 14.994 212 191 196
-3.8648 1.7045 11.259 32 29 15
-6.0472 2.002 11.296 137 113 98
-10.537 -2.0061 22.185 254 227 170
-10.661 0.099866 21.752 25 25 25
-10.69 0.10107 21.835 26 23 25
-1.9047 2.1485 10.577 10 8 4
0.035188 -3.5627 20.852 74 61 51
0.0060073 -3.5411 20.751 74 60 52
-1.3308 2.0839 13.529 199 186 194
-6.033 2.0476 11.259 132 110 90
-6.033 2.0476 11.259 132 110 90
-9.3895 -3.006 20.922 86 70 58
-9.3895 -3.006 20.922 86 70 58
-0.75331 1.8897 13.199 226 150 148
-2.4924 1.9781 10.881 15 20 10
-0.31121 -2.0128 21.365 26 20 12
-12.077 -2.5182 24.626 255 239 188
-12.044 -2.4431 24.349 178 146 110
-0.089399 -3.2354 21.727 53 41 37
-1.8165 2.3428 10.685 178 146 127
-2.3773 2.1082 10.322 36 20 11
-10.859 -1.8468 22.349 151 123 98
-1.2991 1.8812 12.49 10 0 0
-1.2991 1.8812 12.49 10 0 0
-7.5395 3.0207 17.301 246 229 208
-4.0723 -0.14459 3.8966 11 13 7
-3.8524 -0.29836 3.4263 103 71 60
-3.5363 0.46924 6.4555 198 187 199
-10.556 1.9948 21.293 82 66 51
-5.3828 2.646 20.219 30 21 12
-2.6284 2.0648 14.538 221 22 18
-10.655 -0.44908 22.029 29 15 10
-12.116 -3.1304 25.701 255 255 255
-4.7385 3.0408 18.99 14 23 0
-0.14292 -3.6094 20.748 64 54 62
-12.26 -2.7861 23.227 255 237 188
-10.569 -0.10149 21.865 13 15 15
-10.377 1.1868 21.577 84 68 51
-2.2262 1.8829 13.742 226 207 195
-9.872 -3.2635 22.32 89 72 60
-9.8789 -3.2722 22.342 89 72 60
-12.489 -3.3027 26.856 255 255 255
-0.066918 -3.698 20.667 84 73 72
-14.14 -3.2903 29.621 255 234 184
-0.0055277 -3.7432 20.548 255 255 255
-4.774 -0.56223 7.0621 255 255 255
-12.452 -2.7582 23.444 165 139 110
-10.438 -2.2389 22.331 255 255 255
-10.316 1.8873 20.816 17 8 0
-10.407 2.0404 21.334 83 67 48
-10.568 -1.8491 22.487 254 229 178
-0.14028 1.3117 19.521 25 17 10
-2.2943 1.9947 13.66 199 190 196
-10.532 -0.10464 21.719 21 18 19
-2.857 1.8093 13.349 216 33 21
-5.7278 1.5912 10.065 13 18 8
-5.4922 1.531 9.818 10 17 7
-6.4659 1.6465 10.312 20 10 1
-6.9592 1.7332 10.479 158 131 110
-6.3154 1.6557 10.232 134 107 87
-5.6215 1.6352 9.9843 162 137 120
-12.457 0.15965 22.1 114 118 123
-12.457 0.15965 22.1 114 118 123
-12.176 -2.6774 22.784 177 143 108
-4.7335 2.9658 18.613 18 29 1
-0.14745 -3.591 20.723 64 55 60
-12.116 -2.4385 24.385 172 145 117
-6.8234 1.7507 10.526 45 28 17
-5.695 1.8043 10.154 106 79 66
-5.4605 -3.2737 21.501 255 255 255
-5.4606 -3.2752 21.502 255 255 255
-10.769 0.074034 22.058 31 28 29
-10.769 0.074034 22.058 31 28 29
-6.1663 1.6804 10.279 33 23 17
-3.6781 1.6983 9.5725 140 112 99
-5.6326 1.6714 10.114 162 137 120
-9.9007 -3.2751 22.494 91 71 60
-11.804 0.21869 20.45 17 14 17
-10.914 2.2787 17.687 26 17 10
-12.32 -3.3679 22.296 101 73 45
-12.333 -3.3745 22.328 101 73 45
-7.3498 1.526 10.173 18 13 2
-7.0833 1.6771 10.572 30 19 9
-5.7687 1.6719 10.011 10 10 3
-5.1897 -0.27766 6.0067 255 255 255
-5.1897 -0.27766 6.0067 255 255 255
-6.0854 1.5297 9.9387 23 22 12
-4.2931 1.5852 9.9346 48 0 0
-0.22727 -3.6264 20.446 255 255 255
-12.181 -3.2775 22.097 255 236 191
-12.428 -2.7267 22.117 151 127 105
-12.428 -2.7267 22.117 151 127 105
-12.895 0.099941 23.136 48 42 31
-12.493 0.16788 22.153 114 119 115
-12.493 0.16788 22.153 114 119 115
-12.166 -3.3733 22.171 252 237 237
-12.398 -2.8991 22.114 255 239 188
-12.328 -2.9023 22.39 254 226 172
-12.467 -2.9703 22.787 254 226 173
-12.404 -2.2022 22.089 52 37 26
-5.7569 2.779 18.04 10 8 6
-5.7569 2.779 18.04 10 8 6
-7.147 1.7665 10.43 10 0 0
-5.4985 1.6272 10.145 10 14 9
-3.8957 1.4694 9.9586 15 18 4
-6.5195 -1.1465 19.107 78 58 43
-0.2472 -3.5718 20.487 67 58 64
-12.692 -2.276 22.147 50 38 26
-13.012 -0.36309 22.267 40 27 17
-12.35 -3.3009 21.818 107 88 74
-7.0579 1.7867 10.358 28 14 11
-2.7558 1.8647 13.711 217 30 22
-5.1089 1.689 10.001 12 1 0
-0.23873 -3.4604 21.423 255 255 255
-12.58 -3.264 22.161 105 86 70
-6.5987 1.6698 10.321 25 10 4
-0.16431 -3.6344 20.395 77 68 71
-12.498 -2.9402 22.384 254 231 189
-13.417 1.3178 22.678 9 4 0
-0.10271 2.8526 19.435 33 19 14
-12.239 -2.9162 22.443 254 229 179
-10.823 -2.5478 21.405 255 255 255
0 0 0 1 0 0 0 1 0 0 0 1 0 0 0 0 0 298 1 0 0
