ply
format ascii 1.0
comment PCL generated
element vertex 493
property float x
property float y
property float z
property uchar red
property uchar green
property uchar blue
element camera 1
property float view_px
property float view_py
property float view_pz
property float x_axisx
property float x_axisy
property float x_axisz
property float y_axisx
property float y_axisy
property float y_axisz
property float z_axisx
property float z_axisy
property float z_axisz
property float focal
property float scalex
property float scaley
property float centerx
property float centery
property int viewportx
property int viewporty
property float k1
property float k2
end_header
4.4882 -2.2142 13.771 64 29 1
-10.744 -9.202 32.525 42 0 0
4.489 -3.6161 13.548 111 72 2
-6.8887 -9.0953 34.85 66 22 1
-7.6395 -9.7307 44.115 219 165 83
-1.3126 -11.605 57.237 179 75 4
-1.3627 0.17586 1.2455 65 26 1
5.204 -2.6069 19.765 219 198 99
-1.0296 0.2608 1.788 255 253 152
3.4278 0.5825 14.607 255 235 135
5.6071 -0.54707 21.342 255 253 152
-4.7359 -3.514 47.348 202 162 67
-4.6134 -3.4744 48.417 151 114 20
5.2368 -0.50918 20.152 255 253 152
-7.7196 2.2407 -25.886 124 132 53
-1.0041 -0.88667 41.356 112 92 52
-2.1237 -0.59618 41.323 78 53 9
-2.708 0.35915 -5.3856 255 253 152
-2.1261 1.5353 36.695 43 25 0
-1.4893 0.14225 1.5506 87 42 3
5.0202 4.5266 20.103 59 32 1
5.234 4.5389 20.775 60 34 1
5.3244 7.245 34.696 142 125 57
5.287 4.5807 20.952 60 34 1
-0.053625 8.1228 26.435 37 20 0
4.6481 -4.5309 13.886 67 33 1
-11.728 -8.7947 28.843 243 167 58
-11.597 -8.9209 29.253 242 165 54
-10.986 -8.3932 27.568 242 165 54
-12.241 -8.4013 28.128 146 84 3
2.9427 -8.5375 29.895 14 0 0
5.817 -8.0503 29.522 120 124 69
4.6327 -3.5978 13.954 102 71 2
-7.6695 -9.1779 38.255 79 61 1
3.3404 -8.9565 37.663 147 124 72
7.3374 -8.8813 40.088 153 127 79
-5.2576 -11.194 51.794 196 148 39
-3.2294 -9.8076 45.467 192 147 39
-3.2294 -9.8076 45.467 192 147 39
-1.3557 0.13921 1.2662 52 20 0
5.1692 -2.9073 18.955 146 107 21
5.0325 -2.8343 18.537 146 107 21
4.6336 -1.8882 14.188 66 33 1
5.1181 -2.5776 19.491 219 198 99
5.0506 -2.5709 19.001 91 60 2
2.6477 -7.2641 55.042 91 59 2
4.9838 -2.5445 18.792 91 60 2
4.6746 -1.2705 14.189 128 96 23
-6.7544 -3.7932 40.73 225 199 123
-6.7544 -3.7932 40.73 225 199 123
4.7595 -0.72647 18.459 186 161 58
0.014868 -3.1375 45.374 44 29 0
4.5082 -0.76016 14.211 142 103 16
0.1432 -2.5398 48.549 38 26 0
-2.6321 0.35442 -7.1767 186 161 58
-2.6321 0.35442 -7.1767 186 161 58
5.2692 -0.51027 20.256 255 253 152
4.7034 -0.79366 14.716 142 103 16
4.6641 -0.10214 18.271 186 161 58
-2.6473 0.35682 -7.2464 186 161 58
5.9224 -0.62901 22.271 186 161 58
2.9286 -1.3495 42.288 66 68 1
-8.0796 -1.1207 38.457 122 94 16
6.3693 -0.52524 23.826 186 161 58
-2.6495 0.39217 -7.2571 186 161 58
-2.6556 0.35421 -7.2847 186 161 58
-3.937 -0.86473 57.295 200 145 45
-10.972 -0.14839 34.754 74 55 1
4.0374 -0.37335 16.296 255 253 152
5.1086 -0.49273 19.74 255 253 152
-11.035 0.78655 35.132 62 51 8
-2.687 0.083234 -7.4329 186 161 58
4.6685 -0.30193 14.495 55 25 1
-1.6482 0.13138 -3.8836 124 132 53
-5.9469 1.5859 40.152 91 70 21
-3.263 0.45901 6.1253 130 86 3
-2.5451 1.6106 35.435 143 126 49
-1.9798 1.6465 36.004 154 137 61
5.4663 1.0577 20.616 255 253 152
5.1715 1.0331 19.92 55 25 1
-1.62 -0.0229 -3.7076 124 132 53
7.113 1.2678 25.588 55 25 1
4.5638 -0.15646 14.247 55 25 1
-11.884 5.7568 45.994 34 14 0
-10.212 5.5385 41.51 158 133 73
-10.212 5.5385 41.51 158 133 73
-10.506 5.6426 41.51 174 135 69
-10.482 7.7202 40.569 70 57 23
-11.37 8.2315 36.582 96 60 2
-7.8082 7.6803 29.509 142 106 29
-7.7042 7.5728 29.061 142 106 29
3.3476 3.8713 14.108 91 60 2
-1.0386 1.6165 4.5682 37 20 0
5.0023 8.2117 27.97 60 38 1
-0.86924 -1.3372 -5.6633 37 20 0
-0.78045 -0.083323 -1.3647 48 28 0
5.4535 -5.9071 19.434 254 225 106
-6.952 -10.591 35.264 52 14 0
5.3383 -5.5119 19.059 254 225 106
-6.9308 -9.001 30.534 254 218 135
5.2154 -5.4049 18.692 254 225 106
-12.038 -8.5957 31.979 206 153 49
-10.508 -9.3371 35.755 51 0 0
-10.508 -9.3371 35.755 51 0 0
-10.064 -10.104 39.456 244 196 104
-9.8494 -9.0826 36.245 44 0 0
-9.8342 -10.351 48.042 255 255 120
-1.3885 0.12173 1.5509 58 15 1
-4.9336 -9.0236 48.545 109 57 2
5.2033 -2.6457 19.479 91 60 2
5.1229 -2.6128 19.227 91 60 2
4.645 -1.7538 14.237 63 33 1
-3.2471 -7.2236 55.505 77 56 1
2.8763 -6.1275 51.528 145 106 20
4.5719 -1.4657 14.076 51 22 0
0.1148 -4.7943 45.032 115 74 2
2.4873 -4.3989 47.372 38 15 0
2.9465 -4.3744 47.078 17 7 0
4.5748 -1.0685 14.141 67 37 1
-7.6569 -2.2886 30.06 216 181 90
-7.7039 -2.099 28.675 149 110 34
4.635 -0.95651 14.319 59 28 1
-4.3092 -3.4923 47.778 197 174 69
4.6467 -0.75274 13.296 64 29 1
4.586 -0.80816 14.203 57 26 1
4.5162 -0.67077 12.659 68 34 1
4.3927 -0.59471 12.041 66 34 1
4.5668 -0.67518 14.172 56 29 1
2.6996 -1.4832 41.757 203 201 124
2.2946 -1.2905 40.515 18 10 0
2.5806 -1.1661 41.367 175 175 91
-0.16964 -1.1064 43.763 30 20 0
-3.1593 -1.4479 56.299 160 121 37
-0.79601 -1.0412 45.37 97 79 37
-9.2011 -1.318 59.57 255 255 255
4.6581 -0.16841 14.5 55 29 1
-9.9057 -0.97375 50.03 80 39 1
-9.8963 -0.98179 53.745 68 36 1
-10.892 0.43251 34.594 90 69 2
-0.94766 0.52722 43.337 34 31 0
-7.0698 -0.1658 -18.486 69 39 1
4.603 0.49355 14.431 69 39 1
-11.194 2.7515 44.527 33 9 0
-12.592 2.4472 29.468 45 0 0
-12.506 2.4373 29.248 45 0 0
-11.843 3.7817 35.844 49 18 0
-1.6161 -0.14022 -3.7044 124 132 53
-12.011 8.4713 37.61 111 68 9
5.213 8.609 33.711 206 174 70
-8.4169 8.3659 32.23 142 106 29
-8.4169 8.3659 32.23 142 106 29
-2.007 8.5299 29.705 37 23 0
-6.9137 8.4084 28.653 77 55 14
5.0005 7.8922 26.662 58 42 1
-2.8728 9.5526 32.02 27 14 0
-6.1905 -12.394 41.784 88 74 42
4.9764 -5.9599 20.674 255 255 223
-9.8419 -10.114 39.919 32 0 0
-10.329 -7.2835 29.894 16 6 0
3.2718 -9.1636 37.545 23 8 0
-6.4901 -10.602 49.498 255 245 123
-0.7226 0.88966 -4.5982 65 26 1
6.9631 -7.2781 38.155 110 81 21
-5.2731 -9.8375 52.95 109 57 2
-3.5759 -9.8385 54.883 254 210 89
7.2146 -5.1628 39.459 88 74 4
3.1845 -6.4725 51.875 105 95 23
8.6345 -9.6288 77.806 59 56 20
-4.781 -5.2526 47.266 74 49 10
0.096329 -4.6859 46.965 192 161 53
4.7692 -0.041792 14.786 55 28 1
-4.647 0.26626 -11.443 55 28 1
-9.7219 -0.96409 52.659 68 36 1
2.6999 -0.54082 42.474 61 57 9
4.5953 0.093379 14.356 54 28 1
-31.605 1.9329 -86.611 54 28 1
7.2369 0.25302 40.378 74 50 1
4.6262 0.23348 14.455 55 29 1
4.6262 0.23348 14.455 55 29 1
6.2727 1.8992 65.215 84 51 1
8.973 2.3524 75.869 124 90 26
9.6445 2.7196 66.674 159 116 37
5.5369 4.7875 60.014 108 66 9
5.1662 2.9821 19.724 217 195 99
0.73083 8.3058 44.547 86 58 9
5.263 7.1047 33.37 10 10 0
-10.972 8.2603 36.084 15 7 0
-12.184 8.4994 36.905 41 19 1
-4.4305 6.154 25.179 18 10 0
5.8093 8.059 33.438 7 0 0
2.9722 8.7075 32.311 93 66 11
-10.766 -6.7853 23.711 149 98 12
-8.6379 -7.4506 29.549 255 254 255
-6.4011 -9.7975 41.465 191 135 32
-6.9711 -10.037 44.513 187 150 44
-9.8766 -9.8901 45.854 87 51 1
0.25083 -10.886 51.909 255 255 137
-0.90392 -11.047 55.019 166 60 4
0.65921 -10.875 54.131 168 37 4
0.68839 -11.088 55.186 168 37 4
4.6737 -9.6286 47.903 71 36 1
-9.6711 -8.5681 44.289 148 106 13
-9.055 -11.051 59.616 81 45 1
-4.8408 -8.517 55.369 168 118 24
9.6105 -9.3947 74.045 83 72 30
10.169 -9.8944 78.024 83 72 30
5.9746 -3.4715 28.063 188 171 93
2.3451 -6.2902 54.844 172 127 26
2.9163 -5.7919 53.214 34 0 0
-4.881 -1.0261 59.815 224 156 35
-4.881 -1.0261 59.815 224 156 35
-1.1765 0.95712 41.894 44 33 0
-12.683 1.0136 33.619 86 51 1
-12.694 1.322 31.226 114 71 2
-10.632 2.2221 47.908 16 6 0
-3.8176 3.6571 23.065 29 30 0
6.1214 6.4125 34.316 22 18 0
5.1923 3.675 18.623 38 23 0
-6.3367 7.8219 29.937 158 111 17
-6.3367 7.8219 29.937 158 111 17
-2.1472 8.5608 32.827 47 28 0
-0.87908 -0.21441 -3.0995 80 53 3
4.6863 4.5858 15.69 148 119 43
4.8872 7.7587 26.891 255 255 217
4.8793 7.749 26.85 255 255 217
-10.288 -9.3628 43.316 25 11 0
-10.288 -9.3628 43.316 25 11 0
-4.144 -10.957 50.786 255 255 255
-8.8192 -11.13 55.287 120 75 9
0.76885 -9.7724 55.421 255 239 116
0.18269 -8.9562 53.383 36 44 12
1.4296 -8.1787 48.901 11 10 0
-5.6081 -8.7174 59.979 108 46 2
2.5318 -6.8092 53.886 121 92 6
-3.5853 -6.7502 57.03 164 115 24
6.2654 -3.1553 31.192 255 251 161
7.465 -1.4904 49.287 227 203 96
-8.1022 -1.2659 67.152 255 255 251
-8.1022 -1.2659 67.152 255 255 251
-11.121 0.99523 35.872 51 50 3
-11.121 0.99523 35.872 51 50 3
-10.824 3.5577 46.79 119 82 16
-11.417 3.177 35.665 112 70 5
-10.981 4.6676 47.663 95 57 5
-13.607 5.1262 34.484 10 2 0
4.5823 2.9336 14.7 89 65 9
6.1509 6.7158 32.834 11 12 0
-1.5396 7.4683 31.876 23 10 0
-6.0033 7.3359 29.604 181 136 34
5.5399 7.4862 28.08 15 10 0
-7.4549 8.805 32.707 7 0 0
-3.1349 9.9193 32.203 13 6 0
-6.6065 -9.9581 36.57 254 223 104
5.986 -7.4026 29.735 103 104 50
-4.626 -10.062 48.827 167 117 21
-1.4707 -8.7875 53.179 18 33 0
9.5558 -8.864 77.866 164 132 53
-5.3925 -4.5201 48.42 25 22 0
-6.0802 -3.798 47.69 188 153 28
-6.0802 -3.798 47.69 188 153 28
-2.8443 -1.5573 48.687 156 119 24
-2.3975 -0.17188 47.262 64 40 1
-5.4841 0.8637 51.068 80 44 1
-0.0060348 7.3148 39.199 161 118 34
-6.7906 7.5927 32.691 23 10 0
4.6734 8.1907 27.522 34 20 0
4.9529 8.5977 28.934 34 20 0
-10.971 -8.498 31.872 48 36 7
0.72012 -9.8427 53.782 249 199 82
6.478 -4.9182 30.628 227 205 130
-1.5613 -5.9982 50.489 228 182 66
5.2364 -2.1875 19.129 131 91 10
-5.4386 -5.4532 48.116 123 104 34
8.6099 1.823 57.428 138 83 11
-6.1946 1.9962 40.157 26 21 0
-11.312 4.7408 43.082 101 64 4
0.055422 4.252 38.095 159 116 30
1.16 6.7245 45.491 117 83 26
5.3947 3.565 20.508 39 21 0
-0.76054 7.906 41.733 32 17 0
5.2391 8.187 35.781 156 129 46
5.4739 5.7895 22.734 150 119 33
-7.5383 9.034 32.988 13 6 0
-2.0343 8.1974 29.738 20 12 0
3.5445 -7.7288 34.356 189 161 74
-6.0295 -9.7969 53.242 207 146 28
-10.987 -7.2264 41.912 168 116 21
5.7277 -3.8406 24.453 130 103 18
-5.6993 -7.3007 49.25 254 218 130
-7.1955 -6.3413 52.718 60 42 5
4.3442 -4.2594 45.162 115 130 53
-1.2846 -4.4432 48.138 39 38 3
-0.69987 3.9668 42.796 47 18 0
-11.728 4.0269 37.674 19 13 0
-13.008 4.8913 35.066 15 6 0
-0.76902 5.5062 38.118 49 19 0
-4.2257 -9.064 50.352 113 73 8
2.9635 -9.9923 56.435 254 219 142
2.8952 -9.8148 55.498 254 219 142
-8.3551 -7.2907 49.699 189 130 21
7.5914 -4.936 50.498 52 50 1
-2.7081 -3.1599 47.347 193 167 66
-8.0915 -2.6671 57.489 133 91 10
8.1034 0.78406 70.042 140 99 29
3.6331 7.4894 57.242 228 175 69
-2.6765 7.1409 27.464 215 178 60
-8.8549 -10.58 48.824 255 255 164
8.1053 -10.043 51.644 82 39 1
8.1402 -15.29 79.165 159 110 24
-7.758 -9.698 54.216 36 10 0
-7.758 -9.698 54.216 36 10 0
-11.617 -7.1677 61.052 91 57 8
3.3704 1.4848 46.28 195 156 53
-11.569 -7.915 41.836 150 98 14
-10.276 -7.0678 44.618 255 255 208
-4.054 -5.7469 52.83 30 21 0
-2.6356 2.3493 34.687 57 40 1
4.8046 -2.3492 45.466 242 223 110
1.3 -2.1274 43.624 33 23 1
-3.372 -1.4127 56.469 172 135 45
-11.144 -0.3615 41.022 158 140 94
-13.568 -3.7417 42.756 44 25 0
2.2431 6.6173 35.561 156 121 38
-11.11 -7.9544 24.516 254 185 87
7.0847 0.90446 36.711 47 16 0
-1.8367 0.028222 0.57724 52 22 0
-12.851 4.3557 36.4 57 27 1
-1.9547 9.085 30.938 255 255 196
1.0892 -9.8349 45.848 221 180 72
0.31196 -8.7144 51.077 22 10 0
-0.24822 -4.3662 46.087 66 62 1
5.4687 -0.043586 20.219 255 236 141
-11.152 0.41464 35.54 82 68 1
-21.587 0.79659 77.876 73 54 5
6.7219 0.84019 34.545 225 198 104
7.1137 5.9007 41.39 120 85 11
-3.9525 7.9581 29.095 11 2 0
5.9822 7.8974 27.234 123 98 21
4.5719 5.8723 19.306 140 112 31
-0.30692 9.1882 29.663 91 61 8
-7.7057 -7.6195 26.263 224 178 96
-11.139 -7.6093 29.268 182 130 41
4.2252 -3.0711 13.275 160 120 22
6.6848 -4.4897 37.097 255 254 158
3.0359 -6.4127 54.087 153 114 31
2.9147 -2.8712 43.011 27 20 0
-8.2983 -1.7207 26.534 39 25 0
2.7124 -1.802 40.884 206 199 119
11.168 -1.877 82.588 130 91 3
-8.6762 -0.81455 42.664 87 51 1
-0.29885 -0.71396 44.139 32 25 0
-10.008 -0.93772 58.546 254 221 96
-0.75849 0.1036 41.905 46 44 1
6.4308 1.7624 30.84 41 18 0
5.3103 6.7687 33.928 33 25 0
4.973 4.3046 17.873 134 118 35
-12.65 9.3025 40.31 33 24 0
6.3323 8.0509 32.577 114 91 20
4.6097 4.6259 14.701 96 80 25
-1.9669 9.6903 32.248 50 35 7
-5.8866 -10.173 33.052 117 103 56
-5.8866 -10.173 33.052 117 103 56
-9.4783 -8.4 27.501 254 214 81
-10.096 -9.2102 34.345 254 228 113
1.9184 -10.63 53.213 158 49 3
5.7873 -4.9334 27.348 69 43 1
-1.6747 -7.7372 54.829 72 58 9
2.4316 -7.296 58.735 131 96 4
-0.52325 -4.7287 47.752 203 184 94
1.5862 1.0083 37.002 59 57 12
10.973 2.2469 74.918 71 39 2
6.203 1.6856 29.099 216 198 114
5.8775 2.5309 25.593 30 10 0
-12.277 3.8804 39.033 10 3 0
5.8624 3.1541 25.047 159 143 56
-2.412 3.2255 23.638 10 12 0
7.525 5.8279 42.471 255 241 149
-1.9903 4.0474 24.324 13 15 0
-7.5731 7.5464 32.083 60 32 1
5.479 6.1589 23.777 19 11 0
-3.2847 6.9196 26.49 16 7 0
3.0308 8.8125 32.695 93 67 14
-4.9964 8.4324 31.474 2 0 0
-2.5299 8.9765 32.494 20 10 0
4.5529 7.6091 27.126 255 243 167
-3.7638 8.6039 29.055 71 62 29
4.8589 6.1252 17.415 137 109 29
0.26153 9.3156 27.028 19 1 0
-11.991 -8.5803 28.507 188 125 13
5.1485 -6.203 24.298 160 147 66
4.2372 -3.7546 14.712 116 101 30
4.4182 -7.768 34.519 137 107 34
-9.9639 -9.0642 43.372 163 117 24
-3.9026 -9.2009 50.057 84 48 1
-1.0444 -8.6658 57.813 191 255 226
-4.9187 -7.261 49.849 123 39 4
5.731 -3.0344 26.894 255 255 178
-2.9056 -5.9217 53.376 28 0 0
6.8606 -3.9472 37.281 245 228 120
11.383 -8.6128 80.542 149 137 53
5.1021 -1.7574 18.91 224 212 116
-8.9053 -0.64189 40.654 87 58 1
10.639 1.4702 72.62 169 132 52
-11.106 3.6632 48.33 111 72 13
5.5987 2.7969 23.646 37 15 0
-2.648 3.2395 24.37 64 68 18
-2.648 3.2395 24.37 64 68 18
0.41896 8.3782 41.883 47 31 0
0.41896 8.3782 41.883 47 31 0
5.2728 7.6575 33.302 0 0 0
6.0919 7.5032 29.832 255 245 154
5.5192 6.5615 24.039 14 10 0
4.5656 4.7341 15.348 137 108 33
-5.9777 -9.8096 39.812 33 2 0
0.89645 -10.378 49.393 255 255 147
-6.4753 -9.8285 48.308 133 84 13
5.3211 -3.1934 25.615 201 188 99
5.3211 -3.1934 25.615 201 188 99
2.718 -7.1712 56.788 125 99 14
9.6443 -7.9015 63.762 177 142 57
-6.8558 -2.9791 36.732 62 52 10
-8.4589 -1.4969 41.916 119 77 4
4.8525 3.1226 52.405 125 86 26
-11.521 2.9135 47.357 16 7 0
-11.428 4.892 50.102 79 43 1
6.0107 3.4913 28.849 97 83 14
0.78918 7.5904 41.948 93 62 11
-2.87 6.2862 26.134 15 11 0
4.5846 3.7297 14.442 144 120 48
4.7478 4.4747 17.247 64 54 12
4.6918 4.0645 14.668 13 3 0
-1.7798 9.5311 31.231 30 17 0
-2.9525 9.1802 29.75 9 1 0
-11.059 -7.8745 26.813 23 1 0
-5.6554 -0.86492 52.442 79 35 1
-5.6554 -0.86492 52.442 79 35 1
-8.8844 0.1877 31.298 149 92 6
-8.8844 0.1877 31.298 149 92 6
5.2372 4.0087 19.341 152 134 48
2.7863 8.8794 32.26 92 66 15
2.7863 8.8794 32.26 92 66 15
-6.1406 -8.7969 28.471 26 25 0
-10.154 -9.5136 47.635 118 80 7
-4.5663 -3.6608 51.301 198 167 63
2.635 -2.7135 42.565 114 103 57
-6.6845 -0.072815 46.048 55 43 1
6.7614 0.44591 35.406 216 192 95
-6.0066 1.5097 47.672 111 85 21
-2.9735 1.5398 41.635 99 72 2
0.47913 1.3836 35.903 116 98 24
0.47913 1.3836 35.903 116 98 24
6.0937 4.5416 33.104 104 86 18
5.7259 6.6664 24.959 36 26 1
-4.3679 -10.251 33.368 104 87 36
-11.049 -8.5851 37.451 148 92 12
5.1344 -4.2177 22.097 55 36 1
-4.3701 -9.3887 52.185 111 68 9
5.6134 -5.0974 29.968 48 29 0
7.7933 -6.6785 48.52 130 89 9
9.1302 -0.0095019 58.511 159 90 6
1.5883 0.69211 39.337 74 71 31
8.8465 1.9217 58.638 142 79 9
5.2236 3.7557 21.415 164 136 40
5.2236 3.7557 21.415 164 136 40
5.1086 4.7253 21.316 138 107 20
-6.877 8.0667 31.995 171 123 21
-1.936 9.7914 30.841 14 8 0
6.96 -4.5888 40.01 255 255 157
7.3938 -4.8491 49.447 66 72 12
-3.6394 -0.47327 56.622 255 255 236
-10.472 4.1577 37.427 98 66 4
-9.2963 -7.8952 31.978 204 147 45
-9.2963 -7.8952 31.978 204 147 45
4.8656 -3.5782 21.722 119 91 12
4.8656 -3.5782 21.722 119 91 12
-8.2241 3.7539 49.384 102 59 2
4.658 3.9789 16.269 140 103 16
5.1407 4.855 19.552 29 19 0
5.1407 4.855 19.552 29 19 0
0.77093 8.5698 30.113 85 59 11
0.77093 8.5698 30.113 85 59 11
0.32663 9.1169 28.201 236 202 81
0.32663 9.1169 28.201 236 202 81
-5.2649 -10.342 37.851 40 40 9
-12.427 -6.6134 26.666 107 66 10
6.0738 7.701 35.087 23 23 6
1.8785 10.816 46.686 159 125 43
1.8891 8.7213 30.175 91 68 16
-3.6147 8.448 28.13 23 15 0
-10.441 6.4187 35.947 2 0 0
-13.223 -3.5878 41.481 42 23 0
-1.179 -8.7406 40.314 255 255 163
4.3613 -1.0377 20.748 255 240 125
0 0 0 1 0 0 0 1 0 0 0 1 0 0 0 0 0 493 1 0 0
