ply
format ascii 1.0
comment PCL generated
element vertex 334
property float x
property float y
property float z
property uchar red
property uchar green
property uchar blue
element camera 1
property float view_px
property float view_py
property float view_pz
property float x_axisx
property float x_axisy
property float x_axisz
property float y_axisx
property float y_axisy
property float y_axisz
property float z_axisx
property float z_axisy
property float z_axisz
property float focal
property float scalex
property float scaley
property float centerx
property float centery
property int viewportx
property int viewporty
property float k1
property float k2
end_header
11.826 -7.2903 30.757 64 29 1
-15.146 -14.306 50.607 42 0 0
5.298 -3.8297 14.159 111 72 2
-8.5596 -13.112 50.248 66 22 1
-8.8621 -12.95 58.778 219 165 83
-0.37307 -13.211 65.378 179 75 4
5.3659 3.3841 -15.806 65 26 1
6.5069 -3.0406 21.968 219 198 99
-0.24757 -0.038558 1.2721 255 253 152
-0.26839 -0.042975 1.2025 255 235 135
10.178 -1.7814 34.155 255 253 152
-4.8042 -4.492 60.214 202 162 67
-4.6121 -4.4086 61.157 151 114 20
7.3499 -0.87522 25.019 255 253 152
-1.5811 0.40039 -5.4477 124 132 53
-1.5877 0.38498 -5.4836 124 132 53
-0.1435 -1.1777 52.685 112 92 52
-0.38422 0.18619 -1.6166 52 20 0
-1.5838 -0.82842 53.59 78 53 9
-15.118 -0.34418 64.103 185 108 18
5.1581 -0.15951 17.926 255 253 152
-1.7787 2.113 52.947 43 25 0
-1.5206 0.10924 3.8877 87 42 3
20.455 13.793 69.752 59 32 1
8.7953 6.437 30.661 60 34 1
8.1862 9.5588 46.292 142 125 57
8.051 6.0007 28.165 60 34 1
-0.20836 -0.2066 -2.1981 127 99 16
-0.29356 -3.9891 -14.599 37 20 0
10.664 -6.8637 27.78 67 33 1
-17.075 -14.014 46.033 243 167 58
-17.319 -14.598 47.939 242 165 54
-17.319 -14.598 47.939 242 165 54
-18.683 -14.003 46.923 146 84 3
4.3214 -9.9319 34.764 14 0 0
6.9287 -8.531 31.257 120 124 69
5.3257 -3.7256 14.259 102 71 2
-9.4584 -12.958 54.024 79 61 1
4.5431 -9.8057 41.202 147 124 72
8.1427 -8.8732 40.169 153 127 79
-5.1323 -13.424 62.28 196 148 39
-2.7993 -11.963 55.55 192 147 39
-2.7993 -11.963 55.55 192 147 39
5.576 3.1488 -16.423 52 20 0
6.3251 -3.2215 20.639 146 107 21
6.135 -3.0639 20.062 146 107 21
5.4991 -2.0582 14.944 66 33 1
6.3717 -2.9071 21.535 219 198 99
6.1877 -2.7947 20.657 91 60 2
3.7064 -7.5193 57.175 91 59 2
6.039 -2.662 20.191 91 60 2
5.6535 -1.442 15.235 128 96 23
-7.9866 -5.2708 56.113 225 199 123
-7.9866 -5.2708 56.113 225 199 123
-2.7424 0.48569 -9.1145 186 161 58
1.0921 -3.7658 54.223 44 29 0
5.674 -0.93165 15.785 142 103 16
1.2432 -2.9964 57.08 38 26 0
-2.8816 0.41427 -9.6642 186 161 58
-2.8816 0.41427 -9.6642 186 161 58
7.7287 -1.0182 26.254 255 253 152
5.1789 -0.72166 14.49 142 103 16
-2.9687 0.36558 -10.006 186 161 58
-3.0211 0.33584 -10.212 186 161 58
-3.0211 0.33584 -10.212 186 161 58
4.4168 -1.589 49.38 66 68 1
-10.873 -1.7909 58.865 122 94 16
-3.0672 0.30651 -10.391 186 161 58
-3.0672 0.30651 -10.391 186 161 58
-3.1165 0.27725 -10.585 186 161 58
-3.5194 -1.0394 68.502 200 145 45
-16.082 -0.38257 56.077 74 55 1
5.4913 -0.29032 19.017 255 253 152
5.29 -0.2196 18.363 255 253 152
4.8739 -0.090406 17.018 255 253 152
-3.4383 0.071942 -11.84 186 161 58
1.5563 0.024712 5.3442 55 25 1
-1.618 0.24801 -5.6311 124 132 53
-0.48384 0.13695 -1.5748 58 15 1
-0.48384 0.13695 -1.5748 58 15 1
-7.0949 2.1469 56.928 91 70 21
-5.271 0.65174 13.652 130 86 3
-2.3243 2.1481 49.569 143 126 49
-1.5529 2.2311 51.052 154 137 61
5.3671 0.1759 18.38 255 253 152
1.4599 0.091557 5.0724 55 25 1
-1.5716 0.10718 -5.3128 124 132 53
1.2673 0.21844 4.5237 55 25 1
1.2673 0.21844 4.5237 55 25 1
1.2445 0.23147 4.459 55 25 1
-0.48505 0.069494 -1.5272 58 15 1
-16.308 8.4975 69.107 34 14 0
-14.736 8.6888 66.46 158 133 73
-14.736 8.6888 66.46 158 133 73
-15.52 9.0443 67.844 174 135 69
-15.571 12.464 66.669 70 57 23
-17.62 13.733 62.199 96 60 2
-11.774 12.877 50.599 142 106 29
-11.774 12.877 50.599 142 106 29
1.9623 0.45489 7.2066 91 60 2
-3.3576 14.389 53.513 37 20 0
8.2805 11.6 40.09 60 38 1
-0.40106 -3.236 -11.946 37 20 0
-0.27146 -0.2357 -1.9897 48 28 0
6.0503 -5.6904 19.341 254 225 106
-8.1029 -14.253 47.575 52 14 0
6.0741 -5.6501 19.418 254 225 106
-9.0763 -13.646 46.299 254 218 135
6.0836 -5.5872 19.455 254 225 106
-16.615 -12.963 48.251 206 153 49
-13.733 -13.477 51.653 51 0 0
-13.733 -13.477 51.653 51 0 0
-12.325 -13.711 53.646 244 196 104
-13.296 -13.65 54.475 44 0 0
-10.771 -12.605 58.639 255 255 120
-16.98 -9.4534 49.967 58 15 1
-4.885 -11.102 59.823 109 57 2
6.5284 -3.0818 21.722 91 60 2
6.3425 -2.9302 21.142 91 60 2
5.5221 -1.9184 15.022 63 33 1
-2.7305 -8.7276 67.212 77 56 1
4.0901 -6.608 55.734 145 106 20
5.5739 -1.6567 15.195 51 22 0
1.2344 -5.8337 54.632 115 74 2
3.9087 -5.0877 54.765 38 15 0
4.2336 -4.8484 52.096 17 7 0
5.6511 -1.25 15.457 67 37 1
-10.253 -3.5904 45.868 216 181 90
-10.874 -3.4963 46.128 149 110 34
5.6255 -1.1179 15.404 59 28 1
-4.2022 -4.3933 59.843 197 174 69
5.6354 -0.89648 14.332 64 29 1
5.7074 -0.97844 15.635 57 26 1
5.4819 -0.80948 13.631 68 34 1
5.3203 -0.72682 12.915 66 34 1
5.8073 -0.85204 15.924 56 29 1
6.2075 -0.53203 17.02 55 25 1
6.7628 -0.49389 18.495 55 29 1
4.1817 -1.7727 49.141 203 201 124
3.7234 -1.5636 47.966 18 10 0
4.1899 -1.445 50.377 175 175 91
0.88628 -1.3941 53.638 30 20 0
-2.5802 -1.7185 66.702 160 121 37
0.13596 -1.3096 55.681 97 79 37
-10.111 -1.6473 73.876 255 255 255
5.932 -0.28427 16.343 55 29 1
-11.979 -1.3651 67.457 80 39 1
-11.598 -1.3361 70.34 68 36 1
-15.929 0.54472 55.715 90 69 2
-0.059645 0.61829 54.997 34 31 0
6.059 0.4649 16.767 69 39 1
6.059 0.4649 16.767 69 39 1
-15.313 4.0203 67.05 33 9 0
-20.437 4.0926 52.075 45 0 0
-20.437 4.0926 52.075 45 0 0
-18.227 6.1808 60.355 49 18 0
-1.5668 0.010434 -5.2782 124 132 53
-18.94 14.337 64.796 111 68 9
8.8088 12.418 49.219 206 174 70
-12.497 13.714 53.972 142 106 29
-12.497 13.714 53.972 142 106 29
-0.23643 -0.19819 -2.111 48 28 0
-1.8766 13.811 48.975 37 23 0
-11.089 15.26 53.19 77 55 14
8.5365 11.478 39.441 58 42 1
-3.2326 15.302 52.132 27 14 0
-6.624 -15.644 52.922 88 74 42
6.1094 -6.4889 22.408 255 255 223
-12.304 -14.054 55.56 32 0 0
-15.396 -12.057 49.363 16 6 0
4.5753 -10.241 41.993 23 8 0
-6.7718 -13.019 60.94 255 245 123
-0.047064 0.53195 -2.4676 65 26 1
7.8496 -7.3651 38.683 110 81 21
-5.1198 -11.734 63.322 109 57 2
-2.9888 -11.307 63.267 254 210 89
8.0882 -5.21 39.914 88 74 4
4.3631 -6.9201 55.369 105 95 23
8.5093 -8.4062 68.612 59 56 20
-4.7654 -6.5372 58.872 74 49 10
1.2129 -5.6359 56.418 192 161 53
6.7323 -0.32074 18.427 55 28 1
6.7323 -0.32074 18.427 55 28 1
-11.329 -1.2737 68.592 68 36 1
4.2428 -0.6753 50.608 61 57 9
5.9087 0.0039293 16.309 54 28 1
5.9087 0.0039293 16.309 54 28 1
8.9551 0.24537 44.938 74 50 1
5.9552 0.16545 16.45 55 29 1
5.9552 0.16545 16.45 55 29 1
7.4875 2.0044 67.456 84 51 1
9.6199 2.3387 73.082 124 90 26
10.342 2.6993 65.103 159 116 37
7.1973 5.3284 66.603 108 66 9
7.5055 3.6965 25.316 217 195 99
2.259 11.34 61.35 86 58 9
8.2951 9.6058 45.61 10 10 0
-17.348 14.115 62.804 15 7 0
-18.917 14.137 62.515 41 19 1
-6.2214 10.499 44.221 18 10 0
9.0862 10.961 45.942 7 0 0
5.4331 12.311 46.304 93 66 11
-17.99 -12.569 43.811 149 98 12
-12.24 -11.921 47.184 255 254 255
-6.8829 -12.373 52.414 191 135 32
-7.9784 -13.349 59.272 187 150 44
-11.409 -12.702 59.011 87 51 1
1.3046 -11.962 57.218 255 255 137
0.053378 -11.755 58.753 166 60 4
1.7279 -11.71 58.49 168 37 4
1.7279 -11.71 58.49 168 37 4
5.7815 -10.023 49.974 71 36 1
-11.921 -11.797 60.985 148 106 13
-9.7061 -13.372 72.4 81 45 1
-4.2296 -9.3126 60.652 168 118 24
9.3717 -8.2283 65.47 83 72 30
9.3717 -8.2283 65.47 83 72 30
7.3101 -3.8287 30.657 188 171 93
3.3942 -6.5175 56.968 172 127 26
4.1248 -6.2236 57.32 34 0 0
-4.6318 -1.2298 71.674 224 156 35
-4.6318 -1.2298 71.674 224 156 35
-0.36373 1.2034 55.364 44 33 0
-20.232 1.5761 58.405 86 51 1
-17.79 1.8267 47.536 114 71 2
-13.77 3.0954 68.667 16 6 0
-4.9551 5.8908 38.704 29 30 0
9.3099 8.4915 46.103 22 18 0
7.6577 4.6644 24.31 38 23 0
-9.345 13.225 51.696 158 111 17
-9.345 13.225 51.696 158 111 17
-1.9731 13.083 50.981 47 28 0
2.1831 11.467 43.771 80 53 3
7.6512 6.339 22.421 148 119 43
8.3565 11.268 39.698 255 255 217
8.3565 11.268 39.698 255 255 217
-12.502 -12.594 58.369 25 11 0
-12.502 -12.594 58.369 25 11 0
-3.5198 -12.055 56.043 255 255 255
-9.2946 -13.248 65.993 120 75 9
1.8222 -10.368 58.987 255 239 116
1.0985 -8.9126 53.338 36 44 12
2.5882 -9.0511 54.24 11 10 0
-5.2741 -9.9921 68.999 108 46 2
3.6937 -7.2585 57.653 121 92 6
-3.0594 -7.9675 67.383 164 115 24
7.6644 -3.4828 34.121 255 251 161
8.78 -1.5589 51.948 227 203 96
-8.1602 -1.454 77.894 255 255 251
-8.1602 -1.454 77.894 255 255 251
-16.095 1.4302 57.069 51 50 3
-16.095 1.4302 57.069 51 50 3
-14.538 5.1651 69.416 119 82 16
-17.498 5.1935 59.963 112 70 5
-15.301 7.0532 73.316 95 57 5
-22.893 9.0342 62.914 10 2 0
6.759 3.628 19.034 89 65 9
9.3438 8.9294 44.17 11 12 0
-1.0478 11.467 49.808 23 10 0
-8.5931 12.12 50.024 181 136 34
9.0085 10.541 40.088 15 10 0
-11.027 14.635 55.413 7 0 0
-3.6631 15.932 52.557 13 6 0
-7.9467 -13.986 51.407 254 223 104
7.1025 -7.8429 31.46 103 104 50
-4.4146 -12.116 58.914 167 117 21
-0.56929 -9.2698 56.274 18 33 0
9.2946 -7.7103 68.48 164 132 53
-5.5118 -5.6383 60.255 25 22 0
-6.584 -4.9207 61.459 188 153 28
-6.584 -4.9207 61.459 188 153 28
-2.4789 -2.0881 64.186 156 119 24
-2.0325 -0.39992 67.153 64 40 1
-5.914 1.103 67.123 80 44 1
1.2628 10.389 56.403 161 118 34
-9.9935 12.729 55.836 23 10 0
8.3447 12.33 42.073 34 20 0
8.3447 12.33 42.073 34 20 0
-16.194 -13.838 51.869 48 36 7
1.7676 -10.486 57.453 249 199 82
7.4577 -5.1341 31.717 227 205 130
-0.73172 -7.115 59.923 228 182 66
6.4526 -2.4531 20.996 131 91 10
-5.6562 -6.9123 60.909 123 104 34
9.8925 1.9206 59.678 138 83 11
-7.4645 2.7315 57.095 26 21 0
-15.956 7.1882 66.791 101 64 4
1.318 5.9169 53.879 159 116 30
2.7123 8.761 59.777 117 83 26
7.6836 4.3733 25.924 39 21 0
0.1916 10.831 57.795 32 17 0
8.0802 10.834 47.755 156 129 46
8.559 7.8317 31.404 150 119 33
-11.118 14.955 55.643 13 6 0
-1.8411 12.572 46.49 20 12 0
4.9068 -8.7448 38.851 189 161 74
-6.6265 -13.058 70.768 207 146 28
-14.165 -10.287 59.569 168 116 21
6.9725 -4.215 26.58 130 103 18
-5.6868 -8.7788 59.221 254 218 130
-7.6577 -7.8637 65.226 60 42 5
5.816 -4.7667 50.403 115 130 53
-0.42494 -5.2457 56.744 39 38 3
0.27018 5.2 56.961 47 18 0
-17.303 6.3111 60.847 19 13 0
-21.197 8.3735 62.131 15 6 0
0.14963 7.4743 52.55 49 19 0
-3.9213 -10.894 60.638 113 73 8
4.0373 -10.312 58.482 254 219 142
4.0373 -10.312 58.482 254 219 142
-9.4977 -9.4262 64.271 189 130 21
8.7109 -5.0391 51.993 52 50 1
-2.1972 -3.9365 58.753 193 167 66
-8.7504 -3.3139 71.257 133 91 10
10.404 0.93606 79.952 140 99 29
5.6422 9.2228 70.433 228 175 69
-3.0356 11.703 46.056 215 178 60
-9.8582 -13.257 61.362 255 255 164
8.888 -9.9374 51.125 82 39 1
8.9187 -14.704 76.758 159 110 24
-8.3279 -12.001 67.121 36 10 0
-8.3279 -12.001 67.121 36 10 0
-12.941 -8.7847 75 91 57 8
5.0651 1.7278 55.128 195 156 53
-15.338 -11.537 60.912 150 98 14
-12.315 -9.4169 59.289 255 255 208
-3.7005 -6.959 63.566 30 21 0
-2.6948 3.5795 54.291 57 40 1
6.3777 -2.6716 51.185 242 223 110
2.4729 -2.494 49.741 33 23 1
-2.8617 -1.7221 67.709 172 135 45
-14.036 -0.65208 56.797 158 140 94
-19.448 -5.9284 66.533 44 25 0
4.9069 10.435 56.009 156 121 38
0 0 0 1 0 0 0 1 0 0 0 1 0 0 0 0 0 334 1 0 0
