ply
format ascii 1.0
comment PCL generated
element vertex 325
property float x
property float y
property float z
property uchar red
property uchar green
property uchar blue
element camera 1
property float view_px
property float view_py
property float view_pz
property float x_axisx
property float x_axisy
property float x_axisz
property float y_axisx
property float y_axisy
property float y_axisz
property float z_axisx
property float z_axisy
property float z_axisz
property float focal
property float scalex
property float scaley
property float centerx
property float centery
property int viewportx
property int viewporty
property float k1
property float k2
end_header
9.502 -8.3738 26.327 64 29 1
-12.043 -10.296 36.559 42 0 0
5.6214 -4.3114 15.917 111 72 2
-7.9473 -10.586 40.836 66 22 1
-8.7898 -11.201 51.433 219 165 83
-1.3739 -13.248 66.522 179 75 4
-1.3977 0.15894 1.1186 65 26 1
6.425 -3.0383 23.222 219 198 99
-0.99997 0.26438 1.7642 255 253 152
-1.0762 0.2052 1.5356 255 235 135
6.8627 -0.56576 24.96 255 253 152
-5.3854 -3.8795 55.146 202 162 67
-5.2391 -3.8228 56.35 151 114 20
6.4663 -0.53248 23.682 255 253 152
-9.1332 2.4954 -31.975 124 132 53
-1.0052 -0.83859 48.357 112 92 52
-2.3252 -0.49716 48.319 78 53 9
-10.768 0.040693 41.092 185 108 18
-3.0129 0.33656 -6.8643 255 253 152
-2.3275 1.9901 42.943 43 25 0
-1.583 0.30928 1.6275 87 42 3
6.195 5.4727 23.561 59 32 1
6.4582 5.4989 24.391 60 34 1
6.4942 8.7528 40.676 142 125 57
6.5339 5.5587 24.644 60 34 1
0.10132 9.4193 29.81 37 20 0
5.8004 -5.3966 16.295 67 33 1
-13.627 -10.243 33.643 243 167 58
-13.473 -10.389 34.126 242 165 54
-12.816 -9.8329 32.317 242 165 54
-14.229 -9.783 32.791 146 84 3
3.6968 -10.001 35.163 14 0 0
7.1083 -9.4209 34.713 120 124 69
5.7792 -4.2764 16.367 102 71 2
-8.8524 -10.634 44.739 79 61 1
4.0006 -10.122 42.929 147 124 72
8.8221 -10.255 46.864 153 127 79
-5.9776 -12.81 60.177 196 148 39
-3.6152 -11.281 53.027 192 147 39
-3.6152 -11.281 53.027 192 147 39
-1.3892 0.11508 1.1442 52 20 0
6.405 -3.4113 22.321 146 107 21
6.2502 -3.3312 21.846 146 107 21
5.7783 -2.2259 16.634 66 33 1
6.3401 -3.0121 22.95 219 198 99
6.269 -3.0116 22.393 91 60 2
3.2484 -8.1888 63.897 91 59 2
6.1964 -2.9846 22.165 91 60 2
5.8275 -1.4858 16.633 128 96 23
-7.7667 -4.2626 47.533 225 199 123
-7.7667 -4.2626 47.533 225 199 123
5.9031 -0.80328 21.676 186 161 58
0.19011 -3.4551 52.949 44 29 0
5.642 -0.87634 16.695 142 103 16
0.33469 -2.7263 56.551 38 26 0
-2.9515 0.32207 -9.1619 186 161 58
-2.9515 0.32207 -9.1619 186 161 58
6.4543 -0.52925 23.644 255 253 152
5.8499 -0.90927 17.234 142 103 16
5.7898 -0.05892 21.451 186 161 58
-2.9686 0.32439 -9.2406 186 161 58
7.292 -0.66203 26.244 186 161 58
3.6298 -1.3754 49.463 66 68 1
-9.3489 -1.1285 44.969 122 94 16
7.8256 -0.52795 28.107 186 161 58
-2.9709 0.37007 -9.2513 186 161 58
-2.9777 0.32209 -9.2828 186 161 58
-4.4364 -0.70391 66.347 200 145 45
-12.769 -0.016618 40.632 74 55 1
6.316 0.10193 23.329 255 253 152
6.3176 -0.51594 23.203 255 253 152
-25.012 1.2861 84.75 62 51 8
6.2765 0.41653 23.253 255 253 152
-3.0117 -0.0084912 -9.4481 186 161 58
5.8068 -0.32259 16.963 55 25 1
-1.7449 0.074272 -5.1026 124 132 53
-6.8344 2.0659 46.937 91 70 21
-3.7042 0.53352 7.0177 130 86 3
-2.8259 2.0752 41.548 143 126 49
-2.1546 2.118 42.142 154 137 61
6.7308 1.3407 24.197 255 253 152
6.3906 1.308 23.402 55 25 1
-1.7097 -0.11183 -4.8838 124 132 53
8.6861 1.6231 30.113 55 25 1
1.0627 0.0086882 4.8051 55 25 1
-0.82598 0.071778 -1.848 58 15 1
-13.77 6.9781 53.48 34 14 0
-11.832 6.7109 48.35 158 133 73
-11.832 6.7109 48.35 158 133 73
-12.016 6.7401 47.639 174 135 69
-12.155 9.2734 47.253 70 57 23
-13.213 9.8626 42.623 96 60 2
-9.0502 9.2145 34.47 142 106 29
-8.9646 9.1274 34.102 142 106 29
4.4211 4.8508 17.179 91 60 2
-1.01 1.9128 5.1073 37 20 0
6.1533 9.9033 32.867 60 38 1
-0.7955 -1.7276 -7.2746 37 20 0
-0.69302 -0.16957 -2.0374 48 28 0
6.7205 -6.972 22.828 254 225 106
-8.0035 -12.317 41.231 52 14 0
6.5944 -6.5118 22.416 254 225 106
-8.0133 -10.532 35.842 254 218 135
6.4548 -6.3945 21.998 254 225 106
-13.975 -9.9736 37.28 206 153 49
-12.172 -10.815 41.705 51 0 0
-12.172 -10.815 41.705 51 0 0
-11.638 -11.677 45.999 244 196 104
-11.423 -10.54 42.385 44 0 0
-11.335 -11.865 55.857 255 255 120
-1.3305 0.17338 0.82217 58 15 1
-5.6079 -10.318 56.497 109 57 2
6.4285 -3.0882 22.894 91 60 2
6.3469 -3.0562 22.637 91 60 2
5.7919 -2.0644 16.692 63 33 1
-3.6366 -8.1497 64.524 77 56 1
3.528 -6.8952 59.917 145 106 20
5.7159 -1.724 16.529 51 22 0
0.31266 -5.4229 52.72 115 74 2
3.2507 -5.1308 57.558 38 15 0
3.6631 -4.929 55.31 17 7 0
5.721 -1.2471 16.609 67 37 1
-8.8548 -2.5732 35.135 216 181 90
-8.948 -2.3703 33.663 149 110 34
5.7795 -1.1085 16.785 59 28 1
-4.8872 -3.8521 55.675 197 174 69
5.8115 -0.87372 15.601 64 29 1
5.7941 -0.94582 16.839 57 26 1
5.658 -0.7798 14.842 68 34 1
5.513 -0.6928 14.104 66 34 1
5.8077 -0.79222 16.904 56 29 1
3.3597 -1.5366 48.827 203 201 124
2.9211 -1.3321 47.834 18 10 0
3.2326 -1.166 48.521 175 175 91
-0.02509 -1.0797 51.126 30 20 0
-3.5313 -1.3903 65.247 160 121 37
-0.7642 -0.99218 52.946 97 79 37
-10.545 -1.2173 68.804 255 255 255
5.8182 -0.16357 17.03 55 29 1
-11.422 -0.88384 58.099 80 39 1
-11.401 -0.86825 62.36 68 36 1
-12.68 0.66855 40.457 90 69 2
-0.94151 0.83971 50.621 34 31 0
-8.2157 -0.37753 -22.573 69 39 1
5.7527 0.63082 16.945 69 39 1
-13.296 3.54 53.249 33 9 0
-14.657 3.0089 34.319 45 0 0
-14.623 3.0104 34.232 45 0 0
-13.763 4.617 41.769 49 18 0
-1.7039 -0.25396 -4.8763 124 132 53
-13.866 10.078 43.473 111 68 9
6.4013 10.414 39.715 206 174 70
-9.7586 10.025 37.617 142 106 29
-9.7586 10.025 37.617 142 106 29
-2.2417 10.632 36.13 37 23 0
-7.9998 10.083 33.496 77 55 14
6.1367 9.4863 31.237 58 42 1
-3.2232 11.494 37.581 27 14 0
-7.1875 -14.576 49.551 88 74 42
6.1638 -7.0426 24.358 255 255 223
-11.377 -11.684 46.536 32 0 0
-12.031 -8.4953 35.036 16 6 0
4.0534 -10.636 44.005 23 8 0
-7.4293 -12.156 57.61 255 245 123
-0.5856 0.42805 -2.2433 65 26 1
8.5618 -8.5294 45.455 110 81 21
-5.9935 -11.208 61.468 109 57 2
-4.0098 -11.18 63.635 254 210 89
8.7034 -5.895 46.237 88 74 4
3.8735 -7.2897 60.14 105 95 23
10.03 -10.616 88.956 59 56 20
-5.4397 -5.9208 55.091 74 49 10
0.32547 -5.4679 56.886 192 161 53
5.9385 -0.0097257 17.34 55 28 1
-5.3796 0.18344 -14.294 55 28 1
-11.204 -0.85518 61.137 68 36 1
3.3561 -0.42106 49.637 61 57 9
5.7394 0.1478 16.846 54 28 1
8.7354 0.49905 47.337 74 50 1
5.7807 0.31861 16.976 55 29 1
5.7807 0.31861 16.976 55 29 1
7.407 2.5599 75.19 84 51 1
10.44 3.1302 86.867 124 90 26
10.796 3.3836 73.598 159 116 37
6.5857 5.8971 69.407 108 66 9
6.3526 3.6214 23.057 217 195 99
1.0278 10.003 51.98 86 58 9
6.6568 8.8629 40.4 10 10 0
-12.752 9.9009 42.066 15 7 0
-14.316 10.301 43.472 41 19 1
-5.0625 7.4087 29.465 18 10 0
7.0967 9.7519 39.315 7 0 0
3.6889 10.422 37.675 93 66 11
-12.583 -7.9732 27.812 149 98 12
-10.036 -8.7024 34.664 255 254 255
-7.684 -11.91 50.97 191 135 32
-7.6786 -11.017 49.471 187 150 44
-11.515 -11.483 53.98 87 51 1
0.45812 -12.448 60.329 255 255 137
-0.8936 -12.865 65.237 166 60 4
0.9304 -12.403 62.83 168 37 4
0.96727 -12.672 64.207 168 37 4
5.6642 -11.059 55.944 71 36 1
-11.169 -9.8311 51.596 148 106 13
-10.388 -12.548 69.057 81 45 1
-5.5214 -9.715 64.699 168 118 24
11.183 -10.395 84.847 83 72 30
11.884 -11 89.884 83 72 30
7.3074 -4.001 33.007 188 171 93
2.9603 -7.1718 64.761 172 127 26
3.5234 -6.42 61.208 34 0 0
-5.528 -0.8744 69.122 224 156 35
-5.528 -0.8744 69.122 224 156 35
-1.2095 1.3436 48.911 44 33 0
-14.744 1.343 39.155 86 51 1
-14.483 1.6619 35.599 114 71 2
-12.28 2.8454 55.643 16 6 0
-4.3522 4.4573 27.138 29 30 0
7.4366 7.7621 40.219 22 18 0
6.4063 4.4586 21.811 38 23 0
-7.2597 9.3152 34.694 158 111 17
-7.2597 9.3152 34.694 158 111 17
-2.3607 10.316 38.527 47 28 0
-0.806 -0.34105 -4.1197 80 53 3
5.8451 5.5502 18.42 148 119 43
6.164 9.5509 32.281 255 255 217
5.9887 9.3172 31.443 255 255 217
-11.886 -10.763 50.433 25 11 0
-11.886 -10.763 50.433 25 11 0
-4.6837 -12.562 59.119 255 255 255
-10.127 -12.693 64.144 120 75 9
1.0718 -11.195 64.843 255 239 116
0.37664 -10.197 62.128 36 44 12
1.8442 -9.3279 56.951 11 10 0
-6.364 -9.8056 69.304 108 46 2
3.1165 -7.6654 62.575 121 92 6
-4.0147 -7.5455 65.883 164 115 24
7.6298 -3.5961 36.638 255 251 161
9.1875 -1.5278 59.001 227 203 96
-9.2349 -1.1028 77.234 255 255 251
-9.2349 -1.1028 77.234 255 255 251
-12.943 1.3403 41.93 51 50 3
-12.943 1.3403 41.93 51 50 3
-12.437 4.3783 54.005 119 82 16
-13.151 3.8911 41.173 112 70 5
-12.576 5.6481 54.793 95 57 5
-15.987 6.2352 40.576 10 2 0
5.7125 3.5548 17.215 89 65 9
7.5207 8.1598 38.685 11 12 0
-1.6358 8.9953 37.331 23 10 0
-6.9434 8.851 34.754 181 136 34
6.7436 8.9879 32.783 15 10 0
-8.6539 10.59 38.333 7 0 0
-3.5348 11.93 37.793 13 6 0
-7.6066 -11.579 42.819 254 223 104
7.3084 -8.6506 34.962 103 104 50
-5.2828 -11.622 57.311 167 117 21
-1.547 -9.8045 60.69 18 33 0
11.083 -9.7336 88.989 164 132 53
-6.0921 -4.9897 55.701 25 22 0
-6.8679 -4.1441 54.659 188 153 28
-6.8679 -4.1441 54.659 188 153 28
-3.2426 -1.6244 58.613 156 119 24
-2.6721 -0.022377 55.917 64 40 1
-6.2643 1.2765 59.423 80 44 1
0.1557 8.7191 45.234 161 118 34
-7.7924 9.0654 37.91 23 10 0
5.8141 9.947 32.587 34 20 0
6.0882 10.362 33.986 34 20 0
-12.771 -9.9034 37.318 48 36 7
1.0267 -11.354 63.248 249 199 82
7.9177 -5.7255 36.123 227 205 130
-1.6662 -6.7906 59.032 228 182 66
6.4724 -2.5442 22.484 131 91 10
-6.2037 -6.143 56.001 123 104 34
10.18 2.4363 66.506 138 83 11
-7.1274 2.55 46.945 26 21 0
-13.109 5.7748 50.131 101 64 4
0.23262 5.1594 44.067 159 116 30
1.5314 8.1427 53.065 117 83 26
6.6667 4.343 24.13 39 21 0
-0.72395 9.5359 48.787 32 17 0
6.1717 9.5914 40.672 156 129 46
6.7459 7.0079 26.735 150 119 33
-8.7522 10.862 38.66 13 6 0
-2.2054 9.7266 34.371 20 12 0
4.3904 -8.9839 40.329 189 161 74
-6.8848 -11.171 61.886 207 146 28
-12.711 -8.2719 48.799 168 116 21
7.0369 -4.4743 28.789 130 103 18
-6.5082 -8.2978 57.329 254 218 130
-8.249 -7.1382 61.252 60 42 5
5.612 -5.0414 55.587 115 130 53
-1.3404 -4.9935 56.417 39 38 3
-0.65128 4.8886 49.991 47 18 0
-13.647 4.9238 43.98 19 13 0
-15.731 6.1338 42.595 15 6 0
-0.72841 6.6977 44.648 49 19 0
-4.7748 -10.337 58.525 113 73 8
3.6074 -11.334 65.384 254 219 142
3.6883 -11.552 66.608 254 219 142
-9.6027 -8.2698 57.741 189 130 21
9.1848 -5.572 59.547 52 50 1
-3.0074 -3.459 55.133 193 167 66
-9.265 -2.8013 66.496 133 91 10
9.5507 1.3018 81.007 140 99 29
4.3177 8.952 65.494 228 175 69
-2.9542 8.4747 31.713 215 178 60
-10.219 -12.158 56.954 255 255 164
9.676 -11.503 60.25 82 39 1
9.5398 -17.23 91.221 159 110 24
-9.1704 -11.435 65.158 36 10 0
-9.1704 -11.435 65.158 36 10 0
-13.318 -7.9856 70.383 91 57 8
4.1317 1.9857 54.009 195 156 53
-13.398 -9.0848 48.731 150 98 14
-11.79 -8.0086 51.54 255 255 208
-4.588 -6.4886 61.569 30 21 0
-3.021 3.0943 42.675 57 40 1
5.8467 -2.5487 53.283 242 223 110
1.6779 -2.2701 50.408 33 23 1
-3.784 -1.351 65.543 172 135 45
-13.094 -0.25458 48.513 158 140 94
-15.896 -4.2433 50.303 44 25 0
2.837 7.9996 41.631 156 121 38
0 0 0 1 0 0 0 1 0 0 0 1 0 0 0 0 0 325 1 0 0
