ply
format ascii 1.0
comment PCL generated
element vertex 250
property float x
property float y
property float z
property uchar red
property uchar green
property uchar blue
element camera 1
property float view_px
property float view_py
property float view_pz
property float x_axisx
property float x_axisy
property float x_axisz
property float y_axisx
property float y_axisy
property float y_axisz
property float z_axisx
property float z_axisy
property float z_axisz
property float focal
property float scalex
property float scaley
property float centerx
property float centery
property int viewportx
property int viewporty
property float k1
property float k2
end_header
-2.5608 1.7275 8.688 94 49 37
-5.5389 2.1396 21.88 27 15 7
-5.5337 2.1336 21.852 27 15 7
-5.5305 2.8609 21.591 22 11 2
-5.5595 2.8863 21.729 22 11 2
0.29886 3.1247 21.533 47 24 17
-3.3067 1.7024 8.8239 42 23 13
0.51572 2.0584 8.7985 137 92 67
0.44703 0.38863 21.252 91 72 55
-5.3288 0.40667 22.199 97 80 58
-2.127 1.96 14.219 227 188 157
-0.96483 1.7965 12.093 193 0 10
-2.0538 1.8233 9.3913 7 0 0
0.26305 2.0045 8.7359 134 86 67
0.47154 -4.0833 22.72 82 67 59
0.17416 -3.8383 23.098 255 255 255
-3.6243 1.6896 9.267 104 77 58
-0.84132 1.8659 9.4359 7 8 0
-0.67603 -1.7802 19.76 53 40 30
0.44931 -4.2425 22.349 255 255 255
-2.7154 1.5151 -4.0298 255 255 255
-2.7154 1.5151 -4.0298 255 255 255
-5.3 -4.1883 23.337 255 255 255
-5.3559 -4.1173 23.337 102 85 80
-5.3559 -4.1191 23.337 102 85 80
-0.3537 1.6963 12.726 242 95 97
0.36076 -4.1553 22.322 89 81 79
0.36076 -4.1553 22.322 89 81 79
-3.0897 2.062 13.761 213 61 22
-3.0127 2.0837 13.731 176 95 79
0.24814 1.4123 20.988 27 15 10
0.227 2.1122 20.838 30 18 12
-1.2362 1.7592 12.152 234 88 57
-1.5618 1.8507 12.207 224 78 44
-3.4974 1.9193 9.4548 48 22 10
-3.992 1.9004 10.073 26 13 8
-4.736 1.9996 10.364 74 50 39
-0.81548 1.9759 9.3091 97 78 60
-0.81548 1.9759 9.3091 97 78 60
-4.7271 1.8701 10.388 25 10 2
-2.0494 1.8948 9.366 141 113 98
-0.28754 1.7383 12.848 248 102 99
-2.7621 1.8296 14.152 254 218 158
-1.3863 1.8359 12.177 10 0 0
-1.3874 1.8297 12.163 10 0 0
-0.21597 1.6053 9.2663 28 17 1
-0.48582 1.5981 9.1385 10 14 2
-1.1102 1.7045 12.231 225 155 157
-1.1102 1.7045 12.231 225 155 157
-3.5674 -1.0288 9.6503 93 76 66
-0.25703 1.683 9.045 17 10 0
-1.4532 1.714 9.8212 11 10 0
-0.32288 1.7424 12.673 252 116 115
-0.39734 1.6258 9.3687 40 31 10
-1.5428 1.9026 8.8918 125 89 72
0.24396 1.4127 20.981 29 15 10
0.23282 2.1154 20.86 25 14 8
-0.29751 1.9159 8.7209 50 22 9
-0.32872 1.948 8.8104 44 23 11
-3.4658 2.0903 10.239 91 61 45
-2.6193 2.5317 12.559 34 0 0
-4.5273 1.9574 9.927 39 25 22
0.43605 -4.0424 22.507 79 64 57
-2.2803 1.8808 9.7429 13 10 3
-3.9382 1.9876 10.269 139 115 98
-5.1856 -4.0136 23.597 96 80 70
-5.0756 -3.9265 23.402 88 72 62
-3.9739 -1.0745 9.3613 92 76 65
0.12265 -3.3645 23.303 52 40 34
-0.27765 1.5644 9.462 241 159 54
-2.1176 1.7374 10.071 10 6 0
-0.61779 1.8118 9.4924 2 7 0
-2.4143 1.3155 10.265 204 63 5
0.29557 -4.1263 22.59 76 67 70
0.29557 -4.1263 22.59 76 67 70
-11.025 -4.0953 24.604 95 82 82
-2.199 2.1488 14.44 220 206 214
-4.1305 1.6817 10.147 15 13 7
0.51391 -4.161 22.181 89 78 80
-2.8818 -0.45072 6.0406 96 82 76
-3.213 2.2062 10.525 180 145 125
-11.533 -2.8631 25.25 249 254 255
-0.20535 1.8268 12.737 195 0 17
-3.9251 2.0392 9.8389 124 91 68
-2.7441 1.9708 9.3947 44 18 10
-11.41 -2.7939 24.807 255 255 255
-11.246 0.42589 24.054 88 72 53
0.25514 1.406 21.008 21 15 10
-5.5099 1.3886 22.043 27 17 8
-5.511 1.3887 22.051 27 17 8
-5.5366 2.1419 21.918 29 15 10
-5.5395 2.1455 21.937 29 15 10
-5.621 2.9522 22.199 27 15 7
-5.5611 2.8963 21.821 27 15 7
-2.2107 2.1965 14.551 209 184 186
-4.0103 1.9446 10.174 23 10 4
-3.427 2.043 10.058 68 44 29
-3.427 2.043 10.058 68 44 29
-2.6117 1.9904 9.9268 45 28 17
-1.9912 2.1127 9.9756 161 132 116
-1.9787 2.1498 10.086 161 132 116
-2.0358 2.0423 9.5878 20 10 9
-1.9474 2.0474 9.526 25 11 10
-3.0299 -0.52177 6.7029 255 255 255
-3.5111 -0.64234 7.2828 255 255 255
-2.0535 1.8733 9.5307 13 3 0
-0.87689 1.9212 9.1676 103 80 59
-2.238 2.0438 9.8211 116 86 67
-5.3079 1.9465 10.144 27 13 10
-0.82178 1.8882 9.3928 8 7 0
-2.2732 1.8365 9.5601 10 8 1
-3.8705 1.9133 10.036 164 144 128
-5.1843 -3.9956 23.512 95 79 69
-4.8887 2.055 10.461 4 1 0
-3.484 -1.3905 10.804 100 87 76
-5.0955 -3.9312 23.401 88 72 62
-10.086 -3.4844 23.043 90 73 61
-1.7168 1.7543 12.008 239 155 154
-4.9799 1.9708 10.624 14 7 2
-2.4028 1.613 11.324 133 66 56
-1.2349 -1.1269 17.024 50 34 26
-3.2778 1.8503 13.76 213 167 172
-1.9359 2.1136 13.873 250 96 58
-5.2162 1.7554 10.17 105 86 70
-5.3303 1.8826 10.42 55 42 36
-10.79 -3.8183 24.921 89 72 60
-13.699 -3.0232 28.787 255 242 192
-4.8468 3.2641 20.051 16 26 0
-11.238 -2.6751 24.678 87 58 34
-11.518 2.2197 23.873 20 13 10
-11.518 2.2197 23.873 20 13 10
-5.4369 1.6527 9.6429 23 14 9
-3.9193 1.3363 9.7383 48 33 19
-0.8642 1.8779 12.503 191 0 10
-3.0527 1.7525 9.1477 137 107 92
-3.0527 1.7525 9.1477 137 107 92
-11.564 -2.3336 24.865 254 226 165
-11.61 0.11029 24.137 25 26 21
-10.874 -3.869 25.178 88 72 58
-1.05 1.7456 12.471 214 163 164
-0.57952 2.1408 13.036 102 0 1
-1.8233 1.954 9.6637 96 69 58
-4.1174 1.6299 10.037 12 11 2
-2.3399 1.8086 12.195 204 59 35
-2.1777 1.5504 9.4262 14 10 3
-13.232 -2.9423 25.966 177 149 123
-4.7339 3.2502 19.926 82 85 46
0.35607 0.31526 21.126 86 75 57
-11.58 0.37729 24.3 79 65 55
-11.626 0.38663 24.414 79 65 55
-12.131 -3.2003 26.617 255 255 255
-12.062 -3.0555 25.562 254 217 177
0.29346 -4.0791 22.52 72 58 64
-2.1912 1.9776 14.22 233 205 183
-5.6205 -3.6866 23.347 255 255 255
-2.3634 1.4861 8.4068 10 0 0
-5.1013 -3.9049 23.226 96 79 67
-0.32356 -2.1084 21.843 44 30 23
-6.3844 -0.68822 9.6561 162 136 108
-11.246 -2.1344 24.155 254 227 173
-4.838 1.2349 -2.2388 255 255 255
-12.777 -2.6339 26.459 169 142 116
-11.128 0.34541 23.046 80 71 58
-5.5072 1.3854 22.043 29 15 10
-5.5084 1.3879 22.055 29 15 10
-11.172 2.1001 22.92 23 11 10
-11.184 2.8354 22.703 10 7 0
0.29051 1.4294 21.113 27 15 11
-1.5955 2.4867 11.131 12 2 0
-10.923 -0.41951 22.632 26 20 12
-1.5926 2.1424 13.911 41 18 10
-1.9191 2.4813 15.855 212 191 196
-3.875 1.8351 11.723 32 29 15
-6.2479 2.1542 11.75 137 113 98
-11.309 -2.2801 24.085 254 227 170
-11.446 0.069728 23.601 25 25 25
-11.48 0.070769 23.698 26 23 25
-1.7341 2.3268 10.999 10 8 4
0.48258 -4.014 22.596 74 61 51
0.47395 -4.0087 22.567 74 60 52
-1.0907 2.263 14.277 199 186 194
-6.2323 2.2038 11.71 132 110 90
-6.2323 2.2038 11.71 132 110 90
-10.025 -3.3901 22.657 86 70 58
-10.025 -3.3901 22.657 86 70 58
-0.45397 2.052 13.921 226 150 148
-2.383 2.1285 11.292 15 20 10
-0.046772 -1.5577 22.642 26 20 12
-13.125 -2.8872 27.054 255 239 188
-13.163 -2.8249 26.927 178 146 110
0.3622 -3.6674 23.643 53 41 37
-1.669 2.5035 11.021 178 146 127
-2.2741 2.2502 10.627 36 20 11
-11.645 -2.0974 24.201 151 123 98
-1.0974 2.0126 13.006 10 0 0
-1.0974 2.0126 13.006 10 0 0
-7.9529 3.3229 18.587 246 229 208
-3.8962 -0.3936 2.901 11 13 7
-3.4833 -0.65216 2.1417 103 71 60
-3.5349 0.48021 6.4137 198 187 199
-11.443 2.219 23.415 82 66 51
-2.4934 2.2599 15.501 221 22 18
-11.535 -0.55023 24.182 29 15 10
-12.721 -3.3348 27.045 255 255 255
-4.8245 3.2084 19.83 14 23 0
0.32355 -4.0956 22.617 64 54 62
-13.113 -3.1076 24.948 255 237 188
-11.399 -0.15587 23.889 13 15 15
-11.135 1.2848 23.426 84 68 51
-2.018 2.0827 14.738 226 207 195
-10.649 -3.7328 24.517 89 72 60
-10.649 -3.7328 24.517 89 72 60
-12.882 -3.3995 27.572 255 255 255
0.45094 -4.2281 22.661 84 73 72
-7.9196 -1.1262 12.769 255 234 184
-4.8163 -0.56588 6.8757 255 255 255
-13.239 -3.0433 24.966 165 139 110
-11.091 -2.5015 23.897 255 255 255
-11.165 2.102 22.868 17 8 0
-11.344 -2.1049 24.412 254 229 178
-1.9923 2.277 14.955 199 190 196
-11.346 -0.14272 23.7 21 18 19
-2.6036 2.096 14.763 216 33 21
-6.0079 1.9207 11.16 13 18 8
-5.7188 1.8437 10.844 10 17 7
-6.9074 1.983 11.456 20 10 1
-7.501 2.0829 11.626 158 131 110
-6.7209 1.9925 11.339 134 107 87
-5.8757 1.9685 11.041 162 137 120
-12.804 0.12815 22.465 114 118 123
-12.804 0.12815 22.465 114 118 123
-4.8238 3.3454 20.462 18 29 1
0.33136 -4.081 22.621 64 55 60
-12.769 -2.6633 25.703 172 145 117
-7.3172 2.0846 11.617 45 28 17
-5.9537 2.1368 11.137 106 79 66
-11.315 0.045054 23.174 31 28 29
-11.315 0.045054 23.174 31 28 29
-6.5309 2.0089 11.35 33 23 17
-3.5123 2.0382 10.517 140 112 99
-5.8863 2.0028 11.166 162 137 120
-12.478 0.19798 21.58 17 14 17
-11.667 2.481 18.94 26 17 10
-12.906 -3.6107 23.249 101 73 45
-12.906 -3.6107 23.249 101 73 45
-7.9162 1.7885 11.102 18 13 2
-7.5493 1.9189 11.414 30 19 9
-6.0538 2.0127 11.069 10 10 3
-6.4308 1.8226 10.924 23 22 12
-4.2571 1.9063 10.973 48 0 0
0 0 0 1 0 0 0 1 0 0 0 1 0 0 0 0 0 250 1 0 0
