ply
format ascii 1.0
comment PCL generated
element vertex 330
property float x
property float y
property float z
property uchar red
property uchar green
property uchar blue
element camera 1
property float view_px
property float view_py
property float view_pz
property float x_axisx
property float x_axisy
property float x_axisz
property float y_axisx
property float y_axisy
property float y_axisz
property float z_axisx
property float z_axisy
property float z_axisz
property float focal
property float scalex
property float scaley
property float centerx
property float centery
property int viewportx
property int viewporty
property float k1
property float k2
end_header
-2.7441 1.4674 8.149 94 49 37
-5.2592 1.9008 19.463 27 15 7
-5.2572 1.8985 19.454 27 15 7
-5.2462 2.5074 19.182 22 11 2
-5.2778 2.5367 19.33 22 11 2
-0.25836 2.812 19.573 47 24 17
-3.3438 1.4289 8.2096 42 23 13
-0.12097 1.8164 8.4143 137 92 67
-0.19818 0.40785 18.868 91 72 55
-5.082 0.43313 19.729 97 80 58
-2.3813 1.7188 12.935 227 188 157
-1.4017 1.57 11.119 193 0 10
-2.3258 1.5646 8.7765 7 0 0
-0.34371 1.7648 8.3492 134 86 67
-15.913 18.879 -84.767 82 67 59
-0.39826 -3.2053 20.643 255 255 255
-3.599 1.4169 8.563 104 77 58
-1.3006 1.6287 8.8997 7 8 0
-1.1343 -1.4442 17.759 53 40 30
-0.19264 -3.5105 19.849 255 255 255
-2.9003 1.2784 -2.4014 255 255 255
-2.9003 1.2784 -2.4014 255 255 255
-5.0556 -3.4488 20.67 255 255 255
-5.1081 -3.3974 20.701 102 85 80
-5.1063 -3.3962 20.69 102 85 80
-0.88991 1.4838 11.64 242 95 97
-0.26643 -3.4418 19.847 89 81 79
-0.26643 -3.4418 19.847 89 81 79
-3.1928 1.8017 12.533 213 61 22
-3.1268 1.818 12.499 176 95 79
-0.36639 1.2718 18.644 27 15 10
-0.36661 1.8738 18.598 30 18 12
-1.6358 1.5306 11.13 234 88 57
-1.9041 1.6273 11.266 224 78 44
-3.5447 1.671 8.903 48 22 10
-3.9599 1.6559 9.4221 26 13 8
-4.6001 1.7512 9.7 74 50 39
-1.2923 1.6956 8.7212 97 78 60
-1.2923 1.6956 8.7212 97 78 60
-4.5926 1.6415 9.7204 25 10 2
-2.3222 1.6378 8.7951 141 113 98
-0.83377 1.5183 11.739 248 102 99
-2.915 1.604 12.85 254 218 158
-1.7607 1.5964 11.16 10 0 0
-1.7623 1.5901 11.142 10 0 0
-0.79547 1.3831 8.6769 28 17 1
-1.02 1.3774 8.5723 10 14 2
-1.5302 1.4846 11.196 225 155 157
-1.5302 1.4846 11.196 225 155 157
-2.8946 -3.0049 20.676 93 76 66
-0.83056 1.4464 8.4904 17 10 0
-1.823 1.482 9.1609 11 10 0
-0.86782 1.5176 11.571 252 116 115
-0.94538 1.4014 8.7656 40 31 10
-1.9002 1.6342 8.3744 125 89 72
-0.36358 1.2745 18.663 29 15 10
-0.36035 1.8769 18.619 25 14 8
-0.86447 1.6397 8.2201 50 22 9
-0.88966 1.6674 8.2962 44 23 11
-3.5117 1.8099 9.5418 91 61 45
-2.7985 2.2013 11.545 34 0 0
-4.4115 1.7035 9.2978 39 25 22
-10.954 8.7682 -36.637 79 64 57
-2.515 1.624 9.1015 13 10 3
-3.9111 1.7264 9.5754 139 115 98
-4.9669 -3.3149 20.951 96 80 70
-4.8651 -3.2241 20.699 88 72 62
-3.9347 -0.83047 8.7073 92 76 65
-0.46131 -2.7784 20.705 52 40 34
-0.84584 1.35 8.8424 241 159 54
-2.3782 1.5053 9.3798 10 6 0
-1.1276 1.5585 8.8731 2 7 0
-2.6269 1.1511 9.5343 204 63 5
-0.32688 -3.3972 20.022 76 67 70
-0.30799 -3.431 20.143 76 67 70
-9.9543 -3.3929 21.892 95 82 82
-2.4395 1.8801 13.126 220 206 214
-9.9257 -3.3627 21.897 94 81 79
-9.9257 -3.3627 21.897 94 81 79
-4.0686 1.4632 9.4563 15 13 7
-3.7645 -1.5143 11.566 96 82 76
-3.3029 1.9403 9.8796 180 145 125
-10.257 -2.2954 22.11 249 254 255
-0.77069 1.5872 11.622 195 0 17
-3.9199 1.8085 9.3283 124 91 68
-2.903 1.7323 8.9042 44 18 10
-10.206 -2.2511 21.882 255 255 255
-9.9912 0.45606 21.04 88 72 53
-0.3616 1.2656 18.661 21 15 10
-5.2336 1.2635 19.576 27 17 8
-5.2349 1.2642 19.585 27 17 8
-5.2559 1.9007 19.469 29 15 10
-5.2546 1.899 19.454 29 15 10
-5.3198 2.5803 19.663 27 15 7
-5.2735 2.5369 19.362 27 15 7
-2.447 1.9202 13.219 209 184 186
-3.9933 1.7283 9.6176 23 10 4
-3.488 1.8039 9.493 68 44 29
-3.488 1.8039 9.493 68 44 29
-2.7895 1.7475 9.35 45 28 17
-2.2638 1.8409 9.3619 161 132 116
-2.2529 1.8733 9.4568 161 132 116
-2.3013 1.7823 9.0388 20 10 9
-2.2267 1.7853 8.9833 25 11 10
-3.1495 -0.3981 6.5989 255 255 255
-3.5637 -0.5101 7.1323 255 255 255
-2.3153 1.6423 9.0021 13 3 0
-1.3344 1.6599 8.6351 103 80 59
-2.4707 1.791 9.2558 116 86 67
-5.1318 1.7471 9.6428 27 13 10
-1.2878 1.633 8.8248 8 7 0
-2.5016 1.614 9.0356 10 8 1
-3.8728 1.7003 9.4973 164 144 128
-4.9684 -3.3052 20.904 95 79 69
-4.7587 1.8339 9.8927 4 1 0
-4.9145 -3.2791 20.889 100 87 76
-4.9039 -3.2767 20.905 88 72 62
-9.0628 -2.831 20.307 90 73 61
-2.0303 1.5417 11.082 239 155 154
-4.8385 1.7623 10.037 14 7 2
-2.6117 1.4243 10.519 133 66 56
-1.6274 -0.8837 15.289 50 34 26
-3.3537 1.6399 12.624 213 167 172
-2.2126 1.8549 12.676 250 96 58
-4.9809 1.5267 9.4778 105 86 70
-5.0768 1.6347 9.6886 55 42 36
-9.5714 -3.0561 21.655 89 72 60
-11.717 -2.3207 24.229 255 242 192
-4.6706 2.8379 17.849 16 26 0
-10.01 -2.139 21.626 87 58 34
-10.17 1.9333 20.759 20 13 10
-10.272 1.9658 21.017 20 13 10
-5.3267 1.5527 9.421 23 14 9
-3.929 1.2299 9.3644 48 33 19
-1.2995 1.6528 11.527 191 0 10
-3.1644 1.5757 8.7834 137 107 92
-3.1644 1.5757 8.7834 137 107 92
-10.337 -1.8524 21.926 254 226 165
-10.278 0.19043 21.067 25 26 21
-9.7357 -3.1508 22.133 88 72 58
-1.4589 1.5395 11.497 214 163 164
-1.0794 1.8586 11.9 102 0 1
-2.1143 1.7169 9.1313 96 69 58
-4.1064 1.4957 9.647 12 11 2
-2.5506 1.6073 11.325 204 59 35
-2.4129 1.3793 8.9578 14 10 3
-11.717 -2.3654 22.8 177 149 123
-4.5746 2.8238 17.73 82 85 46
-0.23944 0.3518 18.911 86 75 57
-10.329 0.4177 21.39 79 65 55
-10.189 0.41517 21.041 79 65 55
-10.542 -2.4934 22.694 255 255 255
-10.627 -2.4298 22.192 254 217 177
-5.7964 1.9283 -3.9782 112 93 77
-9.8471 -3.4501 21.921 91 87 93
-0.33842 -3.3538 19.94 72 58 64
-2.4141 1.7602 13.075 233 205 183
-5.3332 -3.0345 20.725 255 255 255
-2.5605 1.3312 8.113 10 0 0
-4.8926 -3.2181 20.614 96 79 67
-0.84784 -1.7015 19.407 44 30 23
-11.741 -2.3365 23.307 162 136 108
-10.137 -1.7176 21.522 254 227 173
-4.7004 1.0801 -1.0365 255 255 255
-11.628 -2.1949 23.99 169 142 116
-10.127 0.39933 20.815 80 71 58
-5.2334 1.2661 19.624 29 15 10
-5.233 1.2674 19.626 29 15 10
-10.153 1.9167 20.69 23 11 10
-10.016 1.9978 20.494 83 64 46
-10.094 2.519 20.309 10 7 0
-0.32645 1.2848 18.782 27 15 11
-1.9026 2.1901 10.43 12 2 0
-9.8638 -0.26115 20.227 26 20 12
-1.9372 1.8618 12.621 41 18 10
-2.177 2.1963 14.474 212 191 196
-7.0164 3.3659 -12.662 255 255 255
-3.8625 1.6511 11.012 32 29 15
-5.944 1.9494 11.102 137 113 98
-10.164 -1.8369 21.394 254 227 170
-10.307 0.16017 21.046 25 25 25
-10.338 0.16105 21.135 26 23 25
-2.0208 2.054 10.321 10 8 4
-0.1617 -3.3151 20.069 74 61 51
-0.18776 -3.2961 19.978 74 60 52
-1.4755 1.9976 13.092 199 186 194
-5.9307 1.993 11.068 132 110 90
-5.9307 1.993 11.068 132 110 90
-9.0684 -2.7806 20.162 86 70 58
-9.0684 -2.7806 20.162 86 70 58
-0.93858 1.811 12.767 226 150 148
-2.5739 1.8925 10.6 15 20 10
-0.45024 -1.8639 20.671 26 20 12
-11.74 -2.3539 24.014 255 239 188
-11.688 -2.2761 23.7 178 146 110
-0.27325 -3.0048 20.914 53 41 37
-1.9548 2.2175 10.369 178 146 127
-2.4779 1.9995 10.035 36 20 11
-10.509 -1.6947 21.654 151 123 98
-1.4616 1.7952 12.074 10 0 0
-1.4616 1.7952 12.074 10 0 0
-7.2796 2.871 16.553 246 229 208
-4.0611 -0.12736 3.9962 11 13 7
-3.8395 -0.28354 3.5233 103 71 60
-3.5315 0.49112 6.5485 198 187 199
-10.23 1.9786 20.678 82 66 51
-5.2717 2.548 19.415 30 21 12
-2.7151 1.9537 13.903 221 22 18
-10.318 -0.36304 21.359 29 15 10
-11.865 -2.9828 25.309 255 255 255
-4.666 2.927 18.308 14 23 0
-0.34133 -3.348 19.932 64 54 62
-12.006 -2.6472 22.89 255 237 188
-10.265 -0.032166 21.293 13 15 15
-10.09 1.2058 21.043 84 68 51
-2.3495 1.7788 13.144 226 207 195
-9.5808 -3.0526 21.678 89 72 60
-9.6048 -3.078 21.753 89 72 60
-12.281 -3.1702 26.586 255 255 255
-0.25448 -3.4458 19.906 84 73 72
-14.11 -3.2193 29.863 255 234 184
-0.19652 -3.4891 19.796 255 255 255
-4.7105 -0.46979 6.9067 255 255 255
-12.066 -2.5756 22.786 165 139 110
-10.127 -2.0746 21.699 255 255 255
-10.164 1.9239 20.706 17 8 0
-10.08 2.0179 20.696 83 67 48
-9.2805 -3.3408 21.605 85 67 56
-10.253 -1.705 21.852 254 229 178
-0.35612 1.2755 18.703 25 17 10
-2.4256 1.8725 13.026 199 190 196
-10.226 -0.034006 21.139 21 18 19
-2.9482 1.6979 12.718 216 33 21
-5.5678 1.4757 9.6409 13 18 8
-5.3547 1.4194 9.4136 10 17 7
-6.2365 1.5292 9.8702 20 10 1
-6.6878 1.6127 10.037 158 131 110
-6.1008 1.5376 9.8006 134 107 87
-5.4717 1.515 9.5672 162 137 120
-12.272 0.22563 21.984 114 118 123
-12.272 0.22563 21.984 114 118 123
-11.901 -2.5371 22.404 177 143 108
-4.6619 2.8182 17.772 18 29 1
-6.9507 1.3851 -1.4164 64 55 60
-11.83 -2.2968 23.925 172 145 117
-6.5625 1.6266 10.072 45 28 17
-5.538 1.6681 9.7206 106 79 66
-5.354 -3.0368 20.703 255 255 255
-5.3538 -3.0347 20.676 255 255 255
-10.48 0.13683 21.554 31 28 29
-10.469 0.13495 21.516 31 28 29
-5.9649 1.5583 9.8376 33 23 17
-3.7169 1.5684 9.1935 140 112 99
-5.4817 1.5475 9.6826 162 137 120
-9.6322 -3.0834 21.92 91 71 60
-9.8976 -3.444 21.78 251 250 255
-11.415 0.27276 19.851 17 14 17
-10.493 2.2096 17.055 26 17 10
-12.184 -3.2838 22.306 101 73 45
-12.055 -3.2207 21.97 101 73 45
-7.0424 1.4253 9.7603 18 13 2
-6.8002 1.5628 10.121 30 19 9
-5.6035 1.5447 9.5802 10 10 3
-0.50069 -3.2242 20.493 255 255 255
-5.0805 -0.21588 5.958 255 255 255
-5.8905 1.4195 9.5238 23 22 12
-4.2732 1.4654 9.5148 48 0 0
-0.38046 -3.3947 19.77 255 255 255
-11.951 -3.1486 21.861 255 236 191
-12.319 -2.6584 22.194 151 127 105
-12.319 -2.6584 22.194 151 127 105
-12.652 0.17125 22.88 48 42 31
-12.248 0.23362 21.897 114 119 115
-12.248 0.23362 21.897 114 119 115
-11.933 -3.2409 21.925 252 237 237
-12.285 -2.8268 22.188 255 239 188
-12.193 -2.8228 22.407 254 226 172
-10.135 1.2834 20.87 25 11 7
-12.177 -2.82 22.395 254 226 173
-12.305 -2.1365 22.194 52 37 26
-5.6182 2.6606 17.313 10 8 6
-5.6182 2.6606 17.313 10 8 6
-6.8557 1.6415 9.9849 10 0 0
-5.3607 1.5092 9.7172 10 14 9
-3.9077 1.3675 9.5634 15 18 4
-6.4219 -1.1025 19.41 78 58 43
-0.42809 -3.324 19.726 67 58 64
-12.516 -2.8154 22.163 129 107 85
-12.325 0.30417 22.02 26 21 17
-12.141 -3.2734 21.532 255 255 255
-12.437 -2.1604 21.873 50 38 26
-12.812 -0.28699 22.138 40 27 17
-12.51 0.27271 21.808 25 15 10
-12.177 -3.2071 21.744 107 88 74
-6.7761 1.6618 9.9248 28 14 11
-2.8799 1.7326 12.976 217 30 22
-5.0125 1.5479 9.5373 12 1 0
-0.44463 -3.2053 20.544 255 255 255
-12.756 -3.3168 22.96 105 86 70
-6.3563 1.5499 9.8756 25 10 4
-0.38611 -3.3603 19.537 77 68 71
-5.5461 -0.58133 7.6802 59 48 51
-12.362 -2.8599 22.405 254 231 189
-12.781 1.2956 21.524 9 4 0
-13.024 0.44464 22.674 86 69 52
-0.38296 2.6846 18.454 33 19 14
-10.318 -0.029147 21.423 26 23 22
-11.845 -2.7222 21.755 254 229 179
-10.88 -2.5469 22.111 255 255 255
-12.411 -3.412 22.553 107 89 84
-12.513 -3.4026 22.547 87 69 65
-13.089 1.2913 22.112 72 53 38
-12.946 1.2704 21.771 72 53 38
-12.359 -2.1524 22.348 48 33 19
-6.7856 1.6994 10.157 134 106 91
-12.273 -3.0435 21.662 139 118 104
-10.746 -2.4792 21.654 255 255 255
-0.11803 -2.0089 21.497 26 17 12
-11.331 -1.9639 24.415 169 140 107
-12.456 0.32849 22.319 25 17 14
-12.61 -3.5034 23.096 117 93 72
-0.54415 -0.66414 19.08 72 58 51
-13.169 0.45251 23.011 85 69 52
-5.297 2.5175 19.159 30 18 10
0.31099 -3.5151 21.115 71 59 55
-0.44459 -1.7651 19.874 3 1 2
-10.984 -0.5565 20.981 47 30 22
-6.3911 -1.2375 20.698 73 58 43
-5.1118 -3.4818 21.472 84 73 72
-11.867 2.0282 22.629 74 62 47
0 0 0 1 0 0 0 1 0 0 0 1 0 0 0 0 0 330 1 0 0
