ply
format ascii 1.0
comment PCL generated
element vertex 1375
property float x
property float y
property float z
property uchar red
property uchar green
property uchar blue
element camera 1
property float view_px
property float view_py
property float view_pz
property float x_axisx
property float x_axisy
property float x_axisz
property float y_axisx
property float y_axisy
property float y_axisz
property float z_axisx
property float z_axisy
property float z_axisz
property float focal
property float scalex
property float scaley
property float centerx
property float centery
property int viewportx
property int viewporty
property float k1
property float k2
end_header
2.2488 -1.3675 10.211 64 29 1
-7.2551 -5.6183 21.225 42 0 0
2.2214 -2.245 9.9883 111 72 2
-4.9759 -5.6682 23.091 66 22 1
-5.3785 -5.9495 28.317 219 165 83
-1.5326 -7.0664 36.202 179 75 4
-1.4801 0.17093 2.1701 65 26 1
2.7307 -1.6372 14.158 219 198 99
2.3346 -0.13764 13.024 255 253 152
-2.7585 0.39565 -3.4756 255 235 135
2.9372 -0.30487 15.035 255 253 152
-3.6645 -2.1859 30.809 202 162 67
-3.545 -2.1078 30.905 151 114 20
2.6462 -0.43272 14.086 255 253 152
2.513 -0.33697 13.628 124 132 53
-5.7114 1.5897 -16.099 124 132 53
-1.3356 -0.54127 27.329 112 92 52
2.9974 -0.82123 19.544 52 20 0
-2.0195 -0.35145 26.721 78 53 9
-6.44 -0.056498 23.09 185 108 18
-2.3613 0.29359 -2.1906 255 253 152
-2.0251 0.96986 24.183 43 25 0
-6.5359 0.81086 14.899 87 42 3
2.6392 2.4889 14.423 59 32 1
2.6428 2.9151 14.518 60 34 1
2.5719 4.5061 22.797 142 125 57
2.6792 2.781 14.623 60 34 1
-6.5815 -0.12864 14.744 127 99 16
-1.366 2.7834 10.037 37 20 0
10.008 -4.7131 29.82 67 33 1
-7.9366 -5.4402 19.206 243 167 58
-7.8557 -5.5188 19.46 242 165 54
-7.5604 -5.2673 18.654 242 165 54
-8.2505 -5.1944 18.754 146 84 3
1.1753 -5.3083 20.073 14 0 0
2.9763 -5.0007 19.858 120 124 69
2.3106 -2.2316 10.243 102 71 2
-5.4225 -5.6567 24.943 79 61 1
1.3941 -5.5478 24.808 147 124 72
3.8607 -5.4619 26.247 153 127 79
-3.7267 -6.3219 30.66 196 148 39
-2.6918 -6.0208 29.295 192 147 39
-2.6918 -6.0208 29.295 192 147 39
-8.1528 -3.7671 21.454 52 20 0
2.7288 -1.8439 13.714 146 107 21
2.7031 -1.8288 13.618 146 107 21
2.3038 -1.145 10.385 66 33 1
2.6042 -1.5914 13.762 219 198 99
2.7042 -1.577 13.939 91 60 2
0.90381 -4.4791 35.308 91 59 2
2.7757 -1.6772 14.121 91 60 2
2.3278 -0.75286 10.384 128 96 23
-4.8412 -2.3112 26.26 225 199 123
-4.8125 -2.2906 26.047 225 199 123
2.3672 -0.41048 13.074 186 161 58
-0.71167 -1.9081 29.165 44 29 0
2.2188 -0.42983 10.391 142 103 16
-0.68159 -1.4103 28.799 38 26 0
-2.282 0.28978 -3.262 186 161 58
-2.282 0.28978 -3.262 186 161 58
2.342 -0.45023 10.713 142 103 16
2.68 -0.037095 14.049 186 161 58
-2.2935 0.29164 -3.3154 186 161 58
2.8232 -0.82489 14.337 186 161 58
1.0869 -0.81543 27.394 66 68 1
-5.7063 -0.6875 25.164 122 94 16
-2.2951 0.29308 -3.323 186 161 58
-2.2955 0.31117 -3.3255 186 161 58
-2.3 0.28854 -3.346 186 161 58
-3.1351 -0.52535 35.953 200 145 45
-7.4316 -0.086291 22.654 74 55 1
1.898 -0.18596 11.656 255 253 152
-7.0146 0.81979 -17.319 255 253 152
-7.4157 0.46809 22.684 62 51 8
-2.3242 0.11132 -3.4592 186 161 58
-1.9203 0.22939 -0.37087 55 25 1
2.0691 -0.30032 12.827 124 132 53
-1.6923 0.61623 -1.3885 58 15 1
-1.6923 0.61623 -1.3885 58 15 1
-4.3594 0.97966 25.933 91 70 21
-2.6885 0.33616 5.2407 130 86 3
-2.3096 1.0387 23.914 143 126 49
-1.9424 1.0511 24.101 154 137 61
2.7856 0.51782 14.28 255 253 152
2.5967 0.69904 13.926 55 25 1
0.42554 -0.97958 13.904 124 132 53
2.9082 0.73348 14.843 55 25 1
2.9406 0.21705 14.849 55 25 1
-1.9144 0.22887 -0.35559 55 25 1
-7.9288 3.4734 29.142 34 14 0
-6.935 3.3625 26.549 158 133 73
-6.9054 3.3448 26.409 158 133 73
-7.0664 3.3979 26.325 174 135 69
-7.0445 4.6363 25.727 70 57 23
-7.6699 5.0303 23.693 96 60 2
-5.5059 4.7343 19.498 142 106 29
-5.4407 4.6725 19.223 142 106 29
2.7427 -1.5836 14.019 91 60 2
-1.4398 0.7696 3.2127 37 20 0
2.4095 5.1417 18.763 60 38 1
-0.70907 3.5275 14.355 48 28 0
2.8391 -3.7197 13.775 254 225 106
-4.9878 -6.553 23.2 52 14 0
2.6413 -3.3617 13.172 254 225 106
-4.9807 -5.5844 20.337 254 218 135
2.6674 -3.3793 13.234 254 225 106
-8.1139 -5.3032 21.086 206 153 49
-6.9617 -5.5489 22.619 51 0 0
-7.1581 -5.7471 23.364 51 0 0
-6.8899 -6.2199 25.631 244 196 104
-6.7647 -5.6014 23.705 44 0 0
-6.6388 -6.2306 30.243 255 255 120
-1.6677 0.00049936 2.0843 58 15 1
-3.7359 -5.5194 31.047 109 57 2
2.677 -1.6413 13.81 91 60 2
2.6691 -1.7911 13.747 91 60 2
2.311 -1.0597 10.416 63 33 1
-2.7136 -4.3953 35.11 77 56 1
1.026 -3.7273 32.825 145 106 20
2.2624 -0.87731 10.309 51 22 0
-0.64485 -2.9384 29.093 115 74 2
0.79181 -2.6667 30.274 38 15 0
1.1214 -2.7059 30.645 17 7 0
2.2625 -0.62527 10.349 67 37 1
-5.4259 -1.4017 19.964 216 181 90
-5.451 -1.2837 19.102 149 110 34
2.3005 -0.55348 10.463 59 28 1
-3.3807 -2.1554 30.836 197 174 69
2.3127 -0.42453 9.8215 64 29 1
2.29 -0.46347 10.445 57 26 1
2.2339 -0.37252 9.424 68 34 1
2.1591 -0.32413 9.0368 66 34 1
2.2821 -0.38024 10.438 56 29 1
7.5836 -0.60571 24.166 55 25 1
6.1296 -0.66932 21.339 55 29 1
0.9459 -0.88929 27.05 203 201 124
0.70665 -0.77421 26.385 18 10 0
0.89723 -0.70478 27.077 175 175 91
-0.82663 -0.66504 28.16 30 20 0
-2.6644 -0.87659 35.404 160 121 37
-1.2069 -0.57692 27.692 97 79 37
-6.293 -0.80651 37.137 255 255 255
2.3094 -0.054572 10.569 55 29 1
-6.7411 -0.59717 31.647 80 39 1
-6.743 -0.60574 33.895 68 36 1
-7.3861 0.27393 22.563 90 69 2
-1.3016 0.33032 27.397 34 31 0
-7.516 1.6639 28.31 33 9 0
-8.4344 1.5117 19.451 45 0 0
-8.3598 1.5014 19.263 45 0 0
-8.0623 2.3465 23.613 49 18 0
2.7509 0.93754 14.614 124 132 53
-7.8954 5.0495 23.728 111 68 9
2.519 5.3729 22.293 206 174 70
-5.8879 5.1553 21.172 142 106 29
-5.8879 5.1553 21.172 142 106 29
0.96844 5.6287 19.818 48 28 0
-1.9356 5.1963 19.343 37 23 0
-4.9704 5.2089 19.043 77 55 14
2.4445 4.9862 18.099 58 42 1
-2.482 5.9019 21.077 27 14 0
-4.5153 -7.6484 27.154 88 74 42
2.4962 -3.7162 14.429 255 255 223
-6.7516 -6.223 25.905 32 0 0
-7.0695 -4.5003 19.846 16 6 0
1.3451 -5.6609 24.67 23 8 0
-4.6864 -6.4863 31.617 255 245 123
-1.0575 0.6392 -1.5899 65 26 1
3.7662 -4.6084 25.683 110 81 21
-3.737 -5.5491 31.209 109 57 2
-2.9479 -6.14 35.526 254 210 89
3.7668 -3.1717 25.8 88 74 4
1.259 -4.0011 33.59 105 95 23
4.3575 -5.7393 47.752 59 56 20
-3.7287 -3.3419 31.347 74 49 10
-0.68625 -2.7578 29.204 192 161 53
2.391 0.024944 10.782 55 28 1
-2.5556 0.19518 -2.0335 55 28 1
-6.636 -0.59369 33.242 68 36 1
0.94077 -0.31004 27.468 61 57 9
9.8036 -0.49449 31.889 54 28 1
3.8078 0.19343 26.567 74 50 1
-2.7141 0.1727 -2.438 55 29 1
2.9805 1.1482 40.496 84 51 1
4.5165 1.4011 46.415 124 90 26
4.9516 1.6349 41.098 159 116 37
2.5592 2.8954 37.517 108 66 9
2.6052 1.932 13.855 217 195 99
-0.29742 5.0823 28.537 86 58 9
2.5574 4.4432 22.094 10 10 0
-7.4304 5.053 23.405 15 7 0
-8.0196 5.0854 23.385 41 19 1
-3.4414 3.8504 17.016 18 10 0
2.9364 5.0795 22.344 7 0 0
-7.3514 -4.2032 16.076 149 98 12
-6.0354 -4.6143 19.691 255 254 255
-4.6249 -5.9985 26.765 191 135 32
-5.0393 -6.2504 29.076 187 150 44
-6.7585 -6.0587 29.417 87 51 1
2.613 -1.0931 13.999 255 255 137
-1.2747 -6.8814 35.618 166 60 4
-0.32556 -6.6225 34.353 168 37 4
-0.30375 -6.7939 35.194 168 37 4
2.1601 -5.898 30.807 71 36 1
-6.6287 -5.2477 28.446 148 106 13
-6.1064 -6.539 36.549 81 45 1
-3.6792 -5.1812 35.01 168 118 24
4.9701 -5.6158 45.68 83 72 30
5.2866 -5.9106 47.99 83 72 30
3.0621 -2.1282 18.92 188 171 93
0.71623 -3.8684 35.165 172 127 26
1.1074 -3.6121 34.641 34 0 0
-3.705 -0.62549 37.395 224 156 35
-3.705 -0.62549 37.395 224 156 35
-1.4446 0.60073 27.044 44 33 0
-8.4813 0.62545 21.957 86 51 1
-8.4308 0.81984 20.339 114 71 2
-7.13 1.3308 30.092 16 6 0
-3.0615 2.3132 15.784 29 30 0
3.081 4.0067 22.639 22 18 0
2.7118 2.4073 13.414 38 23 0
-4.6027 4.8246 19.756 158 111 17
-4.6027 4.8246 19.756 158 111 17
-1.973 4.9245 20.08 47 28 0
-0.62882 3.369 13.687 80 53 3
2.3025 2.9456 11.29 148 119 43
2.3757 4.9062 18.256 255 255 217
2.3934 4.9276 18.33 255 255 217
-7.0114 -5.7413 27.886 25 11 0
-7.0114 -5.7413 27.886 25 11 0
-3.2904 -6.8385 32.999 255 255 255
-6.0466 -6.717 34.63 120 75 9
-0.26243 -5.9574 35.166 255 239 116
-0.61732 -5.4612 33.946 36 44 12
0.15709 -4.9978 31.321 11 10 0
-4.1397 -5.2819 37.617 108 46 2
0.8072 -4.1366 34.186 121 92 6
-2.9121 -4.0811 35.8 164 115 24
3.2224 -1.9268 20.815 255 251 161
4.0996 -0.94684 33.071 227 203 96
-5.6187 -0.77452 41.42 255 255 251
-5.6187 -0.77452 41.42 255 255 251
-7.512 0.61247 23.285 51 50 3
-7.512 0.61247 23.285 51 50 3
-7.1901 2.1113 29.14 119 82 16
-7.7189 1.9537 23.234 112 70 5
-7.2511 2.7483 29.48 95 57 5
-9.0439 3.1395 22.453 10 2 0
2.2525 1.9094 10.692 89 65 9
3.1168 4.2089 21.797 11 12 0
-1.6596 4.6442 21.091 23 10 0
-4.4012 4.5369 19.592 181 136 34
2.7833 4.7314 19 15 10 0
-5.2838 5.4087 21.397 7 0 0
-2.6435 6.123 21.176 13 6 0
-4.7727 -6.1543 23.978 254 223 104
3.0759 -4.5902 19.973 103 104 50
-3.5431 -6.1457 31.189 167 117 21
-1.6271 -5.5592 34.966 18 33 0
4.9069 -5.2831 47.803 164 132 53
-3.9953 -2.7318 30.628 25 22 0
-4.4064 -2.2878 30.139 188 153 28
-4.4077 -2.2884 30.151 188 153 28
-2.4697 -0.94456 31.087 156 119 24
-2.1979 -0.097559 30.284 64 40 1
-4.0781 0.524 32.392 80 44 1
-0.72917 4.5202 25.494 161 118 34
-4.9018 4.6951 21.539 23 10 0
2.2233 5.1519 18.571 34 20 0
2.3717 5.3742 19.34 34 20 0
-7.4595 -5.2476 21.039 48 36 7
-0.2632 -6.1226 34.841 249 199 82
3.5362 -3.1246 21.151 227 205 130
-1.6781 -3.5785 31.513 228 182 66
2.653 -1.3308 13.447 131 91 10
-4.0453 -3.3286 30.731 123 104 34
4.4449 1.1227 36.113 138 83 11
-4.5098 1.2298 25.92 26 21 0
-7.6202 2.8825 27.569 101 64 4
-0.68171 2.6442 24.875 159 116 30
-0.034844 4.1175 29.11 117 83 26
2.7197 2.2862 14.261 39 21 0
-1.2 4.8472 26.865 32 17 0
2.5132 5.0833 23.457 156 129 46
2.747 3.6687 15.612 150 119 33
-5.1854 5.3536 20.808 13 6 0
-1.9654 5.1169 19.848 20 12 0
1.5255 -4.7788 22.747 189 161 74
-4.4056 -5.9807 33.821 207 146 28
-7.4868 -4.4644 27.23 168 116 21
2.934 -2.3663 16.729 130 103 18
-4.1695 -4.4019 31.056 254 218 130
-5.1148 -3.8669 33.44 60 42 5
1.9991 -2.6256 29.498 115 130 53
-1.5114 -2.7512 31.191 39 38 3
-1.1577 2.4435 27.555 47 18 0
-7.8666 2.4551 24.298 19 13 0
-8.6831 2.9983 22.824 15 6 0
-1.1927 3.4007 24.77 49 19 0
-3.3058 -5.5425 32.142 113 73 8
1.0439 -5.9979 35.325 254 219 142
1.0407 -5.9924 35.302 254 219 142
-5.8168 -4.4484 31.626 189 130 21
4.0133 -3.0748 32.832 52 50 1
-2.3948 -1.9495 30.667 193 167 66
-5.6358 -1.6197 36.017 133 91 10
4.0641 0.47552 43.343 140 99 29
1.4724 4.604 36.591 228 175 69
-2.3606 4.4738 18.481 215 178 60
-6.0887 -6.4228 30.927 255 255 164
4.2518 -6.139 33.052 82 39 1
4.0756 -9.1301 48.611 159 110 24
-5.3619 -5.7662 33.591 36 10 0
-5.4379 -5.8708 34.238 36 10 0
-7.7423 -4.3316 38.046 91 57 8
1.3314 0.92934 29.707 195 156 53
-7.7978 -4.8575 26.986 150 98 14
-6.9225 -4.2639 28.253 255 255 208
-3.1845 -3.4267 33.131 30 21 0
-2.3347 1.4736 22.836 57 40 1
2.2468 -1.4308 29.434 242 223 110
0.090048 -1.3045 28.326 33 23 1
-2.7954 -0.85649 35.547 172 135 45
-7.3568 -0.22797 25.72 158 140 94
-8.225 -2.0071 24.744 44 25 0
0.77271 4.4639 24.532 156 121 38
-7.637 -4.9832 16.766 254 185 87
2.8436 -3.6052 13.897 195 160 42
-3.2499 1.169 -2.2335 247 188 70
-7.0045 -5.1616 18.252 255 241 147
-1.7479 -7.1538 25.399 80 72 42
-7.0543 -5.0395 18.253 26 0 0
-7.103 -5.4526 20.625 39 6 0
-25.814 14.584 -51.706 141 128 49
-4.6902 -6.7072 25.688 39 0 0
-5.3729 -5.2798 21.086 152 19 3
-5.5088 -5.5487 22.115 187 39 11
-8.2704 -5.1309 20.522 145 90 3
2.8277 -3.1412 14.066 155 115 16
-8.2513 -4.9365 20.299 159 100 10
3.4772 -4.7294 20.424 251 227 129
3.4769 -4.472 20.453 255 236 138
0.06447 -6.3328 31.828 255 255 146
-0.27957 -6.9451 35.313 174 32 4
-1.3182 -0.43859 5.3747 255 255 168
5.5564 -7.7 45.845 173 144 66
5.5196 -7.6515 45.572 168 137 61
6.8295 -7.1632 27.98 152 118 11
-0.78265 -5.58 35.388 159 255 143
2.7872 -1.747 14.262 200 176 70
-1.6803 -4.8071 34.791 1 21 0
-2.5956 -4.6993 34.984 139 106 13
3.1749 -2.3869 17.501 141 114 31
2.8132 -1.6141 14.057 157 126 28
-7.4656 -3.6203 30.028 255 248 164
-3.7884 -3.7296 31.373 48 14 0
-7.4214 -3.3151 29.823 162 141 45
2.8257 -1.3416 14.275 91 64 2
2.793 -1.2699 14.036 197 166 64
2.8619 -1.2858 14.233 203 174 77
-1.5079 -3.3264 31.261 219 171 68
-1.1362 -3.2397 30.566 195 145 50
3.6744 -2.3893 24.133 135 120 13
-4.1217 -3.0705 29.469 104 112 32
4.1072 -2.9407 31.757 50 45 1
1.1911 -2.6442 28.734 71 76 8
3.788 -1.7521 24.315 207 187 73
2.572 -0.92193 12.89 163 131 38
1.3359 -2.4814 29.478 97 99 23
-1.0371 -2.527 30.62 66 67 8
1.4452 -2.2279 28.541 115 109 30
-7.546 -2.2947 30.507 112 91 27
-5.4488 -1.3412 19.478 27 11 0
-5.4488 -1.3412 19.478 27 11 0
-2.9138 -2.2245 31.123 190 155 58
-2.4836 0.92179 -1.7606 71 28 1
-0.90596 -1.2895 28.59 64 60 5
-3.8698 -0.15972 33.573 189 143 62
-0.73393 -0.014316 29.29 97 88 36
-0.73393 -0.014316 29.29 97 88 36
-3.5874 0.31717 36.63 110 37 2
3.7032 0.58527 24.206 47 16 0
-1.18 0.75178 27.007 133 108 40
-1.0277 0.77444 27.715 130 108 40
-1.6784 0.48307 3.6788 180 152 70
-1.8789 0.24484 3.7146 52 22 0
-2.2441 0.94805 24.333 66 49 1
-7.2866 1.5764 29.09 48 10 0
-7.7563 1.9186 26.551 55 16 0
-6.9189 1.3232 14.405 208 157 63
-8.183 2.5199 22.278 57 27 1
3.3706 3.1092 21.314 182 154 61
2.7868 2.2783 14.633 115 92 23
7.747 6.7522 36.879 177 142 46
2.4739 4.3937 22.242 135 117 57
-2.3558 3.7073 17.032 18 8 0
-5.2018 4.7301 21.201 70 39 1
2.6868 5.5893 22.585 91 72 14
2.4696 4.7179 18.384 230 221 161
2.2916 5.1707 19.782 131 106 40
-1.9174 5.5481 20.178 255 255 196
-2.4942 5.5817 17.885 37 26 0
-2.7765 0.84809 -1.7383 135 94 15
2.8837 -3.7065 13.602 99 73 2
2.701 -3.5577 12.974 181 164 60
2.7977 -3.7405 13.934 228 195 72
2.7865 -3.643 13.912 216 183 63
-5.4005 2.8608 -7.9922 126 101 35
-2.1882 1.0041 -1.7648 74 48 2
2.7937 -3.4711 13.95 203 163 53
2.6612 -3.3729 12.92 177 152 52
2.8105 -3.3066 14.006 191 151 45
-8.2916 -5.0186 20.304 223 169 61
-8.2748 -5.0891 20.753 212 161 49
-5.9027 -6.2633 29.436 255 255 255
-0.060766 -5.9606 29.2 221 180 72
-2.6866 -5.9613 29.034 182 144 39
3.0188 -6.3916 32.175 120 81 13
3.5163 -6.3188 31.859 116 80 18
-5.4278 -6.3057 35.727 252 28 39
2.7747 -2.0303 13.772 148 106 24
-0.40949 -5.8081 35.314 22 10 0
-1.2767 -5.5482 35.034 182 255 178
-3.1752 -5.0446 35.903 136 86 6
2.8493 -1.5489 14.112 172 132 41
-5.3839 -2.3975 19.138 44 26 0
-5.3839 -2.3975 19.138 44 26 0
-6.9673 -4.0782 31.456 238 209 107
-7.4272 -3.8375 29.894 255 245 150
-3.7896 -0.97016 9.2544 255 255 165
2.8089 -1.5001 14.209 73 45 1
-5.6596 -1.952 17.47 176 154 85
-9.0921 -3.5865 30.377 109 72 12
-7.6042 -3.5135 30.117 41 26 0
2.7541 -1.3936 14.238 250 231 132
2.3307 -2.9766 12.75 210 172 66
2.7862 -1.6073 14.003 157 126 28
2.6763 -1.2849 14.003 255 246 145
2.7836 -1.2352 14.168 128 99 10
2.7773 -1.2292 14.325 255 245 144
-0.86997 -2.6715 29.699 66 62 1
-0.8723 -2.6576 29.626 60 54 5
4.2411 -2.7913 31.75 197 173 52
-0.64728 -2.5523 28.796 37 25 0
-5.5092 -3.0597 34.154 228 201 124
2.7932 -1.05 14.377 255 254 155
-6.2108 -2.889 32.836 55 42 1
2.4177 -0.78565 11.829 147 111 34
-0.94008 -2.5279 30.08 162 160 62
-0.94021 -2.5182 30.031 158 159 81
-6.0778 -2.7771 33.211 196 177 104
-7.4549 -3.2934 40.255 181 131 31
2.6753 -0.94134 14.05 255 255 161
-0.68152 -2.2984 28.561 49 34 1
0.86184 -2.4054 30.187 36 19 0
0.86184 -2.4054 30.187 36 19 0
2.8177 -0.91163 14.308 109 81 2
-0.67926 -2.1228 29.101 44 31 0
2.4585 -1.1985 19.43 177 140 49
-3.6662 -2.1835 30.799 184 149 52
-0.72431 -1.8575 28.525 30 18 0
1.0967 -1.949 30.406 25 15 0
1.0857 -1.9482 30.368 22 10 0
-0.68673 -1.6689 29.067 25 12 0
-0.68673 -1.6689 29.067 25 12 0
-0.68112 -1.6728 29.187 25 12 0
1.1173 -1.3297 28.253 7 0 0
2.8648 -0.59383 14.322 255 246 151
0.992 -1.2795 27.511 16 8 0
2.7601 -0.6549 14.024 251 235 130
-0.74149 -0.93131 28.984 20 13 0
-3.9423 -0.65267 32.35 79 28 1
3.5159 0.54866 -29.552 255 255 234
3.7651 0.058415 25.931 220 194 90
-3.2664 0.18131 5.901 82 68 1
-11.19 0.3649 38.033 73 54 5
3.6498 0.56422 23.541 225 198 104
-0.40001 0.92199 32.809 137 115 40
4.1104 1.2443 31.156 215 164 43
4.2595 1.3177 31.212 255 255 255
-2.7968 0.088529 -4.0754 255 255 255
0.25083 1.0583 24.632 137 120 45
0.05729 1.0628 24.493 135 116 43
-2.1313 1.0561 24.368 150 132 60
-6.6862 1.542 34.915 134 84 16
3.0949 1.702 18.033 148 121 31
-6.9981 3.2336 26.091 19 0 0
3.6476 3.6573 26.844 120 85 11
-7.0641 3.3977 26.335 181 138 51
3.3398 2.9067 21.157 171 150 55
2.7741 2.1136 14.424 34 11 0
0.73684 -1.1729 10.33 255 255 184
3.643 4.1643 28.12 206 175 71
3.4633 3.2737 21.714 174 151 59
-7.0011 3.6521 25.398 64 49 12
3.1738 4.3065 28.477 232 193 88
3.1738 4.3065 28.477 232 193 88
3.858 4.4983 28.797 216 183 63
3.858 4.4983 28.797 216 183 63
-2.89 2.8223 16.112 67 66 27
-7.0239 4.6086 25.637 63 49 12
2.8084 3.0594 16.05 152 118 33
-3.1951 1.0678 -3.0988 255 255 185
-7.8207 5.1652 23.688 29 15 0
-4.5683 4.7221 21.036 89 57 1
2.4219 2.8987 11.878 42 9 0
-3.1604 4.9865 19.528 11 2 0
3.1045 5.0368 18.616 123 98 21
3.815 5.4543 19.696 117 90 15
2.7195 5.0922 18.35 133 117 48
2.4153 3.6281 14.16 140 112 31
-0.98817 -2.866 14.582 197 161 46
-0.92425 5.576 19.252 91 61 8
2.741 4.4449 15.047 59 33 1
-1.948 0.72245 -2.0959 150 106 10
2.3868 3.9568 12.397 131 100 21
-4.6929 -6.2806 21.952 83 58 16
-7.7873 -4.7812 17.112 192 125 43
-20.793 10.63 -40.948 216 187 78
-5.5137 -4.7878 17.933 224 178 96
-7.6302 -4.7443 19.65 182 130 41
-4.8815 1.9458 -5.9345 109 81 2
2.0577 -5.5088 24.229 36 22 10
2.1411 -1.9442 10.016 160 120 22
-24.561 10.492 -51.709 80 43 1
1.0509 -5.921 27.184 161 141 75
-3.7062 -6.3116 30.841 198 147 37
1.6195 -6.3333 32.855 56 27 1
2.6702 -2.1401 13.451 136 91 3
-8.0411 -2.9477 21.187 57 19 1
-4.2734 -3.8699 29.826 207 186 104
-8.8225 -3.8454 29.985 67 45 21
-7.6287 -3.74 30.244 48 28 0
3.4869 -2.7712 24.542 255 254 158
1.1601 -3.9607 34.823 153 114 31
-1.3901 -3.1993 30.003 201 156 51
-7.5828 -2.9981 30.893 133 121 40
-5.1513 -1.7367 22.135 186 157 75
-5.4933 -1.2963 19.185 206 183 99
1.0895 -1.7527 27.935 27 20 0
-5.8759 -1.0609 18.018 39 25 0
0.97335 -1.0937 26.688 206 199 119
-1.0589 -0.95239 28.033 84 78 10
5.6511 -1.0918 49.342 130 91 3
4.2145 -0.60849 33.238 174 114 8
4.2147 -0.60632 33.198 179 120 18
-1.549 -0.43533 27.119 255 249 234
-1.549 -0.43533 27.119 255 249 234
-6.0401 -0.49604 27.517 87 51 1
-0.93071 -0.41301 27.813 32 25 0
-6.7608 -0.57371 36.395 254 221 96
2.7736 -0.66077 14.102 246 225 125
-1.1692 0.07681 27.703 46 44 1
5.3632 0.69026 50.217 105 62 6
2.8483 -0.086085 14.302 255 242 149
0.17726 0.69287 26.696 25 10 0
0.30134 1.1639 24.167 20 17 0
3.3708 1.1467 20.805 41 18 0
-3.6154 0.21587 6.5334 90 66 2
-2.4659 0.88193 -1.2835 130 87 10
2.4735 4.1286 21.914 33 25 0
2.6985 2.8945 13.255 134 118 35
-7.8774 5.0352 23.663 109 65 2
-7.7173 5.0527 23.166 33 24 0
3.2451 5.0537 21.701 114 91 20
-1.6348 5.2046 21.103 45 29 7
2.4803 2.9634 11.86 136 109 39
-3.6417 5.1859 20.117 160 143 81
2.7896 4.9963 18.41 59 36 1
2.336 3.0271 10.86 96 80 25
-1.9293 6.0428 21.418 50 35 7
2.4807 3.2105 11.233 105 83 24
2.9178 -3.508 14.305 123 88 3
-2.6669 5.5391 17.993 12 3 0
-2.448 5.776 18.109 4 0 0
-2.448 5.776 18.109 4 0 0
-4.4982 -6.7328 23.273 117 103 56
-4.4982 -6.7328 23.273 117 103 56
-6.4453 -5.0732 18.021 254 214 81
-6.9633 -5.7262 22.739 254 228 113
1.4251 -6.2604 27.877 159 132 73
-26.886 11.489 -58.367 170 136 66
-7.2465 -5.6085 27.814 157 107 18
0.63296 -7.0147 36.482 158 49 3
3.0214 -3.0912 18.74 69 43 1
-0.88721 -5.7776 35.366 22 53 0
-3.5124 -4.9405 35.121 85 45 5
-1.7555 -4.7002 34.684 72 58 9
0.57146 -4.1509 34.846 131 96 4
-1.4139 -3.321 30.697 218 172 49
-1.0507 -2.8627 30.376 203 184 94
2.8351 -0.92868 14.108 233 219 118
-1.0853 -1.2897 27.715 160 157 67
0.28694 0.65073 24.389 59 57 12
5.6058 1.3211 45.266 71 39 2
3.2888 1.1089 19.922 216 198 114
-7.0766 2.2399 29.97 14 2 0
-6.6959 2.5946 33.842 32 9 0
3.1301 1.6545 17.838 30 10 0
-7.9069 2.2647 23.988 10 3 0
-2.887 1.7667 16.596 10 12 0
3.1709 2.0976 17.653 159 143 56
-2.1882 2.0703 16.332 10 12 0
3.8076 3.5638 27.102 255 241 149
-1.9238 2.5871 16.749 13 15 0
-8.5499 3.0265 16.76 89 64 9
-5.2636 4.5244 20.479 60 32 1
-2.5316 -0.53988 -1.8634 163 137 94
2.9065 4.0304 16.796 19 11 0
-2.7435 4.3679 18.003 16 7 0
-3.6916 4.9401 19.703 2 0 0
-2.278 5.5946 21.556 20 10 0
2.1676 4.8125 18.409 255 243 167
-10.481 -6.638 -22.353 154 119 37
-3.0443 5.3923 19.514 71 62 29
-0.81591 4.0056 14.13 93 64 2
-0.18019 4.8142 16.614 74 51 5
2.4633 3.9659 12.539 137 109 29
-0.58336 5.6258 17.613 19 1 0
-8.1593 -5.3507 19.168 188 125 13
2.6492 -3.9181 16.895 160 147 66
2.6338 -2.7064 12.099 116 101 30
-4.1008 -6.1228 27.91 145 101 18
2.353 -5.1582 24.394 137 107 34
-5.2639 -5.9855 27.8 194 150 43
-6.941 -5.7084 28.64 163 117 24
-1.2754 -6.8944 35.676 191 44 10
-3.1629 -5.886 33.325 84 48 1
3.5705 -3.4466 23.96 255 255 159
-0.50543 -5.2636 35.245 10 26 0
-1.3818 -5.1668 35.88 191 255 226
-3.7308 -4.4355 31.822 123 39 4
-1.0674 -4.9509 35.448 139 123 59
2.9796 -1.8843 18.441 255 255 178
-2.5045 -3.5982 33.81 28 0 0
3.6564 -2.4581 24.92 245 228 120
5.337 -4.6917 45.424 149 137 53
2.8344 -1.1317 14.044 224 212 116
3.6992 -1.6118 25.211 225 200 91
-6.2444 -0.39377 26.672 87 58 1
5.4513 0.87171 44.134 169 132 52
-8.2675 0.61232 21.303 90 53 1
-7.2001 2.1149 29.161 111 72 13
3.0512 1.8762 16.896 37 15 0
-2.3232 2.0035 16.218 64 68 18
-2.3245 2.0213 16.344 64 68 18
-0.57804 4.8232 25.323 47 31 0
-0.57197 4.8402 25.414 47 31 0
2.6321 4.8612 22.391 1 0 0
3.2716 4.8683 20.64 255 245 154
-5.5393 4.8079 19.911 159 107 22
-5.7474 5.0766 20.945 156 107 16
2.8197 4.1909 16.596 14 10 0
2.4101 3.1664 11.529 137 108 33
-4.5459 -6.4426 27.538 33 2 0
-0.16248 -6.3768 31.721 255 255 147
-4.7889 -6.2589 32.087 133 84 13
-0.82676 -5.2773 35.298 156 255 58
2.9806 -2.1142 18.553 201 188 99
2.7334 -1.9896 17.671 201 188 99
0.91755 -4.3592 35.953 125 99 14
4.9965 -4.7075 39.498 177 142 57
-5.3291 -3.2623 29.784 99 69 9
2.6898 -0.95501 12.605 200 163 51
-4.948 -1.8368 24.15 62 52 10
-5.909 -0.91425 27.085 119 77 4
-3.3008 -0.84454 30.891 144 107 17
1.9676 1.7874 31.404 125 86 26
-7.3424 1.6511 28.13 16 7 0
-7.2579 2.7467 29.483 79 43 1
3.1058 2.2359 19.55 97 83 14
-0.26636 4.6251 26.833 93 62 11
-2.4615 3.8387 17.192 15 11 0
2.3273 2.4537 10.705 144 120 48
2.3989 2.9127 12.439 64 54 12
2.3938 2.6684 10.848 13 3 0
-1.8112 5.9587 20.832 30 17 0
-2.5396 5.7491 19.938 9 1 0
-7.5941 -4.923 18.169 23 1 0
-4.0855 -0.49961 31.877 79 35 1
-4.1006 -0.5046 32.109 79 35 1
-6.2172 0.13041 20.842 149 92 6
-6.2172 0.13041 20.842 149 92 6
-7.2286 3.4177 25.295 1 0 0
2.8197 2.6718 14.084 152 134 48
1.0129 5.5145 21.341 92 66 15
1.0128 5.5124 21.342 92 66 15
-4.5273 -5.5304 19.326 26 25 0
-6.795 -5.6591 29.718 118 80 7
-3.4259 -2.0966 30.829 198 167 63
1.0425 -1.7288 28.844 114 103 57
-4.8149 -0.041328 29.496 55 43 1
3.5253 0.31164 23.475 216 192 95
-4.2896 0.90601 29.122 111 85 21
-2.534 0.94239 26.705 99 72 2
-0.3996 0.88398 23.717 116 98 24
-0.3996 0.88398 23.717 116 98 24
3.1076 2.8691 22.052 104 86 18
2.9543 4.2658 17.203 36 26 1
-3.4071 -6.4214 22.323 104 87 36
-4.5427 -7.2 26.849 2 0 0
-7.5336 -5.3118 24.554 148 92 12
2.6518 -2.6556 15.529 55 36 1
-3.4074 -5.8105 33.585 111 68 9
3.1083 -3.3451 21.218 48 29 0
4.4783 -4.4076 33.221 130 89 9
4.7183 0.010536 36.542 159 90 6
0.23852 0.45672 25.3 74 71 31
4.5403 1.1697 36.596 142 79 9
2.6708 2.4345 15.023 164 136 40
2.6708 2.4345 15.023 164 136 40
2.5976 3.0522 14.965 138 107 20
-4.9694 5.0158 21.207 171 123 21
-1.911 5.8476 19.694 14 8 0
4.1472 -3.1147 28.589 255 255 157
4.0749 -3.1105 33.129 66 72 12
-3.0066 -0.25458 37.028 255 255 236
-7.1531 2.5735 24.364 94 61 2
-7.143 2.5565 24.316 98 66 4
-6.4799 -4.9209 21.336 204 147 45
-6.4799 -4.9209 21.336 204 147 45
2.476 -2.244 15.279 119 91 12
2.476 -2.244 15.279 119 91 12
-5.7263 2.2683 31.223 102 59 2
2.3531 2.6017 11.836 140 103 16
2.6309 3.1438 13.873 29 19 0
2.6309 3.1438 13.873 29 19 0
-0.2836 5.1635 19.396 85 59 11
-0.2836 5.1635 19.396 85 59 11
-0.63126 5.2078 17.315 236 202 81
-0.48599 5.7422 19.059 236 202 81
-3.9614 -6.4362 24.959 40 40 9
-8.4314 -4.1195 18.017 107 66 10
2.8497 4.6389 22.262 23 23 6
0.053977 5.7461 25.903 159 125 43
0.58676 5.7027 21.092 91 68 16
-3.0197 5.7011 20.276 23 15 0
-5.3544 -3.1783 28.447 59 40 1
-7.1455 3.9586 23.496 2 0 0
-8.0061 -1.9024 23.795 42 23 0
-1.346 -6.5154 31.417 255 255 163
2.1522 -0.62014 14.663 255 240 125
-4.5264 -2.423 10.167 67 9 1
-2.8325 2.1014 -5.9501 94 48 1
-5.3751 -5.5672 21.647 45 5 0
2.8869 -3.1805 13.999 104 67 2
2.3302 -5.7811 25.333 40 26 1
-0.67768 -5.0829 34.328 2 31 0
-5.094 -0.6655 27.133 157 113 24
-3.8343 -0.68151 32.806 254 202 102
-3.9956 -0.68113 33.637 77 33 1
-1.4918 0.33134 13.711 105 97 38
-1.4944 0.32855 13.689 105 97 38
-1.056 0.40768 19.153 103 94 39
-0.88553 0.42798 20.451 111 102 48
-1.4446 0.48844 14.8 149 126 46
-4.5857 -0.72419 -33.443 137 118 49
4.6552 1.3979 34.639 206 154 45
3.1584 4.305 21.609 42 29 0
-2.3566 3.6893 16.933 18 4 0
-4.4376 5.1156 19.839 110 91 38
-1.6996 -7.5009 25.042 40 29 0
-7.3297 -4.8595 17.339 238 165 65
-7.0172 -4.8496 17.321 220 151 61
3.067 -4.8815 17.816 255 255 153
1.2712 -6.4621 25.39 25 12 0
2.9391 -3.3045 13.589 154 128 39
-2.8483 -0.30606 3.1618 101 81 2
3.452 -4.2041 20.33 221 191 89
-2.7227 -6.0091 35.683 215 142 30
4.831 -7.2734 44.567 153 122 52
-1.2551 -5.6875 35.69 197 255 195
0.46323 -4.7139 35.349 25 11 0
1.006 -4.2702 35.769 80 53 1
-5.6444 -1.4806 14.178 112 77 11
-16.753 -6.1478 -30.458 103 84 24
3.7143 -2.6094 23.89 244 234 141
1.2723 -2.4638 30.849 10 3 0
1.2877 -2.1635 30.257 12 6 0
1.2376 -1.5936 29.007 11 3 0
0.98841 -0.90718 27.353 219 218 156
-0.84704 -1.7911 84.285 255 255 241
5.8644 -0.55027 50.708 189 127 30
4.8163 -0.41238 41.922 152 119 42
0.089198 -0.058384 24.549 22 15 0
-6.9682 0.064013 20.755 59 48 1
-3.179 0.029854 36.501 246 189 77
0.62165 0.17899 25.735 47 49 1
-2.372 0.088214 -4.3947 91 60 4
0.23932 1.0566 24.574 142 125 57
-2.9899 0.32507 4.4781 117 63 2
-7.424 1.6372 27.835 28 9 0
3.5641 1.8349 21.444 90 76 11
-6.9173 1.3677 14.231 143 96 12
3.1396 2.3402 17.233 65 51 1
2.6354 2.9455 12.827 139 115 33
3.1549 4.159 17.867 97 78 21
2.4548 2.8522 11.958 169 135 62
-4.5806 5.0554 20.582 7 0 0
-7.1033 -4.8078 17.426 28 5 0
1.7357 -4.7547 20.168 52 16 2
3.7684 -5.3225 25.051 129 110 65
-5.123 2.1282 -5.1855 140 110 6
2.8499 -2.4632 13.801 125 84 10
3.9974 -4.6665 26.189 61 39 3
-5.1933 2.0902 -5.3704 157 125 12
2.9931 -2.3358 15.829 73 66 10
-6.5092 -1.3877 12.248 55 28 1
-3.4634 0.56167 -1.8053 155 126 46
6.3927 -5.2992 47.733 89 58 9
-5.1447 -1.4227 -5.9729 141 111 38
-1.2421 -3.1515 30.887 86 51 4
-5.2565 -1.3153 18.893 207 193 94
-0.85137 -1.9756 28.988 167 165 71
4.771 -0.8587 41.259 106 77 11
-1.9101 -0.48861 28.501 255 255 241
-6.3612 0.20372 34.695 166 116 22
-6.0517 0.37075 20.489 255 255 255
-7.6246 1.3957 42.447 137 89 13
-6.3965 2.5434 35.18 141 97 20
2.1704 3.0546 33.955 119 73 9
-6.8896 3.8063 24.787 69 56 20
3.4284 4.0467 22.784 59 40 1
3.1244 3.8583 17.763 113 95 34
2.2905 4.9965 19.38 0 0 0
2.4229 5.523 20.418 135 116 49
-2.8847 5.4161 17.785 68 56 22
2.1606 5.1007 16.025 7 7 0
-5.4951 -6.1781 22.549 38 0 0
-5.157 -6.152 24.544 82 45 9
-5.3347 -5.9052 24.616 41 0 0
-7.0462 -6.4459 28.106 13 0 0
-4.5155 -6.491 28.831 172 125 35
2.984 -2.6567 14.14 152 111 11
3.8485 -4.4575 24.873 255 255 255
3.8485 -4.4575 24.873 255 255 255
-3.7093 -5.5789 31.519 90 51 1
5.1973 -7.6794 43.959 255 240 151
-0.52917 -6.0564 35.579 255 234 107
5.8669 -7.4958 48.223 255 233 143
0.48612 -5.1191 36.039 2 28 0
5.316 -6.361 45.184 246 222 138
0.26883 -4.925 35.924 157 194 171
-0.62242 -4.6264 34.697 26 29 0
-2.74 -4.3491 34.714 99 83 13
0.27114 -4.3088 34.996 225 177 61
5.2452 -5.5077 44.983 217 201 112
-0.92506 -3.0589 30.214 90 67 4
3.0523 -1.212 14.237 199 175 77
-4.5995 -2.2946 27.31 64 56 4
-1.3566 -0.426 26.381 255 255 245
-6.1868 -0.55304 34.608 123 70 3
-6.1868 -0.55304 34.608 123 70 3
-1.4127 -0.25202 27.705 71 56 8
-6.4491 0.35271 33.556 159 107 26
-6.3693 2.5946 33.125 128 83 11
-2.9518 0.086277 3.406 255 255 255
3.2194 2.2505 21.753 16 2 0
3.3555 4.772 22.54 33 17 0
-1.2748 4.7475 20.008 17 6 0
3.1748 4.978 20.887 7 0 0
-1.435 4.853 20.273 94 74 21
-3.0642 4.5819 17.945 13 8 0
-2.5915 4.9459 19.219 10 0 0
2.1848 4.8326 18.485 246 241 161
0.81436 -5.0187 20.328 29 3 0
-6.4705 -5.8784 24.517 34 0 0
-6.4705 -5.8784 24.517 34 0 0
-7.9247 -4.9149 22.735 121 71 2
1.8571 -6.3666 31.64 160 106 13
-0.19282 -7.0547 36.468 180 39 8
2.2729 -6.0262 31.46 72 34 1
4.7979 -6.8487 44.286 128 97 18
-0.50996 -5.2411 35.157 2 26 0
-1.0947 -4.8572 34.82 105 95 11
-1.7492 -4.8203 35.537 60 68 16
-5.5768 -4.1191 33.892 23 18 0
-7.0985 -4.0169 33.872 44 23 0
5.6471 -6.2052 50.24 48 35 7
2.864 -1.3035 13.401 211 162 50
4.8595 -3.9813 39.214 130 116 42
-4.3913 -2.4583 28.223 64 60 3
-7.3111 0.55775 22.5 55 51 1
-7.3056 3.1848 29.684 70 39 1
-2.3246 1.9781 15.981 78 82 29
3.3581 3.4162 22.325 165 139 55
-7.3061 4.9209 22.91 12 7 0
-1.6237 4.9804 20.374 65 46 17
-3.0645 4.5524 18.426 206 165 58
-4.3443 5.1886 20.23 92 72 16
-0.82612 5.8094 18.328 82 53 10
0.49217 -4.9148 18.245 124 72 23
0.49217 -4.9148 18.245 124 72 23
0.75992 -4.9103 18.904 30 7 0
-0.56011 -5.717 35.356 1 16 0
-4.7683 -4.8631 33.1 108 67 10
-2.1235 -5.2731 36.868 240 198 71
1.1624 -3.6632 35.107 26 2 0
-5.3887 -1.1754 19.375 66 53 7
-3.3503 -0.90783 32.325 139 105 14
-7.3415 0.17091 22.569 78 66 10
3.4505 1.935 24.24 176 141 45
-7.4975 1.8289 22.345 111 68 2
-7.1644 3.1978 27.222 4 1 0
2.7023 2.2484 13.038 189 166 71
3.4167 4.4161 20.986 38 29 2
3.2151 4.6082 20.932 248 227 140
-4.4706 4.9718 20.068 29 13 0
2.5233 3.0686 11.78 137 108 30
-2.29 5.5472 19.503 120 97 52
1.9566 5.7217 17.712 60 42 5
-7.0415 -5.8123 28.038 15 13 0
-4.1318 -6.2518 30.436 169 115 21
3.5017 -2.7898 22.68 163 159 78
-4.0395 -3.3173 30.765 151 125 31
-6.3003 -0.71402 33.061 254 209 99
2.0958 2.733 32.222 125 75 13
-2.4224 1.4995 15.69 70 82 21
-2.4224 1.4995 15.69 70 82 21
-1.1311 3.9856 24.956 39 10 0
2.9316 2.7241 14.364 147 128 43
2.5709 3.0372 12.896 57 49 10
2.7928 5.0118 17.455 240 224 129
-4.2162 -6.6548 23.205 84 73 33
1.212 -6.2737 26.74 58 33 1
3.1573 -3.4657 17.987 255 255 255
0.30849 -5.7211 36.09 17 21 0
-1.6767 0.88446 24.089 138 116 40
4.3242 1.1948 31.636 255 247 244
-2.0825 1.7367 20.711 39 12 0
-2.0825 1.7367 20.711 39 12 0
3.3171 3.1859 21.689 160 126 35
2.7879 2.2882 14.383 25 10 0
-8.0724 2.5965 16.765 94 68 9
2.9656 4.6642 18.369 105 78 2
-2.7683 4.3501 16.885 34 24 3
2.6401 5.2267 18.2 20 9 0
-6.0493 -4.5624 33.254 182 130 21
-6.0619 -4.6224 33.396 182 130 21
2.9071 -1.4274 14.099 98 60 2
-4.9504 -1.1728 29.13 127 85 9
-1.2185 2.1006 23.454 36 10 0
-1.2389 4.3635 24.081 14 6 0
-4.6062 -6.6237 27.977 45 14 0
3.408 -3.5376 22.427 48 30 0
-2.5176 -5.4442 35.176 254 210 84
-6.0356 -3.0926 28.265 65 40 1
-0.2503 -3.8051 33.038 233 186 59
-7.6192 2.3946 23.311 53 35 8
1.2362 -4.8074 19.64 23 9 0
4.4853 -6.2826 34.231 84 42 1
4.1573 2.4557 35.49 83 45 4
3.5654 -5.0472 19.022 255 255 238
-8.6741 3.3052 21.89 15 7 0
1.1377 4.4547 34.33 202 153 48
2.8881 6.6032 28.928 151 123 39
-0.027154 -6.0496 28.37 255 255 151
-8.1369 0.90067 20.622 162 101 4
2.551 -0.69285 15.936 255 245 140
-4.5521 -2.4371 9.9929 218 176 82
-3.585 0.95627 -1.5402 70 28 1
-4.4175 -6.8717 27.938 105 81 32
-4.4175 -6.8717 27.938 105 81 32
-2.8044 -0.7179 4.4941 187 151 90
-7.5281 -4.9648 20.888 45 19 0
-6.6967 -6.3656 27.077 232 174 77
-8.6926 -3.2091 18.76 52 13 0
1.5157 -6.4518 31.77 201 152 34
-0.24918 -5.7766 35.353 216 182 78
-8.7728 -2.7233 19.091 63 26 1
4.3064 -4.353 32.248 159 117 23
4.9421 -5.0704 38.625 222 186 100
3.5727 -2.3178 22.656 128 93 12
2.9713 -1.2144 14.461 238 228 131
-10.906 -4.6691 51.281 96 86 34
-3.5489 -2.5982 30.768 48 52 8
1.3423 -2.4762 30.326 155 155 74
-2.8638 -0.40614 36.822 255 255 153
3.309 4.2402 27.251 232 186 61
2.4113 4.6479 18.735 74 68 50
-2.2362 2.5036 10.47 82 52 2
-9.2309 -5.0596 18.88 224 172 59
-4.7097 -3.3455 13.708 254 218 131
-8.8623 -5.0175 18.809 121 68 2
-2.8884 -0.012436 2.4484 187 152 49
-8.8058 -4.8651 18.971 98 52 2
-4.9982 -7.3444 27.724 51 8 0
3.6829 -5.2264 22.972 255 252 230
1.4164 -6.2496 27.706 158 131 75
-5.6391 -6.5773 36.468 73 36 1
3.2968 -3.0932 18.647 80 48 1
-0.20552 -2.9751 13.639 255 234 207
-0.11913 -5.7349 34.913 13 8 0
1.1313 -4.0944 34.302 89 72 2
-3.1976 -3.7115 35.055 28 22 0
2.9363 -1.2578 14.658 248 222 122
-5.1691 -1.9366 22.162 98 77 32
-5.4128 -1.5373 21.841 63 53 5
0.91027 -1.0509 27.4 20 12 0
-2.6744 -0.13508 35.34 254 197 71
-4.3977 0.91581 24.797 73 65 13
0.3211 0.98818 24.292 53 51 1
3.0815 2.3211 19.082 173 141 45
2.8122 2.1345 14.788 54 24 1
2.8224 2.2242 14.83 65 34 1
3.1386 3.2416 19.738 67 51 8
-4.6464 4.5615 20.875 101 73 27
-1.5401 4.6357 20.536 107 88 35
2.5623 3.193 12.783 47 37 2
-2.8738 4.3294 17.5 32 11 0
-2.0952 5.0831 18.717 32 19 0
-0.81416 2.2761 7.5456 162 136 44
-5.4847 -7.0308 25.073 49 0 0
17.94 -14.823 59.16 165 148 69
1.473 -6.7707 27.233 20 10 0
2.527 -6.0418 25.232 37 6 0
-8.805 -4.4202 19.014 71 28 1
1.5731 -6.3827 27.135 98 65 25
-7.4368 -5.8449 24.962 195 137 32
2.4406 -5.8864 25.205 128 95 39
-8.268 -3.0986 22.021 71 32 1
3.1396 -1.7193 16.34 174 168 73
3.0108 -1.1041 13.021 60 43 1
0.74854 -0.7983 26.869 18 10 0
-2.8236 -0.72928 30.63 163 126 33
4.2595 -0.87542 40.976 109 75 14
4.1812 -0.62474 33.168 172 114 10
0.48504 -0.30231 26.076 18 10 0
-2.9411 -0.40488 36.559 255 255 195
-2.8412 0.088049 3.9784 120 74 2
-1.1794 0.081773 27.894 34 27 0
-4.2748 0.16494 6.283 148 108 59
-4.0641 0.16268 5.9829 115 72 10
2.4098 4.064 21.186 37 29 1
-7.5345 5.0947 23.103 94 62 2
-7.5284 5.0975 23.086 105 65 5
2.9371 4.8125 20.652 110 92 25
2.5775 4.4674 18.575 13 7 0
-1.8398 5.1113 19.834 20 5 0
-1.6443 5.41 18.98 27 10 0
-1.6573 5.3362 18.737 27 10 0
1.9928 6.0987 18.388 147 126 52
-9.1328 5.0966 -14.504 254 230 127
-7.6979 -5.695 21.402 245 185 67
-7.8259 -5.1695 22.473 22 10 0
-4.6944 -6.6107 32.138 255 255 155
-5.7257 -6.3413 37.092 39 12 0
-3.7653 -4.5231 32.374 59 26 1
0.56206 1.7351 -10.532 37 25 0
-6.4135 -0.79186 16.911 28 14 0
4.5271 -0.8206 40.008 106 77 11
0.32539 0.41217 24.615 42 40 0
4.5527 1.1774 39.47 71 39 1
-7.9913 2.1262 23.856 120 73 2
-2.6672 0.32124 2.2227 56 43 3
2.4553 4.271 22.653 138 113 38
2.2679 4.1938 20.913 14 9 0
-8.6964 3.2914 16.996 23 10 0
-8.767 3.3241 17.178 23 10 0
3.1181 3.6865 18.038 49 39 1
2.466 5.0014 22.392 127 101 30
-5.7294 4.8474 20.589 39 12 0
2.028 4.7069 18.365 0 0 0
2.2547 5.3643 19.795 135 112 43
-1.5863 5.0704 18.954 10 0 0
-5.2707 -7.1796 26.773 43 0 0
-5.4708 -5.941 22.673 37 12 0
-7.3285 -5.983 24.939 243 217 183
2.2447 -5.9861 31.279 76 40 1
5.4737 -6.5765 41.132 243 205 109
-0.80533 -5.3152 35.705 154 255 103
3.2071 -1.971 19.223 255 255 177
-2.5337 -3.7391 34.912 39 9 0
-2.5336 -3.7424 34.978 39 9 0
-2.5336 -3.7424 34.978 39 9 0
-4.9471 -0.60374 32.689 255 255 255
-6.6883 -0.45859 29.619 77 55 1
3.804 0.19655 26.578 80 53 1
-0.11723 0.83501 25.533 149 126 45
2.9907 2.5392 16.714 74 65 17
-8.5578 3.0195 16.783 92 68 10
2.9692 3.7997 16.976 55 40 5
-2.1798 4.8985 19.568 224 191 71
-5.1328 -6.9471 26.745 254 214 99
3.4117 -6.482 32.704 8 0 0
5.5576 -7.3915 43.613 98 65 10
3.3298 -1.9402 17.556 131 119 40
4.0449 -0.18536 32.48 142 72 3
-6.0058 1.4729 30.319 121 79 10
-1.6843 4.5603 20.705 25 11 0
-0.95633 5.1252 21.309 131 105 33
-7.2204 -6.079 29.232 15 13 0
2.9264 -0.99828 13.088 172 131 26
2.1814 4.7028 21.645 132 111 37
1.4382 8.6455 35.53 151 121 43
-8.0955 -5.1434 22.814 10 7 0
-6.3277 -5.8356 33.091 217 140 10
2.8367 4.8393 19.349 6 3 0
-1.9856 5.1409 19.804 20 9 0
2.5669 3.4342 13.011 25 17 0
2.0856 5.0673 18.146 32 17 0
2.2323 5.2191 18.68 32 17 0
1.8417 5.6939 18.351 142 122 48
-7.9724 -5.8034 26.908 146 93 10
-4.7553 0.11513 29.139 43 32 0
3.6484 0.27228 23.919 221 186 83
-7.2654 1.6033 24.844 115 74 3
2.6527 4.9754 22.006 8 0 0
-4.6143 -6.7009 28.291 49 14 0
-3.0184 -0.23836 37.178 255 255 255
-6.2865 -5.9708 25.552 143 102 15
-5.9527 1.2403 32.689 113 69 6
-6.1649 1.4467 34.558 115 73 9
-5.1083 2.0048 25.804 103 55 4
-6.4192 -0.193 20.992 156 113 19
-5.0624 -6.2602 22.913 102 47 2
3.3428 -4.4946 17.91 164 135 27
-8.135 -5.1564 20.874 153 99 7
-5.2551 -5.5525 26.561 206 174 90
-6.0006 -6.0195 28.674 209 171 65
0.1546 -6.0857 30.094 255 255 193
3.1196 -2.796 15.884 177 148 51
-2.7261 -5.9701 35.504 215 142 30
-0.45512 -6.1218 36.325 255 235 108
-3.9171 -3.9673 30.156 254 220 123
-4.7192 -3.4157 26.251 80 36 1
-3.637 -3.9169 31.965 138 120 42
0.51376 -4.3367 35.221 121 97 3
0.51376 -4.3367 35.221 121 97 3
0.72915 -3.9438 33.112 69 52 1
4.0109 -2.8445 26.348 134 108 14
4.0529 -2.53 25.038 232 209 94
-1.2246 -2.8642 29.719 193 159 65
-0.8719 -2.3482 28.979 66 60 1
1.2781 -2.2954 28.999 96 91 13
0.73647 -0.37733 26.668 164 165 95
-2.5994 -0.61852 40.284 207 152 43
-1.0805 -0.30398 28.524 163 158 81
-3.7832 -0.17997 31.716 210 140 43
-3.7832 -0.17997 31.716 210 140 43
-1.3117 -0.044766 27.124 151 141 73
6.0506 0.6484 49.509 180 146 73
-1.9543 0.72973 23.914 140 123 46
-7.8073 1.6528 23.161 146 98 20
-2.1526 1.7898 15.96 105 104 46
2.5893 4.1664 22.597 109 93 37
2.6915 4.6382 23.416 64 42 1
-8.6853 3.0546 16.272 87 10 1
-5.0214 4.6493 20.816 67 36 1
3.2832 4.1236 17.743 100 88 35
-2.8111 4.2576 17.035 149 132 55
-2.8111 4.2576 17.035 149 132 55
-1.7597 5.0221 19.508 111 100 53
2.8299 5.0769 15.819 40 26 0
-4.6994 -0.40771 -2.3391 82 68 9
2.78 -5.1082 21.845 161 141 83
-5.1714 -6.2908 35.077 108 0 2
-0.72196 -5.7108 36.168 159 255 143
4.1853 -3.5814 24.785 113 96 37
1.2339 -2.7438 29.436 94 98 15
1.426 -2.7751 29.644 195 200 104
-4.853 -2.039 23.869 196 173 106
1.4262 -2.3905 29.189 194 190 100
-0.92238 -2.2998 29.6 156 152 62
-0.92238 -2.2998 29.6 156 152 62
-0.74914 -2.0368 27.996 38 25 0
-0.74914 -2.0368 27.996 38 25 0
-0.74914 -2.0368 27.996 38 25 0
-5.7158 -0.99934 17.052 37 17 0
-5.4303 -0.52033 19.928 142 100 37
-3.0875 -0.67053 34.091 255 255 255
4.5768 -0.62871 33.902 229 183 69
-2.5974 -0.1751 38.803 254 197 71
5.491 0.045942 48.361 153 98 16
-6.3389 0.19774 34.473 164 120 34
-1.6446 0.37241 27.645 49 34 1
-2.1358 0.72046 23.801 135 113 53
-2.1358 0.72046 23.801 135 113 53
-4.2037 0.94325 25.332 95 79 26
-2.7907 1.3803 17.248 28 19 0
-2.5368 1.5909 16.478 81 83 26
-2.5368 1.5909 16.478 81 83 26
-0.045329 2.9071 27.908 50 20 0
-2.2366 1.7345 15.977 131 131 68
3.7315 2.8307 23.971 80 53 3
3.9461 4.5319 29.016 222 185 61
3.581 3.4697 21.716 67 57 1
3.4859 3.9949 24.169 242 225 126
3.1604 3.0864 15.68 57 30 1
-2.5359 3.3965 16.677 45 34 11
3.1911 4.3507 19.725 130 102 26
3.352 5.2698 23.15 103 87 33
-2.5037 3.7532 16.518 34 16 0
3.4351 4.8757 20.534 115 85 10
-1.6044 4.939 20.629 27 11 0
2.771 5.417 22.219 190 155 69
-2.832 4.1119 16.936 177 153 66
-3.3246 5.1315 19.772 76 53 11
-1.9706 5.2495 19.167 235 225 173
2.1589 5.2973 15.583 140 147 100
2.5681 5.7559 16.04 81 68 17
-7.5457 -4.9437 20.138 33 22 0
-6.9106 -5.3644 21.929 54 0 0
-7.5863 -4.9062 21.767 172 109 19
3.4526 -3.63 17.07 162 135 50
0.060627 -6.2273 30.418 204 171 65
4.5614 -5.5648 29.486 106 74 5
-6.5976 -5.2464 29.755 215 154 24
-4.491 -4.2707 30.363 56 22 1
6.1984 -7.4461 52.053 134 107 23
-5.7392 -1.9892 16.68 225 198 97
3.6704 -2.4038 20.551 233 215 139
3.6669 -2.6529 22.897 80 66 1
-3.7669 -3.7731 31.773 66 37 1
-6.0012 -1.6041 14.999 33 10 0
-5.9545 -1.6234 15.215 113 79 9
-2.4913 -4.0407 35.241 154 122 27
-5.7264 -1.45 16.596 131 114 40
-0.89987 -2.6248 29.322 60 54 5
-4.7039 -2.091 23.982 221 195 122
-4.7039 -2.091 23.982 221 195 122
-5.3972 -1.3889 19.56 173 122 30
1.1854 -1.5946 28.774 15 9 0
0.51051 -0.54295 25.9 25 10 0
-5.8852 -0.6342 38.283 160 105 26
0.40546 -0.2957 25.553 15 8 0
0.88219 -0.28736 26.879 52 56 1
4.8352 -0.092406 30.254 221 195 91
-4.2206 0.73265 26.003 100 75 14
-2.1552 1.0021 23.572 157 138 49
-5.8966 1.9642 37.01 120 67 4
3.7622 1.6366 21.667 159 136 51
3.6229 1.8563 21.519 93 78 16
3.6448 2.4517 22.636 172 140 46
4.4952 3.6847 32.702 99 70 11
3.4138 2.9587 20.101 170 135 42
2.9857 3.9929 22.24 13 12 0
-4.5772 -0.19733 -2.4113 172 133 45
-4.0581 3.0873 16.464 84 51 4
1.679 5.5185 15.944 95 82 36
-6.4173 -5.3075 22.218 250 208 131
2.5395 -5.2669 23.492 57 56 39
3.1347 -3.3053 16.066 255 245 144
3.9081 -5.4483 25.677 91 71 45
3.2406 -3.3466 16.619 174 142 48
-6.6433 -5.8814 28.454 92 52 1
3.8838 -5.4554 26.331 160 130 85
-1.7931 -4.6666 34.53 33 23 0
5.2269 -5.7864 47.221 55 45 3
1.3252 -3.674 33.744 134 94 16
-5.71 -1.4351 17.051 36 25 0
-5.4552 -1.4654 19.238 39 19 0
-5.4552 -1.4654 19.238 39 19 0
-5.5957 -1.3055 19.33 174 141 51
6.1293 -0.79912 50.087 255 255 240
-5.7943 -0.58421 37.293 154 98 20
3.8167 0.56676 23.969 232 198 103
0.24694 1.1487 23.954 26 19 0
-2.9572 1.801 15.795 53 59 10
3.961 3.3494 27.175 96 72 11
-2.1879 1.9983 15.881 13 15 0
3.722 3.6767 26.389 255 245 147
3.722 3.6767 26.389 255 245 147
3.4562 3.77 20.272 153 119 34
3.1988 3.0798 19.497 163 126 37
3.2492 4.0792 18.429 47 33 0
3.1665 5.5853 18.822 50 30 1
3.0539 5.5672 18.194 69 44 8
1.6938 5.6086 15.924 10 0 0
2.2854 -4.4996 16.836 101 36 2
2.7529 -4.6726 17.757 255 255 208
3.3127 -4.0083 16.388 198 184 121
-6.7745 -5.573 22.578 139 20 2
3.4026 -3.385 17.363 225 197 100
-0.35827 -5.7453 28.824 255 255 151
1.8609 -6.3734 31.664 166 108 18
1.8311 -6.6211 34.481 48 26 0
-3.6632 -5.5389 31.372 90 52 3
-3.25 -5.9816 33.785 83 44 1
3.6453 -3.5367 20.857 82 52 1
3.4689 -2.7715 17.559 170 138 43
5.9474 -7.475 48.205 254 227 141
2.0783 -5.1701 36.595 54 20 1
3.6378 -2.3878 20.864 183 160 73
-2.2725 -3.9191 34.645 186 141 40
-6.2658 0.29137 32.285 164 115 23
-3.7152 0.51559 32.704 169 102 14
0.42152 0.7118 25.255 50 50 10
-6.441 1.03 34.083 140 96 13
-6.2354 2.4344 32.305 126 82 13
1.5036 2.6766 33.895 115 63 2
-8.7856 -1.3307 -13.389 221 198 111
-7.1547 3.0897 28.823 78 46 3
3.7284 3.821 24.311 92 70 13
-3.4244 3.7285 16.515 14 10 0
3.38 5.4976 23.372 144 111 26
-1.0315 4.9495 20.582 140 116 34
-5.4688 4.663 19.337 162 113 12
-2.2733 5.151 19.877 16 4 0
3.3508 5.1967 18.887 61 44 1
-4.7665 -0.51981 -2.3871 66 46 1
3.9102 -5.2619 24.083 86 66 13
3.3689 -3.6792 17.231 255 255 169
-3.3293 -6.7539 32.62 255 255 252
2.979 -2.7754 15.912 82 64 15
-4.5738 -5.1567 31.029 73 21 1
3.9234 -3.6214 25.247 255 255 147
3.9234 -3.6214 25.247 255 255 147
5.6989 -5.92 44.965 198 164 72
5.6989 -5.92 44.965 198 164 72
-6.3739 -0.76622 33.654 233 209 162
-2.4378 -0.33833 35.188 138 95 29
-2.4378 -0.33833 35.188 138 95 29
3.7962 0.29076 27.666 198 168 61
4.4994 0.74055 38.846 166 132 51
-7.0973 3.151 26.777 0 0 0
3.1003 2.0951 15.058 217 192 91
3.2023 2.9201 17.323 56 45 9
-0.36504 4.3771 25.44 116 75 12
2.9775 2.9223 15.573 147 112 26
3.4802 4.8144 22.842 23 10 0
-1.7342 4.4218 20.101 20 10 0
3.5037 4.9868 21.256 255 244 151
-1.8929 5.1288 18.787 135 126 71
-1.8929 5.1288 18.787 135 126 71
-2.3012 5.4642 19.205 149 126 81
0.72729 5.6203 18.635 80 53 8
3.1702 -4.7483 20.487 38 34 0
3.4074 -4.5466 19.519 117 105 46
-5.4745 -6.9403 29.428 76 23 1
-2.932 0.051026 38.782 255 255 255
-6.1637 0.11795 20.438 131 81 4
-4.0614 0.48762 32.348 70 38 1
5.3492 1.9213 46.693 169 124 48
3.4112 2.3964 17.473 161 142 52
3.4545 2.9886 20.797 82 62 8
3.4545 2.9886 20.797 82 62 8
-2.0605 3.626 17.576 86 60 9
-3.0652 4.4049 18.048 206 173 51
3.0199 4.8017 15.116 17 13 0
2.3112 5.2457 16.023 2 6 0
-7.1789 -5.0426 20.44 50 45 7
1.8488 -5.0259 20.906 88 52 43
-3.9545 1.9873 26.098 27 8 0
-7.9348 1.2862 15.342 45 40 1
3.648 2.8003 22.44 158 128 34
3.648 2.8003 22.44 158 128 34
-8.0822 2.593 16.797 96 72 11
1.0848 6.2471 18.273 158 137 58
2.0959 -5.032 20.328 255 255 200
2.8792 -3.2591 15.737 222 189 92
3.1912 -3.5339 18.173 255 255 255
3.1912 -3.5339 18.173 255 255 255
0.29898 0.50046 25.777 48 42 3
-4.4912 2.3029 26.955 106 52 3
-7.1965 2.5763 24.623 105 66 2
-7.1965 2.5763 24.623 105 66 2
-2.2844 1.7595 16.701 76 75 19
-7.8538 2.4209 16.2 101 71 10
-2.3858 4.4117 18.191 218 183 65
3.0794 -4.5159 17.973 255 255 187
4.0355 -3.3214 22.581 255 255 160
-2.1241 0.16778 31.027 60 36 1
-6.5688 0.43103 29.621 34 29 0
-2.5886 4.301 19.794 3 0 0
1.1769 -4.8907 19.714 28 7 0
5.1562 -6.7172 36.964 86 44 1
-6.556 -3.5207 32.429 80 48 1
-8.0627 2.9411 19.652 23 10 0
1.0971 5.7895 24.996 159 131 46
2.3916 5.5448 18.48 68 51 11
-5.6019 5.6319 20.026 10 0 0
-9.5157 4.2702 22.493 34 15 0
-9.8127 5.4681 46.451 1 1 0
-2.9743 2.3827 16.5 27 30 0
0 0 0 1 0 0 0 1 0 0 0 1 0 0 0 0 0 1375 1 0 0
