ply
format ascii 1.0
comment PCL generated
element vertex 444
property float x
property float y
property float z
property uchar red
property uchar green
property uchar blue
element camera 1
property float view_px
property float view_py
property float view_pz
property float x_axisx
property float x_axisy
property float x_axisz
property float y_axisx
property float y_axisy
property float y_axisz
property float z_axisx
property float z_axisy
property float z_axisz
property float focal
property float scalex
property float scaley
property float centerx
property float centery
property int viewportx
property int viewporty
property float k1
property float k2
end_header
0.61166 -0.40114 10.247 19 12 1
0.58755 -0.36067 10.26 1 0 5
0.69499 -0.33667 10.205 3 92 62
0.80258 -0.32615 10.078 9 11 6
0.79677 -0.79881 10.548 3 128 13
-0.33206 -0.78143 10.83 143 101 40
0.9762 -0.57855 10.331 4 7 3
0.63157 -0.47551 10.277 1 36 74
1.2629 -0.45851 9.9483 114 92 62
0.35248 -0.43279 10.284 86 15 9
0.24961 -0.415 10.301 3 18 30
-0.043332 -0.39487 10.323 13 7 8
0.24352 -0.38744 10.298 2 29 15
1.2667 -0.37607 9.9935 54 99 87
0.24679 -0.3651 10.301 1 8 10
0.57288 -0.34086 10.263 125 34 2
0.57288 -0.34086 10.263 85 29 4
1.2621 -0.32965 9.9424 9 1 1
2.0784 -0.31867 12.423 7 6 11
1.6825 -0.2619 10.039 22 22 19
1.6901 -0.22697 10.049 7 121 51
1.2406 -0.20918 9.7862 149 124 90
0.57891 -0.11336 9.8423 78 61 1
1.3862 -0.11206 9.3408 76 41 3
0.68642 -0.067295 9.7245 5 119 45
-0.32385 -0.047581 9.9089 4 1 12
0.45872 -0.016959 9.8281 6 57 18
0.56447 -0.0082655 9.8115 66 2 0
1.1916 0.014071 9.609 70 84 5
0.65874 0.023387 9.7633 215 179 118
1.2135 0.039805 9.614 37 28 5
1.2035 0.062594 9.6914 7 1 6
1.1487 0.13004 9.8475 4 73 17
1.4049 0.13751 9.5537 174 147 115
1.4032 0.1376 9.5409 174 147 115
1.1995 0.15639 9.4651 33 62 134
1.4265 0.21438 9.739 31 132 19
1.374 0.26465 9.554 134 101 55
1.1062 0.22381 9.8925 2 9 0
1.4127 0.17992 9.7463 192 158 118
-0.87326 0.32835 9.8933 6 117 14
0.69164 0.36956 10.083 49 59 46
0.92418 0.37422 10.069 57 22 6
0.92417 0.37418 10.069 5 0 0
1.3939 0.16241 9.7063 13 14 26
1.1834 0.40705 10.04 130 91 42
1.2632 0.4346 10.02 168 132 92
1.1876 0.44537 10.073 15 16 12
1.5581 0.48987 10.034 114 83 40
1.4355 0.547 10.099 1 0 0
0.41747 -0.89518 10.814 5 29 5
0.30708 -0.8573 10.801 16 0 0
0.13118 -0.75819 10.768 45 70 2
-0.31533 -0.75325 10.83 2 78 80
0.82105 -0.72744 10.583 185 159 108
1.2238 -0.56531 10.275 73 0 1
1.2458 -0.54253 10.236 158 132 86
1.2656 -0.49831 10.171 11 2 4
0.82025 -0.49116 10.262 1 1 0
-0.94104 -0.45069 9.8074 2 1 93
0.45412 -0.45492 10.29 49 5 4
0.45412 -0.45492 10.29 3 1 9
-0.25153 -0.44041 10.351 8 77 11
0.4863 -0.43218 10.271 30 2 1
0.62286 -0.42331 10.248 41 49 24
-0.26753 -0.41411 10.346 95 3 11
-0.033992 -0.41472 10.323 3 24 10
-0.30632 -0.41276 10.354 147 105 40
0.17169 -0.41072 10.292 76 86 11
1.3958 -0.34684 9.8985 13 15 25
1.3425 -0.29448 9.525 4 3 2
1.2368 -0.2767 9.9507 23 3 20
1.2475 -0.25619 9.838 11 151 9
0.40897 -0.17206 8.12 30 4 13
1.2732 -0.10674 9.4762 1 20 9
0.21718 -0.053889 9.8476 19 13 40
0.55178 -0.030706 9.8039 33 13 14
1.1555 -0.015913 9.6231 176 138 86
0.29066 0.074468 10.737 11 35 1
1.4663 0.16825 9.4223 70 39 28
1.171 0.20495 9.8728 20 125 6
1.4912 0.24077 9.8911 3 2 8
1.4586 0.25783 9.785 176 142 105
1.5346 0.26732 9.5154 6 5 6
1.7599 0.31665 9.7953 25 131 8
0.98675 0.35285 10.007 7 3 8
1.1666 0.30816 9.3611 12 18 26
1.551 0.35713 9.7437 159 133 98
1.3745 0.26886 9.1895 16 10 6
1.1177 0.39218 10.036 8 2 7
1.1536 0.39155 10.035 7 1 0
1.5023 0.48319 10.039 128 34 2
1.1333 0.55267 10.181 15 11 2
-0.49984 -1.0989 10.922 10 0 1
0.74725 -0.9146 10.756 14 110 49
0.30711 -0.85876 10.809 11 3 21
-0.89037 -0.68682 10.199 4 104 27
0.54369 -0.49973 10.33 47 28 4
0.52205 -0.40226 10.256 2 6 9
0.22236 -0.44528 9.9243 25 1 12
1.1774 -0.39273 10.091 62 70 31
0.79579 -0.044468 9.7237 255 255 189
-0.089743 -0.03 9.8848 6 9 3
0.64131 -0.010147 9.7628 3 1 12
0.59668 0.045014 9.8719 1 139 8
0.3052 0.18928 11.007 31 103 79
1.2075 0.29503 9.9461 13 19 22
0.73848 0.33965 10.061 23 8 16
1.2087 0.34048 9.9793 23 3 47
1.2112 0.39439 10.013 10 0 1
1.218 0.503 10.105 4 35 122
1.4678 0.5534 10.103 10 30 91
-0.63575 -1.1313 10.877 126 8 1
0.81362 -1.0149 10.733 3 0 0
-0.39457 -0.9657 10.947 5 18 37
0.58776 -0.892 10.82 9 16 2
-0.069048 -0.89467 10.921 5 129 15
0.69625 -0.847 15.864 2 1 11
-0.96691 -0.63154 10.71 142 124 91
1.0239 -0.51807 10.232 48 68 21
1.3252 -0.46303 9.9637 2 58 16
1.3252 -0.46303 9.9637 17 9 6
-0.94866 -0.34255 9.6354 6 1 14
1.7221 -0.011937 9.8108 22 133 79
0.37542 0.12537 7.6088 14 57 6
0.69551 0.33626 10.073 59 135 28
1.0335 0.36333 10.03 125 89 55
1.0942 0.36344 10.029 35 2 4
1.3133 0.35698 9.7971 5 2 9
-0.018275 0.31865 9.0164 1 0 3
-0.067279 0.35216 9.3866 1 15 45
-0.10731 0.55025 8.0016 218 172 108
0.4342 0.25424 7.7192 15 26 74
1.1886 0.53101 10.137 5 6 9
1.1911 0.53093 10.147 3 2 2
1.5106 0.54146 10.083 3 73 76
1.5604 0.54059 10.054 11 49 4
0.86417 0.57384 10.29 2 1 2
1.432 0.59739 10.124 7 22 0
-0.57883 -1.1245 10.934 28 9 3
1.5625 -0.56271 10.111 8 34 65
1.5902 -0.50174 10.096 8 130 121
-0.92143 -0.48563 9.8377 84 25 6
0.30371 -0.40842 10.292 31 2 2
1.6761 -0.11294 9.8736 5 116 112
1.3449 -0.066598 9.3354 139 112 70
1.3452 -0.066636 9.3367 139 112 70
0.95687 0.11457 9.7845 6 5 1
1.3067 0.27724 9.7096 32 121 23
1.0537 0.52824 10.163 74 84 82
-0.61641 0.611 10.366 121 31 10
-0.43305 0.36642 7.8097 251 216 161
-0.68374 0.66548 10.36 5 163 21
-0.68374 0.66548 10.36 31 21 15
-0.84135 0.70886 10.21 240 205 150
-0.52468 -1.0433 10.911 29 17 0
1.208 -0.7136 10.468 144 8 16
1.5444 -0.68634 10.079 1 101 87
1.3942 -0.029933 9.3185 239 210 146
1.7757 0.3666 9.788 23 0 0
-0.50263 0.53807 10.43 2 19 5
-0.10024 -0.86461 10.924 221 187 116
0.053503 -0.86735 10.903 1 25 145
0.76814 0.59782 10.249 1 0 0
-0.9379 -0.17904 9.4605 1 47 30
0.64676 -0.98458 10.774 1 5 51
0.60683 0.55898 10.376 9 12 4
1.8732 -1.2493 15.942 1 4 74
-0.5841 -0.10582 10.09 255 226 155
-0.58448 -0.10593 10.093 255 226 155
1.0462 0.020997 9.9203 90 112 81
0.32973 -0.79325 10.749 215 176 110
0.27378 -0.7744 10.758 178 139 72
0.34547 -0.77348 10.741 180 138 72
0.32761 -0.75777 10.75 213 177 114
0.5992 -0.73646 10.709 155 118 55
0.11046 -0.47063 10.334 243 197 126
0.11046 -0.47063 10.334 243 197 126
-0.19272 -0.41536 10.342 168 120 54
0.21706 -0.41393 10.298 247 208 139
0.62245 -0.38578 10.248 166 127 63
-0.20858 -0.3785 10.345 199 155 78
0.59957 -0.3407 10.263 147 108 56
1.0279 -0.19584 9.8786 227 188 131
-0.33671 -0.03476 9.9271 201 167 115
1.3158 0.019464 9.4743 163 137 100
1.412 0.049517 9.343 187 165 111
-0.16937 -0.011597 9.9054 201 159 96
1.3758 0.068233 9.4504 134 114 84
0.55023 0.0097881 9.8267 239 205 146
-0.72271 0.059403 9.8612 246 202 144
-0.085237 0.018834 9.9282 208 175 138
1.1596 0.052154 9.7103 137 106 52
1.1596 0.052154 9.7103 137 106 52
0.10252 0.040653 9.9772 226 191 137
0.94279 0.076718 9.7741 203 176 134
0.96974 0.077193 9.77 219 187 137
1.0645 0.079027 9.7739 181 142 88
-0.61306 0.10988 10.003 248 209 154
1.36 0.12463 9.7189 85 54 17
1.3753 0.15111 9.7244 100 68 27
1.3753 0.16966 9.7578 170 134 89
1.3619 0.17706 9.7731 129 94 44
1.2855 0.22326 9.6641 183 156 108
1.3698 0.19454 9.7975 141 105 51
-0.55195 0.2268 10.109 176 131 76
1.3605 0.22482 9.8269 146 109 58
-0.8725 0.33026 9.8796 171 133 83
0.91468 0.26462 9.9932 161 122 71
1.0324 0.29166 9.9919 239 194 123
1.0931 0.29246 9.9798 227 185 121
0.14484 0.2143 10.617 247 195 124
1.5207 0.36033 9.9301 71 40 11
-0.50466 0.37767 10.238 163 120 73
-0.50466 0.37767 10.238 163 120 73
0.94194 0.35627 10.075 239 197 144
1.5119 0.37374 9.9446 158 123 84
1.3787 0.57973 8.9389 132 97 53
0.95489 0.39536 10.058 181 140 84
-0.40299 0.39689 10.322 185 140 81
-0.40299 0.39689 10.322 185 140 81
-0.096176 0.39566 10.292 175 131 69
-0.096176 0.39566 10.292 175 131 69
1.5457 0.40642 9.9487 73 43 13
-0.84596 0.50271 10.019 217 177 126
-0.84596 0.50271 10.019 217 177 126
1.4065 0.43771 9.9977 199 157 107
0.6654 0.44704 10.14 250 210 149
0.55723 0.4481 10.213 255 215 166
0.67944 0.46268 10.152 202 159 103
1.615 0.47858 9.9932 50 30 3
0.5274 -0.77544 10.717 168 129 65
0.0073977 -0.75958 10.793 172 129 66
1.271 -0.54781 10.207 79 55 23
1.1983 -0.56935 10.302 103 74 34
1.2598 -0.43696 10.097 98 73 31
-0.45492 -0.44049 10.376 209 164 97
0.069608 -0.44058 10.321 202 160 85
1.2621 -0.42075 10.135 100 74 35
0.55506 -0.42536 10.261 180 140 79
0.00073909 -0.41507 10.315 255 217 145
-0.26761 -0.38204 10.363 214 169 98
0.66428 -0.064184 9.7567 220 181 112
-0.5049 -0.029364 9.9337 188 148 91
1.3338 0.032746 9.4356 84 59 18
0.32913 -0.029249 9.8416 231 197 128
1.3609 0.04266 9.428 190 164 124
1.385 0.065713 9.4075 78 59 23
0.21962 -0.0072547 9.8975 167 132 66
0.45411 0.0029046 9.836 255 223 154
-0.22072 0.0089682 9.936 255 234 173
0.8912 0.01822 9.7358 240 205 140
-0.12082 0.01305 9.9389 212 178 121
0.39273 0.016713 9.8519 186 144 80
0.91891 0.029716 9.7282 160 126 68
0.87519 0.031967 9.7615 142 107 51
0.87519 0.031967 9.7615 142 107 51
1.1992 0.045561 9.6677 129 98 51
0.56147 0.034335 9.8291 148 111 58
-0.19145 0.028951 10.003 226 196 146
-0.16382 0.029098 10.005 222 194 144
0.50759 0.037162 9.8707 201 165 103
0.0036436 0.03659 9.9873 226 200 152
0.92129 0.070749 9.7414 120 89 42
1.2166 0.17596 9.4385 78 55 19
-0.81324 0.17383 9.8495 179 134 83
0.94182 0.15537 9.8557 163 124 67
0.90591 0.18947 9.9171 152 116 60
-0.63049 0.23255 10.021 255 228 166
0.90941 0.23517 9.9446 187 147 88
0.94773 0.24025 9.9334 174 136 74
1.017 0.2445 9.9187 183 141 85
1.017 0.2445 9.9187 183 141 85
0.94946 0.28101 9.9873 154 117 64
-0.45012 0.2826 10.314 224 177 115
-0.6208 0.3414 10.105 187 141 86
-0.38059 0.31373 10.3 255 246 173
-0.060992 0.31648 10.256 255 255 176
1.4975 0.33195 9.8955 63 34 5
-0.72138 0.38385 10.132 255 228 168
0.58495 0.32936 10.181 220 176 109
-0.17765 0.34105 10.275 241 193 122
-0.17765 0.34105 10.275 241 193 122
-0.45957 0.35077 10.307 192 143 91
-0.70603 0.39445 10.149 217 168 108
-0.45364 0.37482 10.312 255 220 149
0.67046 0.3694 10.127 208 169 108
1.1325 0.37135 10.024 136 98 53
-0.61413 0.41654 10.172 180 139 92
-0.61413 0.41654 10.172 180 139 92
-0.42316 0.37892 10.327 255 232 169
0.1557 0.40362 10.255 177 127 66
0.55573 0.40592 10.183 195 145 89
-0.1041 0.41482 10.311 255 239 163
1.4214 0.4246 9.985 139 102 49
1.4479 0.42543 10.004 181 141 93
1.4479 0.42543 10.004 181 141 93
0.96137 0.43102 10.079 185 146 85
0.5923 0.43124 10.197 177 137 87
0.5923 0.43124 10.197 177 137 87
0.5923 0.43124 10.197 177 137 87
1.4301 0.44602 10.019 116 79 31
1.4301 0.44602 10.019 116 79 31
1.2588 0.48083 10.044 157 123 87
0.94199 0.49497 10.17 218 174 116
0.57454 0.48516 10.365 143 128 108
1.0847 0.51184 10.141 220 190 139
1.2621 0.52796 10.084 120 97 70
-0.5333 0.56269 10.394 167 121 64
-0.5333 0.56269 10.394 167 121 64
0.96724 0.56698 10.209 104 73 39
-0.66359 0.63521 10.362 234 190 137
1.1226 -0.56484 10.307 130 97 48
0.12162 -0.43866 10.314 198 153 80
0.15922 -0.4396 10.306 203 164 94
0.34929 -0.40908 10.283 255 224 157
0.34929 -0.40908 10.283 255 224 157
-0.80192 -0.044935 9.6747 255 226 159
-0.48408 -0.097471 9.899 255 237 180
1.2977 -0.017367 9.4151 88 61 15
1.2917 -0.0028275 9.449 200 170 115
-0.48859 -0.051921 9.9272 255 229 152
0.26516 -0.054325 9.8481 255 232 158
0.35313 -0.049174 9.842 255 255 196
-0.26301 -0.040136 9.9074 255 246 177
-0.46472 -0.029396 9.9398 215 172 104
0.32329 -0.0054657 9.8524 255 255 201
-0.028608 0.0014737 9.8981 148 110 68
1.4488 0.080788 9.3582 173 146 87
-0.17178 0.0039968 9.9317 253 213 150
1.1293 0.051021 9.724 210 177 113
0.92368 0.10283 9.8467 204 171 117
1.1711 0.14649 9.8482 84 53 9
1.2208 0.18111 9.7987 119 85 44
0.92535 0.17196 9.9037 242 203 139
0.94536 0.19841 9.9173 168 134 78
1.4117 0.22338 9.8267 163 127 82
1.0387 0.26482 9.9423 238 201 136
1.6051 0.3375 9.5644 131 104 56
1.1822 0.31227 9.9722 107 71 28
1.1822 0.31227 9.9722 107 71 28
-0.44369 0.31414 10.295 255 231 157
-0.38995 0.33823 10.296 224 170 106
0.78674 0.33838 10.089 203 155 98
-0.32434 0.34066 10.288 233 182 115
-0.32434 0.34066 10.288 233 182 115
-0.29846 0.3417 10.282 234 183 116
-0.29846 0.3417 10.282 234 183 116
-0.13434 0.33984 10.263 242 192 124
-0.23073 0.34211 10.283 225 178 114
0.14896 0.34618 10.227 247 195 124
0.42969 0.35998 10.199 228 178 108
1.2815 0.38441 9.9541 105 75 37
1.6718 0.42944 9.6419 69 49 20
0.22622 0.37946 10.229 255 251 171
-0.46165 0.39598 10.328 123 82 47
0.52986 0.39145 10.188 255 235 169
0.67256 0.4035 10.123 208 165 107
0.93776 0.40779 10.081 244 201 142
1.241 0.42012 9.9907 137 101 54
0.93096 0.44816 10.111 117 80 39
1.4966 0.45201 9.9997 133 97 48
1.0514 0.48234 10.102 236 193 125
1.4276 0.50223 10.055 106 73 26
-0.5812 0.54921 10.365 175 131 84
-0.84616 0.67123 10.153 159 118 72
-0.84616 0.67123 10.153 159 118 72
0.8331 -0.56107 10.344 125 97 47
1.2984 -0.14241 9.4392 64 43 11
1.2984 -0.14241 9.4392 64 43 11
1.2623 -0.045926 9.4326 238 206 143
-0.44951 -0.094197 9.9193 141 98 46
-0.44951 -0.094197 9.9193 141 98 46
1.358 -0.012008 9.3435 162 136 78
-0.43818 -0.052867 9.9205 255 246 162
-0.43818 -0.052867 9.9205 255 246 162
1.3722 0.021773 9.3704 138 114 62
1.3285 0.041675 9.5893 71 48 19
-0.89244 0.1191 9.713 255 243 176
1.3982 0.14638 9.6449 43 27 1
0.70752 0.17303 9.8966 20 10 0
1.1966 0.18806 9.8321 214 179 123
1.2118 0.24252 9.9288 214 176 119
0.98127 0.29144 9.9701 234 194 133
1.2068 0.29538 9.9455 215 176 121
0.95906 0.30641 10.028 156 118 71
1.2803 0.34466 9.9036 79 50 18
1.2803 0.34466 9.9036 79 50 18
-0.37911 0.36891 10.31 255 230 152
-0.10016 0.3718 10.273 255 245 174
1.5322 0.51059 10.05 185 158 113
1.642 0.51618 10.018 7 1 0
0.95852 0.58623 10.257 224 188 147
0.91282 -0.037261 9.7224 255 217 141
1.4108 0.077739 9.3578 229 207 151
1.2326 0.042543 9.5593 90 70 34
1.3555 0.079989 9.6353 55 33 12
1.2646 0.23324 9.7479 89 64 28
1.5669 0.32099 9.713 27 14 0
0.69502 0.33585 10.075 120 87 53
1.1806 0.36746 10.028 93 60 20
1.729 0.40393 9.7534 168 151 129
1.3924 0.40242 9.9325 206 165 108
1.3086 0.42951 9.8355 191 159 108
1.6308 0.4167 9.7973 27 14 3
1.6715 0.45147 9.694 134 119 84
-0.61764 0.45017 10.214 255 234 176
0.64705 0.48058 10.169 210 173 120
-0.57265 0.52907 10.326 192 146 93
1.5951 0.50764 10.036 172 145 103
1.0501 0.50636 10.176 37 19 3
1.5169 0.53875 10.096 10 2 0
-0.74014 0.68245 10.295 233 202 160
-0.79902 -1.1027 10.783 182 160 105
-0.57811 -1.1268 10.94 15 6 3
0.66328 -0.87013 10.755 190 156 88
-0.75252 0.074933 9.8714 193 155 108
1.4073 0.10937 9.4607 31 20 3
-0.47921 0.23429 10.286 195 158 106
0.63392 0.29673 10.187 252 208 144
1.056 0.32278 9.9787 219 177 113
1.1318 0.33191 9.9541 202 162 104
1.1318 0.33191 9.9541 202 162 104
1.4775 0.34057 9.9582 172 136 83
-0.50403 0.42455 10.324 250 209 153
-0.449 -1.0534 10.991 17 6 2
-0.449 -1.0534 10.991 17 6 2
-0.31496 -0.91261 10.835 14 7 0
0.92651 -0.90445 10.68 10 4 1
1.0694 -0.82117 10.534 151 133 95
1.3513 -0.1623 9.3656 211 181 116
1.7874 0.20893 9.8592 146 120 80
-0.67786 0.6898 10.305 23 15 8
1.2089 -0.6808 10.426 138 110 63
1.3246 0.14375 9.7488 201 163 103
1.4592 -0.68089 10.09 169 150 101
1.4035 0.14184 9.5452 173 148 112
1.1351 0.47334 10.076 238 193 122
1.6618 0.27872 9.6088 182 153 104
1.4315 0.47841 10.028 175 142 88
0.7922 0.42958 10.177 226 178 116
-0.19589 -1.1461 10.94 6 1 0
-0.71342 0.38652 10.206 225 175 114
1.0392 -0.038197 10.206 202 164 103
0 0 0 1 0 0 0 1 0 0 0 1 0 0 0 0 0 444 1 0 0
