ply
format ascii 1.0
comment PCL generated
element vertex 269
property float x
property float y
property float z
property uchar red
property uchar green
property uchar blue
element camera 1
property float view_px
property float view_py
property float view_pz
property float x_axisx
property float x_axisy
property float x_axisz
property float y_axisx
property float y_axisy
property float y_axisz
property float z_axisx
property float z_axisy
property float z_axisz
property float focal
property float scalex
property float scaley
property float centerx
property float centery
property int viewportx
property int viewporty
property float k1
property float k2
end_header
-2.6203 1.6701 8.6108 94 49 37
-5.4564 2.0883 21.258 27 15 7
-5.4498 2.0814 21.22 27 15 7
-5.443 2.7747 20.96 22 11 2
-5.4755 2.8033 21.116 22 11 2
0.13099 3.0194 20.923 47 24 17
-3.3305 1.6476 8.7407 42 23 13
0.31325 1.9811 8.7171 137 92 67
0.26309 0.40005 20.632 91 72 55
-5.2591 0.4302 21.567 97 80 58
-2.2006 1.8983 13.896 227 188 157
-1.0949 1.7376 11.863 193 0 10
-2.1362 1.7608 9.2802 7 0 0
0.07194 1.93 8.6573 134 86 67
0.28355 -3.8794 22.068 82 67 59
0.0085402 -3.655 22.482 255 255 255
-3.6328 1.6367 9.1638 104 77 58
-0.98044 1.8007 9.3266 7 8 0
-0.81543 -1.672 19.21 53 40 30
0.26273 -4.033 21.719 255 255 255
-2.7774 1.4511 -3.4585 255 255 255
-2.7774 1.4511 -3.4585 255 255 255
-5.2413 -3.9687 22.67 255 255 255
-5.2953 -3.9014 22.674 102 85 80
-5.295 -3.9028 22.672 102 85 80
-0.51107 1.6418 12.469 242 95 97
0.17782 -3.9495 21.693 89 81 79
0.17782 -3.9495 21.693 89 81 79
-3.1193 1.9973 13.461 213 61 22
-3.0454 2.017 13.429 176 95 79
0.077806 1.3793 20.396 27 15 10
0.060352 2.0503 20.262 30 18 12
-1.3537 1.7024 11.919 234 88 57
-1.6648 1.7866 11.954 224 78 44
-3.5123 1.8573 9.3485 48 22 10
-3.9827 1.8403 9.9373 26 13 8
-4.6933 1.938 10.22 74 50 39
-0.95619 1.9046 9.2032 97 78 60
-0.95619 1.9046 9.2032 97 78 60
-4.685 1.8145 10.243 25 10 2
-2.1319 1.8301 9.2597 141 113 98
-0.44833 1.681 12.582 248 102 99
-2.8065 1.7744 13.83 254 218 158
-1.4967 1.7758 11.943 10 0 0
-1.4977 1.77 11.93 10 0 0
-0.38578 1.5503 9.1622 28 17 1
-0.64313 1.5438 9.0403 10 14 2
-1.2336 1.6501 11.995 225 155 157
-1.2336 1.6501 11.995 225 155 157
-3.5806 -0.95025 9.523 93 76 66
-0.4255 1.6237 8.9496 17 10 0
-1.5637 1.6568 9.6925 11 10 0
-0.48089 1.6863 12.422 252 116 115
-0.55799 1.5707 9.2611 40 31 10
-1.6499 1.8354 8.8049 125 89 72
0.072892 1.379 20.383 29 15 10
0.066845 2.0538 20.285 25 14 8
-0.46319 1.8462 8.6429 50 22 9
-0.49272 1.877 8.7283 44 23 11
-3.4802 2.0198 10.092 91 61 45
-2.6697 2.4383 12.295 34 0 0
-4.4923 1.8949 9.7966 39 25 22
0.25087 -3.8417 21.871 79 64 57
-2.3515 1.817 9.6176 13 10 3
-3.9306 1.923 10.122 139 115 98
-5.137 -3.8142 22.978 96 80 70
-5.0264 -3.7194 22.736 88 72 62
-3.9643 -0.98138 9.185 92 76 65
-0.041839 -3.2009 22.672 52 40 34
-0.44382 1.512 9.3504 241 159 54
-2.1964 1.6811 9.9332 10 6 0
-0.76759 1.7484 9.3791 2 7 0
-2.4798 1.2793 10.116 204 63 5
0.11009 -3.9087 21.912 76 67 70
0.11932 -3.926 21.972 76 67 70
-10.761 -3.888 23.987 95 82 82
-2.2688 2.0779 14.104 220 206 214
-4.118 1.6351 10.018 15 13 7
0.32414 -3.9544 21.554 89 78 80
-2.9325 -0.40432 6.0877 96 82 76
-3.2398 2.1329 10.373 180 145 125
-11.24 -2.6964 24.591 249 254 255
-0.37342 1.7625 12.464 195 0 17
-3.9216 1.9766 9.7255 124 91 68
-2.7939 1.9047 9.2894 44 18 10
-11.124 -2.6336 24.173 255 255 255
-10.948 0.46408 23.416 88 72 53
0.086398 1.3741 20.425 21 15 10
-5.4286 1.3694 21.404 27 17 8
-5.4303 1.3694 21.418 27 17 8
-5.4532 2.089 21.289 29 15 10
-5.4542 2.0904 21.295 29 15 10
-5.5368 2.8706 21.588 27 15 7
-5.4753 2.8124 21.196 27 15 7
-2.2795 2.1247 14.215 209 184 186
-4.0031 1.8871 10.047 23 10 4
-3.4449 1.9778 9.9296 68 44 29
-3.4449 1.9778 9.9296 68 44 29
-2.6671 1.9234 9.7964 45 28 17
-2.0764 2.0353 9.8326 161 132 116
-2.0638 2.0722 9.9419 161 132 116
-2.1189 1.9694 9.4672 20 10 9
-2.0348 1.9737 9.4074 25 11 10
-3.0727 -0.47093 6.7167 255 255 255
-3.527 -0.58005 7.2553 255 255 255
-2.1366 1.8072 9.4092 13 3 0
-1.0191 1.8478 9.0565 103 80 59
-2.3113 1.9704 9.6864 116 86 67
-5.2488 1.8959 10.033 27 13 10
-0.96631 1.8168 9.2713 8 7 0
-2.3458 1.7725 9.437 10 8 1
-3.8696 1.8566 9.9142 164 144 128
-5.1372 -3.8021 22.922 95 79 69
-4.8448 1.9974 10.33 4 1 0
-3.497 -1.2854 10.575 100 87 76
-5.0455 -3.7243 22.734 88 72 62
-9.8549 -3.2997 22.475 90 73 61
-1.8124 1.6982 11.781 239 155 154
-4.9326 1.9175 10.489 14 7 2
-2.4673 1.5646 11.13 133 66 56
-1.3519 -1.0477 16.585 50 34 26
-3.2981 1.7887 13.422 213 167 172
-2.0189 2.0425 13.558 250 96 58
-5.1188 1.6811 9.9456 105 86 70
-5.2263 1.8016 10.183 55 42 36
-10.348 -3.5208 23.779 89 72 60
-13.352 -2.8528 28.068 255 242 192
-4.7898 3.1556 19.477 16 26 0
-10.954 -2.516 24.035 87 58 34
-11.212 2.1892 23.256 20 13 10
-11.212 2.1892 23.256 20 13 10
-5.3756 1.6196 9.5691 23 14 9
-3.9158 1.3068 9.6352 48 33 19
-1.0014 1.8125 12.242 191 0 10
-3.0872 1.6987 9.0587 137 107 92
-3.0872 1.6987 9.0587 137 107 92
-11.232 -2.1738 24.118 254 226 165
-11.305 0.1618 23.511 25 26 21
-10.605 -3.6647 24.514 88 72 58
-1.1784 1.687 12.213 214 163 164
-0.73105 2.0613 12.744 102 0 1
-1.9169 1.884 9.5368 96 69 58
-4.1049 1.5892 9.9245 12 11 2
-2.4056 1.7518 11.96 204 59 35
-2.2545 1.5016 9.3148 14 10 3
-12.8 -2.7458 25.098 177 149 123
-4.682 3.1414 19.355 82 85 46
0.18221 0.33011 20.542 86 75 57
-11.284 0.41873 23.69 79 65 55
-11.31 0.42716 23.754 79 65 55
-11.819 -3.0206 25.916 255 255 255
-11.733 -2.8752 24.853 254 217 177
-10.602 -3.9256 23.897 91 87 93
0.11872 -3.8801 21.902 72 58 64
-2.2678 1.9053 13.848 233 205 183
-5.5486 -3.4904 22.69 255 255 255
-2.4399 1.4289 8.3138 10 0 0
-5.0507 -3.699 22.565 96 79 67
-0.471 -1.9893 21.242 44 30 23
-6.2497 -0.61805 9.5155 162 136 108
-10.963 -1.9991 23.539 254 227 173
-4.7938 1.1989 -1.7899 255 255 255
-12.443 -2.4755 25.773 169 142 116
-10.833 0.38545 22.441 80 71 58
-5.4281 1.3674 21.419 29 15 10
-5.427 1.368 21.405 29 15 10
-10.873 2.0706 22.325 23 11 10
-10.866 2.7653 22.074 10 7 0
0.12359 1.3978 20.539 27 15 11
-1.7076 2.3794 10.899 12 2 0
-10.633 -0.34969 22.032 26 20 12
-1.6959 2.0631 13.572 41 18 10
-2.0054 2.3877 15.417 212 191 196
-3.8668 1.7673 11.46 32 29 15
-6.114 2.0757 11.491 137 113 98
-11.02 -2.1374 23.464 254 227 170
-11.157 0.12161 23.02 25 25 25
-11.189 0.12285 23.114 26 23 25
-1.8395 2.2278 10.773 10 8 4
0.29539 -3.813 21.957 74 61 51
0.28905 -3.8095 21.936 74 60 52
-1.2218 2.1749 13.905 199 186 194
-6.0991 2.1226 11.453 132 110 90
-6.0991 2.1226 11.453 132 110 90
-9.7708 -3.1989 22.039 86 70 58
-9.7708 -3.1989 22.039 86 70 58
-0.61778 1.9731 13.567 226 150 148
-2.4544 2.041 11.049 15 20 10
-0.20801 -1.4603 21.989 26 20 12
-12.721 -2.7003 26.206 255 239 188
-12.762 -2.6425 26.097 178 146 110
0.17894 -3.4784 22.951 53 41 37
-1.7778 2.3943 10.793 178 146 127
-2.353 2.1529 10.413 36 20 11
-11.348 -1.9625 23.588 151 123 98
-1.2308 1.9348 12.693 10 0 0
-1.2308 1.9348 12.693 10 0 0
-7.7516 3.2139 18.063 246 229 208
-3.8829 -0.35458 3.0874 11 13 7
-3.486 -0.60429 2.3587 103 71 60
-3.5439 0.48271 6.4434 198 187 199
-11.081 2.1693 22.656 82 66 51
-5.4737 2.8287 21.288 30 21 12
-2.5388 2.1959 15.167 221 22 18
-11.218 -0.47298 23.509 29 15 10
-12.624 -3.2915 26.961 255 255 255
-4.7786 3.1964 19.713 14 23 0
0.15668 -3.9029 22.026 64 54 62
-12.656 -2.8924 24.05 255 237 188
-11.03 -0.093012 23.067 13 15 15
-10.884 1.2975 22.936 84 68 51
-2.1056 2.0057 14.344 226 207 195
-10.278 -3.4611 23.503 89 72 60
-10.385 -3.5344 23.868 89 72 60
-13.015 -3.4692 28.163 255 255 255
0.23919 -3.9975 21.93 84 73 72
-7.62 -0.99412 12.179 255 234 184
-4.8032 -0.60963 7.3152 255 255 255
-12.931 -2.8846 24.443 165 139 110
-10.836 -2.3524 23.37 255 255 255
-10.689 2.0127 21.753 17 8 0
-10.945 -1.9342 23.45 254 229 178
0.079251 1.3786 20.403 25 17 10
-2.1211 2.1634 14.434 199 190 196
-11.024 -0.081969 23.011 21 18 19
-2.7256 1.9689 14.121 216 33 21
-5.8485 1.7527 10.586 13 18 8
-5.5918 1.6898 10.328 10 17 7
-6.6633 1.8222 10.884 20 10 1
-7.1927 1.9074 11.025 158 131 110
-6.4918 1.8245 10.768 134 107 87
-5.7331 1.8032 10.507 162 137 120
-12.862 0.18847 22.874 114 118 123
-12.862 0.18847 22.874 114 118 123
-4.7737 3.1901 19.662 18 29 1
0.17636 -3.8969 22.071 64 55 60
-12.762 -2.6115 25.964 172 145 117
-7.0451 1.9269 11.079 45 28 17
-5.8117 1.983 10.676 106 79 66
-5.5702 -3.4845 22.603 255 255 255
-5.5702 -3.4845 22.603 255 255 255
-11.125 0.097276 22.91 31 28 29
-11.125 0.097276 22.91 31 28 29
-6.3284 1.8508 10.818 33 23 17
-3.6035 1.8661 10.053 140 112 99
-5.7446 1.8407 10.641 162 137 120
-12.255 0.2515 21.335 17 14 17
-11.363 2.4473 18.545 26 17 10
-12.895 -3.5742 23.492 101 73 45
-12.895 -3.5742 23.492 101 73 45
-7.6161 1.6795 10.682 18 13 2
-7.3115 1.8285 11.071 30 19 9
-5.8983 1.8575 10.578 10 10 3
-5.2613 -0.29396 6.1504 255 255 255
-5.2613 -0.29396 6.1504 255 255 255
-6.241 1.6874 10.451 23 22 12
-4.2767 1.7458 10.456 48 0 0
-13.037 -2.9018 23.376 151 127 105
-13.037 -2.9018 23.376 151 127 105
-13.112 -3.135 23.639 255 239 188
-13.133 -3.1768 24.192 254 226 172
-13.07 -3.1592 24.07 254 226 173
-13.118 -2.3725 23.615 52 37 26
-5.8743 2.9988 19.081 10 8 6
-5.8743 2.9988 19.081 10 8 6
-7.3955 1.9416 10.966 10 0 0
-5.5974 1.7822 10.643 10 14 9
-3.8576 1.6017 10.424 15 18 4
-6.7062 -1.2278 20.235 78 58 43
0 0 0 1 0 0 0 1 0 0 0 1 0 0 0 0 0 269 1 0 0
