ply
format ascii 1.0
comment PCL generated
element vertex 323
property float x
property float y
property float z
property uchar red
property uchar green
property uchar blue
element camera 1
property float view_px
property float view_py
property float view_pz
property float x_axisx
property float x_axisy
property float x_axisz
property float y_axisx
property float y_axisy
property float y_axisz
property float z_axisx
property float z_axisy
property float z_axisz
property float focal
property float scalex
property float scaley
property float centerx
property float centery
property int viewportx
property int viewporty
property float k1
property float k2
end_header
-2.7331 1.4668 8.152 94 49 37
-5.2697 1.8951 19.513 27 15 7
-5.2683 1.8931 19.509 27 15 7
-5.2579 2.506 19.237 22 11 2
-5.2899 2.5356 19.389 22 11 2
-0.25592 2.798 19.539 47 24 17
-3.3387 1.4306 8.2209 42 23 13
-0.10772 1.8088 8.3955 137 92 67
-0.18211 0.39957 18.925 91 72 55
-5.0908 0.42087 19.781 97 80 58
-2.372 1.7145 12.946 227 188 157
-1.3875 1.5675 11.128 193 0 10
-2.313 1.5631 8.7788 7 0 0
-0.32968 1.7577 8.3316 134 86 67
-12.974 14.851 -65.665 82 67 59
-0.3893 -3.2254 20.668 255 255 255
-3.5968 1.4189 8.5788 104 77 58
-1.286 1.6221 8.885 7 8 0
-1.1214 -1.4623 17.809 53 40 30
-0.17557 -3.5381 19.903 255 255 255
-2.882 1.2772 -2.4614 255 255 255
-2.882 1.2772 -2.4614 255 255 255
-5.0632 -3.4802 20.73 255 255 255
-5.1182 -3.4299 20.773 102 85 80
-5.1143 -3.4264 20.749 102 85 80
-0.87116 1.4831 11.663 242 95 97
-0.24496 -3.4765 19.935 89 81 79
-0.24496 -3.4765 19.935 89 81 79
-3.1859 1.7966 12.538 213 61 22
-3.1205 1.8145 12.511 176 95 79
-0.34487 1.2704 18.734 27 15 10
-0.35419 1.8712 18.647 30 18 12
-1.6208 1.5303 11.152 234 88 57
-1.8909 1.6273 11.288 224 78 44
-3.533 1.6625 8.8847 48 22 10
-3.9466 1.6447 9.3964 26 13 8
-4.5859 1.7388 9.6716 74 50 39
-1.2721 1.6994 8.7352 97 78 60
-1.2721 1.6994 8.7352 97 78 60
-4.5783 1.6291 9.6916 25 10 2
-2.3095 1.6355 8.7938 141 113 98
-0.81292 1.5196 11.772 248 102 99
-2.9083 1.6003 12.868 254 218 158
-1.7473 1.5946 11.173 10 0 0
-1.7482 1.5898 11.163 10 0 0
-0.76885 1.3872 8.6984 28 17 1
-0.99605 1.3805 8.59 10 14 2
-1.5145 1.4843 11.219 225 155 157
-1.5145 1.4843 11.219 225 155 157
-3.6021 -0.8315 9.0855 93 76 66
-0.80492 1.4503 8.5077 17 10 0
-1.8078 1.4813 9.1682 11 10 0
-0.84652 1.5196 11.607 252 116 115
-0.9203 1.4054 8.7871 40 31 10
-1.8848 1.6346 8.3779 125 89 72
-0.34976 1.2698 18.72 29 15 10
-0.34928 1.8736 18.662 25 14 8
-0.83702 1.6473 8.2406 50 22 9
-0.86289 1.6749 8.3165 44 23 11
-3.4999 1.8002 9.5206 91 61 45
-2.791 2.2029 11.567 34 0 0
-4.3929 1.6881 9.2591 39 25 22
-9.7478 7.4763 -30.535 79 64 57
-2.5033 1.6201 9.0971 13 10 3
-3.8974 1.7144 9.5471 139 115 98
-4.9707 -3.338 20.975 96 80 70
-4.8718 -3.2531 20.755 88 72 62
-3.9332 -0.85693 8.7595 92 76 65
-0.45501 -2.7943 20.714 52 40 34
-0.81938 1.3541 8.8663 241 159 54
-2.3662 1.5024 9.3811 10 6 0
-1.1053 1.5625 8.8916 2 7 0
-2.6157 1.1459 9.5335 204 63 5
-0.31865 -3.4165 20.039 76 67 70
-0.29358 -3.4583 20.198 76 67 70
-9.9623 -3.4141 21.89 95 82 82
-2.4313 1.874 13.126 220 206 214
-9.9252 -3.38 21.876 94 81 79
-9.9252 -3.38 21.876 94 81 79
-4.0576 1.455 9.439 15 13 7
-3.0122 -0.35001 6.0194 96 82 76
-3.2902 1.917 9.8182 180 145 125
-10.295 -2.3243 22.182 249 254 255
-0.74257 1.5933 11.676 195 0 17
-3.896 1.7757 9.2404 124 91 68
-2.8925 1.7142 8.8592 44 18 10
-10.219 -2.2735 21.886 255 255 255
-10.015 0.44157 21.076 88 72 53
-0.34314 1.2628 18.733 21 15 10
-5.2444 1.2559 19.64 27 17 8
-5.2488 1.2588 19.675 27 17 8
-5.2676 1.8973 19.539 29 15 10
-5.2664 1.8958 19.526 29 15 10
-5.3211 2.5698 19.659 27 15 7
-5.2865 2.538 19.435 27 15 7
-2.4396 1.9135 13.216 209 184 186
-3.9683 1.6962 9.5249 23 10 4
-3.4723 1.7782 9.4239 68 44 29
-3.4723 1.7782 9.4239 68 44 29
-2.78 1.7315 9.3094 45 28 17
-2.2532 1.835 9.351 161 132 116
-2.243 1.8653 9.4404 161 132 116
-2.2914 1.7734 9.0194 20 10 9
-2.2165 1.7774 8.9667 25 11 10
-3.1389 -0.41012 6.5876 255 255 255
-3.5527 -0.51845 7.1331 255 255 255
-2.3053 1.6336 8.9824 13 3 0
-1.3101 1.6667 8.6578 103 80 59
-2.462 1.7792 9.2283 116 86 67
-5.0728 1.7003 9.5042 27 13 10
-1.2634 1.6392 8.8486 8 7 0
-2.4922 1.6026 9.0078 10 8 1
-3.8497 1.6692 9.4082 164 144 128
-4.9722 -3.3277 20.925 95 79 69
-4.7152 1.792 9.7705 4 1 0
-4.9116 -3.2851 20.833 100 87 76
-4.9036 -3.286 20.869 88 72 62
-9.0898 -2.8596 20.36 90 73 61
-2.0212 1.5338 11.069 239 155 154
-4.7929 1.721 9.9102 14 7 2
-2.603 1.4133 10.491 133 66 56
-1.6133 -0.89767 15.339 50 34 26
-3.3471 1.6405 12.659 213 167 172
-2.201 1.855 12.704 250 96 58
-4.9704 1.5191 9.4622 105 86 70
-5.0667 1.6271 9.6733 55 42 36
-9.5717 -3.0724 21.634 89 72 60
-11.668 -2.3234 24.081 255 242 192
-4.6791 2.8461 17.939 16 26 0
-10.055 -2.1698 21.721 87 58 34
-10.34 1.9669 21.155 20 13 10
-10.34 1.9669 21.155 20 13 10
-5.2016 1.464 9.1302 23 14 9
-3.8958 1.1872 9.1949 48 33 19
-1.2828 1.653 11.549 191 0 10
-3.1539 1.5397 8.6835 137 107 92
-3.1539 1.5397 8.6835 137 107 92
-10.343 -1.8726 21.908 254 226 165
-10.362 0.17574 21.247 25 26 21
-9.7621 -3.1809 22.182 88 72 58
-1.4418 1.5398 11.522 214 163 164
-1.0498 1.8702 11.968 102 0 1
-2.1055 1.7081 9.1116 96 69 58
-4.0657 1.4404 9.454 12 11 2
-2.546 1.5905 11.269 204 59 35
-2.4075 1.3643 8.9128 14 10 3
-11.718 -2.3843 22.764 177 149 123
-4.5823 2.8334 17.828 82 85 46
-0.2375 0.34193 18.923 86 75 57
-10.396 0.40393 21.53 79 65 55
-10.353 0.40742 21.423 79 65 55
-10.547 -2.5123 22.677 255 255 255
-10.661 -2.458 22.248 254 217 177
-5.8709 1.995 -4.3404 112 93 77
-9.8424 -3.4634 21.881 91 87 93
-0.3391 -3.3667 19.932 72 58 64
-2.4038 1.7608 13.112 233 205 183
-5.3399 -3.0595 20.76 255 255 255
-2.5442 1.3334 8.1281 10 0 0
-4.8972 -3.2437 20.651 96 79 67
-0.83438 -1.7207 19.463 44 30 23
-11.697 -2.3411 23.164 162 136 108
-10.16 -1.7418 21.55 254 227 173
-4.7015 1.0835 -1.1337 255 255 255
-11.571 -2.1951 23.8 169 142 116
-10.134 0.37985 20.793 80 71 58
-5.2431 1.2558 19.661 29 15 10
-5.2433 1.2573 19.666 29 15 10
-10.163 1.8974 20.677 23 11 10
-10.029 1.9798 20.491 83 64 46
-10.105 2.4996 20.297 10 7 0
-0.31916 1.2795 18.811 27 15 11
-1.8852 2.1974 10.46 12 2 0
-9.8441 -0.27766 20.144 26 20 12
-1.9188 1.8689 12.684 41 18 10
-2.1701 2.1955 14.504 212 191 196
-7.1806 3.5337 -13.618 255 255 255
-3.8594 1.642 11.002 32 29 15
-5.9284 1.926 11.045 137 113 98
-10.194 -1.8625 21.442 254 227 170
-10.319 0.14135 21.04 25 25 25
-10.353 0.14248 21.138 26 23 25
-2.0044 2.0597 10.349 10 8 4
-0.15193 -3.336 20.099 74 61 51
-0.18214 -3.3139 19.994 74 60 52
-1.4579 2.0022 13.14 199 186 194
-5.9147 1.9691 11.009 132 110 90
-5.9147 1.9691 11.009 132 110 90
-9.0781 -2.802 20.163 86 70 58
-9.0781 -2.802 20.163 86 70 58
-0.91231 1.8174 12.826 226 150 148
-2.5654 1.8904 10.61 15 20 10
-0.51645 -1.8515 20.459 26 20 12
-11.726 -2.3682 23.942 255 239 188
-11.704 -2.2991 23.7 178 146 110
-0.27951 -3.0157 20.888 53 41 37
-1.9418 2.2203 10.387 178 146 127
-2.4684 1.9993 10.045 36 20 11
-10.517 -1.7153 21.641 151 123 98
-1.4476 1.7955 12.1 10 0 0
-1.4476 1.7955 12.1 10 0 0
-7.318 2.8885 16.677 246 229 208
-4.0634 -0.117 4.0362 11 13 7
-3.8584 -0.26164 3.596 103 71 60
-3.5569 0.46126 6.4322 198 187 199
-10.241 1.958 20.666 82 66 51
-5.2848 2.5491 19.493 30 21 12
-2.698 1.966 13.999 221 22 18
-10.324 -0.38206 21.337 29 15 10
-11.763 -2.9566 24.976 255 255 255
-4.6725 2.8967 18.211 14 23 0
-0.34648 -3.3589 19.911 64 54 62
-11.945 -2.6429 22.704 255 237 188
-10.234 -0.050855 21.16 13 15 15
-10.053 1.1776 20.886 84 68 51
-2.3215 1.7934 13.254 226 207 195
-9.5553 -3.0525 21.547 89 72 60
-9.5888 -3.0826 21.659 89 72 60
-12.136 -3.1261 26.127 255 255 255
-0.25989 -3.4563 19.885 84 73 72
-13.864 -3.154 29.154 255 234 184
-0.20826 -3.4937 19.749 255 255 255
-4.7076 -0.50648 6.9937 255 255 255
-11.989 -2.5667 22.561 165 139 110
-10.109 -2.0833 21.603 255 255 255
-10.168 1.9017 20.673 17 8 0
-10.092 1.9984 20.685 83 67 48
-9.27 -3.347 21.53 85 67 56
-10.224 -1.7137 21.725 254 229 178
-0.34858 1.2703 18.734 25 17 10
-2.3696 1.909 13.227 199 190 196
-10.225 -0.053961 21.098 21 18 19
-2.9017 1.7324 12.927 216 33 21
-5.6022 1.5185 9.8193 13 18 8
-5.3805 1.4601 9.5829 10 17 7
-6.2971 1.5732 10.058 20 10 1
-6.7598 1.6541 10.212 158 131 110
-6.1538 1.5794 9.9756 134 107 87
-5.5019 1.5584 9.74 162 137 120
-12.118 0.20122 21.578 114 118 123
-12.118 0.20122 21.578 114 118 123
-11.84 -2.5336 22.221 177 143 108
-4.6683 2.8434 17.941 18 29 1
-7.0375 1.4203 -1.6527 64 55 60
-11.753 -2.2904 23.683 172 145 117
-6.6317 1.6702 10.254 45 28 17
-5.5714 1.7191 9.9036 106 79 66
-5.3597 -3.0547 20.7 255 255 255
-5.3597 -3.0567 20.695 255 255 255
-10.475 0.11589 21.499 31 28 29
-10.475 0.11589 21.499 31 28 29
-6.0132 1.6017 10.016 33 23 17
-3.6813 1.6131 9.3442 140 112 99
-5.512 1.5916 9.8576 162 137 120
-9.6318 -3.0996 21.889 91 71 60
-11.395 0.25122 19.769 17 14 17
-10.537 2.2028 17.115 26 17 10
-12.085 -3.255 22.031 101 73 45
-11.999 -3.2124 21.806 101 73 45
-7.1305 1.4619 9.9341 18 13 2
-6.8864 1.6111 10.332 30 19 9
-5.6389 1.5889 9.7533 10 10 3
-5.1322 -0.54119 7.5363 255 255 255
-5.0957 -0.24169 6.0052 255 255 255
-5.9381 1.4612 9.7025 23 22 12
-4.2561 1.5098 9.6899 48 0 0
-0.44671 -3.365 19.57 255 255 255
-11.905 -3.1454 21.722 255 236 191
-12.07 -2.5799 21.554 151 127 105
-12.07 -2.5799 21.554 151 127 105
-12.602 0.14779 22.733 48 42 31
-12.214 0.20947 21.786 114 119 115
-12.214 0.20947 21.786 114 119 115
-11.874 -3.2304 21.752 252 237 237
-12.236 -2.8266 22.05 255 239 188
-12.119 -2.8117 22.199 254 226 172
-12.132 -2.8214 22.263 254 226 173
-12.249 -2.1394 22.036 52 37 26
-5.6384 2.6828 17.478 10 8 6
-5.6384 2.6828 17.478 10 8 6
-6.9408 1.6901 10.18 10 0 0
-5.3869 1.5547 9.9014 10 14 9
-3.8803 1.4049 9.7246 15 18 4
-6.4398 -1.1281 19.502 78 58 43
-0.54228 -3.2647 19.39 67 58 64
-12.296 0.27915 21.928 26 21 17
-12.095 -3.2708 21.403 255 255 255
-12.416 -2.1746 21.804 50 38 26
-12.757 -0.30791 21.991 40 27 17
-12.483 0.24831 21.724 25 15 10
-12.129 -3.2036 21.607 107 88 74
-6.8723 1.7282 10.172 28 14 11
-2.8899 1.7286 13.004 217 30 22
-5.0305 1.5755 9.6541 12 1 0
-0.45527 -3.2122 20.504 255 255 255
-12.335 -3.1525 21.891 105 86 70
-6.4271 1.6039 10.096 25 10 4
-0.29812 -3.4299 19.771 77 68 71
-12.315 -2.8607 22.272 254 231 189
-12.723 1.2598 21.363 9 4 0
-12.933 0.41545 22.435 86 69 52
-0.28935 2.7279 18.703 33 19 14
-10.296 -0.049962 21.304 26 23 22
-11.789 -2.717 21.583 254 229 179
-10.861 -2.5568 22.033 255 255 255
-12.33 -3.3913 22.331 107 89 84
-12.467 -3.4016 22.423 87 69 65
-12.946 1.2398 21.75 72 53 38
-12.933 1.2416 21.718 72 53 38
-12.32 -2.1621 22.238 48 33 19
-12.206 -3.0326 21.478 139 118 104
-10.747 -2.4989 21.64 255 255 255
-0.40048 -1.9257 20.711 26 17 12
-11.269 -1.9641 24.2 169 140 107
-12.064 0.28502 21.238 25 17 14
-12.638 -3.5439 23.189 117 93 72
-0.64553 -0.66432 18.83 72 58 51
-12.632 0.39482 21.638 85 69 52
-5.3268 2.4699 18.966 30 18 10
0.41125 -3.5802 21.346 71 59 55
-0.59553 -1.7312 19.485 3 1 2
-11.217 -0.6104 21.736 47 30 22
-6.3983 -1.2479 20.611 73 58 43
0 0 0 1 0 0 0 1 0 0 0 1 0 0 0 0 0 323 1 0 0
