ply
format ascii 1.0
comment PCL generated
element vertex 1236
property float x
property float y
property float z
property uchar red
property uchar green
property uchar blue
element camera 1
property float view_px
property float view_py
property float view_pz
property float x_axisx
property float x_axisy
property float x_axisz
property float y_axisx
property float y_axisy
property float y_axisz
property float z_axisx
property float z_axisy
property float z_axisz
property float focal
property float scalex
property float scaley
property float centerx
property float centery
property int viewportx
property int viewporty
property float k1
property float k2
end_header
0.61213 -0.39261 10.197 9 1 5
0.58812 -0.35225 10.21 3 2 73
0.69508 -0.32878 10.156 2 102 84
0.80237 -0.31919 10.034 70 50 31
0.79538 -0.78525 10.489 18 71 21
-0.32623 -0.76648 10.765 124 20 16
0.97429 -0.56823 10.28 14 57 67
0.63182 -0.46636 10.228 140 109 55
1.2606 -0.45162 9.906 18 124 31
0.35432 -0.424 10.233 23 9 47
0.25202 -0.40616 10.25 28 29 6
-0.039318 -0.38615 10.272 82 32 5
0.24597 -0.37878 10.248 16 3 5
1.2641 -0.36906 9.9482 4 7 31
0.24922 -0.35656 10.25 193 149 82
0.57353 -0.33258 10.213 59 24 6
0.57353 -0.33258 10.213 8 92 104
1.274 -0.32551 10.046 5 10 2
2.0561 -0.29479 12.291 1 0 2
1.4371 0.26791 9.81 51 17 0
1.6851 -0.22038 10.004 21 39 8
1.2391 -0.20464 9.7482 32 4 23
0.58034 -0.10915 9.8033 11 38 95
1.3857 -0.11086 9.3136 10 42 36
0.68761 -0.064014 9.6882 1 177 10
-0.31791 -0.044359 9.8744 255 222 161
0.46012 -0.01332 9.7893 180 132 73
0.56584 -0.0049172 9.7743 168 132 72
1.1902 0.016726 9.5681 147 116 68
0.66023 0.026757 9.7237 14 7 18
1.2128 0.041884 9.5787 170 141 102
0.50207 0.027911 9.7991 24 6 7
1.147 0.13349 9.806 68 67 0
1.4346 0.16964 9.5645 12 3 5
1.4019 0.13915 9.5083 6 110 5
1.2146 0.1649 9.5579 9 31 122
1.3879 0.17139 9.6628 28 82 1
1.3987 0.19171 9.7183 128 12 0
1.1049 0.22689 9.8536 32 43 4
1.4098 0.1845 9.6988 6 29 24
-0.86559 0.33045 9.8516 5 147 0
0.6919 0.37314 10.035 4 0 0
0.9233 0.3777 10.023 3 10 6
0.92345 0.37761 10.023 146 108 59
1.3513 0.19823 9.5386 1 17 30
1.1814 0.41025 9.9941 130 91 42
1.2582 0.43888 9.9641 36 50 14
1.1855 0.44856 10.026 5 5 2
1.5534 0.49289 9.985 39 6 4
1.431 0.55016 10.045 113 72 27
-0.88823 0.45926 9.9724 11 4 6
0.30847 -0.84168 10.737 7 1 1
0.13394 -0.74359 10.703 58 61 2
-0.30955 -0.73832 10.763 21 14 30
0.81942 -0.71411 10.523 19 6 0
1.2206 -0.55538 10.225 1 2 132
1.2424 -0.53278 10.184 4 59 2
1.2624 -0.4893 10.121 1 0 13
0.81947 -0.48195 10.213 1 4 4
0.21733 -0.61287 10.121 43 17 5
0.4554 -0.44581 10.239 1 12 26
0.4554 -0.44581 10.239 254 230 168
-0.24637 -0.43134 10.299 81 123 0
0.48743 -0.42333 10.221 37 52 68
0.62323 -0.41469 10.199 86 16 0
-0.2623 -0.40523 10.295 66 3 8
-0.029955 -0.40607 10.273 14 6 1
-0.30088 -0.40386 10.303 15 0 0
0.17509 -0.40233 10.243 17 48 2
1.3931 -0.34082 9.8584 7 2 22
1.3414 -0.29133 9.4934 8 80 5
1.2347 -0.27069 9.9084 1 1 9
1.273 -0.24919 10.049 23 116 46
0.47068 -0.14176 9.4847 205 170 109
1.2727 -0.10471 9.4461 75 0 0
0.22022 -0.050043 9.8084 17 24 46
0.55367 -0.027462 9.7678 26 16 0
1.1547 -0.013226 9.5873 176 138 86
0.28488 0.25608 10.185 215 184 127
1.4652 0.169 9.3921 1 0 0
1.1688 0.20831 9.8294 115 21 5
1.4831 0.24515 9.8059 18 0 1
1.2072 0.25922 9.4845 106 18 0
1.5328 0.26826 9.4823 20 67 54
1.7558 0.31904 9.7546 9 135 2
0.98586 0.35605 9.9624 237 200 148
1.1879 0.3216 9.5091 5 1 1
1.5481 0.35899 9.7043 4 0 1
1.4026 0.13959 9.5201 3 125 23
1.116 0.39541 9.9908 4 0 3
1.1511 0.39493 9.9884 6 23 4
1.4986 0.48611 9.9931 60 4 1
1.1322 0.55575 10.131 59 27 1
-0.49273 -1.0808 10.855 1 1 33
0.74527 -0.89708 10.681 4 5 15
0.30849 -0.84305 10.745 16 0 2
-0.88174 -0.67778 10.153 27 33 6
1.4783 0.098955 9.3271 2 17 25
0.52296 -0.39373 10.207 8 121 2
0.22692 -0.75489 10.598 2 1 1
1.175 -0.38499 10.043 3 66 17
0.79622 -0.041231 9.6867 22 24 19
-0.085721 -0.026262 9.8464 34 29 10
0.64235 -0.0068793 9.7257 255 254 192
0.59793 0.048709 9.8314 1 140 4
0.13187 0.17989 10.649 25 10 6
1.2055 0.29822 9.9038 24 0 0
0.73873 0.34313 10.016 8 3 2
1.2067 0.34371 9.9342 35 0 0
1.2084 0.39776 9.9665 71 17 11
1.2153 0.50659 10.049 114 91 15
1.4658 0.55561 10.061 118 81 10
-0.62748 -1.1131 10.808 19 14 24
0.81158 -0.99805 10.668 16 4 0
-0.3882 -0.94838 10.879 50 44 1
0.58445 -0.87406 10.74 9 75 116
-0.065133 -0.87816 10.856 4 42 75
0.48805 0.29443 10.175 24 99 87
-0.95493 -0.61838 10.628 4 1 1
1.022 -0.50876 10.182 86 41 1
1.3225 -0.4559 9.9209 22 126 12
1.3225 -0.4559 9.9209 37 119 11
-0.94088 -0.33958 9.6045 241 207 146
1.7182 -0.0079704 9.7715 3 0 0
0.45128 0.23726 9.3305 12 11 12
0.69595 0.33982 10.028 55 120 13
1.0291 0.36751 9.98 56 52 16
1.0924 0.36696 9.9823 11 27 9
1.3113 0.35907 9.7563 61 3 2
-0.014494 0.31663 8.9945 218 172 108
0.24691 0.28058 10.205 27 6 5
-0.96482 -0.11452 9.4991 19 13 7
0.4401 0.24452 7.7238 11 43 5
1.5385 0.51635 10.093 57 18 17
1.1886 0.53408 10.098 10 124 10
1.5109 0.54293 10.048 131 0 0
1.556 0.54322 10.005 6 1 0
1.7139 0.010537 9.752 78 130 15
1.4302 0.59926 10.085 1 0 1
-0.57093 -1.1058 10.864 7 3 33
1.558 -0.55388 10.065 2 2 1
1.5857 -0.49339 10.052 129 57 8
-0.91328 -0.48032 9.7998 215 184 127
0.3058 -0.39969 10.242 3 10 17
1.6721 -0.10809 9.8328 121 9 1
1.3447 -0.065613 9.3086 11 16 25
1.3445 -0.065691 9.3081 18 22 33
0.95666 0.11754 9.7457 23 1 0
1.3051 0.27925 9.6717 19 8 1
1.0516 0.53136 10.111 19 9 0
-0.60917 0.61473 10.311 251 216 161
-0.42751 0.35675 7.8097 10 0 0
-0.67657 0.66839 10.303 31 21 15
-0.67657 0.66839 10.303 82 126 36
-0.83372 0.711 10.162 240 205 150
-0.5174 -1.0257 10.843 2 1 2
1.2042 -0.70123 10.413 2 0 2
1.54 -0.6769 10.032 12 0 0
1.3938 -0.029162 9.2918 239 210 146
1.7716 0.3688 9.7476 154 7 0
-0.4963 0.54218 10.373 24 33 18
0.4536 -0.96859 11.208 4 3 1
0.056116 -0.85108 10.838 212 178 105
0.77903 0.59979 10.187 41 11 26
-0.9304 -0.17768 9.4316 51 5 14
0.64568 -0.96779 10.707 10 7 36
0.60834 0.565 10.303 1 2 26
1.7892 -1.1615 15.249 58 0 0
-0.57739 -0.10045 10.045 255 226 155
-0.57803 -0.10072 10.05 3 2 96
1.0452 0.025256 9.8785 63 41 8
0.33137 -0.77903 10.686 215 176 110
0.27578 -0.76039 10.695 178 139 72
0.34702 -0.75944 10.679 180 138 72
0.32927 -0.74386 10.688 213 177 114
0.59913 -0.7225 10.646 155 118 55
0.11364 -0.46163 10.283 243 197 126
0.11364 -0.46163 10.283 243 197 126
-0.18797 -0.4072 10.292 168 120 54
0.2197 -0.40537 10.248 247 208 139
0.62289 -0.37706 10.197 166 127 63
-0.20375 -0.37061 10.297 199 155 78
0.60015 -0.33227 10.212 147 108 56
1.0267 -0.1897 9.8339 227 188 131
-0.33149 -0.031266 9.8886 201 167 115
1.312 0.026418 9.4255 163 137 100
1.4099 0.052473 9.3067 187 165 111
-0.16712 -0.0091991 9.8709 201 159 96
1.374 0.070969 9.4151 134 114 84
0.55169 0.012735 9.7888 239 205 146
-0.71577 0.060661 9.8291 246 202 144
-0.71551 0.060418 9.8297 237 194 133
-0.083942 0.021702 9.8912 208 175 138
1.1582 0.056107 9.6694 137 106 52
1.1582 0.056107 9.6694 137 106 52
0.10593 0.044514 9.9361 226 191 137
0.94228 0.081599 9.7295 203 176 134
0.96727 0.083008 9.7231 219 187 137
1.0658 0.075875 9.75 181 142 88
-0.60576 0.11215 9.9662 246 206 149
-0.60634 0.11252 9.9655 248 209 154
1.3583 0.12742 9.6803 85 54 17
1.3538 0.14184 9.7058 182 147 95
1.3728 0.15479 9.6828 100 68 27
1.3732 0.17027 9.7249 170 134 89
1.3603 0.17888 9.737 129 94 44
1.2839 0.2253 9.6264 183 156 108
1.3666 0.19842 9.7541 141 105 51
1.401 0.21452 9.7613 160 126 83
-0.54676 0.22792 10.074 176 131 76
1.1011 0.22402 9.8416 238 201 138
1.3574 0.229 9.7817 148 108 58
1.3573 0.22902 9.7819 146 109 58
-0.86562 0.33069 9.8475 171 133 83
1.4326 0.27408 9.7202 220 173 99
0.91468 0.26805 9.9496 161 122 71
1.0313 0.29521 9.9474 239 194 123
1.0904 0.29465 9.9376 227 185 121
0.1481 0.22074 10.562 247 195 124
1.5197 0.3656 9.8812 71 40 11
-0.49858 0.38002 10.197 163 120 73
-0.49858 0.38002 10.197 163 120 73
0.94127 0.35968 10.03 239 197 144
1.4599 0.29429 9.8305 158 123 84
1.2271 0.26652 9.8103 132 97 53
0.95438 0.39785 10.016 181 140 84
-0.39394 0.39812 10.283 185 140 81
-0.3934 0.39765 10.284 185 140 81
0.57355 0.39324 10.133 255 217 155
-0.09183 0.39857 10.247 175 131 69
-0.09183 0.39857 10.247 175 131 69
1.5435 0.40929 9.9056 73 43 13
-0.83902 0.50159 9.989 217 177 126
-0.83889 0.50323 9.9836 217 177 126
1.4035 0.44029 9.9542 199 157 107
0.66605 0.44885 10.099 250 210 149
0.5569 0.45114 10.167 255 215 166
0.67902 0.46522 10.108 202 159 103
1.6108 0.48164 9.9466 50 30 3
0.52778 -0.7612 10.654 168 129 65
0.011054 -0.74596 10.732 172 129 66
1.2675 -0.53701 10.152 79 55 23
1.195 -0.558 10.246 103 74 34
1.2566 -0.42763 10.046 98 73 31
-0.44889 -0.43238 10.327 209 164 97
0.0732 -0.43165 10.27 202 160 85
1.2588 -0.41135 10.082 100 74 35
0.55585 -0.41637 10.209 180 140 79
0.0043625 -0.40733 10.267 255 217 145
-0.26249 -0.37413 10.314 214 169 98
1.5757 -0.55788 10.867 44 27 6
0.6652 -0.059953 9.7167 220 181 112
-0.49836 -0.027664 9.9003 188 148 91
1.332 0.035816 9.3988 84 59 18
0.33155 -0.026018 9.8043 231 197 128
1.3578 0.0465 9.3893 190 164 124
0.45886 -0.013996 9.7909 174 129 69
1.3838 0.06724 9.3755 78 59 23
0.22252 -0.0033096 9.8571 167 132 66
0.45598 0.0068047 9.7958 255 223 154
-0.21886 0.01128 9.9005 255 234 173
0.89119 0.022329 9.6949 240 205 140
-0.11646 0.016613 9.8994 212 178 121
0.39584 0.019488 9.8152 186 144 80
0.91972 0.034605 9.6851 160 126 68
0.8757 0.036191 9.7207 142 107 51
0.87548 0.035084 9.7237 142 107 51
1.198 0.052153 9.625 129 98 51
0.56254 0.036311 9.7951 148 111 58
-0.18678 0.032619 9.9628 226 196 146
-0.15927 0.032799 9.9642 222 194 144
0.50886 0.040281 9.8327 201 165 103
0.0075391 0.0422 9.9404 226 200 152
0.92107 0.074424 9.7011 120 89 42
1.2267 0.15579 9.4938 78 55 19
-0.80572 0.17337 9.8201 179 134 83
1.1689 0.11765 9.8017 110 76 27
0.9679 0.13529 9.7778 115 78 27
0.94138 0.15906 9.8136 163 124 67
0.9052 0.19381 9.8721 152 116 60
-0.62512 0.23445 9.9843 255 228 166
0.90904 0.23872 9.9013 187 147 88
0.94594 0.24223 9.8963 174 136 74
1.0161 0.24801 9.8755 183 141 85
1.0161 0.24801 9.8755 183 141 85
0.94843 0.28259 9.9502 154 117 64
-0.44409 0.28531 10.273 224 177 115
-0.61412 0.34294 10.068 187 141 86
-0.37499 0.31683 10.257 255 246 173
-0.057889 0.31905 10.214 255 255 176
1.4973 0.3344 9.8572 63 34 5
-0.71494 0.3824 10.104 255 228 168
0.58601 0.33295 10.135 220 176 109
0.58598 0.33203 10.14 227 178 112
-0.172 0.34382 10.232 241 193 122
-0.172 0.34382 10.232 241 193 122
-0.45363 0.3536 10.264 192 143 91
-0.70177 0.39472 10.115 217 168 108
-0.4476 0.37736 10.269 255 220 149
0.67134 0.37274 10.081 208 169 108
1.1318 0.37382 9.9815 136 98 53
-0.60823 0.41811 10.134 180 139 92
-0.60781 0.41809 10.134 180 139 92
-0.41763 0.38146 10.285 255 232 169
-0.17006 0.39751 10.257 177 127 66
0.55729 0.40947 10.135 195 145 89
-0.098276 0.4175 10.266 255 239 163
1.4184 0.4262 9.9457 139 102 49
1.4437 0.42992 9.9534 181 141 93
1.4437 0.42992 9.9534 181 141 93
0.96026 0.4322 10.042 185 146 85
1.5547 0.42977 9.9278 60 33 4
0.59333 0.43609 10.143 177 137 87
0.59336 0.43432 10.151 177 137 87
0.59336 0.43432 10.151 177 137 87
1.4268 0.44948 9.9715 116 79 31
1.4268 0.45073 9.9691 116 79 31
1.2562 0.48472 9.9944 157 123 87
0.94126 0.49792 10.123 218 174 116
0.57458 0.49106 10.305 143 128 108
1.0838 0.51385 10.097 220 190 139
1.2601 0.53046 10.039 120 97 70
-0.52698 0.56465 10.35 167 121 64
-0.52721 0.56413 10.353 167 121 64
0.96634 0.5697 10.161 104 73 39
-0.65644 0.63596 10.322 234 190 137
1.1198 -0.55362 10.251 130 97 48
0.12475 -0.42998 10.264 198 153 80
0.16331 -0.43162 10.258 203 164 94
0.35133 -0.40018 10.232 255 224 157
0.35133 -0.40018 10.232 255 224 157
-0.79422 -0.041926 9.6399 255 226 159
-0.4783 -0.093937 9.8615 255 237 180
1.297 -0.015503 9.383 88 61 15
1.2913 -0.0011968 9.4154 200 170 115
-0.48278 -0.048524 9.8893 255 229 152
0.26786 -0.050278 9.8082 255 232 158
0.35544 -0.045054 9.8019 255 255 196
-0.25779 -0.036618 9.869 255 246 177
-0.45832 -0.024422 9.8963 215 172 104
0.32645 -0.0018838 9.8132 255 255 201
1.2288 0.033134 9.5459 64 40 9
-0.023701 0.0049232 9.859 148 110 68
1.4455 0.085169 9.3166 173 146 87
-0.16721 0.007512 9.8926 253 213 150
-0.92004 0.1012 9.6729 154 110 51
1.1268 0.054397 9.6856 210 177 113
0.54163 0.32202 8.6816 16 6 0
0.92194 0.10675 9.8044 204 171 117
1.1917 0.14775 9.7647 206 173 121
1.1695 0.15169 9.8012 88 54 9
1.1695 0.15164 9.8018 84 53 9
1.147 0.1733 9.8083 246 211 145
1.2197 0.18155 9.7673 119 85 44
0.925 0.1749 9.8641 242 203 139
0.94304 0.2046 9.8683 168 134 78
1.4072 0.22804 9.7825 163 127 82
1.0382 0.26923 9.8955 238 201 136
-0.87261 0.34796 9.8529 255 232 173
1.6021 0.33918 9.5261 131 104 56
1.1804 0.31579 9.9274 107 71 28
1.1805 0.31715 9.9221 107 71 28
-0.43782 0.31713 10.251 255 231 157
-0.3847 0.34067 10.254 224 170 106
0.78616 0.34282 10.04 203 155 98
-0.31847 0.34302 10.246 233 182 115
-0.31925 0.34338 10.246 233 182 115
-0.2913 0.34318 10.243 234 183 116
-0.21981 0.64934 8.6647 234 183 116
-0.1301 0.34142 10.225 242 192 124
0.049805 0.32932 10.236 225 178 114
0.15159 0.3488 10.185 247 195 124
-0.61924 0.39759 10.122 255 217 158
0.43433 0.36461 10.148 228 178 108
1.2782 0.38871 9.9043 105 75 37
1.6692 0.43056 9.6054 69 49 20
0.23023 0.38191 10.187 255 251 171
-0.45529 0.39804 10.287 123 82 47
0.53117 0.39496 10.141 255 235 169
0.67321 0.40768 10.073 208 165 107
0.93784 0.41059 10.037 244 201 142
1.1808 0.41131 9.9899 119 82 32
1.2391 0.42092 9.9501 137 101 54
0.92849 0.44841 10.073 117 80 39
1.4911 0.45718 9.9454 133 97 48
1.4911 0.45661 9.9458 132 94 47
1.0528 0.48537 10.053 236 193 125
1.4233 0.50545 10.007 106 73 26
-0.57633 0.54557 10.346 175 131 84
-0.84266 0.66934 10.125 159 118 72
-0.8416 0.67002 10.123 159 118 72
0.83207 -0.55017 10.289 125 97 47
1.2966 -0.13829 9.4016 64 43 11
1.2966 -0.13829 9.4016 64 43 11
1.2608 -0.042485 9.3958 238 206 143
-0.44415 -0.091872 9.8854 141 98 46
-0.44394 -0.091318 9.8838 141 98 46
1.3556 -0.0087092 9.307 162 136 78
1.3301 -0.0059312 9.3548 234 208 147
-0.43286 -0.049516 9.8829 255 246 162
-0.43256 -0.049432 9.8826 255 246 162
1.3707 0.025464 9.3338 138 114 62
1.1645 0.020139 9.593 203 170 111
1.3306 0.050369 9.5373 71 48 19
-0.88556 0.12012 9.6817 255 243 176
1.3974 0.14917 9.6073 43 27 1
0.70871 0.1792 9.845 20 10 0
1.1956 0.18804 9.7987 214 179 123
1.2062 0.254 9.8572 214 176 119
0.97768 0.29874 9.915 234 194 133
1.204 0.30061 9.8981 215 176 121
0.95835 0.30994 9.9832 156 118 71
1.2781 0.34782 9.8598 79 50 18
1.2745 0.35554 9.8383 79 50 18
-0.37594 0.37303 10.262 255 230 152
-0.094551 0.37431 10.23 255 245 174
1.208 0.39821 9.966 220 179 122
1.5303 0.51115 10.01 185 158 113
1.6393 0.51957 9.9689 7 1 0
0.95585 0.59002 10.204 224 188 147
0.9126 -0.033033 9.682 255 217 141
1.4082 0.079417 9.324 229 207 151
1.2327 0.042226 9.5335 90 70 34
1.3551 0.088179 9.5809 55 33 12
1.2601 0.2435 9.6833 89 64 28
-0.88027 0.31805 9.8264 160 120 71
-0.87733 0.32182 9.8197 181 139 86
1.5644 0.32731 9.6601 27 14 0
0.69669 0.3393 10.03 120 87 53
-0.5653 0.36074 10.187 195 149 98
1.1776 0.37389 9.9709 93 60 20
1.7229 0.40848 9.7033 168 151 129
1.3929 0.39876 9.9126 206 165 108
1.3064 0.43188 9.7935 191 159 108
1.62 0.43321 9.7046 27 14 3
1.6692 0.45379 9.6519 134 119 84
-0.61242 0.45372 10.168 255 234 176
1.5262 0.46544 9.9516 183 146 93
0.64787 0.48331 10.124 210 173 120
-0.56761 0.5265 10.303 192 146 93
1.5954 0.50712 10 172 145 103
1.0445 0.52175 10.08 37 19 3
1.5283 0.52411 10.094 10 2 0
0.71659 0.5414 10.152 233 202 160
-0.79065 -1.0877 10.723 182 160 105
-0.57092 -1.1099 10.875 15 6 3
0.66261 -0.85193 10.683 190 156 88
-0.74407 0.081136 9.8245 193 155 108
1.4052 0.1122 9.4235 31 20 3
-0.47179 0.23901 10.236 195 158 106
0.6341 0.29925 10.146 252 208 144
1.0545 0.32596 9.9351 219 177 113
1.1303 0.33518 9.91 202 162 104
1.1303 0.33518 9.91 202 162 104
1.4697 0.35232 9.8864 172 136 83
-0.49789 0.427 10.281 250 209 153
-0.44248 -1.0369 10.925 17 6 2
-0.44141 -1.029 10.903 17 6 2
-0.31857 -0.92101 10.846 14 7 0
0.92413 -0.88856 10.615 10 4 1
1.067 -0.80744 10.474 151 133 95
1.3494 -0.15833 9.3289 211 181 116
-0.78899 0.037255 9.6809 255 223 159
1.7823 0.21332 9.8134 146 120 80
0.63051 0.30733 10.144 255 212 143
-0.59123 1.1653 7.2783 255 244 170
-0.68142 0.669 10.346 23 15 8
1.2052 -0.66785 10.367 138 110 63
1.3182 0.15517 9.6788 201 163 103
1.4545 -0.66929 10.036 169 150 101
1.4012 0.14485 9.5067 173 148 112
1.1367 0.47983 10.02 238 193 122
1.6581 0.28149 9.5686 182 153 104
1.4344 0.47858 9.9913 175 142 88
1.1963 0.60487 10.228 1 0 0
0.7946 0.43151 10.136 226 178 116
-0.22153 -1.1421 10.906 6 1 0
-0.70656 0.38849 10.166 225 175 114
1.0425 -0.043341 10.199 202 164 103
-0.71947 0.032705 9.8066 236 197 141
-0.69888 0.043912 9.8174 199 155 94
0.49612 0.0075539 9.794 233 199 131
-0.50773 0.027574 9.9534 223 191 143
-0.16873 0.022159 9.9353 91 59 8
-0.16826 0.02044 9.9378 91 59 8
0.16354 0.031465 9.8702 227 198 142
0.88509 0.055086 9.7428 113 82 36
0.20082 0.036235 9.8993 80 52 16
0.066999 0.028792 9.9978 85 70 48
1.3502 0.099957 9.6291 126 102 72
0.34222 0.053369 9.9058 207 179 138
1.0168 0.074252 9.7563 190 155 95
1.3365 0.10043 9.6492 84 53 11
-0.76464 0.17037 9.8186 165 129 75
1.2878 0.17647 9.5619 127 98 49
1.3813 0.1754 9.6854 76 44 12
-0.68005 0.22551 9.9808 255 207 138
-0.54674 0.2279 10.073 175 131 70
1.1808 0.26718 9.8654 168 131 75
0.93306 0.2672 9.9377 232 196 140
1.4724 0.32235 9.8496 156 122 87
-0.63842 0.38192 10.105 215 169 105
0.96251 0.37306 9.9898 141 101 52
-0.70712 0.42238 10.142 196 148 100
1.2752 0.41864 9.9274 99 70 32
0.67875 0.43291 10.085 212 172 112
0.5195 0.42092 10.156 176 134 75
0.95044 0.44336 10.061 215 180 127
-0.77898 0.54172 10.121 211 166 110
0.67884 0.46533 10.108 192 152 92
0.94067 0.46961 10.086 208 173 127
-0.55137 0.51887 10.322 188 138 84
1.2274 0.51893 10.074 113 95 75
-0.73474 -1.0672 10.699 161 145 110
0.030821 -0.43636 10.278 204 163 95
1.3915 0.02138 9.3168 215 193 134
1.1931 -0.051145 9.5984 142 114 66
1.2055 -0.013851 9.5179 183 158 115
0.22102 -0.052482 9.8173 176 130 66
0.81295 -0.020945 9.6961 207 169 102
1.3311 0.049822 9.4419 167 142 103
-0.87323 0.090091 9.6822 185 145 86
-0.6291 0.044101 9.8184 188 148 94
-0.6291 0.044101 9.8184 188 148 94
0.20144 -0.0029868 9.8401 255 216 155
0.93922 0.021483 9.6737 235 204 142
0.45514 0.0063519 9.7973 254 216 152
0.89188 0.022581 9.6941 237 202 139
0.3115 0.014108 9.8241 185 146 80
0.54687 0.045946 9.8278 212 180 121
-0.49354 0.042466 10.043 195 169 134
-0.8058 0.17333 9.82 170 125 71
-0.44194 0.029525 10.339 133 110 82
1.2235 0.20069 9.7847 128 96 46
0.96963 1.1815 7.16 105 90 66
-0.85111 0.31774 9.8373 255 214 160
0.99431 0.29962 9.9284 232 190 129
1.499 0.33432 9.797 136 112 81
-0.19804 0.29008 10.242 246 201 127
1.3809 0.35913 9.8887 141 105 58
1.3809 0.35913 9.8887 141 105 58
1.4201 0.36804 9.9029 143 105 56
0.41261 0.34098 10.159 255 251 175
0.67133 0.37349 10.079 209 167 106
0.92308 0.37781 10.022 148 108 60
1.2158 0.53036 9.5665 183 149 107
0.88902 0.41555 10.078 222 178 127
0.90683 0.44198 10.103 227 181 128
1.5853 0.47466 9.8968 129 109 82
0.53883 0.47488 10.214 217 179 132
1.629 0.49134 9.9673 145 120 95
0.58716 0.47869 10.199 175 141 105
1.4077 0.51584 10.03 212 172 121
1.3047 0.5456 10.042 204 179 138
0.95931 0.54235 10.129 142 103 48
-0.64773 -0.08439 9.7215 255 234 165
0.5267 -0.058642 9.785 204 161 105
-0.28874 -0.025462 9.8883 118 80 33
-0.28874 -0.025462 9.8883 118 80 33
0.26564 -0.0049387 9.8176 255 245 178
-0.88383 0.11486 9.6873 255 240 176
0.14757 0.014237 9.8439 115 75 38
1.3165 0.073244 9.5687 173 144 99
-0.24488 0.031935 9.9689 223 192 146
-0.063835 0.040022 9.9477 214 181 131
1.1813 0.075501 9.684 188 159 105
0.99448 0.10523 9.7659 187 148 96
1.7805 0.15598 9.7506 138 113 79
1.2254 0.24025 9.7958 121 88 45
1.8083 0.19676 9.8303 112 90 63
1.232 0.30446 9.855 127 90 47
-0.61485 0.33797 10.08 182 140 86
1.2527 0.32978 9.8695 174 141 100
0.56853 0.30277 10.158 255 226 155
1.0705 0.34196 9.9777 209 167 112
1.178 0.35037 9.9436 114 81 34
1.2578 0.37212 9.8971 169 135 95
1.2348 0.35976 9.9542 149 111 61
0.28265 0.36574 10.164 252 200 129
1.4529 0.41013 9.9352 136 100 53
0.20943 0.39929 10.202 194 149 91
0.16139 0.43637 10.179 160 113 49
1.421 0.48181 9.982 123 90 40
-0.44234 0.46589 10.39 64 46 31
0.82177 0.51667 10.173 255 221 162
0.82177 0.51667 10.173 255 221 162
-0.3994 -0.10296 9.8851 255 253 177
1.2257 -0.0058816 9.4723 93 72 34
1.2257 -0.0058816 9.4723 93 72 34
0.096941 -0.014749 9.8325 255 246 176
1.2386 0.10942 9.5743 76 55 17
1.1454 0.073576 9.7162 62 39 9
1.4338 0.17523 9.5605 163 137 100
1.2822 0.19411 9.5921 203 171 116
1.8018 0.17724 9.8012 137 107 73
1.145 0.30938 9.9209 205 168 111
1.1458 0.30575 9.9289 205 168 111
0.79495 0.40392 10.103 206 161 101
1.5231 0.42028 9.9221 165 129 87
1.582 0.46458 9.8074 45 28 7
1.3093 0.5409 9.951 30 20 6
1.6739 -0.36715 10.115 124 102 74
1.0034 0.10037 9.7508 178 142 87
1.7492 0.12295 9.7219 165 136 91
-0.64615 0.182 9.9345 246 207 141
-0.62673 0.29829 10.043 252 210 148
-0.87965 0.64389 10.103 244 198 140
1.4658 0.555 10.058 187 158 119
-0.63359 -1.0902 10.788 167 152 110
-0.78797 0.02946 9.6777 255 221 155
1.2629 0.045723 9.434 198 173 119
-0.51835 0.06418 9.9239 224 190 136
-0.47788 0.19207 10.177 170 140 98
1.3187 0.51324 9.885 199 166 115
1.0799 0.55588 10.198 8 2 0
0.99488 0.55881 10.088 229 194 140
-0.78937 0.74817 10.233 22 12 7
1.1272 -0.73511 10.404 20 10 5
1.2885 0.11357 9.5378 183 151 96
0.71308 0.13777 9.8263 243 208 140
-0.51813 0.32271 10.136 245 205 139
1.6864 0.48231 9.7442 0 0 0
1.3769 0.55122 10.023 192 153 98
-0.55307 0.61936 10.384 26 18 10
-0.81471 0.66881 10.529 18 8 4
0.83353 -0.91152 10.638 174 154 103
0.72978 0.51443 10.178 246 207 145
1.0674 0.21573 9.8097 194 160 105
-0.29493 0.53637 10.408 10 1 0
0.55314 0.15362 10.029 9 0 0
-0.17985 0.128 10.108 11 2 3
0.89691 0.049229 9.7242 177 149 106
1.3738 0.1188 9.6203 48 27 2
0.34242 0.053317 9.9059 206 177 130
0.94625 0.19299 9.8452 174 139 76
-0.57259 0.22621 10.078 164 124 74
1.2998 0.31272 9.7049 194 165 115
0.93249 0.26805 9.9361 214 179 127
1.3038 0.37851 9.7802 134 105 59
0.95874 0.33424 9.9576 97 61 12
1.404 0.3514 9.9049 193 156 105
-0.49288 0.36055 10.195 239 193 139
-0.5583 0.41273 10.234 237 191 142
1.4968 0.41956 9.9343 126 87 45
1.4034 0.43956 9.9558 207 169 116
1.4068 0.46321 9.9709 173 139 93
1.4065 0.46334 9.9706 176 140 95
-0.12521 0.4429 10.41 85 72 53
-0.42708 0.45213 10.447 105 87 72
0.58278 0.47915 10.267 27 14 1
0.14349 -0.040506 9.8188 239 196 120
0.38515 -0.035582 9.812 234 191 121
1.1936 0.016852 9.605 135 104 54
0.21609 -0.0083688 9.8201 161 121 57
0.99794 0.017489 9.6751 211 177 115
0.58715 0.0070169 9.7727 224 190 131
0.22963 0.03831 9.9007 55 30 0
1.2089 0.089998 9.6887 116 86 40
1.2741 0.2088 9.6219 116 93 52
-0.85153 0.31743 9.8379 247 207 146
1.2916 0.24896 9.6437 189 160 105
0.92943 0.22731 9.8799 231 196 133
-0.83714 0.4462 9.9483 226 185 133
-0.83714 0.4462 9.9483 226 185 133
-0.49681 0.37718 10.202 140 97 52
1.4772 0.40503 9.924 177 142 90
-0.4175 0.38193 10.284 255 226 165
0.52246 0.42138 10.155 155 113 60
1.1853 0.4515 10.036 170 129 72
1.1853 0.4515 10.036 170 129 72
1.0133 0.48393 10.065 225 184 120
0.94795 0.48016 10.104 98 64 21
0.5269 0.47785 10.267 27 13 0
0.98043 0.55947 10.126 206 174 125
0.94397 0.54447 10.171 212 173 117
-0.79854 1.2899 10.556 51 43 39
-0.79781 1.2916 10.552 51 43 39
1.3094 0.034185 9.4713 76 53 13
0.64193 -0.0064942 9.7252 255 247 182
-0.16756 0.0084699 9.8899 245 210 147
-0.67563 0.12233 9.8758 192 148 82
-0.54388 0.086938 9.9471 193 151 88
-0.86998 0.28674 9.8164 254 223 164
1.279 0.3878 9.9043 103 73 37
-0.66334 0.42569 10.147 197 150 90
1.4527 0.40902 9.9366 127 94 47
1.1806 0.41115 9.9902 119 84 34
0.93839 0.41033 10.037 237 194 133
0.23164 0.42297 10.217 255 225 156
-0.44796 0.43233 10.333 69 37 7
0.48139 0.44089 10.179 255 231 164
-0.79578 -0.023697 9.662 162 121 67
-0.79578 -0.023697 9.662 162 121 67
0.14297 -0.013071 9.8266 255 250 177
-0.7764 0.19551 9.8337 254 219 160
1.184 0.11874 9.7188 184 152 99
-0.71511 0.47188 10.179 204 161 111
1.1533 0.43915 10.018 232 191 125
1.1517 0.48269 10.05 239 195 129
-0.64871 0.56695 10.261 210 159 94
0.95207 0.097632 9.7622 38 17 2
1.2531 0.20214 9.6364 92 68 37
1.2758 0.48181 9.9249 89 62 30
1.2758 0.48181 9.9249 89 62 30
-0.73848 0.63778 10.202 253 219 167
0.96244 0.048205 9.7079 220 186 124
1.0556 0.32127 9.9431 229 187 119
1.7948 0.2913 9.8779 0 0 0
-0.56504 0.36094 10.186 182 136 85
1.1246 0.52488 10.108 239 198 137
1.5388 0.51551 10.094 6 1 0
1.0017 0.17209 9.8384 231 194 125
-0.68946 0.45707 10.116 221 171 115
0.55414 0.24261 10.142 15 6 4
0.87154 0.51163 10.23 232 190 127
-0.68405 -0.045682 10.276 229 188 125
1.4733 0.11504 9.347 140 114 59
0.5435 0.021638 9.8014 108 80 30
-0.15523 0.014222 9.9176 170 141 97
0.20237 0.025787 9.86 250 214 153
-0.64517 0.20876 9.9566 166 127 71
1.3848 0.19152 9.7411 160 127 86
1.1157 0.24021 9.8561 225 187 130
-0.79745 0.38889 10.005 255 219 150
0.89616 0.25257 9.9478 228 192 134
1.5074 0.37664 9.8953 158 125 85
-0.41869 0.36107 10.276 143 97 33
-0.12688 0.38231 10.237 189 146 90
0.56274 0.47689 10.24 140 118 89
0.68392 0.51853 10.163 122 95 55
0.50906 0.48242 10.294 191 169 133
0.50913 0.48193 10.294 191 169 133
0.82261 0.55178 10.307 110 91 70
1.4115 0.053247 9.3076 171 151 92
-0.48538 -0.04411 9.8843 254 226 158
0.99903 0.017265 9.6755 207 177 116
1.2208 0.079964 9.6284 153 126 86
1.1621 0.059536 9.6684 104 76 32
1.163 0.057615 9.6705 104 76 32
0.92327 0.061289 9.7273 89 58 16
-0.87605 0.30695 9.832 135 97 47
0.9408 0.14338 9.823 139 103 47
1.2466 0.25477 9.8012 170 142 104
1.2287 0.27655 9.8339 143 108 57
0.9183 0.26901 9.9515 127 93 47
1.5787 0.38973 9.7054 58 34 8
1.2315 0.30603 9.8912 140 105 54
1.3991 0.35018 9.8814 189 153 106
-0.68839 0.4071 10.13 255 209 141
-0.84562 0.51613 10.002 255 224 175
1.254 0.38389 9.9136 172 138 98
-0.49651 0.37518 10.205 142 100 52
0.94527 0.37632 10.007 222 186 132
1.255 0.40601 9.9293 191 157 115
0.95374 0.3962 10.019 176 136 78
-0.41852 0.38047 10.286 253 211 158
1.418 0.42701 9.9453 126 90 41
0.82095 0.40445 10.084 241 197 132
0.82095 0.40445 10.084 241 197 132
1.4275 0.44944 9.972 97 64 17
0.58563 0.46945 10.212 173 140 101
1.4279 0.53406 10.019 119 86 40
-0.42513 0.44207 10.462 109 90 71
1.1775 0.50466 10.127 61 38 22
-0.8352 -0.013097 9.6703 207 165 100
1.1766 0.054883 9.6439 188 157 103
0.50729 0.023881 9.8077 150 109 55
0.081914 0.030026 9.8756 206 172 113
-0.76635 0.17495 9.8146 165 130 74
0.14612 0.036654 9.9048 66 32 0
0.14509 0.032424 9.9096 66 32 0
1.1007 0.076013 9.7504 181 144 90
1.2497 0.28955 9.833 160 133 93
-0.63276 0.36413 10.088 251 209 142
-0.29077 0.34282 10.243 226 176 106
0.0095563 0.34434 10.211 235 185 115
0.4348 0.36424 10.149 239 191 123
1.4442 0.42998 9.9544 179 141 94
-0.17003 0.40004 10.254 186 141 81
-0.547 0.47111 10.278 197 149 94
-0.83459 0.64235 10.114 254 215 157
0.53853 0.47925 10.208 216 174 122
0.82126 0.51786 10.171 255 229 167
1.3545 -0.01231 9.3127 151 129 69
1.3021 -0.022306 9.3925 76 53 14
1.3852 0.073437 9.3684 78 63 29
-0.47193 0.0096851 9.9637 68 43 16
0.047585 0.026595 9.8827 205 176 118
-0.64098 0.11336 9.8722 248 209 145
-0.6233 0.20383 9.9686 184 147 92
1.5141 0.31273 9.6554 157 135 96
1.6031 0.38282 9.5816 144 120 79
1.5437 0.34578 9.7075 164 138 100
0.98415 0.35554 9.9647 235 197 137
-0.90287 0.69191 10.16 65 36 10
1.2632 -0.058966 9.4186 203 177 118
1.329 0.00017092 9.3476 232 207 147
-0.79181 0.0069607 9.6939 254 221 154
1.2749 0.069797 9.4701 171 141 89
-0.78503 0.093125 9.7624 253 217 156
-0.78203 0.14214 9.7927 246 208 144
-0.78066 0.14666 9.7873 246 208 144
1.0092 0.087814 9.7649 174 138 81
-0.64623 0.18613 9.9297 249 208 136
1.0371 0.13571 9.8095 169 128 73
1.0937 0.14008 9.797 161 122 65
-0.47152 0.081229 10.128 236 204 162
-0.91181 0.43872 9.9467 255 227 161
0.73964 0.55487 10.205 18 8 0
1.2342 0.032391 9.5519 70 48 17
1.2919 0.19472 9.5956 206 178 119
1.2926 0.19612 9.5937 206 178 119
-0.52015 0.25898 10.112 247 208 141
0.9796 0.27175 9.9086 241 204 141
0.80567 0.27567 9.9683 255 219 154
0.74041 0.32558 10.035 255 234 168
-0.61268 0.54351 10.226 255 218 156
-0.85868 0.70469 10.149 244 206 144
0.81124 0.27625 9.9585 237 199 130
1.3049 0.52644 9.9732 21 11 4
1.3049 0.52644 9.9732 21 11 4
1.255 -0.1164 9.3727 6 1 0
1.7263 0.35593 9.8948 0 0 0
-0.8682 0.57846 10.058 255 238 168
1.4068 0.17048 9.5083 142 122 91
-0.89198 0.19358 9.7561 255 223 155
0.70722 -0.053525 9.7952 237 203 134
-0.6601 0.12759 10.123 244 203 138
1.0167 0.17535 9.9924 235 203 145
-0.18528 0.0098401 9.9101 98 67 20
-0.18518 0.012944 9.9075 98 67 20
1.2885 0.17137 9.5705 119 90 43
-0.11594 0.030915 9.9526 169 144 105
1.128 0.071982 9.7431 160 129 85
1.2841 0.22541 9.6264 168 146 96
0.98221 0.14648 9.7874 212 176 119
-0.53753 0.2169 10.062 236 193 133
1.2994 0.31554 9.7025 188 161 110
-0.6386 0.38134 10.105 200 159 95
-0.7138 0.41019 10.13 241 200 140
-0.85076 0.54995 10.037 214 179 127
-0.22384 0.34709 10.238 215 168 102
1.0253 0.41213 10.007 166 127 63
1.4838 0.45383 9.9483 112 78 35
0.88278 0.42892 10.093 110 71 27
1.2408 0.49994 10.032 119 83 44
0.60013 0.48208 10.242 81 68 50
0.56616 0.48358 10.289 161 136 97
-0.57201 0.57864 10.371 113 77 34
-0.71867 0.032737 9.8061 230 193 134
0.81415 -0.024108 9.6989 195 159 93
0.14441 -0.038134 9.817 225 185 110
0.14441 -0.038134 9.817 225 185 110
1.1419 0.010202 9.6362 114 85 33
1.322 0.072858 9.5744 163 137 94
1.322 0.072858 9.5744 163 137 94
0.89241 0.018983 9.6965 231 196 134
0.89241 0.018983 9.6965 231 196 134
0.20205 -0.0048339 9.8425 253 214 154
1.1996 0.066648 9.6617 83 53 15
1.3901 0.14656 9.6344 42 20 1
0.90955 0.071315 9.7809 168 135 96
0.34416 0.047798 9.9117 203 173 118
0.34416 0.047877 9.9119 201 173 114
0.48674 0.053601 9.8864 198 164 110
1.1444 0.14001 9.7977 190 156 107
1.3169 0.39715 9.794 141 108 58
1.0851 0.34045 9.9707 200 160 107
-0.49024 0.36981 10.181 240 201 144
-0.44737 0.3798 10.265 238 194 142
0.82048 0.40627 10.082 242 203 137
1.4282 0.55436 10.032 111 81 36
1.4282 0.55436 10.032 111 81 36
1.3896 0.022993 9.307 216 198 139
-0.44564 -0.096063 9.891 138 91 29
1.1765 0.055022 9.6438 187 156 103
-0.062195 0.037199 9.951 212 178 123
-0.54622 0.10211 9.9666 233 195 124
0.23129 0.04622 9.9228 175 150 109
0.23129 0.04622 9.9228 175 150 109
1.1638 0.28395 9.9058 50 28 2
0.95002 0.28117 9.957 114 82 37
1.1833 0.31722 9.9198 92 59 20
1.1829 0.3172 9.9199 92 59 20
0.92324 0.37845 10.024 150 115 72
0.3165 0.36207 10.164 238 185 121
1.3967 0.49098 9.9935 205 168 117
1.0845 0.51146 10.1 235 203 148
-0.53074 0.56434 10.354 153 104 54
1.4534 0.26265 9.7457 115 100 82
1.2055 -0.034372 9.5392 180 157 113
0.27689 -0.082387 9.8196 254 238 160
-0.087707 -0.00010796 9.8683 123 90 51
1.1452 0.025287 9.6678 105 74 29
-0.47146 0.00023983 9.924 250 215 150
1.5457 0.33308 9.7182 151 128 87
1.0259 0.28303 9.9233 53 25 0
1.1768 0.38556 9.9559 110 76 37
-0.09449 0.37582 10.228 255 241 171
-0.74083 0.54517 10.159 252 215 163
0.35341 0.44601 10.365 107 89 61
1.2603 -0.082618 9.3786 19 10 0
-0.38634 -0.14323 9.8726 25 6 0
0.99056 -0.059661 9.5986 13 1 0
-0.34059 -0.12303 9.8834 255 243 165
0.76209 -0.059365 9.6663 28 9 2
-0.46133 0.024643 10.043 68 38 11
0.37336 -0.7581 10.929 5 0 0
0.98132 0.22668 9.8616 223 188 124
1.0468 0.49875 10.088 45 22 0
-0.88777 0.71575 10.212 47 26 13
1.0365 0.50668 10.301 11 4 1
-0.65794 -0.10906 9.5716 37 29 22
1.3131 -0.059116 9.3601 199 174 105
-0.54536 -0.14645 9.81 252 221 154
-0.078716 -0.12503 9.8373 16 3 0
1.1092 -0.022541 9.6171 219 186 117
1.2939 0.08457 9.5658 182 154 98
0.96878 0.04799 9.707 218 187 128
0.95156 0.09547 9.7638 41 18 3
-0.50081 0.40654 10.256 255 221 161
1.3982 -0.035275 9.3073 233 202 139
1.1243 -0.077257 9.5817 10 2 3
0.209 -0.1052 9.7965 9 3 0
-0.69686 0.43531 10.14 198 154 103
0.99944 0.49162 10.033 231 190 125
1.3021 0.52727 9.9728 22 12 3
-0.93899 -0.17907 9.4872 255 255 183
0.91836 0.48808 10.433 5 0 0
1.3733 -0.041617 9.3416 153 132 75
1.109 -0.069096 9.5173 7 1 0
1.0384 0.2085 9.8309 134 100 51
1.5326 0.217 9.7875 87 67 31
1.4789 0.41093 10.065 203 167 111
-0.66101 0.11654 10.133 250 213 149
1.0163 0.18052 9.9908 223 191 138
0.85697 0.018778 9.719 208 174 117
0.89729 0.046776 9.7257 184 157 117
0.96694 0.078647 9.7262 181 156 123
-0.21301 0.026454 9.9832 67 38 2
-0.70887 0.21516 9.9863 238 196 130
-0.25963 -0.29191 10.408 91 58 12
-0.59453 0.21658 10.066 223 186 133
-0.57114 0.21595 10.065 220 179 124
1.5927 0.45879 9.8854 62 39 13
1.4773 0.44213 9.9384 174 141 102
-0.81844 0.62867 10.152 191 148 92
0.50378 0.47394 10.245 122 99 74
0.8766 0.043479 9.7146 136 108 54
-0.58578 0.056397 9.9169 189 147 88
0.92489 0.17768 9.8581 227 195 144
0.90451 0.19006 9.8752 129 95 47
1.5287 0.37662 9.841 121 99 75
1.231 0.37354 9.9409 137 101 52
-0.49761 0.37978 10.2 142 104 59
-0.3175 0.34243 10.247 225 179 110
1.5667 0.44105 9.8853 121 101 77
1.5667 0.44105 9.8853 121 101 77
0.95284 0.39438 10.02 172 134 79
0.95284 0.39438 10.02 172 134 79
-0.17083 0.34272 10.233 224 178 111
1.4008 0.5117 10.008 108 73 36
0.53809 0.46925 10.217 209 171 122
-0.65852 0.63763 10.321 233 192 140
-0.63474 -0.19149 9.7316 169 154 122
0.69762 -0.080895 9.6705 35 9 0
1.4379 0.21028 9.6059 50 34 5
0.0089993 0.039626 9.9413 217 192 149
1.4564 0.2371 9.6324 37 24 1
1.5225 0.33151 9.6827 28 9 1
1.0915 0.36891 9.9801 121 82 42
0.92337 0.38083 10.022 156 118 74
1.1103 0.39857 9.9879 242 204 140
0.52687 0.42056 10.155 139 99 51
0.85306 0.4331 10.11 242 198 133
-0.70722 0.57228 10.271 197 154 101
1.4066 0.51623 10.034 190 157 109
-0.81365 0.52487 10.482 127 102 74
0.9456 -0.079355 9.6556 230 195 123
1.2324 0.03489 9.5497 63 43 9
0.3576 -0.068939 9.8088 255 249 178
0.14528 0.011481 9.8464 109 77 35
-0.86867 0.29277 9.8044 255 229 169
1.5133 0.31307 9.6553 160 142 108
1.3112 0.3702 9.7567 201 171 115
1.273 0.36552 9.822 76 50 13
1.1116 0.28525 9.9151 43 18 0
-0.45465 0.39601 10.29 99 61 28
-0.89033 0.074906 9.643 242 211 150
0.54229 -0.055529 9.783 244 209 141
-0.18325 0.015974 9.928 103 70 35
-0.46284 0.014499 10.05 64 36 6
-0.74614 0.50151 10.109 252 218 163
-0.74031 0.63062 10.208 254 221 171
-0.66016 0.58945 9.1752 252 226 161
-0.93743 0.10277 9.6199 253 221 155
-0.54548 -0.11765 9.785 247 221 158
1.2908 0.19753 9.5941 189 165 115
0.061414 0.030995 9.9377 29 12 0
0.90332 0.13533 9.7777 187 151 94
0.70417 0.13854 9.8289 222 193 130
-0.56623 0.36033 10.189 186 141 94
1.4351 0.4108 9.936 150 116 73
-0.85953 0.69748 10.158 245 207 147
1.4575 0.48721 9.9847 204 169 117
-0.57073 0.52922 10.308 188 147 104
-0.6027 0.6225 10.297 247 213 157
-0.80688 -0.16534 9.5747 242 213 145
0.32421 -0.129 9.8065 16 4 0
1.2741 0.35221 9.814 83 57 22
1.2741 0.35221 9.814 83 57 22
1.2191 0.45002 10.005 213 176 121
0.72171 0.534 10.149 246 210 152
1.1567 -0.004511 9.6091 210 177 117
-0.90299 0.35813 9.8856 240 203 137
1.3218 0.23129 9.6889 183 151 94
0.98911 0.18918 9.8245 226 190 125
1.3014 0.52784 9.9725 22 13 2
1.4674 0.29948 9.7169 35 19 4
0.87066 0.52119 10.207 239 199 137
0.62828 0.53332 10.348 0 0 0
-0.84054 -0.1365 9.8048 247 211 141
1.2763 0.093585 9.4992 143 114 61
-0.79023 0.38091 9.9915 160 117 56
1.4013 0.36518 9.8948 191 160 113
1.2571 0.48305 9.996 140 108 87
1.241 0.50549 10.029 116 82 43
0.61599 0.48698 10.219 28 16 1
-0.6452 0.64338 10.335 119 96 65
0.20728 0.44916 10.359 121 104 83
0.57758 0.48513 10.326 133 118 95
1.193 0.0014818 9.5904 130 100 53
-0.30276 -0.32089 10.359 244 202 139
0.15468 -0.31455 10.303 204 167 116
0.90973 0.23299 9.9039 152 116 68
1.4716 0.32177 9.8489 165 134 98
1.5812 0.47146 9.8983 136 116 87
0.88254 0.43015 10.092 113 74 30
0.91124 0.45058 10.096 225 186 133
1.2441 0.52509 10.048 107 80 53
1.3029 0.54842 10.038 213 189 145
1.1497 0.026515 9.6682 96 67 27
1.3619 0.11848 9.6874 68 41 11
-0.18943 0.026681 9.9617 218 185 122
1.2399 0.20139 9.756 169 143 103
1.1512 0.39618 9.9871 225 192 139
-0.67693 0.11658 9.881 193 151 87
-0.022022 -0.001214 9.8629 118 85 46
-0.88157 0.3085 9.8341 129 92 43
0.11645 0.024658 9.8779 182 153 94
0.18271 -0.2908 10.34 228 184 119
0.23383 -0.29005 10.331 219 179 115
1.0268 0.28131 9.924 50 21 0
1.5577 0.43296 9.925 41 21 1
1.4176 0.50962 10.005 92 61 26
0.18417 0.45033 10.277 205 167 121
0.18504 0.4525 10.276 205 167 121
0.79682 0.55621 10.207 252 216 157
1.2618 -0.023641 9.395 205 175 118
-0.70767 -0.17188 9.6299 38 29 23
-0.67205 -0.14382 9.676 242 212 145
1.0069 -0.027678 9.6331 226 195 126
1.4649 0.25985 9.6832 34 20 7
1.4649 0.25985 9.6832 34 20 7
1.3695 0.49613 9.9895 216 178 126
0.77014 -0.059518 9.6545 9 4 0
1.5783 0.29821 9.4861 188 158 96
0.88393 -0.025085 9.6805 125 93 39
0.96722 0.076251 9.7271 155 133 105
0.94277 0.075106 9.7329 168 147 112
0.17174 0.024444 9.8917 161 134 93
-0.11628 0.026765 9.9546 183 158 120
-0.4394 0.0061468 10.031 148 113 77
0.30853 0.043571 9.922 41 18 1
0.7785 0.12707 9.8653 179 141 73
-0.046957 0.0085417 10.032 134 102 61
-0.54697 0.22863 10.074 163 122 65
-0.71259 0.38554 10.103 249 213 158
-0.43047 -0.2947 10.359 173 135 86
-0.55819 0.41354 10.234 233 191 143
0.63142 0.48835 10.189 53 35 18
-0.72847 0.66614 10.316 97 68 33
-0.7151 0.6386 10.35 93 70 45
0.6011 0.48194 10.292 95 77 58
0.6011 0.48194 10.292 95 77 58
0.94826 0.59832 10.221 136 117 82
0.77081 0.53798 10.291 118 99 76
-0.47489 0.48804 10.515 138 113 85
-0.49088 0.46798 10.546 92 70 41
-0.63134 -0.1713 9.7292 158 142 112
1.4114 0.11167 9.5029 55 33 6
0.7848 -0.055143 9.696 243 214 150
1.2164 0.04972 9.6045 161 135 95
1.1421 0.0088689 9.6357 117 87 40
0.89263 0.016883 9.6978 218 188 129
0.20231 -0.055334 9.8253 220 186 131
-0.16917 -0.023011 9.8774 167 130 69
-0.17004 -0.0026252 9.8956 237 202 148
0.51033 0.017543 9.8093 121 85 41
0.88622 0.052692 9.7433 86 57 17
1.2099 0.087756 9.6893 108 79 37
-0.15737 -0.0057456 9.9239 169 140 95
1.1586 0.089074 9.7428 91 61 13
-0.070132 0.032435 9.9518 203 174 127
0.0090318 0.034398 9.9436 217 193 151
1.1468 0.083153 9.7644 159 132 83
0.10559 0.040005 9.9352 214 177 119
0.17142 0.038442 9.9263 215 187 135
1.236 0.18327 9.7198 157 132 93
-0.094856 0.020815 9.9993 130 101 62
0.29729 0.021747 9.9534 123 99 65
0.29729 0.021747 9.9534 123 99 65
0.16344 0.024281 9.9817 76 44 2
0.24002 0.030598 9.9699 63 38 8
-0.47606 -0.00096983 10.096 108 80 41
1.2216 0.19555 9.779 110 77 34
0.92538 0.18649 9.853 227 198 147
0.90419 0.18646 9.8772 124 88 40
0.94331 0.23791 9.8993 151 119 65
0.48261 -0.33916 10.232 216 176 110
0.93955 0.2572 9.9275 117 89 40
-0.70561 0.39102 10.117 160 119 64
-0.40624 -0.30327 10.366 198 160 114
-0.49008 0.37137 10.182 237 201 145
-0.84612 0.6662 10.129 109 75 35
-0.49837 0.37794 10.201 123 87 40
1.0919 0.36906 9.9802 144 107 58
-0.54728 0.42148 10.246 116 72 23
0.95075 0.44133 10.063 209 178 135
0.52857 0.41937 10.156 140 98 48
1.4061 0.52809 10.024 191 157 112
-0.79483 0.70878 10.273 112 90 58
-0.53117 0.56202 10.355 163 117 64
0.56189 0.47604 10.241 145 121 90
-0.52588 0.58012 10.372 229 193 144
0.96581 0.56906 10.181 101 70 31
-0.314 0.44763 10.431 116 94 62
-0.88284 -0.20431 9.5318 197 181 141
0.94418 0.048661 9.6944 211 183 125
0.31036 0.0095734 9.8277 164 126 66
1.6058 0.33774 9.5266 82 64 24
1.2122 0.13431 9.7174 120 88 44
0.90594 0.068052 9.7873 173 140 94
-0.50643 0.11886 9.9863 151 122 73
-0.64506 0.20763 9.9862 241 202 140
1.2182 0.17857 9.7412 123 93 47
1.169 0.16406 9.7812 95 64 17
1.5203 0.32992 9.684 35 16 0
1.5203 0.32992 9.684 35 16 0
0.76047 0.15089 9.8824 216 184 123
1.2491 0.27135 9.8289 171 141 100
-0.63077 0.37123 10.084 250 214 148
1.2056 0.33144 9.94 227 194 144
-0.83008 0.65541 10.106 248 214 161
1.4535 0.40979 9.9347 125 96 53
-0.89488 0.70724 10.149 88 58 23
1.0535 0.43926 10.023 237 201 142
1.1556 0.43875 10.017 240 204 145
-0.0039767 0.37749 10.217 255 236 173
0.79664 0.41769 10.097 177 132 74
-0.3375 0.39947 10.273 149 113 66
0.21223 0.39818 10.202 164 125 70
1.4941 0.48194 9.981 125 93 49
1.2146 0.50022 10.047 198 164 120
0.94458 0.47796 10.106 67 39 1
1.5011 0.51905 10.009 85 63 28
1.0846 0.5096 10.101 233 201 151
0.94539 0.55214 10.168 209 173 130
1.2056 -0.030825 9.5377 176 155 115
1.4022 0.13908 9.5213 158 138 105
-0.77892 0.18027 9.8433 254 222 163
-0.64278 0.10499 9.8732 247 212 148
-0.64278 0.10499 9.8732 247 212 148
-0.88145 0.30821 9.8342 122 86 38
0.14515 0.0056929 9.8494 110 77 33
-0.22071 0.0035418 9.9047 244 218 166
0.048359 0.023692 9.8842 192 167 112
1.6478 0.38981 9.5342 180 159 120
-0.50658 0.088379 9.9607 212 183 138
1.1015 0.065252 9.7576 177 145 92
1.5128 0.31305 9.6552 160 141 108
1.1963 0.18443 9.803 212 180 126
1.7998 0.17987 9.8011 134 107 75
1.2733 0.36309 9.8229 80 58 22
-0.45915 0.12316 10.193 209 183 147
1.203 0.31998 9.8881 221 188 136
1.1465 0.28851 9.9412 208 172 120
-0.89736 0.70786 10.149 68 41 12
1.1796 0.39871 9.9962 144 111 60
1.1522 0.48328 10.049 236 201 144
1.5222 0.51195 9.9862 191 161 117
-0.85507 0.71413 10.27 120 101 72
-0.4482 0.43072 10.334 54 27 0
0.95659 0.59239 10.199 236 202 156
-0.77649 0.15935 9.7816 246 213 146
0.64219 -0.063732 9.6964 25 10 0
0.2646 -0.028611 9.8123 211 178 115
0.53225 -0.0261 9.7855 189 156 95
-0.62169 0.20645 9.9656 181 144 90
-0.62169 0.20645 9.9656 181 144 90
0.70242 0.14507 9.8263 220 192 132
1.1362 0.17694 9.8101 223 192 135
1.5484 0.34524 9.709 156 135 98
1.5484 0.34524 9.709 156 135 98
1.0555 0.30337 9.9516 238 198 134
1.5272 0.45035 9.9599 187 152 103
1.0463 0.50352 10.085 46 25 0
1.0463 0.50352 10.085 46 25 0
-0.82852 0.6255 10.384 131 109 78
1.6765 0.3788 10.141 1 0 0
-0.58336 -0.15312 9.742 39 33 25
-0.58336 -0.15312 9.742 39 33 25
0.95082 0.095097 9.7645 34 17 2
-0.52175 0.25859 10.109 242 205 143
0.9773 0.26008 9.9121 236 203 146
0.94157 0.30522 9.941 114 81 42
0.94157 0.30522 9.941 114 81 42
-0.85913 0.69603 10.159 246 211 155
-0.61323 0.54033 10.233 255 221 161
1.4575 0.49205 9.9819 206 171 121
-0.78315 0.42416 10.619 134 108 73
1.1624 -0.0069523 9.61 204 175 113
1.6186 0.4533 9.6898 15 8 0
1.2195 0.46278 9.9983 222 186 129
-0.83646 -0.20713 9.5073 34 27 21
-0.45228 -0.14352 9.8392 8 3 0
-0.45228 -0.14352 9.8392 8 3 0
-0.48644 0.5656 10.342 240 208 158
-0.90073 0.20695 9.7536 244 211 143
0.7141 -0.04321 9.7643 237 203 137
1.7236 0.31808 9.8168 138 116 75
1.3929 0.40989 9.864 205 171 124
1.137 0.4876 9.9989 234 196 132
-0.89957 -0.11043 9.5883 231 203 142
-0.89957 -0.11043 9.5883 231 203 142
1.5276 0.25683 9.7688 38 24 11
0 0 0 1 0 0 0 1 0 0 0 1 0 0 0 0 0 1236 1 0 0
