ply
format ascii 1.0
comment PCL generated
element vertex 88
property float x
property float y
property float z
property uchar red
property uchar green
property uchar blue
element camera 1
property float view_px
property float view_py
property float view_pz
property float x_axisx
property float x_axisy
property float x_axisz
property float y_axisx
property float y_axisy
property float y_axisz
property float z_axisx
property float z_axisy
property float z_axisz
property float focal
property float scalex
property float scaley
property float centerx
property float centery
property int viewportx
property int viewporty
property float k1
property float k2
end_header
0.89914 -0.34229 7.5582 3 3 6
0.88416 -0.29086 7.5736 34 70 92
0.95936 0.0637 8.0739 102 142 172
-0.13898 0.56003 8.4398 16 2 5
-0.73537 -0.43199 7.7442 43 148 3
0.89828 -0.38341 7.531 27 87 31
0.051769 -0.33229 7.6747 131 0 1
-0.01058 -0.32708 7.6824 18 3 0
0.89058 -0.30779 7.5685 81 121 142
0.015463 -0.29845 7.6681 2 0 0
0.17338 -0.29349 7.642 5 33 83
-0.47644 -0.2756 7.778 48 82 102
1.1796 -0.13937 8.0202 6 5 0
0.94748 -0.11519 8.0331 1 0 0
0.7688 0.024888 8.0985 1 51 23
0.7688 0.024888 8.0985 28 60 87
0.7688 0.024888 8.0985 28 60 87
0.65932 0.029962 8.1226 55 30 0
-0.32826 0.080131 8.3396 96 133 166
-0.33175 0.11295 8.3515 15 34 11
-0.27906 0.11506 8.3393 56 98 130
-0.27906 0.11506 8.3393 56 98 130
-0.27906 0.11506 8.3393 129 27 3
-0.37301 0.11765 8.3582 33 7 1
-0.11763 0.12816 8.3147 12 55 16
0.14959 0.12817 8.2744 47 0 0
0.023233 0.57601 8.4104 69 60 5
-0.82584 0.59426 8.4569 9 24 6
0.17124 0.59362 8.4032 22 2 0
0.15732 0.6179 8.4173 6 11 41
-0.76825 -0.50866 7.7306 36 69 88
0.91863 -0.39734 7.5273 13 10 34
0.87805 -0.32411 7.57 2 2 58
0.87805 -0.32411 7.57 12 9 71
0.91036 -0.32502 7.5637 17 7 1
0.91036 -0.32502 7.5637 7 0 0
-0.63229 -0.31894 7.7365 15 38 54
0.15387 -0.30978 7.6384 5 0 0
0.47648 -0.29566 7.5236 31 0 1
0.47648 -0.29566 7.5236 2 0 4
-0.40937 -0.28999 7.7617 88 124 143
0.77397 -0.15516 8.0464 3 0 7
-0.70017 -0.11514 7.7771 7 66 1
0.82484 -0.10168 8.0541 31 62 89
0.9263 -0.098375 8.039 19 16 4
0.9263 -0.098375 8.039 19 100 112
0.88581 -0.022644 8.0605 3 113 9
0.67907 0.0077855 8.1131 4 7 36
0.95288 0.028048 8.0662 40 69 10
0.97373 0.03342 8.0554 26 19 76
0.51046 0.08662 8.1455 3 43 7
0.9735 0.086144 8.0998 9 2 11
-0.19588 0.09859 8.3245 31 36 5
0.17666 0.1057 8.2642 19 1 6
0.17666 0.1057 8.2642 66 131 32
-0.31253 0.12806 8.3486 8 112 40
-0.31253 0.12806 8.3486 11 3 1
0.19044 0.12835 8.2652 1 0 27
0.35712 0.56137 8.3869 26 159 58
-0.19217 0.57782 8.4346 33 20 86
-0.13679 0.60301 8.4456 123 111 9
-0.74397 -0.32805 7.7601 20 130 13
-0.72717 -0.21383 7.7684 33 59 80
-0.85638 0.10069 8.0677 5 6 116
1.3149 0.13644 8.1359 7 125 17
1.3149 0.13644 8.1359 21 47 11
0.94832 -0.38856 7.5081 2 26 36
0.92201 -0.36644 7.5252 1 0 76
-0.85976 -0.30082 7.779 13 16 2
1.3149 0.018112 8.0886 10 15 16
-0.061883 0.19822 8.4133 11 24 11
1.3532 -0.48754 7.7328 14 0 1
1.4182 -0.44295 7.8261 0 2 9
0.99019 -0.355 7.4727 88 0 0
1.4211 -0.44771 7.8167 7 25 126
-0.1976 0.014929 8.4002 3 34 58
-0.41674 0.74514 8.6367 80 9 0
-0.83348 0.17487 8.0621 65 12 1
0.77906 0.52685 8.4217 16 4 1
0.77906 0.52685 8.4217 9 66 43
-0.82742 -0.094953 7.8543 16 17 17
-0.90824 0.036606 7.8179 1 1 12
1.2595 0.10521 8.1579 14 46 14
1.2595 0.10521 8.1579 57 1 1
0.95885 0.33546 8.2975 12 106 26
-0.29414 0.34782 8.558 19 9 9
-0.22427 0.60502 8.5879 23 2 25
0.27189 0.5957 8.484 13 13 9
0 0 0 1 0 0 0 1 0 0 0 1 0 0 0 0 0 88 1 0 0
