ply
format ascii 1.0
comment PCL generated
element vertex 88
property float x
property float y
property float z
property uchar red
property uchar green
property uchar blue
element camera 1
property float view_px
property float view_py
property float view_pz
property float x_axisx
property float x_axisy
property float x_axisz
property float y_axisx
property float y_axisy
property float y_axisz
property float z_axisx
property float z_axisy
property float z_axisz
property float focal
property float scalex
property float scaley
property float centerx
property float centery
property int viewportx
property int viewporty
property float k1
property float k2
end_header
0.89914 -0.34229 7.5582 23 32 19
0.87856 -0.28713 7.5226 27 7 1
0.95936 0.0637 8.0739 48 14 2
-0.13898 0.56003 8.4398 3 0 12
-0.7496 -0.44398 7.8801 22 148 7
0.89828 -0.38341 7.531 37 76 95
0.051769 -0.33229 7.6747 24 2 1
-0.01058 -0.32708 7.6824 89 19 9
0.88497 -0.30402 7.5187 38 28 1
0.015463 -0.29845 7.6681 2 1 15
0.17449 -0.29505 7.6611 1 0 0
-0.47644 -0.2756 7.778 1 0 0
1.1796 -0.13937 8.0202 2 136 81
0.94345 -0.1138 8.0107 86 126 156
0.7688 0.024888 8.0985 28 60 87
0.7688 0.024888 8.0985 31 2 0
0.7688 0.024888 8.0985 74 42 21
0.65932 0.029962 8.1226 64 102 130
-0.32826 0.080131 8.3396 115 42 7
-0.33175 0.11295 8.3515 5 7 11
-0.27906 0.11506 8.3393 20 140 19
-0.27906 0.11506 8.3393 111 93 49
-0.27906 0.11506 8.3393 1 0 1
-0.37301 0.11765 8.3582 2 0 1
-0.11763 0.12816 8.3147 8 4 5
0.14959 0.12817 8.2744 2 2 70
0.023233 0.57601 8.4104 94 137 172
-0.83354 0.59724 8.5333 12 14 34
0.17124 0.59362 8.4032 80 130 164
0.15732 0.6179 8.4173 39 72 100
-0.76825 -0.50866 7.7306 41 16 3
0.9135 -0.39395 7.4909 121 32 6
0.87263 -0.3205 7.5247 2 13 14
0.87805 -0.32411 7.57 3 1 28
0.91036 -0.32502 7.5637 29 40 33
0.91036 -0.32502 7.5637 121 64 12
-0.63229 -0.31894 7.7365 90 88 49
0.15387 -0.30978 7.6384 70 13 18
0.47576 -0.2934 7.4894 7 63 1
0.47576 -0.2934 7.4894 11 32 35
-0.40937 -0.28999 7.7617 122 122 29
0.77397 -0.15516 8.0464 7 3 51
-0.70569 -0.11887 7.8481 4 30 7
0.82221 -0.10081 8.042 31 62 89
0.92278 -0.097136 8.0167 29 125 15
0.9263 -0.098375 8.039 55 77 16
0.88204 -0.021426 8.0298 115 15 18
0.67804 0.0081307 8.1047 76 7 5
0.95288 0.028048 8.0662 8 2 4
0.96809 0.034829 8.0057 7 0 2
0.51046 0.08662 8.1455 1 21 5
0.9735 0.086144 8.0998 14 9 2
-0.19588 0.09859 8.3245 84 60 80
0.17666 0.1057 8.2642 49 89 119
0.17666 0.1057 8.2642 77 6 1
-0.31253 0.12806 8.3486 15 2 13
-0.31253 0.12806 8.3486 4 133 76
0.19111 0.1277 8.306 46 35 17
0.35712 0.56137 8.3869 1 29 132
-0.19092 0.57818 8.4555 1 2 7
-0.135 0.60314 8.4608 12 6 9
-0.74397 -0.32805 7.7601 40 73 91
-0.73559 -0.2194 7.8581 1 69 7
-0.86618 0.098954 8.1557 12 2 3
1.3149 0.13644 8.1359 8 0 0
1.3149 0.13644 8.1359 112 146 172
0.94832 -0.38856 7.5081 2 26 36
0.92201 -0.36644 7.5252 126 120 15
-0.87468 -0.30975 7.9043 27 50 95
1.3149 0.018112 8.0886 39 21 40
-0.061883 0.19822 8.4133 9 78 6
1.3418 -0.48285 7.6953 13 20 10
1.4182 -0.44295 7.8261 8 145 0
0.99019 -0.355 7.4727 99 144 160
1.4102 -0.44352 7.7814 0 0 4
-0.1976 0.014929 8.4002 88 136 170
-0.41674 0.74514 8.6367 73 70 1
-0.83348 0.17487 8.0621 2 1 1
0.77906 0.52685 8.4217 24 9 2
0.77906 0.52685 8.4217 87 45 11
-0.82742 -0.094953 7.8543 9 47 43
-0.92482 0.032999 7.9494 16 18 25
1.2595 0.10521 8.1579 1 58 114
1.2595 0.10521 8.1579 34 27 36
0.95885 0.33546 8.2975 31 133 19
-0.29794 0.34875 8.615 2 25 28
-0.22427 0.60502 8.5879 80 113 147
0.27823 0.59383 8.4743 3 1 6
0 0 0 1 0 0 0 1 0 0 0 1 0 0 0 0 0 88 1 0 0
