ply
format ascii 1.0
comment PCL generated
element vertex 444
property float x
property float y
property float z
property uchar red
property uchar green
property uchar blue
element camera 1
property float view_px
property float view_py
property float view_pz
property float x_axisx
property float x_axisy
property float x_axisz
property float y_axisx
property float y_axisy
property float y_axisz
property float z_axisx
property float z_axisy
property float z_axisz
property float focal
property float scalex
property float scaley
property float centerx
property float centery
property int viewportx
property int viewporty
property float k1
property float k2
end_header
0.61166 -0.40114 10.247 18 42 82
0.58755 -0.36067 10.26 65 16 62
0.69499 -0.33667 10.205 50 87 57
0.80258 -0.32615 10.078 13 1 3
0.79677 -0.79881 10.548 1 71 118
-0.33206 -0.78143 10.83 46 22 4
0.9762 -0.57855 10.331 16 2 1
0.63157 -0.47551 10.277 55 109 140
1.2629 -0.45851 9.9483 9 82 1
0.35248 -0.43279 10.284 8 1 0
0.24961 -0.415 10.301 137 193 231
-0.043332 -0.39487 10.323 9 16 43
0.24352 -0.38744 10.298 135 195 240
1.2667 -0.37607 9.9935 54 66 3
0.24679 -0.3651 10.301 4 25 116
0.57288 -0.34086 10.263 1 1 37
0.57288 -0.34086 10.263 39 94 133
1.2621 -0.32965 9.9424 85 11 2
2.0784 -0.31867 12.423 5 135 36
1.6825 -0.2619 10.039 69 95 116
1.6901 -0.22697 10.049 2 19 10
1.2406 -0.20918 9.7862 3 0 0
0.57891 -0.11336 9.8423 4 31 4
1.3862 -0.11206 9.3408 137 189 213
0.68642 -0.067295 9.7245 1 16 22
-0.32385 -0.047581 9.9089 27 0 0
0.45872 -0.016959 9.8281 11 0 1
0.56447 -0.0082655 9.8115 9 47 20
1.1916 0.014071 9.609 46 94 6
0.65874 0.023387 9.7633 11 1 20
1.2135 0.039805 9.614 17 122 2
1.2035 0.062594 9.6914 63 30 8
1.1487 0.13004 9.8475 74 25 0
1.4049 0.13751 9.5537 65 1 0
1.4032 0.1376 9.5409 115 147 174
1.1995 0.15639 9.4651 110 147 178
1.4265 0.21438 9.739 1 58 11
1.374 0.26465 9.554 2 0 43
1.1062 0.22381 9.8925 129 193 230
1.4127 0.17992 9.7463 24 3 5
-0.87326 0.32835 9.8933 9 56 1
0.69164 0.36956 10.083 1 0 0
0.92418 0.37422 10.069 75 30 8
0.92417 0.37418 10.069 2 22 32
1.3939 0.16241 9.7063 7 13 11
1.1834 0.40705 10.04 28 3 1
1.2632 0.4346 10.02 54 46 9
1.1876 0.44537 10.073 1 1 23
1.5581 0.48987 10.034 17 5 5
1.4355 0.547 10.099 36 83 115
0.41747 -0.89518 10.814 48 80 18
0.30708 -0.8573 10.801 8 7 39
0.13118 -0.75819 10.768 79 142 184
-0.31533 -0.75325 10.83 19 0 0
0.82105 -0.72744 10.583 108 159 185
1.2238 -0.56531 10.275 40 3 1
1.2458 -0.54253 10.236 26 32 0
1.2656 -0.49831 10.171 12 4 24
0.82025 -0.49116 10.262 27 25 24
-0.94104 -0.45069 9.8074 3 40 77
0.45412 -0.45492 10.29 6 42 19
0.45412 -0.45492 10.29 30 12 32
-0.25153 -0.44041 10.351 13 91 6
0.4863 -0.43218 10.271 58 119 159
0.62286 -0.42331 10.248 8 45 8
-0.26753 -0.41411 10.346 6 0 2
-0.033992 -0.41472 10.323 21 141 26
-0.30632 -0.41276 10.354 23 12 9
0.17169 -0.41072 10.292 152 225 255
1.3958 -0.34684 9.8985 2 8 51
1.3425 -0.29448 9.525 1 127 62
1.2368 -0.2767 9.9507 6 3 78
1.2475 -0.25619 9.838 84 121 144
0.40897 -0.17206 8.12 21 26 19
1.2732 -0.10674 9.4762 12 1 0
0.21718 -0.053889 9.8476 7 1 0
0.55178 -0.030706 9.8039 58 14 0
1.1555 -0.015913 9.6231 18 29 35
0.29066 0.074468 10.737 127 184 215
1.4663 0.16825 9.4223 27 2 6
1.171 0.20495 9.8728 16 41 7
1.4912 0.24077 9.8911 24 70 97
1.4586 0.25783 9.785 6 135 4
1.5346 0.26732 9.5154 20 32 41
1.7599 0.31665 9.7953 7 13 2
0.98675 0.35285 10.007 2 15 29
1.1666 0.30816 9.3611 69 118 158
1.551 0.35713 9.7437 4 0 9
1.3745 0.26886 9.1895 128 8 2
1.1177 0.39218 10.036 135 199 241
1.1536 0.39155 10.035 16 134 28
1.5023 0.48319 10.039 13 36 40
1.1333 0.55267 10.181 4 7 16
-0.49984 -1.0989 10.922 13 3 18
0.74725 -0.9146 10.756 33 27 5
0.30711 -0.85876 10.809 4 2 19
-0.89037 -0.68682 10.199 5 6 34
0.54369 -0.49973 10.33 2 18 31
0.52205 -0.40226 10.256 29 121 0
0.22236 -0.44528 9.9243 20 4 14
1.1774 -0.39273 10.091 5 3 0
0.79579 -0.044468 9.7237 38 11 5
-0.089743 -0.03 9.8848 2 126 87
0.64131 -0.010147 9.7628 192 254 255
0.59668 0.045014 9.8719 1 39 126
0.3052 0.18928 11.007 7 0 0
1.2075 0.29503 9.9461 3 34 31
0.73848 0.33965 10.061 2 1 8
1.2087 0.34048 9.9793 15 118 62
1.2112 0.39439 10.013 13 10 2
1.218 0.503 10.105 92 27 5
1.4678 0.5534 10.103 10 12 13
-0.63575 -1.1313 10.877 2 2 8
0.81362 -1.0149 10.733 4 5 7
-0.39457 -0.9657 10.947 51 88 10
0.58776 -0.892 10.82 20 10 20
-0.069048 -0.89467 10.921 1 6 17
0.69625 -0.847 15.864 3 21 3
-0.96691 -0.63154 10.71 91 124 142
1.0239 -0.51807 10.232 106 161 185
1.3252 -0.46303 9.9637 13 14 8
1.3252 -0.46303 9.9637 49 39 5
-0.94866 -0.34255 9.6354 3 16 66
1.7221 -0.011937 9.8108 36 132 68
0.37542 0.12537 7.6088 1 16 6
0.69551 0.33626 10.073 59 14 17
1.0335 0.36333 10.03 23 129 16
1.0942 0.36344 10.029 49 82 118
1.3133 0.35698 9.7971 123 176 209
-0.018275 0.31865 9.0164 1 0 1
-0.067279 0.35216 9.3866 19 60 27
-0.10731 0.55025 8.0016 3 6 55
0.4342 0.25424 7.7192 6 13 19
1.1886 0.53101 10.137 3 11 12
1.1911 0.53093 10.147 2 6 16
1.5106 0.54146 10.083 12 0 4
1.5604 0.54059 10.054 1 1 14
0.86417 0.57384 10.29 5 0 1
1.432 0.59739 10.124 27 0 4
-0.57883 -1.1245 10.934 30 7 8
1.5625 -0.56271 10.111 91 124 142
1.5902 -0.50174 10.096 92 126 143
-0.92143 -0.48563 9.8377 29 0 0
0.30371 -0.40842 10.292 58 150 32
1.6761 -0.11294 9.8736 12 0 0
1.3449 -0.066598 9.3354 12 0 5
1.3452 -0.066636 9.3367 20 79 71
0.95687 0.11457 9.7845 59 94 129
1.3067 0.27724 9.7096 132 184 216
1.0537 0.52824 10.163 1 0 0
-0.61641 0.611 10.366 36 16 3
-0.43305 0.36642 7.8097 161 216 251
-0.68374 0.66548 10.36 13 2 0
-0.68374 0.66548 10.36 32 3 0
-0.84135 0.70886 10.21 14 2 0
-0.52468 -1.0433 10.911 106 157 178
1.208 -0.7136 10.468 17 4 8
1.5444 -0.68634 10.079 21 3 0
1.3942 -0.029933 9.3185 14 63 100
1.7757 0.3666 9.788 1 0 0
-0.50263 0.53807 10.43 60 99 25
-0.10024 -0.86461 10.924 86 84 6
0.053503 -0.86735 10.903 7 19 44
0.76814 0.59782 10.249 0 2 10
-0.9379 -0.17904 9.4605 45 129 2
0.64676 -0.98458 10.774 61 119 29
0.60683 0.55898 10.376 7 123 123
1.8732 -1.2493 15.942 0 3 9
-0.5841 -0.10582 10.09 5 10 6
-0.58448 -0.10593 10.093 4 0 0
1.0462 0.020997 9.9203 8 5 1
0.32973 -0.79325 10.749 110 176 215
0.27378 -0.7744 10.758 72 139 178
0.34547 -0.77348 10.741 72 138 180
0.32761 -0.75777 10.75 114 177 213
0.5992 -0.73646 10.709 55 118 155
0.11046 -0.47063 10.334 126 197 243
0.11046 -0.47063 10.334 126 197 243
-0.19272 -0.41536 10.342 54 120 168
0.21706 -0.41393 10.298 139 208 247
0.62245 -0.38578 10.248 63 127 166
-0.20858 -0.3785 10.345 78 155 199
0.59957 -0.3407 10.263 56 108 147
1.0279 -0.19584 9.8786 131 188 227
-0.33671 -0.03476 9.9271 115 167 201
1.3158 0.019464 9.4743 100 137 163
1.412 0.049517 9.343 111 165 187
-0.16937 -0.011597 9.9054 96 159 201
1.3758 0.068233 9.4504 84 114 134
0.55023 0.0097881 9.8267 146 205 239
-0.72271 0.059403 9.8612 144 202 246
-0.085237 0.018834 9.9282 138 175 208
1.1596 0.052154 9.7103 52 106 137
1.1596 0.052154 9.7103 52 106 137
0.10252 0.040653 9.9772 137 191 226
0.94279 0.076718 9.7741 134 176 203
0.96974 0.077193 9.77 137 187 219
1.0645 0.079027 9.7739 88 142 181
-0.61306 0.10988 10.003 154 209 248
1.36 0.12463 9.7189 17 54 85
1.3753 0.15111 9.7244 27 68 100
1.3753 0.16966 9.7578 89 134 170
1.3619 0.17706 9.7731 44 94 129
1.2855 0.22326 9.6641 108 156 183
1.3698 0.19454 9.7975 51 105 141
-0.55195 0.2268 10.109 76 131 176
1.3605 0.22482 9.8269 58 109 146
-0.8725 0.33026 9.8796 83 133 171
0.91468 0.26462 9.9932 71 122 161
1.0324 0.29166 9.9919 123 194 239
1.0931 0.29246 9.9798 121 185 227
0.14484 0.2143 10.617 124 195 247
1.5207 0.36033 9.9301 11 40 71
-0.50466 0.37767 10.238 73 120 163
-0.50466 0.37767 10.238 73 120 163
0.94194 0.35627 10.075 144 197 239
1.5119 0.37374 9.9446 84 123 158
1.3787 0.57973 8.9389 53 97 132
0.95489 0.39536 10.058 84 140 181
-0.40299 0.39689 10.322 81 140 185
-0.40299 0.39689 10.322 81 140 185
-0.096176 0.39566 10.292 69 131 175
-0.096176 0.39566 10.292 69 131 175
1.5457 0.40642 9.9487 13 43 73
-0.84596 0.50271 10.019 126 177 217
-0.84596 0.50271 10.019 126 177 217
1.4065 0.43771 9.9977 107 157 199
0.6654 0.44704 10.14 149 210 250
0.55723 0.4481 10.213 166 215 255
0.67944 0.46268 10.152 103 159 202
1.615 0.47858 9.9932 3 30 50
0.5274 -0.77544 10.717 65 129 168
0.0073977 -0.75958 10.793 66 129 172
1.271 -0.54781 10.207 23 55 79
1.1983 -0.56935 10.302 34 74 103
1.2598 -0.43696 10.097 31 73 98
-0.45492 -0.44049 10.376 97 164 209
0.069608 -0.44058 10.321 85 160 202
1.2621 -0.42075 10.135 35 74 100
0.55506 -0.42536 10.261 79 140 180
0.00073909 -0.41507 10.315 145 217 255
-0.26761 -0.38204 10.363 98 169 214
0.66428 -0.064184 9.7567 112 181 220
-0.5049 -0.029364 9.9337 91 148 188
1.3338 0.032746 9.4356 18 59 84
0.32913 -0.029249 9.8416 128 197 231
1.3609 0.04266 9.428 124 164 190
1.385 0.065713 9.4075 23 59 78
0.21962 -0.0072547 9.8975 66 132 167
0.45411 0.0029046 9.836 154 223 255
-0.22072 0.0089682 9.936 173 234 255
0.8912 0.01822 9.7358 140 205 240
-0.12082 0.01305 9.9389 121 178 212
0.39273 0.016713 9.8519 80 144 186
0.91891 0.029716 9.7282 68 126 160
0.87519 0.031967 9.7615 51 107 142
0.87519 0.031967 9.7615 51 107 142
1.1992 0.045561 9.6677 51 98 129
0.56147 0.034335 9.8291 58 111 148
-0.19145 0.028951 10.003 146 196 226
-0.16382 0.029098 10.005 144 194 222
0.50759 0.037162 9.8707 103 165 201
0.0036436 0.03659 9.9873 152 200 226
0.92129 0.070749 9.7414 42 89 120
1.2166 0.17596 9.4385 19 55 78
-0.81324 0.17383 9.8495 83 134 179
0.94182 0.15537 9.8557 67 124 163
0.90591 0.18947 9.9171 60 116 152
-0.63049 0.23255 10.021 166 228 255
0.90941 0.23517 9.9446 88 147 187
0.94773 0.24025 9.9334 74 136 174
1.017 0.2445 9.9187 85 141 183
1.017 0.2445 9.9187 85 141 183
0.94946 0.28101 9.9873 64 117 154
-0.45012 0.2826 10.314 115 177 224
-0.6208 0.3414 10.105 86 141 187
-0.38059 0.31373 10.3 173 246 255
-0.060992 0.31648 10.256 176 255 255
1.4975 0.33195 9.8955 5 34 63
-0.72138 0.38385 10.132 168 228 255
0.58495 0.32936 10.181 109 176 220
-0.17765 0.34105 10.275 122 193 241
-0.17765 0.34105 10.275 122 193 241
-0.45957 0.35077 10.307 91 143 192
-0.70603 0.39445 10.149 108 168 217
-0.45364 0.37482 10.312 149 220 255
0.67046 0.3694 10.127 108 169 208
1.1325 0.37135 10.024 53 98 136
-0.61413 0.41654 10.172 92 139 180
-0.61413 0.41654 10.172 92 139 180
-0.42316 0.37892 10.327 169 232 255
0.1557 0.40362 10.255 66 127 177
0.55573 0.40592 10.183 89 145 195
-0.1041 0.41482 10.311 163 239 255
1.4214 0.4246 9.985 49 102 139
1.4479 0.42543 10.004 93 141 181
1.4479 0.42543 10.004 93 141 181
0.96137 0.43102 10.079 85 146 185
0.5923 0.43124 10.197 87 137 177
0.5923 0.43124 10.197 87 137 177
0.5923 0.43124 10.197 87 137 177
1.4301 0.44602 10.019 31 79 116
1.4301 0.44602 10.019 31 79 116
1.2588 0.48083 10.044 87 123 157
0.94199 0.49497 10.17 116 174 218
0.57454 0.48516 10.365 108 128 143
1.0847 0.51184 10.141 139 190 220
1.2621 0.52796 10.084 70 97 120
-0.5333 0.56269 10.394 64 121 167
-0.5333 0.56269 10.394 64 121 167
0.96724 0.56698 10.209 39 73 104
-0.66359 0.63521 10.362 137 190 234
1.1226 -0.56484 10.307 48 97 130
0.12162 -0.43866 10.314 80 153 198
0.15922 -0.4396 10.306 94 164 203
0.34929 -0.40908 10.283 157 224 255
0.34929 -0.40908 10.283 157 224 255
-0.80192 -0.044935 9.6747 159 226 255
-0.48408 -0.097471 9.899 180 237 255
1.2977 -0.017367 9.4151 15 61 88
1.2917 -0.0028275 9.449 115 170 200
-0.48859 -0.051921 9.9272 152 229 255
0.26516 -0.054325 9.8481 158 232 255
0.35313 -0.049174 9.842 196 255 255
-0.26301 -0.040136 9.9074 177 246 255
-0.46472 -0.029396 9.9398 104 172 215
0.32329 -0.0054657 9.8524 201 255 255
-0.028608 0.0014737 9.8981 68 110 148
1.4488 0.080788 9.3582 87 146 173
-0.17178 0.0039968 9.9317 150 213 253
1.1293 0.051021 9.724 113 177 210
0.92368 0.10283 9.8467 117 171 204
1.1711 0.14649 9.8482 9 53 84
1.2208 0.18111 9.7987 44 85 119
0.92535 0.17196 9.9037 139 203 242
0.94536 0.19841 9.9173 78 134 168
1.4117 0.22338 9.8267 82 127 163
1.0387 0.26482 9.9423 136 201 238
1.6051 0.3375 9.5644 56 104 131
1.1822 0.31227 9.9722 28 71 107
1.1822 0.31227 9.9722 28 71 107
-0.44369 0.31414 10.295 157 231 255
-0.38995 0.33823 10.296 106 170 224
0.78674 0.33838 10.089 98 155 203
-0.32434 0.34066 10.288 115 182 233
-0.32434 0.34066 10.288 115 182 233
-0.29846 0.3417 10.282 116 183 234
-0.29846 0.3417 10.282 116 183 234
-0.13434 0.33984 10.263 124 192 242
-0.23073 0.34211 10.283 114 178 225
0.14896 0.34618 10.227 124 195 247
0.42969 0.35998 10.199 108 178 228
1.2815 0.38441 9.9541 37 75 105
1.6718 0.42944 9.6419 20 49 69
0.22622 0.37946 10.229 171 251 255
-0.46165 0.39598 10.328 47 82 123
0.52986 0.39145 10.188 169 235 255
0.67256 0.4035 10.123 107 165 208
0.93776 0.40779 10.081 142 201 244
1.241 0.42012 9.9907 54 101 137
0.93096 0.44816 10.111 39 80 117
1.4966 0.45201 9.9997 48 97 133
1.0514 0.48234 10.102 125 193 236
1.4276 0.50223 10.055 26 73 106
-0.5812 0.54921 10.365 84 131 175
-0.84616 0.67123 10.153 72 118 159
-0.84616 0.67123 10.153 72 118 159
0.8331 -0.56107 10.344 47 97 125
1.2984 -0.14241 9.4392 11 43 64
1.2984 -0.14241 9.4392 11 43 64
1.2623 -0.045926 9.4326 143 206 238
-0.44951 -0.094197 9.9193 46 98 141
-0.44951 -0.094197 9.9193 46 98 141
1.358 -0.012008 9.3435 78 136 162
-0.43818 -0.052867 9.9205 162 246 255
-0.43818 -0.052867 9.9205 162 246 255
1.3722 0.021773 9.3704 62 114 138
1.3285 0.041675 9.5893 19 48 71
-0.89244 0.1191 9.713 176 243 255
1.3982 0.14638 9.6449 1 27 43
0.70752 0.17303 9.8966 0 10 20
1.1966 0.18806 9.8321 123 179 214
1.2118 0.24252 9.9288 119 176 214
0.98127 0.29144 9.9701 133 194 234
1.2068 0.29538 9.9455 121 176 215
0.95906 0.30641 10.028 71 118 156
1.2803 0.34466 9.9036 18 50 79
1.2803 0.34466 9.9036 18 50 79
-0.37911 0.36891 10.31 152 230 255
-0.10016 0.3718 10.273 174 245 255
1.5322 0.51059 10.05 113 158 185
1.642 0.51618 10.018 0 1 7
0.95852 0.58623 10.257 147 188 224
0.91282 -0.037261 9.7224 141 217 255
1.4108 0.077739 9.3578 151 207 229
1.2326 0.042543 9.5593 34 70 90
1.3555 0.079989 9.6353 12 33 55
1.2646 0.23324 9.7479 28 64 89
1.5669 0.32099 9.713 0 14 27
0.69502 0.33585 10.075 53 87 120
1.1806 0.36746 10.028 20 60 93
1.729 0.40393 9.7534 129 151 168
1.3924 0.40242 9.9325 108 165 206
1.3086 0.42951 9.8355 108 159 191
1.6308 0.4167 9.7973 3 14 27
1.6715 0.45147 9.694 84 119 134
-0.61764 0.45017 10.214 176 234 255
0.64705 0.48058 10.169 120 173 210
-0.57265 0.52907 10.326 93 146 192
1.5951 0.50764 10.036 103 145 172
1.0501 0.50636 10.176 3 19 37
1.5169 0.53875 10.096 0 2 10
-0.74014 0.68245 10.295 160 202 233
-0.79902 -1.1027 10.783 105 160 182
-0.57811 -1.1268 10.94 3 6 15
0.66328 -0.87013 10.755 88 156 190
-0.75252 0.074933 9.8714 108 155 193
1.4073 0.10937 9.4607 3 20 31
-0.47921 0.23429 10.286 106 158 195
0.63392 0.29673 10.187 144 208 252
1.056 0.32278 9.9787 113 177 219
1.1318 0.33191 9.9541 104 162 202
1.1318 0.33191 9.9541 104 162 202
1.4775 0.34057 9.9582 83 136 172
-0.50403 0.42455 10.324 153 209 250
-0.449 -1.0534 10.991 2 6 17
-0.449 -1.0534 10.991 2 6 17
-0.31496 -0.91261 10.835 0 7 14
0.92651 -0.90445 10.68 1 4 10
1.0694 -0.82117 10.534 95 133 151
1.3513 -0.1623 9.3656 116 181 211
1.7874 0.20893 9.8592 80 120 146
-0.67786 0.6898 10.305 8 15 23
1.2089 -0.6808 10.426 63 110 138
1.3246 0.14375 9.7488 103 163 201
1.4592 -0.68089 10.09 101 150 169
1.4035 0.14184 9.5452 112 148 173
1.1351 0.47334 10.076 122 193 238
1.6618 0.27872 9.6088 104 153 182
1.4315 0.47841 10.028 88 142 175
0.7922 0.42958 10.177 116 178 226
-0.19589 -1.1461 10.94 0 1 6
-0.71342 0.38652 10.206 114 175 225
1.0392 -0.038197 10.206 103 164 202
0 0 0 1 0 0 0 1 0 0 0 1 0 0 0 0 0 444 1 0 0
