ply
format ascii 1.0
comment PCL generated
element vertex 88
property float x
property float y
property float z
property uchar red
property uchar green
property uchar blue
element camera 1
property float view_px
property float view_py
property float view_pz
property float x_axisx
property float x_axisy
property float x_axisz
property float y_axisx
property float y_axisy
property float y_axisz
property float z_axisx
property float z_axisy
property float z_axisz
property float focal
property float scalex
property float scaley
property float centerx
property float centery
property int viewportx
property int viewporty
property float k1
property float k2
end_header
1.36 -0.49768 10.893 83 49 21
1.3415 -0.42439 10.939 95 19 17
1.533 0.091954 12.273 102 142 172
-0.15161 0.88659 13.362 2 7 47
-1.0305 -0.63288 11.362 36 41 10
1.3541 -0.55525 10.821 1 9 40
0.13037 -0.48396 11.164 4 76 124
0.039115 -0.47654 11.184 67 0 0
1.3498 -0.44855 10.924 123 38 17
0.077185 -0.43451 11.152 96 127 142
0.30771 -0.42684 11.089 30 65 89
-0.64985 -0.40501 11.448 10 1 0
1.8553 -0.21655 12.102 34 11 0
1.5023 -0.1786 12.123 6 37 45
1.2411 0.034074 12.315 7 31 3
1.2411 0.034074 12.315 90 0 2
1.2411 0.034074 12.315 5 79 7
1.0753 0.042444 12.374 35 1 2
-0.44709 0.12489 12.958 96 133 166
-0.45312 0.17617 12.998 19 34 31
-0.37028 0.17912 12.964 60 5 15
-0.37028 0.17912 12.964 102 86 5
-0.37028 0.17912 12.964 126 51 47
-0.51805 0.18373 13.018 102 69 65
-0.11755 0.19863 12.896 43 27 1
0.29847 0.19706 12.786 2 6 4
0.10681 0.9095 13.288 94 137 172
-1.2518 0.94571 13.441 64 15 15
0.34265 0.93686 13.277 9 24 9
0.3213 0.97713 13.325 15 6 21
-1.0775 -0.74419 11.325 8 79 124
1.3829 -0.57512 10.811 82 112 130
1.3311 -0.47192 10.924 5 5 7
1.3311 -0.47192 10.924 1 17 117
1.3776 -0.47325 10.91 70 34 0
1.3776 -0.47325 10.91 69 1 1
-0.87842 -0.46713 11.35 67 21 16
0.27894 -0.45014 11.077 1 1 20
0.74255 -0.42676 10.805 20 69 91
0.74255 -0.42676 10.805 6 14 99
-0.54954 -0.42537 11.4 110 9 0
1.2376 -0.23784 12.138 21 46 86
-0.98465 -0.16915 11.485 3 1 0
1.3178 -0.15773 12.172 88 0 2
1.4713 -0.15323 12.141 6 119 26
1.4713 -0.15323 12.141 5 15 42
1.4147 -0.038726 12.211 2 123 10
1.1041 0.0085479 12.344 87 25 9
1.5205 0.037739 12.243 8 118 105
1.5513 0.04573 12.218 76 10 10
0.84932 0.12983 12.442 1 7 21
1.5595 0.12634 12.348 39 57 53
-0.23985 0.15304 12.917 4 11 14
0.33999 0.16202 12.753 75 3 9
0.33999 0.16202 12.753 119 76 3
-0.42298 0.19965 12.992 72 101 0
-0.42298 0.19965 12.992 27 0 15
0.36171 0.19702 12.762 21 47 0
0.63749 0.88356 13.228 44 86 120
-0.23653 0.91493 13.354 14 1 7
-0.1482 0.9562 13.393 2 10 71
-1.0457 -0.48162 11.415 1 1 0
-1.0228 -0.31425 11.45 33 59 80
-1.2496 0.15429 12.272 38 40 9
2.1 0.20214 12.489 112 146 172
2.1 0.20214 12.489 40 32 18
1.4239 -0.5619 10.768 2 1 5
1.3885 -0.53095 10.811 1 1 32
-1.2203 -0.44278 11.476 15 66 46
2.0844 0.020348 12.331 108 151 178
-0.029462 0.31026 13.177 85 139 173
2.0527 -0.72126 11.323 37 84 36
2.1702 -0.66277 11.57 4 4 1
1.4811 -0.51284 10.692 122 15 0
2.1725 -0.66923 11.546 0 0 5
-0.24319 0.023298 13.107 88 136 170
-0.60547 1.207 13.982 15 1 7
-1.2156 0.26727 12.273 70 106 134
1.3144 0.83035 13.336 92 141 173
1.3144 0.83035 13.336 92 141 173
-1.182 -0.1403 11.69 141 8 3
-1.3033 0.055413 11.633 16 18 25
2.015 0.15477 12.529 82 36 0
2.015 0.15477 12.529 17 40 122
1.5762 0.51842 12.947 19 69 52
-0.3999 0.55399 13.611 0 1 6
-0.29001 0.97177 13.792 80 113 147
0.50754 0.94655 13.501 13 9 3
0 0 0 1 0 0 0 1 0 0 0 1 0 0 0 0 0 88 1 0 0
