ply
format ascii 1.0
comment PCL generated
element vertex 617
property float x
property float y
property float z
property uchar red
property uchar green
property uchar blue
element camera 1
property float view_px
property float view_py
property float view_pz
property float x_axisx
property float x_axisy
property float x_axisz
property float y_axisx
property float y_axisy
property float y_axisz
property float z_axisx
property float z_axisy
property float z_axisz
property float focal
property float scalex
property float scaley
property float centerx
property float centery
property int viewportx
property int viewporty
property float k1
property float k2
end_header
0.61117 -0.39523 10.209 9 1 5
0.58715 -0.35483 10.222 3 2 73
0.69423 -0.33123 10.168 2 102 84
0.80163 -0.32152 10.045 70 50 31
0.79512 -0.7888 10.501 18 71 21
-0.32833 -0.7703 10.778 124 20 16
0.97415 -0.57117 10.292 14 57 67
0.63096 -0.46913 10.239 140 109 55
1.2607 -0.45402 9.9166 18 124 31
0.35304 -0.42678 10.246 23 9 47
0.25047 -0.4089 10.262 28 29 6
-0.041385 -0.3889 10.284 82 32 5
0.24439 -0.38147 10.26 16 3 5
1.2643 -0.3714 9.9598 4 7 31
0.24764 -0.3592 10.262 193 149 82
0.5725 -0.33511 10.225 59 24 6
0.5725 -0.33511 10.225 8 92 104
1.3928 -0.46979 11.003 5 10 2
2.0606 -0.29841 12.31 1 0 2
1.6786 -0.25718 10.004 51 17 0
1.6861 -0.22233 10.015 21 39 8
1.2389 -0.20646 9.7585 32 4 23
0.57894 -0.11097 9.8143 11 38 95
1.3853 -0.11217 9.3228 10 42 36
0.68628 -0.065654 9.6989 1 177 10
-0.32152 -0.045634 9.8816 255 222 161
0.45851 -0.014972 9.8003 180 132 73
0.56443 -0.0064104 9.7845 168 132 72
1.1897 0.01562 9.5781 147 116 68
0.65881 0.025072 9.7359 14 7 18
1.2123 0.040874 9.5891 170 141 102
0.50049 0.026296 9.8103 24 6 7
1.1467 0.13214 9.818 68 67 0
1.4035 0.13799 9.5319 12 3 5
1.4017 0.13816 9.5181 6 110 5
1.2107 0.1624 9.5395 9 31 122
1.4251 0.21373 9.7194 28 82 1
1.3973 0.19643 9.7185 128 12 0
1.1046 0.22571 9.8654 32 43 4
1.4093 0.18371 9.7107 6 29 24
-0.86958 0.32905 9.8634 5 147 0
0.6907 0.37206 10.047 4 0 0
0.92264 0.37666 10.035 3 10 6
0.92273 0.37661 10.035 146 108 59
1.3318 0.25311 9.4164 1 17 30
1.1812 0.40936 10.006 130 91 42
1.2597 0.43702 9.9828 36 50 14
1.1853 0.44772 10.039 5 5 2
1.5541 0.4922 9.9981 39 6 4
1.4313 0.54953 10.058 113 72 27
0.41734 -0.88311 10.763 11 4 6
0.30751 -0.84557 10.749 7 1 1
0.13262 -0.7473 10.717 58 61 2
-0.31169 -0.74221 10.778 21 14 30
0.81921 -0.71755 10.535 19 6 0
1.2209 -0.55821 10.237 1 2 132
1.2428 -0.53561 10.196 4 59 2
1.2628 -0.492 10.133 1 0 13
0.81895 -0.48471 10.225 1 4 4
0.21561 -0.61655 10.135 43 17 5
0.4542 -0.4486 10.251 1 12 26
0.4542 -0.4486 10.251 254 230 168
-0.24877 -0.43421 10.311 81 123 0
0.48627 -0.42606 10.233 37 52 68
0.62231 -0.41734 10.21 86 16 0
-0.26473 -0.40806 10.307 66 3 8
-0.031914 -0.40883 10.285 14 6 1
-0.30337 -0.40669 10.315 15 0 0
0.17345 -0.40506 10.255 17 48 2
1.3933 -0.34295 9.8692 7 2 22
1.3412 -0.29311 9.503 8 80 5
1.2346 -0.27275 9.9191 1 1 9
1.2456 -0.25301 9.809 23 116 46
0.46876 -0.14346 9.4945 205 170 109
1.2723 -0.10614 9.4561 75 0 0
0.21814 -0.051842 9.8198 17 24 46
0.55204 -0.028837 9.777 26 16 0
1.1542 -0.01465 9.5981 176 138 86
0.28475 0.24285 10.225 215 184 127
1.4651 0.16815 9.402 1 0 0
1.1687 0.2071 9.8415 115 21 5
1.4883 0.24294 9.8597 18 0 1
1.1989 0.25442 9.434 106 18 0
1.5328 0.26755 9.4923 20 67 54
1.7564 0.31829 9.7651 9 135 2
0.98523 0.35504 9.9743 237 200 148
1.1661 0.30731 9.3438 5 1 1
1.5483 0.3583 9.7148 4 0 1
1.3976 0.2286 9.3418 3 125 23
1.1157 0.39448 10.003 4 0 3
1.1512 0.39387 10.001 6 23 4
1.4988 0.48543 10.004 60 4 1
1.1315 0.55515 10.142 59 27 1
-0.495 -1.0853 10.868 1 1 33
0.74537 -0.90123 10.695 4 5 15
0.30754 -0.84696 10.758 16 0 2
-0.88531 -0.68114 10.164 27 33 6
0.54337 -0.49296 10.291 2 17 25
0.52186 -0.39637 10.219 8 121 2
0.2258 -0.75726 10.608 2 1 1
1.1751 -0.38744 10.055 3 66 17
0.79521 -0.042849 9.6979 22 24 19
-0.088215 -0.027997 9.8567 34 29 10
0.64118 -0.0084818 9.7368 255 254 192
0.59655 0.047154 9.8425 1 140 4
0.30497 0.19679 10.947 25 10 6
1.2053 0.29714 9.9162 24 0 0
0.73766 0.34202 10.027 8 3 2
1.2065 0.34272 9.9466 35 0 0
1.2086 0.39663 9.9799 71 17 11
1.2152 0.50554 10.065 114 91 15
1.4649 0.55567 10.069 118 81 10
-0.63013 -1.1178 10.823 19 14 24
0.81154 -1.0022 10.681 16 4 0
-0.39029 -0.95263 10.892 50 44 1
0.58392 -0.87809 10.754 9 75 116
-0.066678 -0.88227 10.869 4 42 75
0.4865 0.29342 10.184 24 99 87
-0.96229 -0.62292 10.681 4 1 1
1.0218 -0.5115 10.194 86 41 1
1.3227 -0.45829 9.9316 22 126 12
1.3227 -0.45829 9.9316 37 119 11
-0.94505 -0.34179 9.6142 241 207 146
1.7189 -0.0093482 9.7821 3 0 0
0.37776 0.11504 7.6244 12 11 12
0.69481 0.33868 10.04 55 120 13
1.031 0.36574 9.9956 56 52 16
1.0922 0.36579 9.9959 11 27 9
1.3111 0.35829 9.7671 61 3 2
-0.017542 0.3158 9.004 218 172 108
0.24537 0.32802 10.12 27 6 5
-0.1145 0.52781 8.3055 19 13 7
0.43665 0.24471 7.7305 11 43 5
1.186 0.53339 10.099 57 18 17
1.1885 0.53336 10.111 10 124 10
1.5091 0.54361 10.051 131 0 0
1.5564 0.54266 10.016 6 1 0
0.86203 0.57643 10.245 78 130 15
1.4289 0.59956 10.091 1 0 1
-0.57343 -1.1106 10.878 7 3 33
1.5588 -0.55655 10.077 2 2 1
1.5865 -0.49589 10.062 129 57 8
-0.91732 -0.48314 9.8118 215 184 127
0.30433 -0.40241 10.254 3 10 17
1.6727 -0.10971 9.8432 121 9 1
1.3443 -0.066856 9.3183 11 16 25
1.3444 -0.066976 9.3189 18 22 33
0.95585 0.11625 9.7565 23 1 0
1.3049 0.27834 9.6829 19 8 1
1.0512 0.53059 10.123 19 9 0
-0.6125 0.61337 10.325 251 216 161
-0.43258 0.35679 7.8163 10 0 0
-0.67995 0.66732 10.316 31 21 15
-0.67995 0.66732 10.316 82 126 36
-0.83749 0.7101 10.175 240 205 150
-0.51971 -1.0301 10.856 2 1 2
1.2046 -0.70449 10.426 2 0 2
1.5407 -0.67975 10.043 12 0 0
1.3934 -0.030311 9.3008 239 210 146
1.7723 0.36806 9.7592 154 7 0
-0.49937 0.54094 10.387 24 33 18
-0.0977 -0.85217 10.87 4 3 1
0.055222 -0.85494 10.849 212 178 105
0.77809 0.59902 10.199 41 11 26
-0.93486 -0.17966 9.4428 51 5 14
0.64537 -0.97188 10.72 10 7 36
0.60686 0.56254 10.329 1 2 26
1.7973 -1.1698 15.285 58 0 0
-0.58073 -0.10264 10.057 255 226 155
-0.58137 -0.10291 10.063 3 2 96
1.0447 0.02374 9.8893 63 41 8
0.33041 -0.78249 10.699 215 176 110
0.27472 -0.76376 10.707 178 139 72
0.34608 -0.76288 10.691 180 138 72
0.3283 -0.74725 10.7 213 177 114
0.59865 -0.72609 10.659 155 118 55
0.1119 -0.46408 10.294 243 197 126
0.1119 -0.46408 10.294 243 197 126
-0.19019 -0.40929 10.302 168 120 54
0.21809 -0.4078 10.259 247 208 139
0.622 -0.37976 10.209 166 127 63
-0.20601 -0.37263 10.306 199 155 78
0.5992 -0.33487 10.225 147 108 56
1.0264 -0.19215 9.8467 227 188 131
-0.33432 -0.032432 9.8976 201 167 115
1.3131 0.02334 9.4411 163 137 100
1.4102 0.050665 9.319 187 165 111
-0.16839 -0.010113 9.8788 201 159 96
1.3745 0.068289 9.4296 134 114 84
0.55019 0.011822 9.7984 239 205 146
-0.71902 0.060466 9.8351 246 202 144
-0.71883 0.060507 9.8351 237 194 133
-0.08467 0.021141 9.8986 208 175 138
1.158 0.054172 9.6823 137 106 52
1.158 0.054172 9.6823 137 106 52
0.10372 0.043139 9.9465 226 191 137
0.94164 0.079594 9.7426 203 176 134
0.96776 0.080179 9.7382 219 187 137
1.0655 0.07501 9.7611 181 142 88
-0.60935 0.11196 9.9727 246 206 149
-0.60937 0.11201 9.9727 248 209 154
1.358 0.12658 9.6905 85 54 17
1.3537 0.14119 9.7156 182 147 95
1.3731 0.15293 9.6962 100 68 27
1.3735 0.1703 9.7337 170 134 89
1.36 0.17785 9.7483 129 94 44
1.2834 0.22483 9.6364 183 156 108
1.3673 0.19643 9.7685 141 105 51
1.4017 0.21487 9.7701 160 126 83
-0.54886 0.22865 10.078 176 131 76
1.101 0.2227 9.8535 238 201 138
1.3575 0.227 9.7963 148 108 58
1.3577 0.22706 9.7963 146 109 58
-0.86895 0.33073 9.8534 171 133 83
1.2661 0.52359 8.5558 220 173 99
0.91394 0.26657 9.9624 161 122 71
1.0309 0.29374 9.9605 239 194 123
1.0914 0.29453 9.9484 227 185 121
0.14619 0.21888 10.575 247 195 124
1.5178 0.36221 9.8991 71 40 11
-0.50159 0.37943 10.206 163 120 73
-0.50159 0.37943 10.206 163 120 73
0.94063 0.35836 10.043 239 197 144
1.4647 0.43324 9.6244 158 123 84
1.2275 0.26551 9.8228 132 97 53
0.95366 0.39659 10.029 181 140 84
-0.39887 0.39838 10.29 185 140 81
-0.39887 0.39838 10.29 185 140 81
0.57208 0.39264 10.144 255 217 155
-0.094282 0.39777 10.257 175 131 69
-0.094282 0.39777 10.257 175 131 69
1.5439 0.40686 9.923 73 43 13
-0.84244 0.50313 9.991 217 177 126
-0.84242 0.50309 9.9912 217 177 126
1.404 0.43873 9.9692 199 157 107
0.66473 0.44877 10.108 250 210 149
0.55678 0.44999 10.18 255 215 166
0.6783 0.4649 10.118 202 159 103
1.6117 0.48029 9.9614 50 30 3
0.52718 -0.76482 10.667 168 129 65
0.0095621 -0.74905 10.743 172 129 66
1.2681 -0.54062 10.167 79 55 23
1.1955 -0.56163 10.26 103 74 34
1.2571 -0.43092 10.06 98 73 31
-0.45142 -0.4343 10.336 209 164 97
0.071507 -0.43426 10.281 202 160 85
1.2594 -0.41463 10.096 100 74 35
0.55485 -0.4191 10.222 180 140 79
0.0025383 -0.4098 10.278 255 217 145
-0.26481 -0.37611 10.323 214 169 98
1.5784 -0.56328 10.887 44 27 6
0.66393 -0.061809 9.7282 220 181 112
-0.50183 -0.027938 9.907 188 148 91
1.3321 0.033851 9.4116 84 59 18
0.32984 -0.027702 9.8152 231 197 128
1.3588 0.043966 9.4033 190 164 124
0.4573 -0.015573 9.8016 174 129 69
1.384 0.065428 9.388 78 59 23
0.22048 -0.0048145 9.8676 167 132 66
0.45432 0.0051927 9.8069 255 223 154
-0.2195 0.01137 9.906 255 234 173
0.89043 0.020538 9.7069 240 205 140
-0.11902 0.015362 9.909 212 178 121
0.39372 0.017991 9.826 186 144 80
0.91843 0.031693 9.7003 160 126 68
0.87469 0.03331 9.7357 142 107 51
0.87469 0.03331 9.7357 142 107 51
1.1987 0.045095 9.6484 129 98 51
0.56114 0.034766 9.8062 148 111 58
-0.18941 0.031412 9.9722 226 196 146
-0.16185 0.031577 9.9738 222 194 144
0.50736 0.038748 9.8437 201 165 103
0.0051824 0.040375 9.9519 226 200 152
0.92028 0.072673 9.7134 120 89 42
1.2265 0.15421 9.5061 78 55 19
-0.80938 0.1749 9.8224 179 134 83
1.1699 0.11311 9.8238 110 76 27
0.96686 0.13377 9.7898 115 78 27
0.94068 0.15742 9.8261 163 124 67
0.90494 0.19178 9.886 152 116 60
-0.62822 0.23414 9.9913 255 228 166
0.90829 0.23722 9.9139 187 147 88
0.94652 0.24111 9.9074 174 136 74
1.0156 0.24648 9.8884 183 141 85
1.0156 0.24648 9.8884 183 141 85
0.94798 0.28218 9.9596 154 117 64
-0.44697 0.28465 10.281 224 177 115
-0.61726 0.34271 10.075 187 141 86
-0.37778 0.31604 10.266 255 246 173
-0.059589 0.31853 10.223 255 255 176
1.4963 0.33171 9.8733 63 34 5
-0.71781 0.38435 10.104 255 228 168
0.58469 0.33172 10.147 220 176 109
0.58459 0.33078 10.152 227 178 112
-0.1755 0.34328 10.241 241 193 122
-0.1755 0.34328 10.241 241 193 122
-0.45652 0.35291 10.273 192 143 91
-0.70291 0.39591 10.118 217 168 108
-0.45054 0.37686 10.278 255 220 149
0.67005 0.37157 10.093 208 169 108
1.1309 0.37291 9.9936 136 98 53
-0.61098 0.41791 10.141 180 139 92
-0.61098 0.41791 10.141 180 139 92
-0.42031 0.38092 10.293 255 232 169
0.15695 0.40494 10.224 177 127 66
0.55578 0.40841 10.147 195 145 89
-0.10162 0.41678 10.276 255 239 163
1.4191 0.42509 9.9589 139 102 49
1.4451 0.42728 9.9725 181 141 93
1.4451 0.42728 9.9725 181 141 93
0.96015 0.43135 10.053 185 146 85
1.5545 0.42815 9.9432 60 33 4
0.59171 0.43566 10.153 177 137 87
0.59201 0.43327 10.163 177 137 87
0.59201 0.43327 10.163 177 137 87
1.4272 0.44804 9.9862 116 79 31
1.4272 0.44804 9.9862 116 79 31
1.2564 0.48269 10.011 157 123 87
0.94061 0.49685 10.136 218 174 116
0.57336 0.4898 10.318 143 128 108
1.0831 0.51307 10.11 220 190 139
1.2598 0.52943 10.053 120 97 70
-0.52999 0.56426 10.359 167 121 64
-0.53033 0.56392 10.361 167 121 64
0.96574 0.56874 10.175 104 73 39
-0.66005 0.63604 10.33 234 190 137
1.1201 -0.55717 10.265 130 97 48
0.123 -0.43237 10.275 198 153 80
0.16174 -0.43433 10.27 203 164 94
0.35009 -0.40299 10.245 255 224 157
0.35009 -0.40299 10.245 255 224 157
-0.79813 -0.043019 9.6471 255 226 159
-0.48131 -0.095082 9.8699 255 237 180
1.2971 -0.017457 9.3952 88 61 15
1.2901 -0.0014556 9.4242 200 170 115
-0.48579 -0.049612 9.8978 255 229 152
0.26589 -0.051867 9.8187 255 232 158
0.35362 -0.046703 9.8127 255 255 196
-0.2604 -0.037623 9.8773 255 246 177
-0.4611 -0.025475 9.9046 215 172 104
0.32422 -0.0032658 9.8235 255 255 201
1.2288 0.031198 9.5584 64 40 9
-0.027078 0.0037243 9.8687 148 110 68
1.4458 0.083406 9.329 173 146 87
-0.16984 0.0062859 9.902 253 213 150
1.1275 0.052108 9.6992 210 177 113
0.53969 0.32175 8.6889 16 6 0
0.92203 0.10572 9.8147 204 171 117
1.1922 0.1439 9.7828 206 173 121
1.1694 0.14879 9.8178 88 54 9
1.1694 0.14881 9.8178 84 53 9
1.1469 0.17154 9.8215 246 211 145
1.2194 0.18144 9.7755 119 85 44
0.92442 0.1731 9.8772 242 203 139
0.94395 0.2005 9.8871 168 134 78
1.4099 0.22423 9.8012 163 127 82
1.0372 0.26683 9.9116 238 201 136
-0.87598 0.34805 9.8585 255 232 173
1.6016 0.33949 9.5344 131 104 56
1.1802 0.31429 9.9409 107 71 28
1.1801 0.3153 9.9368 107 71 28
-0.44069 0.31639 10.261 255 231 157
-0.38738 0.3402 10.262 224 170 106
0.78512 0.34154 10.052 203 155 98
-0.32208 0.34276 10.255 233 182 115
-0.32208 0.34276 10.255 233 182 115
-0.29532 0.34285 10.252 234 183 116
-0.22359 0.65018 8.6699 234 183 116
-0.13253 0.34128 10.232 242 192 124
-0.22838 0.34432 10.248 225 178 114
0.1494 0.34788 10.195 247 195 124
-0.62121 0.39812 10.127 255 217 158
0.42991 0.3622 10.165 228 178 108
1.2783 0.38796 9.9159 105 75 37
1.67 0.42924 9.6194 69 49 20
0.22759 0.38045 10.199 255 251 171
-0.45825 0.39756 10.296 123 82 47
0.52962 0.39388 10.153 255 235 169
0.67204 0.40542 10.09 208 165 107
0.93665 0.40954 10.049 244 201 142
1.1808 0.40974 10.004 119 82 32
1.2381 0.4231 9.9542 137 101 54
0.92916 0.44989 10.079 117 80 39
1.4937 0.45377 9.9679 133 97 48
1.0499 0.4856 10.063 236 193 125
1.4242 0.50402 10.022 106 73 26
-0.57911 0.54634 10.351 175 131 84
-0.84384 0.67117 10.126 159 118 72
-0.84384 0.67117 10.126 159 118 72
0.83177 -0.55346 10.302 125 97 47
1.2967 -0.14063 9.4143 64 43 11
1.2967 -0.14063 9.4143 64 43 11
1.2607 -0.04458 9.4083 238 206 143
-0.44672 -0.092256 9.8916 141 98 46
-0.44672 -0.092256 9.8916 141 98 46
1.3557 -0.010626 9.3192 162 136 78
1.3302 -0.007882 9.367 234 208 147
-0.43565 -0.050388 9.8906 255 246 162
-0.43552 -0.050552 9.8912 255 246 162
1.3712 0.021577 9.3509 138 114 62
1.1644 0.018185 9.6055 203 170 111
1.3271 0.044766 9.5581 71 48 19
-0.88917 0.11965 9.6887 255 243 176
1.3965 0.14732 9.6201 43 27 1
0.70701 0.17503 9.8668 20 10 0
1.1944 0.19048 9.801 214 179 123
1.2074 0.24947 9.8795 214 176 119
0.97911 0.29398 9.9369 234 194 133
1.2049 0.29669 9.9173 215 176 121
0.95773 0.30852 9.9961 156 118 71
1.2782 0.34637 9.8734 79 50 18
1.2771 0.34728 9.8699 79 50 18
-0.37666 0.3722 10.271 255 230 152
-0.097594 0.37347 10.241 255 245 174
1.5292 0.51223 10.018 185 158 113
1.6403 0.51817 9.9842 7 1 0
0.95625 0.58879 10.218 224 188 147
0.91183 -0.034989 9.6941 255 217 141
1.4085 0.079165 9.3326 229 207 151
1.2326 0.040333 9.5461 90 70 34
1.3532 0.083968 9.6005 55 33 12
1.2615 0.23771 9.7089 89 64 28
-0.8802 0.32365 9.8167 160 120 71
1.5653 0.32282 9.6831 27 14 0
0.69481 0.33735 10.045 120 87 53
-0.56841 0.36031 10.195 195 149 98
1.1776 0.37163 9.9874 93 60 20
1.724 0.40696 9.718 168 151 129
1.3918 0.40051 9.9166 206 165 108
1.3064 0.43065 9.8069 191 159 108
1.6237 0.4253 9.7388 27 14 3
1.67 0.45249 9.6661 134 119 84
-0.61466 0.45234 10.179 255 234 176
0.6466 0.48235 10.136 210 173 120
-0.57076 0.5263 10.311 192 146 93
1.5932 0.50846 10.007 172 145 103
1.0474 0.51105 10.129 37 19 3
1.5163 0.54151 10.059 10 2 0
-0.73641 0.68317 10.263 233 202 160
-0.79301 -1.0904 10.732 182 160 105
-0.57288 -1.114 10.887 15 6 3
0.66266 -0.85685 10.699 190 156 88
-0.74857 0.077276 9.8407 193 155 108
1.4055 0.11035 9.4365 31 20 3
-0.47493 0.24132 10.234 195 158 106
0.6335 0.29927 10.153 252 208 144
1.0541 0.32453 9.9483 219 177 113
1.13 0.33376 9.9232 202 162 104
1.13 0.33376 9.9232 202 162 104
1.4728 0.34569 9.9144 172 136 83
-0.50086 0.42643 10.29 250 209 153
-0.44437 -1.0401 10.935 17 6 2
-0.44323 -1.0331 10.916 17 6 2
-0.32097 -0.92687 10.865 14 7 0
0.92441 -0.89283 10.629 10 4 1
1.0679 -0.81253 10.491 151 133 95
1.3496 -0.16072 9.3416 211 181 116
-0.79216 0.036996 9.6865 255 223 159
1.7838 0.21128 9.8284 146 120 80
-0.59532 1.1681 7.2776 255 244 170
-0.68025 0.68137 10.316 23 15 8
1.2059 -0.67179 10.381 138 110 63
1.3183 0.15334 9.6922 201 163 103
1.4557 -0.67334 10.051 169 150 101
1.4015 0.14303 9.5198 173 148 112
1.1335 0.47657 10.037 238 193 122
1.6591 0.27981 9.5826 182 153 104
1.4348 0.47718 10.006 175 142 88
1.1788 0.64317 10.176 1 0 0
0.79364 0.43032 10.149 226 178 116
-0.22297 -1.1462 10.918 6 1 0
-0.70981 0.38803 10.174 225 175 114
1.0425 -0.046015 10.214 202 164 103
-0.72234 0.032945 9.8117 236 197 141
-0.70312 0.044494 9.8224 199 155 94
-0.5105 0.023446 9.9687 223 191 143
-0.17115 0.021403 9.9436 91 59 8
-0.17115 0.021403 9.9436 91 59 8
0.16104 0.029943 9.881 227 198 142
0.88381 0.051004 9.7599 113 82 36
0.19466 0.035673 9.9091 80 52 16
0.064884 0.02763 10.007 85 70 48
1.3509 0.096015 9.6468 126 102 72
0.34054 0.052128 9.9161 207 179 138
1.0167 0.072754 9.7681 190 155 95
1.3368 0.098456 9.6626 84 53 11
-0.76763 0.17091 9.8233 165 129 75
1.2877 0.17495 9.5744 127 98 49
1.3841 0.17444 9.6976 76 44 12
-0.68333 0.22465 9.9891 255 207 138
0.93232 0.2657 9.9506 232 196 140
1.4729 0.32112 9.8629 156 122 87
-0.64155 0.38243 10.11 215 169 105
0.96206 0.37463 9.9965 141 101 52
-0.71025 0.42241 10.149 196 148 100
1.2752 0.4172 9.9415 99 70 32
0.67735 0.43235 10.096 212 172 112
0.51782 0.41991 10.168 176 134 75
0.94922 0.44572 10.067 215 180 127
-0.78225 0.54188 10.127 211 166 110
0.94165 0.46718 10.102 208 173 127
-0.55436 0.51978 10.327 188 138 84
1.2272 0.51758 10.088 113 95 75
-0.73692 -1.0717 10.712 161 145 110
0.029161 -0.43933 10.29 204 163 95
1.3918 0.019695 9.3287 215 193 134
1.1932 -0.053319 9.6111 142 114 66
1.2055 -0.015769 9.5302 183 158 115
0.21916 -0.053734 9.8269 176 130 66
0.81222 -0.023872 9.7102 207 169 102
1.3309 0.049344 9.4515 167 142 103
-0.87697 0.094042 9.6794 185 145 86
-0.63194 0.04422 9.8239 188 148 94
-0.63194 0.04422 9.8239 188 148 94
0.19935 -0.0048502 9.8513 255 216 155
0.45424 0.0046151 9.8084 254 216 152
0.89056 0.020911 9.7061 237 202 139
0.3095 0.012471 9.8351 185 146 80
0.54518 0.044999 9.8375 212 180 121
-0.4963 0.041987 10.05 195 169 134
-0.80886 0.17517 9.8218 170 125 71
-0.44463 0.028385 10.349 133 110 82
1.2225 0.2004 9.7928 128 96 46
0.96632 1.1857 7.16 105 90 66
-0.85424 0.31863 9.8413 255 214 160
0.99367 0.29815 9.9414 232 190 129
1.501 0.33189 9.814 136 112 81
-0.2007 0.28943 10.251 246 201 127
1.3812 0.35747 9.9032 141 105 58
1.3812 0.35747 9.9032 141 105 58
1.4218 0.36521 9.9182 143 105 56
0.41024 0.34001 10.171 255 251 175
0.67008 0.37176 10.093 209 167 106
0.92219 0.3773 10.033 148 108 60
1.2559 0.40422 9.9432 183 149 107
0.88759 0.4148 10.089 222 178 127
0.90445 0.44443 10.108 227 181 128
1.5881 0.46967 9.9207 129 109 82
0.53756 0.4718 10.231 217 179 132
1.63 0.48967 9.9831 145 120 95
0.58558 0.47769 10.211 175 141 105
1.4072 0.5157 10.042 212 172 121
1.3045 0.54467 10.056 204 179 138
0.95946 0.53677 10.154 142 103 48
-0.65048 -0.084338 9.7268 255 234 165
0.52537 -0.060267 9.7959 204 161 105
-0.29142 -0.025644 9.895 118 80 33
-0.29142 -0.025644 9.895 118 80 33
0.2638 -0.0061226 9.8273 255 245 178
-0.88666 0.11985 9.6825 255 240 176
0.14638 0.013748 9.8519 115 75 38
1.3167 0.071358 9.5815 173 144 99
-0.2474 0.031243 9.977 223 192 146
-0.066192 0.039222 9.9563 214 181 131
1.1802 0.074195 9.696 188 159 105
0.99397 0.1035 9.7784 187 148 96
1.7824 0.1546 9.7638 138 113 79
1.2243 0.23824 9.8099 121 88 45
1.8117 0.18825 9.8576 112 90 63
1.2313 0.30399 9.8685 127 90 47
-0.61715 0.34262 10.075 182 140 86
1.2526 0.32892 9.8817 174 141 100
0.56875 0.30214 10.169 255 226 155
1.0697 0.33819 9.9969 209 167 112
1.1781 0.34703 9.9609 114 81 34
1.2577 0.37027 9.9116 169 135 95
1.236 0.3563 9.9729 149 111 61
0.31372 0.36325 10.169 252 200 129
1.4522 0.40926 9.9479 136 100 53
0.20576 0.39712 10.216 194 149 91
1.4218 0.48114 9.9952 123 90 40
-0.44539 0.46562 10.399 64 46 31
0.82182 0.514 10.19 255 221 162
0.82182 0.514 10.19 255 221 162
-0.40197 -0.10361 9.8923 255 253 177
1.2256 -0.0077165 9.4844 93 72 34
1.2256 -0.0077165 9.4844 93 72 34
0.094864 -0.015758 9.8415 255 246 176
1.2385 0.10773 9.5868 76 55 17
1.1495 0.07644 9.7211 62 39 9
1.4332 0.1752 9.5711 163 137 100
1.2821 0.1926 9.6047 203 171 116
1.8035 0.17532 9.8161 137 107 73
1.1447 0.30779 9.9346 205 168 111
1.1447 0.30779 9.9346 205 168 111
0.79466 0.39856 10.126 206 161 101
1.583 0.46472 9.818 45 28 7
1.3092 0.53974 9.9651 30 20 6
1.6759 -0.37151 10.133 124 102 74
1.0029 0.098639 9.7633 178 142 87
1.7541 0.11878 9.7408 165 136 91
-0.64912 0.18221 9.9402 246 207 141
-0.62945 0.29754 10.05 252 210 148
-0.88485 0.64031 10.118 244 198 140
1.4662 0.55354 10.074 187 158 119
-0.63789 -1.1013 10.813 167 152 110
-0.79086 0.030023 9.6818 255 221 155
1.2628 0.04407 9.446 198 173 119
-0.5193 0.061406 9.9351 224 190 136
-0.48055 0.19016 10.188 170 140 98
1.3192 0.5091 9.9046 199 166 115
1.2371 0.41341 10.492 8 2 0
-0.79288 0.74903 10.239 22 12 7
1.1267 -0.7412 10.423 20 10 5
1.2856 0.12077 9.5305 183 151 96
0.71192 0.13638 9.8378 243 208 140
-0.51955 0.32997 10.126 245 205 139
1.6868 0.48092 9.759 0 0 0
1.377 0.54989 10.038 192 153 98
-0.55635 0.61953 10.392 26 18 10
-0.81807 0.66876 10.537 18 8 4
0.83436 -0.91834 10.657 174 154 103
0.72844 0.51341 10.19 246 207 145
1.067 0.21416 9.8225 194 160 105
-0.2979 0.53606 10.417 10 1 0
0.55006 0.15937 10.024 9 0 0
-0.18239 0.12708 10.117 11 2 3
0 0 0 1 0 0 0 1 0 0 0 1 0 0 0 0 0 617 1 0 0
