ply
format ascii 1.0
comment PCL generated
element vertex 1438
property float x
property float y
property float z
property uchar red
property uchar green
property uchar blue
element camera 1
property float view_px
property float view_py
property float view_pz
property float x_axisx
property float x_axisy
property float x_axisz
property float y_axisx
property float y_axisy
property float y_axisz
property float z_axisx
property float z_axisy
property float z_axisz
property float focal
property float scalex
property float scaley
property float centerx
property float centery
property int viewportx
property int viewporty
property float k1
property float k2
end_header
0.6121 -0.39239 10.197 9 1 5
0.58808 -0.35205 10.209 3 2 73
0.69501 -0.32857 10.156 2 102 84
0.80225 -0.31898 10.033 70 50 31
0.79538 -0.78485 10.488 18 71 21
-0.3258 -0.76624 10.764 124 20 16
0.97416 -0.56787 10.279 14 57 67
0.6318 -0.46611 10.227 140 109 55
1.2604 -0.45129 9.9057 18 124 31
0.35439 -0.4238 10.233 23 9 47
0.25214 -0.40599 10.249 28 29 6
-0.039086 -0.38604 10.272 82 32 5
0.24608 -0.37862 10.247 16 3 5
1.2638 -0.36874 9.9476 4 7 31
0.24933 -0.35641 10.249 193 149 82
0.57351 -0.33239 10.212 59 24 6
0.57351 -0.33239 10.212 8 92 104
1.2643 -0.32838 9.9486 5 10 2
2.056 -0.29414 12.291 1 0 2
1.4364 0.26828 9.8089 51 17 0
-0.12205 -0.61223 10.316 21 39 8
1.2388 -0.20441 9.7479 32 4 23
0.58025 -0.10907 9.8029 11 38 95
1.3853 -0.11068 9.3135 10 42 36
0.68748 -0.063945 9.6879 1 177 10
-0.31761 -0.044416 9.8734 255 222 161
0.46006 -0.013277 9.7886 180 132 73
0.56573 -0.004849 9.7734 168 132 72
1.1898 0.01687 9.5674 147 116 68
0.66007 0.026827 9.7229 14 7 18
1.2124 0.042053 9.5778 170 141 102
0.50198 0.028086 9.798 24 6 7
1.1466 0.1336 9.8052 68 67 0
1.4345 0.16838 9.5649 12 3 5
1.4014 0.13926 9.508 6 110 5
1.2142 0.16495 9.5571 9 31 122
1.3872 0.17002 9.6632 28 82 1
1.3982 0.19189 9.7174 128 12 0
1.1045 0.22696 9.8527 32 43 4
1.4096 0.18443 9.6983 6 29 24
-0.86522 0.3301 9.8512 5 147 0
0.69167 0.37308 10.034 4 0 0
0.92296 0.37769 10.022 3 10 6
0.92313 0.37758 10.022 146 108 59
1.3507 0.19846 9.5376 1 17 30
1.181 0.41025 9.9933 130 91 42
1.2577 0.43892 9.9631 36 50 14
1.1851 0.44856 10.026 5 5 2
1.5527 0.49295 9.9841 39 6 4
1.4304 0.55017 10.044 113 72 27
-0.88773 0.45899 9.9712 11 4 6
0.30867 -0.84129 10.736 7 1 1
0.13418 -0.74329 10.703 58 61 2
-0.30913 -0.7381 10.763 21 14 30
0.81939 -0.71373 10.522 19 6 0
1.2204 -0.55499 10.224 1 2 132
1.2422 -0.53239 10.183 4 59 2
1.2621 -0.48893 10.12 1 0 13
0.81937 -0.48166 10.212 1 4 4
0.21751 -0.61286 10.121 43 17 5
0.45544 -0.44561 10.239 1 12 26
0.45544 -0.44561 10.239 254 230 168
-0.24605 -0.43124 10.298 81 123 0
0.48746 -0.42313 10.22 37 52 68
0.6232 -0.41446 10.198 86 16 0
-0.26197 -0.40515 10.294 66 3 8
-0.029722 -0.40594 10.272 14 6 1
-0.30054 -0.40378 10.302 15 0 0
0.17523 -0.40216 10.242 17 48 2
1.3927 -0.34051 9.8579 7 2 22
1.3411 -0.29108 9.4933 8 80 5
1.2344 -0.27044 9.908 1 1 9
1.2726 -0.24893 10.048 23 116 46
0.47059 -0.14173 9.484 205 170 109
1.2724 -0.10454 9.4459 75 0 0
0.22026 -0.050055 9.808 17 24 46
0.55356 -0.027388 9.767 26 16 0
1.1543 -0.013083 9.5868 176 138 86
-0.94489 0.42782 9.9239 215 184 127
1.4647 0.1691 9.3918 1 0 0
1.1684 0.20841 9.8286 115 21 5
1.4826 0.24527 9.8051 18 0 1
1.2067 0.25922 9.4838 106 18 0
1.5322 0.26835 9.4819 20 67 54
1.7551 0.31916 9.7539 9 135 2
0.98551 0.35605 9.9616 237 200 148
1.1875 0.32158 9.5083 5 1 1
1.5475 0.35907 9.7037 4 0 1
1.4021 0.13976 9.5193 3 125 23
1.1156 0.39541 9.9901 4 0 3
1.1507 0.39497 9.9873 6 23 4
1.498 0.48614 9.9924 60 4 1
1.1317 0.55571 10.13 59 27 1
-0.49216 -1.0804 10.854 1 1 33
0.7453 -0.89662 10.68 4 5 15
0.30869 -0.84266 10.744 16 0 2
-0.88117 -0.67774 10.152 27 33 6
1.4778 0.09927 9.3263 2 17 25
0.52297 -0.39353 10.206 8 121 2
0.22712 -0.75453 10.597 2 1 1
1.1748 -0.38468 10.043 3 66 17
0.79602 -0.041125 9.686 22 24 19
-0.085539 -0.02631 9.8456 34 29 10
0.6422 -0.0068021 9.7249 255 254 192
0.5978 0.048731 9.8309 1 140 4
0.12536 0.12194 10.666 25 10 6
1.205 0.29827 9.903 24 0 0
0.73848 0.34309 10.015 8 3 2
1.2062 0.34377 9.9332 35 0 0
1.2079 0.39781 9.9655 71 17 11
1.2148 0.50658 10.048 114 91 15
1.4652 0.55563 10.06 118 81 10
-0.62687 -1.1128 10.808 19 14 24
0.81162 -0.99756 10.668 16 4 0
-0.38771 -0.94808 10.878 50 44 1
0.5845 -0.87348 10.739 9 75 116
-0.064766 -0.87783 10.855 4 42 75
0.48793 0.29435 10.174 24 99 87
-0.95466 -0.61841 10.631 4 1 1
1.0219 -0.50843 10.182 86 41 1
1.3223 -0.45556 9.9206 22 126 12
1.3223 -0.45556 9.9206 37 119 11
-0.94034 -0.33971 9.6042 241 207 146
1.3956 -0.0065444 9.7795 3 0 0
0.45112 0.23712 9.3298 12 11 12
0.69573 0.33977 10.027 55 120 13
1.0287 0.36755 9.9789 56 52 16
1.0919 0.36699 9.9813 11 27 9
1.3108 0.3591 9.7557 61 3 2
-0.014388 0.31626 8.9942 218 172 108
0.24687 0.28072 10.204 27 6 5
-0.96418 -0.11458 9.4981 19 13 7
0.43987 0.2443 7.7246 11 43 5
1.5378 0.51641 10.092 57 18 17
1.1882 0.53405 10.098 10 124 10
1.5103 0.54298 10.047 131 0 0
1.5554 0.54324 10.004 6 1 0
1.7132 0.010932 9.751 78 130 15
1.4296 0.59926 10.084 1 0 1
-0.57034 -1.1055 10.863 7 3 33
1.5576 -0.55344 10.065 2 2 1
1.5853 -0.49297 10.051 129 57 8
-0.91271 -0.48038 9.7995 215 184 127
0.30589 -0.39952 10.241 3 10 17
1.6716 -0.10782 9.8325 121 9 1
1.3443 -0.065451 9.3084 11 16 25
1.344 -0.065515 9.3076 18 22 33
0.95638 0.1176 9.7452 23 1 0
1.3046 0.27932 9.6711 19 8 1
1.0512 0.53129 10.11 19 9 0
-0.60887 0.61435 10.31 251 216 161
-0.42747 0.35625 7.8097 10 0 0
-0.67627 0.66796 10.302 31 21 15
-0.67627 0.66796 10.302 82 126 36
-0.83334 0.71052 10.161 240 205 150
-0.51685 -1.0254 10.842 2 1 2
1.204 -0.70077 10.413 2 0 2
1.5397 -0.67645 10.032 12 0 0
1.3934 -0.029006 9.2916 239 210 146
1.7709 0.36892 9.7469 154 7 0
-0.49605 0.54185 10.373 24 33 18
0.45296 -0.9671 11.205 4 3 1
0.056428 -0.85074 10.837 212 178 105
0.77874 0.59965 10.186 41 11 26
-0.92989 -0.17789 9.4313 51 5 14
0.64579 -0.96733 10.707 10 7 36
0.6081 0.56487 10.302 1 2 26
1.7897 -1.1605 15.251 58 0 0
-0.577 -0.10058 10.044 255 226 155
-0.57765 -0.10085 10.05 3 2 96
1.0449 0.025374 9.8779 63 41 8
0.33151 -0.77857 10.685 215 176 110
0.27595 -0.75995 10.694 178 139 72
0.34715 -0.75899 10.678 180 138 72
0.32941 -0.74341 10.687 213 177 114
0.59914 -0.722 10.645 155 118 55
0.11383 -0.46133 10.282 243 197 126
0.11383 -0.46133 10.282 243 197 126
-0.18765 -0.40698 10.291 168 120 54
0.21983 -0.40507 10.247 247 208 139
0.62282 -0.37669 10.196 166 127 63
-0.20343 -0.37041 10.295 199 155 78
0.60008 -0.33192 10.211 147 108 56
1.0264 -0.18932 9.8328 227 188 131
-0.33116 -0.031232 9.8875 201 167 115
1.3116 0.026739 9.4245 163 137 100
1.4094 0.052801 9.3057 187 165 111
-0.16688 -0.0090914 9.8697 201 159 96
1.3735 0.071254 9.4143 134 114 84
0.55157 0.012997 9.7876 239 205 146
-0.71527 0.060588 9.8279 246 202 144
-0.71503 0.060361 9.8285 237 194 133
-0.083751 0.021778 9.8901 208 175 138
1.1578 0.056401 9.6683 137 106 52
1.1578 0.056401 9.6683 137 106 52
0.10603 0.044599 9.935 226 191 137
0.94197 0.081801 9.7285 203 176 134
0.96694 0.08321 9.7221 219 187 137
1.0658 0.073048 9.7529 181 142 88
-0.60534 0.11208 9.965 246 206 149
-0.60591 0.11243 9.9644 248 209 154
1.3578 0.12769 9.6793 85 54 17
1.3533 0.1421 9.7048 182 147 95
1.3722 0.15507 9.6816 100 68 27
1.3727 0.17063 9.7237 170 134 89
1.3598 0.1791 9.7361 129 94 44
1.2834 0.22544 9.6255 183 156 108
1.366 0.19876 9.7529 141 105 51
1.4004 0.21487 9.7601 160 126 83
-0.54636 0.228 10.072 176 131 76
1.1007 0.2242 9.8405 238 201 138
1.3568 0.22921 9.7807 148 108 58
1.3567 0.22924 9.7808 146 109 58
-0.86513 0.33042 9.8464 171 133 83
1.432 0.2743 9.7192 220 173 99
0.91434 0.26817 9.9485 161 122 71
1.0309 0.29536 9.9462 239 194 123
1.0898 0.29446 9.9369 227 185 121
0.14813 0.22079 10.56 247 195 124
1.5191 0.36575 9.8802 71 40 11
-0.49826 0.37983 10.195 163 120 73
-0.49826 0.37983 10.195 163 120 73
0.9409 0.35978 10.029 239 197 144
1.4593 0.2945 9.8295 158 123 84
1.2266 0.26666 9.8093 132 97 53
0.95399 0.39792 10.015 181 140 84
-0.39369 0.39799 10.282 185 140 81
-0.39315 0.39754 10.283 185 140 81
0.57334 0.39325 10.132 255 217 155
-0.091711 0.39845 10.246 175 131 69
-0.091711 0.39845 10.246 175 131 69
1.5428 0.40945 9.9046 73 43 13
-0.83857 0.50126 9.9877 217 177 126
-0.83842 0.50291 9.9823 217 177 126
1.4029 0.44043 9.9531 199 157 107
0.66579 0.44885 10.098 250 210 149
0.55667 0.45116 10.166 255 215 166
0.67874 0.4652 10.106 202 159 103
1.6101 0.48181 9.9455 50 30 3
0.52783 -0.76071 10.653 168 129 65
0.011335 -0.74558 10.73 172 129 66
1.2671 -0.53644 10.151 79 55 23
1.1947 -0.55744 10.245 103 74 34
1.2563 -0.4271 10.045 98 73 31
-0.44844 -0.4322 10.326 209 164 97
0.073401 -0.43139 10.269 202 160 85
1.2585 -0.41083 10.081 100 74 35
0.55582 -0.416 10.208 180 140 79
0.0045901 -0.4071 10.266 255 217 145
-0.26214 -0.37394 10.312 214 169 98
1.5753 -0.55732 10.866 44 27 6
0.66505 -0.059703 9.7156 220 181 112
-0.49794 -0.027512 9.8988 188 148 91
1.3315 0.03616 9.3978 84 59 18
0.33155 -0.025867 9.8032 231 197 128
1.3574 0.046743 9.3885 190 164 124
0.4588 -0.013825 9.7898 174 129 69
1.3833 0.067553 9.3746 78 59 23
0.22257 -0.0031771 9.856 167 132 66
0.45592 0.0069795 9.7947 255 223 154
-0.21859 0.011453 9.899 255 234 173
0.89091 0.022563 9.6939 240 205 140
-0.11624 0.016668 9.8983 212 178 121
0.39581 0.01963 9.8142 186 144 80
0.91943 0.034822 9.6842 160 126 68
0.87542 0.03641 9.7197 142 107 51
0.8752 0.035308 9.7227 142 107 51
1.1976 0.053126 9.6231 129 98 51
0.56242 0.036475 9.7941 148 111 58
-0.18654 0.032651 9.9616 226 196 146
-0.15904 0.032835 9.9631 222 194 144
0.50876 0.040432 9.8316 201 165 103
0.0076824 0.042263 9.9393 226 200 152
0.92076 0.074661 9.7 120 89 42
1.2263 0.15604 9.4928 78 55 19
-0.80502 0.17318 9.8189 179 134 83
1.1685 0.1179 9.8007 110 76 27
0.96756 0.13549 9.7767 115 78 27
0.94104 0.15926 9.8125 163 124 67
0.90487 0.19397 9.871 152 116 60
-0.6247 0.2343 9.9831 255 228 166
0.9087 0.23887 9.9001 187 147 88
0.94558 0.24238 9.8952 174 136 74
1.0157 0.24818 9.8743 183 141 85
1.0157 0.24818 9.8743 183 141 85
0.94807 0.28271 9.949 154 117 64
-0.44379 0.28516 10.271 224 177 115
-0.61373 0.34274 10.066 187 141 86
-0.37471 0.31669 10.255 255 246 173
-0.057779 0.31898 10.213 255 255 176
1.4971 0.33456 9.8561 63 34 5
-0.71452 0.38219 10.103 255 228 168
0.58582 0.33299 10.134 220 176 109
0.58578 0.33206 10.139 227 178 112
-0.17184 0.34374 10.231 241 193 122
-0.17184 0.34374 10.231 241 193 122
-0.45333 0.35342 10.263 192 143 91
-0.70136 0.39451 10.114 217 168 108
-0.44731 0.37718 10.268 255 220 149
0.67109 0.37277 10.08 208 169 108
1.1313 0.37393 9.9804 136 98 53
-0.60788 0.41789 10.132 180 139 92
-0.60745 0.41786 10.132 180 139 92
-0.41736 0.38133 10.283 255 232 169
-0.1697 0.39756 10.255 177 127 66
0.5571 0.40946 10.134 195 145 89
-0.098167 0.41738 10.265 255 239 163
1.4178 0.4263 9.9447 139 102 49
1.4431 0.43005 9.9524 181 141 93
1.4431 0.43005 9.9524 181 141 93
0.95986 0.43225 10.04 185 146 85
1.554 0.42992 9.9268 60 33 4
0.5931 0.43609 10.142 177 137 87
0.59314 0.43431 10.15 177 137 87
0.59314 0.43431 10.15 177 137 87
1.4262 0.44961 9.9704 116 79 31
1.4261 0.45084 9.968 116 79 31
1.2556 0.48479 9.9933 157 123 87
0.94086 0.49796 10.122 218 174 116
0.57435 0.49103 10.303 143 128 108
1.0833 0.51389 10.096 220 190 139
1.2595 0.53053 10.038 120 97 70
-0.52668 0.56436 10.349 167 121 64
-0.52693 0.56384 10.351 167 121 64
0.96591 0.56971 10.16 104 73 39
-0.6561 0.63563 10.321 234 190 137
1.1195 -0.55307 10.25 130 97 48
0.12493 -0.42969 10.263 198 153 80
0.16347 -0.43135 10.257 203 164 94
0.35139 -0.39988 10.231 255 224 157
0.35139 -0.39988 10.231 255 224 157
-0.79366 -0.041907 9.6387 255 226 159
-0.47788 -0.093903 9.8604 255 237 180
1.2966 -0.015168 9.382 88 61 15
1.2909 -0.00085755 9.4145 200 170 115
-0.48237 -0.048512 9.8882 255 229 152
0.26791 -0.050114 9.8071 255 232 158
0.35544 -0.044875 9.8007 255 255 196
-0.25749 -0.036575 9.8679 255 246 177
-0.45793 -0.024387 9.8951 215 172 104
0.32645 -0.0017454 9.8122 255 255 201
1.2284 0.033434 9.5449 64 40 9
-0.023536 0.0050111 9.8579 148 110 68
1.4449 0.085488 9.3156 173 146 87
-0.16697 0.0075608 9.8915 253 213 150
-0.91909 0.10122 9.6715 154 110 51
1.1264 0.054876 9.6842 210 177 113
0.54146 0.32212 8.6806 16 6 0
0.92163 0.10695 9.8033 204 171 117
1.1912 0.14797 9.7637 206 173 121
1.1691 0.15191 9.8002 88 54 9
1.1691 0.15186 9.8008 84 53 9
1.1466 0.17351 9.8072 246 211 145
1.2192 0.18177 9.7663 119 85 44
0.92468 0.17506 9.863 242 203 139
0.9425 0.20488 9.867 168 134 78
1.4063 0.22854 9.7811 163 127 82
1.0378 0.26936 9.8944 238 201 136
-0.87208 0.34771 9.8517 255 232 173
1.6015 0.33932 9.5253 131 104 56
1.1799 0.31596 9.9262 107 71 28
1.18 0.3173 9.921 107 71 28
-0.43752 0.31698 10.25 255 231 157
-0.38444 0.34059 10.253 224 170 106
0.78587 0.34288 10.039 203 155 98
-0.31823 0.34298 10.245 233 182 115
-0.31902 0.34324 10.244 233 182 115
-0.29107 0.34314 10.242 234 183 116
-0.2196 0.64908 8.6636 234 183 116
-0.12996 0.34137 10.223 242 192 124
0.049844 0.32927 10.235 225 178 114
0.15159 0.34874 10.184 247 195 124
-0.61888 0.39738 10.121 255 217 158
0.43418 0.36465 10.146 228 178 108
1.2777 0.38885 9.9032 105 75 37
1.6684 0.43075 9.6044 69 49 20
0.23018 0.38188 10.185 255 251 171
-0.455 0.39784 10.286 123 82 47
0.53099 0.39495 10.14 255 235 169
0.67296 0.4077 10.072 208 165 107
0.93746 0.41065 10.036 244 201 142
1.1803 0.41141 9.9888 119 82 32
1.2386 0.42099 9.9491 137 101 54
0.92809 0.44845 10.072 117 80 39
1.4905 0.45733 9.9442 133 97 48
1.4904 0.45676 9.9447 132 94 47
1.0523 0.4854 10.052 236 193 125
1.4227 0.50556 10.006 106 73 26
-0.57602 0.5453 10.345 175 131 84
-0.84224 0.66894 10.124 159 118 72
-0.84117 0.66964 10.121 159 118 72
0.83193 -0.54968 10.288 125 97 47
1.2962 -0.13787 9.4006 64 43 11
1.2962 -0.13787 9.4006 64 43 11
1.2604 -0.042117 9.3948 238 206 143
-0.44376 -0.091832 9.8843 141 98 46
-0.44355 -0.091285 9.8827 141 98 46
1.3551 -0.0083642 9.3061 162 136 78
1.3296 -0.0055891 9.3538 234 208 147
-0.43247 -0.0495 9.8818 255 246 162
-0.43218 -0.049409 9.8814 255 246 162
1.3702 0.025672 9.3331 138 114 62
1.1641 0.020431 9.592 203 170 111
1.3301 0.050795 9.5362 71 48 19
-0.88497 0.11998 9.6806 255 243 176
1.3969 0.14939 9.6065 43 27 1
0.70849 0.17933 9.8439 20 10 0
1.1952 0.18825 9.7977 214 179 123
1.2057 0.25417 9.8562 214 176 119
0.9773 0.29885 9.9139 234 194 133
1.2036 0.30076 9.897 215 176 121
0.95798 0.31007 9.982 156 118 71
1.2776 0.34799 9.8587 79 50 18
1.274 0.35566 9.8373 79 50 18
-0.37569 0.37293 10.26 255 230 152
-0.094435 0.37421 10.229 255 245 174
1.2075 0.3983 9.965 220 179 122
1.5296 0.51126 10.009 185 158 113
1.6386 0.51971 9.9678 7 1 0
0.95542 0.59001 10.203 224 188 147
0.91232 -0.032746 9.6809 255 217 141
1.4077 0.079618 9.3234 229 207 151
1.2322 0.042519 9.5325 90 70 34
1.3546 0.08848 9.5799 55 33 12
1.2596 0.24363 9.6824 89 64 28
-0.87978 0.31773 9.8254 160 120 71
-0.8768 0.32159 9.8185 181 139 86
1.5637 0.32751 9.6591 27 14 0
0.69643 0.33935 10.029 120 87 53
-0.56495 0.36055 10.185 195 149 98
1.1771 0.37401 9.9698 93 60 20
1.7221 0.40869 9.7022 168 151 129
1.3923 0.39889 9.9115 206 165 108
1.3059 0.432 9.7924 191 159 108
1.6193 0.43338 9.7036 27 14 3
1.6684 0.45397 9.6508 134 119 84
-0.61207 0.45349 10.167 255 234 176
1.5255 0.46559 9.9505 183 146 93
0.64762 0.48329 10.122 210 173 120
-0.5673 0.52623 10.302 192 146 93
1.5947 0.50724 9.9993 172 145 103
1.0441 0.52179 10.079 37 19 3
1.5276 0.52424 10.093 10 2 0
0.71627 0.54132 10.151 233 202 160
-0.78994 -1.0873 10.722 182 160 105
-0.57033 -1.1096 10.875 15 6 3
0.66263 -0.85143 10.682 190 156 88
-0.74356 0.081046 9.8233 193 155 108
1.4047 0.11252 9.4225 31 20 3
-0.47146 0.2389 10.234 195 158 106
0.63388 0.29933 10.144 252 208 144
1.0541 0.32608 9.934 219 177 113
1.1298 0.33533 9.9088 202 162 104
1.1298 0.33533 9.9088 202 162 104
1.4688 0.35308 9.8846 172 136 83
-0.49759 0.42678 10.28 250 209 153
-0.44195 -1.0365 10.924 17 6 2
-0.44089 -1.0286 10.902 17 6 2
-0.31815 -0.92071 10.845 14 7 0
0.92402 -0.88794 10.614 10 4 1
1.0668 -0.80687 10.473 151 133 95
1.349 -0.15788 9.3279 211 181 116
-0.78844 0.037172 9.6797 255 223 159
1.7815 0.21366 9.8123 146 120 80
0.63028 0.3074 10.143 255 212 143
-0.59086 1.1647 7.2775 255 244 170
-0.68109 0.66865 10.344 23 15 8
1.2049 -0.66724 10.366 138 110 63
1.3177 0.15542 9.6778 201 163 103
1.4541 -0.66862 10.035 169 150 101
1.4007 0.14515 9.5056 173 148 112
1.1362 0.47989 10.018 238 193 122
1.6574 0.28178 9.5674 182 153 104
1.4338 0.47869 9.9902 175 142 88
1.1957 0.60497 10.227 1 0 0
0.79429 0.43154 10.135 226 178 116
-0.22106 -1.1417 10.905 6 1 0
-0.70614 0.38825 10.164 225 175 114
1.0421 -0.04299 10.197 202 164 103
-0.71896 0.032634 9.8054 236 197 141
-0.69835 0.044049 9.8159 199 155 94
0.49602 0.0077551 9.7928 233 199 131
-0.50733 0.027558 9.9522 223 191 143
-0.16849 0.022176 9.9342 91 59 8
-0.16789 0.020656 9.9363 91 59 8
0.16361 0.031791 9.8687 227 198 142
0.8848 0.055293 9.7418 113 82 36
0.20134 0.036469 9.8978 80 52 16
0.067116 0.028842 9.9967 85 70 48
1.3497 0.1002 9.6281 126 102 72
0.3422 0.053484 9.9047 207 179 138
1.0165 0.074457 9.7553 190 155 95
1.336 0.10067 9.6483 84 53 11
-0.76413 0.17023 9.8174 165 129 75
1.2873 0.17667 9.561 127 98 49
1.3807 0.17557 9.6846 76 44 12
-0.67961 0.22538 9.9795 255 207 138
-0.54636 0.2279 10.072 175 131 70
1.1804 0.26732 9.8644 168 131 75
0.93272 0.2673 9.9367 232 196 140
1.4718 0.3225 9.8486 156 122 87
-0.63805 0.38172 10.103 215 169 105
0.96212 0.37313 9.9887 141 101 52
-0.70672 0.42215 10.14 196 148 100
1.2747 0.41873 9.9263 99 70 32
0.67848 0.43292 10.084 212 172 112
0.51932 0.42088 10.155 176 134 75
0.95003 0.44338 10.06 215 180 127
-0.77843 0.54152 10.12 211 166 110
0.67856 0.4653 10.106 192 152 92
0.94009 0.46963 10.085 208 173 127
-0.55106 0.51868 10.32 188 138 84
1.2268 0.51897 10.073 113 95 75
-0.73407 -1.0669 10.699 161 145 110
0.031041 -0.43615 10.277 204 163 95
1.391 0.021673 9.3159 215 193 134
1.1927 -0.050866 9.5975 142 114 66
1.2051 -0.013581 9.517 183 158 115
0.22108 -0.052367 9.8163 176 130 66
0.81272 -0.020732 9.6951 207 169 102
1.3306 0.050072 9.4411 167 142 103
-0.87268 0.089931 9.6812 185 145 86
-0.62864 0.04404 9.8173 188 148 94
-0.62864 0.04404 9.8173 188 148 94
0.20149 -0.0028757 9.8391 255 216 155
0.93892 0.021696 9.6727 235 204 142
0.45507 0.0065187 9.7962 254 216 152
0.89159 0.022888 9.693 237 202 139
0.31149 0.014253 9.823 185 146 80
0.54675 0.046302 9.8265 212 180 121
-0.49316 0.042419 10.041 195 169 134
-0.80529 0.17322 9.8187 170 125 71
-0.4416 0.029478 10.338 133 110 82
1.2231 0.20089 9.7837 128 96 46
0.96904 1.1811 7.1594 105 90 66
-0.85059 0.31752 9.836 255 214 160
0.99393 0.29971 9.9274 232 190 129
1.4986 0.33243 9.7991 136 112 81
-0.19786 0.28998 10.24 246 201 127
1.3803 0.35926 9.8877 141 105 58
1.3803 0.35926 9.8877 141 105 58
1.4195 0.36823 9.9018 143 105 56
0.41249 0.341 10.158 255 251 175
0.67108 0.37352 10.078 209 167 106
0.92271 0.37789 10.021 148 108 60
1.2152 0.53026 9.5658 183 149 107
0.88865 0.4156 10.076 222 178 127
0.90645 0.44204 10.101 227 181 128
1.5846 0.4748 9.8957 129 109 82
0.53861 0.47488 10.213 217 179 132
1.6283 0.49146 9.9662 145 120 95
0.58694 0.47864 10.198 175 141 105
1.4071 0.51591 10.029 212 172 121
1.3042 0.54567 10.041 204 179 138
0.95888 0.54235 10.128 142 103 48
-0.64723 -0.084397 9.7204 255 234 165
0.52662 -0.058474 9.7841 204 161 105
-0.28845 -0.025327 9.887 118 80 33
-0.28845 -0.025327 9.887 118 80 33
0.26567 -0.0048356 9.8166 255 245 178
-0.88328 0.11468 9.6862 255 240 176
0.14765 0.014359 9.8428 115 75 38
1.316 0.073494 9.5678 173 144 99
-0.24462 0.031934 9.9678 223 192 146
-0.063659 0.040075 9.9465 214 181 131
1.1808 0.07579 9.6829 188 159 105
0.99415 0.10541 9.765 187 148 96
1.7798 0.15629 9.7497 138 113 79
1.2249 0.24041 9.7948 121 88 45
1.8075 0.19755 9.8287 112 90 63
1.2318 0.30471 9.8538 127 90 47
-0.61447 0.3378 10.079 182 140 86
1.2522 0.32989 9.8685 174 141 100
0.56832 0.3029 10.157 255 226 155
1.07 0.34207 9.9766 209 167 112
1.1776 0.35048 9.9426 114 81 34
1.2573 0.3722 9.8961 169 135 95
1.2343 0.35989 9.9531 149 111 61
0.28257 0.36574 10.163 252 200 129
1.4523 0.41072 9.9336 136 100 53
0.20939 0.39931 10.2 194 149 91
0.16134 0.43625 10.177 160 113 49
1.4204 0.48183 9.9811 123 90 40
-0.44208 0.46566 10.389 64 46 31
0.82142 0.51669 10.172 255 221 162
0.82142 0.51669 10.172 255 221 162
-0.39903 -0.10293 9.884 255 253 177
1.2252 -0.00561 9.4714 93 72 34
1.2252 -0.00561 9.4714 93 72 34
0.097056 -0.014669 9.8314 255 246 176
1.2381 0.10964 9.5733 76 55 17
1.1444 0.073218 9.7158 62 39 9
1.4332 0.17544 9.5596 163 137 100
1.2817 0.19431 9.5911 203 171 116
1.801 0.17758 9.8002 137 107 73
1.1445 0.3095 9.9199 205 168 111
1.1453 0.30588 9.9278 205 168 111
0.79463 0.40399 10.101 206 161 101
1.5223 0.42095 9.9205 165 129 87
1.5813 0.46472 9.8063 45 28 7
1.3088 0.54094 9.9499 30 20 6
1.6734 -0.36668 10.114 124 102 74
1.0031 0.10056 9.7498 178 142 87
1.7485 0.12324 9.721 165 136 91
-0.64571 0.18187 9.9333 246 207 141
-0.62634 0.29815 10.042 252 210 148
-0.87924 0.64336 10.102 244 198 140
1.4651 0.55506 10.057 187 158 119
-0.63295 -1.0897 10.787 167 152 110
-0.78741 0.029386 9.6765 255 221 155
1.2624 0.045981 9.4331 198 173 119
-0.51794 0.064308 9.9225 224 190 136
-0.47754 0.192 10.176 170 140 98
1.3182 0.51317 9.8842 199 166 115
1.0794 0.55598 10.197 8 2 0
0.99443 0.55879 10.087 229 194 140
-0.78899 0.74777 10.232 22 12 7
1.127 -0.73464 10.403 20 10 5
1.288 0.11379 9.5369 183 151 96
0.71286 0.13789 9.8253 243 208 140
-0.5178 0.32259 10.135 245 205 139
1.6856 0.48244 9.7432 0 0 0
1.3763 0.55127 10.022 192 153 98
-0.55279 0.61905 10.383 26 18 10
-0.81431 0.66842 10.528 18 8 4
0.8335 -0.91106 10.637 174 154 103
0.72948 0.51438 10.176 246 207 145
1.067 0.21587 9.8087 194 160 105
-0.29476 0.53614 10.407 10 1 0
0.55299 0.15374 10.027 9 0 0
-0.17963 0.12796 10.107 11 2 3
0.89662 0.049444 9.7232 177 149 106
1.3733 0.11904 9.6193 48 27 2
0.3424 0.053468 9.9047 206 177 130
0.9459 0.19321 9.844 174 139 76
-0.57222 0.22618 10.076 164 124 74
1.2993 0.31273 9.7041 194 165 115
0.93213 0.26821 9.935 214 179 127
1.3033 0.37851 9.7793 134 105 59
0.95835 0.33433 9.9565 97 61 12
1.4034 0.3516 9.9038 193 156 105
-0.49257 0.36045 10.194 239 193 139
-0.55796 0.41264 10.233 237 191 142
1.4962 0.41961 9.9334 126 87 45
1.4028 0.43958 9.9548 207 169 116
1.4062 0.46329 9.9699 173 139 93
1.4059 0.46334 9.9696 176 140 95
-0.12511 0.44287 10.408 85 72 53
-0.42683 0.45205 10.446 105 87 72
0.58253 0.47922 10.266 27 14 1
0.14358 -0.040362 9.8177 239 196 120
0.38513 -0.0354 9.8109 234 191 121
1.1932 0.017223 9.6039 135 104 54
0.21613 -0.0081929 9.8189 161 121 57
0.99761 0.017702 9.6742 211 177 115
0.58701 0.0072208 9.7717 224 190 131
0.22965 0.038541 9.8994 55 30 0
1.2085 0.090335 9.6876 116 86 40
1.2736 0.20898 9.621 116 93 52
-0.85102 0.3172 9.8367 247 207 146
1.2912 0.24899 9.6429 189 160 105
0.92909 0.22748 9.8788 231 196 133
-0.83667 0.44593 9.947 226 185 133
-0.83667 0.44593 9.947 226 185 133
-0.4965 0.3771 10.201 140 97 52
1.4766 0.40474 9.9234 177 142 90
-0.41723 0.38185 10.282 255 226 165
0.52226 0.42142 10.154 155 113 60
1.1848 0.45164 10.035 170 129 72
1.1848 0.45164 10.035 170 129 72
1.0128 0.48396 10.064 225 184 120
0.94753 0.48015 10.103 98 64 21
0.52667 0.4779 10.266 27 13 0
0.97998 0.55953 10.124 206 174 125
0.94353 0.54442 10.17 212 173 117
-0.79829 1.2891 10.555 51 43 39
-0.79756 1.2911 10.551 51 43 39
1.3089 0.03481 9.4701 76 53 13
0.64177 -0.0062985 9.7242 255 247 182
-0.16731 0.0087921 9.8883 245 210 147
-0.67517 0.12225 9.8746 192 148 82
-0.54349 0.086993 9.9458 193 151 88
-0.86949 0.28645 9.8153 254 223 164
1.2785 0.38796 9.9031 103 73 37
-0.66296 0.4255 10.146 197 150 90
1.4521 0.40912 9.9356 127 94 47
1.1801 0.4112 9.9891 119 84 34
0.93799 0.41039 10.036 237 194 133
0.23097 0.42283 10.216 255 225 156
-0.44763 0.43236 10.332 69 37 7
0.48121 0.44093 10.178 255 231 164
-0.79523 -0.023783 9.6609 162 121 67
-0.79523 -0.023783 9.6609 162 121 67
0.14306 -0.012941 9.8255 255 250 177
-0.77593 0.19532 9.8326 254 219 160
1.1835 0.11897 9.7178 184 152 99
-0.71473 0.47164 10.177 204 161 111
1.1528 0.43917 10.017 232 191 125
1.1512 0.48274 10.049 239 195 129
-0.64838 0.56666 10.26 210 159 94
0.95174 0.097944 9.7611 38 17 2
1.2527 0.20219 9.6356 92 68 37
1.2753 0.48192 9.9237 89 62 30
1.2753 0.48192 9.9237 89 62 30
-0.7381 0.63748 10.2 253 219 167
0.96212 0.048427 9.707 220 186 124
1.0551 0.32138 9.942 229 187 119
1.7941 0.2916 9.8769 0 0 0
-0.56469 0.36082 10.185 182 136 85
1.1241 0.52492 10.107 239 198 137
1.5381 0.51559 10.093 6 1 0
1.0013 0.17229 9.8373 231 194 125
-0.68907 0.45685 10.114 221 171 115
0.55397 0.24276 10.141 15 6 4
0.87115 0.51172 10.229 232 190 127
-0.68361 -0.04489 10.274 229 188 125
1.4728 0.11483 9.3467 140 114 59
0.5434 0.022173 9.8 108 80 30
-0.15502 0.014492 9.9162 170 141 97
0.20244 0.026298 9.8584 250 214 153
-0.64476 0.20867 9.9553 166 127 71
1.3843 0.19209 9.7398 160 127 86
1.1153 0.24027 9.8552 225 187 130
-0.79702 0.38861 10.004 255 219 150
0.89581 0.25279 9.9466 228 192 134
1.507 0.37564 9.8953 158 125 85
-0.4184 0.36115 10.274 143 97 33
-0.12676 0.38233 10.235 189 146 90
0.5625 0.47696 10.239 140 118 89
0.68362 0.51847 10.162 122 95 55
0.50884 0.48253 10.292 191 169 133
0.50891 0.48198 10.293 191 169 133
0.82222 0.55187 10.305 110 91 70
1.4111 0.053454 9.307 171 151 92
-0.48497 -0.043885 9.8829 254 226 158
0.99871 0.017448 9.6746 207 177 116
1.2205 0.08029 9.6273 153 126 86
1.1617 0.059676 9.6675 104 76 32
1.1626 0.05782 9.6696 104 76 32
0.92297 0.06144 9.7264 89 58 16
-0.87558 0.30654 9.8311 135 97 47
0.94046 0.14358 9.8219 139 103 47
1.2461 0.25542 9.7998 170 142 104
1.2283 0.27668 9.833 143 108 57
0.91794 0.26921 9.9503 127 93 47
1.5779 0.39057 9.704 58 34 8
1.231 0.30613 9.8902 140 105 54
1.3986 0.34979 9.8808 189 153 106
-0.68797 0.40693 10.128 255 209 141
-0.84522 0.51564 10.001 255 224 175
1.2535 0.38385 9.9128 172 138 98
-0.49619 0.37515 10.203 142 100 52
0.94488 0.37637 10.006 222 186 132
1.2545 0.40598 9.9284 191 157 115
0.95334 0.3962 10.018 176 136 78
-0.41825 0.38048 10.284 253 211 158
1.4174 0.42709 9.9443 126 90 41
0.82061 0.40449 10.083 241 197 132
0.82061 0.40449 10.083 241 197 132
1.4269 0.4494 9.9711 97 64 17
0.58563 0.46987 10.21 173 140 101
1.4272 0.534 10.018 119 86 40
-0.42484 0.44226 10.46 109 90 71
1.1769 0.50467 10.126 61 38 22
-0.83465 -0.013205 9.6692 207 165 100
1.1762 0.055293 9.6428 188 157 103
0.50718 0.024147 9.8065 150 109 55
0.082017 0.030234 9.8743 206 172 113
-0.76587 0.17489 9.8133 165 130 74
0.14619 0.036891 9.9035 66 32 0
0.14497 0.033186 9.9077 66 32 0
1.1003 0.076271 9.7493 181 144 90
1.2492 0.28965 9.832 160 133 93
-0.63238 0.364 10.087 251 209 142
-0.29055 0.34288 10.242 226 176 106
0.0096175 0.34444 10.21 235 185 115
0.43464 0.36433 10.147 239 191 123
1.4436 0.42994 9.9535 179 141 94
-0.16989 0.40009 10.252 186 141 81
-0.5467 0.47094 10.276 197 149 94
-0.83425 0.64171 10.113 254 215 157
0.5383 0.47927 10.207 216 174 122
0.82089 0.51784 10.17 255 229 167
1.3541 -0.012385 9.3124 151 129 69
1.3017 -0.021901 9.3916 76 53 14
1.3848 0.073298 9.368 78 63 29
-0.4713 0.0099782 9.962 68 43 16
0.047726 0.027073 9.8811 205 176 118
-0.64054 0.11331 9.8709 248 209 145
-0.62289 0.20376 9.9673 184 147 92
1.5135 0.31264 9.6548 157 135 96
1.6025 0.3825 9.5813 144 120 79
1.5431 0.3457 9.7069 164 138 100
0.98374 0.3556 9.9637 235 197 137
-0.90253 0.69122 10.159 65 36 10
1.2628 -0.058824 9.418 203 177 118
1.3286 0.00010657 9.3472 232 207 147
-0.79125 0.0071514 9.6925 254 221 154
1.2745 0.06974 9.4696 171 141 89
-0.78454 0.093018 9.7612 253 217 156
-0.78155 0.14194 9.7916 246 208 144
-0.78015 0.14665 9.786 246 208 144
1.0088 0.088605 9.7633 174 138 81
-0.64583 0.18605 9.9284 249 208 136
1.0367 0.13607 9.8083 169 128 73
1.0933 0.14044 9.7958 161 122 65
-0.47113 0.081526 10.126 236 204 162
-0.91133 0.43832 9.9456 255 227 161
0.7393 0.55474 10.204 18 8 0
1.2338 0.032538 9.5512 70 48 17
1.2914 0.19483 9.5948 206 178 119
1.3033 0.12731 9.6797 206 178 119
-0.51979 0.259 10.11 247 208 141
0.97922 0.27187 9.9075 241 204 141
0.80537 0.27575 9.9672 255 219 154
0.74012 0.32566 10.034 255 234 168
-0.61237 0.54318 10.225 255 218 156
-0.85832 0.70412 10.148 244 206 144
0.81093 0.27632 9.9574 237 199 130
1.3043 0.52628 9.9724 21 11 4
1.3043 0.52628 9.9724 21 11 4
1.2546 -0.1162 9.372 6 1 0
1.7256 0.35599 9.894 0 0 0
-0.86823 0.57879 10.057 255 238 168
1.4064 0.17034 9.5079 142 122 91
-0.89146 0.19342 9.755 255 223 155
0.70703 -0.053183 9.794 237 203 134
-0.65976 0.13119 10.118 244 203 138
1.0167 0.17564 9.991 235 203 145
-0.18473 0.010638 9.9081 98 67 20
-0.18496 0.013263 9.906 98 67 20
1.2881 0.17122 9.57 119 90 43
-0.11569 0.0316 9.9508 169 144 105
1.1275 0.072349 9.742 160 129 85
1.2836 0.22562 9.6255 168 146 96
0.98185 0.14672 9.7864 212 176 119
-0.53719 0.21689 10.06 236 193 133
1.2989 0.31551 9.7018 188 161 110
-0.63822 0.38123 10.104 200 159 95
-0.71344 0.40984 10.128 241 200 140
-0.85039 0.54926 10.036 214 179 127
-0.22368 0.34711 10.236 215 168 102
1.0249 0.41222 10.006 166 127 63
1.4831 0.454 9.9472 112 78 35
0.88238 0.42892 10.092 110 71 27
1.2403 0.49977 10.031 119 83 44
0.59986 0.48205 10.241 81 68 50
0.56593 0.48364 10.287 161 136 97
-0.57173 0.57827 10.369 113 77 34
-0.71811 0.033181 9.8045 230 193 134
0.81391 -0.023291 9.6974 195 159 93
0.14448 -0.037721 9.8157 225 185 110
0.14448 -0.037721 9.8157 225 185 110
1.1415 0.010538 9.6352 114 85 33
1.3215 0.073413 9.5733 163 137 94
1.3215 0.073413 9.5733 163 137 94
0.89212 0.019685 9.6951 231 196 134
0.89212 0.019685 9.6951 231 196 134
0.20208 -0.0044666 9.8412 253 214 154
1.1992 0.066945 9.6607 83 53 15
1.3896 0.14674 9.6336 42 20 1
0.90924 0.071939 9.7795 168 135 96
0.34415 0.048501 9.91 203 173 118
0.34417 0.048566 9.9101 201 173 114
0.48692 0.05423 9.8847 198 164 110
1.144 0.14033 9.7966 190 156 107
1.3164 0.39711 9.7932 141 108 58
1.0846 0.34059 9.9696 200 160 107
-0.48995 0.36964 10.179 240 201 144
-0.44711 0.37971 10.263 238 194 142
0.82013 0.40649 10.081 242 203 137
1.4276 0.55409 10.032 111 81 36
1.4276 0.55409 10.032 111 81 36
1.3891 0.023553 9.3061 216 198 139
-0.44526 -0.095579 9.8894 138 91 29
1.1761 0.055643 9.6426 187 156 103
-0.062044 0.037524 9.9496 212 178 123
-0.54536 0.10326 9.9643 233 195 124
0.23129 0.046573 9.9213 175 150 109
0.23129 0.046573 9.9213 175 150 109
1.1633 0.28421 9.9046 50 28 2
0.94964 0.28142 9.9557 114 82 37
1.1828 0.31739 9.9187 92 59 20
1.1824 0.31738 9.9188 92 59 20
0.92285 0.37852 10.023 150 115 72
0.3164 0.36217 10.163 238 185 121
1.3961 0.49083 9.9927 205 168 117
1.084 0.51145 10.099 235 203 148
-0.53046 0.56409 10.352 153 104 54
1.4523 0.2645 9.744 115 100 82
1.2051 -0.033569 9.5379 180 157 113
0.94889 -0.093102 9.6675 255 242 174
0.27689 -0.081872 9.8182 254 238 160
-0.087465 0.00059264 9.8665 123 90 51
1.1448 0.025617 9.6668 105 74 29
-0.47099 0.0009193 9.9221 250 215 150
1.5451 0.33309 9.7175 151 128 87
1.0255 0.28337 9.922 53 25 0
1.1763 0.38558 9.9549 110 76 37
-0.094388 0.37583 10.227 255 241 171
-0.74047 0.54473 10.157 252 215 163
0.3533 0.44616 10.364 107 89 61
1.2599 -0.082406 9.3779 19 10 0
-0.38598 -0.14265 9.8709 25 6 0
0.99024 -0.059229 9.5975 13 1 0
-0.34025 -0.12246 9.8817 255 243 165
0.76236 -0.054015 9.6619 28 9 2
-0.46098 0.025 10.041 68 38 11
0.37386 -0.75389 10.923 5 0 0
0.98095 0.22687 9.8605 223 188 124
1.0463 0.4986 10.087 45 22 0
-0.88648 0.71906 10.208 47 26 13
1.036 0.50694 10.3 11 4 1
-0.65737 -0.10851 9.5701 37 29 22
1.3127 -0.059004 9.3596 199 174 105
-0.54491 -0.14588 9.8083 252 221 154
-0.078729 -0.12728 9.8382 16 3 0
1.1096 -0.021389 9.6153 219 186 117
1.2934 0.084736 9.565 182 154 98
0.96845 0.048267 9.7059 218 187 128
0.95123 0.096029 9.7625 41 18 3
-0.50053 0.40637 10.254 255 221 161
1.3978 -0.035214 9.3068 233 202 139
1.1239 -0.076259 9.5802 10 2 3
0.20867 -0.096179 9.7897 9 3 0
-0.69649 0.43498 10.138 198 154 103
0.999 0.49143 10.032 231 190 125
1.3015 0.527 9.9721 22 12 3
-0.93897 -0.18046 9.4869 255 255 183
0.91789 0.48848 10.431 5 0 0
1.3728 -0.040852 9.3405 153 132 75
1.1093 -0.076644 9.5201 7 1 0
1.038 0.20902 9.8296 134 100 51
1.532 0.21737 9.7864 87 67 31
1.4782 0.411 10.064 203 167 111
-0.6604 0.1171 10.131 250 213 149
1.0167 0.17894 9.9898 223 191 138
0.8567 0.019916 9.7173 208 174 117
0.89699 0.047841 9.724 184 157 117
0.9666 0.079603 9.7247 181 156 123
-0.21229 0.027373 9.9811 67 38 2
-0.70832 0.21563 9.9845 238 196 130
-0.25908 -0.29014 10.405 91 58 12
-0.59401 0.21721 10.064 223 186 133
-0.57065 0.21651 10.063 220 179 124
1.592 0.45931 9.8842 62 39 13
1.4767 0.44179 9.9378 174 141 102
-0.81807 0.62815 10.151 191 148 92
0.50359 0.47401 10.244 122 99 74
0.87632 0.04457 9.713 136 108 54
-0.58521 0.057335 9.9149 189 147 88
0.92455 0.1783 9.8567 227 195 144
0.90418 0.19061 9.8738 129 95 47
0.17767 -0.093585 10.374 106 87 50
1.528 0.37706 9.8399 121 99 75
1.2305 0.37346 9.94 137 101 52
-0.49725 0.37996 10.198 142 104 59
-0.31722 0.34273 10.245 225 179 110
1.5656 0.44328 9.8831 121 101 77
1.5656 0.44328 9.8831 121 101 77
0.95244 0.39429 10.019 172 134 79
0.95244 0.39429 10.019 172 134 79
-0.17062 0.34312 10.232 224 178 111
1.4001 0.51171 10.008 108 73 36
0.53772 0.46895 10.216 209 171 122
-0.65809 0.63754 10.32 233 192 140
-0.63401 -0.18993 9.7293 169 154 122
0.69744 -0.079682 9.6688 35 9 0
1.4375 0.21158 9.6043 50 34 5
0.0092204 0.04071 9.9392 217 192 149
1.4553 0.24053 9.6297 37 24 1
1.5219 0.33147 9.682 28 9 1
1.0911 0.36888 9.9791 121 82 42
0.92298 0.38083 10.021 156 118 74
1.1099 0.39836 9.987 242 204 140
0.52666 0.42061 10.154 139 99 51
0.85269 0.43333 10.109 242 198 133
0.1324 0.19639 10.441 134 115 87
-0.70684 0.57202 10.269 197 154 101
1.406 0.51566 10.033 190 157 109
-0.81307 0.52516 10.48 127 102 74
0.94531 -0.077918 9.6537 230 195 123
1.2319 0.035969 9.5483 63 43 9
0.35764 -0.067654 9.8068 255 249 178
0.14543 0.012574 9.8444 109 77 35
-0.8676 0.29413 9.8023 255 229 169
1.5123 0.31479 9.6536 160 142 108
1.3107 0.3701 9.756 201 171 115
1.2724 0.36544 9.8212 76 50 13
1.1111 0.28549 9.914 43 18 0
-0.4543 0.39625 10.288 99 61 28
-0.88878 0.078087 9.64 242 211 150
0.54223 -0.053964 9.7808 244 209 141
-0.1829 0.017103 9.9259 103 70 35
-0.46229 0.015687 10.048 64 36 6
-0.74574 0.50123 10.107 252 218 163
-0.73996 0.63015 10.206 254 221 171
-0.66132 0.58352 9.1779 252 226 161
-0.93676 0.10325 9.6184 253 221 155
-0.54466 -0.11516 9.7822 247 221 158
1.2903 0.19804 9.593 189 165 115
0.061605 0.032097 9.9356 29 12 0
0.90301 0.13589 9.7763 187 151 94
0.70395 0.13922 9.8274 222 193 130
-0.5658 0.36063 10.187 186 141 94
1.4345 0.41059 9.9353 150 116 73
-0.85919 0.69677 10.157 245 207 147
1.4569 0.48673 9.9841 204 169 117
-0.57039 0.52906 10.306 188 147 104
-0.60216 0.62198 10.296 247 213 157
-0.80612 -0.1642 9.5728 242 213 145
0.34799 -0.095836 9.784 16 4 0
1.2736 0.35217 9.8132 83 57 22
1.2736 0.35217 9.8132 83 57 22
1.2186 0.44973 10.004 213 176 121
0.72137 0.53358 10.148 246 210 152
1.1563 -0.0032056 9.6074 210 177 117
-0.9021 0.35956 9.8834 240 203 137
1.3213 0.23184 9.6878 183 151 94
0.98874 0.18961 9.8232 226 190 125
1.3008 0.52725 9.972 22 13 2
1.4668 0.29956 9.7161 35 19 4
0.87025 0.52089 10.206 239 199 137
-0.85024 -0.011057 9.5733 229 200 142
0.62789 0.53264 10.348 0 0 0
-0.83974 -0.13526 9.8025 247 211 141
1.2758 0.095357 9.4976 143 114 61
-0.78964 0.3813 9.9899 160 117 56
1.4007 0.36591 9.8935 191 160 113
1.2565 0.48335 9.9949 140 108 87
1.2404 0.50605 10.027 116 82 43
0.61569 0.48715 10.218 28 16 1
-0.64487 0.64181 10.335 119 96 65
0.2068 0.45005 10.357 121 104 83
0.57736 0.48538 10.325 133 118 95
1.1931 -0.003655 9.5917 130 100 53
1.0745 0.019197 9.6593 205 179 122
-0.30213 -0.32001 10.357 244 202 139
0.1553 -0.31163 10.299 204 167 116
0.90939 0.23364 9.9024 152 116 68
1.4707 0.32383 9.847 165 134 98
1.5799 0.47404 9.8963 136 116 87
0.88215 0.43063 10.091 113 74 30
0.91082 0.45093 10.094 225 186 133
1.2435 0.52564 10.047 107 80 53
1.3022 0.54703 10.038 213 189 145
1.1748 -0.020716 9.5786 173 147 96
1.1501 0.031163 9.665 96 67 27
1.3614 0.12008 9.6856 68 41 11
-0.18903 0.027467 9.9597 218 185 122
1.2394 0.20268 9.7544 169 143 103
1.1507 0.39675 9.9858 225 192 139
-0.67582 0.1177 9.8788 193 151 87
-0.021621 0.00063317 9.8605 118 85 46
-0.88046 0.30891 9.8325 129 92 43
0.11723 0.025346 9.876 182 153 94
0.18301 -0.28983 10.337 228 184 119
0.23411 -0.28902 10.328 219 179 115
1.0264 0.28179 9.9227 50 21 0
1.5573 0.43504 9.923 41 21 1
1.4171 0.50961 10.004 92 61 26
0.18416 0.45041 10.276 205 167 121
0.18504 0.45272 10.274 205 167 121
0.79639 0.5562 10.206 252 216 157
1.2617 -0.019025 9.392 205 175 118
-0.70695 -0.17085 9.628 38 29 23
-0.67171 -0.14291 9.6741 242 212 145
1.0051 -0.026998 9.6318 226 195 126
1.4643 0.26068 9.682 34 20 7
1.4643 0.26068 9.682 34 20 7
1.3689 0.49641 9.9884 216 178 126
0.76958 -0.060139 9.6536 9 4 0
1.5759 0.2965 9.4863 188 158 96
0.88424 -0.022991 9.6784 125 93 39
0.96735 0.07729 9.7253 155 133 105
0.94251 0.077766 9.7307 168 147 112
0.17212 0.027448 9.889 161 134 93
-0.11562 0.02843 9.9523 183 158 120
-0.43844 0.009302 10.028 148 113 77
0.3403 0.050479 9.906 199 173 123
0.30877 0.046353 9.9194 41 18 1
0.77803 0.12786 9.8637 179 141 73
-0.046371 0.011582 10.029 134 102 61
-0.5462 0.23039 10.072 163 122 65
-0.71204 0.38392 10.102 249 213 158
-0.4291 -0.28967 10.355 173 135 86
-0.55761 0.4142 10.232 233 191 143
0.63114 0.48841 10.187 53 35 18
-0.72778 0.66626 10.314 97 68 33
0.36457 0.4638 10.26 108 84 49
-0.71476 0.63823 10.348 93 70 45
0.98427 0.56502 10.17 135 110 70
0.60086 0.48201 10.29 95 77 58
0.601 0.48385 10.289 95 77 58
0.21861 0.44699 10.375 45 28 6
0.94814 0.59977 10.219 136 117 82
0.77043 0.53765 10.29 118 99 76
-0.47426 0.48786 10.514 138 113 85
-0.49002 0.46877 10.543 92 70 41
-0.6301 -0.16226 9.7246 158 142 112
1.4109 0.11932 9.4995 55 33 6
0.78505 -0.053996 9.6941 243 214 150
1.216 0.05699 9.601 161 135 95
1.1419 0.011699 9.6335 117 87 40
0.8924 0.015725 9.6968 218 188 129
0.20271 -0.051859 9.8225 220 186 131
-0.061078 -0.90775 10.193 143 127 101
-0.29032 -0.028697 9.8896 145 109 54
-0.16742 -0.018942 9.8741 167 130 69
-0.16934 0.00059114 9.8928 237 202 148
0.51043 0.020599 9.8067 121 85 41
0.88607 0.05508 9.7412 86 57 17
1.2095 0.090355 9.6872 108 79 37
-0.15531 0.0053329 9.9183 169 140 95
1.158 0.094456 9.7397 91 61 13
-0.070094 0.033153 9.9499 203 174 127
0.0094376 0.036289 9.9412 217 193 151
1.1464 0.085721 9.7623 159 132 83
0.10592 0.041796 9.9329 214 177 119
0.17216 0.039488 9.9242 215 187 135
1.2357 0.18023 9.7197 157 132 93
-0.094483 0.02371 9.9965 130 101 62
0.29758 0.022397 9.9514 123 99 65
0.29758 0.022397 9.9514 123 99 65
0.16374 0.027006 9.979 76 44 2
0.24067 0.032311 9.9675 63 38 8
-0.47418 0.0046607 10.092 108 80 41
1.2209 0.19858 9.7768 110 77 34
0.92516 0.18803 9.8511 227 198 147
0.9039 0.18835 9.8752 124 88 40
1.5763 0.38728 9.7047 56 32 10
0.94298 0.23943 9.8975 151 119 65
0.48299 -0.33401 10.227 216 176 110
0.93921 0.25862 9.9258 117 89 40
-0.70485 0.39264 10.115 160 119 64
-0.40488 -0.29815 10.362 198 160 114
-0.49071 0.36566 10.183 237 201 145
-0.84492 0.6666 10.127 127 92 54
-0.84495 0.66662 10.127 109 75 35
-0.4978 0.37882 10.199 123 87 40
1.0914 0.36976 9.9788 144 107 58
-0.54678 0.42174 10.244 116 72 23
0.95033 0.44161 10.062 209 178 135
0.52969 0.4199 10.154 140 98 48
1.4054 0.52779 10.023 191 157 112
-0.79442 0.70587 10.273 112 90 58
1.4275 0.55192 10.033 99 76 36
-0.53004 0.56475 10.352 163 117 64
0.56104 0.47397 10.241 145 121 90
-0.52462 0.58297 10.369 229 193 144
0.96558 0.57007 10.179 101 70 31
-0.3136 0.44809 10.429 116 94 62
-0.87986 -0.18542 9.5247 197 181 141
0.94344 0.049798 9.6928 211 183 125
0.31062 0.012283 9.8252 164 126 66
1.6051 0.33892 9.5255 82 64 24
1.2118 0.13783 9.715 120 88 44
0.90536 0.065906 9.7866 173 140 94
-0.5055 0.12318 9.9831 151 122 73
-0.6442 0.20956 9.9839 241 202 140
1.2176 0.17788 9.7403 123 93 47
1.1687 0.16517 9.7796 95 64 17
1.5192 0.33192 9.6825 35 16 0
1.5192 0.33192 9.6825 35 16 0
0.76025 0.15043 9.8812 216 184 123
1.2486 0.27268 9.8273 171 141 100
-0.62991 0.37214 10.082 250 214 148
-0.66162 0.42592 10.145 191 150 89
1.2047 0.33558 9.9374 227 194 144
-0.82969 0.65478 10.105 248 214 161
1.4528 0.4102 9.9335 125 96 53
-0.89542 0.70183 10.15 88 58 23
1.0529 0.44067 10.021 237 201 142
1.1551 0.43902 10.016 240 204 145
-0.0037635 0.37827 10.215 255 236 173
0.79623 0.41177 10.098 177 132 74
-0.337 0.40012 10.271 149 113 66
0.21263 0.39901 10.2 164 125 70
0.30754 0.41595 10.185 164 124 63
1.4933 0.48594 9.9786 125 93 49
1.214 0.50013 10.046 198 164 120
0.94415 0.47797 10.105 67 39 1
1.5002 0.52033 10.008 85 63 28
1.0841 0.50944 10.099 233 201 151
0.94521 0.5494 10.168 209 173 130
1.2052 -0.027316 9.5353 176 155 115
-1.5024 -6.7934 12.511 146 123 95
1.4017 0.13906 9.5203 158 138 105
-0.77794 0.18243 9.8411 254 222 163
0.18666 -0.063732 9.7961 16 4 0
-0.64181 0.10756 9.8707 247 212 148
-0.64181 0.10756 9.8707 247 212 148
-0.88016 0.30884 9.8325 122 86 38
0.14614 0.0080689 9.8469 110 77 33
-0.22042 0.0041029 9.9028 244 218 166
0.048541 0.021727 9.8832 192 167 112
1.6464 0.39428 9.5321 180 159 120
-0.50568 0.091071 9.958 212 183 138
1.1011 0.071317 9.7543 177 145 92
1.5116 0.3163 9.6533 160 141 108
1.1959 0.18657 9.8011 212 180 126
1.8 0.17421 9.8019 134 107 75
1.2729 0.36495 9.8212 80 58 22
-0.4583 0.12552 10.19 209 183 147
1.2025 0.31766 9.8878 221 188 136
1.1461 0.29189 9.9388 208 172 120
-0.89699 0.70695 10.148 68 41 12
1.1791 0.39919 9.9949 144 111 60
1.1527 0.48153 10.049 236 201 144
1.5211 0.51885 9.9827 191 161 117
-0.85482 0.7126 10.269 120 101 72
-0.4479 0.43131 10.332 54 27 0
0.95708 0.5907 10.199 236 205 154
0.9561 0.59177 10.199 236 202 156
0.37771 -3.9248 10.608 250 218 161
-0.77557 0.1591 9.7801 246 213 146
0.64273 -0.062212 9.6944 25 10 0
0.26499 -0.027539 9.8103 211 178 115
0.53236 -0.022804 9.7829 189 156 95
-0.62085 0.2084 9.9633 181 144 90
-0.62153 0.19938 9.9664 181 144 90
0.70187 0.14517 9.825 220 192 132
1.0274 0.1504 9.7995 158 119 65
1.1358 0.179 9.8082 223 192 135
1.137 0.17703 9.8088 220 188 132
1.5477 0.34621 9.7078 156 135 98
1.5477 0.34621 9.7078 156 135 98
1.0547 0.3103 9.9479 238 198 134
1.5265 0.45047 9.9588 187 152 103
1.0457 0.50508 10.083 46 25 0
1.0458 0.5034 10.084 46 25 0
-0.82588 0.63818 10.377 131 109 78
1.6757 0.37914 10.14 1 0 0
-0.58153 -0.14502 9.7376 39 33 25
-0.58182 -0.14688 9.7382 39 33 25
0.95054 0.097603 9.7623 34 17 2
-0.52103 0.26015 10.107 242 205 143
0.97707 0.27667 9.9049 236 203 146
0.94121 0.30629 9.9394 114 81 42
0.94121 0.30629 9.9394 114 81 42
-0.85886 0.69424 10.159 246 211 155
-0.61239 0.54047 10.232 255 221 161
1.4566 0.49402 9.9802 206 171 121
-0.78014 0.43345 10.613 134 108 73
-2.1531 -9.0909 13.048 7 0 0
-0.57856 -0.1338 9.7237 30 25 18
1.1624 -0.010882 9.6099 204 175 113
1.6178 0.44754 9.6911 15 8 0
1.219 0.46336 9.9971 222 186 129
-0.94218 -0.18998 9.4894 250 225 158
-0.83493 -0.2024 9.5042 34 27 21
1.1202 -0.06736 9.566 9 5 5
-0.45139 -0.13036 9.8332 8 3 0
-0.45139 -0.13036 9.8332 8 3 0
-0.48633 0.56275 10.341 240 208 158
-0.9026 0.20396 9.7534 244 211 143
0.71601 -0.028438 9.7578 237 203 137
1.7208 0.3273 9.8129 138 116 75
1.3923 0.41032 9.8629 205 171 124
1.1365 0.48763 9.9979 234 196 132
-0.89769 -0.095241 9.5824 231 203 142
-0.89812 -0.10643 9.5854 231 203 142
1.5269 0.25814 9.7673 38 24 11
0.98799 0.003621 9.6602 143 110 55
0.87814 0.033246 9.7138 142 113 60
0.54419 0.016793 9.8029 100 64 22
1.5286 0.30807 9.6429 61 40 12
0.98224 0.1367 9.7867 215 181 126
0.20175 0.038436 9.9344 70 40 1
0.20175 0.038436 9.9344 70 40 1
0.18656 0.028498 9.9559 147 117 71
0.076491 0.019633 9.9908 91 60 23
0.076491 0.019633 9.9908 91 60 23
-0.26442 0.0032211 10.051 143 116 86
-0.19268 0.0052371 10.048 152 116 71
-0.14099 0.0014713 10.04 143 111 72
1.3994 0.5137 10.007 101 69 32
1.2113 0.51479 10.062 90 67 35
-0.55098 0.51707 10.321 179 136 86
-0.83114 0.65639 10.334 85 62 36
1.4582 0.57074 10.056 111 91 57
-0.14506 0.44733 10.338 95 67 38
0.58133 0.47477 10.226 70 49 22
-0.12598 0.43709 10.35 106 87 63
0.59883 0.46806 10.245 74 59 44
0.50793 0.46851 10.296 126 106 76
0.29311 0.4564 10.36 54 42 17
1.0163 0.52636 10.242 75 51 16
-0.67537 0.48293 10.545 140 119 86
0.35167 -0.67596 10.765 91 63 27
0.14415 -0.66244 10.813 169 137 98
0.031345 -0.6539 10.837 147 116 79
1.2942 -0.014599 9.4177 175 149 101
-0.86333 0.070881 9.7056 202 168 110
-0.63912 -0.10786 9.7794 191 159 97
-0.69517 0.039325 9.8165 184 144 83
-0.64152 0.072348 9.8283 236 202 144
1.4379 0.16703 9.5335 46 26 0
0.90479 -0.017457 9.665 198 176 125
1.2259 0.12274 9.6595 159 135 98
-0.54178 0.090183 9.9444 191 151 89
-0.15351 0.01368 9.9169 162 137 96
-0.097085 0.029187 9.9694 47 18 0
-0.097085 0.029187 9.9694 47 18 0
1.2261 0.25098 9.8171 128 97 49
1.3051 0.36963 9.7806 114 90 48
-0.61706 0.33091 10.064 188 150 99
0.89055 0.22771 9.925 228 193 139
1.252 0.32984 9.8694 170 143 101
-0.62073 0.40088 10.119 251 218 166
1.2348 0.3363 9.8889 125 91 47
-0.70677 0.41815 10.144 173 135 84
-0.81311 0.64491 10.142 190 154 103
-0.51449 0.37011 10.182 244 204 141
1.4767 0.39608 9.9251 180 150 104
-0.50668 0.39094 10.217 235 198 143
1.2563 0.45216 9.9589 151 123 91
1.0277 0.40807 10.008 139 104 54
1.5983 0.48267 9.919 134 120 89
0.88942 0.42687 10.071 218 182 139
0.88942 0.42687 10.071 218 182 139
0.92592 0.44913 10.073 68 40 3
0.93855 0.48559 10.124 213 174 119
1.2105 0.51368 10.084 139 118 83
-0.60393 0.62842 10.328 131 103 65
1.4108 0.58003 10.064 99 84 54
1.1596 0.52337 10.139 129 108 83
0.56477 0.48143 10.288 119 97 64
-0.12254 0.44084 10.406 123 100 73
-0.63965 0.54543 10.455 129 107 78
-0.46485 0.49691 10.465 153 127 93
0.78631 0.52664 10.327 154 132 101
0.40236 -0.69929 10.809 48 32 5
-0.20851 -0.6856 10.925 67 43 11
0.038319 -0.72727 10.916 138 114 79
-0.88541 -0.10502 9.5506 202 171 113
-0.87369 -0.0042961 9.63 216 182 123
-0.79451 -0.027102 9.6621 140 106 47
1.3734 0.064971 9.4151 119 105 81
-0.777 0.18284 9.8376 254 225 168
0.63997 -0.058276 9.7344 236 205 141
-0.49895 -0.034463 9.9025 155 116 62
1.3362 0.094414 9.6518 69 43 11
0.31059 0.011869 9.8253 150 114 60
0.54602 0.037911 9.8284 184 159 106
-0.492 0.17657 10.053 172 143 96
1.3109 0.36774 9.7574 202 174 125
-0.16904 -0.054759 10.135 9 3 1
1.6182 0.47814 9.8314 139 121 80
0.92476 0.38055 10.023 191 157 102
1.1512 0.39714 9.9856 231 199 144
-0.45567 0.39824 10.288 97 65 37
1.2826 0.52443 10.066 71 53 23
1.1741 0.51036 10.112 61 40 21
1.2846 0.49434 10.113 80 60 30
-0.46634 0.51801 10.395 182 161 135
0.58166 0.47573 10.269 18 4 0
-0.46394 0.5299 10.421 174 149 118
0.84817 0.58896 10.216 254 223 168
0.17892 -0.67673 10.836 78 52 29
-0.11506 -0.67181 10.884 98 71 43
-0.11506 -0.67181 10.884 98 71 43
-0.56946 0.34909 10.717 101 78 52
1.2326 -0.0063029 9.5621 76 57 21
1.3415 0.078561 9.596 49 26 4
-0.48111 -0.071234 9.8806 232 197 141
-0.47666 -0.005615 9.925 239 204 142
-0.018458 0.012459 9.8887 184 156 109
1.65 0.42572 9.585 35 19 0
1.1012 0.15339 9.7919 156 121 67
-0.07943 0.00063936 10.034 52 25 1
1.3071 0.41797 9.8111 182 156 109
0.98292 0.35883 9.9619 247 215 156
1.1798 0.38055 9.9547 121 89 46
1.2088 0.38817 9.9673 225 193 136
1.5793 0.50452 9.9786 176 152 105
0.80139 0.4602 10.121 250 212 150
-0.67243 0.63813 10.344 108 86 53
0.52467 0.47545 10.268 21 5 0
0.85035 0.58416 10.214 254 223 168
-0.68499 -0.26939 11.121 26 18 14
-0.84006 -0.18049 9.5208 42 32 23
-0.71255 -0.14486 9.6256 40 31 20
1.3092 -0.020101 9.3908 69 47 15
-0.64554 0.012702 9.7642 251 219 157
-0.74923 0.076831 9.7816 182 150 97
-0.18207 0.015783 9.9263 124 93 56
1.6354 0.43726 9.6191 139 119 81
-0.22389 0.0052374 10.049 55 30 1
0.32616 0.015 9.9773 32 18 2
-0.7393 0.53306 10.092 252 221 167
1.1121 0.28438 9.9146 38 14 0
1.1121 0.28438 9.9146 38 14 0
-0.61209 0.44985 10.166 255 236 180
-0.73842 0.63863 10.2 252 225 175
1.771 0.18 9.9799 145 117 75
-0.79628 0.69639 10.239 246 206 144
-0.79628 0.69639 10.239 246 206 144
-0.6997 0.65008 10.307 228 188 135
1.43 0.57205 10.058 83 65 36
-0.80741 0.51865 10.492 117 94 62
0.81123 0.58949 10.237 38 23 5
0.90541 0.59644 10.238 120 98 65
0.48699 0.57689 10.433 199 158 106
0.36524 -0.75995 10.895 2 0 0
1.5422 1.8514 9.9898 0 0 0
-0.81685 -0.19337 9.5738 245 218 152
1.2586 -0.045952 9.346 9 8 0
1.3981 0.076015 9.3765 62 52 25
1.2838 0.12707 9.5245 179 155 104
0.587 -0.026161 9.7788 205 178 125
-0.52561 0.024063 9.9296 226 192 136
0.057903 0.014054 9.944 34 16 0
-0.46352 0.0042277 10.053 65 35 5
0.71496 0.15409 9.8769 45 27 4
1.4566 0.49622 9.9799 207 175 121
0.74081 0.55453 10.202 25 11 0
-0.43829 0.44747 10.41 39 23 11
-0.50872 0.48618 10.504 38 20 1
-0.28392 -0.77297 11.037 7 3 0
1.2646 0.0024865 9.4234 178 153 100
-0.51318 0.34109 10.142 244 208 147
1.8786 -1.882 10.617 2 0 0
1.3673 0.552 10.019 196 161 107
-0.81621 -0.17495 9.5914 250 221 152
1.4989 0.18788 9.4048 201 172 109
1.3636 0.093037 9.5795 54 39 20
0.3544 -0.019224 9.8211 255 252 196
-0.7757 0.39752 10.055 255 230 172
1.3022 0.52292 9.9729 21 10 4
1.3022 0.52292 9.9729 21 10 4
1.422 -0.045625 9.3357 196 175 116
0.98594 0.1746 9.8432 231 198 139
1.1438 0.21829 9.832 140 101 54
1.5461 0.43456 9.8222 34 17 1
-0.59374 0.65008 10.389 122 100 69
-0.67782 0.40155 9.957 228 191 136
-0.67782 0.40155 9.957 228 191 136
0 0 0 1 0 0 0 1 0 0 0 1 0 0 0 0 0 1438 1 0 0
