ply
format ascii 1.0
comment PCL generated
element vertex 227
property float x
property float y
property float z
property uchar red
property uchar green
property uchar blue
element camera 1
property float view_px
property float view_py
property float view_pz
property float x_axisx
property float x_axisy
property float x_axisz
property float y_axisx
property float y_axisy
property float y_axisz
property float z_axisx
property float z_axisy
property float z_axisz
property float focal
property float scalex
property float scaley
property float centerx
property float centery
property int viewportx
property int viewporty
property float k1
property float k2
end_header
0.89914 -0.34229 7.5582 3 3 6
-0.2892 0.261 3.0584 34 70 92
0.95936 0.0637 8.0739 102 142 172
-0.13898 0.56003 8.4398 16 2 5
-0.7496 -0.44398 7.8801 43 148 3
0.89828 -0.38341 7.531 27 87 31
0.051769 -0.33229 7.6747 131 0 1
-0.01058 -0.32708 7.6824 18 3 0
-0.28714 0.25195 3.0651 81 121 142
0.015463 -0.29845 7.6681 2 0 0
0.17449 -0.29505 7.6611 5 33 83
-0.47644 -0.2756 7.778 48 82 102
1.1796 -0.13937 8.0202 6 5 0
0.94345 -0.1138 8.0107 1 0 0
0.7688 0.024888 8.0985 1 51 23
0.7688 0.024888 8.0985 28 60 87
0.7688 0.024888 8.0985 28 60 87
0.65932 0.029962 8.1226 55 30 0
-0.32826 0.080131 8.3396 96 133 166
-0.33175 0.11295 8.3515 15 34 11
-0.27906 0.11506 8.3393 56 98 130
-0.27906 0.11506 8.3393 56 98 130
-0.27906 0.11506 8.3393 129 27 3
-0.37301 0.11765 8.3582 33 7 1
-0.11763 0.12816 8.3147 12 55 16
0.14959 0.12817 8.2744 47 0 0
0.023233 0.57601 8.4104 69 60 5
-0.69109 0.5922 3.4582 9 24 6
0.17124 0.59362 8.4032 22 2 0
0.15732 0.6179 8.4173 6 11 41
-0.76825 -0.50866 7.7306 36 69 88
-0.27663 0.20156 3.1039 13 10 34
-0.29108 0.24028 3.0866 2 2 58
0.87805 -0.32411 7.57 12 9 71
0.91036 -0.32502 7.5637 17 7 1
0.91036 -0.32502 7.5637 7 0 0
-0.63229 -0.31894 7.7365 15 38 54
0.15387 -0.30978 7.6384 5 0 0
0.47576 -0.2934 7.4894 31 0 1
0.47576 -0.2934 7.4894 2 0 4
-0.40937 -0.28999 7.7617 88 124 143
0.77397 -0.15516 8.0464 3 0 7
-0.78796 0.18894 4.1214 7 66 1
-0.3264 0.37556 2.9958 31 62 89
-0.29876 0.39127 2.9229 19 16 4
0.9263 -0.098375 8.039 19 100 112
-0.3071 0.42461 2.9 3 113 9
-0.36141 0.41442 3.0186 4 7 36
0.95288 0.028048 8.0662 40 69 10
-0.28201 0.46429 2.804 26 19 76
-0.44808 0.30147 3.321 3 43 7
0.9735 0.086144 8.0998 9 2 11
-0.19588 0.09859 8.3245 31 36 5
0.17666 0.1057 8.2642 19 1 6
0.17666 0.1057 8.2642 66 131 32
-0.31253 0.12806 8.3486 8 112 40
-0.31253 0.12806 8.3486 11 3 1
-0.48437 0.42713 3.2449 1 0 27
0.35712 0.56137 8.3869 26 159 58
-0.53183 0.61009 3.1231 33 20 86
-0.51582 0.62376 3.0755 123 111 9
-0.74397 -0.32805 7.7601 20 130 13
-0.81771 0.11853 4.2628 33 59 80
-0.78795 0.32954 3.956 5 6 116
1.3149 0.13644 8.1359 7 125 17
1.3149 0.13644 8.1359 21 47 11
0.94832 -0.38856 7.5081 2 26 36
0.92201 -0.36644 7.5252 1 0 76
-0.88533 0.044472 4.4826 13 16 2
-0.26813 0.33012 2.9337 10 15 16
-0.061883 0.19822 8.4133 11 24 11
1.3418 -0.48285 7.6953 14 0 1
-0.21506 0.11176 3.0716 20 25 36
0.99019 -0.355 7.4727 88 0 0
1.4102 -0.44352 7.7814 7 25 126
-0.1976 0.014929 8.4002 3 34 58
-0.41674 0.74514 8.6367 80 9 0
-0.83348 0.17487 8.0621 65 12 1
0.77906 0.52685 8.4217 16 4 1
0.77906 0.52685 8.4217 9 66 43
-0.82742 -0.094953 7.8543 16 17 17
-0.92482 0.032999 7.9494 1 1 12
1.2595 0.10521 8.1579 14 46 14
1.2595 0.10521 8.1579 57 1 1
0.95885 0.33546 8.2975 12 106 26
-0.58424 0.50378 3.3507 19 9 9
-0.22427 0.60502 8.5879 23 2 25
-0.42188 0.64675 2.8638 13 13 9
-0.0020276 2.3153 0.086262 59 102 122
-0.0019319 2.3152 0.086155 63 106 129
-0.0020453 2.3151 0.086453 53 78 97
-0.0019392 2.3151 0.086304 77 122 151
-0.0019648 2.3151 0.086378 31 62 91
-0.0020841 2.3149 0.086798 98 139 165
-0.0020841 2.3149 0.086798 98 139 165
-0.0020848 2.3149 0.086836 92 135 162
-0.0019187 2.3148 0.086637 60 99 133
-0.0020955 2.3148 0.086964 76 116 146
-0.0019378 2.3145 0.086969 70 114 147
-0.0020144 2.3145 0.087156 71 111 146
-0.0020199 2.3153 0.086175 51 94 109
-0.0020199 2.3153 0.086175 51 94 109
-0.0019818 2.3153 0.08617 91 133 154
-0.0016754 2.3154 0.085417 64 97 116
0.14948 1.9432 0.22363 81 113 130
0.088398 1.8442 0.45988 33 75 99
-0.30276 1.2051 1.9785 96 132 151
-0.25496 1.3102 1.7605 55 101 135
0.13681 1.9311 0.26216 25 58 81
0.12692 1.9168 0.29836 55 95 124
0.067767 1.8301 0.51601 42 80 108
0.0833 1.8541 0.45731 54 92 120
0.062978 1.824 0.53254 29 64 90
0.062978 1.824 0.53254 29 64 90
-0.36191 1.2239 2.0706 40 80 112
0.018448 1.7607 0.69409 59 98 130
0.0060684 1.7425 0.73966 34 70 96
0.10805 1.8934 0.36256 64 108 138
0.10805 1.8934 0.36256 64 108 138
-0.20412 1.4447 1.5015 83 136 168
0.035878 1.7939 0.62065 84 122 150
-0.01576 1.728 0.79897 32 64 90
-0.15476 1.5459 1.2852 53 90 123
-0.081024 1.6432 1.0264 35 69 99
-0.081024 1.6432 1.0264 35 69 99
-0.13514 1.5729 1.215 14 44 71
-0.11564 1.5983 1.1469 79 119 152
-0.24305 1.4442 1.5774 54 93 127
-0.20696 1.4889 1.4542 109 142 172
0.20194 2.0235 0.026602 0 40 57
0.19262 2.0093 0.06138 95 129 149
0.043572 1.7614 0.64542 0 3 15
-0.71526 0.62103 3.4741 46 78 98
-0.71526 0.62103 3.4741 46 78 98
0.13306 1.9157 0.28833 50 100 122
-0.071116 1.5737 1.0909 99 140 159
0.13604 1.922 0.27498 83 114 132
-0.090774 1.5665 1.1371 9 49 79
-0.55046 0.91542 2.804 34 71 91
-0.11483 1.5352 1.221 0 5 11
-0.27178 1.2984 1.8071 5 6 10
0.11431 1.8967 0.3467 24 58 85
0.09601 1.8705 0.41326 36 67 94
-0.36291 1.2028 2.0977 74 121 157
0.08747 1.8608 0.44129 101 138 164
0.082814 1.8554 0.45667 50 91 116
0.099138 1.8798 0.39595 56 101 130
-0.24915 1.3818 1.6638 117 162 198
-0.2276 1.411 1.5873 102 137 168
-0.21491 1.4309 1.5389 62 104 143
0.0062864 1.7453 0.73589 82 118 144
-0.014719 1.7157 0.81177 12 42 67
0.051972 1.813 0.56677 115 158 182
-0.36797 1.2477 2.0539 38 71 97
0.039453 1.7984 0.60838 40 77 105
0.007366 1.7546 0.72259 88 123 148
0.002883 1.7505 0.73612 0 21 45
-0.18252 1.5119 1.3794 74 118 154
-0.14524 1.5601 1.2498 106 148 180
-0.1801 1.5166 1.3692 18 49 75
-0.11631 1.5985 1.148 31 57 82
0.20922 2.0353 -0.0015067 0 0 10
-0.81734 0.45992 3.8639 78 111 129
-0.56387 0.76275 3.0112 0 0 16
0.10795 1.8748 0.38567 49 86 107
0.031687 1.7747 0.65185 100 147 176
-0.41704 1.1673 2.2449 83 121 146
-0.17163 1.4872 1.388 121 168 197
-0.1755 1.4909 1.3911 95 143 181
-0.036192 1.698 0.87434 0 3 7
-0.12662 1.5881 1.1803 88 137 173
-0.13128 1.5834 1.1949 3 4 10
0.1842 1.9964 0.093421 0 4 8
0.14992 1.9409 0.22603 0 6 14
0.16668 1.9692 0.15955 27 53 69
0.17253 1.9775 0.13829 0 14 25
0.15367 1.9495 0.20802 81 120 145
-0.13096 1.5069 1.2859 83 145 178
-0.087098 1.5759 1.1188 86 143 177
0.089398 1.8629 0.43509 107 151 175
-0.026539 1.6904 0.86489 88 143 175
0.10661 1.8919 0.36701 120 154 180
0.10316 1.8878 0.37858 2 2 9
-0.15269 1.5217 1.3101 90 142 177
-0.21413 1.4418 1.5244 1 7 10
-0.18262 1.4835 1.4136 0 5 6
0.037298 1.7944 0.61729 85 131 162
0.037298 1.7944 0.61729 85 131 162
-0.21344 1.4628 1.4979 12 14 22
-0.15483 1.5404 1.2918 113 154 189
0.026439 1.7875 0.64638 1 4 10
-0.25056 1.4356 1.6021 9 24 40
-0.76681 0.55209 3.6562 69 104 122
0.17098 1.9746 0.1447 101 145 162
0.17153 1.9785 0.13866 95 133 156
-0.29537 1.2586 1.9002 92 143 175
0.1125 1.8992 0.34697 108 149 176
0.094548 1.8764 0.40883 0 2 4
0.05194 1.8202 0.55816 1 3 8
-0.15112 1.5427 1.2819 2 4 11
-0.66426 0.73972 3.2339 69 110 128
0.12789 1.9172 0.29599 100 147 174
0.12539 1.916 0.30218 91 143 176
-0.35192 1.2745 1.9908 94 134 163
-0.32538 1.3181 1.8874 91 134 162
0.18573 1.9994 0.086914 0 2 4
-0.40707 1.1823 2.2077 69 107 133
-0.2786 1.3876 1.7138 81 117 151
-0.12973 1.5737 1.2036 65 116 153
-0.010902 1.7406 0.77454 84 134 168
0.14334 1.9327 0.24815 27 41 54
-0.12329 1.5911 1.1703 66 99 133
0.19955 2.0195 0.035974 81 139 164
0.19955 2.0195 0.035974 81 139 164
-0.56257 0.91634 2.8263 89 128 147
0.02102 1.7738 0.67332 81 124 155
0.055486 1.823 0.54798 86 126 155
-0.30215 1.2764 1.8922 1 3 5
-0.058208 1.6493 0.97516 71 116 150
-0.058208 1.6493 0.97516 71 116 150
-0.19842 1.4724 1.4574 0 2 6
-0.025331 1.7083 0.84099 0 0 3
-0.025331 1.7083 0.84099 0 0 3
-0.15345 1.5491 1.2788 85 135 169
-0.058059 1.6733 0.94601 99 141 171
0.17048 1.9756 0.1443 93 149 176
-0.47975 1.0188 2.5438 66 102 130
0 0 0 1 0 0 0 1 0 0 0 1 0 0 0 0 0 227 1 0 0
