ply
format ascii 1.0
comment PCL generated
element vertex 76
property float x
property float y
property float z
property uchar red
property uchar green
property uchar blue
element camera 1
property float view_px
property float view_py
property float view_pz
property float x_axisx
property float x_axisy
property float x_axisz
property float y_axisx
property float y_axisy
property float y_axisz
property float z_axisx
property float z_axisy
property float z_axisz
property float focal
property float scalex
property float scaley
property float centerx
property float centery
property int viewportx
property int viewporty
property float k1
property float k2
end_header
0.89698 -0.34403 7.5206 1 200 200
0.88068 -0.29142 7.5261 1 200 200
0.94128 0.069958 7.9092 1 200 200
-0.14216 0.55646 8.136 1 200 200
-0.74085 -0.43568 7.6855 1 200 200
0.89736 -0.38641 7.5029 1 200 200
0.046618 -0.33401 7.6178 1 200 200
-0.015808 -0.32869 7.6231 1 200 200
0.88755 -0.30873 7.5243 1 200 200
0.16822 -0.2947 7.5839 1 200 200
-0.48053 -0.27598 7.6942 1 200 200
1.1649 -0.13321 7.8953 1 200 200
0.93384 -0.10931 7.9025 1 200 200
0.75346 0.030992 7.9364 1 200 200
0.75346 0.030992 7.9364 1 200 200
0.75346 0.030992 7.9364 1 200 200
0.64498 0.035961 7.9562 1 200 200
-0.32861 0.085093 8.1279 1 200 200
-0.33184 0.11764 8.1328 1 200 200
-0.28018 0.11978 8.1226 1 200 200
-0.28018 0.11978 8.1226 1 200 200
-0.28018 0.11978 8.1226 1 200 200
-0.37225 0.12224 8.1373 1 200 200
-0.12175 0.13295 8.1009 1 200 200
0.14079 0.13331 8.0686 1 200 200
0.015439 0.57243 8.1095 1 200 200
-0.80797 0.58789 8.1354 1 200 200
0.15923 0.58989 8.1016 1 200 200
0.14555 0.61338 8.1096 1 200 200
-0.77487 -0.5142 7.6849 1 200 200
0.91814 -0.40066 7.5018 1 200 200
0.87531 -0.3254 7.5283 1 200 200
0.87531 -0.3254 7.5283 1 200 200
0.9078 -0.32632 7.5228 1 200 200
0.9078 -0.32632 7.5228 1 200 200
-0.63669 -0.32062 7.6625 1 200 200
0.14878 -0.31133 7.583 1 200 200
0.47255 -0.29769 7.4815 1 200 200
0.47255 -0.29769 7.4815 1 200 200
-0.41388 -0.29066 7.6829 1 200 200
0.76229 -0.14972 7.9199 1 200 200
-0.70148 -0.11418 7.6649 1 200 200
0.8117 -0.095833 7.9183 1 200 200
0.91238 -0.092407 7.9046 1 200 200
0.91238 -0.092407 7.9046 1 200 200
0.8705 -0.016483 7.9114 1 200 200
0.66491 0.013829 7.9515 1 200 200
0.93573 0.034344 7.9083 1 200 200
0.95638 0.039691 7.8981 1 200 200
0.49708 0.092213 7.966 1 200 200
0.95439 0.092476 7.9281 1 200 200
-0.19861 0.10356 8.1134 1 200 200
0.16754 0.11105 8.0636 1 200 200
0.16754 0.11105 8.0636 1 200 200
-0.31293 0.13262 8.128 1 200 200
-0.31293 0.13262 8.128 1 200 200
0.18098 0.13353 8.061 1 200 200
0.34031 0.55905 8.0948 1 200 200
-0.19381 0.57362 8.1278 1 200 200
-0.13999 0.59816 8.1336 1 200 200
-0.74793 -0.32972 7.6832 1 200 200
-0.72964 -0.21387 7.6727 1 200 200
-0.84956 0.10329 7.8813 1 200 200
1.2893 0.14335 7.9522 1 200 200
1.2893 0.14335 7.9522 1 200 200
0.9481 -0.39188 7.4836 1 200 200
0.92091 -0.36905 7.495 1 200 200
-0.86267 -0.30198 7.6937 1 200 200
1.2935 0.025308 7.9302 1 200 200
1.353 -0.4892 7.697 1 200 200
0.99001 -0.35788 7.4471 1 200 200
-0.40969 0.73395 8.27 1 200 200
-0.82599 0.17691 7.8644 1 200 200
-0.82651 -0.093439 7.7274 1 200 200
-0.90479 0.038076 7.6727 1 200 200
-0.2245 0.59954 8.255 1 200 200
0 0 0 1 0 0 0 1 0 0 0 1 0 0 0 0 0 76 1 0 0
