ply
format ascii 1.0
comment PCL generated
element vertex 88
property float x
property float y
property float z
property uchar red
property uchar green
property uchar blue
element camera 1
property float view_px
property float view_py
property float view_pz
property float x_axisx
property float x_axisy
property float x_axisz
property float y_axisx
property float y_axisy
property float y_axisz
property float z_axisx
property float z_axisy
property float z_axisz
property float focal
property float scalex
property float scaley
property float centerx
property float centery
property int viewportx
property int viewporty
property float k1
property float k2
end_header
0.89914 -0.34229 7.5582 23 32 19
0.88416 -0.29086 7.5736 27 7 1
0.95936 0.0637 8.0739 48 14 2
-0.13898 0.56003 8.4398 3 0 12
-0.73537 -0.43199 7.7442 22 148 7
0.89828 -0.38341 7.531 37 76 95
0.051769 -0.33229 7.6747 24 2 1
-0.01058 -0.32708 7.6824 89 19 9
0.89058 -0.30779 7.5685 38 28 1
0.015463 -0.29845 7.6681 2 1 15
0.17338 -0.29349 7.642 1 0 0
-0.47644 -0.2756 7.778 1 0 0
1.1796 -0.13937 8.0202 2 136 81
0.94748 -0.11519 8.0331 86 126 156
0.7688 0.024888 8.0985 28 60 87
0.7688 0.024888 8.0985 31 2 0
0.7688 0.024888 8.0985 74 42 21
0.65932 0.029962 8.1226 64 102 130
-0.32826 0.080131 8.3396 115 42 7
-0.33175 0.11295 8.3515 5 7 11
-0.27906 0.11506 8.3393 20 140 19
-0.27906 0.11506 8.3393 111 93 49
-0.27906 0.11506 8.3393 1 0 1
-0.37301 0.11765 8.3582 2 0 1
-0.11763 0.12816 8.3147 8 4 5
0.14959 0.12817 8.2744 2 2 70
0.023233 0.57601 8.4104 94 137 172
-0.82584 0.59426 8.4569 12 14 34
0.17124 0.59362 8.4032 80 130 164
0.15732 0.6179 8.4173 39 72 100
-0.76825 -0.50866 7.7306 41 16 3
0.91863 -0.39734 7.5273 121 32 6
0.87805 -0.32411 7.57 2 13 14
0.87805 -0.32411 7.57 3 1 28
0.91036 -0.32502 7.5637 29 40 33
0.91036 -0.32502 7.5637 121 64 12
-0.63229 -0.31894 7.7365 90 88 49
0.15387 -0.30978 7.6384 70 13 18
0.47648 -0.29566 7.5236 7 63 1
0.47648 -0.29566 7.5236 11 32 35
-0.40937 -0.28999 7.7617 122 122 29
0.77397 -0.15516 8.0464 7 3 51
-0.70017 -0.11514 7.7771 4 30 7
0.82484 -0.10168 8.0541 31 62 89
0.9263 -0.098375 8.039 29 125 15
0.9263 -0.098375 8.039 55 77 16
0.88581 -0.022644 8.0605 115 15 18
0.67907 0.0077855 8.1131 76 7 5
0.95288 0.028048 8.0662 8 2 4
0.97373 0.03342 8.0554 7 0 2
0.51046 0.08662 8.1455 1 21 5
0.9735 0.086144 8.0998 14 9 2
-0.19588 0.09859 8.3245 84 60 80
0.17666 0.1057 8.2642 49 89 119
0.17666 0.1057 8.2642 77 6 1
-0.31253 0.12806 8.3486 15 2 13
-0.31253 0.12806 8.3486 4 133 76
0.19044 0.12835 8.2652 46 35 17
0.35712 0.56137 8.3869 1 29 132
-0.19217 0.57782 8.4346 1 2 7
-0.13679 0.60301 8.4456 12 6 9
-0.74397 -0.32805 7.7601 40 73 91
-0.72717 -0.21383 7.7684 1 69 7
-0.85638 0.10069 8.0677 12 2 3
1.3149 0.13644 8.1359 8 0 0
1.3149 0.13644 8.1359 112 146 172
0.94832 -0.38856 7.5081 2 26 36
0.92201 -0.36644 7.5252 126 120 15
-0.85976 -0.30082 7.779 27 50 95
1.3149 0.018112 8.0886 39 21 40
-0.061883 0.19822 8.4133 9 78 6
1.3532 -0.48754 7.7328 13 20 10
1.4182 -0.44295 7.8261 8 145 0
0.99019 -0.355 7.4727 99 144 160
1.4211 -0.44771 7.8167 0 0 5
-0.1976 0.014929 8.4002 88 136 170
-0.41674 0.74514 8.6367 73 70 1
-0.83348 0.17487 8.0621 2 1 1
0.77906 0.52685 8.4217 24 9 2
0.77906 0.52685 8.4217 87 45 11
-0.82742 -0.094953 7.8543 9 47 43
-0.90824 0.036606 7.8179 16 18 25
1.2595 0.10521 8.1579 1 58 114
1.2595 0.10521 8.1579 34 27 36
0.95885 0.33546 8.2975 31 133 19
-0.29414 0.34782 8.558 2 25 28
-0.22427 0.60502 8.5879 80 113 147
0.27189 0.5957 8.484 3 1 6
0 0 0 1 0 0 0 1 0 0 0 1 0 0 0 0 0 88 1 0 0
