ply
format ascii 1.0
comment PCL generated
element vertex 88
property float x
property float y
property float z
property uchar red
property uchar green
property uchar blue
element camera 1
property float view_px
property float view_py
property float view_pz
property float x_axisx
property float x_axisy
property float x_axisz
property float y_axisx
property float y_axisy
property float y_axisz
property float z_axisx
property float z_axisy
property float z_axisz
property float focal
property float scalex
property float scaley
property float centerx
property float centery
property int viewportx
property int viewporty
property float k1
property float k2
end_header
1.36 -0.49768 10.893 3 3 6
1.3415 -0.42439 10.939 34 70 92
1.533 0.091954 12.273 102 142 172
-0.15161 0.88659 13.362 16 2 5
-1.0305 -0.63288 11.362 43 148 3
1.3541 -0.55525 10.821 27 87 31
0.13037 -0.48396 11.164 131 0 1
0.039115 -0.47654 11.184 18 3 0
1.3498 -0.44855 10.924 81 121 142
0.077185 -0.43451 11.152 2 0 0
0.30771 -0.42684 11.089 5 33 83
-0.64985 -0.40501 11.448 48 82 102
1.8553 -0.21655 12.102 6 5 0
1.5023 -0.1786 12.123 1 0 0
1.2411 0.034074 12.315 1 51 23
1.2411 0.034074 12.315 28 60 87
1.2411 0.034074 12.315 28 60 87
1.0753 0.042444 12.374 55 30 0
-0.44709 0.12489 12.958 96 133 166
-0.45312 0.17617 12.998 15 34 11
-0.37028 0.17912 12.964 56 98 130
-0.37028 0.17912 12.964 56 98 130
-0.37028 0.17912 12.964 129 27 3
-0.51805 0.18373 13.018 33 7 1
-0.11755 0.19863 12.896 12 55 16
0.29847 0.19706 12.786 47 0 0
0.10681 0.9095 13.288 69 60 5
-1.2518 0.94571 13.441 9 24 6
0.34265 0.93686 13.277 22 2 0
0.3213 0.97713 13.325 6 11 41
-1.0775 -0.74419 11.325 36 69 88
1.3829 -0.57512 10.811 13 10 34
1.3311 -0.47192 10.924 2 2 58
1.3311 -0.47192 10.924 12 9 71
1.3776 -0.47325 10.91 17 7 1
1.3776 -0.47325 10.91 7 0 0
-0.87842 -0.46713 11.35 15 38 54
0.27894 -0.45014 11.077 5 0 0
0.74255 -0.42676 10.805 31 0 1
0.74255 -0.42676 10.805 2 0 4
-0.54954 -0.42537 11.4 88 124 143
1.2376 -0.23784 12.138 3 0 7
-0.98465 -0.16915 11.485 7 66 1
1.3178 -0.15773 12.172 31 62 89
1.4713 -0.15323 12.141 19 16 4
1.4713 -0.15323 12.141 19 100 112
1.4147 -0.038726 12.211 3 113 9
1.1041 0.0085479 12.344 4 7 36
1.5205 0.037739 12.243 40 69 10
1.5513 0.04573 12.218 26 19 76
0.84932 0.12983 12.442 3 43 7
1.5595 0.12634 12.348 9 2 11
-0.23985 0.15304 12.917 31 36 5
0.33999 0.16202 12.753 19 1 6
0.33999 0.16202 12.753 66 131 32
-0.42298 0.19965 12.992 8 112 40
-0.42298 0.19965 12.992 11 3 1
0.36171 0.19702 12.762 1 0 27
0.63749 0.88356 13.228 26 159 58
-0.23653 0.91493 13.354 33 20 86
-0.1482 0.9562 13.393 123 111 9
-1.0457 -0.48162 11.415 20 130 13
-1.0228 -0.31425 11.45 33 59 80
-1.2496 0.15429 12.272 5 6 116
2.1 0.20214 12.489 7 125 17
2.1 0.20214 12.489 21 47 11
1.4239 -0.5619 10.768 2 26 36
1.3885 -0.53095 10.811 1 0 76
-1.2203 -0.44278 11.476 13 16 2
2.0844 0.020348 12.331 10 15 16
-0.029462 0.31026 13.177 11 24 11
2.0527 -0.72126 11.323 14 0 1
2.1702 -0.66277 11.57 0 2 9
1.4811 -0.51284 10.692 88 0 0
2.1725 -0.66923 11.546 7 25 126
-0.24319 0.023298 13.107 3 34 58
-0.60547 1.207 13.982 80 9 0
-1.2156 0.26727 12.273 65 12 1
1.3144 0.83035 13.336 16 4 1
1.3144 0.83035 13.336 9 66 43
-1.182 -0.1403 11.69 16 17 17
-1.3033 0.055413 11.633 1 1 12
2.015 0.15477 12.529 14 46 14
2.015 0.15477 12.529 57 1 1
1.5762 0.51842 12.947 12 106 26
-0.3999 0.55399 13.611 19 9 9
-0.29001 0.97177 13.792 23 2 25
0.50754 0.94655 13.501 13 13 9
0 0 0 1 0 0 0 1 0 0 0 1 0 0 0 0 0 88 1 0 0
