ply
format ascii 1.0
comment PCL generated
element vertex 227
property float x
property float y
property float z
property uchar red
property uchar green
property uchar blue
element camera 1
property float view_px
property float view_py
property float view_pz
property float x_axisx
property float x_axisy
property float x_axisz
property float y_axisx
property float y_axisy
property float y_axisz
property float z_axisx
property float z_axisy
property float z_axisz
property float focal
property float scalex
property float scaley
property float centerx
property float centery
property int viewportx
property int viewporty
property float k1
property float k2
end_header
0.89914 -0.34229 7.5582 3 3 6
-0.27 0.26308 2.9513 34 70 92
0.95936 0.0637 8.0739 102 142 172
-0.13898 0.56003 8.4398 16 2 5
-0.75394 -0.44775 7.9255 43 148 3
0.89828 -0.38341 7.531 27 87 31
0.051769 -0.33229 7.6747 131 0 1
-0.01058 -0.32708 7.6824 18 3 0
-0.26809 0.2543 2.9581 81 121 142
0.015463 -0.29845 7.6681 2 0 0
0.17516 -0.29615 7.6746 5 33 83
-0.47644 -0.2756 7.778 48 82 102
1.1796 -0.13937 8.0202 6 5 0
0.94277 -0.1135 8.0061 1 0 0
0.7688 0.024888 8.0985 1 51 23
0.7688 0.024888 8.0985 28 60 87
0.7688 0.024888 8.0985 28 60 87
0.65932 0.029962 8.1226 55 30 0
-0.32826 0.080131 8.3396 96 133 166
-0.33175 0.11295 8.3515 15 34 11
-0.27906 0.11506 8.3393 56 98 130
-0.27906 0.11506 8.3393 56 98 130
-0.27906 0.11506 8.3393 129 27 3
-0.37301 0.11765 8.3582 33 7 1
-0.11763 0.12816 8.3147 12 55 16
0.14959 0.12817 8.2744 47 0 0
0.023233 0.57601 8.4104 69 60 5
-0.6702 0.57783 3.3726 9 24 6
0.17124 0.59362 8.4032 22 2 0
0.15732 0.6179 8.4173 6 11 41
-0.76825 -0.50866 7.7306 36 69 88
-0.25838 0.20538 2.9977 13 10 34
-0.27214 0.24279 2.98 2 2 58
0.87805 -0.32411 7.57 12 9 71
0.91036 -0.32502 7.5637 17 7 1
0.91036 -0.32502 7.5637 7 0 0
-0.63229 -0.31894 7.7365 15 38 54
0.15387 -0.30978 7.6384 5 0 0
0.47633 -0.29378 7.4912 31 0 1
0.47633 -0.29378 7.4912 2 0 4
-0.40937 -0.28999 7.7617 88 124 143
0.77397 -0.15516 8.0464 3 0 7
-0.76847 0.18441 4.0397 7 66 1
-0.30517 0.37364 2.8878 31 62 89
-0.27754 0.38972 2.8133 19 16 4
0.9263 -0.098375 8.039 19 100 112
-0.28542 0.42178 2.7904 3 113 9
-0.33953 0.41037 2.9121 4 7 36
0.95288 0.028048 8.0662 40 69 10
-0.26007 0.46095 2.6926 26 19 76
-0.41918 0.31052 3.1903 3 43 7
0.9735 0.086144 8.0998 9 2 11
-0.19588 0.09859 8.3245 31 36 5
0.17666 0.1057 8.2642 19 1 6
0.17666 0.1057 8.2642 66 131 32
-0.31253 0.12806 8.3486 8 112 40
-0.31253 0.12806 8.3486 11 3 1
-0.46215 0.41993 3.1452 1 0 27
0.35712 0.56137 8.3869 26 159 58
-0.50869 0.59638 3.0264 33 20 86
-0.49248 0.60979 2.9779 123 111 9
-0.74397 -0.32805 7.7601 20 130 13
-0.79885 0.11523 4.1836 33 59 80
-0.76852 0.32146 3.8754 5 6 116
1.3149 0.13644 8.1359 7 125 17
1.3149 0.13644 8.1359 21 47 11
0.94832 -0.38856 7.5081 2 26 36
0.92201 -0.36644 7.5252 1 0 76
-0.86758 0.041993 4.4086 13 16 2
-0.24153 0.34307 2.7964 10 15 16
-0.061883 0.19822 8.4133 11 24 11
1.337 -0.48025 7.6733 14 0 1
-0.19092 0.13605 2.9299 20 25 36
0.99019 -0.355 7.4727 88 0 0
1.405 -0.44098 7.7585 7 25 126
-0.1976 0.014929 8.4002 3 34 58
-0.41674 0.74514 8.6367 80 9 0
-0.83348 0.17487 8.0621 65 12 1
0.77906 0.52685 8.4217 16 4 1
0.77906 0.52685 8.4217 9 66 43
-0.82742 -0.094953 7.8543 16 17 17
-0.92955 0.031611 7.9982 1 1 12
1.2595 0.10521 8.1579 14 46 14
1.2595 0.10521 8.1579 57 1 1
0.95885 0.33546 8.2975 12 106 26
-0.56212 0.49267 3.2573 19 9 9
-0.22427 0.60502 8.5879 23 2 25
-0.39791 0.63335 2.7606 13 13 9
0.022053 2.1668 0.089316 79 114 135
0.022158 2.1667 0.089242 79 119 143
0.02204 2.1666 0.089496 61 83 103
0.022155 2.1665 0.089387 47 94 125
0.022129 2.1665 0.08945 79 138 174
0.022019 2.1664 0.089817 98 139 165
0.022019 2.1664 0.089817 98 139 165
0.022012 2.1664 0.089854 92 135 162
0.022189 2.1662 0.089713 46 86 121
0.022018 2.1663 0.089973 59 100 126
0.02218 2.166 0.090028 56 97 134
0.022098 2.166 0.090186 92 128 157
0.022058 2.1668 0.089236 30 66 87
0.022058 2.1668 0.089236 30 66 87
0.0221 2.1668 0.089242 95 132 149
0.022406 2.1668 0.088605 25 48 67
0.22025 1.9329 -0.027756 81 113 130
0.20002 1.9037 0.047617 33 75 99
-0.096263 1.4383 1.1969 96 132 151
-0.092504 1.4606 1.162 55 101 135
0.19422 1.8957 0.06833 25 58 81
0.18715 1.8855 0.094595 55 95 124
0.14685 1.828 0.24371 42 80 108
0.1552 1.8401 0.21257 54 92 120
0.14169 1.8207 0.26265 29 64 90
0.14169 1.8207 0.26265 29 64 90
-0.29313 1.2232 1.8461 40 80 112
0.10596 1.7701 0.39437 59 98 130
0.096721 1.757 0.42854 34 70 96
0.16529 1.8546 0.17497 64 108 138
0.16529 1.8546 0.17497 64 108 138
-0.10351 1.4791 1.1608 83 136 168
0.1085 1.7765 0.3815 84 122 150
0.060622 1.7135 0.55216 32 64 90
-0.073109 1.54 1.0264 53 90 123
-0.00042544 1.6339 0.76897 35 69 99
-0.00042544 1.6339 0.76897 35 69 99
-0.053929 1.5653 0.95782 14 44 71
-0.034316 1.5904 0.88864 79 119 152
-0.17221 1.4239 1.3628 54 93 127
-0.13274 1.4717 1.227 109 142 172
0.25161 1.9798 -0.14621 0 40 57
0.24128 1.9635 -0.10621 95 129 149
0.23665 1.9666 -0.1006 0 3 15
-0.76177 0.48554 3.6682 46 78 98
-0.76177 0.48554 3.6682 46 78 98
0.22134 1.9358 -0.033215 50 100 122
0.16512 1.8509 0.18057 99 140 159
0.21519 1.9258 -0.0090949 83 114 132
0.07995 1.724 0.50201 9 49 79
-0.53391 0.85907 2.7644 34 71 91
0.045129 1.6729 0.63257 0 5 11
-0.13867 1.3995 1.3272 5 6 10
0.18423 1.8819 0.10477 24 58 85
0.16923 1.8601 0.16072 36 67 94
-0.28946 1.212 1.8525 74 121 157
0.15688 1.8425 0.20632 101 138 164
0.15096 1.8342 0.22792 50 91 116
0.1604 1.8475 0.19317 56 101 130
-0.15534 1.4087 1.3486 117 162 198
-0.12959 1.443 1.2561 102 137 168
-0.11664 1.462 1.2074 62 104 143
0.09342 1.7531 0.43965 82 118 144
0.075993 1.7289 0.50339 12 42 67
0.12554 1.799 0.3207 115 158 182
-0.3064 1.2324 1.8609 38 71 97
0.11193 1.781 0.36923 40 77 105
0.085057 1.7444 0.46653 88 123 148
0.079169 1.7372 0.48682 0 21 45
-0.1033 1.503 1.1309 74 118 154
-0.06436 1.5522 0.99431 106 148 180
-0.10145 1.5062 1.1233 18 49 75
-0.035663 1.5892 0.89276 31 57 82
0.25692 1.9885 -0.16728 0 0 10
-0.88085 0.30732 4.1198 78 111 129
-0.69293 0.47832 3.54 0 0 16
0.21171 1.9213 0.0033409 49 86 107
0.12494 1.7959 0.32575 100 147 176
-0.36319 1.1477 2.0761 83 121 146
-0.065136 1.5298 1.0235 121 168 197
-0.077269 1.5184 1.0611 95 143 181
0.044701 1.691 0.61081 0 3 7
-0.047809 1.5753 0.93354 88 137 173
-0.053279 1.5691 0.95184 3 4 10
0.25169 1.9821 -0.14909 0 4 8
0.25833 1.9975 -0.1807 0 6 14
0.23851 1.9618 -0.098568 27 53 69
0.23639 1.9565 -0.088063 0 14 25
0.22035 1.9323 -0.027211 81 120 145
0.038304 1.6615 0.65992 83 145 178
0.07385 1.7158 0.52395 86 143 177
0.15972 1.8464 0.19593 107 151 175
0.077573 1.7281 0.50133 88 143 175
0.16339 1.8521 0.18169 120 154 180
0.15989 1.8474 0.19421 2 2 9
-0.052506 1.5515 0.97208 90 142 177
-0.12254 1.4602 1.2211 1 7 10
-0.086878 1.5069 1.094 0 5 6
0.1114 1.78 0.37156 85 131 162
0.1114 1.78 0.37156 85 131 162
-0.13267 1.4601 1.241 12 14 22
-0.070226 1.5405 1.0202 113 154 189
0.094068 1.7594 0.43055 1 4 10
-0.18074 1.4141 1.3916 9 24 40
-0.81303 0.42164 3.8471 69 104 122
0.23287 1.9502 -0.07347 101 145 162
0.22165 1.9336 -0.031531 95 133 156
-0.16693 1.355 1.4371 92 143 175
0.16921 1.86 0.16074 108 149 176
0.15313 1.8385 0.21837 0 2 4
0.11696 1.7896 0.34876 1 3 8
-0.064858 1.5458 1.0031 2 4 11
-0.67478 0.65388 3.292 69 110 128
0.19015 1.8898 0.083576 100 147 174
0.18184 1.8777 0.11448 91 143 176
-0.28846 1.2594 1.7926 94 134 163
-0.25927 1.3028 1.6822 91 134 162
0.25477 1.9878 -0.16202 0 2 4
-0.35134 1.1642 2.0326 69 107 133
-0.20842 1.372 1.4975 81 117 151
-0.044667 1.5735 0.92959 65 116 153
0.059674 1.7148 0.55228 84 134 168
0.22314 1.9381 -0.039653 27 41 54
-0.043761 1.5798 0.92017 66 99 133
0.24833 1.9742 -0.13302 81 139 164
0.24833 1.9742 -0.13302 81 139 164
-0.54341 0.86425 2.7769 89 128 147
0.095955 1.7594 0.42685 81 124 155
0.12201 1.7958 0.33139 86 126 155
-0.20241 1.3225 1.5464 1 3 5
0.044286 1.6826 0.62208 71 116 150
0.044286 1.6826 0.62208 71 116 150
-0.11118 1.4809 1.1734 0 2 6
0.058448 1.7076 0.5636 0 0 3
0.058448 1.7076 0.5636 0 0 3
-0.072671 1.5414 1.0239 85 135 169
0.021108 1.6619 0.69256 99 141 171
0.22576 1.9396 -0.04675 93 149 176
-0.44263 0.98634 2.4296 66 102 130
0 0 0 1 0 0 0 1 0 0 0 1 0 0 0 0 0 227 1 0 0
