ply
format ascii 1.0
comment PCL generated
element vertex 227
property float x
property float y
property float z
property uchar red
property uchar green
property uchar blue
element camera 1
property float view_px
property float view_py
property float view_pz
property float x_axisx
property float x_axisy
property float x_axisz
property float y_axisx
property float y_axisy
property float y_axisz
property float z_axisx
property float z_axisy
property float z_axisz
property float focal
property float scalex
property float scaley
property float centerx
property float centery
property int viewportx
property int viewporty
property float k1
property float k2
end_header
1.36 -0.47834 10.335 3 3 6
1.3368 -0.40297 10.345 34 70 92
1.4282 0.13162 10.888 102 142 172
-0.12741 0.83208 11.222 16 2 5
-0.98505 -0.61485 10.606 43 148 3
1.3605 -0.5398 10.311 27 87 31
0.14223 -0.46629 10.493 131 0 1
0.052727 -0.45891 10.501 18 3 0
1.3467 -0.42773 10.342 81 121 142
0.089508 -0.4178 10.475 2 0 0
0.31589 -0.41039 10.439 5 33 83
-0.61338 -0.38384 10.612 48 82 102
1.7504 -0.15885 10.872 6 5 0
1.4191 -0.12603 10.89 1 0 0
1.1594 0.075486 10.933 1 51 23
1.1594 0.075486 10.933 28 60 87
1.1594 0.075486 10.933 28 60 87
1.004 0.082667 10.964 55 30 0
-0.39181 0.15339 11.232 96 133 166
-0.39663 0.20032 11.238 15 34 11
-0.32257 0.20332 11.222 56 98 130
-0.32257 0.20332 11.222 56 98 130
-0.32257 0.20332 11.222 129 27 3
-0.45467 0.20683 11.245 33 7 1
-0.095379 0.22246 11.186 12 55 16
0.28125 0.22351 11.134 47 0 0
0.098511 0.85496 11.179 69 60 5
-1.084 0.87175 11.218 9 24 6
0.30486 0.88072 11.165 22 2 0
0.28516 0.91471 11.176 6 11 41
-1.0341 -0.7281 10.614 36 69 88
1.3911 -0.5604 10.315 13 10 34
1.3289 -0.45147 10.348 2 2 58
1.3289 -0.45149 10.346 12 9 71
1.3754 -0.4528 10.338 17 7 1
1.3754 -0.4528 10.338 7 0 0
-0.83755 -0.45028 10.57 15 38 54
0.28802 -0.43443 10.439 5 0 0
0.74957 -0.41602 10.272 31 0 1
0.74957 -0.41602 10.272 2 0 4
-0.51779 -0.40487 10.595 88 124 143
1.1731 -0.18445 10.916 3 0 7
-0.93102 -0.1545 10.561 7 66 1
1.2434 -0.107 10.915 31 62 89
1.3888 -0.10186 10.893 19 16 4
1.3878 -0.10175 10.888 19 100 112
1.327 0.0072006 10.899 3 113 9
1.0328 0.050738 10.962 4 7 36
1.4205 0.080437 10.888 40 69 10
1.4503 0.08787 10.877 26 19 76
0.79261 0.16263 10.997 3 43 7
1.4472 0.16482 10.915 9 2 11
-0.20539 0.18023 11.207 31 36 5
0.31977 0.19152 11.127 19 1 6
0.31977 0.19152 11.127 66 131 32
-0.36965 0.22176 11.23 8 112 40
-0.36965 0.22176 11.23 11 3 1
0.33869 0.2238 11.122 1 0 27
0.56513 0.8374 11.152 26 159 58
-0.20189 0.85544 11.2 33 20 86
-0.12486 0.89142 11.209 123 111 9
-0.99686 -0.46332 10.603 20 130 13
-0.97089 -0.29733 10.576 33 59 80
-1.1424 0.16532 10.865 5 6 116
1.928 0.24124 10.942 7 125 17
1.928 0.24124 10.942 21 47 11
1.4329 -0.54803 10.282 2 26 36
1.394 -0.51505 10.299 1 0 76
-1.1616 -0.42406 10.62 13 16 2
1.934 0.070976 10.914 10 15 16
-0.016105 0.32607 11.291 11 24 11
2.0177 -0.6758 10.589 14 0 1
2.1086 -0.60519 10.7 20 25 36
1.492 -0.50046 10.227 88 0 0
2.1139 -0.61267 10.69 7 25 126
-0.20591 0.064932 11.327 3 34 58
-0.51138 1.0912 11.418 80 9 0
-1.1105 0.27045 10.849 65 12 1
1.1567 0.79514 11.205 16 4 1
1.1567 0.79514 11.205 9 66 43
-1.1109 -0.12317 10.659 16 17 17
-1.2353 0.063246 10.651 1 1 12
1.8514 0.19728 10.981 14 46 14
1.8514 0.19728 10.981 57 1 1
1.4158 0.52493 11.097 12 106 26
-0.34718 0.5362 11.384 19 9 9
-0.24428 0.89869 11.397 23 2 25
0.45721 0.88727 11.24 13 13 9
0.065824 4.0193 0.32398 59 102 122
0.039729 4.0244 0.32104 63 106 129
0.064126 4.032 0.30679 53 78 97
0.038645 4.0333 0.30912 77 122 151
0.042088 4.0363 0.30287 31 62 91
0.059085 4.0552 0.27118 98 139 165
0.059085 4.0552 0.27118 98 139 165
0.05851 4.0579 0.26672 92 135 162
0.03288 4.0566 0.27771 60 99 133
0.054549 4.0671 0.24976 76 116 146
0.033544 4.0785 0.23682 70 114 147
0.038467 4.0837 0.2199 71 111 146
0.066857 4.0137 0.33132 51 94 109
0.066857 4.0137 0.33132 51 94 109
0.052046 4.0208 0.32151 91 133 154
0.015839 4.0056 0.36377 64 97 116
1.3108 -0.42195 10.348 81 113 130
0.76295 -0.3436 10.278 33 75 99
-0.04719 -0.37501 10.518 96 132 151
-0.059904 -0.37771 11.227 55 101 135
1.8653 -0.23602 10.915 25 58 81
1.749 -0.15905 10.875 55 95 124
1.1651 0.025591 10.932 42 80 108
1.3483 0.055579 10.903 54 92 120
1.1588 0.077068 10.934 29 64 90
1.1588 0.077068 10.934 29 64 90
-0.75483 0.14448 11.059 40 80 112
0.87753 0.21076 10.97 59 98 130
0.79806 0.21032 11.009 34 70 96
1.896 0.20645 10.911 64 108 138
1.896 0.20645 10.911 64 108 138
-0.19652 0.24833 11.222 83 136 168
1.1654 0.52061 10.953 84 122 150
0.79068 0.80204 11.035 32 64 90
-0.22612 0.88038 11.213 53 90 123
0.28376 0.91474 11.167 35 69 99
0.28376 0.91474 11.167 35 69 99
-0.10991 0.92647 11.209 14 44 71
0.028862 0.93125 11.186 79 119 152
-1.0219 1.0131 11.202 54 93 127
-0.72618 1.053 11.171 109 142 172
1.8811 -0.85951 10.551 0 40 57
2.009 -0.76981 10.608 95 129 149
0.44874 -0.5845 10.503 0 3 15
-0.99687 -0.46787 10.612 46 78 98
-0.99687 -0.46787 10.612 46 78 98
1.0023 -0.42838 10.28 50 100 122
0.28985 -0.43411 10.439 99 140 159
1.1487 -0.38634 10.322 83 114 132
0.29556 -0.37502 11.172 9 49 79
-0.9306 -0.1555 10.563 34 71 91
0.2383 -0.31836 11.295 0 5 11
-0.15251 -0.32209 11.424 5 6 10
1.4321 -0.22582 10.891 24 58 85
1.3377 -0.10661 10.902 36 67 94
-0.61427 -0.04382 11.26 74 121 157
1.4201 0.080031 10.892 101 138 164
1.4445 0.17263 10.885 50 91 116
1.6998 0.20149 10.848 56 101 130
-0.37025 0.21997 11.234 117 162 198
-0.28228 0.22567 11.218 102 137 168
-0.2483 0.25666 11.239 62 104 143
0.82689 0.29715 10.985 82 118 144
0.70637 0.30049 11.141 12 42 67
1.2192 0.32657 10.935 115 158 182
-1.1132 0.42614 10.868 38 71 97
1.1874 0.48945 10.956 40 77 105
0.93214 0.57376 11.019 88 123 148
0.92138 0.66326 11.027 0 21 45
-0.43805 0.90355 11.248 74 118 154
-0.18205 0.92922 11.21 106 148 180
-0.44228 0.93783 11.247 18 49 75
0.013055 0.9583 11.202 31 57 82
1.9536 -0.97349 10.647 0 0 10
-1.1819 -0.61125 10.666 78 111 129
-0.30813 -0.57226 10.664 0 0 16
0.83295 -0.37979 10.242 49 86 107
0.87287 0.0019877 10.989 100 147 176
-1.1413 0.23869 10.885 83 121 146
-0.047745 0.22135 11.18 121 168 197
-0.1209 0.3319 11.343 95 143 181
0.62606 0.71289 11.199 0 3 7
-0.095245 1.0258 11.337 88 137 173
-0.14866 1.0586 11.373 3 4 10
1.3033 -0.67483 10.335 0 4 8
0.77817 -0.62433 10.315 0 6 14
1.2518 -0.57046 10.354 27 53 69
1.4331 -0.54832 10.293 0 14 25
1.4049 -0.40953 10.319 81 120 145
0.19849 -0.35341 11.284 83 145 178
0.30973 -0.3497 11.257 86 143 177
1.3995 0.033512 10.894 107 151 175
0.58735 0.084664 11.132 88 143 175
1.9251 0.24119 10.949 120 154 180
1.9356 0.28908 11.004 2 2 9
-0.012039 0.3235 11.344 90 142 177
-0.32615 0.36297 11.411 1 7 10
-0.17213 0.36434 11.377 0 5 6
1.1455 0.45078 10.955 85 131 162
1.1455 0.45078 10.955 85 131 162
-0.53012 0.6938 11.369 12 14 22
-0.17633 0.75479 11.28 113 154 189
1.2353 0.81886 11.189 1 4 10
-1.1052 1.0231 11.169 9 24 40
-1.1601 -0.51403 10.603 69 104 122
1.4915 -0.50472 10.243 101 145 162
2.0698 -0.51518 10.648 95 133 156
-0.18927 -0.34899 11.38 92 143 175
1.9227 0.15544 10.91 108 149 176
1.8737 0.30767 11.193 0 2 4
1.4666 0.62114 11.258 1 3 8
-0.13452 0.6992 11.305 2 4 11
-1.1548 -0.33394 10.616 69 110 128
1.6614 -0.20522 10.823 100 147 174
1.9246 -0.036476 10.896 91 143 176
-1.1147 0.49906 10.872 94 134 163
-1.1097 0.62352 10.899 91 134 162
1.2653 -0.70169 10.369 0 2 4
-1.1132 0.26666 10.871 69 107 133
-1.0388 0.77211 11.194 81 117 151
-0.023277 0.77035 11.252 65 116 153
0.89093 1.0236 11.313 84 134 168
1.1272 -0.44213 10.31 27 41 54
-0.055266 0.98965 11.342 66 99 133
1.946 -0.8347 10.556 81 139 164
1.946 -0.8347 10.556 81 139 164
-1.1039 -0.11229 10.559 89 128 147
1.046 0.56974 10.975 81 124 155
1.4338 0.51633 11.163 86 126 155
-0.35273 -0.1429 11.416 1 3 5
0.45327 0.20526 11.225 71 116 150
0.45327 0.20526 11.225 71 116 150
-0.36197 0.53462 11.395 0 2 6
0.68452 0.54787 11.195 0 0 3
0.68452 0.54787 11.195 0 0 3
-0.23691 0.9024 11.329 85 135 169
0.46065 0.88916 11.231 99 141 171
1.769 -0.49768 10.433 93 149 176
-0.75959 -0.094668 10.626 66 102 130
0 0 0 1 0 0 0 1 0 0 0 1 0 0 0 0 0 227 1 0 0
