ply
format ascii 1.0
comment PCL generated
element vertex 709
property float x
property float y
property float z
property uchar red
property uchar green
property uchar blue
element camera 1
property float view_px
property float view_py
property float view_pz
property float x_axisx
property float x_axisy
property float x_axisz
property float y_axisx
property float y_axisy
property float y_axisz
property float z_axisx
property float z_axisy
property float z_axisz
property float focal
property float scalex
property float scaley
property float centerx
property float centery
property int viewportx
property int viewporty
property float k1
property float k2
end_header
0.61146 -0.39247 10.194 9 1 5
0.58746 -0.35204 10.206 3 2 73
0.69446 -0.32871 10.153 2 102 84
0.80177 -0.31934 10.031 70 50 31
0.79473 -0.78488 10.485 18 71 21
-0.32693 -0.765 10.759 124 20 16
0.97375 -0.56818 10.277 14 57 67
0.63116 -0.46622 10.225 140 109 55
1.2602 -0.4522 9.9039 18 124 31
0.35356 -0.42357 10.229 23 9 47
0.25124 -0.40575 10.246 28 29 6
-0.040151 -0.38558 10.268 82 32 5
0.2452 -0.37837 10.244 16 3 5
1.2638 -0.36954 9.946 4 7 31
0.24846 -0.35614 10.246 193 149 82
0.57287 -0.33238 10.21 59 24 6
0.57287 -0.33238 10.21 8 92 104
1.32 -0.38953 10.401 5 10 2
2.057 -0.29209 12.284 1 0 2
1.5559 -0.3166 10.605 51 17 0
1.685 -0.22084 10.001 21 39 8
1.2388 -0.2053 9.7463 32 4 23
0.57961 -0.10942 9.8011 11 38 95
1.3855 -0.11212 9.3127 10 42 36
0.68694 -0.064467 9.6864 1 177 10
-0.31923 -0.043753 9.869 255 222 161
0.45943 -0.013476 9.7867 180 132 73
0.56523 -0.0050609 9.7712 168 132 72
1.19 0.01606 9.5664 147 116 68
0.65964 0.026512 9.721 14 7 18
1.2124 0.041454 9.5764 170 141 102
0.50141 0.027854 9.7964 24 6 7
1.1467 0.13312 9.8041 68 67 0
1.404 0.1379 9.5228 12 3 5
1.4016 0.13834 9.5059 6 110 5
1.2143 0.16427 9.5563 9 31 122
1.4242 0.21567 9.7019 28 82 1
1.3883 0.21776 9.6573 128 12 0
1.1046 0.22665 9.8514 32 43 4
1.4091 0.18474 9.6962 6 29 24
-0.86683 0.33097 9.8488 5 147 0
0.69142 0.37338 10.032 4 0 0
0.92293 0.37783 10.02 3 10 6
0.92312 0.37777 10.02 146 108 59
1.3512 0.19652 9.5386 1 17 30
1.1812 0.41028 9.9913 130 91 42
1.259 0.43807 9.9659 36 50 14
1.1853 0.44866 10.023 5 5 2
1.5535 0.49276 9.9835 39 6 4
1.431 0.55024 10.043 113 72 27
-1.3116 -1.3589 12.594 11 4 6
0.30779 -0.84072 10.732 7 1 1
0.13322 -0.74245 10.698 58 61 2
-0.3103 -0.73704 10.759 21 14 30
0.81881 -0.71367 10.519 19 6 0
1.2202 -0.55551 10.222 1 2 132
1.242 -0.53296 10.181 4 59 2
1.262 -0.48958 10.118 1 0 13
0.81887 -0.48191 10.21 1 4 4
0.21646 -0.61418 10.123 43 17 5
0.45467 -0.44558 10.236 1 12 26
0.45467 -0.44558 10.236 254 230 168
-0.24724 -0.43064 10.295 81 123 0
0.48671 -0.42313 10.218 37 52 68
0.62256 -0.41457 10.196 86 16 0
-0.26317 -0.40453 10.291 66 3 8
-0.030769 -0.40538 10.268 14 6 1
-0.30175 -0.40312 10.298 15 0 0
0.1743 -0.4018 10.239 17 48 2
1.3928 -0.34146 9.8563 7 2 22
1.3411 -0.29245 9.4923 8 80 5
1.2343 -0.27116 9.9061 1 1 9
1.3167 -0.32281 10.379 23 116 46
0.46965 -0.14248 9.4827 205 170 109
1.2723 -0.10573 9.4447 75 0 0
0.21934 -0.050153 9.8064 17 24 46
0.55304 -0.027615 9.7647 26 16 0
1.1544 -0.013976 9.586 176 138 86
0.28527 0.25368 10.187 215 184 127
1.4651 0.16803 9.3903 1 0 0
1.1686 0.20802 9.8274 115 21 5
1.4832 0.2447 9.8044 18 0 1
1.2064 0.25868 9.4809 106 18 0
1.5327 0.26746 9.48 20 67 54
1.7558 0.31852 9.7514 9 135 2
0.98555 0.35609 9.9596 237 200 148
1.1797 0.31568 9.4396 5 1 1
1.548 0.35851 9.7012 4 0 1
1.4022 0.14118 9.5147 3 125 23
1.1158 0.39546 9.988 4 0 3
1.1512 0.39484 9.9863 6 23 4
1.4985 0.48608 9.9895 60 4 1
1.132 0.55601 10.128 59 27 1
-0.49353 -1.0793 10.85 1 1 33
0.74455 -0.89622 10.675 4 5 15
0.30781 -0.84208 10.74 16 0 2
-0.88307 -0.67723 10.15 27 33 6
0.54366 -0.48983 10.276 2 17 25
0.52227 -0.39355 10.204 8 121 2
0.22622 -0.7529 10.59 2 1 1
1.1746 -0.3853 10.041 3 66 17
0.79571 -0.041701 9.6848 22 24 19
-0.086612 -0.026095 9.843 34 29 10
0.64176 -0.0071517 9.7229 255 254 192
0.59726 0.048549 9.8288 1 140 4
0.30579 0.20039 10.925 25 10 6
1.2053 0.29805 9.9016 24 0 0
0.73829 0.34332 10.012 8 3 2
1.2065 0.34363 9.9319 35 0 0
1.2085 0.39747 9.9656 71 17 11
1.2151 0.50668 10.047 114 91 15
1.4651 0.5562 10.055 118 81 10
-0.62835 -1.1116 10.804 19 14 24
0.81089 -0.99743 10.664 16 4 0
-0.38887 -0.94664 10.872 50 44 1
0.5837 -0.873 10.734 9 75 116
-0.065825 -0.87686 10.851 4 42 75
0.48754 0.29482 10.172 24 99 87
-0.95964 -0.61784 10.662 4 1 1
1.0215 -0.50885 10.179 86 41 1
1.3221 -0.45649 9.9188 22 126 12
1.3221 -0.45649 9.9188 37 119 11
-0.94257 -0.33969 9.6032 241 207 146
1.7181 -0.0086464 9.769 3 0 0
0.45028 0.23655 9.3278 12 11 12
0.69549 0.34003 10.025 55 120 13
1.0306 0.36692 9.9797 56 52 16
1.0922 0.36688 9.9804 11 27 9
1.3111 0.35873 9.7532 61 3 2
-0.015451 0.31556 8.9945 218 172 108
-0.06439 0.34371 9.2659 27 6 5
-0.96608 -0.11387 9.4942 19 13 7
0.43848 0.24187 7.7251 11 43 5
1.1862 0.53432 10.084 57 18 17
1.1885 0.53431 10.095 10 124 10
1.5087 0.54429 10.036 131 0 0
1.556 0.54319 10 6 1 0
1.7142 0.011169 9.7486 78 130 15
1.4297 0.59982 10.08 1 0 1
-0.57175 -1.1043 10.859 7 3 33
1.5577 -0.55439 10.063 2 2 1
1.5854 -0.49388 10.049 129 57 8
-0.91484 -0.48024 9.7983 215 184 127
0.30502 -0.39938 10.239 3 10 17
1.6721 -0.10873 9.8305 121 9 1
1.3444 -0.066822 9.3074 11 16 25
1.3445 -0.066924 9.3078 18 22 33
0.95619 0.11718 9.7432 23 1 0
1.305 0.27876 9.67 19 8 1
1.0514 0.53161 10.107 19 9 0
-0.60981 0.61589 10.305 251 216 161
-0.4304 0.35468 7.8114 10 0 0
-0.6772 0.66949 10.298 31 21 15
-0.6772 0.66949 10.298 82 126 36
-0.83446 0.71205 10.158 240 205 150
-0.51809 -1.024 10.836 2 1 2
1.2037 -0.70112 10.41 2 0 2
1.5396 -0.67752 10.03 12 0 0
1.3936 -0.030386 9.2908 239 210 146
1.7718 0.36825 9.746 154 7 0
-0.49692 0.5433 10.369 24 33 18
-0.096808 -0.84706 10.855 4 3 1
0.055341 -0.85244 10.859 212 178 105
0.77872 0.60025 10.183 41 11 26
-0.93224 -0.17796 9.4308 51 5 14
0.64499 -0.96702 10.703 10 7 36
0.60759 0.56412 10.312 1 2 26
1.7907 -1.1539 15.235 58 0 0
-0.57849 -0.09997 10.042 255 226 155
-0.57914 -0.10023 10.048 3 2 96
1.0448 0.025002 9.8755 63 41 8
0.3306 -0.77713 10.679 215 176 110
0.27503 -0.75842 10.688 178 139 72
0.34626 -0.75759 10.672 180 138 72
0.32852 -0.74198 10.68 213 177 114
0.59837 -0.72102 10.64 155 118 55
0.11287 -0.4604 10.277 243 197 126
0.11287 -0.4604 10.277 243 197 126
-0.1887 -0.40566 10.286 168 120 54
0.21893 -0.40434 10.242 247 208 139
0.62221 -0.37656 10.193 166 127 63
-0.20447 -0.36907 10.29 199 155 78
0.59947 -0.33173 10.208 147 108 56
1.0263 -0.19022 9.832 227 188 131
-0.33233 -0.030391 9.8837 201 167 115
1.3125 0.025064 9.4255 163 137 100
1.4102 0.050944 9.3072 187 165 111
-0.16715 -0.0083043 9.8655 201 159 96
1.3745 0.068804 9.4172 134 114 84
0.55096 0.013621 9.7838 239 205 146
-0.71645 0.062399 9.8218 246 202 144
-0.71629 0.062505 9.8217 237 194 133
-0.083802 0.022889 9.8851 208 175 138
1.158 0.055253 9.6686 137 106 52
1.158 0.055253 9.6686 137 106 52
0.10515 0.045041 9.9321 226 191 137
0.94188 0.081307 9.7273 203 176 134
0.96737 0.082196 9.722 219 187 137
1.0656 0.077204 9.7449 181 142 88
-0.60636 0.11419 9.958 246 206 149
-0.60706 0.11384 9.9594 248 209 154
1.3583 0.12676 9.6789 85 54 17
1.3539 0.14145 9.7038 182 147 95
1.3729 0.15381 9.6825 100 68 27
1.3739 0.17004 9.7232 170 134 89
1.3601 0.17847 9.7352 129 94 44
1.2834 0.22532 9.6235 183 156 108
1.3668 0.19789 9.7527 141 105 51
1.4014 0.21533 9.7574 160 126 83
-0.54691 0.2303 10.065 176 131 76
1.1009 0.2237 9.8395 238 201 138
1.3572 0.22828 9.7807 148 108 58
1.3573 0.22843 9.7806 146 109 58
-0.86634 0.33232 9.8404 171 133 83
1.4327 0.27321 9.7195 220 173 99
0.91427 0.26797 9.9472 161 122 71
1.031 0.29498 9.9455 239 194 123
1.0908 0.29616 9.9319 227 185 121
0.14742 0.2217 10.557 247 195 124
1.526 0.35126 9.9312 71 40 11
-0.49921 0.38142 10.19 163 120 73
-0.49921 0.38142 10.19 163 120 73
0.94092 0.35966 10.028 239 197 144
1.4336 0.4234 9.6478 158 123 84
1.2274 0.26668 9.8078 132 97 53
0.95399 0.39785 10.013 181 140 84
-0.39562 0.39986 10.276 185 140 81
-0.39581 0.39992 10.276 185 140 81
0.57294 0.39372 10.13 255 217 155
-0.09248 0.39971 10.241 175 131 69
-0.09248 0.39971 10.241 175 131 69
1.5439 0.40763 9.9079 73 43 13
-0.83974 0.50403 9.9796 217 177 126
-0.83956 0.50458 9.9774 217 177 126
1.4035 0.43979 9.9533 199 157 107
0.66552 0.45013 10.092 250 210 149
0.55752 0.4518 10.163 255 215 166
0.67892 0.4658 10.103 202 159 103
1.6111 0.48103 9.946 50 30 3
0.52701 -0.75961 10.647 168 129 65
0.010375 -0.74363 10.723 172 129 66
1.2671 -0.53726 10.15 79 55 23
1.1945 -0.558 10.243 103 74 34
1.2563 -0.42806 10.044 98 73 31
-0.44954 -0.43049 10.319 209 164 97
0.07245 -0.43021 10.263 202 160 85
1.2585 -0.41172 10.08 100 74 35
0.55514 -0.41577 10.205 180 140 79
0.0036202 -0.40584 10.26 255 217 145
-0.26319 -0.37249 10.307 214 169 98
1.5749 -0.5575 10.862 44 27 6
0.66461 -0.060302 9.7146 220 181 112
-0.49923 -0.025678 9.8927 188 148 91
1.3321 0.034373 9.3993 84 59 18
0.3309 -0.025484 9.7998 231 197 128
1.3584 0.044879 9.3899 190 164 124
0.45822 -0.013912 9.7876 174 129 69
1.384 0.065845 9.3758 78 59 23
0.22175 -0.0030167 9.8536 167 132 66
0.45529 0.0067904 9.793 255 223 154
-0.21832 0.013059 9.893 255 234 173
0.89081 0.02187 9.693 240 205 140
-0.11729 0.017291 9.895 212 178 121
0.3952 0.019959 9.811 186 144 80
0.91902 0.033661 9.6844 160 126 68
0.87507 0.034684 9.7217 142 107 51
0.87507 0.034684 9.7217 142 107 51
1.1988 0.046509 9.6337 129 98 51
0.56195 0.036322 9.7922 148 111 58
-0.18759 0.033458 9.9579 226 196 146
-0.16008 0.03362 9.9594 222 194 144
0.50823 0.040391 9.8295 201 165 103
0.0068808 0.043176 9.935 226 200 152
0.92068 0.073843 9.6997 120 89 42
1.2267 0.15473 9.4935 78 55 19
-0.80671 0.17612 9.8109 179 134 83
1.1688 0.11726 9.7996 110 76 27
0.96754 0.13507 9.7753 115 78 27
0.94101 0.15866 9.8119 163 124 67
0.90506 0.1936 9.8698 152 116 60
-0.62582 0.23576 9.9782 255 228 166
0.90866 0.2385 9.8993 187 147 88
0.9465 0.24191 9.8942 174 136 74
1.0158 0.24767 9.8738 183 141 85
1.0158 0.24767 9.8738 183 141 85
0.94804 0.28254 9.9476 154 117 64
-0.44474 0.28684 10.266 224 177 115
-0.6148 0.34431 10.061 187 141 86
-0.37562 0.31822 10.25 255 246 173
-0.058547 0.32024 10.208 255 255 176
1.4965 0.33208 9.86 63 34 5
-0.71537 0.38499 10.094 255 228 168
0.58546 0.33338 10.131 220 176 109
0.58537 0.3325 10.136 227 178 112
-0.1729 0.34518 10.226 241 193 122
-0.1729 0.34518 10.226 241 193 122
-0.45423 0.35506 10.257 192 143 91
-0.70078 0.39716 10.105 217 168 108
-0.44825 0.37885 10.262 255 220 149
0.67078 0.37306 10.078 208 169 108
1.1312 0.37388 9.9788 136 98 53
-0.6087 0.41955 10.127 180 139 92
-0.60848 0.41951 10.127 180 139 92
-0.41803 0.38311 10.277 255 232 169
0.15839 0.4067 10.208 177 127 66
0.55669 0.40996 10.131 195 145 89
-0.098948 0.4188 10.26 255 239 163
1.4188 0.42574 9.9444 139 102 49
1.4447 0.42818 9.9572 181 141 93
1.4447 0.42818 9.9572 181 141 93
0.96024 0.43234 10.039 185 146 85
1.5545 0.429 9.9276 60 33 4
0.59271 0.43657 10.139 177 137 87
0.59283 0.43477 10.148 177 137 87
0.59283 0.43477 10.148 177 137 87
1.4268 0.44906 9.9703 116 79 31
1.4271 0.44881 9.9712 116 79 31
1.256 0.48438 9.9931 157 123 87
0.94092 0.49809 10.12 218 174 116
0.574 0.49172 10.3 143 128 108
1.0833 0.51401 10.095 220 190 139
1.2599 0.53017 10.038 120 97 70
-0.52749 0.56624 10.343 167 121 64
-0.52782 0.56573 10.346 167 121 64
0.96603 0.56991 10.158 104 73 39
-0.65702 0.63765 10.315 234 190 137
1.1193 -0.55352 10.248 130 97 48
0.12398 -0.42881 10.258 198 153 80
0.16256 -0.43032 10.252 203 164 94
0.35058 -0.39913 10.226 255 224 157
0.35058 -0.39913 10.226 255 224 157
-0.79551 -0.041857 9.6364 255 226 159
-0.47916 -0.092952 9.8563 255 237 180
1.2971 -0.016833 9.3829 88 61 15
1.2904 -0.0010687 9.4125 200 170 115
-0.48361 -0.047504 9.884 255 229 152
0.26709 -0.050096 9.8049 255 232 158
0.3547 -0.044974 9.7988 255 255 196
-0.25856 -0.035707 9.8638 255 246 177
-0.45871 -0.023057 9.8898 215 172 104
0.32579 -0.0013288 9.8088 255 255 201
1.2288 0.032114 9.5452 64 40 9
-0.0248 0.0059496 9.8534 148 110 68
1.4458 0.08364 9.3172 173 146 87
-0.16804 0.0082283 9.888 253 213 150
-0.92165 0.10168 9.6686 154 110 51
1.127 0.053658 9.6843 210 177 113
0.54179 0.31899 8.6847 16 6 0
0.92201 0.10707 9.8005 204 171 117
1.1921 0.14524 9.7678 206 173 121
1.1694 0.15007 9.8031 88 54 9
1.1694 0.15038 9.8022 84 53 9
1.1468 0.17278 9.8067 246 211 145
1.2195 0.18108 9.7656 119 85 44
0.92461 0.17483 9.8614 242 203 139
0.94378 0.20281 9.8693 168 134 78
1.4087 0.22695 9.7812 163 127 82
1.0375 0.26875 9.894 238 201 136
-0.87332 0.34923 9.8469 255 232 173
1.6019 0.33866 9.5247 131 104 56
1.1802 0.31541 9.9259 107 71 28
1.1803 0.31687 9.9202 107 71 28
-0.43844 0.31857 10.245 255 231 157
-0.38519 0.34217 10.247 224 170 106
0.78566 0.34299 10.037 203 155 98
-0.31949 0.34509 10.238 233 182 115
-0.31993 0.34476 10.239 233 182 115
-0.29263 0.34504 10.236 234 183 116
-0.22124 0.64819 8.6662 234 183 116
-0.13065 0.34282 10.218 242 192 124
0.04952 0.33276 10.227 225 178 114
0.15087 0.3497 10.18 247 195 124
-0.61918 0.39975 10.113 255 217 158
0.43182 0.36488 10.145 228 178 108
1.2781 0.38828 9.903 105 75 37
1.6696 0.42942 9.606 69 49 20
0.22935 0.38248 10.183 255 251 171
-0.45594 0.39955 10.28 123 82 47
0.53055 0.39548 10.138 255 235 169
0.67264 0.40801 10.07 208 165 107
0.937 0.41082 10.034 244 201 142
1.1806 0.41089 9.9886 119 82 32
1.2382 0.42341 9.9413 137 101 54
0.92919 0.45069 10.065 117 80 39
1.4913 0.45657 9.9448 133 97 48
1.4913 0.45601 9.9452 132 94 47
1.0508 0.48628 10.049 236 193 125
1.4233 0.50497 10.006 106 73 26
-0.57685 0.54731 10.339 175 131 84
-0.8423 0.6716 10.116 159 118 72
-0.8423 0.6716 10.116 159 118 72
0.83141 -0.54968 10.285 125 97 47
1.2966 -0.13978 9.4019 64 43 11
1.2966 -0.13978 9.4019 64 43 11
1.2608 -0.043909 9.3961 238 206 143
-0.44471 -0.090454 9.8788 141 98 46
-0.4447 -0.090173 9.878 141 98 46
1.3558 -0.010204 9.3073 162 136 78
1.3302 -0.007353 9.3549 234 208 147
-0.43362 -0.048403 9.8772 255 246 162
-0.43341 -0.048467 9.8774 255 246 162
1.3709 0.022834 9.3366 138 114 62
1.1644 0.019249 9.592 203 170 111
1.3274 0.047098 9.5407 71 48 19
-0.88645 0.12115 9.6765 255 243 176
1.3969 0.14742 9.6085 43 27 1
0.70813 0.17935 9.8417 20 10 0
1.1949 0.19 9.7916 214 179 123
1.2063 0.25304 9.8569 214 176 119
0.97861 0.29634 9.9185 234 194 133
1.2047 0.29798 9.9017 215 176 121
0.95801 0.30982 9.9809 156 118 71
1.2781 0.34727 9.8588 79 50 18
1.2764 0.34874 9.8534 79 50 18
-0.37505 0.37445 10.255 255 230 152
-0.095208 0.37557 10.224 255 245 174
1.2083 0.39735 9.9662 220 179 122
1.529 0.51266 10.003 185 158 113
1.6395 0.51898 9.9683 7 1 0
0.95545 0.59016 10.202 224 188 147
0.91218 -0.033661 9.6806 255 217 141
1.4084 0.07917 9.3216 229 207 151
1.2327 0.041203 9.533 90 70 34
1.3531 0.086561 9.582 55 33 12
1.2603 0.24188 9.6847 89 64 28
-0.8794 0.32282 9.8123 160 120 71
-0.87824 0.32315 9.8133 181 139 86
1.5646 0.32641 9.6598 27 14 0
0.69612 0.33961 10.027 120 87 53
-0.56584 0.36233 10.18 195 149 98
1.1774 0.37364 9.9691 93 60 20
1.7233 0.40742 9.7036 168 151 129
1.3925 0.39924 9.9088 206 165 108
1.3064 0.4313 9.7926 191 159 108
1.6203 0.43209 9.705 27 14 3
1.6696 0.45272 9.6524 134 119 84
-0.61257 0.45421 10.164 255 234 176
1.5264 0.46484 9.9511 183 146 93
0.64738 0.4837 10.12 210 173 120
-0.56822 0.52808 10.296 192 146 93
1.594 0.50811 9.9954 172 145 103
1.0442 0.52166 10.079 37 19 3
1.5157 0.54248 10.042 10 2 0
0.71276 0.54571 10.142 233 202 160
-0.79089 -1.084 10.712 182 160 105
-0.57123 -1.1058 10.863 15 6 3
0.66176 -0.85011 10.675 190 156 88
-0.74535 0.080876 9.8223 193 155 108
1.4054 0.11077 9.4242 31 20 3
-0.47231 0.2408 10.228 195 158 106
0.63418 0.30011 10.14 252 208 144
1.0542 0.32575 9.9331 219 177 113
1.1301 0.33483 9.9084 202 162 104
1.1301 0.33483 9.9084 202 162 104
1.4715 0.34837 9.8935 172 136 83
-0.49847 0.42851 10.274 250 209 153
-0.44288 -1.0333 10.914 17 6 2
-0.44183 -1.0251 10.891 17 6 2
-0.31902 -0.91742 10.834 14 7 0
0.92336 -0.88743 10.609 10 4 1
1.0663 -0.80654 10.468 151 133 95
1.3495 -0.16 9.3295 211 181 116
-0.78977 0.03834 9.6752 255 223 159
1.7828 0.2122 9.8136 146 120 80
0.63057 0.30734 10.142 255 212 143
-0.5921 1.1637 7.2804 255 244 170
-0.68207 0.67059 10.339 23 15 8
1.2046 -0.6676 10.363 138 110 63
1.3182 0.15432 9.6781 201 163 103
1.4543 -0.66996 10.034 169 150 101
1.4014 0.14356 9.507 173 148 112
1.1348 0.47715 10.023 238 193 122
1.6586 0.28016 9.5693 182 153 104
1.4343 0.47819 9.9901 175 142 88
1.1826 0.64342 10.16 1 0 0
0.79414 0.43179 10.133 226 178 116
-0.22194 -1.1381 10.894 6 1 0
-0.70716 0.39 10.159 225 175 114
1.0422 -0.043532 10.197 202 164 103
-0.7201 0.034165 9.8002 236 197 141
-0.70027 0.046188 9.8097 199 155 94
0.49547 0.0086086 9.7887 233 199 131
-0.50819 0.029336 9.9462 223 191 143
-0.16944 0.023256 9.9298 91 59 8
-0.16902 0.023336 9.9295 91 59 8
0.16244 0.03296 9.8641 227 198 142
0.88427 0.054202 9.7417 113 82 36
0.1967 0.037847 9.894 80 52 16
0.066287 0.02978 9.9925 85 70 48
1.3501 0.09962 9.6271 126 102 72
0.34163 0.0543 9.9008 207 179 138
1.0166 0.074686 9.7526 190 155 95
1.3365 0.099662 9.6483 84 53 11
-0.76529 0.17176 9.8124 165 129 75
1.2878 0.17563 9.5612 127 98 49
1.3824 0.17701 9.6799 76 44 12
-0.68058 0.22733 9.9734 255 207 138
-0.54692 0.23001 10.065 175 131 70
0.93262 0.26719 9.9351 232 196 140
1.4724 0.32228 9.8474 156 122 87
-0.63893 0.38365 10.098 215 169 105
0.96207 0.37518 9.9829 141 101 52
-0.70769 0.42419 10.134 196 148 100
1.275 0.41833 9.9258 99 70 32
0.67817 0.43327 10.082 212 172 112
0.51881 0.4215 10.152 176 134 75
0.94972 0.44569 10.054 215 180 127
-0.77959 0.5427 10.115 211 166 110
0.679 0.46573 10.104 192 152 92
0.94134 0.46952 10.084 208 173 127
-0.55217 0.52014 10.315 188 138 84
1.2271 0.51884 10.072 113 95 75
-0.73484 -1.0627 10.687 161 145 110
0.030126 -0.43455 10.271 204 163 95
1.3918 0.020085 9.3168 215 193 134
1.193 -0.051862 9.597 142 114 66
1.2055 -0.014675 9.5169 183 158 115
0.22035 -0.051887 9.813 176 130 66
0.8125 -0.020556 9.6923 207 169 102
1.331 0.049411 9.4401 167 142 103
-0.87452 0.092884 9.6733 185 145 86
-0.62976 0.045463 9.8123 188 148 94
-0.62976 0.045463 9.8123 188 148 94
0.20082 -0.0019063 9.8347 255 216 155
0.9388 0.021611 9.6704 235 204 142
0.45481 0.0068439 9.7931 254 216 152
0.8911 0.022579 9.6915 237 202 139
0.3106 0.015323 9.8185 185 146 80
0.54615 0.045898 9.8248 212 180 121
-0.4942 0.044013 10.036 195 169 134
-0.8065 0.17598 9.8111 170 125 71
-0.44257 0.031431 10.332 133 110 82
1.2238 0.19724 9.7883 128 96 46
0.97265 1.1718 7.176 105 90 66
-0.85178 0.31913 9.831 255 214 160
0.99391 0.29954 9.926 232 190 129
1.4993 0.33524 9.7931 136 112 81
-0.19878 0.29145 10.235 246 201 127
1.3808 0.35867 9.8875 141 105 58
1.3808 0.35867 9.8875 141 105 58
1.4214 0.36584 9.9038 143 105 56
0.41195 0.34183 10.155 255 251 175
0.67071 0.37389 10.076 209 167 106
0.92261 0.37789 10.02 148 108 60
1.2558 0.40538 9.9275 183 149 107
0.888 0.41627 10.073 222 178 127
0.90517 0.44495 10.094 227 181 128
1.5856 0.4738 9.8967 129 109 82
0.53847 0.47412 10.213 217 179 132
1.6291 0.49079 9.9665 145 120 95
0.58648 0.47928 10.195 175 141 105
1.4071 0.5166 10.026 212 172 121
1.3046 0.54514 10.041 204 179 138
0.95943 0.53917 10.134 142 103 48
-0.64837 -0.083016 9.7153 255 234 165
0.52612 -0.05838 9.7815 204 161 105
-0.28946 -0.023787 9.8815 118 80 33
-0.28946 -0.023787 9.8815 118 80 33
0.26498 -0.0044074 9.8134 255 245 178
-0.88481 0.11844 9.6772 255 240 176
0.14722 0.01542 9.8382 115 75 38
1.3166 0.072379 9.5679 173 144 99
-0.24559 0.03316 9.963 223 192 146
-0.06441 0.041411 9.9414 214 181 131
1.1803 0.07603 9.6805 188 159 105
0.99416 0.10496 9.7638 187 148 96
1.781 0.15518 9.7499 138 113 79
1.2246 0.23882 9.7965 121 88 45
1.8103 0.19102 9.8382 112 90 63
1.231 0.30677 9.8495 127 90 47
-0.61544 0.33972 10.073 182 140 86
1.2526 0.32956 9.8677 174 141 100
0.56893 0.30465 10.151 255 226 155
1.0695 0.34125 9.977 209 167 112
1.1783 0.34735 9.9476 114 81 34
1.2577 0.37127 9.8965 169 135 95
1.2347 0.35942 9.9526 149 111 61
0.31492 0.36498 10.154 252 200 129
1.4521 0.40964 9.9339 136 100 53
0.20744 0.40068 10.196 194 149 91
1.4211 0.48222 9.9791 123 90 40
-0.44303 0.46751 10.383 64 46 31
0.82194 0.51623 10.171 255 221 162
0.82194 0.51623 10.171 255 221 162
-0.40007 -0.10159 9.8789 255 253 177
1.2257 -0.0067867 9.4714 93 72 34
1.2257 -0.0067867 9.4714 93 72 34
0.096249 -0.014021 9.8278 255 246 176
1.2385 0.10863 9.5733 76 55 17
1.1483 0.077814 9.7067 62 39 9
1.4326 0.17676 9.5557 163 137 100
1.2822 0.19331 9.5913 203 171 116
1.8021 0.17747 9.7983 137 107 73
1.1447 0.30917 9.919 205 168 111
1.145 0.3079 9.9221 205 168 111
0.79449 0.40328 10.101 206 161 101
1.5242 0.41815 9.9248 165 129 87
1.5822 0.46363 9.8075 45 28 7
1.3091 0.54062 9.9495 30 20 6
1.6734 -0.36685 10.111 124 102 74
1.0031 0.10005 9.7488 178 142 87
1.7509 0.12203 9.7211 165 136 91
-0.64682 0.18343 9.9281 246 207 141
-0.62748 0.29776 10.04 252 210 148
-0.88181 0.64239 10.102 244 198 140
1.4657 0.55471 10.057 187 158 119
-0.63303 -1.0854 10.774 167 152 110
-0.78862 0.030818 9.6715 255 221 155
1.2629 0.044723 9.4335 198 173 119
-0.51741 0.064781 9.9183 224 190 136
-0.4783 0.19393 10.169 170 140 98
1.319 0.50933 9.8909 199 166 115
1.0795 0.55584 10.196 8 2 0
0.99779 0.55593 10.092 229 194 140
-0.79003 0.74973 10.226 22 12 7
1.1264 -0.73394 10.398 20 10 5
1.2883 0.1132 9.5359 183 151 96
0.71257 0.13785 9.8234 243 208 140
-0.51816 0.32737 10.123 245 205 139
1.6867 0.48133 9.7445 0 0 0
1.3767 0.55097 10.022 192 153 98
-0.55375 0.62102 10.377 26 18 10
-0.8154 0.66998 10.523 18 8 4
0.83267 -0.90954 10.63 174 154 103
0.72915 0.5149 10.174 246 207 145
1.0671 0.21546 9.8077 194 160 105
-0.29567 0.53787 10.401 10 1 0
0.55265 0.15438 10.024 9 0 0
-0.18059 0.12894 10.103 11 2 3
0.89647 0.050097 9.72 177 149 106
1.3737 0.11905 9.6176 48 27 2
0.34189 0.054729 9.9001 206 177 130
0.9462 0.18997 9.8474 174 139 76
1.299 0.31299 9.7025 194 165 115
0.93206 0.26827 9.9331 214 179 127
1.3039 0.37635 9.7819 134 105 59
0.9596 0.334 9.9555 97 61 12
1.404 0.35084 9.9039 193 156 105
-0.49333 0.36281 10.187 239 193 139
-0.55872 0.41482 10.227 237 191 142
1.4981 0.41555 9.9396 126 87 45
1.403 0.4406 9.9521 207 169 116
1.407 0.46264 9.9699 176 140 95
-0.12572 0.4448 10.402 85 72 53
-0.42736 0.45464 10.438 105 87 72
0.58246 0.4814 10.26 27 14 1
0.14298 -0.038807 9.8124 239 196 120
0.38465 -0.033541 9.8053 234 191 121
1.1927 0.020898 9.5965 135 104 54
0.21613 -0.0023897 9.8069 161 121 57
0.99683 0.017855 9.6718 211 177 115
0.58648 0.0084153 9.7673 224 190 131
0.22893 0.040828 9.8932 55 30 0
1.2074 0.096717 9.6758 116 86 40
1.2738 0.20879 9.6198 116 93 52
-0.85223 0.31938 9.8306 247 207 146
1.2916 0.24757 9.6438 189 160 105
0.92898 0.22767 9.8766 231 196 133
-0.83788 0.44814 9.941 226 185 133
-0.83788 0.44814 9.941 226 185 133
-0.49751 0.38099 10.191 140 97 52
1.4768 0.40835 9.9161 177 142 90
-0.41794 0.384 10.276 255 226 165
0.52085 0.42108 10.153 155 113 60
1.1851 0.45098 10.035 170 129 72
1.1851 0.45098 10.035 170 129 72
1.0128 0.48421 10.063 225 184 120
0.94924 0.48014 10.102 98 64 21
0.52564 0.47948 10.261 27 13 0
0.9799 0.55915 10.124 206 174 125
0.94392 0.54298 10.171 212 173 117
-0.79883 1.2937 10.544 51 43 39
-0.79883 1.2937 10.544 51 43 39
1.3083 0.033047 9.4719 76 53 13
0.6414 -0.0052628 9.7201 255 247 182
-0.67608 0.12447 9.8681 192 148 82
-0.54502 0.089455 9.9391 193 151 88
1.2788 0.38743 9.9028 103 73 37
-0.66385 0.42881 10.138 197 150 90
1.4524 0.40849 9.9357 127 94 47
1.1804 0.41095 9.9885 119 84 34
0.93758 0.41021 10.035 237 194 133
0.23182 0.42572 10.209 255 225 156
-0.44916 0.43675 10.322 69 37 7
0.48118 0.44195 10.174 255 231 164
-0.79562 -0.018167 9.6492 162 121 67
-0.79562 -0.018167 9.6492 162 121 67
0.14243 -0.011349 9.8203 255 250 177
-0.77655 0.19809 9.8253 254 219 160
1.1837 0.11908 9.7157 184 152 99
-0.71605 0.46376 10.188 204 161 111
1.1533 0.43744 10.018 232 191 125
1.1524 0.48037 10.052 239 195 129
-0.64848 0.57292 10.246 210 159 94
1.2533 0.20116 9.6358 92 68 37
1.2756 0.4812 9.9241 89 62 30
1.2756 0.4812 9.9241 89 62 30
-0.73919 0.6398 10.194 253 219 167
0.96201 0.049304 9.7034 220 186 124
1.054 0.32515 9.9344 229 187 119
1.7971 0.28892 9.8797 0 0 0
-0.56549 0.36309 10.178 182 136 85
1.1242 0.52531 10.105 239 198 137
1.5292 0.54846 10.038 6 1 0
1.0013 0.17212 9.8357 231 194 125
-0.69007 0.4591 10.108 221 171 115
0.55366 0.24326 10.138 15 6 4
0.87049 0.5031 10.244 232 190 127
-0.69496 -0.19967 10.482 229 188 125
0 0 0 1 0 0 0 1 0 0 0 1 0 0 0 0 0 709 1 0 0
