ply
format ascii 1.0
comment PCL generated
element vertex 227
property float x
property float y
property float z
property uchar red
property uchar green
property uchar blue
element camera 1
property float view_px
property float view_py
property float view_pz
property float x_axisx
property float x_axisy
property float x_axisz
property float y_axisx
property float y_axisy
property float y_axisz
property float z_axisx
property float z_axisy
property float z_axisz
property float focal
property float scalex
property float scaley
property float centerx
property float centery
property int viewportx
property int viewporty
property float k1
property float k2
end_header
0.89914 -0.34229 7.5582 23 32 19
0.87781 -0.28606 7.5121 27 7 1
0.95936 0.0637 8.0739 48 14 2
-0.13898 0.56003 8.4398 3 0 12
-0.7496 -0.44398 7.8801 22 148 7
0.89828 -0.38341 7.531 37 76 95
0.051769 -0.33229 7.6747 24 2 1
-0.01058 -0.32708 7.6824 89 19 9
0.88425 -0.30305 7.5095 38 28 1
0.015463 -0.29845 7.6681 2 1 15
0.17449 -0.29505 7.6611 1 0 0
-0.47644 -0.2756 7.778 1 0 0
1.1796 -0.13937 8.0202 2 136 81
0.94345 -0.1138 8.0107 86 126 156
0.7688 0.024888 8.0985 28 60 87
0.7688 0.024888 8.0985 31 2 0
0.7688 0.024888 8.0985 74 42 21
0.65932 0.029962 8.1226 64 102 130
-0.32826 0.080131 8.3396 115 42 7
-0.33175 0.11295 8.3515 5 7 11
-0.27906 0.11506 8.3393 20 140 19
-0.27906 0.11506 8.3393 111 93 49
-0.27906 0.11506 8.3393 1 0 1
-0.37301 0.11765 8.3582 2 0 1
-0.11763 0.12816 8.3147 8 4 5
0.14959 0.12817 8.2744 2 2 70
0.023233 0.57601 8.4104 94 137 172
-0.8326 0.59736 8.5116 12 14 34
0.17124 0.59362 8.4032 80 130 164
0.15732 0.6179 8.4173 39 72 100
-0.76825 -0.50866 7.7306 41 16 3
0.91272 -0.39362 7.4891 121 32 6
0.87191 -0.31966 7.5171 2 13 14
0.87805 -0.32411 7.57 3 1 28
0.91036 -0.32502 7.5637 29 40 33
0.91036 -0.32502 7.5637 121 64 12
-0.63229 -0.31894 7.7365 90 88 49
0.15387 -0.30978 7.6384 70 13 18
0.47576 -0.2934 7.4894 7 63 1
0.47576 -0.2934 7.4894 11 32 35
-0.40937 -0.28999 7.7617 122 122 29
0.77397 -0.15516 8.0464 7 3 51
-0.7042 -0.11809 7.8376 4 30 7
0.82322 -0.10197 8.0579 31 62 89
0.92402 -0.098075 8.0287 29 125 15
0.9263 -0.098375 8.039 55 77 16
0.88263 -0.021744 8.0339 115 15 18
0.67894 0.0074764 8.1143 76 7 5
0.95288 0.028048 8.0662 8 2 4
0.96882 0.034802 8.0031 7 0 2
0.51238 0.085889 8.1627 1 21 5
0.9735 0.086144 8.0998 14 9 2
-0.19588 0.09859 8.3245 84 60 80
0.17666 0.1057 8.2642 49 89 119
0.17666 0.1057 8.2642 77 6 1
-0.31253 0.12806 8.3486 15 2 13
-0.31253 0.12806 8.3486 4 133 76
0.19111 0.1272 8.3168 46 35 17
0.35712 0.56137 8.3869 1 29 132
-0.189 0.57782 8.4352 1 2 7
-0.13308 0.60269 8.4401 12 6 9
-0.74397 -0.32805 7.7601 40 73 91
-0.73595 -0.21959 7.8603 1 69 7
-0.86603 0.099591 8.1471 12 2 3
1.3149 0.13644 8.1359 8 0 0
1.3149 0.13644 8.1359 112 146 172
0.94832 -0.38856 7.5081 2 26 36
0.92201 -0.36644 7.5252 126 120 15
-0.87735 -0.31116 7.9195 27 50 95
1.3042 0.020907 8.0183 39 21 40
-0.061883 0.19822 8.4133 9 78 6
1.3418 -0.48285 7.6953 13 20 10
1.3663 -0.86616 14.79 8 145 0
0.99019 -0.355 7.4727 99 144 160
1.4102 -0.44352 7.7814 0 0 4
-0.1976 0.014929 8.4002 88 136 170
-0.41674 0.74514 8.6367 73 70 1
-0.83348 0.17487 8.0621 2 1 1
0.77906 0.52685 8.4217 24 9 2
0.77906 0.52685 8.4217 87 45 11
-0.82742 -0.094953 7.8543 9 47 43
-0.92482 0.032999 7.9494 16 18 25
1.2595 0.10521 8.1579 1 58 114
1.2595 0.10521 8.1579 34 27 36
0.95885 0.33546 8.2975 31 133 19
-0.30362 0.34964 8.6238 2 25 28
-0.22427 0.60502 8.5879 80 113 147
0.28172 0.59286 8.4489 3 1 6
0.36145 2.1716 0.20876 59 102 122
0.36376 2.1729 0.20381 63 106 129
0.36034 2.1755 0.19495 53 78 97
0.36431 2.1755 0.19364 77 122 151
0.3638 2.1761 0.19145 31 62 91
0.35821 2.1816 0.16706 98 139 165
0.35821 2.1816 0.16706 98 139 165
0.35792 2.1822 0.16351 92 135 162
0.36775 2.1815 0.16156 60 99 133
0.35782 2.1838 0.1514 76 116 146
0.37051 2.1842 0.1277 70 114 147
0.36693 2.185 0.12307 71 111 146
0.36187 2.1698 0.21446 51 94 109
0.36187 2.1698 0.21446 51 94 109
0.36256 2.1713 0.20959 91 133 154
0.36472 2.17 0.21259 64 97 116
0.86072 -0.30256 7.5234 81 113 130
0.48822 -0.23375 7.4424 33 75 99
-0.07819 -0.26448 7.728 96 132 151
-0.11882 -0.3246 8.5622 55 101 135
1.2586 -0.21856 8.1205 25 58 81
1.177 -0.15725 8.0624 55 95 124
0.77282 -0.018549 8.1122 42 80 108
0.90131 0.0026028 8.0692 54 92 120
0.76939 0.018857 8.1064 29 64 90
0.76939 0.018857 8.1064 29 64 90
-0.59249 0.089542 8.2819 40 80 112
0.57471 0.11781 8.1352 59 98 130
0.51845 0.11637 8.1827 34 70 96
1.2853 0.10259 8.0474 64 108 138
1.2853 0.10259 8.0474 64 108 138
-0.1967 0.1472 8.4527 83 136 168
0.78324 0.33649 8.0716 84 122 150
0.52716 0.53971 8.1458 32 64 90
-0.19822 0.60836 8.3697 53 90 123
0.169 0.62489 8.3021 35 69 99
0.169 0.62489 8.3021 35 69 99
-0.11338 0.63949 8.3585 14 44 71
-0.012991 0.64093 8.3281 79 119 152
-0.76589 0.71975 8.3558 54 93 127
-0.54942 0.74329 8.3114 109 142 172
1.2528 -0.64988 7.8244 0 40 57
1.3435 -0.58895 7.8655 95 129 149
0.26204 -0.42365 7.741 0 3 15
-0.757 -0.32934 7.8734 46 78 98
-0.757 -0.32934 7.8734 46 78 98
0.64989 -0.29829 7.4562 50 100 122
0.15732 -0.30635 7.6457 99 140 159
0.75052 -0.2728 7.491 83 114 132
0.14127 -0.32258 8.4866 9 49 79
-0.69203 -0.095487 7.7571 34 71 91
0.097408 -0.28959 8.6291 0 5 11
-0.19456 -0.29833 8.8008 5 6 10
0.9551 -0.20317 8.0992 24 58 85
0.89101 -0.11519 8.0932 36 67 94
-0.5127 -0.066716 8.556 74 121 157
0.95175 0.019815 8.0526 101 138 164
0.97022 0.086654 8.031 50 91 116
1.147 0.10589 7.9784 56 101 130
-0.32391 0.12828 8.4752 117 162 198
-0.25912 0.13225 8.4522 102 137 168
-0.23478 0.15311 8.4745 62 104 143
0.54096 0.18019 8.1422 82 118 144
0.45433 0.17557 8.3297 12 42 67
0.81665 0.19787 8.0719 115 158 182
-0.82244 0.31158 8.0205 38 71 97
0.79802 0.3137 8.0786 40 77 105
0.62123 0.37533 8.1468 88 123 148
0.61577 0.43889 8.1473 0 21 45
-0.35185 0.628 8.4133 74 118 154
-0.16505 0.64278 8.3608 106 148 180
-0.35379 0.6529 8.4088 18 49 75
-0.024137 0.66035 8.3444 31 57 82
1.3069 -0.74861 7.9632 0 0 10
-0.90099 -0.43996 7.9695 78 111 129
-0.27585 -0.42018 7.9387 0 0 16
0.53552 -0.25826 7.4093 49 86 107
0.56664 -0.035294 8.1885 100 147 176
-0.85146 0.17518 8.0676 83 121 146
-0.088379 0.12726 8.4034 121 168 197
-0.14539 0.20057 8.5888 95 143 181
0.40668 0.47262 8.3537 0 3 7
-0.10609 0.70678 8.5084 88 137 173
-0.14548 0.73063 8.5512 3 4 10
0.85193 -0.48614 7.5576 0 4 8
0.49218 -0.44066 7.5333 0 6 14
0.81833 -0.41068 7.559 27 53 69
0.94169 -0.39139 7.4844 0 14 25
0.9247 -0.29248 7.4874 81 120 145
0.067804 -0.31415 8.6207 83 145 178
0.14966 -0.31092 8.5855 86 143 177
0.93658 -0.013624 8.0615 107 151 175
0.3643 0.019606 8.3534 88 143 175
1.3074 0.12489 8.086 120 154 180
1.3178 0.1554 8.1465 2 2 9
-0.066733 0.19239 8.5897 90 142 177
-0.29765 0.22278 8.6758 1 7 10
-0.18328 0.22361 8.6274 0 5 6
0.7679 0.28692 8.0819 85 131 162
0.7679 0.28692 8.0819 85 131 162
-0.43274 0.47283 8.5853 12 14 22
-0.16956 0.51413 8.4637 113 154 189
0.84154 0.53741 8.3235 1 4 10
-0.82241 0.72979 8.3139 9 24 40
-0.87472 -0.36128 7.876 69 104 122
0.98113 -0.35635 7.4209 101 145 162
1.3885 -0.4052 7.8624 95 133 156
-0.22007 -0.31386 8.7485 92 143 175
1.3031 0.065585 8.0528 108 149 176
1.2822 0.15686 8.3788 0 2 4
1.0017 0.3893 8.4173 1 3 8
-0.14212 0.47234 8.4962 2 4 11
-0.86323 -0.22805 7.8559 69 110 128
1.114 -0.18619 8.0127 100 147 174
1.3013 -0.071871 8.0638 91 143 176
-0.82111 0.36387 8.0165 94 134 163
-0.81567 0.45155 8.0354 91 134 162
0.82575 -0.50838 7.6002 0 2 4
-0.82918 0.19562 8.0477 69 107 133
-0.78565 0.54584 8.372 81 117 151
-0.057483 0.52422 8.4213 65 116 153
0.6022 0.68742 8.4577 84 134 168
0.73482 -0.31173 7.488 27 41 54
-0.078546 0.67959 8.5182 66 99 133
1.2981 -0.63281 7.8245 81 139 164
1.2981 -0.63281 7.8245 81 139 164
-0.81157 -0.060771 7.7463 89 128 147
0.70097 0.3726 8.0931 81 124 155
0.97482 0.31788 8.3203 86 126 155
-0.33493 -0.1571 8.76 1 3 5
0.26957 0.10402 8.4534 71 116 150
0.26957 0.10402 8.4534 71 116 150
-0.31038 0.35342 8.6191 0 2 6
0.44418 0.35334 8.3614 0 0 3
0.44418 0.35334 8.3614 0 0 3
-0.21168 0.62016 8.5138 85 135 169
0.29277 0.60125 8.3784 99 141 171
1.1742 -0.3696 7.6207 93 149 176
-0.56527 -0.063162 7.8324 66 102 130
0 0 0 1 0 0 0 1 0 0 0 1 0 0 0 0 0 227 1 0 0
