ply
format ascii 1.0
comment PCL generated
element vertex 822
property float x
property float y
property float z
property uchar red
property uchar green
property uchar blue
element camera 1
property float view_px
property float view_py
property float view_pz
property float x_axisx
property float x_axisy
property float x_axisz
property float y_axisx
property float y_axisy
property float y_axisz
property float z_axisx
property float z_axisy
property float z_axisz
property float focal
property float scalex
property float scaley
property float centerx
property float centery
property int viewportx
property int viewporty
property float k1
property float k2
end_header
0.61172 -0.39149 10.193 9 1 5
0.58773 -0.35112 10.205 3 2 73
0.69466 -0.32779 10.152 2 102 84
0.80195 -0.31849 10.03 70 50 31
0.79474 -0.78313 10.482 18 71 21
-0.32599 -0.76365 10.756 124 20 16
0.97365 -0.56682 10.275 14 57 67
0.63138 -0.46514 10.223 140 109 55
1.2602 -0.45119 9.9035 18 124 31
0.35402 -0.42273 10.228 23 9 47
0.25175 -0.40489 10.245 28 29 6
-0.039465 -0.38483 10.267 82 32 5
0.2457 -0.37753 10.243 16 3 5
1.2636 -0.36853 9.9452 4 7 31
0.24895 -0.35531 10.245 193 149 82
0.57314 -0.33145 10.208 59 24 6
0.57314 -0.33145 10.208 8 92 104
1.308 -0.31988 10.309 5 10 2
2.0519 -0.28893 12.264 1 0 2
1.5149 -0.25389 10.342 51 17 0
1.6845 -0.21978 10 21 39 8
1.2388 -0.20461 9.7469 32 4 23
0.58004 -0.10899 9.8018 11 38 95
1.3858 -0.11177 9.3152 10 42 36
0.68734 -0.064108 9.6876 1 177 10
-0.31807 -0.043829 9.8707 255 222 161
0.45979 -0.013122 9.7871 180 132 73
0.5655 -0.0046854 9.7716 168 132 72
1.1899 0.016504 9.5666 147 116 68
0.65988 0.02688 9.7214 14 7 18
1.2124 0.04199 9.5761 170 141 102
0.50169 0.028437 9.7961 24 6 7
1.1466 0.13365 9.804 68 67 0
1.4047 0.13777 9.5281 12 3 5
1.4018 0.13871 9.5079 6 110 5
1.2143 0.16449 9.5567 9 31 122
1.3805 0.24523 9.5845 28 82 1
1.3983 0.19214 9.7158 128 12 0
1.1045 0.22716 9.8511 32 43 4
1.4088 0.18564 9.6952 6 29 24
-0.86582 0.33072 9.8496 5 147 0
0.69154 0.37372 10.032 4 0 0
0.92291 0.37824 10.019 3 10 6
0.92308 0.37816 10.02 146 108 59
1.3509 0.19791 9.5375 1 17 30
1.181 0.41074 9.991 130 91 42
1.2582 0.43907 9.9623 36 50 14
1.1851 0.4491 10.023 5 5 2
1.553 0.49331 9.9825 39 6 4
1.4306 0.55071 10.042 113 72 27
-1.0723 -0.47876 10.984 11 4 6
0.30814 -0.83885 10.728 7 1 1
0.1338 -0.74097 10.695 58 61 2
-0.30932 -0.73552 10.755 21 14 30
0.81876 -0.71197 10.516 19 6 0
1.2199 -0.55412 10.22 1 2 132
1.2418 -0.53163 10.179 4 59 2
1.2618 -0.48833 10.117 1 0 13
0.81894 -0.48076 10.208 1 4 4
0.21701 -0.6109 10.114 43 17 5
0.45504 -0.44457 10.235 1 12 26
0.45504 -0.44457 10.235 254 230 168
-0.24642 -0.42992 10.294 81 123 0
0.48706 -0.42215 10.216 37 52 68
0.6228 -0.41356 10.194 86 16 0
-0.26234 -0.40384 10.29 66 3 8
-0.030091 -0.40469 10.268 14 6 1
-0.3009 -0.40245 10.298 15 0 0
0.17486 -0.40103 10.238 17 48 2
1.3926 -0.34053 9.8564 7 2 22
1.3413 -0.29188 9.4939 8 80 5
1.2343 -0.2703 9.906 1 1 9
1.2921 -0.2984 10.191 23 116 46
0.47035 -0.14237 9.4833 205 170 109
1.2727 -0.10533 9.4469 75 0 0
0.21992 -0.049876 9.8071 17 24 46
0.55333 -0.027234 9.7652 26 16 0
1.1545 -0.013505 9.5866 176 138 86
0.28462 0.25668 10.182 215 184 127
1.4653 0.16834 9.3929 1 0 0
1.1684 0.20854 9.8271 115 21 5
1.4828 0.24528 9.8038 18 0 1
1.2069 0.25872 9.484 106 18 0
1.5328 0.2678 9.4822 20 67 54
1.7554 0.31907 9.7523 9 135 2
0.98551 0.3565 9.9595 237 200 148
1.1876 0.32119 9.5085 5 1 1
1.5478 0.35895 9.7024 4 0 1
1.4022 0.1407 9.5167 3 125 23
1.1157 0.3959 9.9878 4 0 3
1.1509 0.39532 9.9858 6 23 4
1.4981 0.48658 9.9896 60 4 1
1.1317 0.55644 10.128 59 27 1
-0.49226 -1.0773 10.845 1 1 33
0.7447 -0.89437 10.673 4 5 15
0.30815 -0.8402 10.736 16 0 2
-0.88162 -0.67664 10.149 27 33 6
0.54393 -0.48867 10.273 2 17 25
0.52258 -0.39259 10.203 8 121 2
0.22676 -0.75152 10.588 2 1 1
1.1745 -0.38423 10.04 3 66 17
0.7959 -0.041256 9.6851 22 24 19
-0.085992 -0.025914 9.8437 34 29 10
0.64201 -0.0067666 9.7233 255 254 192
0.59763 0.048915 9.8294 1 140 4
0.30593 0.20088 10.926 25 10 6
1.2051 0.29855 9.9013 24 0 0
0.73838 0.34368 10.012 8 3 2
1.2063 0.34413 9.9314 35 0 0
1.2081 0.39811 9.9641 71 17 11
1.2149 0.50713 10.046 114 91 15
1.4654 0.55615 10.058 118 81 10
-0.62691 -1.1097 10.799 19 14 24
0.81081 -0.99521 10.66 16 4 0
-0.38783 -0.94504 10.869 50 44 1
0.58379 -0.87119 10.732 9 75 116
-0.065102 -0.87497 10.846 4 42 75
0.48775 0.29519 10.171 24 99 87
-0.95398 -0.616 10.619 4 1 1
1.0214 -0.50762 10.178 86 41 1
1.322 -0.45542 9.9184 22 126 12
1.322 -0.45542 9.9184 37 119 11
-0.94136 -0.33985 9.605 241 207 146
1.7178 -0.0079023 9.7697 3 0 0
0.451 0.23637 9.3297 12 11 12
0.6956 0.34039 10.024 55 120 13
1.0299 0.36758 9.9782 56 52 16
1.092 0.36743 9.9794 11 27 9
1.311 0.35912 9.7542 61 3 2
-0.015091 0.31521 8.9969 218 172 108
0.24649 0.28112 10.202 27 6 5
-0.96507 -0.1137 9.4954 19 13 7
0.44008 0.24078 7.7339 11 43 5
1.5325 0.53769 10.058 57 18 17
1.1882 0.53474 10.095 10 124 10
1.5082 0.54479 10.035 131 0 0
1.5555 0.54367 10 6 1 0
1.7135 0.011808 9.7481 78 130 15
1.4298 0.59983 10.082 1 0 1
-0.57037 -1.1023 10.854 7 3 33
1.5573 -0.55303 10.062 2 2 1
1.5849 -0.49256 10.048 129 57 8
-0.91356 -0.48012 9.799 215 184 127
0.30549 -0.39846 10.238 3 10 17
1.6717 -0.10789 9.8308 121 9 1
1.3448 -0.06652 9.3103 11 16 25
1.3444 -0.066547 9.3084 18 22 33
0.95638 0.11757 9.7442 23 1 0
1.3049 0.27917 9.6706 19 8 1
1.0511 0.53199 10.106 19 9 0
-0.60914 0.61577 10.306 251 216 161
-0.42871 0.35307 7.8167 10 0 0
-0.67643 0.66933 10.296 31 21 15
-0.67643 0.66933 10.296 82 126 36
-0.8337 0.7118 10.158 240 205 150
-0.51692 -1.0224 10.833 2 1 2
1.2033 -0.6994 10.407 2 0 2
1.5393 -0.67604 10.029 12 0 0
1.3939 -0.030091 9.2935 239 210 146
1.7714 0.36882 9.7461 154 7 0
-0.49623 0.54334 10.368 24 33 18
-0.096063 -0.84522 10.85 4 3 1
0.056002 -0.84808 10.83 212 178 105
0.77863 0.60055 10.182 41 11 26
-0.93107 -0.17832 9.4333 51 5 14
0.64501 -0.96487 10.698 10 7 36
0.60807 0.56594 10.298 1 2 26
1.7829 -1.1452 15.191 58 0 0
-0.57752 -0.099753 10.042 255 226 155
-0.57816 -0.10001 10.047 3 2 96
1.0448 0.025552 9.8761 63 41 8
0.33114 -0.77662 10.678 215 176 110
0.27559 -0.75796 10.688 178 139 72
0.34678 -0.75707 10.671 180 138 72
0.32905 -0.74148 10.68 213 177 114
0.59876 -0.72032 10.639 155 118 55
0.11344 -0.46003 10.278 243 197 126
0.11344 -0.46003 10.278 243 197 126
-0.18802 -0.40552 10.286 168 120 54
0.21945 -0.4039 10.242 247 208 139
0.62251 -0.37584 10.192 166 127 63
-0.2038 -0.36895 10.291 199 155 78
0.59977 -0.33105 10.207 147 108 56
1.0263 -0.1892 9.831 227 188 131
-0.33167 -0.030334 9.8846 201 167 115
1.312 0.026617 9.4236 163 137 100
1.4097 0.052185 9.306 187 165 111
-0.16666 -0.0083113 9.8667 201 159 96
1.3738 0.070706 9.414 134 114 84
0.55115 0.014107 9.7839 239 205 146
-0.71576 0.061774 9.8244 246 202 144
-0.71561 0.061911 9.8243 237 194 133
-0.08414 0.022653 9.887 208 175 138
1.1579 0.056267 9.6675 137 106 52
1.1579 0.056267 9.6675 137 106 52
0.10563 0.045321 9.9324 226 191 137
0.94188 0.082255 9.7263 203 176 134
0.96689 0.083461 9.7203 219 187 137
1.0655 0.07717 9.7459 181 142 88
-0.60577 0.11323 9.9615 246 206 149
-0.60639 0.11358 9.9609 248 209 154
1.358 0.12764 9.6781 85 54 17
1.3536 0.14245 9.7027 182 147 95
1.3725 0.15487 9.6811 100 68 27
1.3731 0.17153 9.7208 170 134 89
1.3599 0.17918 9.7347 129 94 44
1.2832 0.22586 9.6236 183 156 108
1.3665 0.19876 9.7518 141 105 51
1.401 0.21598 9.7571 160 126 83
-0.54647 0.22958 10.068 176 131 76
1.1008 0.2244 9.8389 238 201 138
1.357 0.22931 9.7793 148 108 58
1.3569 0.22926 9.7797 146 109 58
-0.86573 0.33151 9.8434 171 133 83
1.4323 0.27415 9.7185 220 173 99
0.91428 0.26853 9.9467 161 122 71
1.0309 0.29566 9.9445 239 194 123
1.0905 0.29673 9.9315 227 185 121
0.1479 0.22201 10.556 247 195 124
1.5189 0.36334 9.8857 71 40 11
-0.49859 0.38112 10.192 163 120 73
-0.49859 0.38112 10.192 163 120 73
0.94088 0.36023 10.027 239 197 144
1.4586 0.29824 9.8229 158 123 84
1.2269 0.26797 9.8058 132 97 53
0.95397 0.39833 10.013 181 140 84
-0.394 0.39913 10.278 185 140 81
-0.39425 0.39918 10.278 185 140 81
0.57316 0.39398 10.13 255 217 155
-0.091982 0.39961 10.242 175 131 69
-0.091982 0.39961 10.242 175 131 69
1.5431 0.40958 9.9034 73 43 13
-0.83903 0.50257 9.9844 217 177 126
-0.83888 0.50412 9.9792 217 177 126
1.4031 0.44054 9.9521 199 157 107
0.66563 0.44946 10.095 250 210 149
0.55758 0.45192 10.163 255 215 166
0.67893 0.46588 10.104 202 159 103
1.6105 0.4819 9.9444 50 30 3
0.52744 -0.75894 10.646 168 129 65
0.011044 -0.74338 10.723 172 129 66
1.267 -0.53597 10.148 79 55 23
1.1944 -0.55679 10.241 103 74 34
1.2561 -0.42681 10.042 98 73 31
-0.44878 -0.43053 10.321 209 164 97
0.073042 -0.42996 10.264 202 160 85
1.2584 -0.41049 10.079 100 74 35
0.55548 -0.41508 10.204 180 140 79
0.0042335 -0.40565 10.261 255 217 145
-0.2625 -0.37242 10.307 214 169 98
1.575 -0.55593 10.86 44 27 6
0.66481 -0.059539 9.714 220 181 112
-0.49847 -0.025878 9.8943 188 148 91
1.3318 0.035607 9.398 84 59 18
0.33122 -0.025166 9.8004 231 197 128
1.3577 0.046749 9.3872 190 164 124
0.4585 -0.013399 9.7877 174 129 69
1.3836 0.067031 9.3746 78 59 23
0.22219 -0.0026105 9.8537 167 132 66
0.45561 0.0073538 9.7928 255 223 154
-0.21833 0.012733 9.895 255 234 173
0.89082 0.022659 9.6925 240 205 140
-0.1167 0.017461 9.8956 212 178 121
0.39549 0.020287 9.8115 186 144 80
0.91935 0.035071 9.6823 160 126 68
0.87521 0.036238 9.7189 142 107 51
0.8751 0.035444 9.7212 142 107 51
1.1982 0.048932 9.6292 129 98 51
0.56217 0.036856 9.7921 148 111 58
-0.18698 0.033555 9.9586 226 196 146
-0.15948 0.033729 9.9601 222 194 144
0.50849 0.040881 9.8295 201 165 103
0.0073202 0.043246 9.9359 226 200 152
0.92068 0.074689 9.6989 120 89 42
1.2264 0.15573 9.4926 78 55 19
-0.80595 0.17538 9.8138 179 134 83
1.1686 0.11807 9.799 110 76 27
0.96751 0.13573 9.775 115 78 27
0.94099 0.15942 9.8111 163 124 67
0.90488 0.19438 9.869 152 116 60
-0.62517 0.23545 9.9798 255 228 166
0.90865 0.23917 9.8985 187 147 88
0.94606 0.24268 9.8933 174 136 74
1.0157 0.2484 9.8729 183 141 85
1.0157 0.2484 9.8729 183 141 85
0.94802 0.28309 9.9471 154 117 64
-0.4441 0.28652 10.267 224 177 115
-0.61416 0.34394 10.063 187 141 86
-0.37501 0.31799 10.251 255 246 173
-0.058061 0.32013 10.209 255 255 176
1.4963 0.33326 9.8578 63 34 5
-0.71507 0.38351 10.099 255 228 168
0.58565 0.33372 10.131 220 176 109
0.5856 0.33278 10.136 227 178 112
-0.17217 0.34477 10.228 241 193 122
-0.17217 0.34477 10.228 241 193 122
-0.45362 0.35477 10.258 192 143 91
-0.70076 0.39618 10.109 217 168 108
-0.44762 0.3785 10.264 255 220 149
0.67094 0.37338 10.078 208 169 108
1.1314 0.37426 9.9787 136 98 53
-0.60828 0.41911 10.129 180 139 92
-0.60784 0.4191 10.129 180 139 92
-0.4177 0.38249 10.28 255 232 169
0.15877 0.40669 10.209 177 127 66
0.55692 0.41018 10.131 195 145 89
-0.098438 0.41858 10.261 255 239 163
1.4184 0.4265 9.9432 139 102 49
1.4442 0.429 9.9557 181 141 93
1.4442 0.429 9.9557 181 141 93
0.96001 0.43243 10.039 185 146 85
1.5543 0.43007 9.9255 60 33 4
0.59293 0.4368 10.139 177 137 87
0.593 0.43506 10.147 177 137 87
0.593 0.43506 10.147 177 137 87
1.4264 0.44977 9.9692 116 79 31
1.4267 0.44961 9.9698 116 79 31
1.2557 0.48511 9.9918 157 123 87
0.94086 0.49853 10.119 218 174 116
0.57421 0.49192 10.3 143 128 108
1.0833 0.51432 10.094 220 190 139
1.2597 0.53078 10.037 120 97 70
-0.5269 0.5658 10.345 167 121 64
-0.52719 0.56524 10.347 167 121 64
0.96593 0.57031 10.158 104 73 39
-0.65637 0.63704 10.317 234 190 137
1.1193 -0.55237 10.247 130 97 48
0.12455 -0.42843 10.258 198 153 80
0.16311 -0.42999 10.252 203 164 94
0.35104 -0.39868 10.227 255 224 157
0.35104 -0.39868 10.227 255 224 157
-0.79446 -0.041799 9.6375 255 226 159
-0.47843 -0.092952 9.8573 255 237 180
1.2968 -0.015643 9.3818 88 61 15
1.2902 0.00021397 9.4112 200 170 115
-0.4829 -0.047533 9.8851 255 229 152
0.26751 -0.049626 9.8049 255 232 158
0.35508 -0.044444 9.7987 255 255 196
-0.25797 -0.035665 9.8648 255 246 177
-0.45837 -0.023317 9.8917 215 172 104
0.32611 -0.0010387 9.8094 255 255 201
1.2285 0.033171 9.5442 64 40 9
-0.023925 0.0058181 9.8549 148 110 68
1.4453 0.084871 9.3159 173 146 87
-0.16744 0.0083725 9.8887 253 213 150
-0.92093 0.10163 9.6699 154 110 51
1.1265 0.054687 9.6832 210 177 113
0.54133 0.32115 8.6825 16 6 0
0.92155 0.10726 9.8014 204 171 117
1.1916 0.14719 9.7641 206 173 121
1.1691 0.15207 9.7986 88 54 9
1.1691 0.15204 9.7992 84 53 9
1.1467 0.17359 9.8059 246 211 145
1.2193 0.18186 9.765 119 85 44
0.9246 0.17542 9.861 242 203 139
0.94353 0.20373 9.8681 168 134 78
1.4082 0.22688 9.7829 163 127 82
1.0376 0.2694 9.8934 238 201 136
-0.87266 0.34881 9.8488 255 232 173
1.6018 0.33928 9.5245 131 104 56
1.18 0.31617 9.9248 107 71 28
1.1801 0.31754 9.9195 107 71 28
-0.43782 0.31831 10.246 255 231 157
-0.38462 0.34161 10.249 224 170 106
0.78576 0.3434 10.036 203 155 98
-0.31895 0.34477 10.24 233 182 115
-0.31934 0.34449 10.241 233 182 115
-0.29176 0.34448 10.238 234 183 116
-0.22057 0.64871 8.6656 234 183 116
-0.13031 0.34229 10.22 242 192 124
0.049766 0.33149 10.23 225 178 114
0.1513 0.3497 10.18 247 195 124
-0.61895 0.39897 10.116 255 217 158
0.43278 0.36496 10.145 228 178 108
1.2778 0.38898 9.9021 105 75 37
1.669 0.43041 9.6046 69 49 20
0.2299 0.3827 10.183 255 251 171
-0.45531 0.39918 10.282 123 82 47
0.5308 0.39568 10.138 255 235 169
0.67281 0.40831 10.07 208 165 107
0.9374 0.41111 10.034 244 201 142
1.1803 0.41175 9.9871 119 82 32
1.2379 0.42406 9.9404 137 101 54
0.92883 0.45066 10.066 117 80 39
1.4908 0.45738 9.9434 133 97 48
1.4908 0.45683 9.9438 132 94 47
1.0512 0.48631 10.049 236 193 125
1.4229 0.5057 10.005 106 73 26
-0.57624 0.54675 10.341 175 131 84
-0.84268 0.67028 10.12 159 118 72
-0.84164 0.67086 10.118 159 118 72
0.83161 -0.54875 10.284 125 97 47
1.2963 -0.13845 9.4005 64 43 11
1.2963 -0.13845 9.4005 64 43 11
1.2605 -0.042661 9.3948 238 206 143
-0.44418 -0.0906 9.8804 141 98 46
-0.44405 -0.090237 9.8793 141 98 46
1.3554 -0.0089565 9.3061 162 136 78
1.3299 -0.0061288 9.3537 234 208 147
-0.43298 -0.048476 9.8785 255 246 162
-0.43271 -0.048464 9.8784 255 246 162
1.3705 0.024872 9.3335 138 114 62
1.1642 0.020256 9.5911 203 170 111
1.3278 0.048688 9.5384 71 48 19
-0.88568 0.12089 9.6782 255 243 176
1.3967 0.14873 9.6067 43 27 1
0.70829 0.17978 9.8418 20 10 0
1.1948 0.19016 9.7925 214 179 123
1.2058 0.2544 9.8546 214 176 119
0.9777 0.29887 9.9128 234 194 133
1.2042 0.29935 9.8991 215 176 121
0.95795 0.31044 9.9801 156 118 71
1.2778 0.34809 9.8575 79 50 18
1.275 0.35255 9.8439 79 50 18
-0.3752 0.37401 10.256 255 230 152
-0.09471 0.37539 10.225 255 245 174
1.2076 0.39859 9.9634 220 179 122
1.5299 0.51145 10.008 185 158 113
1.639 0.51978 9.9669 7 1 0
0.95542 0.59056 10.201 224 188 147
0.91221 -0.03275 9.6797 255 217 141
1.408 0.080102 9.3212 229 207 151
1.2324 0.042252 9.532 90 70 34
1.3528 0.087439 9.5814 55 33 12
1.2597 0.24372 9.6812 89 64 28
-0.87961 0.32084 9.8184 160 120 71
-0.8775 0.32263 9.8158 181 139 86
1.5641 0.32728 9.6588 27 14 0
0.69628 0.33995 10.027 120 87 53
-0.56525 0.3619 10.181 195 149 98
1.1772 0.37428 9.9682 93 60 20
1.7227 0.40842 9.7021 168 151 129
1.3925 0.39911 9.9101 206 165 108
1.3061 0.43202 9.7917 191 159 108
1.6197 0.43302 9.7037 27 14 3
1.669 0.45369 9.6509 134 119 84
-0.6123 0.45412 10.165 255 234 176
1.5259 0.46566 9.9496 183 146 93
0.6475 0.48399 10.12 210 173 120
-0.56759 0.5276 10.298 192 146 93
1.595 0.50738 9.9982 172 145 103
1.0441 0.52218 10.078 37 19 3
1.5152 0.54316 10.041 10 2 0
0.71384 0.54275 10.148 233 202 160
-0.78997 -1.0843 10.714 182 160 105
-0.5703 -1.1061 10.865 15 6 3
0.66222 -0.84943 10.675 190 156 88
-0.74406 0.082235 9.8199 193 155 108
1.405 0.11199 9.4227 31 20 3
-0.47173 0.24038 10.23 195 158 106
0.63372 0.29995 10.142 252 208 144
1.0541 0.32635 9.9325 219 177 113
1.1299 0.33555 9.9074 202 162 104
1.1299 0.33555 9.9074 202 162 104
1.4702 0.35124 9.8868 172 136 83
-0.49786 0.42815 10.275 250 209 153
-0.44203 -1.0334 10.915 17 6 2
-0.44092 -1.0254 10.893 17 6 2
-0.31829 -0.91777 10.836 14 7 0
0.92359 -0.88639 10.608 10 4 1
1.0664 -0.80547 10.468 151 133 95
1.3492 -0.15859 9.3281 211 181 116
-0.78909 0.038109 9.677 255 223 159
1.782 0.21342 9.8116 146 120 80
0.63012 0.30801 10.141 255 212 143
-0.59264 1.1639 7.2821 255 244 170
-0.6814 0.66991 10.341 23 15 8
1.2046 -0.66637 10.361 138 110 63
1.3178 0.15528 9.6771 201 163 103
1.454 -0.6684 10.032 169 150 101
1.401 0.14472 9.5056 173 148 112
1.1357 0.47734 10.023 238 193 122
1.6579 0.28135 9.5676 182 153 104
1.434 0.47887 9.989 175 142 88
1.1825 0.64394 10.159 1 0 0
0.7942 0.43214 10.132 226 178 116
-0.22123 -1.1385 10.896 6 1 0
-0.70649 0.3896 10.16 225 175 114
1.042 -0.042443 10.194 202 164 103
-0.71949 0.033803 9.8021 236 197 141
-0.69945 0.045477 9.8123 199 155 94
0.49569 0.0088603 9.7893 233 199 131
-0.50769 0.028979 9.9481 223 191 143
-0.16892 0.023191 9.9309 91 59 8
-0.16841 0.023065 9.9311 91 59 8
0.1629 0.032564 9.866 227 198 142
0.88445 0.055508 9.7401 113 82 36
0.19774 0.037621 9.8953 80 52 16
0.066746 0.029797 9.9934 85 70 48
1.3498 0.1003 9.6268 126 102 72
0.34191 0.05445 9.9014 207 179 138
1.0165 0.074797 9.7534 190 155 95
1.3362 0.10057 9.6474 84 53 11
-0.76468 0.17135 9.8144 165 129 75
1.2875 0.17648 9.5605 127 98 49
1.3813 0.1773 9.6803 76 44 12
-0.68005 0.22662 9.976 255 207 138
-0.54657 0.22903 10.068 175 131 70
1.1804 0.26762 9.8627 168 131 75
0.93265 0.26764 9.9349 232 196 140
1.4722 0.32246 9.8476 156 122 87
-0.63842 0.38305 10.1 215 169 105
0.96199 0.37466 9.9847 141 101 52
-0.70709 0.42347 10.137 196 148 100
1.2748 0.41886 9.9252 99 70 32
0.67829 0.43323 10.082 212 172 112
0.5191 0.42158 10.153 176 134 75
0.94974 0.44541 10.055 215 180 127
-0.77923 0.54237 10.117 211 166 110
0.67885 0.46586 10.104 192 152 92
0.94095 0.47011 10.083 208 173 127
-0.55161 0.5198 10.317 188 138 84
1.2269 0.51924 10.071 113 95 75
-0.73397 -1.0633 10.689 161 145 110
0.030712 -0.43447 10.272 204 163 95
1.3913 0.021224 9.3158 215 193 134
1.1928 -0.050895 9.5962 142 114 66
1.2052 -0.013714 9.5161 183 158 115
0.22072 -0.051638 9.8136 176 130 66
0.81255 -0.020142 9.6926 207 169 102
1.3308 0.050012 9.4401 167 142 103
-0.87364 0.090755 9.6787 185 145 86
-0.62916 0.045163 9.814 188 148 94
-0.62916 0.045163 9.814 188 148 94
0.20115 -0.0018507 9.8357 255 216 155
0.9388 0.022105 9.6706 235 204 142
0.45482 0.0071203 9.7937 254 216 152
0.89117 0.023916 9.6899 237 202 139
0.3112 0.014926 9.8203 185 146 80
0.54656 0.046187 9.8252 212 180 121
-0.49358 0.043703 10.038 195 169 134
-0.80578 0.17493 9.8145 170 125 71
-0.44189 0.031057 10.333 133 110 82
1.2236 0.19822 9.7871 128 96 46
0.96989 1.1793 7.1655 105 90 66
-0.85116 0.31862 9.8331 255 214 160
0.9939 0.3 9.9257 232 190 129
1.4986 0.33579 9.7927 136 112 81
-0.1982 0.29116 10.237 246 201 127
1.3805 0.35932 9.8867 141 105 58
1.3805 0.35932 9.8867 141 105 58
1.421 0.36596 9.9042 143 105 56
0.41226 0.34194 10.155 255 251 175
0.6709 0.37417 10.076 209 167 106
0.92263 0.37834 10.019 148 108 60
1.2154 0.53078 9.5639 183 149 107
0.88828 0.4158 10.075 222 178 127
0.90577 0.44309 10.098 227 181 128
1.585 0.47466 9.8953 129 109 82
0.53839 0.47548 10.21 217 179 132
1.6287 0.49145 9.9655 145 120 95
0.58675 0.47933 10.195 175 141 105
1.4072 0.51622 10.027 212 172 121
1.3043 0.5458 10.04 204 179 138
0.95879 0.54282 10.126 142 103 48
-0.64778 -0.083273 9.7171 255 234 165
0.52635 -0.057939 9.7817 204 161 105
-0.28889 -0.024212 9.8835 118 80 33
-0.28889 -0.024212 9.8835 118 80 33
0.26532 -0.0041571 9.814 255 245 178
-0.88381 0.11761 9.6801 255 240 176
0.14731 0.01512 9.84 115 75 38
1.3162 0.073327 9.567 173 144 99
-0.24504 0.03302 9.9644 223 192 146
-0.063998 0.041304 9.9427 214 181 131
1.1804 0.076489 9.6805 188 159 105
0.99411 0.1056 9.7634 187 148 96
1.7803 0.15623 9.7486 138 113 79
1.2243 0.24076 9.7932 121 88 45
1.8094 0.19266 9.8355 112 90 63
1.2308 0.30778 9.848 127 90 47
-0.61486 0.33909 10.075 182 140 86
1.2522 0.33073 9.8659 174 141 100
0.56853 0.30346 10.154 255 226 155
1.0697 0.34261 9.9746 209 167 112
1.1777 0.35 9.9424 114 81 34
1.2575 0.37201 9.8955 169 135 95
1.2344 0.3601 9.9517 149 111 61
0.31565 0.36487 10.154 252 200 129
1.4519 0.41029 9.9329 136 100 53
0.20825 0.39981 10.198 194 149 91
0.16102 0.43802 10.174 160 113 49
1.4208 0.48238 9.9792 123 90 40
-0.44238 0.46701 10.385 64 46 31
0.8215 0.5171 10.17 255 221 162
0.8215 0.5171 10.17 255 221 162
-0.39949 -0.10176 9.8804 255 253 177
1.2254 -0.0058028 9.4706 93 72 34
1.2254 -0.0058028 9.4706 93 72 34
0.096661 -0.013879 9.8286 255 246 176
1.2382 0.10951 9.5726 76 55 17
1.1473 0.077956 9.7075 62 39 9
1.4326 0.1769 9.5564 163 137 100
1.2819 0.19415 9.5906 203 171 116
1.8018 0.1772 9.7996 137 107 73
1.1446 0.30971 9.9185 205 168 111
1.1451 0.30737 9.9239 205 168 111
0.79459 0.40398 10.1 206 161 101
1.5231 0.42024 9.9204 165 129 87
1.5817 0.46447 9.8062 45 28 7
1.3089 0.54107 9.949 30 20 6
1.6734 -0.3663 10.111 124 102 74
1.003 0.10073 9.7483 178 142 87
1.7489 0.12324 9.7198 165 136 91
-0.6462 0.18304 9.93 246 207 141
-0.62675 0.2986 10.039 252 210 148
-0.88063 0.64267 10.102 244 198 140
1.4654 0.55521 10.056 187 158 119
-0.6321 -1.0845 10.774 167 152 110
-0.78802 0.030461 9.6735 255 221 155
1.2626 0.045713 9.4327 198 173 119
-0.51753 0.063887 9.9214 224 190 136
-0.47778 0.19352 10.171 170 140 98
1.3186 0.51049 9.8888 199 166 115
1.0794 0.55652 10.195 8 2 0
0.99429 0.55935 10.085 229 194 140
-0.78938 0.74901 10.229 22 12 7
1.1264 -0.73313 10.397 20 10 5
1.2882 0.11378 9.5359 183 151 96
0.71269 0.13828 9.8234 243 208 140
-0.5182 0.32371 10.131 245 205 139
1.6861 0.4822 9.7431 0 0 0
1.3765 0.55142 10.021 192 153 98
-0.55309 0.62038 10.379 26 18 10
-0.81451 0.66989 10.523 18 8 4
0.83306 -0.90885 10.63 174 154 103
0.72934 0.51498 10.174 246 207 145
1.067 0.21604 9.8074 194 160 105
-0.29505 0.5374 10.403 10 1 0
0.55281 0.15466 10.024 9 0 0
-0.18001 0.12906 10.103 11 2 3
0.89648 0.050288 9.7205 177 149 106
1.3735 0.11939 9.6177 48 27 2
0.34213 0.054786 9.9009 206 177 130
0.94587 0.19284 9.8433 174 139 76
1.2989 0.31347 9.7022 194 165 115
0.93204 0.26881 9.9327 214 179 127
1.3033 0.37926 9.7773 134 105 59
0.95903 0.33548 9.9534 97 61 12
1.4036 0.35174 9.9026 193 156 105
-0.49281 0.36206 10.189 239 193 139
-0.55831 0.41376 10.229 237 191 142
1.4964 0.42054 9.931 126 87 45
1.4029 0.44036 9.9527 207 169 116
1.4061 0.46443 9.9669 176 140 95
-0.12523 0.44458 10.403 85 72 53
-0.42685 0.45403 10.44 105 87 72
0.58232 0.47958 10.264 27 14 1
0.14327 -0.038918 9.8137 239 196 120
0.38485 -0.033828 9.8067 234 191 121
1.1929 0.020053 9.5986 135 104 54
0.21583 -0.007555 9.8163 161 121 57
0.99759 0.018101 9.6722 211 177 115
0.58683 0.0077033 9.7693 224 190 131
0.22945 0.039812 9.8958 55 30 0
1.2072 0.097054 9.676 116 86 40
1.2737 0.2091 9.6199 116 93 52
-0.85171 0.31819 9.834 247 207 146
1.2912 0.24977 9.6409 189 160 105
0.92899 0.2281 9.8765 231 196 133
-0.83731 0.44693 9.9444 226 185 133
-0.83731 0.44693 9.9444 226 185 133
-0.49693 0.37796 10.198 140 97 52
1.4775 0.40424 9.9235 177 142 90
-0.41741 0.3835 10.278 255 226 165
0.52202 0.42189 10.152 155 113 60
1.1849 0.45187 10.033 170 129 72
1.1849 0.45187 10.033 170 129 72
1.0127 0.48451 10.062 225 184 120
0.94838 0.48097 10.101 98 64 21
0.52646 0.47832 10.264 27 13 0
0.97992 0.55985 10.123 206 174 125
0.94335 0.54551 10.167 212 173 117
-0.79874 1.2911 10.55 51 43 39
-0.79795 1.2922 10.547 51 43 39
1.3073 0.03826 9.4648 76 53 13
0.64154 -0.0052256 9.721 255 247 182
-0.16713 0.011046 9.8833 245 210 147
-0.67562 0.12366 9.8708 192 148 82
-0.54427 0.08865 9.9416 193 151 88
-0.8698 0.28818 9.8113 254 223 164
1.2786 0.38813 9.9019 103 73 37
-0.66356 0.42742 10.141 197 150 90
1.452 0.40979 9.9336 127 94 47
1.1801 0.41236 9.9863 119 84 34
0.93789 0.41088 10.034 237 194 133
0.23237 0.42455 10.211 255 225 156
-0.44852 0.43451 10.327 69 37 7
0.48105 0.44146 10.176 255 231 164
-0.79565 -0.022157 9.657 162 121 67
-0.79565 -0.022157 9.657 162 121 67
0.14274 -0.011521 9.8216 255 250 177
-0.77634 0.1969 9.8287 254 219 160
1.1836 0.1195 9.7157 184 152 99
-0.71487 0.46924 10.179 204 161 111
1.1528 0.43916 10.015 232 191 125
1.1516 0.48295 10.048 239 195 129
-0.649 0.56821 10.256 210 159 94
0.95234 0.099807 9.7569 38 17 2
1.2527 0.20337 9.6329 92 68 37
1.2754 0.48192 9.923 89 62 30
1.2754 0.48192 9.923 89 62 30
-0.73855 0.63867 10.197 253 219 167
0.962 0.049342 9.7041 220 186 124
1.0545 0.32371 9.9372 229 187 119
1.795 0.29104 9.8765 0 0 0
-0.56495 0.36237 10.181 182 136 85
1.124 0.5254 10.105 239 198 137
1.5326 0.53767 10.058 6 1 0
1.0012 0.17279 9.8352 231 194 125
-0.68948 0.45813 10.111 221 171 115
0.5538 0.24386 10.137 15 6 4
0.87105 0.51198 10.227 232 190 127
-0.71191 -0.13853 10.399 229 188 125
1.4727 0.11706 9.3433 140 114 59
0.54305 0.024991 9.7948 108 80 30
0.20263 0.028719 9.8535 250 214 153
-0.6451 0.20827 9.9538 166 127 71
1.1153 0.24073 9.8532 225 187 130
-0.79865 0.38858 10.002 255 219 150
0.89573 0.25408 9.9436 228 192 134
1.5063 0.38245 9.8865 158 125 85
-0.41902 0.36041 10.273 143 97 33
-0.12747 0.38225 10.233 189 146 90
0.68339 0.519 10.16 122 95 55
0.50847 0.48235 10.291 191 169 133
0.50847 0.48235 10.291 191 169 133
0.82212 0.55124 10.305 110 91 70
1.4116 0.056121 9.3029 171 151 92
-0.48553 -0.044111 9.8809 254 226 158
0.99877 0.017165 9.6733 207 177 116
1.221 0.077073 9.6295 153 126 86
1.1618 0.059715 9.666 104 76 32
1.1618 0.059715 9.666 104 76 32
0.92296 0.061549 9.7246 89 58 16
-0.87572 0.30944 9.8258 135 97 47
0.94062 0.14281 9.8213 139 103 47
1.2461 0.25616 9.7977 170 142 104
1.2289 0.27344 9.8357 143 108 57
0.91738 0.27083 9.947 127 93 47
1.232 0.30145 9.8948 140 105 54
1.3985 0.3526 9.8764 189 153 106
-0.68765 0.40924 10.123 255 209 141
-0.84548 0.51795 9.9963 255 224 175
1.2534 0.38489 9.9103 172 138 98
-0.49677 0.37504 10.201 142 100 52
0.94525 0.37378 10.008 222 186 132
1.255 0.40458 9.9291 191 157 115
0.95323 0.39678 10.016 176 136 78
-0.41836 0.38042 10.282 253 211 158
1.4185 0.42408 9.947 126 90 41
0.82047 0.40477 10.081 241 197 132
0.82047 0.40477 10.081 241 197 132
1.4269 0.45044 9.9688 97 64 17
0.58402 0.47066 10.208 173 140 101
1.4277 0.5314 10.02 119 86 40
-0.42563 0.44018 10.461 109 90 71
1.1769 0.50519 10.124 61 38 22
-0.83495 -0.011137 9.6648 207 165 100
1.1765 0.055374 9.6411 188 157 103
0.50626 0.023135 9.806 150 109 55
0.08164 0.029788 9.8728 206 172 113
-0.76561 0.17404 9.812 165 130 74
0.14585 0.036358 9.9021 66 32 0
0.14585 0.036358 9.9021 66 32 0
1.1003 0.076741 9.7472 181 144 90
-0.63346 0.36255 10.087 251 209 142
-0.29082 0.34222 10.24 226 176 106
0.0095464 0.34285 10.21 235 185 115
0.43438 0.364 10.146 239 191 123
1.4442 0.4303 9.9519 179 141 94
-0.1704 0.39954 10.251 186 141 81
-0.54751 0.47003 10.276 197 149 94
-0.83634 0.64041 10.114 254 215 157
0.53805 0.47931 10.205 216 174 122
0.82072 0.51831 10.168 255 229 167
1.3541 -0.010973 9.3096 151 129 69
1.2996 -0.017543 9.3857 76 53 14
1.3848 0.074971 9.3651 78 63 29
-0.47332 0.010486 9.9598 68 43 16
0.046863 0.028067 9.878 205 176 118
-0.64098 0.11443 9.8675 248 209 145
-0.62337 0.20459 9.9643 184 147 92
1.5145 0.30956 9.6577 157 135 96
1.6022 0.38535 9.5772 144 120 79
1.5403 0.3577 9.6913 164 138 100
0.98387 0.35532 9.9626 235 197 137
-0.90556 0.68315 10.168 65 36 10
1.2643 -0.070681 9.4298 203 177 118
1.3286 0.0014568 9.3445 232 207 147
-0.79016 0.016067 9.6805 254 221 154
1.2745 0.071023 9.4669 171 141 89
-0.78576 0.090141 9.7627 253 217 156
-0.78186 0.14399 9.7873 246 208 144
-0.78186 0.14399 9.7873 246 208 144
1.0072 0.094612 9.7554 174 138 81
-0.64681 0.18477 9.9281 249 208 136
1.0377 0.135 9.8076 169 128 73
1.0908 0.14874 9.7848 161 122 65
-0.47177 0.080445 10.125 236 204 162
-0.91177 0.44161 9.94 255 227 161
0.73959 0.5548 10.203 18 8 0
1.2354 0.025569 9.5576 70 48 17
1.2921 0.19778 9.59 206 178 119
1.2921 0.19778 9.59 206 178 119
-0.52035 0.25902 10.108 247 208 141
0.97954 0.27236 9.9054 241 204 141
0.80526 0.2758 9.9656 255 219 154
0.73998 0.32569 10.033 255 234 168
-0.6112 0.55128 10.212 255 218 156
-0.85856 0.70645 10.143 244 206 144
0.81083 0.27639 9.9558 237 199 130
1.3041 0.5281 9.9691 21 11 4
1.3041 0.5281 9.9691 21 11 4
1.2581 -0.12991 9.385 6 1 0
1.7258 0.3567 9.892 0 0 0
-0.86742 0.5744 10.059 255 238 168
1.4063 0.17216 9.5047 142 122 91
-0.88858 0.19822 9.7468 255 223 155
0.70698 -0.053703 9.7927 237 203 134
-0.71145 -0.13023 10.39 244 203 138
1.0521 0.10436 10.066 235 203 145
0 0 0 1 0 0 0 1 0 0 0 1 0 0 0 0 0 822 1 0 0
