ply
format ascii 1.0
comment PCL generated
element vertex 76
property float x
property float y
property float z
property uchar red
property uchar green
property uchar blue
element camera 1
property float view_px
property float view_py
property float view_pz
property float x_axisx
property float x_axisy
property float x_axisz
property float y_axisx
property float y_axisy
property float y_axisz
property float z_axisx
property float z_axisy
property float z_axisz
property float focal
property float scalex
property float scaley
property float centerx
property float centery
property int viewportx
property int viewporty
property float k1
property float k2
end_header
0.89277 -0.33627 7.5039 200 200 200
0.87755 -0.28491 7.5163 200 200 200
0.94969 0.068088 7.9907 200 200 200
-0.14062 0.56079 8.5341 200 200 200
-0.75145 -0.45266 7.9191 200 200 200
0.89228 -0.37746 7.4799 200 200 200
0.051909 -0.33437 7.694 200 200 200
-0.010591 -0.32898 7.7002 200 200 200
0.88414 -0.30191 7.513 200 200 200
0.17345 -0.2938 7.6451 200 200 200
-0.48368 -0.28754 7.8999 200 200 200
1.1673 -0.13268 7.9345 200 200 200
0.9394 -0.10993 7.9631 200 200 200
0.76282 0.02859 8.034 200 200 200
0.76282 0.02859 8.034 200 200 200
0.76282 0.02859 8.034 200 200 200
0.65523 0.03289 8.0709 200 200 200
-0.33308 0.074203 8.461 200 200 200
-0.33699 0.10709 8.482 200 200 200
-0.283 0.10988 8.4552 200 200 200
-0.283 0.10988 8.4552 200 200 200
-0.283 0.10988 8.4552 200 200 200
-0.3791 0.11166 8.4937 200 200 200
-0.11866 0.12517 8.3836 200 200 200
0.14976 0.12773 8.2846 200 200 200
0.023295 0.57639 8.449 200 200 200
-0.87629 0.60105 8.9743 200 200 200
0.17123 0.59361 8.4029 200 200 200
0.15762 0.61816 8.4347 200 200 200
-0.7847 -0.53067 7.902 200 200 200
0.91242 -0.39123 7.4758 200 200 200
0.87209 -0.31847 7.5179 200 200 200
0.87209 -0.31847 7.5179 200 200 200
0.90378 -0.31902 7.5083 200 200 200
0.90378 -0.31902 7.5083 200 200 200
-0.64568 -0.33648 7.9055 200 200 200
0.15388 -0.30982 7.6388 200 200 200
0.47471 -0.2927 7.4955 200 200 200
0.47471 -0.2927 7.4955 200 200 200
-0.41402 -0.29913 7.8528 200 200 200
0.769 -0.15094 7.9935 200 200 200
-0.72057 -0.13286 8.0094 200 200 200
0.81874 -0.097207 7.9931 200 200 200
0.91794 -0.092965 7.9649 200 200 200
0.91794 -0.092965 7.9649 200 200 200
0.8781 -0.018091 7.9888 200 200 200
0.67453 0.011085 8.0576 200 200 200
0.94351 0.032682 7.9852 200 200 200
0.96387 0.038137 7.9721 200 200 200
0.50798 0.08864 8.1048 200 200 200
0.96308 0.090558 8.0112 200 200 200
-0.19795 0.094586 8.41 200 200 200
0.17666 0.10569 8.2643 200 200 200
0.17666 0.10569 8.2643 200 200 200
-0.31702 0.12296 8.467 200 200 200
-0.31702 0.12296 8.467 200 200 200
0.19062 0.12799 8.2733 200 200 200
0.35599 0.56115 8.3594 200 200 200
-0.1948 0.57896 8.5456 200 200 200
-0.13836 0.60422 8.5373 200 200 200
-0.76321 -0.34957 7.9667 200 200 200
-0.7477 -0.23391 7.9938 200 200 200
-0.89824 0.082153 8.4669 200 200 200
1.2967 0.14141 8.021 200 200 200
1.2967 0.14141 8.021 200 200 200
0.94179 -0.38239 7.4557 200 200 200
0.91534 -0.36011 7.47 200 200 200
-0.8907 -0.32948 8.0665 200 200 200
1.2982 0.024204 7.9835 200 200 200
1.3419 -0.4793 7.6672 200 200 200
0.98288 -0.34863 7.4168 200 200 200
-0.42696 0.75126 8.8452 200 200 200
-0.87536 0.15956 8.4717 200 200 200
-0.8602 -0.11797 8.172 200 200 200
-0.96067 0.011154 8.2775 200 200 200
-0.22804 0.60684 8.7267 200 200 200
0 0 0 1 0 0 0 1 0 0 0 1 0 0 0 0 0 76 1 0 0
