ply
format ascii 1.0
comment PCL generated
element vertex 930
property float x
property float y
property float z
property uchar red
property uchar green
property uchar blue
element camera 1
property float view_px
property float view_py
property float view_pz
property float x_axisx
property float x_axisy
property float x_axisz
property float y_axisx
property float y_axisy
property float y_axisz
property float z_axisx
property float z_axisy
property float z_axisz
property float focal
property float scalex
property float scaley
property float centerx
property float centery
property int viewportx
property int viewporty
property float k1
property float k2
end_header
0.612 -0.39343 10.2 9 1 5
0.58801 -0.35304 10.213 3 2 73
0.69507 -0.32961 10.159 2 102 84
0.80246 -0.32005 10.036 70 50 31
0.79505 -0.78664 10.492 18 71 21
-0.32746 -0.76705 10.769 124 20 16
0.97427 -0.56949 10.283 14 57 67
0.63165 -0.46726 10.231 140 109 55
1.261 -0.45289 9.9085 18 124 31
0.35397 -0.42465 10.236 23 9 47
0.25161 -0.40672 10.253 28 29 6
-0.039935 -0.38648 10.275 82 32 5
0.24558 -0.37932 10.251 16 3 5
1.2645 -0.37032 9.951 4 7 31
0.24885 -0.35708 10.253 193 149 82
0.57342 -0.33333 10.216 59 24 6
0.57342 -0.33333 10.216 8 92 104
1.2905 -0.32409 10.166 5 10 2
2.0569 -0.29739 12.297 1 0 2
1.5089 -0.20098 10.29 51 17 0
1.6859 -0.22185 10.006 21 39 8
1.2396 -0.20567 9.7505 32 4 23
0.58048 -0.1096 9.8056 11 38 95
1.3864 -0.11181 9.3153 10 42 36
0.68786 -0.064492 9.6904 1 177 10
-0.31834 -0.043998 9.8763 255 222 161
0.46023 -0.01362 9.7918 180 132 73
0.56604 -0.0052842 9.7767 168 132 72
1.1909 0.015911 9.5706 147 116 68
0.66052 0.026345 9.7261 14 7 18
1.2135 0.041227 9.5808 170 141 102
0.50222 0.027586 9.8016 24 6 7
1.1477 0.13272 9.8087 68 67 0
1.4365 0.15175 9.5856 12 3 5
1.4028 0.13829 9.5101 6 110 5
1.2154 0.16424 9.5604 9 31 122
1.3884 0.18479 9.6516 28 82 1
1.3997 0.1907 9.7212 128 12 0
1.1056 0.22621 9.8564 32 43 4
1.4103 0.18416 9.7008 6 29 24
-0.86615 0.33145 9.8541 5 147 0
0.69245 0.37286 10.038 4 0 0
0.92402 0.37723 10.026 3 10 6
0.92418 0.37715 10.026 146 108 59
1.3522 0.19708 9.5417 1 17 30
1.1824 0.40961 9.997 130 91 42
1.2592 0.43822 9.9671 36 50 14
1.1865 0.44794 10.029 5 5 2
1.5547 0.492 9.9883 39 6 4
1.4323 0.5494 10.048 113 72 27
-1.0877 -0.46328 10.971 11 4 6
0.30766 -0.84281 10.74 7 1 1
0.1331 -0.7445 10.707 58 61 2
-0.31076 -0.73891 10.767 21 14 30
0.81916 -0.71547 10.526 19 6 0
1.2208 -0.55681 10.228 1 2 132
1.2427 -0.53422 10.187 4 59 2
1.2627 -0.49071 10.124 1 0 13
0.81941 -0.483 10.216 1 4 4
0.21673 -0.61341 10.123 43 17 5
0.45511 -0.44657 10.242 1 12 26
0.45511 -0.44657 10.242 254 230 168
-0.24719 -0.43154 10.302 81 123 0
0.48718 -0.42409 10.224 37 52 68
0.62309 -0.41553 10.201 86 16 0
-0.2631 -0.4054 10.298 66 3 8
-0.03058 -0.4064 10.276 14 6 1
-0.30171 -0.40399 10.306 15 0 0
0.17462 -0.40282 10.246 17 48 2
1.3936 -0.3421 9.8607 7 2 22
1.3419 -0.29242 9.4953 8 80 5
1.2351 -0.27182 9.9109 1 1 9
1.2917 -0.29949 10.192 23 116 46
0.4708 -0.14204 9.4868 205 170 109
1.2733 -0.1056 9.4478 75 0 0
0.22014 -0.050177 9.8109 17 24 46
0.55384 -0.027832 9.7702 26 16 0
1.1553 -0.014024 9.5896 176 138 86
0.28506 0.2563 10.188 215 184 127
1.4662 0.16814 9.3937 1 0 0
1.1696 0.20757 9.8322 115 21 5
1.4842 0.24418 9.8087 18 0 1
1.208 0.25866 9.487 106 18 0
1.5338 0.26738 9.484 20 67 54
1.757 0.31793 9.7567 9 135 2
0.98663 0.35554 9.9653 237 200 148
1.1888 0.3211 9.5117 5 1 1
1.5492 0.3581 9.7063 4 0 1
1.4036 0.13887 9.5224 3 125 23
1.1169 0.39481 9.9938 4 0 3
1.1521 0.39422 9.9917 6 23 4
1.4998 0.48527 9.9959 60 4 1
1.1332 0.55522 10.134 59 27 1
-0.49441 -1.0815 10.859 1 1 33
0.7448 -0.89859 10.685 4 5 15
0.30768 -0.84418 10.748 16 0 2
-0.88323 -0.67763 10.156 27 33 6
0.54405 -0.49082 10.28 2 17 25
0.52277 -0.39449 10.21 8 121 2
0.2262 -0.75577 10.601 2 1 1
1.1754 -0.38622 10.046 3 66 17
0.79657 -0.041798 9.6892 22 24 19
-0.086014 -0.026136 9.8487 34 29 10
0.64261 -0.0073005 9.7281 255 254 192
0.59819 0.048335 9.8337 1 140 4
0.30621 0.19822 10.942 25 10 6
1.2064 0.2975 9.9067 24 0 0
0.73929 0.3428 10.018 8 3 2
1.2076 0.34301 9.9372 35 0 0
1.2093 0.39703 9.9697 71 17 11
1.2163 0.50597 10.053 114 91 15
1.4671 0.55481 10.064 118 81 10
-0.62929 -1.1138 10.813 19 14 24
0.81106 -0.9997 10.672 16 4 0
-0.38966 -0.9491 10.883 50 44 1
0.58381 -0.87543 10.744 9 75 116
-0.066294 -0.87909 10.86 4 42 75
0.48839 0.29419 10.178 24 99 87
-0.9567 -0.61833 10.634 4 1 1
1.0221 -0.50999 10.185 86 41 1
1.3229 -0.45724 9.9235 22 126 12
1.3229 -0.45724 9.9235 37 119 11
-0.94199 -0.33893 9.6065 241 207 146
1.7191 -0.0092583 9.7736 3 0 0
0.4517 0.23729 9.3322 12 11 12
0.69648 0.33951 10.031 55 120 13
1.0305 0.36677 9.9834 56 52 16
1.0932 0.36637 9.9853 11 27 9
1.3123 0.35835 9.7585 61 3 2
-0.014367 0.31722 8.9956 218 172 108
0.24703 0.28115 10.207 27 6 5
-0.96559 -0.11366 9.5007 19 13 7
0.44078 0.24502 7.7234 11 43 5
1.5396 0.5162 10.095 57 18 17
1.1897 0.5335 10.102 10 124 10
1.5123 0.54208 10.051 131 0 0
1.5573 0.54235 10.007 6 1 0
1.715 0.0094934 9.7545 78 130 15
1.4314 0.59852 10.089 1 0 1
-0.5727 -1.1066 10.868 7 3 33
1.5584 -0.55551 10.068 2 2 1
1.5861 -0.495 10.054 129 57 8
-0.91454 -0.47987 9.8022 215 184 127
0.30543 -0.40029 10.245 3 10 17
1.673 -0.10943 9.8353 121 9 1
1.3454 -0.066493 9.3101 11 16 25
1.3453 -0.066595 9.3103 18 22 33
0.95723 0.11695 9.7479 23 1 0
1.3061 0.27851 9.6742 19 8 1
1.0525 0.53086 10.114 19 9 0
-0.6094 0.61563 10.314 251 216 161
-0.42723 0.35799 7.8095 10 0 0
-0.67682 0.66936 10.306 31 21 15
-0.67682 0.66936 10.306 82 126 36
-0.834 0.71217 10.165 240 205 150
-0.51902 -1.0264 10.847 2 1 2
1.2042 -0.70282 10.417 2 0 2
1.5403 -0.67861 10.035 12 0 0
1.3946 -0.030054 9.2934 239 210 146
1.7729 0.3677 9.7503 154 7 0
-0.49655 0.5429 10.377 24 33 18
0.45347 -0.97268 11.221 4 3 1
0.05507 -0.85214 10.843 212 178 105
0.77982 0.59955 10.19 41 11 26
-0.93134 -0.17686 9.4334 51 5 14
0.64504 -0.96928 10.711 10 7 36
0.60898 0.56491 10.306 1 2 26
1.7889 -1.1658 15.261 58 0 0
-0.57815 -0.10006 10.048 255 226 155
-0.5788 -0.10033 10.053 3 2 96
1.0457 0.024495 9.8808 63 41 8
0.33068 -0.78003 10.69 215 176 110
0.27507 -0.76132 10.699 178 139 72
0.34636 -0.76044 10.683 180 138 72
0.32861 -0.74482 10.691 213 177 114
0.5987 -0.72371 10.65 155 118 55
0.11308 -0.46206 10.286 243 197 126
0.11308 -0.46206 10.286 243 197 126
-0.1887 -0.40729 10.295 168 120 54
0.21926 -0.40585 10.251 247 208 139
0.62279 -0.37791 10.2 166 127 63
-0.20446 -0.37065 10.299 199 155 78
0.60006 -0.33306 10.215 147 108 56
1.0271 -0.19072 9.8368 227 188 131
-0.33197 -0.030845 9.8907 201 167 115
1.3129 0.025896 9.4272 163 137 100
1.4109 0.051357 9.3094 187 165 111
-0.16743 -0.0092171 9.8737 201 159 96
1.3751 0.069522 9.4186 134 114 84
0.5518 0.012558 9.7909 239 205 146
-0.71638 0.061571 9.8307 246 202 144
-0.71608 0.061192 9.8316 237 194 133
-0.08418 0.022071 9.8931 208 175 138
1.1589 0.055196 9.6723 137 106 52
1.1589 0.055196 9.6723 137 106 52
0.10579 0.044561 9.9385 226 191 137
0.94285 0.080843 9.7324 203 176 134
0.96781 0.082364 9.7257 219 187 137
1.0665 0.075709 9.7518 181 142 88
-0.60624 0.11303 9.9678 246 206 149
-0.60689 0.11329 9.9674 248 209 154
1.3592 0.1264 9.6832 85 54 17
1.3549 0.14087 9.7086 182 147 95
1.3738 0.15375 9.6857 100 68 27
1.3743 0.17011 9.7264 170 134 89
1.3613 0.1779 9.74 129 94 44
1.2846 0.22454 9.629 183 156 108
1.3677 0.19764 9.7567 141 105 51
1.4023 0.21469 9.7624 160 126 83
-0.54692 0.22904 10.075 176 131 76
1.1019 0.22329 9.8444 238 201 138
1.3584 0.22805 9.7847 148 108 58
1.3583 0.22805 9.7849 146 109 58
-0.86615 0.33186 9.8491 171 133 83
1.4337 0.27305 9.7233 220 173 99
0.91531 0.26751 9.9525 161 122 71
1.0321 0.29458 9.9504 239 194 123
1.0916 0.29538 9.9379 227 185 121
0.14804 0.22071 10.565 247 195 124
1.521 0.3632 9.8876 71 40 11
-0.49888 0.38086 10.199 163 120 73
-0.49888 0.38086 10.199 163 120 73
0.94199 0.35917 10.033 239 197 144
1.4601 0.29662 9.8287 158 123 84
1.2281 0.2665 9.8118 132 97 53
0.95512 0.39737 10.019 181 140 84
-0.39414 0.39903 10.285 185 140 81
-0.39366 0.39833 10.286 185 140 81
0.57397 0.39311 10.136 255 217 155
-0.091858 0.39903 10.25 175 131 69
-0.091858 0.39903 10.25 175 131 69
1.5447 0.40826 9.909 73 43 13
-0.8395 0.50276 9.991 217 177 126
-0.83926 0.5045 9.9852 217 177 126
1.4046 0.43941 9.9575 199 157 107
0.66656 0.44869 10.102 250 210 149
0.55816 0.45134 10.169 255 215 166
0.67969 0.4651 10.11 202 159 103
1.6122 0.48062 9.95 50 30 3
0.52727 -0.76238 10.657 168 129 65
0.010146 -0.74661 10.735 172 129 66
1.2678 -0.53864 10.156 79 55 23
1.1952 -0.55959 10.25 103 74 34
1.257 -0.42913 10.049 98 73 31
-0.44982 -0.43223 10.329 209 164 97
0.072634 -0.43197 10.273 202 160 85
1.2592 -0.41284 10.086 100 74 35
0.55566 -0.41719 10.213 180 140 79
0.0037669 -0.40756 10.27 255 217 145
-0.26325 -0.37412 10.316 214 169 98
1.5761 -0.55999 10.871 44 27 6
0.66542 -0.060493 9.7192 220 181 112
-0.49883 -0.026847 9.9017 188 148 91
1.3329 0.034766 9.4015 84 59 18
0.33154 -0.026161 9.8065 231 197 128
1.3588 0.045505 9.3918 190 164 124
0.45895 -0.014311 9.7933 174 129 69
1.3848 0.066153 9.3783 78 59 23
0.22244 -0.0033996 9.8595 167 132 66
0.45608 0.0065088 9.7983 255 223 154
-0.21893 0.011745 9.9022 255 234 173
0.89165 0.021639 9.6976 240 205 140
-0.11676 0.01686 9.9016 212 178 121
0.39591 0.019314 9.8175 186 144 80
0.9202 0.033998 9.6876 160 126 68
0.8762 0.035432 9.7236 142 107 51
0.87593 0.034416 9.7264 142 107 51
1.1993 0.048282 9.633 129 98 51
0.56275 0.035935 9.7977 148 111 58
-0.18713 0.032935 9.965 226 196 146
-0.1596 0.033088 9.9665 222 194 144
0.50902 0.039955 9.8352 201 165 103
0.0073567 0.042406 9.9425 226 200 152
0.92158 0.073751 9.7038 120 89 42
1.2276 0.15492 9.4966 78 55 19
-0.80648 0.17507 9.8206 179 134 83
1.1697 0.1168 9.8046 110 76 27
0.96848 0.13464 9.7805 115 78 27
0.94196 0.15842 9.8164 163 124 67
0.90578 0.19317 9.875 152 116 60
-0.62558 0.23532 9.9862 255 228 166
0.90965 0.23816 9.9042 187 147 88
0.94681 0.24168 9.899 174 136 74
1.0168 0.24736 9.8784 183 141 85
1.0168 0.24736 9.8784 183 141 85
0.94908 0.28204 9.953 154 117 64
-0.44446 0.28601 10.275 224 177 115
-0.61451 0.34387 10.07 187 141 86
-0.37526 0.31749 10.259 255 246 173
-0.057952 0.31948 10.216 255 255 176
1.4981 0.33224 9.8626 63 34 5
-0.71535 0.38351 10.106 255 228 168
0.58643 0.33274 10.138 220 176 109
0.58637 0.33182 10.143 227 178 112
-0.17208 0.34444 10.234 241 193 122
-0.17208 0.34444 10.234 241 193 122
-0.45393 0.35436 10.266 192 143 91
-0.70166 0.39609 10.116 217 168 108
-0.44789 0.37813 10.271 255 220 149
0.67183 0.37249 10.084 208 169 108
1.1326 0.37317 9.9845 136 98 53
-0.60857 0.41911 10.136 180 139 92
-0.60815 0.41905 10.136 180 139 92
-0.41784 0.38235 10.286 255 232 169
0.15914 0.40603 10.216 177 127 66
0.55773 0.40935 10.138 195 145 89
-0.098303 0.41804 10.268 255 239 163
1.4198 0.4253 9.9489 139 102 49
1.4449 0.42907 9.9564 181 141 93
1.4449 0.42907 9.9564 181 141 93
0.96098 0.43176 10.044 185 146 85
1.556 0.42873 9.9312 60 33 4
0.59379 0.43598 10.146 177 137 87
0.59386 0.43418 10.154 177 137 87
0.59386 0.43418 10.154 177 137 87
1.428 0.44861 9.9748 116 79 31
1.4282 0.44893 9.9741 116 79 31
1.2572 0.48399 9.9977 157 123 87
0.94208 0.49751 10.126 218 174 116
0.57506 0.49101 10.307 143 128 108
1.0846 0.51332 10.1 220 190 139
1.2612 0.52977 10.042 120 97 70
-0.52716 0.56561 10.352 167 121 64
-0.52743 0.56509 10.355 167 121 64
0.96723 0.56932 10.164 104 73 39
-0.65665 0.63715 10.324 234 190 137
1.1199 -0.55513 10.255 130 97 48
0.12423 -0.43039 10.267 198 153 80
0.16281 -0.43204 10.261 203 164 94
0.35099 -0.40074 10.235 255 224 157
0.35099 -0.40074 10.235 255 224 157
-0.79493 -0.041696 9.6427 255 226 159
-0.47892 -0.093418 9.8634 255 237 180
1.2978 -0.016577 9.3857 88 61 15
1.2916 -0.0014019 9.4167 200 170 115
-0.48336 -0.047971 9.8913 255 229 152
0.26778 -0.050439 9.8106 255 232 158
0.35543 -0.045297 9.8043 255 255 196
-0.25821 -0.036274 9.8711 255 246 177
-0.45879 -0.023716 9.8978 215 172 104
0.32645 -0.0020035 9.8155 255 255 201
1.2296 0.032149 9.5486 64 40 9
-0.023916 0.0052122 9.8608 148 110 68
1.4465 0.084047 9.3193 173 146 87
-0.16755 0.0078016 9.8947 253 213 150
-0.92142 0.10203 9.6751 154 110 51
1.1276 0.053491 9.6884 210 177 113
0.5423 0.32173 8.6837 16 6 0
0.92246 0.10618 9.8069 204 171 117
1.1925 0.14681 9.7677 206 173 121
1.1703 0.15091 9.8039 88 54 9
1.1703 0.15086 9.8046 84 53 9
1.1478 0.17247 9.8112 246 211 145
1.2205 0.18068 9.7703 119 85 44
0.92557 0.17431 9.8668 242 203 139
0.94417 0.20329 9.8724 168 134 78
1.4093 0.2257 9.788 163 127 82
1.039 0.26856 9.8984 238 201 136
-0.87311 0.34916 9.8545 255 232 173
1.6034 0.33794 9.5295 131 104 56
1.1813 0.31503 9.9305 107 71 28
1.1814 0.31641 9.9251 107 71 28
-0.43814 0.31785 10.254 255 231 157
-0.38497 0.34128 10.256 224 170 106
0.78673 0.34245 10.043 203 155 98
-0.31874 0.34368 10.248 233 182 115
-0.31949 0.34402 10.248 233 182 115
-0.29179 0.34391 10.245 234 183 116
-0.21958 0.65022 8.6662 234 183 116
-0.13021 0.34179 10.227 242 192 124
0.049923 0.33033 10.238 225 178 114
0.15167 0.349 10.187 247 195 124
-0.61961 0.39861 10.124 255 217 158
0.43411 0.36465 10.15 228 178 108
1.2792 0.38792 9.9075 105 75 37
1.6706 0.42948 9.6085 69 49 20
0.23039 0.38217 10.189 255 251 171
-0.45558 0.39883 10.289 123 82 47
0.53157 0.39485 10.144 255 235 169
0.67373 0.40748 10.076 208 165 107
0.93854 0.41016 10.04 244 201 142
1.1817 0.41063 9.993 119 82 32
1.2397 0.42141 9.9503 137 101 54
0.92968 0.44917 10.073 117 80 39
1.4924 0.45623 9.9487 133 97 48
1.4924 0.45566 9.9492 132 94 47
1.0529 0.48524 10.055 236 193 125
1.4245 0.50459 10.011 106 73 26
-0.57655 0.54663 10.348 175 131 84
-0.84304 0.6706 10.127 159 118 72
-0.84191 0.67137 10.124 159 118 72
0.83199 -0.55139 10.293 125 97 47
1.2973 -0.13946 9.4043 64 43 11
1.2973 -0.13946 9.4043 64 43 11
1.2616 -0.043534 9.3985 238 206 143
-0.4447 -0.091323 9.8872 141 98 46
-0.44453 -0.090835 9.8858 141 98 46
1.3565 -0.009824 9.3097 162 136 78
1.3309 -0.007023 9.3574 234 208 147
-0.43341 -0.049014 9.8849 255 246 162
-0.43312 -0.048927 9.8845 255 246 162
1.3716 0.024438 9.3363 138 114 62
1.1652 0.019199 9.5958 203 170 111
1.3297 0.047615 9.5428 71 48 19
-0.88622 0.12122 9.6831 255 243 176
1.3982 0.14761 9.6113 43 27 1
0.70911 0.17883 9.8476 20 10 0
1.1962 0.18828 9.7995 214 179 123
1.207 0.25322 9.8601 214 176 119
0.97836 0.29817 9.9179 234 194 133
1.2052 0.29889 9.9031 215 176 121
0.95905 0.30938 9.9861 156 118 71
1.2791 0.34701 9.8629 79 50 18
1.2755 0.35466 9.8415 79 50 18
-0.37615 0.37372 10.264 255 230 152
-0.094597 0.37482 10.233 255 245 174
1.2089 0.39743 9.9693 220 179 122
1.5316 0.51018 10.014 185 158 113
1.6407 0.51855 9.9723 7 1 0
0.95671 0.58965 10.207 224 188 147
0.91303 -0.033784 9.6847 255 217 141
1.409 0.078837 9.3258 229 207 151
1.2335 0.041245 9.5363 90 70 34
1.3544 0.087228 9.5838 55 33 12
1.261 0.24274 9.686 89 64 28
-0.88074 0.31949 9.8276 160 120 71
-0.87792 0.32299 9.8214 181 139 86
1.5656 0.32621 9.6633 27 14 0
0.69717 0.33904 10.033 120 87 53
-0.56563 0.36166 10.189 195 149 98
1.1785 0.37318 9.974 93 60 20
1.7243 0.40732 9.7065 168 151 129
1.394 0.39785 9.9158 206 165 108
1.3075 0.43112 9.7965 191 159 108
1.6213 0.43205 9.7081 27 14 3
1.6706 0.45273 9.655 134 119 84
-0.61275 0.45478 10.17 255 234 176
1.5275 0.46446 9.955 183 146 93
0.64845 0.48316 10.127 210 173 120
-0.56787 0.52749 10.305 192 146 93
1.5968 0.5061 10.004 172 145 103
1.0454 0.52126 10.084 37 19 3
1.5239 0.53074 10.081 10 2 0
0.71525 0.53957 10.158 233 202 160
-0.79237 -1.0878 10.726 182 160 105
-0.57253 -1.1102 10.878 15 6 3
0.66211 -0.85324 10.686 190 156 88
-0.74468 0.082078 9.8261 193 155 108
1.4062 0.11114 9.4263 31 20 3
-0.47215 0.23982 10.237 195 158 106
0.63452 0.29908 10.148 252 208 144
1.0553 0.32533 9.9381 219 177 113
1.1311 0.33449 9.913 202 162 104
1.1311 0.33449 9.913 202 162 104
1.4714 0.35061 9.8908 172 136 83
-0.49816 0.42785 10.283 250 209 153
-0.44397 -1.0373 10.928 17 6 2
-0.44288 -1.0293 10.906 17 6 2
-0.31987 -0.92137 10.849 14 7 0
0.92385 -0.89026 10.619 10 4 1
1.0669 -0.80909 10.478 151 133 95
1.3502 -0.15955 9.3316 211 181 116
-0.78966 0.038187 9.6824 255 223 159
1.7837 0.21192 9.8168 146 120 80
0.63094 0.30715 10.147 255 212 143
-0.59033 1.1671 7.2781 255 244 170
-0.68166 0.6702 10.348 23 15 8
1.2053 -0.66957 10.37 138 110 63
1.3191 0.15419 9.6818 201 163 103
1.4549 -0.67121 10.04 169 150 101
1.4022 0.1438 9.5095 173 148 112
1.1378 0.47683 10.028 238 193 122
1.6594 0.28031 9.5716 182 153 104
1.4356 0.47772 9.9946 175 142 88
1.1927 0.61819 10.213 1 0 0
0.79524 0.43118 10.139 226 178 116
-0.22289 -1.1427 10.909 6 1 0
-0.70697 0.38953 10.168 225 175 114
1.043 -0.044413 10.202 202 164 103
-0.72011 0.033532 9.8083 236 197 141
-0.70007 0.045189 9.8186 199 155 94
0.49634 0.0068185 9.7972 233 199 131
-0.50822 0.028302 9.9551 223 191 143
-0.16906 0.022451 9.9375 91 59 8
-0.16845 0.021899 9.9384 91 59 8
0.16317 0.03126 9.8729 227 198 142
0.88561 0.054253 9.7458 113 82 36
0.19879 0.036654 9.9015 80 52 16
0.066818 0.028873 10 85 70 48
1.351 0.098948 9.6319 126 102 72
0.34227 0.053333 9.908 207 179 138
1.0174 0.073649 9.7587 190 155 95
1.3374 0.099379 9.6522 84 53 11
-0.7652 0.17132 9.8204 165 129 75
1.2887 0.17552 9.5648 127 98 49
1.3822 0.1744 9.6883 76 44 12
-0.68053 0.22651 9.9824 255 207 138
-0.54703 0.2284 10.076 175 131 70
1.1816 0.26644 9.8683 168 131 75
0.93369 0.26664 9.9406 232 196 140
1.4735 0.3214 9.8527 156 122 87
-0.6388 0.38297 10.107 215 169 105
0.96316 0.37292 9.9921 141 101 52
-0.7075 0.42351 10.144 196 148 100
1.2762 0.41789 9.9305 99 70 32
0.67922 0.43273 10.088 212 172 112
0.51989 0.42085 10.159 176 134 75
0.95109 0.44345 10.063 215 180 127
-0.77965 0.54281 10.123 211 166 110
0.67953 0.46523 10.11 192 152 92
0.94186 0.46932 10.089 208 173 127
-0.55171 0.52006 10.323 188 138 84
1.2284 0.5183 10.077 113 95 75
-0.73634 -1.0671 10.702 161 145 110
0.030228 -0.43659 10.281 204 163 95
1.3924 0.020224 9.3196 215 193 134
1.1938 -0.052186 9.6012 142 114 66
1.2063 -0.014866 9.5207 183 158 115
0.22092 -0.052605 9.8197 176 130 66
0.81331 -0.02148 9.6985 207 169 102
1.3319 0.048777 9.4446 167 142 103
-0.87383 0.091178 9.6837 185 145 86
-0.62968 0.044846 9.8202 188 148 94
-0.62968 0.044846 9.8202 188 148 94
0.20136 -0.0029251 9.8422 255 216 155
0.9397 0.020826 9.6762 235 204 142
0.45524 0.0062917 9.7993 254 216 152
0.89223 0.022365 9.696 237 202 139
0.31151 0.014201 9.826 185 146 80
0.54708 0.045513 9.8305 212 180 121
-0.49408 0.043074 10.045 195 169 134
-0.80633 0.17457 9.8212 170 125 71
-0.44252 0.030059 10.342 133 110 82
1.2248 0.19756 9.7914 128 96 46
0.97188 1.1802 7.1634 105 90 66
-0.85163 0.31887 9.8389 255 214 160
0.99501 0.29903 9.9313 232 190 129
1.5002 0.33432 9.7983 136 112 81
-0.19825 0.29057 10.244 246 201 127
1.3819 0.35824 9.8919 141 105 58
1.3819 0.35824 9.8919 141 105 58
1.4222 0.36493 9.9093 143 105 56
0.41288 0.34106 10.162 255 251 175
0.6718 0.37329 10.082 209 167 106
0.92375 0.37737 10.025 148 108 60
1.2167 0.5294 9.5703 183 149 107
0.88959 0.41501 10.081 222 178 127
0.9075 0.44157 10.106 227 181 128
1.5867 0.47358 9.9003 129 109 82
0.53923 0.47495 10.216 217 179 132
1.6304 0.49032 9.9706 145 120 95
0.58764 0.4786 10.202 175 141 105
1.4089 0.51497 10.033 212 172 121
1.3058 0.54486 10.046 204 179 138
0.96007 0.54196 10.132 142 103 48
-0.64839 -0.083703 9.7232 255 234 165
0.52682 -0.059055 9.7876 204 161 105
-0.28913 -0.025437 9.8909 118 80 33
-0.28913 -0.025437 9.8909 118 80 33
0.2656 -0.0050684 9.82 255 245 178
-0.88443 0.11606 9.6886 255 240 176
0.14748 0.014476 9.8457 115 75 38
1.3174 0.072192 9.5716 173 144 99
-0.24526 0.032307 9.9711 223 192 146
-0.064052 0.040366 9.9496 214 181 131
1.1818 0.07484 9.6864 188 159 105
0.99507 0.1045 9.7687 187 148 96
1.7818 0.15459 9.7539 138 113 79
1.2258 0.23983 9.7981 121 88 45
1.8103 0.19323 9.8369 112 90 63
1.2322 0.30636 9.854 127 90 47
-0.61523 0.33897 10.082 182 140 86
1.2536 0.32902 9.8725 174 141 100
0.56889 0.30232 10.161 255 226 155
1.0712 0.34132 9.9808 209 167 112
1.1789 0.34946 9.947 114 81 34
1.2587 0.37143 9.9 169 135 95
1.2358 0.35898 9.9574 149 111 61
0.31613 0.36426 10.161 252 200 129
1.4537 0.40878 9.939 136 100 53
0.20908 0.39951 10.204 194 149 91
0.16138 0.43534 10.182 160 113 49
1.4222 0.48125 9.9848 123 90 40
-0.44261 0.46671 10.393 64 46 31
0.82239 0.51642 10.176 255 221 162
0.82239 0.51642 10.176 255 221 162
-0.39996 -0.10253 9.8871 255 253 177
1.2264 -0.0069066 9.475 93 72 34
1.2264 -0.0069066 9.475 93 72 34
0.096778 -0.014726 9.8347 255 246 176
1.2394 0.10847 9.5771 76 55 17
1.1478 0.075426 9.7152 62 39 9
1.4341 0.17547 9.5615 163 137 100
1.2831 0.19319 9.595 203 171 116
1.8033 0.17573 9.8047 137 107 73
1.1458 0.30867 9.924 205 168 111
1.1466 0.30501 9.9319 205 168 111
0.79551 0.40354 10.106 206 161 101
1.5245 0.41954 9.9249 165 129 87
1.5833 0.46347 9.8109 45 28 7
1.3104 0.54022 9.9541 30 20 6
1.6746 -0.36884 10.119 124 102 74
1.004 0.099629 9.7536 178 142 87
1.7505 0.12163 9.725 165 136 91
-0.64666 0.18285 9.9364 246 207 141
-0.62714 0.29922 10.045 252 210 148
-0.88075 0.64387 10.107 244 198 140
1.467 0.55418 10.061 187 158 119
-0.63467 -1.0893 10.788 167 152 110
-0.78863 0.030356 9.6793 255 221 155
1.2637 0.044705 9.4368 198 173 119
-0.5184 0.06396 9.9271 224 190 136
-0.47825 0.19291 10.179 170 140 98
1.3198 0.51165 9.8898 199 166 115
1.0808 0.5555 10.201 8 2 0
0.99565 0.55834 10.092 229 194 140
-0.78961 0.7495 10.235 22 12 7
1.1271 -0.73661 10.407 20 10 5
1.2894 0.1126 9.5406 183 151 96
0.71346 0.13733 9.829 243 208 140
-0.51845 0.32368 10.138 245 205 139
1.6878 0.48122 9.7474 0 0 0
1.3781 0.55048 10.026 192 153 98
-0.55329 0.62039 10.386 26 18 10
-0.8151 0.66992 10.532 18 8 4
0.83311 -0.91291 10.641 174 154 103
0.73039 0.51425 10.181 246 207 145
1.0681 0.21502 9.8126 194 160 105
-0.29506 0.53711 10.411 10 1 0
0.55341 0.15347 10.031 9 0 0
-0.18014 0.1283 10.111 11 2 3
0.89736 0.048764 9.7266 177 149 106
1.3747 0.11783 9.623 48 27 2
0.34249 0.053443 9.9078 206 177 130
0.9468 0.19243 9.8479 174 139 76
-0.57305 0.22674 10.08 164 124 74
1.3002 0.31239 9.7071 194 165 115
0.9331 0.26758 9.9389 214 179 127
1.3048 0.37748 9.7836 134 105 59
0.95969 0.33433 9.9596 97 61 12
1.4051 0.35043 9.9082 193 156 105
-0.49313 0.36169 10.197 239 193 139
-0.55853 0.41328 10.237 237 191 142
1.498 0.41888 9.9372 126 87 45
1.4044 0.43912 9.9584 207 169 116
1.4079 0.46258 9.9737 173 139 93
1.4077 0.46263 9.9736 176 140 95
-0.12519 0.44386 10.412 85 72 53
-0.42718 0.45347 10.449 105 87 72
0.58322 0.47934 10.27 27 14 1
0.14337 -0.040257 9.8206 239 196 120
0.38519 -0.035393 9.8137 234 191 121
1.1944 0.015706 9.608 135 104 54
0.21604 -0.008025 9.8217 161 121 57
0.99845 0.017033 9.6773 211 177 115
0.58735 0.0070076 9.7746 224 190 131
0.22964 0.037631 9.9039 55 30 0
1.2084 0.095492 9.6817 116 86 40
1.2749 0.20787 9.6249 116 93 52
-0.85211 0.31851 9.8397 247 207 146
1.2926 0.2479 9.6469 189 160 105
0.93002 0.22684 9.8825 231 196 133
-0.83763 0.44738 9.9501 226 185 133
-0.83763 0.44738 9.9501 226 185 133
-0.49704 0.37833 10.204 140 97 52
1.4785 0.405 9.9259 177 142 90
-0.41769 0.38303 10.285 255 226 165
0.52281 0.42155 10.158 155 113 60
1.1863 0.4508 10.039 170 129 72
1.1863 0.4508 10.039 170 129 72
1.014 0.48345 10.068 225 184 120
0.94899 0.48015 10.107 98 64 21
0.52732 0.47822 10.269 27 13 0
0.98124 0.55904 10.129 206 174 125
0.94456 0.54452 10.173 212 173 117
-0.79851 1.2927 10.556 51 43 39
-0.79775 1.2936 10.554 51 43 39
1.3091 0.034957 9.4723 76 53 13
0.64216 -0.0067201 9.7273 255 247 182
-0.16754 0.0091734 9.8914 245 210 147
-0.67616 0.12329 9.8774 192 148 82
-0.54437 0.087211 9.9495 193 151 88
-0.87068 0.28765 9.8185 254 223 164
1.28 0.38699 9.9074 103 73 37
-0.6638 0.42737 10.148 197 150 90
1.4539 0.40825 9.9396 127 94 47
1.1815 0.41145 9.9918 119 84 34
0.93905 0.40995 10.04 237 194 133
0.23285 0.42343 10.219 255 225 156
-0.44837 0.43406 10.334 69 37 7
0.48171 0.44075 10.182 255 231 164
-0.79651 -0.022787 9.6635 162 121 67
-0.79651 -0.022787 9.6635 162 121 67
0.14287 -0.012802 9.8284 255 250 177
-0.77703 0.19643 9.8355 254 219 160
1.1847 0.11797 9.7215 184 152 99
-0.71548 0.47313 10.18 204 161 111
1.1541 0.43818 10.021 232 191 125
1.1525 0.48224 10.053 239 195 129
-0.64902 0.56831 10.263 210 159 94
0.95296 0.097172 9.7647 38 17 2
1.254 0.2015 9.6389 92 68 37
1.2769 0.48098 9.9283 89 62 30
1.2769 0.48098 9.9283 89 62 30
-0.73876 0.63913 10.203 253 219 167
0.96294 0.047751 9.7102 220 186 124
1.0563 0.32064 9.946 229 187 119
1.7966 0.28954 9.8819 0 0 0
-0.56533 0.36209 10.188 182 136 85
1.1255 0.52431 10.112 239 198 137
1.5399 0.51534 10.096 6 1 0
1.0023 0.17144 9.8412 231 194 125
-0.68981 0.45827 10.117 221 171 115
0.55446 0.24259 10.145 15 6 4
0.87221 0.51158 10.233 232 190 127
-0.68793 -0.069487 10.302 229 188 125
1.4744 0.11335 9.3505 140 114 59
0.54352 0.025341 9.7991 108 80 30
-0.15554 0.01297 9.9217 170 141 97
0.20289 0.029442 9.8577 250 214 153
-0.64564 0.20938 9.9587 166 127 71
1.3864 0.1919 9.7426 160 127 86
1.1164 0.23963 9.8588 225 187 130
-0.79819 0.39108 10.006 255 219 150
0.89675 0.25303 9.9495 228 192 134
1.5083 0.37842 9.8955 158 125 85
-0.41879 0.36239 10.277 143 97 33
-0.12706 0.38197 10.24 189 146 90
0.56313 0.47636 10.244 140 118 89
0.6844 0.51846 10.166 122 95 55
0.50942 0.48164 10.297 191 169 133
0.50942 0.48164 10.297 191 169 133
0.82325 0.55195 10.309 110 91 70
1.4122 0.053894 9.3085 171 151 92
-0.48573 -0.042763 9.8851 254 226 158
0.99955 0.016903 9.6776 207 177 116
1.222 0.07626 9.6342 153 126 86
1.1628 0.058923 9.6707 104 76 32
1.1638 0.056048 9.674 104 76 32
0.92375 0.060957 9.7295 89 58 16
-0.87685 0.30758 9.8344 135 97 47
0.94144 0.14205 9.8265 139 103 47
1.2472 0.25577 9.8022 170 142 104
1.2296 0.27579 9.8369 143 108 57
0.91853 0.26968 9.953 127 93 47
1.5797 0.39049 9.7063 58 34 8
1.2324 0.30518 9.8943 140 105 54
1.4003 0.34948 9.8843 189 153 106
-0.68836 0.40829 10.131 255 209 141
-0.84631 0.51678 10.005 255 224 175
1.2549 0.38306 9.9169 172 138 98
-0.49672 0.37635 10.206 142 100 52
0.94633 0.37376 10.012 222 186 132
1.256 0.40517 9.9326 191 157 115
0.95439 0.39582 10.022 176 136 78
-0.41891 0.38026 10.289 253 211 158
1.4195 0.42574 9.949 126 90 41
0.8215 0.40431 10.087 241 197 132
0.8215 0.40431 10.087 241 197 132
1.4287 0.44851 9.9754 97 64 17
0.58527 0.46904 10.215 173 140 101
1.4293 0.53054 10.025 119 86 40
-0.42506 0.44376 10.463 109 90 71
1.1784 0.50418 10.13 61 38 22
-0.83596 -0.012096 9.6717 207 165 100
1.1776 0.052935 9.6477 188 157 103
0.50752 0.02224 9.8116 150 109 55
0.081827 0.030762 9.8769 206 172 113
-0.76651 0.17405 9.8181 165 130 74
0.14609 0.037379 9.9061 66 32 0
0.14534 0.034056 9.9102 66 32 0
1.1015 0.074303 9.7541 181 144 90
1.2512 0.28461 9.8409 160 133 93
-0.63326 0.36488 10.09 251 209 142
-0.29109 0.34241 10.247 226 176 106
0.0094625 0.34372 10.215 235 185 115
0.43507 0.36462 10.151 239 191 123
1.446 0.42829 9.9586 179 141 94
-0.17005 0.40105 10.255 186 141 81
-0.54738 0.47169 10.28 197 149 94
-0.83547 0.6431 10.117 254 215 157
0.53891 0.47947 10.211 216 174 122
0.82186 0.51772 10.174 255 229 167
1.3554 -0.013671 9.3157 151 129 69
1.3021 -0.022939 9.3948 76 53 14
1.3862 0.071976 9.3716 78 63 29
-0.47339 0.012345 9.9635 68 43 16
0.04712 0.025975 9.8858 205 176 118
-0.64149 0.11438 9.8736 248 209 145
-0.62374 0.20487 9.9702 184 147 92
1.515 0.31275 9.6573 157 135 96
1.6044 0.38099 9.5858 144 120 79
1.5447 0.34583 9.7094 164 138 100
0.98492 0.35427 9.9685 235 197 137
-0.90622 0.68262 10.176 65 36 10
1.264 -0.060563 9.4218 203 177 118
1.3298 -0.00113 9.3505 232 207 147
-0.79168 0.011458 9.6916 254 221 154
1.2757 0.068628 9.4731 171 141 89
-0.78557 0.094 9.7641 253 217 156
-0.78273 0.143 9.7945 246 208 144
-0.7817 0.14635 9.7904 246 208 144
1.0088 0.089738 9.7653 174 138 81
-0.64672 0.18669 9.9318 249 208 136
1.0386 0.13148 9.8161 169 128 73
1.0934 0.14107 9.7981 161 122 65
-0.47167 0.082827 10.128 236 204 162
-0.912 0.44215 9.9459 255 227 161
0.74026 0.55479 10.208 18 8 0
1.235 0.031052 9.555 70 48 17
1.293 0.19385 9.5984 206 178 119
1.2935 0.1949 9.597 206 178 119
-0.52041 0.26017 10.113 247 208 141
0.98027 0.27093 9.9117 241 204 141
0.80615 0.27553 9.9707 255 219 154
0.74087 0.32555 10.038 255 234 168
-0.61296 0.54501 10.227 255 218 156
-0.8593 0.70535 10.152 244 206 144
0.81172 0.27609 9.9609 237 199 130
1.3059 0.52544 9.9769 21 11 4
1.3059 0.52544 9.9769 21 11 4
1.2558 -0.11832 9.376 6 1 0
1.7277 0.35477 9.8981 0 0 0
-0.86796 0.57586 10.064 255 238 168
1.4078 0.16906 9.5117 142 122 91
-0.89134 0.19506 9.757 255 223 155
0.70752 -0.053315 9.7966 237 203 134
-0.70614 -0.10008 10.359 244 203 138
1.0507 0.11559 10.057 235 203 145
-0.18583 0.0087237 9.9138 98 67 20
-0.18583 0.0087237 9.9138 98 67 20
1.2892 0.17211 9.5719 119 90 43
-0.11637 0.026814 9.9588 169 144 105
1.1289 0.068646 9.7481 160 129 85
1.2845 0.22541 9.6285 168 146 96
0.98294 0.14432 9.7916 212 176 119
-0.53827 0.2153 10.066 236 193 133
1.3 0.31731 9.703 188 161 110
-0.63914 0.38193 10.107 200 159 95
-0.71419 0.41153 10.131 241 200 140
-0.85036 0.55541 10.034 214 179 127
-0.22438 0.34467 10.243 215 168 102
1.026 0.41188 10.01 166 127 63
1.4847 0.45445 9.95 112 78 35
1.2411 0.50435 10.03 119 83 44
0.60058 0.47972 10.247 81 68 50
0.5667 0.48254 10.293 161 136 97
-0.57252 0.57893 10.374 113 77 34
-0.71952 0.031058 9.8101 230 193 134
0.81414 -0.020618 9.698 195 159 93
0.14415 -0.04282 9.8235 225 185 110
0.14415 -0.04282 9.8235 225 185 110
1.1429 0.0069323 9.641 114 85 33
1.3234 0.06925 9.5795 163 137 94
1.3234 0.06925 9.5795 163 137 94
0.89301 0.017428 9.6999 231 196 134
0.89301 0.017428 9.6999 231 196 134
0.20188 -0.009348 9.8489 253 214 154
1.2006 0.064166 9.6659 83 53 15
1.3911 0.14572 9.6371 42 20 1
0.91032 0.070547 9.7837 168 135 96
0.34381 0.045399 9.9164 203 173 118
0.48699 0.051251 9.891 198 164 110
1.1453 0.13729 9.8023 190 156 107
1.3175 0.39915 9.7943 141 108 58
-0.4908 0.36919 10.184 240 201 144
-0.44807 0.37802 10.269 238 194 142
0.82115 0.40538 10.086 242 203 137
1.4288 0.55778 10.031 111 81 36
1.4288 0.55778 10.031 111 81 36
1.3909 0.018798 9.3122 216 198 139
-0.44682 -0.10178 9.8986 138 91 29
1.1777 0.051168 9.6492 187 156 103
-0.062727 0.032551 9.9577 212 178 123
-0.54833 0.098349 9.9727 233 195 124
0.23115 0.04156 9.9294 175 150 109
0.23115 0.04156 9.9294 175 150 109
1.1646 0.28261 9.9093 50 28 2
0.95037 0.27351 9.9667 114 82 37
1.1837 0.31612 9.9232 92 59 20
1.1837 0.31612 9.9232 92 59 20
0.92378 0.37542 10.029 150 115 72
0.31657 0.35997 10.169 238 185 121
1.3968 0.49456 9.9925 205 168 117
1.0851 0.51338 10.101 235 203 148
-0.53099 0.56459 10.356 153 104 54
0.25707 0.44805 10.381 115 100 82
1.2066 -0.040534 9.5463 180 157 113
0.27676 -0.088389 9.8271 254 238 160
-0.088143 -0.0035599 9.8738 123 90 51
1.1461 0.021851 9.6728 105 74 29
-0.47183 -0.0024446 9.9288 250 215 150
1.5465 0.33441 9.7191 151 128 87
1.026 0.28209 9.9266 53 25 0
1.1778 0.38201 9.9618 110 76 37
-0.094845 0.37384 10.233 255 241 171
-0.74126 0.54746 10.159 252 215 163
0.35429 0.46861 10.35 107 89 61
1.2612 -0.084866 9.3822 19 10 0
-0.38754 -0.14986 9.8808 25 6 0
0.99136 -0.063484 9.6038 13 1 0
-0.34168 -0.12938 9.8914 255 243 165
0.76597 -0.074085 9.6795 28 9 2
-0.4625 0.019291 10.05 68 38 11
0.98203 0.22506 9.8653 223 188 124
1.0475 0.50045 10.088 45 22 0
-0.8919 0.70405 10.226 47 26 13
1.0374 0.5035 10.308 11 4 1
-0.65892 -0.10902 9.5738 37 29 22
1.314 -0.060868 9.3633 199 174 105
-0.5466 -0.15169 9.8169 252 221 154
-0.079405 -0.13139 9.8452 16 3 0
1.1074 -0.02645 9.623 219 186 117
1.2948 0.083527 9.5687 182 154 98
0.96954 0.044808 9.7119 218 187 128
0.95252 0.091541 9.7695 41 18 3
-0.50145 0.40546 10.26 255 221 161
1.3991 -0.035892 9.3095 233 202 139
1.1213 -0.050922 9.5607 10 2 3
0.20961 -0.14001 9.828 9 3 0
-0.69716 0.43708 10.141 198 154 103
0.99913 0.50809 10.019 231 190 125
1.3032 0.52875 9.9737 22 12 3
-0.93775 -0.1747 9.4857 255 255 183
0.91932 0.48273 10.441 5 0 0
1.3724 -0.042751 9.3445 153 132 75
1.1147 -0.1241 9.5608 7 1 0
1.0393 0.20787 9.8338 134 100 51
1.5348 0.19573 9.809 87 67 31
1.4771 0.39434 10.084 203 167 111
0 0 0 1 0 0 0 1 0 0 0 1 0 0 0 0 0 930 1 0 0
