ply
format ascii 1.0
comment PCL generated
element vertex 1056
property float x
property float y
property float z
property uchar red
property uchar green
property uchar blue
element camera 1
property float view_px
property float view_py
property float view_pz
property float x_axisx
property float x_axisy
property float x_axisz
property float y_axisx
property float y_axisy
property float y_axisz
property float z_axisx
property float z_axisy
property float z_axisz
property float focal
property float scalex
property float scaley
property float centerx
property float centery
property int viewportx
property int viewporty
property float k1
property float k2
end_header
0.61221 -0.39257 10.197 9 1 5
0.58822 -0.3522 10.21 3 2 73
0.69519 -0.32878 10.156 2 102 84
0.80249 -0.31925 10.033 70 50 31
0.79521 -0.78531 10.489 18 71 21
-0.32634 -0.76593 10.765 124 20 16
0.97424 -0.56838 10.28 14 57 67
0.63186 -0.46632 10.228 140 109 55
1.2607 -0.45191 9.9059 18 124 31
0.35439 -0.42382 10.233 23 9 47
0.25212 -0.40592 10.249 28 29 6
-0.039181 -0.38576 10.272 82 32 5
0.24609 -0.37854 10.247 16 3 5
1.2642 -0.36936 9.9481 4 7 31
0.24935 -0.35632 10.25 193 149 82
0.57365 -0.33252 10.213 59 24 6
0.57365 -0.33252 10.213 8 92 104
1.2735 -0.32729 10.048 5 10 2
2.0561 -0.2957 12.292 1 0 2
1.4378 0.26658 9.8107 51 17 0
1.6852 -0.22093 10.004 21 39 8
1.2393 -0.20493 9.7481 32 4 23
0.58061 -0.10909 9.8032 11 38 95
1.386 -0.11122 9.3135 10 42 36
0.68791 -0.064012 9.6881 1 177 10
-0.31751 -0.043819 9.8742 255 222 161
0.46046 -0.013203 9.7892 180 132 73
0.56618 -0.0048617 9.7741 168 132 72
1.1905 0.016441 9.568 147 116 68
0.66058 0.026759 9.7235 14 7 18
1.2131 0.041598 9.5785 170 141 102
0.50242 0.028005 9.7989 24 6 7
1.1473 0.13321 9.8059 68 67 0
1.4345 0.16948 9.5642 12 3 5
1.4022 0.13874 9.5082 6 110 5
1.215 0.16459 9.5578 9 31 122
1.3885 0.17272 9.6611 28 82 1
1.399 0.19129 9.7181 128 12 0
1.1053 0.22662 9.8535 32 43 4
1.4099 0.1846 9.6979 6 29 24
-0.86494 0.33127 9.8514 5 147 0
0.69241 0.37308 10.035 4 0 0
0.92379 0.3775 10.022 3 10 6
0.92394 0.37742 10.023 146 108 59
1.3516 0.19783 9.5385 1 17 30
1.1819 0.40991 9.994 130 91 42
1.2587 0.4385 9.964 36 50 14
1.186 0.44821 10.026 5 5 2
1.5538 0.49234 9.9849 39 6 4
1.4315 0.54966 10.045 113 72 27
-1.0001 -0.20994 10.498 11 4 6
0.30829 -0.84147 10.737 7 1 1
0.13382 -0.7433 10.703 58 61 2
-0.30963 -0.73778 10.763 21 14 30
0.81928 -0.71419 10.523 19 6 0
1.2205 -0.55566 10.225 1 2 132
1.2424 -0.53307 10.184 4 59 2
1.2624 -0.48961 10.121 1 0 13
0.81948 -0.48202 10.213 1 4 4
0.21734 -0.61279 10.121 43 17 5
0.45546 -0.44568 10.239 1 12 26
0.45546 -0.44568 10.239 254 230 168
-0.24625 -0.43082 10.299 81 123 0
0.4875 -0.42322 10.221 37 52 68
0.6233 -0.41465 10.199 86 16 0
-0.26216 -0.40471 10.295 66 3 8
-0.029839 -0.40568 10.273 14 6 1
-0.30073 -0.40331 10.303 15 0 0
0.17519 -0.40205 10.243 17 48 2
1.3931 -0.34119 9.8583 7 2 22
1.3415 -0.29166 9.4933 8 80 5
1.2348 -0.27099 9.9083 1 1 9
1.2733 -0.24948 10.049 23 116 46
0.47097 -0.14162 9.4845 205 170 109
1.2729 -0.10501 9.446 75 0 0
0.22056 -0.049789 9.8083 17 24 46
0.55399 -0.027397 9.7676 26 16 0
1.155 -0.013482 9.5871 176 138 86
0.28536 0.25623 10.185 215 184 127
1.4656 0.16856 9.392 1 0 0
1.1692 0.20801 9.8293 115 21 5
1.4835 0.24467 9.8058 18 0 1
1.2076 0.25891 9.4844 106 18 0
1.5332 0.26777 9.4822 20 67 54
1.7561 0.3184 9.7545 9 135 2
0.98634 0.35583 9.9623 237 200 148
1.1884 0.32129 9.509 5 1 1
1.5485 0.35847 9.7042 4 0 1
1.403 0.13924 9.5199 3 125 23
1.1165 0.39511 9.9907 4 0 3
1.1516 0.39461 9.9882 6 23 4
1.4991 0.48558 9.9931 60 4 1
1.1327 0.55542 10.131 59 27 1
-0.493 -1.0801 10.854 1 1 33
0.74501 -0.89711 10.681 4 5 15
0.3083 -0.84284 10.745 16 0 2
-0.88169 -0.67688 10.152 27 33 6
1.4786 0.098784 9.3267 2 17 25
0.52305 -0.39364 10.207 8 121 2
0.22679 -0.75447 10.597 2 1 1
1.1751 -0.38525 10.043 3 66 17
0.79651 -0.041293 9.6866 22 24 19
-0.085337 -0.025845 9.8462 34 29 10
0.64268 -0.0068625 9.7255 255 254 192
0.59828 0.04874 9.8312 1 140 4
0.30662 0.19871 10.937 25 10 6
1.2059 0.29788 9.9036 24 0 0
0.73921 0.34305 10.015 8 3 2
1.2071 0.34337 9.934 35 0 0
1.2088 0.39742 9.9663 71 17 11
1.2158 0.50622 10.049 114 91 15
1.4664 0.5551 10.06 118 81 10
-0.62776 -1.1124 10.808 19 14 24
0.81127 -0.99812 10.668 16 4 0
-0.38842 -0.94779 10.879 50 44 1
0.58424 -0.87402 10.741 9 75 116
-0.06532 -0.87776 10.856 4 42 75
0.48852 0.29448 10.175 24 99 87
-0.95479 -0.61746 10.627 4 1 1
1.022 -0.50893 10.182 86 41 1
1.3225 -0.45623 9.9209 22 126 12
1.3225 -0.45623 9.9209 37 119 11
-0.94055 -0.33864 9.6042 241 207 146
1.7184 -0.0085537 9.7714 3 0 0
0.4518 0.23739 9.3304 12 11 12
0.69644 0.33975 10.028 55 120 13
1.0296 0.36726 9.9798 56 52 16
1.0928 0.36668 9.9821 11 27 9
1.3118 0.35867 9.7562 61 3 2
-0.013833 0.317 8.9942 218 172 108
0.24738 0.28081 10.205 27 6 5
-0.96438 -0.11369 9.499 19 13 7
0.44075 0.24473 7.7235 11 43 5
1.539 0.51578 10.093 57 18 17
1.1892 0.53372 10.098 10 124 10
1.5114 0.5424 10.048 131 0 0
1.5565 0.54266 10.004 6 1 0
1.7141 0.0099798 9.7518 78 130 15
1.4307 0.59876 10.085 1 0 1
-0.57121 -1.1051 10.864 7 3 33
1.5579 -0.55434 10.065 2 2 1
1.5856 -0.49387 10.052 129 57 8
-0.91305 -0.47939 9.7995 215 184 127
0.3059 -0.39948 10.242 3 10 17
1.6723 -0.10864 9.8328 121 9 1
1.3449 -0.065953 9.3084 11 16 25
1.3447 -0.066031 9.308 18 22 33
0.95702 0.11737 9.7456 23 1 0
1.3055 0.27887 9.6716 19 8 1
1.0522 0.53107 10.111 19 9 0
-0.60842 0.61535 10.311 251 216 161
-0.42667 0.35742 7.8093 10 0 0
-0.67578 0.66904 10.303 31 21 15
-0.67578 0.66904 10.303 82 126 36
-0.83287 0.71175 10.162 240 205 150
-0.51765 -1.0251 10.843 2 1 2
1.204 -0.70151 10.413 2 0 2
1.5398 -0.67734 10.032 12 0 0
1.3941 -0.029533 9.2916 239 210 146
1.772 0.36815 9.7475 154 7 0
-0.49562 0.54275 10.373 24 33 18
0.45447 -0.96899 11.208 4 3 1
0.055937 -0.85076 10.838 212 178 105
0.77965 0.59964 10.187 41 11 26
-0.92996 -0.17675 9.4312 51 5 14
0.6454 -0.96777 10.707 10 7 36
0.60894 0.56495 10.303 1 2 26
1.7886 -1.1625 15.252 58 0 0
-0.57702 -0.099769 10.045 255 226 155
-0.57766 -0.10004 10.05 3 2 96
1.0455 0.025037 9.8784 63 41 8
0.33121 -0.77885 10.686 215 176 110
0.27564 -0.76018 10.695 178 139 72
0.34687 -0.75927 10.679 180 138 72
0.32913 -0.74368 10.688 213 177 114
0.59898 -0.72246 10.646 155 118 55
0.11372 -0.46132 10.283 243 197 126
0.11372 -0.46132 10.283 243 197 126
-0.18784 -0.40673 10.292 168 120 54
0.2198 -0.40512 10.248 247 208 139
0.62298 -0.37703 10.197 166 127 63
-0.2036 -0.37014 10.296 199 155 78
0.60026 -0.33223 10.212 147 108 56
1.0269 -0.18987 9.8337 227 188 131
-0.33108 -0.030718 9.8884 201 167 115
1.3123 0.0261 9.4253 163 137 100
1.4102 0.052082 9.3065 187 165 111
-0.16671 -0.0087395 9.8707 201 159 96
1.3743 0.070621 9.4149 134 114 84
0.55203 0.012774 9.7887 239 205 146
-0.71528 0.061385 9.8289 246 202 144
-0.71501 0.061149 9.8295 237 194 133
-0.08354 0.022092 9.8911 208 175 138
1.1585 0.055848 9.6692 137 106 52
1.1585 0.055848 9.6692 137 106 52
0.10632 0.044815 9.9359 226 191 137
0.94262 0.081459 9.7293 203 176 134
0.96761 0.082827 9.723 219 187 137
1.0662 0.075654 9.7499 181 142 88
-0.60527 0.11281 9.966 246 206 149
-0.60585 0.11318 9.9654 248 209 154
1.3586 0.12703 9.6801 85 54 17
1.3542 0.14147 9.7056 182 147 95
1.3731 0.1544 9.6826 100 68 27
1.3736 0.17032 9.724 170 134 89
1.3606 0.17848 9.7369 129 94 44
1.2843 0.22497 9.6262 183 156 108
1.367 0.19829 9.7535 141 105 51
1.4015 0.21451 9.7605 160 126 83
-0.54609 0.22888 10.073 176 131 76
1.1015 0.22376 9.8414 238 201 138
1.3577 0.22861 9.7815 148 108 58
1.3577 0.22862 9.7817 146 109 58
-0.86499 0.33142 9.8474 171 133 83
1.433 0.27363 9.7201 220 173 99
0.91511 0.26788 9.9495 161 122 71
1.0317 0.29499 9.9472 239 194 123
1.091 0.29486 9.9367 227 185 121
0.14852 0.22096 10.562 247 195 124
1.5202 0.3651 9.881 71 40 11
-0.49797 0.38061 10.196 163 120 73
-0.49797 0.38061 10.196 163 120 73
0.94174 0.3595 10.03 239 197 144
1.4603 0.29361 9.8306 158 123 84
1.2275 0.2662 9.8101 132 97 53
0.95487 0.39765 10.016 181 140 84
-0.39334 0.39865 10.283 185 140 81
-0.39278 0.39819 10.284 185 140 81
0.57407 0.39324 10.133 255 217 155
-0.091249 0.39894 10.247 175 131 69
-0.091249 0.39894 10.247 175 131 69
1.5439 0.40879 9.9054 73 43 13
-0.83826 0.50234 9.9888 217 177 126
-0.83815 0.50401 9.9833 217 177 126
1.404 0.43985 9.9541 199 157 107
0.6666 0.44881 10.099 250 210 149
0.55777 0.45121 10.167 255 215 166
0.67956 0.46514 10.107 202 159 103
1.6112 0.48108 9.9465 50 30 3
0.52762 -0.76113 10.654 168 129 65
0.010934 -0.74561 10.732 172 129 66
1.2674 -0.53732 10.152 79 55 23
1.1949 -0.55827 10.246 103 74 34
1.2566 -0.42793 10.046 98 73 31
-0.44875 -0.43176 10.327 209 164 97
0.073284 -0.43133 10.27 202 160 85
1.2588 -0.41165 10.082 100 74 35
0.55592 -0.4163 10.209 180 140 79
0.0044667 -0.40697 10.267 255 217 145
-0.26233 -0.37362 10.313 214 169 98
1.5755 -0.55846 10.867 44 27 6
0.6655 -0.059935 9.7165 220 181 112
-0.49793 -0.027115 9.9002 188 148 91
1.3323 0.035479 9.3987 84 59 18
0.33189 -0.025848 9.8041 231 197 128
1.3581 0.046171 9.3891 190 164 124
0.4592 -0.013886 9.7907 174 129 69
1.3842 0.066859 9.3754 78 59 23
0.22288 -0.003064 9.8569 167 132 66
0.45633 0.0069257 9.7956 255 223 154
-0.21844 0.011685 9.9004 255 234 173
0.89151 0.022205 9.6947 240 205 140
-0.11605 0.01704 9.8992 212 178 121
0.39621 0.01962 9.8151 186 144 80
0.92005 0.034448 9.685 160 126 68
0.87602 0.036094 9.7205 142 107 51
0.8758 0.034966 9.7235 142 107 51
1.1984 0.051232 9.6258 129 98 51
0.5629 0.036359 9.795 148 111 58
-0.18637 0.033079 9.9625 226 196 146
-0.15886 0.033244 9.964 222 194 144
0.50922 0.040356 9.8325 201 165 103
0.0079404 0.042538 9.9403 226 200 152
0.92141 0.074291 9.7009 120 89 42
1.2271 0.15548 9.4937 78 55 19
-0.80532 0.1741 9.8201 179 134 83
1.1692 0.11737 9.8016 110 76 27
0.96826 0.13511 9.7776 115 78 27
0.94175 0.1589 9.8134 163 124 67
0.90559 0.19367 9.8719 152 116 60
-0.62455 0.23511 9.9841 255 228 166
0.90946 0.23856 9.9011 187 147 88
0.94635 0.24204 9.8961 174 136 74
1.0165 0.2478 9.8753 183 141 85
1.0165 0.2478 9.8753 183 141 85
0.94886 0.2824 9.95 154 117 64
-0.44355 0.28586 10.272 224 177 115
-0.6135 0.34359 10.067 187 141 86
-0.37442 0.31735 10.256 255 246 173
-0.057353 0.3194 10.214 255 255 176
1.4974 0.33373 9.8573 63 34 5
-0.71428 0.3831 10.104 255 228 168
0.5865 0.33296 10.135 220 176 109
0.58646 0.33203 10.14 227 178 112
-0.17144 0.34423 10.232 241 193 122
-0.17144 0.34423 10.232 241 193 122
-0.45304 0.35416 10.264 192 143 91
-0.70113 0.39536 10.115 217 168 108
-0.447 0.37791 10.269 255 220 149
0.67184 0.37269 10.081 208 169 108
1.1323 0.37353 9.9813 136 98 53
-0.60757 0.41875 10.133 180 139 92
-0.60716 0.41872 10.133 180 139 92
-0.41703 0.38201 10.284 255 232 169
-0.16968 0.39805 10.257 177 127 66
0.55783 0.40948 10.135 195 145 89
-0.097684 0.41786 10.266 255 239 163
1.4188 0.42574 9.9455 139 102 49
1.4442 0.42944 9.9533 181 141 93
1.4442 0.42944 9.9533 181 141 93
0.96076 0.43199 10.041 185 146 85
1.5551 0.42925 9.9276 60 33 4
0.59387 0.43608 10.143 177 137 87
0.5939 0.43431 10.151 177 137 87
0.5939 0.43431 10.151 177 137 87
1.4273 0.44903 9.9713 116 79 31
1.4274 0.44996 9.9694 116 79 31
1.2567 0.48436 9.9942 157 123 87
0.9418 0.49772 10.123 218 174 116
0.57514 0.49106 10.304 143 128 108
1.0843 0.51358 10.097 220 190 139
1.2606 0.53008 10.039 120 97 70
-0.52627 0.56523 10.35 167 121 64
-0.52651 0.5647 10.352 167 121 64
0.96691 0.56948 10.161 104 73 39
-0.65567 0.6366 10.322 234 190 137
1.1197 -0.55385 10.251 130 97 48
0.12485 -0.42968 10.264 198 153 80
0.16339 -0.43135 10.258 203 164 94
0.35141 -0.40001 10.232 255 224 157
0.35141 -0.40001 10.232 255 224 157
-0.79377 -0.041228 9.6399 255 226 159
-0.47791 -0.093303 9.8612 255 237 180
1.2973 -0.015831 9.3828 88 61 15
1.2916 -0.0014982 9.4153 200 170 115
-0.48237 -0.047892 9.8891 255 229 152
0.2682 -0.05005 9.808 255 232 158
0.35577 -0.044875 9.8017 255 255 196
-0.25739 -0.036129 9.8688 255 246 177
-0.45791 -0.023829 9.8961 215 172 104
0.3268 -0.0017136 9.8131 255 255 201
1.2291 0.032835 9.5457 64 40 9
-0.02331 0.0052786 9.8589 148 110 68
1.4458 0.084756 9.3164 173 146 87
-0.1668 0.0079672 9.8924 253 213 150
-0.91953 0.10183 9.6731 154 110 51
1.1269 0.054186 9.6854 210 177 113
0.54232 0.32189 8.6817 16 6 0
0.92229 0.1066 9.8042 204 171 117
1.192 0.14747 9.7645 206 173 121
1.1699 0.1514 9.8011 88 54 9
1.1699 0.15135 9.8017 84 53 9
1.1474 0.17302 9.8081 246 211 145
1.22 0.18123 9.7672 119 85 44
0.92539 0.17473 9.8639 242 203 139
0.9436 0.20428 9.8683 168 134 78
1.4079 0.22743 9.7826 163 127 82
1.0387 0.269 9.8953 238 201 136
-0.87194 0.34875 9.8527 255 232 173
1.6026 0.33863 9.526 131 104 56
1.1808 0.31548 9.9272 107 71 28
1.181 0.31684 9.922 107 71 28
-0.43725 0.31769 10.251 255 231 157
-0.38411 0.34121 10.254 224 170 106
0.78664 0.34272 10.04 203 155 98
-0.31789 0.34346 10.246 233 182 115
-0.31868 0.34387 10.245 233 182 115
-0.29072 0.34361 10.243 234 183 116
-0.21891 0.64976 8.6646 234 183 116
-0.12953 0.34182 10.224 242 192 124
0.050341 0.32957 10.236 225 178 114
0.15212 0.34903 10.185 247 195 124
-0.61859 0.39823 10.122 255 217 158
0.43485 0.36467 10.148 228 178 108
1.2787 0.38834 9.9042 105 75 37
1.6696 0.42998 9.6052 69 49 20
0.23077 0.3821 10.186 255 251 171
-0.45469 0.39858 10.287 123 82 47
0.5317 0.39498 10.141 255 235 169
0.67374 0.40763 10.073 208 165 107
0.93834 0.41042 10.037 244 201 142
1.1812 0.411 9.9897 119 82 32
1.2396 0.42057 9.9499 137 101 54
0.92899 0.44817 10.073 117 80 39
1.4916 0.45669 9.9452 133 97 48
1.4915 0.45611 9.9456 132 94 47
1.0531 0.4852 10.053 236 193 125
1.4238 0.50499 10.007 106 73 26
-0.57562 0.54618 10.346 175 131 84
-0.84181 0.67008 10.125 159 118 72
-0.84078 0.67075 10.122 159 118 72
0.83203 -0.55024 10.289 125 97 47
1.2968 -0.13859 9.4014 64 43 11
1.2968 -0.13859 9.4014 64 43 11
1.2611 -0.042776 9.3956 238 206 143
-0.44378 -0.091283 9.8853 141 98 46
-0.44357 -0.090725 9.8837 141 98 46
1.3559 -0.009066 9.3068 162 136 78
1.3304 -0.0062742 9.3546 234 208 147
-0.43246 -0.048932 9.8827 255 246 162
-0.43216 -0.048827 9.8823 255 246 162
1.371 0.025102 9.3336 138 114 62
1.1648 0.019874 9.5928 203 170 111
1.3303 0.049285 9.5382 71 48 19
-0.88499 0.12097 9.6814 255 243 176
1.3978 0.14879 9.6071 43 27 1
0.70912 0.17915 9.8449 20 10 0
1.196 0.18774 9.7986 214 179 123
1.2066 0.25369 9.857 214 176 119
0.97812 0.29854 9.9148 234 194 133
1.2045 0.30029 9.8979 215 176 121
0.95879 0.30975 9.983 156 118 71
1.2786 0.34745 9.8596 79 50 18
1.2749 0.35519 9.8381 79 50 18
-0.37534 0.37355 10.261 255 230 152
-0.093979 0.37467 10.23 255 245 174
1.2085 0.39787 9.9659 220 179 122
1.5308 0.51065 10.01 185 158 113
1.6398 0.51899 9.9687 7 1 0
0.95643 0.5898 10.204 224 188 147
0.91289 -0.033151 9.6818 255 217 141
1.4084 0.079065 9.3238 229 207 151
1.233 0.041923 9.5334 90 70 34
1.3554 0.087832 9.5807 55 33 12
1.2605 0.24316 9.6831 89 64 28
-0.87962 0.31881 9.8263 160 120 71
-0.87667 0.32261 9.8195 181 139 86
1.5648 0.32678 9.66 27 14 0
0.69717 0.33924 10.03 120 87 53
-0.56468 0.36136 10.187 195 149 98
1.1781 0.37357 9.9707 93 60 20
1.7233 0.40787 9.7031 168 151 129
1.3933 0.39834 9.9124 206 165 108
1.3069 0.43149 9.7933 191 159 108
1.6204 0.43264 9.7045 27 14 3
1.6696 0.45321 9.6517 134 119 84
-0.61174 0.45435 10.168 255 234 176
1.5266 0.46492 9.9515 183 146 93
0.64844 0.48327 10.123 210 173 120
-0.56692 0.5271 10.303 192 146 93
1.5959 0.50657 10 172 145 103
1.0451 0.52149 10.08 37 19 3
1.5288 0.52361 10.094 10 2 0
0.71662 0.54105 10.153 233 202 160
-0.7909 -1.0869 10.723 182 160 105
-0.57126 -1.1093 10.876 15 6 3
0.66236 -0.85193 10.683 190 156 88
-0.74356 0.081871 9.8243 193 155 108
1.4056 0.11182 9.4234 31 20 3
-0.47126 0.23959 10.235 195 158 106
0.63456 0.29924 10.146 252 208 144
1.055 0.32571 9.9349 219 177 113
1.1307 0.3349 9.9098 202 162 104
1.1307 0.3349 9.9098 202 162 104
1.4703 0.35137 9.887 172 136 83
-0.49726 0.42758 10.281 250 209 153
-0.44276 -1.0363 10.925 17 6 2
-0.44172 -1.0284 10.903 17 6 2
-0.31875 -0.92042 10.846 14 7 0
0.92386 -0.8887 10.615 10 4 1
1.0667 -0.80764 10.474 151 133 95
1.3496 -0.15865 9.3288 211 181 116
-0.78848 0.038036 9.6807 255 223 159
1.7826 0.21269 9.8133 146 120 80
0.63097 0.30732 10.144 255 212 143
-0.58966 1.1659 7.2779 255 244 170
-0.68064 0.66965 10.346 23 15 8
1.205 -0.66812 10.367 138 110 63
1.3185 0.15481 9.6787 201 163 103
1.4544 -0.66968 10.036 169 150 101
1.4016 0.14445 9.5065 173 148 112
1.1372 0.47952 10.019 238 193 122
1.6585 0.28094 9.5684 182 153 104
1.4349 0.47811 9.9911 175 142 88
1.1969 0.60457 10.228 1 0 0
0.79512 0.43139 10.136 226 178 116
-0.22187 -1.1416 10.906 6 1 0
-0.70592 0.3892 10.165 225 175 114
1.0427 -0.043604 10.199 202 164 103
-0.719 0.033402 9.8065 236 197 141
-0.69842 0.04433 9.8177 199 155 94
0.49647 0.0076844 9.7937 233 199 131
-0.5073 0.028171 9.9533 223 191 143
-0.16832 0.022565 9.9352 91 59 8
-0.16782 0.021235 9.9372 91 59 8
0.16394 0.031533 9.8703 227 198 142
0.88541 0.054996 9.7426 113 82 36
0.20063 0.036683 9.899 80 52 16
0.067377 0.02908 9.9977 85 70 48
1.3505 0.099549 9.629 126 102 72
0.34259 0.053518 9.9057 207 179 138
1.0172 0.074036 9.7562 190 155 95
1.3368 0.10005 9.6491 84 53 11
-0.76408 0.17108 9.8185 165 129 75
1.2881 0.17611 9.5618 127 98 49
1.3816 0.17501 9.6853 76 44 12
-0.67948 0.2262 9.9806 255 207 138
-0.54619 0.22841 10.073 175 131 70
1.1812 0.26688 9.8652 168 131 75
0.93349 0.26702 9.9376 232 196 140
1.4728 0.32188 9.8494 156 122 87
-0.63778 0.38256 10.105 215 169 105
0.96299 0.37285 9.9896 141 101 52
-0.70646 0.42304 10.142 196 148 100
1.2757 0.41827 9.9272 99 70 32
0.67928 0.43286 10.085 212 172 112
0.52004 0.42094 10.156 176 134 75
0.95094 0.44314 10.061 215 180 127
-0.7785 0.54217 10.121 211 166 110
0.67938 0.46524 10.107 192 152 92
0.94142 0.46944 10.086 208 173 127
-0.55069 0.5194 10.321 188 138 84
1.2279 0.51858 10.074 113 95 75
-0.73503 -1.0664 10.7 161 145 110
0.030896 -0.43604 10.278 204 163 95
1.3918 0.020975 9.3167 215 193 134
1.1934 -0.051446 9.5983 142 114 66
1.2058 -0.014157 9.5178 183 158 115
0.22136 -0.052274 9.8172 176 130 66
0.81325 -0.021052 9.696 207 169 102
1.3314 0.049409 9.4419 167 142 103
-0.8727 0.090858 9.6821 185 145 86
-0.62863 0.044747 9.8183 188 148 94
-0.62863 0.044747 9.8183 188 148 94
0.2018 -0.0027647 9.84 255 216 155
0.93953 0.021304 9.6736 235 204 142
0.45548 0.0064408 9.7972 254 216 152
0.89219 0.022457 9.6939 237 202 139
0.31186 0.014272 9.824 185 146 80
0.54726 0.045855 9.8279 212 180 121
-0.49312 0.04304 10.042 195 169 134
-0.80526 0.174 9.8199 170 125 71
-0.44157 0.030066 10.339 133 110 82
1.2239 0.20038 9.7846 128 96 46
0.9712 1.1801 7.1617 105 90 66
-0.85047 0.31849 9.8371 255 214 160
0.99475 0.2994 9.9282 232 190 129
1.4994 0.33386 9.7968 136 112 81
-0.19752 0.29049 10.242 246 201 127
1.3813 0.35871 9.8886 141 105 58
1.3813 0.35871 9.8886 141 105 58
1.4208 0.36707 9.9034 143 105 56
0.41312 0.34109 10.159 255 251 175
0.67183 0.37344 10.079 209 167 106
0.92356 0.37763 10.022 148 108 60
1.2164 0.53 9.5663 183 149 107
0.88952 0.41536 10.077 222 178 127
0.90734 0.44181 10.102 227 181 128
1.5858 0.47411 9.8966 129 109 82
0.5394 0.47492 10.214 217 179 132
1.6295 0.49078 9.9671 145 120 95
0.58772 0.47868 10.199 175 141 105
1.4082 0.51542 10.029 212 172 121
1.3053 0.5452 10.042 204 179 138
0.95987 0.54216 10.129 142 103 48
-0.64732 -0.083723 9.7214 255 234 165
0.52701 -0.058591 9.7849 204 161 105
-0.28834 -0.02493 9.8881 118 80 33
-0.28834 -0.02493 9.8881 118 80 33
0.266 -0.0047551 9.8175 255 245 178
-0.88329 0.11563 9.6872 255 240 176
0.14795 0.014493 9.8438 115 75 38
1.3168 0.072875 9.5686 173 144 99
-0.24447 0.032382 9.9688 223 192 146
-0.063431 0.040386 9.9475 214 181 131
1.1816 0.075236 9.6838 188 159 105
0.99483 0.10503 9.7658 187 148 96
1.7808 0.15536 9.7505 138 113 79
1.2257 0.23994 9.7956 121 88 45
1.8087 0.19603 9.8303 112 90 63
1.2322 0.30488 9.8539 127 90 47
-0.61423 0.33859 10.08 182 140 86
1.2531 0.32944 9.8693 174 141 100
0.569 0.30281 10.158 255 226 155
1.0709 0.34171 9.9776 209 167 112
1.1785 0.35005 9.9435 114 81 34
1.2582 0.37175 9.897 169 135 95
1.2353 0.35941 9.9541 149 111 61
0.28317 0.36576 10.164 252 200 129
1.4533 0.40936 9.9355 136 100 53
0.20999 0.39944 10.202 194 149 91
0.16203 0.43703 10.178 160 113 49
1.4215 0.48134 9.9819 123 90 40
-0.44171 0.4664 10.39 64 46 31
0.82233 0.51653 10.173 255 221 162
0.82233 0.51653 10.173 255 221 162
-0.39905 -0.10243 9.885 255 253 177
1.2259 -0.0061976 9.4722 93 72 34
1.2259 -0.0061976 9.4722 93 72 34
0.09731 -0.014476 9.8323 255 246 176
1.2389 0.10909 9.5742 76 55 17
1.1463 0.074191 9.7149 62 39 9
1.4341 0.17485 9.5603 163 137 100
1.2825 0.19375 9.592 203 171 116
1.8021 0.17664 9.801 137 107 73
1.1454 0.30909 9.9208 205 168 111
1.1462 0.30547 9.9287 205 168 111
0.79545 0.40382 10.102 206 161 101
1.5237 0.41954 9.9222 165 129 87
1.5824 0.46402 9.8072 45 28 7
1.3099 0.54051 9.9507 30 20 6
1.6739 -0.36769 10.115 124 102 74
1.0038 0.10016 9.7507 178 142 87
1.7494 0.12235 9.7218 165 136 91
-0.64562 0.18265 9.9344 246 207 141
-0.62613 0.29894 10.043 252 210 148
-0.8792 0.64368 10.104 244 198 140
1.4663 0.55452 10.058 187 158 119
-0.63389 -1.0893 10.788 167 152 110
-0.78748 0.030196 9.6775 255 221 155
1.2632 0.045385 9.4339 198 173 119
-0.51788 0.064697 9.9239 224 190 136
-0.47738 0.19265 10.177 170 140 98
1.3192 0.51285 9.8848 199 166 115
1.0805 0.55563 10.198 8 2 0
0.99546 0.55862 10.088 229 194 140
-0.78853 0.74886 10.233 22 12 7
1.127 -0.73533 10.404 20 10 5
1.2889 0.11318 9.5377 183 151 96
0.71347 0.13772 9.8262 243 208 140
-0.51754 0.32331 10.136 245 205 139
1.6869 0.4817 9.744 0 0 0
1.3774 0.55079 10.023 192 153 98
-0.55234 0.61993 10.384 26 18 10
-0.81399 0.6694 10.529 18 8 4
0.83322 -0.91161 10.638 174 154 103
0.73035 0.51434 10.177 246 207 145
1.0678 0.21549 9.8096 194 160 105
-0.29428 0.53681 10.408 10 1 0
0.55353 0.15366 10.028 9 0 0
-0.1794 0.12836 10.108 11 2 3
0.89724 0.049062 9.7242 177 149 106
1.3742 0.11834 9.6202 48 27 2
0.34279 0.053479 9.9057 206 177 130
0.94664 0.19281 9.845 174 139 76
-0.57201 0.22687 10.078 164 124 74
1.3002 0.31241 9.7046 194 165 115
0.93292 0.26787 9.936 214 179 127
1.3042 0.37814 9.78 134 105 59
0.95919 0.33401 9.9575 97 61 12
1.4044 0.35094 9.9048 193 156 105
-0.49227 0.36115 10.195 239 193 139
-0.55767 0.41322 10.234 237 191 142
1.4973 0.41907 9.9342 126 87 45
1.4038 0.43911 9.9556 207 169 116
1.4073 0.46272 9.9708 173 139 93
1.407 0.46289 9.9704 176 140 95
-0.12461 0.44335 10.41 85 72 53
-0.42644 0.45275 10.447 105 87 72
0.58334 0.4792 10.267 27 14 1
0.14384 -0.040244 9.8187 239 196 120
0.38548 -0.035441 9.8119 234 191 121
1.1939 0.016618 9.6048 135 104 54
0.21644 -0.0081399 9.82 161 121 57
0.99824 0.017261 9.6751 211 177 115
0.58748 0.0070311 9.7726 224 190 131
0.23002 0.038604 9.9004 55 30 0
1.2092 0.089713 9.6886 116 86 40
1.2745 0.20837 9.6219 116 93 52
-0.85089 0.31812 9.8379 247 207 146
1.2921 0.24858 9.6436 189 160 105
0.92984 0.22712 9.8798 231 196 133
-0.83643 0.44689 9.9483 226 185 133
-0.83643 0.44689 9.9483 226 185 133
-0.49618 0.37779 10.202 140 97 52
1.4778 0.40435 9.924 177 142 90
-0.41689 0.38251 10.283 255 226 165
0.52301 0.42144 10.155 155 113 60
1.1858 0.45118 10.036 170 129 72
1.1858 0.45118 10.036 170 129 72
1.0138 0.48375 10.065 225 184 120
0.94847 0.4799 10.104 98 64 21
0.52746 0.47779 10.267 27 13 0
0.981 0.55924 10.126 206 174 125
0.94452 0.54421 10.171 212 173 117
-0.79741 1.2905 10.556 51 43 39
-0.79665 1.2923 10.552 51 43 39
1.3091 0.035392 9.4696 76 53 13
0.64225 -0.0065185 9.7251 255 247 182
-0.16715 0.0087747 9.8899 245 210 147
-0.67512 0.12298 9.8757 192 148 82
-0.54339 0.08761 9.9469 193 151 88
-0.86931 0.28754 9.8162 254 223 164
1.2795 0.38741 9.9041 103 73 37
-0.66269 0.42626 10.147 197 150 90
1.4532 0.40854 9.9364 127 94 47
1.1811 0.41081 9.99 119 84 34
0.93888 0.41018 10.037 237 194 133
0.23219 0.42295 10.217 255 225 156
-0.44726 0.43294 10.333 69 37 7
0.48194 0.44095 10.179 255 231 164
-0.7953 -0.022918 9.6618 162 121 67
-0.7953 -0.022918 9.6618 162 121 67
0.14334 -0.012813 9.8265 255 250 177
-0.77581 0.19627 9.8335 254 219 160
1.1843 0.11841 9.7187 184 152 99
-0.71441 0.47255 10.179 204 161 111
1.1538 0.43881 10.017 232 191 125
1.1522 0.48234 10.05 239 195 129
-0.64797 0.5676 10.261 210 159 94
0.95242 0.097453 9.7621 38 17 2
1.2535 0.20183 9.6362 92 68 37
1.2763 0.4814 9.9248 89 62 30
1.2763 0.4814 9.9248 89 62 30
-0.73769 0.63845 10.201 253 219 167
0.96276 0.048002 9.7079 220 186 124
1.056 0.32104 9.9429 229 187 119
1.7952 0.29064 9.8778 0 0 0
-0.56442 0.36157 10.186 182 136 85
1.1251 0.52464 10.108 239 198 137
1.5393 0.51492 10.094 6 1 0
1.002 0.17187 9.8383 231 194 125
-0.68877 0.45772 10.115 221 171 115
0.55457 0.24268 10.142 15 6 4
0.87208 0.51152 10.23 232 190 127
-0.68334 -0.045236 10.276 229 188 125
1.4737 0.1146 9.3469 140 114 59
0.54386 0.02157 9.8015 108 80 30
-0.15478 0.014775 9.9173 170 141 97
0.20275 0.02582 9.8601 250 214 153
-0.64459 0.20943 9.9564 166 127 71
1.3853 0.19201 9.7401 160 127 86
1.1161 0.23999 9.8559 225 187 130
-0.79682 0.38948 10.005 255 219 150
0.89659 0.25236 9.9477 228 192 134
1.5079 0.37639 9.8949 158 125 85
-0.4181 0.36164 10.276 143 97 33
-0.12628 0.38273 10.236 189 146 90
0.5633 0.47687 10.24 140 118 89
0.68451 0.51857 10.163 122 95 55
0.50963 0.48244 10.293 191 169 133
0.5097 0.48179 10.294 191 169 133
0.82317 0.55169 10.306 110 91 70
1.4118 0.053137 9.3073 171 151 92
-0.48499 -0.043469 9.8841 254 226 158
0.99933 0.017025 9.6754 207 177 116
1.2212 0.079472 9.6284 153 126 86
1.1624 0.059229 9.6683 104 76 32
1.1633 0.05754 9.6702 104 76 32
0.9236 0.061144 9.7272 89 58 16
-0.87532 0.30791 9.8316 135 97 47
0.94115 0.14332 9.8227 139 103 47
1.247 0.25474 9.8008 170 142 104
1.2291 0.27624 9.8338 143 108 57
0.91873 0.26879 9.9514 127 93 47
1.5791 0.38934 9.7051 58 34 8
1.2319 0.30571 9.891 140 105 54
1.3996 0.34981 9.8811 189 153 106
-0.68783 0.40737 10.13 255 209 141
-0.8448 0.517 10.002 255 224 175
1.2544 0.38363 9.9133 172 138 98
-0.49588 0.3758 10.204 142 100 52
0.94574 0.37607 10.007 222 186 132
1.2555 0.40565 9.9292 191 157 115
0.95423 0.3961 10.019 176 136 78
-0.41789 0.38104 10.286 253 211 158
1.4185 0.42652 9.9452 126 90 41
0.82145 0.40441 10.084 241 197 132
0.82145 0.40441 10.084 241 197 132
1.428 0.4491 9.9717 97 64 17
0.58592 0.46924 10.212 173 140 101
1.4284 0.53356 10.019 119 86 40
-0.42454 0.44256 10.462 109 90 71
1.178 0.50445 10.127 61 38 22
-0.83468 -0.012171 9.67 207 165 100
1.1769 0.054678 9.6437 188 157 103
0.50764 0.024141 9.8074 150 109 55
0.082303 0.030322 9.8754 206 172 113
-0.76583 0.17546 9.8146 165 130 74
0.1465 0.036928 9.9046 66 32 0
0.14582 0.035923 9.906 66 32 0
1.101 0.07593 9.75 181 144 90
1.2501 0.28923 9.8328 160 133 93
-0.63216 0.3646 10.088 251 209 142
-0.29017 0.34333 10.243 226 176 106
0.010118 0.34468 10.211 235 185 115
0.43532 0.36437 10.149 239 191 123
1.4446 0.42951 9.9542 179 141 94
-0.16943 0.40047 10.254 186 141 81
-0.54631 0.47172 10.278 197 149 94
-0.83384 0.64301 10.114 254 215 157
0.53911 0.47935 10.208 216 174 122
0.82183 0.51784 10.171 255 229 167
1.3548 -0.012731 9.3127 151 129 69
1.3023 -0.022392 9.3921 76 53 14
1.3856 0.073011 9.3684 78 63 29
-0.47181 0.010233 9.9638 68 43 16
0.047984 0.02675 9.8827 205 176 118
-0.64044 0.11413 9.8719 248 209 145
-0.62273 0.20457 9.9683 184 147 92
1.5144 0.31227 9.6553 157 135 96
1.6035 0.38239 9.5813 144 120 79
1.5441 0.34531 9.7074 164 138 100
0.98461 0.35529 9.9646 235 197 137
-0.90208 0.6926 10.159 65 36 10
1.2634 -0.058981 9.4182 203 177 118
1.3293 -0.00023128 9.3476 232 207 147
-0.79137 0.0074655 9.694 254 221 154
1.2752 0.069448 9.4701 171 141 89
-0.7845 0.093879 9.7622 253 217 156
-0.78144 0.14302 9.7924 246 208 144
-0.78015 0.14719 9.7874 246 208 144
1.0091 0.089073 9.7635 174 138 81
-0.64567 0.18683 9.9295 249 208 136
1.0375 0.13548 9.8094 169 128 73
1.0941 0.13987 9.7968 161 122 65
-0.4711 0.081846 10.128 236 204 162
-0.91122 0.43918 9.9469 255 227 161
0.74022 0.55464 10.205 18 8 0
1.2344 0.032279 9.5516 70 48 17
1.2922 0.1945 9.5953 206 178 119
1.293 0.19583 9.5935 206 178 119
-0.51958 0.25963 10.111 247 208 141
0.98001 0.27158 9.9084 241 204 141
0.80611 0.2756 9.9681 255 219 154
0.74088 0.32556 10.035 255 234 168
-0.61195 0.54411 10.226 255 218 156
-0.85774 0.70558 10.148 244 206 144
0.81168 0.27617 9.9583 237 199 130
1.3054 0.52622 9.9728 21 11 4
1.3054 0.52622 9.9728 21 11 4
1.2551 -0.1164 9.3723 6 1 0
1.7266 0.35542 9.8945 0 0 0
-0.86758 0.57686 10.06 255 238 168
1.4072 0.1701 9.5082 142 122 91
-0.89145 0.19413 9.7562 255 223 155
0.70748 -0.053514 9.795 237 203 134
-0.65946 0.12663 10.125 244 203 138
1.0164 0.1739 9.9933 235 203 145
-0.18492 0.011519 9.909 98 67 20
-0.18473 0.013628 9.9071 98 67 20
1.2888 0.17126 9.5702 119 90 43
-0.11555 0.030861 9.9528 169 144 105
1.1282 0.072058 9.7426 160 129 85
1.2844 0.22526 9.6261 168 146 96
0.98255 0.14652 9.7871 212 176 119
-0.53696 0.21757 10.061 236 193 133
1.2998 0.31515 9.7024 188 161 110
-0.63803 0.38162 10.105 200 159 95
-0.71314 0.41083 10.129 241 200 140
-0.85006 0.55044 10.037 214 179 127
-0.22325 0.34756 10.238 215 168 102
1.0258 0.41172 10.007 166 127 63
1.4843 0.45295 9.9485 112 78 35
0.88329 0.42855 10.093 110 71 27
1.2413 0.49948 10.032 119 83 44
0.60068 0.48177 10.242 81 68 50
0.56669 0.48309 10.289 161 136 97
-0.57127 0.57919 10.37 113 77 34
-0.71826 0.03292 9.8064 230 193 134
0.81446 -0.02426 9.6988 195 159 93
0.14479 -0.037549 9.8166 225 185 110
0.14479 -0.037549 9.8166 225 185 110
1.1422 0.010442 9.6356 114 85 33
1.3223 0.072681 9.5741 163 137 94
1.3223 0.072681 9.5741 163 137 94
0.89273 0.018819 9.6964 231 196 134
0.89273 0.018819 9.6964 231 196 134
0.20244 -0.00425 9.8421 253 214 154
1.1999 0.066729 9.6612 83 53 15
1.3904 0.14644 9.634 42 20 1
0.9099 0.071077 9.7808 168 135 96
0.34455 0.047661 9.9118 203 173 118
0.34454 0.04776 9.912 201 173 114
0.487 0.053789 9.8862 198 164 110
1.1447 0.13996 9.7973 190 156 107
1.3174 0.3966 9.794 141 108 58
1.0855 0.34009 9.9706 200 160 107
-0.4896 0.3704 10.181 240 201 144
-0.44673 0.38038 10.264 238 194 142
0.82101 0.40581 10.082 242 203 137
1.4287 0.5538 10.032 111 81 36
1.4287 0.5538 10.032 111 81 36
1.3898 0.023062 9.3065 216 198 139
-0.4452 -0.09524 9.8906 138 91 29
1.1768 0.054816 9.6436 187 156 103
-0.061745 0.037874 9.9506 212 178 123
-0.54616 0.10081 9.968 233 195 124
0.23169 0.046765 9.9223 175 150 109
0.23169 0.046765 9.9223 175 150 109
1.1642 0.28357 9.9057 50 28 2
0.95045 0.28087 9.9569 114 82 37
1.1837 0.31685 9.9197 92 59 20
1.1833 0.31687 9.9197 92 59 20
0.92371 0.37812 10.024 150 115 72
0.31703 0.36216 10.164 238 185 121
1.3971 0.49046 9.9934 205 168 117
1.085 0.51144 10.099 235 203 148
-0.5301 0.56456 10.354 153 104 54
1.4539 0.26452 9.7443 115 100 82
1.2058 -0.034498 9.5389 180 157 113
0.27723 -0.081749 9.819 254 238 160
-0.087325 -0.00012408 9.8685 123 90 51
1.1454 0.025541 9.6672 105 74 29
-0.47107 0.00023735 9.9243 250 215 150
1.5461 0.3326 9.718 151 128 87
1.0263 0.28256 9.9233 53 25 0
1.1773 0.38516 9.9558 110 76 37
-0.093903 0.37616 10.228 255 241 171
-0.74017 0.5456 10.159 252 215 163
0.35405 0.44589 10.365 107 89 61
1.2604 -0.082128 9.3778 19 10 0
-0.38593 -0.14237 9.8721 25 6 0
0.9908 -0.059382 9.598 13 1 0
-0.34018 -0.12228 9.883 255 243 165
0.76273 -0.062923 9.6685 28 9 2
-0.46083 0.025473 10.042 68 38 11
0.98171 0.2266 9.8613 223 188 124
1.0473 0.49833 10.088 45 22 0
-0.88805 0.71113 10.216 47 26 13
1.037 0.50625 10.301 11 4 1
-0.65765 -0.10929 9.5723 37 29 22
1.3132 -0.058541 9.3593 199 174 105
-0.54497 -0.1458 9.8098 252 221 154
-0.078339 -0.12431 9.8369 16 3 0
1.1087 -0.022241 9.6167 219 186 117
1.2941 0.084645 9.5653 182 154 98
0.96907 0.048308 9.7064 218 187 128
0.95191 0.095241 9.7637 41 18 3
-0.50015 0.40715 10.256 255 221 161
1.3983 -0.034839 9.3065 233 202 139
1.1245 -0.077347 9.5815 10 2 3
0.20989 -0.1124 9.8018 9 3 0
-0.69621 0.43578 10.14 198 154 103
0.99995 0.49129 10.033 231 190 125
1.3026 0.52681 9.9726 22 12 3
-0.93818 -0.1785 9.4873 255 255 183
0.9189 0.48779 10.433 5 0 0
1.3735 -0.041486 9.3411 153 132 75
1.11 -0.078741 9.5226 7 1 0
1.0388 0.20755 9.8313 134 100 51
1.533 0.2167 9.7872 87 67 31
1.4794 0.4105 10.065 203 167 111
-0.66057 0.11673 10.134 250 213 149
0.98885 0.20171 9.9797 223 191 138
0.85731 0.018007 9.7193 208 174 117
0.89764 0.046064 9.7259 184 157 117
0.96729 0.07801 9.7264 181 156 123
-0.21284 0.025747 9.9839 67 38 2
-0.70846 0.21492 9.9869 238 196 130
-0.2592 -0.29458 10.41 91 58 12
-0.59411 0.21614 10.067 223 186 133
-0.57073 0.21551 10.066 220 179 124
1.5929 0.45956 9.8844 62 39 13
1.4777 0.44192 9.938 174 141 102
-0.81779 0.62924 10.152 191 148 92
0.50427 0.47332 10.246 122 99 74
0.87694 0.042785 9.7148 136 108 54
-0.58546 0.055789 9.9177 189 147 88
0.92529 0.17709 9.8582 227 195 144
0.90492 0.18947 9.8754 129 95 47
1.5291 0.37611 9.8408 121 99 75
1.2314 0.37322 9.9407 137 101 52
-0.49712 0.3795 10.2 142 104 59
-0.31702 0.34189 10.247 225 179 110
1.5671 0.4405 9.8851 121 101 77
1.5671 0.4405 9.8851 121 101 77
0.9533 0.39404 10.02 172 134 79
0.9533 0.39404 10.02 172 134 79
-0.17035 0.34215 10.234 224 178 111
1.4012 0.51131 10.008 108 73 36
0.53864 0.46956 10.217 209 171 122
-0.65804 0.63663 10.322 233 192 140
-0.63457 -0.19252 9.7327 169 154 122
0.69799 -0.082032 9.6711 35 9 0
1.4377 0.20931 9.6061 50 34 5
0.009347 0.038733 9.942 217 192 149
1.4569 0.23216 9.6351 37 24 1
1.5228 0.33153 9.6822 28 9 1
1.092 0.36854 9.98 121 82 42
0.92383 0.38046 10.022 156 118 74
1.1108 0.39825 9.9877 242 204 140
0.52737 0.42014 10.155 139 99 51
0.85241 0.43206 10.111 242 198 133
-0.70662 0.57243 10.271 197 154 101
1.407 0.51603 10.034 190 157 109
-0.81309 0.52445 10.483 127 102 74
0.94593 -0.080336 9.6559 230 195 123
1.2327 0.03439 9.5496 63 43 9
0.35792 -0.070009 9.8095 255 249 178
0.14561 0.010652 9.847 109 77 35
-0.86934 0.28831 9.8077 255 229 169
1.514 0.31207 9.6554 160 142 108
1.3115 0.37024 9.7563 201 171 115
1.2733 0.36542 9.8217 76 50 13
1.112 0.28478 9.9151 43 18 0
-0.45415 0.39556 10.291 99 61 28
-0.89077 0.072797 9.6449 242 211 150
0.54263 -0.05657 9.7835 244 209 141
-0.18292 0.015095 9.9288 103 70 35
-0.46252 0.013454 10.051 64 36 6
-0.74557 0.50183 10.109 252 218 163
-0.73967 0.63106 10.208 254 221 171
-0.65955 0.59179 9.1741 252 226 161
-0.93707 0.10297 9.6203 253 221 155
-0.54451 -0.11823 9.7856 247 221 158
1.291 0.19742 9.5938 189 165 115
0.061762 0.030066 9.9384 29 12 0
0.90369 0.13479 9.7778 187 151 94
0.70454 0.13796 9.8291 222 193 130
-0.56574 0.36003 10.189 186 141 94
1.4355 0.41052 9.9357 150 116 73
-0.85884 0.69823 10.158 245 207 147
1.458 0.48702 9.9843 204 169 117
-0.57016 0.52912 10.308 188 147 104
-0.6024 0.62174 10.298 247 213 157
-0.8067 -0.16595 9.5755 242 213 145
0.32286 -0.14598 9.8178 16 4 0
1.2745 0.35209 9.8136 83 57 22
1.2745 0.35209 9.8136 83 57 22
1.2196 0.44977 10.005 213 176 121
0.72221 0.53382 10.149 246 210 152
1.1571 -0.0052309 9.6092 210 177 117
-0.9026 0.35806 9.8862 240 203 137
1.3222 0.23081 9.6888 183 151 94
0.9895 0.18866 9.8245 226 190 125
1.3018 0.52783 9.9721 22 13 2
1.4677 0.29935 9.7165 35 19 4
0.87119 0.52079 10.207 239 199 137
0.62891 0.53272 10.349 0 0 0
-0.84034 -0.13742 9.8058 247 211 141
1.2767 0.092568 9.4993 143 114 61
-0.79061 0.38064 9.9922 160 117 56
1.2574 0.48114 9.9968 140 108 87
1.2415 0.50485 10.029 116 82 43
-0.64407 0.64865 10.333 119 96 65
0.57808 0.48427 10.327 133 118 95
1.1934 0.00047952 9.5906 130 100 53
-0.30227 -0.32336 10.361 244 202 139
0.91016 0.2321 9.9042 152 116 68
1.472 0.3227 9.848 165 134 98
1.5826 0.46522 9.9011 136 116 87
0.883 0.42937 10.093 113 74 30
0.91124 0.44954 10.096 225 186 133
1.2446 0.52446 10.048 107 80 53
1.3033 0.54879 10.038 213 189 145
1.1492 0.027024 9.6679 96 67 27
-0.18917 0.025065 9.9629 218 185 122
1.2402 0.20392 9.7544 169 143 103
-0.88156 0.30805 9.8349 129 92 43
0.11647 0.023613 9.8787 182 153 94
0.18332 -0.29317 10.341 228 184 119
0.23445 -0.29247 10.333 219 179 115
1.027 0.28194 9.9235 50 21 0
1.5582 0.42648 9.928 41 21 1
1.418 0.50781 10.006 92 61 26
0.18461 0.44957 10.278 205 167 121
0.18461 0.44957 10.278 205 167 121
1.2621 -0.024422 9.395 205 175 118
-0.70818 -0.17797 9.6333 38 29 23
-0.67077 -0.14137 9.6754 242 212 145
1.0088 -0.029307 9.6335 226 195 126
1.4653 0.25921 9.6831 34 20 7
1.4653 0.25921 9.6831 34 20 7
1.3701 0.50153 9.9861 216 178 126
1.5807 0.29428 9.4871 188 158 96
0 0 0 1 0 0 0 1 0 0 0 1 0 0 0 0 0 1056 1 0 0
