ply
format ascii 1.0
comment PCL generated
element vertex 138
property float x
property float y
property float z
property uchar red
property uchar green
property uchar blue
element camera 1
property float view_px
property float view_py
property float view_pz
property float x_axisx
property float x_axisy
property float x_axisz
property float y_axisx
property float y_axisy
property float y_axisz
property float z_axisx
property float z_axisy
property float z_axisz
property float focal
property float scalex
property float scaley
property float centerx
property float centery
property int viewportx
property int viewporty
property float k1
property float k2
end_header
0.89698 -0.34403 7.5206 1 200 200
0.88068 -0.29142 7.5261 1 200 200
0.94128 0.069958 7.9092 1 200 200
-0.14216 0.55646 8.136 1 200 200
-0.74085 -0.43568 7.6855 1 200 200
0.89736 -0.38641 7.5029 1 200 200
0.046618 -0.33401 7.6178 1 200 200
-0.015808 -0.32869 7.6231 1 200 200
0.88755 -0.30873 7.5243 1 200 200
0.16822 -0.2947 7.5839 1 200 200
-0.48053 -0.27598 7.6942 1 200 200
1.1649 -0.13321 7.8953 1 200 200
0.93384 -0.10931 7.9025 1 200 200
0.75346 0.030992 7.9364 1 200 200
0.75346 0.030992 7.9364 1 200 200
0.75346 0.030992 7.9364 1 200 200
0.64498 0.035961 7.9562 1 200 200
-0.32861 0.085093 8.1279 1 200 200
-0.33184 0.11764 8.1328 1 200 200
-0.28018 0.11978 8.1226 1 200 200
-0.28018 0.11978 8.1226 1 200 200
-0.28018 0.11978 8.1226 1 200 200
-0.37225 0.12224 8.1373 1 200 200
-0.12175 0.13295 8.1009 1 200 200
0.14079 0.13331 8.0686 1 200 200
0.015439 0.57243 8.1095 1 200 200
-0.80797 0.58789 8.1354 1 200 200
0.15923 0.58989 8.1016 1 200 200
0.14555 0.61338 8.1096 1 200 200
-0.77487 -0.5142 7.6849 1 200 200
0.91814 -0.40066 7.5018 1 200 200
0.87531 -0.3254 7.5283 1 200 200
0.87531 -0.3254 7.5283 1 200 200
0.9078 -0.32632 7.5228 1 200 200
0.9078 -0.32632 7.5228 1 200 200
-0.63669 -0.32062 7.6625 1 200 200
0.14878 -0.31133 7.583 1 200 200
0.47255 -0.29769 7.4815 1 200 200
0.47255 -0.29769 7.4815 1 200 200
-0.41388 -0.29066 7.6829 1 200 200
0.76229 -0.14972 7.9199 1 200 200
-0.70148 -0.11418 7.6649 1 200 200
0.8117 -0.095833 7.9183 1 200 200
0.91238 -0.092407 7.9046 1 200 200
0.91238 -0.092407 7.9046 1 200 200
0.8705 -0.016483 7.9114 1 200 200
0.66491 0.013829 7.9515 1 200 200
0.93573 0.034344 7.9083 1 200 200
0.95638 0.039691 7.8981 1 200 200
0.49708 0.092213 7.966 1 200 200
0.95439 0.092476 7.9281 1 200 200
-0.19861 0.10356 8.1134 1 200 200
0.16754 0.11105 8.0636 1 200 200
0.16754 0.11105 8.0636 1 200 200
-0.31293 0.13262 8.128 1 200 200
-0.31293 0.13262 8.128 1 200 200
0.18098 0.13353 8.061 1 200 200
0.34031 0.55905 8.0948 1 200 200
-0.19381 0.57362 8.1278 1 200 200
-0.13999 0.59816 8.1336 1 200 200
-0.74793 -0.32972 7.6832 1 200 200
-0.72964 -0.21387 7.6727 1 200 200
-0.84956 0.10329 7.8813 1 200 200
1.2893 0.14335 7.9522 1 200 200
1.2893 0.14335 7.9522 1 200 200
0.9481 -0.39188 7.4836 1 200 200
0.92091 -0.36905 7.495 1 200 200
-0.86267 -0.30198 7.6937 1 200 200
1.2935 0.025308 7.9302 1 200 200
1.353 -0.4892 7.697 1 200 200
0.99001 -0.35788 7.4471 1 200 200
-0.40969 0.73395 8.27 1 200 200
-0.82599 0.17691 7.8644 1 200 200
-0.82651 -0.093439 7.7274 1 200 200
-0.90479 0.038076 7.6727 1 200 200
-0.2245 0.59954 8.255 1 200 200
0.85531 -0.28349 6.7731 1 200 200
0.84235 -0.23408 6.7787 1 200 200
0.91173 0.083774 7.1569 1 200 200
-0.075379 0.57576 7.3784 1 200 200
-0.66999 -0.30082 6.9085 1 200 200
0.85406 -0.32225 6.7562 1 200 200
0.065582 -0.23941 6.8554 1 200 200
0.84804 -0.2503 6.7754 1 200 200
0.18078 -0.20717 6.8258 1 200 200
0.89708 -0.082041 7.1439 1 200 200
0.73556 0.054967 7.1817 1 200 200
-0.074713 0.18299 7.3293 1 200 200
0.16922 0.17266 7.3051 1 200 200
0.072863 0.58432 7.3534 1 200 200
0.19488 0.6166 7.3584 1 200 200
0.87264 -0.33621 6.7531 1 200 200
0.83571 -0.26534 6.7785 1 200 200
0.83571 -0.26534 6.7785 1 200 200
0.16206 -0.22177 6.8253 1 200 200
0.46332 -0.21905 6.7226 1 200 200
0.46332 -0.21905 6.7226 1 200 200
0.78376 -0.064552 7.157 1 200 200
0.878 -0.065483 7.1466 1 200 200
0.878 -0.065483 7.1466 1 200 200
0.84227 0.0066378 7.1552 1 200 200
0.65227 0.042524 7.1926 1 200 200
0.90491 0.05105 7.1532 1 200 200
0.92488 0.055375 7.1462 1 200 200
0.50003 0.12219 7.2118 1 200 200
0.9254 0.10332 7.1765 1 200 200
-0.14795 0.15866 7.3429 1 200 200
0.19283 0.15102 7.2979 1 200 200
-0.25282 0.19027 7.3548 1 200 200
0.20726 0.17132 7.2967 1 200 200
-0.12235 0.59425 7.3694 1 200 200
-0.071305 0.61442 7.3772 1 200 200
-0.6496 -0.095048 6.9028 1 200 200
1.2375 0.13462 7.2033 1 200 200
0.90094 -0.32889 6.7386 1 200 200
-0.77767 -0.17184 6.923 1 200 200
0.94055 -0.29734 6.7002 1 200 200
-0.14919 0.61461 7.4819 1 200 200
0.87764 -0.3228 7.563 1 200 200
-0.73721 -0.40797 7.6914 1 200 200
0.88411 -0.34027 7.5616 1 200 200
0.16941 -0.30193 7.6006 1 200 200
0.9288 -0.1082 7.9248 1 200 200
-0.78533 0.64798 8.0373 1 200 200
-0.17647 0.61761 8.0469 1 200 200
0.91215 -0.43324 7.5478 1 200 200
0.87073 -0.35543 7.5643 1 200 200
-0.69007 -0.094759 7.6482 1 200 200
0.80621 -0.089213 7.9289 1 200 200
0.90775 -0.088885 7.9147 1 200 200
0.86663 -0.011957 7.9122 1 200 200
0.66329 0.026104 7.9501 1 200 200
0.95451 0.039831 7.8983 1 200 200
0.18455 0.16831 8.0291 1 200 200
-0.12284 0.64107 8.0542 1 200 200
-0.72136 -0.19206 7.664 1 200 200
-0.83489 0.14508 7.8323 1 200 200
-0.85623 -0.2723 7.6897 1 200 200
0 0 0 1 0 0 0 1 0 0 0 1 0 0 0 0 0 138 1 0 0
