ply
format ascii 1.0
comment PCL generated
element vertex 227
property float x
property float y
property float z
property uchar red
property uchar green
property uchar blue
element camera 1
property float view_px
property float view_py
property float view_pz
property float x_axisx
property float x_axisy
property float x_axisz
property float y_axisx
property float y_axisy
property float y_axisz
property float z_axisx
property float z_axisy
property float z_axisz
property float focal
property float scalex
property float scaley
property float centerx
property float centery
property int viewportx
property int viewporty
property float k1
property float k2
end_header
1.36 -0.49768 10.893 83 49 21
1.265 -0.38291 10.307 95 19 17
1.533 0.091954 12.273 102 142 172
-0.15161 0.88659 13.362 2 7 47
-0.97882 -0.58671 10.789 36 41 10
1.3541 -0.55525 10.821 1 9 40
0.13037 -0.48396 11.164 4 76 124
0.039115 -0.47654 11.184 67 0 0
1.2742 -0.40655 10.305 123 38 17
0.077185 -0.43451 11.152 96 127 142
0.29125 -0.38835 10.489 30 65 89
-0.64985 -0.40501 11.448 10 1 0
1.8553 -0.21655 12.102 34 11 0
1.3936 -0.14449 11.236 6 37 45
1.2411 0.034074 12.315 7 31 3
1.2411 0.034074 12.315 90 0 2
1.2411 0.034074 12.315 5 79 7
1.0753 0.042444 12.374 35 1 2
-0.44709 0.12489 12.958 96 133 166
-0.45312 0.17617 12.998 19 34 31
-0.37028 0.17912 12.964 60 5 15
-0.37028 0.17912 12.964 102 86 5
-0.37028 0.17912 12.964 126 51 47
-0.51805 0.18373 13.018 102 69 65
-0.11755 0.19863 12.896 43 27 1
0.29847 0.19706 12.786 2 6 4
0.10681 0.9095 13.288 94 137 172
-1.121 0.87319 11.903 64 15 15
0.34265 0.93686 13.277 9 24 9
0.3213 0.97713 13.325 15 6 21
-1.0775 -0.74419 11.325 8 79 124
1.3145 -0.5328 10.281 82 112 130
1.2578 -0.42966 10.319 5 5 7
1.3311 -0.47192 10.924 1 17 117
1.3776 -0.47325 10.91 70 34 0
1.3776 -0.47325 10.91 69 1 1
-0.87842 -0.46713 11.35 67 21 16
0.27894 -0.45014 11.077 1 1 20
0.70279 -0.38812 10.218 20 69 91
0.70279 -0.38812 10.218 6 14 99
-0.54954 -0.42537 11.4 110 9 0
1.2376 -0.23784 12.138 21 46 86
-0.91788 -0.13717 10.691 3 1 0
1.2253 -0.12692 11.313 88 0 2
1.3681 -0.12225 11.271 6 119 26
1.4713 -0.15323 12.141 5 15 42
1.3078 -0.013753 11.27 2 123 10
1.0202 0.029746 11.391 87 25 9
1.5205 0.037739 12.243 8 118 105
1.4286 0.065538 11.221 76 10 10
0.78873 0.14441 11.537 1 7 21
1.5595 0.12634 12.348 39 57 53
-0.23985 0.15304 12.917 4 11 14
0.33999 0.16202 12.753 75 3 9
0.33999 0.16202 12.753 119 76 3
-0.42298 0.19965 12.992 72 101 0
-0.42298 0.19965 12.992 27 0 15
0.33059 0.20439 11.699 21 47 0
0.63749 0.88356 13.228 44 86 120
-0.21385 0.84639 11.853 14 1 7
-0.13476 0.88224 11.871 2 10 71
-1.0457 -0.48162 11.415 1 1 0
-0.96081 -0.27722 10.741 33 59 80
-1.1494 0.16659 11.228 38 40 9
2.1 0.20214 12.489 112 146 172
2.1 0.20214 12.489 40 32 18
1.4239 -0.5619 10.768 2 1 5
1.3885 -0.53095 10.811 1 1 32
-1.1548 -0.40359 10.847 15 66 46
1.9271 0.044165 11.372 108 151 178
-0.029462 0.31026 13.177 85 139 173
1.9429 -0.66814 10.726 37 84 36
6.8439 -5.1975 69.547 4 4 1
1.4811 -0.51284 10.692 122 15 0
2.0494 -0.61528 10.893 0 0 4
-0.24319 0.023298 13.107 88 136 170
-0.60547 1.207 13.982 15 1 7
-1.2156 0.26727 12.273 70 106 134
1.3144 0.83035 13.336 92 141 173
1.3144 0.83035 13.336 92 141 173
-1.182 -0.1403 11.69 141 8 3
-1.225 0.070612 10.887 16 18 25
2.015 0.15477 12.529 82 36 0
2.015 0.15477 12.529 17 40 122
1.5762 0.51842 12.947 19 69 52
-0.37209 0.52787 12.217 0 2 6
-0.29001 0.97177 13.792 80 113 147
0.45898 0.87169 11.946 13 9 3
0.21368 2.1766 0.15468 59 102 122
0.19086 2.1808 0.15101 63 106 129
0.21284 2.1843 0.14119 53 78 97
0.1901 2.1864 0.14109 77 122 151
0.19326 2.1872 0.13881 31 62 91
0.20977 2.198 0.11394 98 139 165
0.20977 2.198 0.11394 98 139 165
0.20942 2.1995 0.11046 92 135 162
0.18555 2.2021 0.10978 60 99 133
0.2065 2.2045 0.0987 76 116 146
0.18653 2.2144 0.076317 70 114 147
0.19122 2.2152 0.071565 71 111 146
0.21428 2.1733 0.16023 51 94 109
0.21428 2.1733 0.16023 51 94 109
0.20181 2.1767 0.15614 91 133 154
0.17219 2.1783 0.16017 64 97 116
1.2645 -0.46317 10.551 81 113 130
0.72265 -0.35487 10.32 33 75 99
-0.066727 -0.44863 11.012 96 132 151
-0.11248 -0.68722 13.33 55 101 135
1.9584 -0.4259 12.099 25 58 81
1.817 -0.32234 11.912 55 95 124
1.2078 -0.12141 11.986 42 80 108
1.3935 -0.082103 11.87 54 92 120
1.2 -0.063658 11.96 29 64 90
1.2 -0.063658 11.96 29 64 90
-0.83934 0.0072687 12.333 40 80 112
0.90629 0.081358 12 59 98 130
0.82703 0.073282 12.127 34 70 96
1.9632 0.076116 11.815 64 108 138
1.9632 0.076116 11.815 64 108 138
-0.24673 0.082116 12.831 83 136 168
1.2019 0.41906 11.799 84 122 150
0.82008 0.71467 11.949 32 64 90
-0.26241 0.79747 12.494 53 90 123
0.2905 0.83095 12.338 35 69 99
0.2905 0.83095 12.338 35 69 99
-0.13516 0.84659 12.466 14 44 71
0.015911 0.8513 12.391 79 119 152
-1.1162 0.95653 12.379 54 93 127
-0.79146 0.99646 12.276 109 142 172
1.9155 -1.0416 11.455 0 40 57
2.0546 -0.95301 11.537 95 129 149
0.43077 -0.68623 11.113 0 3 15
-1.0508 -0.57956 11.39 46 78 98
-1.0508 -0.57956 11.39 46 78 98
0.95565 -0.44962 10.381 50 100 122
0.26991 -0.49677 10.834 99 140 159
1.1014 -0.416 10.459 83 114 132
0.29177 -0.66668 13.119 9 49 79
-0.9489 -0.20909 11.004 34 71 91
0.22939 -0.6414 13.536 0 5 11
-0.2316 -0.69286 14.056 5 6 10
1.491 -0.40122 12.015 24 58 85
1.388 -0.26529 11.967 36 67 94
-0.73149 -0.27391 13.185 74 121 157
1.4658 -0.053608 11.826 101 138 164
1.4864 0.050134 11.753 50 91 116
1.7402 0.087046 11.618 56 101 130
-0.44149 0.04826 12.892 117 162 198
-0.34186 0.058346 12.827 102 137 168
-0.30538 0.088413 12.89 62 104 143
0.85376 0.17484 12.002 82 118 144
0.74299 0.14751 12.522 12 42 67
1.2578 0.21157 11.829 115 158 182
-1.1599 0.36443 11.545 38 71 97
1.2261 0.38448 11.824 40 77 105
0.9674 0.4698 11.983 88 123 148
0.95709 0.56477 11.977 0 21 45
-0.49589 0.82328 12.6 74 118 154
-0.21335 0.85059 12.467 106 148 180
-0.4994 0.86135 12.582 18 49 75
-0.0010948 0.88043 12.429 31 57 82
2.0398 -1.2341 11.89 0 0 10
-1.2707 -0.77011 11.689 78 111 129
-0.35009 -0.72457 11.613 0 0 16
0.78732 -0.3858 10.253 49 86 107
0.9071 -0.15924 12.186 100 147 176
-1.2052 0.15693 11.706 83 121 146
-0.080879 0.057531 12.705 121 168 197
-0.16854 0.15178 13.221 95 143 181
0.66123 0.6011 12.528 0 3 7
-0.12456 0.94524 12.895 88 137 173
-0.18557 0.98056 13.012 3 4 10
1.2677 -0.74228 10.698 0 4 8
0.74594 -0.67275 10.607 0 6 14
1.2153 -0.63027 10.675 27 53 69
1.3796 -0.58741 10.488 0 14 25
1.35 -0.44231 10.463 81 120 145
0.18294 -0.67874 13.51 83 145 178
0.31035 -0.66686 13.412 86 143 177
1.4461 -0.10555 11.857 107 151 175
0.61374 -0.099103 12.628 88 143 175
2.0042 0.10618 11.916 120 154 180
2.0338 0.14524 12.085 2 2 9
-0.045868 0.13963 13.234 90 142 177
-0.40733 0.17509 13.47 1 7 10
-0.22799 0.18399 13.325 0 5 6
1.1824 0.34386 11.834 85 131 162
1.1824 0.34386 11.834 85 131 162
-0.62067 0.57514 13.118 12 14 22
-0.21598 0.64961 12.784 113 154 189
1.3238 0.70688 12.49 1 4 10
-1.1956 0.97189 12.249 9 24 40
-1.222 -0.63079 11.408 69 104 122
1.4236 -0.52514 10.324 101 145 162
2.1085 -0.66992 11.474 95 133 156
-0.27176 -0.70652 13.885 92 143 175
1.9934 0.019706 11.839 108 149 176
2.0395 0.11778 12.775 0 2 4
1.5933 0.47774 12.78 1 3 8
-0.17233 0.58446 12.882 2 4 11
-1.2025 -0.42431 11.301 69 110 128
1.714 -0.36064 11.786 100 147 174
2.0002 -0.19008 11.898 91 143 176
-1.1583 0.4418 11.522 94 134 163
-1.1543 0.56893 11.558 91 134 162
1.2374 -0.78359 10.811 0 2 4
-1.1714 0.18926 11.652 69 107 133
-1.1436 0.6925 12.459 81 117 151
-0.045514 0.67008 12.66 65 116 153
0.96634 0.9305 12.814 84 134 168
1.0805 -0.47231 10.462 27 41 54
-0.081218 0.90333 12.933 66 99 133
1.9824 -1.0155 11.454 81 139 164
1.9824 -1.0155 11.454 81 139 164
-1.1176 -0.15704 10.956 89 128 147
1.0801 0.47061 11.843 81 124 155
1.5375 0.3724 12.525 86 126 155
-0.45856 -0.45093 13.85 1 3 5
0.47292 0.018364 12.894 71 116 150
0.47292 0.018364 12.894 71 116 150
-0.42772 0.39228 13.219 0 2 6
0.72329 0.41968 12.563 0 0 3
0.72329 0.41968 12.563 0 0 3
-0.2841 0.80922 12.917 85 135 169
0.4846 0.7947 12.568 99 141 171
1.7365 -0.57394 10.821 93 149 176
-0.77598 -0.17764 11.234 66 102 130
0 0 0 1 0 0 0 1 0 0 0 1 0 0 0 0 0 227 1 0 0
