ply
format ascii 1.0
comment PCL generated
element vertex 1019
property float x
property float y
property float z
property uchar red
property uchar green
property uchar blue
element camera 1
property float view_px
property float view_py
property float view_pz
property float x_axisx
property float x_axisy
property float x_axisz
property float y_axisx
property float y_axisy
property float y_axisz
property float z_axisx
property float z_axisy
property float z_axisz
property float focal
property float scalex
property float scaley
property float centerx
property float centery
property int viewportx
property int viewporty
property float k1
property float k2
end_header
0.61214 -0.39312 10.199 9 1 5
0.58814 -0.35274 10.212 3 2 73
0.69517 -0.32929 10.158 2 102 84
0.80253 -0.31974 10.035 70 50 31
0.79524 -0.78613 10.491 18 71 21
-0.32698 -0.76681 10.767 124 20 16
0.97437 -0.56903 10.282 14 57 67
0.6318 -0.46693 10.229 140 109 55
1.261 -0.45244 9.9075 18 124 31
0.35417 -0.42441 10.235 23 9 47
0.25184 -0.4065 10.252 28 29 6
-0.039638 -0.38634 10.274 82 32 5
0.2458 -0.37911 10.25 16 3 5
1.2645 -0.36987 9.9498 4 7 31
0.24907 -0.35687 10.252 193 149 82
0.57356 -0.33305 10.215 59 24 6
0.57356 -0.33305 10.215 8 92 104
1.2902 -0.32354 10.165 5 10 2
2.0566 -0.29645 12.294 1 0 2
1.4384 0.2654 9.8138 51 17 0
1.6857 -0.22133 10.005 21 39 8
1.2396 -0.2053 9.7496 32 4 23
0.58054 -0.10942 9.8047 11 38 95
1.3863 -0.11148 9.3146 10 42 36
0.68789 -0.064307 9.6896 1 177 10
-0.31812 -0.044109 9.8759 255 222 161
0.4603 -0.013496 9.7909 180 132 73
0.56609 -0.0051476 9.7759 168 132 72
1.1908 0.016188 9.5697 147 116 68
0.66054 0.026496 9.7253 14 7 18
1.2135 0.041295 9.5805 170 141 102
0.50228 0.027704 9.8008 24 6 7
1.1476 0.133 9.8077 68 67 0
1.435 0.16663 9.5688 12 3 5
1.4026 0.13859 9.5093 6 110 5
1.2153 0.1645 9.5595 9 31 122
1.3887 0.1769 9.6589 28 82 1
1.3995 0.191 9.7202 128 12 0
1.1055 0.22645 9.8554 32 43 4
1.41 0.18488 9.699 6 29 24
-0.86588 0.33116 9.8533 5 147 0
0.69239 0.37299 10.037 4 0 0
0.92391 0.37741 10.024 3 10 6
0.92405 0.37734 10.025 146 108 59
1.352 0.19756 9.5405 1 17 30
1.1822 0.40985 9.9959 130 91 42
1.259 0.43844 9.966 36 50 14
1.1863 0.44817 10.028 5 5 2
1.5543 0.49232 9.987 39 6 4
1.432 0.54968 10.047 113 72 27
-1.0051 -0.22502 10.526 11 4 6
0.30803 -0.84239 10.739 7 1 1
0.13347 -0.74415 10.706 58 61 2
-0.31027 -0.73866 10.766 21 14 30
0.81933 -0.71497 10.525 19 6 0
1.2208 -0.5563 10.227 1 2 132
1.2427 -0.5337 10.186 4 59 2
1.2627 -0.49021 10.123 1 0 13
0.81953 -0.48262 10.215 1 4 4
0.21701 -0.61316 10.122 43 17 5
0.4553 -0.44628 10.241 1 12 26
0.4553 -0.44628 10.241 254 230 168
-0.24683 -0.43144 10.301 81 123 0
0.48736 -0.4238 10.223 37 52 68
0.62324 -0.41522 10.2 86 16 0
-0.26275 -0.40531 10.297 66 3 8
-0.030285 -0.40626 10.275 14 6 1
-0.30135 -0.40391 10.305 15 0 0
0.17487 -0.40263 10.245 17 48 2
1.3935 -0.34165 9.8597 7 2 22
1.3419 -0.29204 9.4946 8 80 5
1.2351 -0.27142 9.9099 1 1 9
1.2913 -0.29856 10.189 23 116 46
0.47087 -0.14192 9.4862 205 170 109
1.2732 -0.10528 9.447 75 0 0
0.22027 -0.050101 9.81 17 24 46
0.55389 -0.027695 9.7694 26 16 0
1.1552 -0.013735 9.5887 176 138 86
0.28512 0.25613 10.187 215 184 127
1.466 0.16844 9.393 1 0 0
1.1694 0.20784 9.8312 115 21 5
1.484 0.24452 9.8076 18 0 1
1.2079 0.25888 9.4861 106 18 0
1.5336 0.26769 9.4832 20 67 54
1.7566 0.31832 9.7557 9 135 2
0.98649 0.35574 9.9642 237 200 148
1.1887 0.32129 9.5108 5 1 1
1.5489 0.35842 9.7054 4 0 1
1.4034 0.13892 9.5219 3 125 23
1.1167 0.39504 9.9926 4 0 3
1.1519 0.39452 9.9903 6 23 4
1.4995 0.48557 9.9947 60 4 1
1.133 0.55542 10.133 59 27 1
-0.49378 -1.0813 10.857 1 1 33
0.74503 -0.89804 10.683 4 5 15
0.30804 -0.84377 10.747 16 0 2
-0.88267 -0.67766 10.155 27 33 6
1.4796 0.0977 9.3292 2 17 25
0.52293 -0.3942 10.209 8 121 2
0.2265 -0.75546 10.6 2 1 1
1.1753 -0.38577 10.045 3 66 17
0.79656 -0.041586 9.6883 22 24 19
-0.08582 -0.026153 9.848 34 29 10
0.64264 -0.0071439 9.7273 255 254 192
0.59821 0.04849 9.8328 1 140 4
0.30633 0.19839 10.94 25 10 6
1.2062 0.29776 9.9056 24 0 0
0.73922 0.34294 10.017 8 3 2
1.2074 0.34325 9.9361 35 0 0
1.2091 0.39733 9.9684 71 17 11
1.2161 0.5062 10.051 114 91 15
1.4668 0.55509 10.063 118 81 10
-0.62861 -1.1135 10.811 19 14 24
0.81131 -0.9991 10.671 16 4 0
-0.3891 -0.94881 10.881 50 44 1
0.58411 -0.87493 10.743 9 75 116
-0.065819 -0.87874 10.858 4 42 75
0.48839 0.29431 10.177 24 99 87
-0.95586 -0.61827 10.63 4 1 1
1.0222 -0.50954 10.184 86 41 1
1.3229 -0.45676 9.9224 22 126 12
1.3229 -0.45676 9.9224 37 119 11
-0.94155 -0.33913 9.606 241 207 146
1.7189 -0.0088059 9.7726 3 0 0
0.45168 0.23733 9.3319 12 11 12
0.69642 0.33965 10.03 55 120 13
1.0298 0.36715 9.9819 56 52 16
1.0931 0.36658 9.9842 11 27 9
1.312 0.35861 9.7575 61 3 2
-0.014305 0.31708 8.9954 218 172 108
0.24713 0.28083 10.207 27 6 5
-0.96527 -0.11387 9.5003 19 13 7
0.44067 0.24485 7.7235 11 43 5
1.5394 0.51601 10.094 57 18 17
1.1894 0.53372 10.1 10 124 10
1.512 0.54239 10.05 131 0 0
1.5569 0.54266 10.006 6 1 0
1.7147 0.0096001 9.7539 78 130 15
1.4311 0.59879 10.087 1 0 1
-0.57203 -1.1063 10.867 7 3 33
1.5584 -0.55494 10.067 2 2 1
1.586 -0.49443 10.053 129 57 8
-0.91405 -0.47999 9.8015 215 184 127
0.30565 -0.40005 10.244 3 10 17
1.6728 -0.10896 9.8342 121 9 1
1.3453 -0.066183 9.3094 11 16 25
1.3451 -0.066279 9.3095 18 22 33
0.95714 0.11718 9.747 23 1 0
1.3059 0.27878 9.6732 19 8 1
1.0523 0.53106 10.113 19 9 0
-0.60922 0.61538 10.313 251 216 161
-0.42724 0.35761 7.8098 10 0 0
-0.67664 0.66909 10.305 31 21 15
-0.67664 0.66909 10.305 82 126 36
-0.83381 0.71184 10.164 240 205 150
-0.51841 -1.0261 10.845 2 1 2
1.2043 -0.70225 10.415 2 0 2
1.5403 -0.67801 10.034 12 0 0
1.3945 -0.02974 9.2927 239 210 146
1.7726 0.36808 9.7492 154 7 0
-0.49636 0.54271 10.376 24 33 18
0.45384 -0.97116 11.216 4 3 1
0.055512 -0.85171 10.841 212 178 105
0.77967 0.59966 10.189 41 11 26
-0.93096 -0.17711 9.4329 51 5 14
0.64534 -0.96874 10.71 10 7 36
0.60889 0.56496 10.305 1 2 26
1.7888 -1.1641 15.254 58 0 0
-0.57781 -0.10015 10.047 255 226 155
-0.57845 -0.10042 10.052 3 2 96
1.0457 0.024776 9.8798 63 41 8
0.33098 -0.77966 10.688 215 176 110
0.27538 -0.76098 10.697 178 139 72
0.34665 -0.76007 10.681 180 138 72
0.3289 -0.74447 10.69 213 177 114
0.59892 -0.72326 10.648 155 118 55
0.11335 -0.46191 10.285 243 197 126
0.11335 -0.46191 10.285 243 197 126
-0.18838 -0.40727 10.294 168 120 54
0.21949 -0.40568 10.25 247 208 139
0.62291 -0.3776 10.199 166 127 63
-0.20415 -0.37065 10.298 199 155 78
0.60018 -0.33277 10.214 147 108 56
1.0271 -0.19034 9.8357 227 188 131
-0.33172 -0.031002 9.8902 201 167 115
1.3128 0.025847 9.427 163 137 100
1.4107 0.051754 9.3083 187 165 111
-0.16724 -0.0091641 9.8728 201 159 96
1.3748 0.070111 9.4171 134 114 84
0.55196 0.012277 9.7909 239 205 146
-0.7161 0.061254 9.8304 246 202 144
-0.71581 0.060961 9.8312 237 194 133
-0.084007 0.021902 9.8927 208 175 138
1.1588 0.055528 9.6712 137 106 52
1.1588 0.055528 9.6712 137 106 52
0.10594 0.044543 9.9378 226 191 137
0.94278 0.081096 9.7314 203 176 134
0.96776 0.082551 9.7249 219 187 137
1.0664 0.07511 9.7522 181 142 88
-0.606 0.1127 9.9676 246 206 149
-0.60663 0.11302 9.9671 248 209 154
1.359 0.12672 9.6822 85 54 17
1.3546 0.14108 9.7078 182 147 95
1.3735 0.15413 9.6846 100 68 27
1.374 0.17034 9.7255 170 134 89
1.3611 0.17821 9.739 129 94 44
1.2846 0.22476 9.6281 183 156 108
1.3674 0.19796 9.7557 141 105 51
1.4019 0.21483 9.7617 160 126 83
-0.54683 0.22873 10.075 176 131 76
1.1018 0.22352 9.8435 238 201 138
1.3582 0.22836 9.7836 148 108 58
1.3581 0.22836 9.7838 146 109 58
-0.86583 0.3316 9.8486 171 133 83
1.4335 0.27341 9.7222 220 173 99
0.91523 0.26769 9.9515 161 122 71
1.0319 0.29481 9.9493 239 194 123
1.0913 0.29518 9.9378 227 185 121
0.14819 0.22076 10.564 247 195 124
1.5207 0.36493 9.8832 71 40 11
-0.49868 0.38057 10.198 163 120 73
-0.49868 0.38057 10.198 163 120 73
0.94188 0.35936 10.032 239 197 144
1.4608 0.29337 9.8328 158 123 84
1.2278 0.26596 9.8122 132 97 53
0.95501 0.39753 10.018 181 140 84
-0.39397 0.39869 10.285 185 140 81
-0.39346 0.39812 10.286 185 140 81
0.57397 0.39314 10.135 255 217 155
-0.091727 0.39887 10.249 175 131 69
-0.091727 0.39887 10.249 175 131 69
1.5444 0.40859 9.9078 73 43 13
-0.8392 0.50241 9.9905 217 177 126
-0.83906 0.50406 9.9851 217 177 126
1.4044 0.43971 9.9563 199 157 107
0.66655 0.44873 10.101 250 210 149
0.55799 0.4512 10.169 255 215 166
0.67951 0.46512 10.109 202 159 103
1.6118 0.48099 9.9486 50 30 3
0.52751 -0.76195 10.656 168 129 65
0.01052 -0.74638 10.734 172 129 66
1.2677 -0.53804 10.155 79 55 23
1.1952 -0.559 10.248 103 74 34
1.257 -0.42857 10.048 98 73 31
-0.44944 -0.4323 10.329 209 164 97
0.072903 -0.43188 10.272 202 160 85
1.2592 -0.41229 10.084 100 74 35
0.55581 -0.4169 10.211 180 140 79
0.0040455 -0.40751 10.269 255 217 145
-0.26292 -0.37413 10.315 214 169 98
1.5761 -0.55923 10.869 44 27 6
0.66545 -0.060297 9.7183 220 181 112
-0.49865 -0.027551 9.9023 188 148 91
1.3327 0.035149 9.4005 84 59 18
0.33165 -0.026151 9.8059 231 197 128
1.3586 0.045785 9.391 190 164 124
0.45903 -0.014205 9.7926 174 129 69
1.3846 0.066538 9.3772 78 59 23
0.22257 -0.0033678 9.8588 167 132 66
0.45616 0.0066156 9.7975 255 223 154
-0.21899 0.011251 9.9025 255 234 173
0.89161 0.021878 9.6967 240 205 140
-0.11656 0.016769 9.901 212 178 121
0.396 0.019336 9.8169 186 144 80
0.92017 0.034164 9.6869 160 126 68
0.87615 0.035691 9.7226 142 107 51
0.87589 0.034646 9.7255 142 107 51
1.1989 0.049692 9.6298 129 98 51
0.56279 0.036061 9.7969 148 111 58
-0.18692 0.032819 9.9644 226 196 146
-0.15939 0.032981 9.9659 222 194 144
0.50908 0.040063 9.8344 201 165 103
0.0075116 0.042298 9.9421 226 200 152
0.92152 0.073996 9.7028 120 89 42
1.2274 0.15523 9.4955 78 55 19
-0.80619 0.17444 9.8209 179 134 83
1.1695 0.11707 9.8036 110 76 27
0.96841 0.13484 9.7796 115 78 27
0.94188 0.15865 9.8154 163 124 67
0.90572 0.19338 9.8741 152 116 60
-0.62534 0.23502 9.9859 255 228 166
0.90957 0.23836 9.9031 187 147 88
0.9465 0.24177 9.8983 174 136 74
1.0167 0.2476 9.8773 183 141 85
1.0167 0.2476 9.8773 183 141 85
0.949 0.28221 9.9521 154 117 64
-0.44423 0.28576 10.274 224 177 115
-0.61429 0.34355 10.069 187 141 86
-0.37507 0.31726 10.258 255 246 173
-0.057817 0.31931 10.216 255 255 176
1.4979 0.33253 9.8615 63 34 5
-0.71511 0.38315 10.105 255 228 168
0.58642 0.33282 10.137 220 176 109
0.58638 0.33189 10.142 227 178 112
-0.17194 0.3442 10.234 241 193 122
-0.17194 0.3442 10.234 241 193 122
-0.45372 0.35409 10.266 192 143 91
-0.70194 0.39544 10.117 217 168 108
-0.44769 0.37786 10.271 255 220 149
0.67181 0.37257 10.083 208 169 108
1.1325 0.37337 9.9835 136 98 53
-0.60835 0.41878 10.135 180 139 92
-0.60794 0.41872 10.135 180 139 92
-0.41767 0.38202 10.286 255 232 169
-0.17016 0.39814 10.259 177 127 66
0.55772 0.40939 10.137 195 145 89
-0.098172 0.41783 10.268 255 239 163
1.4194 0.42561 9.9477 139 102 49
1.4446 0.42932 9.9554 181 141 93
1.4446 0.42932 9.9554 181 141 93
0.96089 0.43188 10.044 185 146 85
1.5557 0.42907 9.93 60 33 4
0.59379 0.436 10.145 177 137 87
0.59383 0.43423 10.153 177 137 87
0.59383 0.43423 10.153 177 137 87
1.4277 0.4489 9.9735 116 79 31
1.4279 0.44957 9.9721 116 79 31
1.257 0.48423 9.9965 157 123 87
0.94194 0.49766 10.125 218 174 116
0.57505 0.49101 10.307 143 128 108
1.0845 0.51349 10.099 220 190 139
1.261 0.53 10.041 120 97 70
-0.52699 0.56528 10.352 167 121 64
-0.52724 0.56476 10.354 167 121 64
0.96707 0.56946 10.163 104 73 39
-0.65647 0.63672 10.324 234 190 137
1.12 -0.55457 10.253 130 97 48
0.12449 -0.43025 10.266 198 153 80
0.16306 -0.43192 10.26 203 164 94
0.35119 -0.40057 10.234 255 224 157
0.35119 -0.40057 10.234 255 224 157
-0.79459 -0.041477 9.6415 255 226 159
-0.47864 -0.093613 9.863 255 237 180
1.2977 -0.016196 9.3847 88 61 15
1.2917 -0.0014419 9.4165 200 170 115
-0.48309 -0.048177 9.8909 255 229 152
0.26792 -0.050383 9.8099 255 232 158
0.35554 -0.04521 9.8035 255 255 196
-0.25798 -0.036405 9.8706 255 246 177
-0.45857 -0.024001 9.8976 215 172 104
0.32656 -0.0020026 9.8149 255 255 201
1.2294 0.032497 9.5476 64 40 9
-0.023741 0.0050722 9.8605 148 110 68
1.4462 0.084446 9.3183 173 146 87
-0.16734 0.0076942 9.8942 253 213 150
-0.92068 0.10181 9.6745 154 110 51
1.1273 0.053815 9.6875 210 177 113
0.54216 0.32193 8.683 16 6 0
0.92241 0.10633 9.8061 204 171 117
1.1924 0.14713 9.7666 206 173 121
1.1702 0.15114 9.803 88 54 9
1.1702 0.15109 9.8037 84 53 9
1.1477 0.17276 9.8101 246 211 145
1.2203 0.18096 9.7693 119 85 44
0.92551 0.17448 9.8659 242 203 139
0.94389 0.20383 9.8708 168 134 78
1.4088 0.22662 9.7857 163 127 82
1.0389 0.26877 9.8974 238 201 136
-0.87288 0.34874 9.8544 255 232 173
1.6031 0.33839 9.5282 131 104 56
1.1811 0.31531 9.9293 107 71 28
1.1812 0.31665 9.9241 107 71 28
-0.43793 0.3176 10.253 255 231 157
-0.38477 0.34109 10.256 224 170 106
0.78668 0.34257 10.042 203 155 98
-0.31855 0.34332 10.248 233 182 115
-0.3193 0.34379 10.247 233 182 115
-0.29135 0.34346 10.245 234 183 116
-0.21952 0.64997 8.6658 234 183 116
-0.13005 0.34167 10.227 242 192 124
0.049948 0.3296 10.238 225 178 114
0.15177 0.34892 10.187 247 195 124
-0.61937 0.39828 10.123 255 217 158
0.43466 0.3645 10.15 228 178 108
1.279 0.38818 9.9063 105 75 37
1.6702 0.42985 9.6073 69 49 20
0.23047 0.38205 10.188 255 251 171
-0.45537 0.39855 10.289 123 82 47
0.53158 0.39488 10.143 255 235 169
0.6737 0.40753 10.075 208 165 107
0.93847 0.41029 10.039 244 201 142
1.1815 0.41085 9.9919 119 82 32
1.2399 0.42049 9.9519 137 101 54
0.92935 0.44868 10.074 117 80 39
1.4921 0.45656 9.9475 133 97 48
1.492 0.45599 9.9479 132 94 47
1.053 0.48534 10.054 236 193 125
1.4242 0.50489 10.009 106 73 26
-0.57637 0.54625 10.348 175 131 84
-0.84276 0.67023 10.126 159 118 72
-0.84169 0.67091 10.124 159 118 72
0.83209 -0.55094 10.291 125 97 47
1.2972 -0.13903 9.4032 64 43 11
1.2972 -0.13903 9.4032 64 43 11
1.2614 -0.04315 9.3974 238 206 143
-0.44446 -0.091553 9.8869 141 98 46
-0.44426 -0.091017 9.8854 141 98 46
1.3563 -0.0094276 9.3086 162 136 78
1.3307 -0.0066336 9.3564 234 208 147
-0.43315 -0.049202 9.8845 255 246 162
-0.43285 -0.049115 9.8841 255 246 162
1.3714 0.024779 9.3354 138 114 62
1.1651 0.01953 9.5947 203 170 111
1.3303 0.047992 9.5417 71 48 19
-0.88595 0.12082 9.6831 255 243 176
1.3982 0.14846 9.6092 43 27 1
0.70911 0.17893 9.8468 20 10 0
1.1963 0.1874 9.8008 214 179 123
1.2069 0.25346 9.8591 214 176 119
0.97828 0.29834 9.9169 234 194 133
1.2048 0.30007 9.9001 215 176 121
0.95894 0.30958 9.985 156 118 71
1.2789 0.3473 9.8617 79 50 18
1.2753 0.35496 9.8403 79 50 18
-0.37597 0.37349 10.263 255 230 152
-0.094465 0.37462 10.232 255 245 174
1.2088 0.39776 9.968 220 179 122
1.5313 0.51051 10.012 185 158 113
1.6404 0.5189 9.971 7 1 0
0.95657 0.58978 10.206 224 188 147
0.91299 -0.033511 9.6837 255 217 141
1.4089 0.078755 9.3256 229 207 151
1.2333 0.04159 9.5353 90 70 34
1.355 0.087752 9.5823 55 33 12
1.2608 0.24297 9.6851 89 64 28
-0.88048 0.31903 9.8275 160 120 71
-0.87762 0.32259 9.8212 181 139 86
1.5653 0.32657 9.6621 27 14 0
0.69715 0.33911 10.032 120 87 53
-0.56543 0.36132 10.188 195 149 98
1.1784 0.37341 9.9729 93 60 20
1.724 0.40772 9.7053 168 151 129
1.3938 0.39815 9.9147 206 165 108
1.3073 0.43138 9.7954 191 159 108
1.621 0.43245 9.7067 27 14 3
1.6702 0.4531 9.6538 134 119 84
-0.61252 0.45443 10.17 255 234 176
1.5271 0.4648 9.9537 183 146 93
0.6484 0.48322 10.126 210 173 120
-0.56767 0.52715 10.305 192 146 93
1.5965 0.50643 10.003 172 145 103
1.0453 0.52142 10.082 37 19 3
1.5292 0.52359 10.096 10 2 0
0.7159 0.54097 10.155 233 202 160
-0.79177 -1.0878 10.725 182 160 105
-0.57197 -1.1102 10.877 15 6 3
0.66235 -0.85281 10.685 190 156 88
-0.7444 0.081752 9.8258 193 155 108
1.406 0.11153 9.4252 31 20 3
-0.47195 0.23949 10.237 195 158 106
0.63451 0.2991 10.148 252 208 144
1.0552 0.32555 9.937 219 177 113
1.131 0.33474 9.9118 202 162 104
1.131 0.33474 9.9118 202 162 104
1.4709 0.35123 9.8891 172 136 83
-0.49797 0.42755 10.283 250 209 153
-0.44343 -1.0372 10.927 17 6 2
-0.44236 -1.0293 10.905 17 6 2
-0.31938 -0.9213 10.848 14 7 0
0.92399 -0.88962 10.617 10 4 1
1.067 -0.80853 10.476 151 133 95
1.35 -0.1591 9.3305 211 181 116
-0.78938 0.037854 9.6822 255 223 159
1.7833 0.21243 9.8154 146 120 80
0.63093 0.30718 10.146 255 212 143
-0.59059 1.1666 7.2785 255 244 170
-0.68146 0.66979 10.348 23 15 8
1.2053 -0.66893 10.369 138 110 63
1.3189 0.15453 9.6807 201 163 103
1.4548 -0.67049 10.038 169 150 101
1.402 0.14418 9.5084 173 148 112
1.1374 0.47944 10.022 238 193 122
1.6591 0.28074 9.5703 182 153 104
1.4353 0.478 9.9934 175 142 88
1.1968 0.60577 10.229 1 0 0
0.79517 0.4313 10.138 226 178 116
-0.2224 -1.1426 10.908 6 1 0
-0.70675 0.38917 10.167 225 175 114
1.0429 -0.044001 10.201 202 164 103
-0.71984 0.033244 9.808 236 197 141
-0.69953 0.044476 9.8189 199 155 94
0.49637 0.0071276 9.7961 233 199 131
-0.508 0.028001 9.9549 223 191 143
-0.16886 0.022333 9.937 91 59 8
-0.16829 0.021435 9.9384 91 59 8
0.16345 0.03139 9.8721 227 198 142
0.88555 0.05454 9.7448 113 82 36
0.19967 0.03661 9.9008 80 52 16
0.066981 0.02882 9.9995 85 70 48
1.3509 0.099213 9.631 126 102 72
0.34236 0.053272 9.9075 207 179 138
1.0174 0.073778 9.758 190 155 95
1.3372 0.09972 9.6511 84 53 11
-0.76495 0.171 9.8201 165 129 75
1.2885 0.17583 9.5638 127 98 49
1.382 0.1747 9.6873 76 44 12
-0.68027 0.22618 9.9822 255 207 138
-0.54694 0.22823 10.075 175 131 70
1.1815 0.26665 9.8673 168 131 75
0.93361 0.26681 9.9397 232 196 140
1.4733 0.32166 9.8516 156 122 87
-0.63856 0.38265 10.106 215 169 105
0.96313 0.37272 9.9917 141 101 52
-0.70729 0.42308 10.143 196 148 100
1.276 0.41812 9.9294 99 70 32
0.67923 0.43277 10.087 212 172 112
0.51991 0.42085 10.158 176 134 75
0.95107 0.44308 10.063 215 180 127
-0.77931 0.54239 10.123 211 166 110
0.67933 0.46524 10.109 192 152 92
0.94153 0.46942 10.088 208 173 127
-0.55146 0.51951 10.323 188 138 84
1.2282 0.51848 10.076 113 95 75
-0.73582 -1.0672 10.701 161 145 110
0.030499 -0.43657 10.28 204 163 95
1.3922 0.020617 9.3185 215 193 134
1.1937 -0.051846 9.6002 142 114 66
1.2061 -0.014531 9.5197 183 158 115
0.22105 -0.052583 9.819 176 130 66
0.81331 -0.021388 9.6978 207 169 102
1.3318 0.049045 9.4438 167 142 103
-0.87355 0.090868 9.6834 185 145 86
-0.62942 0.044586 9.8199 188 148 94
-0.62942 0.044586 9.8199 188 148 94
0.20148 -0.0030237 9.8418 255 216 155
0.93967 0.020973 9.6755 235 204 142
0.45533 0.0062345 9.7988 254 216 152
0.89235 0.021877 9.6963 237 202 139
0.31162 0.014094 9.8256 185 146 80
0.54716 0.045549 9.8299 212 180 121
-0.49383 0.042847 10.044 195 169 134
-0.80606 0.17399 9.8214 170 125 71
-0.44224 0.029841 10.341 133 110 82
1.2242 0.20003 9.7868 128 96 46
0.97116 1.1811 7.1617 105 90 66
-0.85138 0.3185 9.8387 255 214 160
0.99491 0.29921 9.9304 232 190 129
1.4999 0.3337 9.7989 136 112 81
-0.19806 0.29039 10.244 246 201 127
1.3817 0.35851 9.8908 141 105 58
1.3817 0.35851 9.8908 141 105 58
1.4216 0.36585 9.9072 143 105 56
0.41292 0.34098 10.161 255 251 175
0.67179 0.37332 10.081 209 167 106
0.92368 0.37749 10.024 148 108 60
1.2166 0.52982 9.5687 183 149 107
0.88961 0.41525 10.08 222 178 127
0.90744 0.44167 10.105 227 181 128
1.5864 0.47394 9.8989 129 109 82
0.53926 0.47488 10.216 217 179 132
1.6301 0.49064 9.9694 145 120 95
0.58764 0.47861 10.201 175 141 105
1.4087 0.51524 10.032 212 172 121
1.3056 0.54511 10.044 204 179 138
0.95999 0.54207 10.131 142 103 48
-0.64812 -0.083946 9.7229 255 234 165
0.52688 -0.058936 9.7868 204 161 105
-0.28891 -0.025384 9.8902 118 80 33
-0.28891 -0.025384 9.8902 118 80 33
0.26571 -0.0050422 9.8193 255 245 178
-0.88414 0.1157 9.6884 255 240 176
0.14762 0.014327 9.8454 115 75 38
1.3172 0.072537 9.5705 173 144 99
-0.24505 0.032161 9.9706 223 192 146
-0.063896 0.040178 9.9493 214 181 131
1.1819 0.07471 9.6861 188 159 105
0.995 0.10473 9.7678 187 148 96
1.7815 0.15501 9.7527 138 113 79
1.2261 0.23966 9.7977 121 88 45
1.8097 0.19426 9.8347 112 90 63
1.2323 0.30579 9.8543 127 90 47
-0.61501 0.33858 10.081 182 140 86
1.2534 0.32927 9.8714 174 141 100
0.56891 0.30248 10.16 255 226 155
1.0711 0.3415 9.9798 209 167 112
1.1788 0.34988 9.9456 114 81 34
1.2586 0.37161 9.8991 169 135 95
1.2356 0.35922 9.9563 149 111 61
0.28287 0.36573 10.166 252 200 129
1.4538 0.40868 9.9385 136 100 53
0.20965 0.39931 10.204 194 149 91
0.16159 0.43592 10.181 160 113 49
1.4219 0.48135 9.9839 123 90 40
-0.44239 0.46642 10.392 64 46 31
0.82236 0.51647 10.175 255 221 162
0.82236 0.51647 10.175 255 221 162
-0.39971 -0.1027 9.8867 255 253 177
1.2263 -0.0065659 9.474 93 72 34
1.2263 -0.0065659 9.474 93 72 34
0.096928 -0.014751 9.8341 255 246 176
1.2392 0.10878 9.5761 76 55 17
1.1471 0.074642 9.7159 62 39 9
1.4342 0.17512 9.5615 163 137 100
1.2829 0.19349 9.5939 203 171 116
1.8028 0.17612 9.8036 137 107 73
1.1457 0.30888 9.9229 205 168 111
1.1465 0.30522 9.9309 205 168 111
0.79548 0.40364 10.105 206 161 101
1.5241 0.41985 9.9238 165 129 87
1.583 0.46385 9.8095 45 28 7
1.3102 0.54042 9.953 30 20 6
1.6745 -0.36833 10.117 124 102 74
1.0039 0.099864 9.7527 178 142 87
1.7501 0.122 9.7239 165 136 91
-0.64642 0.18255 9.936 246 207 141
-0.6269 0.29895 10.044 252 210 148
-0.88025 0.64377 10.106 244 198 140
1.4668 0.55443 10.06 187 158 119
-0.6345 -1.0898 10.789 167 152 110
-0.78836 0.030053 9.679 255 221 155
1.2635 0.045046 9.4358 198 173 119
-0.5186 0.064331 9.9259 224 190 136
-0.47806 0.19256 10.178 170 140 98
1.3196 0.51299 9.8866 199 166 115
1.0807 0.55559 10.2 8 2 0
0.99559 0.55849 10.09 229 194 140
-0.78941 0.74906 10.235 22 12 7
1.1272 -0.73618 10.406 20 10 5
1.2892 0.11286 9.5397 183 151 96
0.71346 0.13746 9.8281 243 208 140
-0.51824 0.32335 10.138 245 205 139
1.6875 0.48157 9.7462 0 0 0
1.3778 0.5507 10.025 192 153 98
-0.55309 0.62004 10.386 26 18 10
-0.81485 0.66957 10.531 18 8 4
0.83332 -0.91254 10.64 174 154 103
0.73035 0.51428 10.18 246 207 145
1.068 0.21524 9.8116 194 160 105
-0.29488 0.53684 10.41 10 1 0
0.55343 0.15345 10.03 9 0 0
-0.17994 0.12819 10.11 11 2 3
0.89734 0.048759 9.7261 177 149 106
1.3746 0.118 9.6223 48 27 2
0.34257 0.053263 9.9075 206 177 130
0.94681 0.19238 9.8473 174 139 76
-0.57279 0.22665 10.08 164 124 74
1.3005 0.31235 9.7065 194 165 115
0.93304 0.26767 9.9381 214 179 127
1.3046 0.37785 9.7823 134 105 59
0.95933 0.33385 9.9596 97 61 12
1.4048 0.35072 9.907 193 156 105
-0.49297 0.36118 10.197 239 193 139
-0.55845 0.41323 10.236 237 191 142
1.4977 0.41904 9.9362 126 87 45
1.4042 0.43912 9.9576 207 169 116
1.4077 0.46269 9.9729 173 139 93
1.4074 0.46295 9.9724 176 140 95
-0.12511 0.44342 10.411 85 72 53
-0.42709 0.45286 10.449 105 87 72
0.58324 0.47918 10.269 27 14 1
0.1435 -0.040488 9.8204 239 196 120
0.38528 -0.03569 9.8136 234 191 121
1.1943 0.015898 9.6072 135 104 54
0.21616 -0.0082398 9.8215 161 121 57
0.99841 0.017078 9.6767 211 177 115
0.5874 0.0068981 9.7742 224 190 131
0.22974 0.037966 9.9028 55 30 0
1.2096 0.089123 9.691 116 86 40
1.2748 0.20807 9.624 116 93 52
-0.85182 0.31809 9.8395 247 207 146
1.2924 0.24828 9.6457 189 160 105
0.92996 0.2269 9.8818 231 196 133
-0.83736 0.44692 9.95 226 185 133
-0.83736 0.44692 9.95 226 185 133
-0.49685 0.37793 10.203 140 97 52
1.4782 0.40497 9.9252 177 142 90
-0.41755 0.38255 10.285 255 226 165
0.52286 0.42143 10.157 155 113 60
1.1861 0.45104 10.038 170 129 72
1.1861 0.45104 10.038 170 129 72
1.0139 0.48358 10.067 225 184 120
0.94858 0.47993 10.106 98 64 21
0.5273 0.47767 10.269 27 13 0
0.98114 0.55919 10.128 206 174 125
0.94461 0.5443 10.173 212 173 117
-0.7983 1.2917 10.557 51 43 39
-0.79758 1.2928 10.554 51 43 39
1.3093 0.035069 9.4716 76 53 13
0.6422 -0.0068144 9.7269 255 247 182
-0.16767 0.0081056 9.8922 245 210 147
-0.67593 0.12288 9.8773 192 148 82
-0.54411 0.087245 9.9488 193 151 88
-0.87029 0.2875 9.8179 254 223 164
1.2798 0.38722 9.9064 103 73 37
-0.66348 0.42644 10.149 197 150 90
1.4536 0.40841 9.9386 127 94 47
1.1814 0.41075 9.9921 119 84 34
0.939 0.41003 10.039 237 194 133
0.23238 0.42301 10.219 255 225 156
-0.44798 0.43347 10.334 69 37 7
0.48176 0.4408 10.181 255 231 164
-0.79616 -0.023025 9.6632 162 121 67
-0.79616 -0.023025 9.6632 162 121 67
0.14299 -0.013045 9.8282 255 250 177
-0.77669 0.19623 9.835 254 219 160
1.1846 0.11809 9.7208 184 152 99
-0.71522 0.47276 10.18 204 161 111
1.1541 0.43879 10.02 232 191 125
1.1524 0.4823 10.052 239 195 129
-0.64877 0.5679 10.262 210 159 94
0.95261 0.096868 9.7645 38 17 2
1.2538 0.20167 9.6381 92 68 37
1.2767 0.48125 9.9271 89 62 30
1.2767 0.48125 9.9271 89 62 30
-0.73855 0.6386 10.203 253 219 167
0.96291 0.047699 9.7098 220 186 124
1.0562 0.32081 9.9451 229 187 119
1.7959 0.2903 9.8802 0 0 0
-0.56516 0.3616 10.188 182 136 85
1.1253 0.52446 10.111 239 198 137
1.5397 0.51515 10.095 6 1 0
1.0022 0.1716 9.8404 231 194 125
-0.68959 0.45778 10.117 221 171 115
0.55447 0.24254 10.144 15 6 4
0.87215 0.51149 10.232 232 190 127
-0.68468 -0.046973 10.28 229 188 125
1.4741 0.11428 9.3489 140 114 59
0.54378 0.020576 9.8041 108 80 30
-0.15533 0.013751 9.9201 170 141 97
0.20243 0.024883 9.8627 250 214 153
-0.64535 0.20937 9.9581 166 127 71
1.3859 0.19164 9.7423 160 127 86
1.1163 0.23979 9.8579 225 187 130
-0.7976 0.38993 10.006 255 219 150
0.89671 0.25189 9.9501 228 192 134
1.5082 0.37775 9.8955 158 125 85
-0.41866 0.36195 10.277 143 97 33
-0.12684 0.38229 10.239 189 146 90
0.56315 0.47656 10.242 140 118 89
0.68443 0.51844 10.165 122 95 55
0.50946 0.48198 10.296 191 169 133
0.50952 0.48159 10.297 191 169 133
0.82321 0.55171 10.309 110 91 70
1.4123 0.052727 9.3092 171 151 92
-0.48555 -0.043255 9.8852 254 226 158
0.99949 0.01704 9.6769 207 177 116
1.2214 0.079914 9.6297 153 126 86
1.1627 0.059152 9.6699 104 76 32
1.1636 0.056759 9.6726 104 76 32
0.92372 0.061052 9.7288 89 58 16
-0.87632 0.30784 9.8333 135 97 47
0.94134 0.14263 9.8252 139 103 47
1.2473 0.25447 9.8029 170 142 104
1.2295 0.27599 9.8359 143 108 57
0.91887 0.26837 9.9537 127 93 47
1.5796 0.38956 9.7067 58 34 8
1.2323 0.30543 9.8933 140 105 54
1.3999 0.35027 9.8826 189 153 106
-0.68824 0.40843 10.13 255 209 141
-0.84578 0.51711 10.003 255 224 175
1.2547 0.38332 9.9157 172 138 98
-0.49651 0.37607 10.206 142 100 52
0.94587 0.37597 10.009 222 186 132
1.2558 0.40573 9.9311 191 157 115
0.95434 0.3959 10.021 176 136 78
-0.41862 0.38058 10.288 253 211 158
1.419 0.42655 9.9472 126 90 41
0.82149 0.40427 10.086 241 197 132
0.82149 0.40427 10.086 241 197 132
1.4285 0.44874 9.9742 97 64 17
0.5857 0.469 10.214 173 140 101
1.4289 0.53215 10.023 119 86 40
-0.42502 0.44312 10.463 109 90 71
1.1783 0.50418 10.13 61 38 22
-0.83555 -0.012179 9.6713 207 165 100
1.1772 0.053842 9.6462 188 157 103
0.50756 0.023098 9.8101 150 109 55
0.081972 0.030486 9.8767 206 172 113
-0.76658 0.17557 9.816 165 130 74
0.14621 0.037056 9.9059 66 32 0
0.14549 0.034873 9.9087 66 32 0
1.1013 0.07506 9.7526 181 144 90
1.2504 0.28904 9.8349 160 133 93
-0.63292 0.36474 10.09 251 209 142
-0.29083 0.3428 10.245 226 176 106
0.0096449 0.34413 10.214 235 185 115
0.43514 0.36442 10.15 239 191 123
1.445 0.42961 9.9562 179 141 94
-0.16991 0.40071 10.255 186 141 81
-0.54709 0.47169 10.28 197 149 94
-0.83456 0.64409 10.115 254 215 157
0.53896 0.47931 10.21 216 174 122
0.82185 0.51767 10.173 255 229 167
1.3552 -0.012905 9.3143 151 129 69
1.3028 -0.023268 9.3945 76 53 14
1.3859 0.0728 9.3701 78 63 29
-0.47294 0.010426 9.9652 68 43 16
0.047571 0.025743 9.8853 205 176 118
-0.64118 0.11422 9.8732 248 209 145
-0.62345 0.20472 9.9697 184 147 92
1.5148 0.31257 9.6568 157 135 96
1.6041 0.38188 9.5839 144 120 79
1.5446 0.34562 9.7089 164 138 100
0.98476 0.35518 9.9667 235 197 137
-0.90282 0.69369 10.16 65 36 10
1.2638 -0.059768 9.4205 203 177 118
1.3297 -0.00040628 9.3492 232 207 147
-0.79216 0.0071344 9.6957 254 221 154
1.2755 0.069245 9.4718 171 141 89
-0.78527 0.0939 9.7636 253 217 156
-0.7823 0.14303 9.7938 246 208 144
-0.78091 0.14721 9.7888 246 208 144
1.0089 0.089479 9.7649 174 138 81
-0.64643 0.18672 9.9311 249 208 136
1.0377 0.13476 9.8119 169 128 73
1.0944 0.13911 9.7993 161 122 65
-0.4716 0.082135 10.129 236 204 162
-0.9118 0.44122 9.9463 255 227 161
0.74018 0.55486 10.207 18 8 0
1.2348 0.031655 9.5538 70 48 17
1.2926 0.19433 9.5972 206 178 119
1.2934 0.19548 9.5957 206 178 119
-0.52021 0.25986 10.113 247 208 141
0.98019 0.27123 9.9107 241 204 141
0.80615 0.27554 9.97 255 219 154
0.74087 0.3255 10.037 255 234 168
-0.61271 0.54458 10.227 255 218 156
-0.85877 0.70569 10.15 244 206 144
0.81172 0.27611 9.9602 237 199 130
1.3058 0.52576 9.9756 21 11 4
1.3058 0.52576 9.9756 21 11 4
1.2556 -0.11738 9.3746 6 1 0
1.7273 0.35502 9.897 0 0 0
-0.86805 0.57673 10.062 255 238 168
1.4076 0.16978 9.5102 142 122 91
-0.89219 0.19453 9.7572 255 223 155
0.70752 -0.053606 9.7965 237 203 134
-0.66103 0.10926 10.142 244 203 138
1.0192 0.15636 10.01 235 203 145
-0.18554 0.009985 9.912 98 67 20
-0.18542 0.01108 9.911 98 67 20
1.2891 0.17156 9.5716 119 90 43
-0.11614 0.029291 9.9559 169 144 105
1.1287 0.070254 9.746 160 129 85
1.2848 0.22512 9.628 168 146 96
0.9828 0.14534 9.7899 212 176 119
-0.53783 0.21636 10.064 236 193 133
1.3 0.31619 9.7033 188 161 110
-0.6388 0.38179 10.107 200 159 95
-0.71393 0.41111 10.131 241 200 140
-0.85052 0.55285 10.036 214 179 127
-0.22398 0.34609 10.241 215 168 102
1.0259 0.41184 10.009 166 127 63
1.4846 0.45382 9.9498 112 78 35
0.88337 0.42859 10.095 110 71 27
1.2416 0.50002 10.033 119 83 44
0.60056 0.48172 10.244 81 68 50
0.56657 0.48341 10.291 161 136 97
-0.57215 0.57903 10.373 113 77 34
-0.7191 0.032127 9.8085 230 193 134
0.81461 -0.026009 9.702 195 159 93
0.14439 -0.040291 9.8206 225 185 110
0.14439 -0.040291 9.8206 225 185 110
1.1426 0.0085332 9.639 114 85 33
1.3228 0.071693 9.5767 163 137 94
1.3228 0.071693 9.5767 163 137 94
0.89293 0.017359 9.6993 231 196 134
0.89293 0.017359 9.6993 231 196 134
0.20209 -0.0069107 9.8461 253 214 154
1.2003 0.065324 9.6641 83 53 15
1.3909 0.14597 9.6362 42 20 1
0.9101 0.069775 9.7837 168 135 96
0.34431 0.046048 9.915 203 173 118
0.34428 0.046118 9.9151 201 173 114
0.48703 0.053463 9.8883 198 164 110
1.1451 0.13856 9.8004 190 156 107
1.3175 0.39788 9.7947 141 108 58
1.0857 0.33987 9.9728 200 160 107
-0.49042 0.36974 10.183 240 201 144
-0.44762 0.37916 10.267 238 194 142
0.82106 0.40633 10.084 242 203 137
1.4291 0.55464 10.034 111 81 36
1.4291 0.55464 10.034 111 81 36
1.3903 0.022203 9.3087 216 198 139
-0.44617 -0.0986 9.8951 138 91 29
1.1772 0.053621 9.6463 187 156 103
-0.062355 0.035114 9.9547 212 178 123
-0.54711 0.10113 9.9694 233 195 124
0.23135 0.044066 9.9264 175 150 109
0.23135 0.044066 9.9264 175 150 109
1.1645 0.28311 9.9081 50 28 2
0.95061 0.28036 9.9593 114 82 37
1.184 0.31661 9.9219 92 59 20
1.1836 0.3165 9.9221 92 59 20
0.92383 0.37805 10.026 150 115 72
0.31672 0.36108 10.167 238 185 121
1.3975 0.49104 9.995 205 168 117
1.0851 0.51224 10.101 235 203 148
-0.5309 0.56479 10.356 153 104 54
0.25731 0.45015 10.378 115 100 82
1.2062 -0.036119 9.5419 180 157 113
0.27695 -0.085189 9.8237 254 238 160
-0.087868 -0.0016784 9.8715 123 90 51
1.1459 0.023543 9.6706 105 74 29
-0.47188 -0.0011869 9.9272 250 215 150
1.5465 0.33347 9.7191 151 128 87
1.0262 0.28246 9.9254 53 25 0
1.1775 0.38527 9.9578 110 76 37
-0.094525 0.37499 10.231 255 241 171
-0.74091 0.54642 10.16 252 215 163
0.35464 0.45481 10.361 107 89 61
1.261 -0.083765 9.3806 19 10 0
-0.38688 -0.14621 9.877 25 6 0
0.99115 -0.06158 9.6015 13 1 0
-0.34107 -0.12591 9.8877 255 243 165
0.76378 -0.068646 9.6745 28 9 2
-0.46185 0.022298 10.047 68 38 11
0.98192 0.22579 9.8639 223 188 124
1.0475 0.49876 10.089 45 22 0
-0.89092 0.70359 10.225 47 26 13
1.0373 0.50499 10.305 11 4 1
-0.65843 -0.10904 9.5733 37 29 22
1.3138 -0.060006 9.362 199 174 105
-0.54595 -0.14879 9.8138 252 221 154
-0.078976 -0.12795 9.8416 16 3 0
1.108 -0.023567 9.6196 219 186 117
1.2946 0.083931 9.5676 182 154 98
0.96937 0.04641 9.7098 218 187 128
0.95213 0.094128 9.7665 41 18 3
-0.50103 0.40625 10.258 255 221 161
1.3989 -0.035658 9.3087 233 202 139
1.125 -0.079517 9.5849 10 2 3
0.21044 -0.11767 9.8076 9 3 0
-0.69695 0.43639 10.141 198 154 103
1.0001 0.49179 10.035 231 190 125
1.3028 0.52772 9.9739 22 12 3
-0.93855 -0.17854 9.4885 255 255 183
0.91914 0.48539 10.437 5 0 0
1.3741 -0.043034 9.3438 153 132 75
1.112 -0.099929 9.5398 7 1 0
1.039 0.20787 9.833 134 100 51
1.5335 0.21592 9.7898 87 67 31
1.4798 0.41021 10.067 203 167 111
-0.66161 0.11515 10.137 250 213 149
1.0477 0.19358 9.977 223 191 138
0.85746 0.01727 9.7218 208 174 117
0.89781 0.045336 9.7284 184 157 117
0.96751 0.077296 9.7289 181 156 123
-0.21341 0.027392 9.9849 67 38 2
-0.70927 0.21476 9.9886 238 196 130
-0.25987 -0.29191 10.412 91 58 12
-0.5949 0.21612 10.069 223 186 133
-0.57149 0.21554 10.067 220 179 124
1.5926 0.46449 9.8827 62 39 13
1.4781 0.44205 9.94 174 141 102
-0.81868 0.62941 10.153 191 148 92
0.50436 0.47391 10.247 122 99 74
0.87711 0.042011 9.7173 136 108 54
-0.58619 0.055481 9.9197 189 147 88
0.92545 0.17677 9.8605 227 195 144
0.90506 0.18922 9.8776 129 95 47
1.5302 0.37071 9.8466 121 99 75
1.2317 0.37328 9.9427 137 101 52
-0.49786 0.37986 10.202 142 104 59
-0.31767 0.34241 10.249 225 179 110
1.5669 0.44594 9.8831 121 101 77
1.5669 0.44594 9.8831 121 101 77
0.95344 0.39425 10.021 172 134 79
0.95344 0.39425 10.021 172 134 79
-0.17092 0.34259 10.236 224 178 111
1.4019 0.5102 10.011 108 73 36
0.53845 0.47067 10.218 209 171 122
-0.65824 0.63796 10.323 233 192 140
-0.63528 -0.1932 9.7349 169 154 122
1.4383 0.20832 9.6086 50 34 5
0.008945 0.038512 9.9442 217 192 149
1.5234 0.33091 9.6843 28 9 1
1.0922 0.36866 9.982 121 82 42
0.92395 0.38063 10.024 156 118 74
1.111 0.39847 9.9896 242 204 140
0.52724 0.42053 10.157 139 99 51
0.85154 0.43242 10.113 242 198 133
-0.70749 0.5729 10.272 197 154 101
1.4074 0.51646 10.035 190 157 109
-0.81416 0.52525 10.485 127 102 74
0.94613 -0.081215 9.6586 230 195 123
1.2331 0.033223 9.5523 63 43 9
0.35775 -0.070443 9.8119 255 249 178
0.14533 0.010234 9.8493 109 77 35
-0.87053 0.28725 9.8096 255 229 169
1.5153 0.30647 9.6609 160 142 108
1.312 0.36977 9.7583 201 171 115
1.2737 0.36514 9.8237 76 50 13
1.1122 0.28469 9.9172 43 18 0
-0.4549 0.39614 10.292 99 61 28
-0.89355 0.063809 9.6521 242 211 150
0.54256 -0.057296 9.7861 244 209 141
-0.18343 0.014833 9.931 103 70 35
-0.46324 0.013473 10.054 64 36 6
-0.7464 0.50195 10.11 252 218 163
-0.74053 0.63137 10.209 254 221 171
-0.65899 0.59334 9.1732 252 226 161
-0.93788 0.102 9.622 253 221 155
-0.54356 -0.11438 9.7848 247 221 158
1.2915 0.19641 9.5961 189 165 115
0.06139 0.02985 9.9406 29 12 0
0.90386 0.13438 9.78 187 151 94
0.70459 0.13758 9.8314 222 193 130
-0.56653 0.3603 10.191 186 141 94
1.4359 0.41061 9.9377 150 116 73
-0.85974 0.69842 10.159 245 207 147
1.4584 0.4873 9.9862 204 169 117
-0.57096 0.52974 10.31 188 147 104
-0.6032 0.62345 10.298 247 213 157
-0.80742 -0.16683 9.5776 242 213 145
0.32264 -0.14644 9.8204 16 4 0
1.2749 0.35178 9.8157 83 57 22
1.2749 0.35178 9.8157 83 57 22
1.2199 0.45 10.007 213 176 121
0.72222 0.53434 10.15 246 210 152
1.1574 -0.0063074 9.6119 210 177 117
-0.90346 0.35856 9.887 240 203 137
1.3242 0.22842 9.6921 183 151 94
0.9897 0.18836 9.8267 226 190 125
1.3022 0.52804 9.9738 22 13 2
1.4683 0.29882 9.7187 35 19 4
0.87123 0.52146 10.208 239 199 137
0.62888 0.53404 10.35 0 0 0
-0.84118 -0.13782 9.8079 247 211 141
0 0 0 1 0 0 0 1 0 0 0 1 0 0 0 0 0 1019 1 0 0
