ply
format ascii 1.0
comment PCL generated
element vertex 88
property float x
property float y
property float z
property uchar red
property uchar green
property uchar blue
element camera 1
property float view_px
property float view_py
property float view_pz
property float x_axisx
property float x_axisy
property float x_axisz
property float y_axisx
property float y_axisy
property float y_axisz
property float z_axisx
property float z_axisy
property float z_axisz
property float focal
property float scalex
property float scaley
property float centerx
property float centery
property int viewportx
property int viewporty
property float k1
property float k2
end_header
0.90558 -0.35703 7.626 3 3 6
0.8909 -0.30568 7.6393 34 70 92
0.95226 0.065794 8.0075 102 142 172
-0.13758 0.56123 8.506 16 2 5
-0.76777 -0.46917 8.0588 43 148 3
0.90515 -0.39909 7.6058 27 87 31
0.05175 -0.35733 7.8687 131 0 1
-0.01058 -0.32708 7.6824 18 3 0
0.89722 -0.3226 7.634 81 121 142
0.015836 -0.32444 7.8708 2 0 0
0.17698 -0.31781 7.8207 5 33 83
-0.47644 -0.2756 7.778 48 82 102
1.1796 -0.13937 8.0202 6 5 0
0.94041 -0.11083 7.9839 1 0 0
0.76601 0.026855 8.0663 1 51 23
0.7688 0.024888 8.0985 28 60 87
0.7688 0.024888 8.0985 28 60 87
0.65932 0.029962 8.1226 55 30 0
-0.32826 0.080131 8.3396 96 133 166
-0.33175 0.11295 8.3515 15 34 11
-0.27906 0.11506 8.3393 56 98 130
-0.27906 0.11506 8.3393 56 98 130
-0.27906 0.11506 8.3393 129 27 3
-0.37301 0.11765 8.3582 33 7 1
-0.1197 0.12806 8.409 12 55 16
0.15031 0.12909 8.3255 47 0 0
0.02747 0.57586 8.4461 69 60 5
-0.84633 0.59732 8.6666 9 24 6
0.17124 0.59362 8.4032 22 2 0
0.16165 0.61728 8.4221 6 11 41
-0.76825 -0.50866 7.7306 36 69 88
0.92519 -0.41275 7.5991 13 10 34
0.88442 -0.33892 7.6379 2 2 58
0.88442 -0.33892 7.6379 12 9 71
0.91036 -0.32502 7.5637 17 7 1
0.91036 -0.32502 7.5637 7 0 0
-0.63229 -0.31894 7.7365 15 38 54
0.15716 -0.33468 7.822 5 0 0
0.48571 -0.32091 7.6698 31 0 1
0.48571 -0.32091 7.6698 2 0 4
-0.40937 -0.28999 7.7617 88 124 143
0.7707 -0.15152 8.0302 3 0 7
-0.72829 -0.14499 8.0871 7 66 1
0.82043 -0.09855 8.0234 31 62 89
0.92013 -0.094484 7.9924 19 16 4
0.92013 -0.094484 7.9924 19 100 112
0.88061 -0.019978 8.0145 3 113 9
0.6776 0.0094874 8.0953 4 7 36
0.94593 0.03049 8.0038 40 69 10
0.96672 0.03574 7.9915 26 19 76
0.51173 0.086799 8.153 3 43 7
0.96581 0.088892 8.0239 9 2 11
-0.1999 0.098518 8.434 31 36 5
0.17666 0.1057 8.2642 19 1 6
0.17725 0.1065 8.3125 66 131 32
-0.31871 0.12764 8.4757 8 112 40
-0.31253 0.12806 8.3486 11 3 1
0.19172 0.12926 8.3085 1 0 27
0.35712 0.56137 8.3869 26 159 58
-0.19131 0.57877 8.5125 33 20 86
-0.13476 0.60402 8.5089 123 111 9
-0.74397 -0.32805 7.7601 20 130 13
-0.75779 -0.24633 8.0828 33 59 80
-0.88807 0.084553 8.3556 5 6 116
1.3149 0.13644 8.1359 7 125 17
1.2909 0.14213 7.9818 21 47 11
0.95496 -0.40431 7.5791 2 26 36
0.92201 -0.36644 7.5252 1 0 76
-0.89893 -0.3361 8.1131 13 16 2
1.3149 0.018112 8.0886 10 15 16
-0.061883 0.19822 8.4133 11 24 11
1.3386 -0.48198 7.6832 14 0 1
1.4182 -0.44295 7.8261 0 2 9
0.99718 -0.37234 7.5415 88 0 0
1.4012 -0.43723 7.7359 7 25 126
-0.1976 0.014929 8.4002 3 34 58
-0.41674 0.74514 8.6367 80 9 0
-0.86409 0.1607 8.3507 65 12 1
0.77906 0.52685 8.4217 16 4 1
0.77906 0.52685 8.4217 9 66 43
-0.82742 -0.094953 7.8543 16 17 17
-0.95254 0.012987 8.1806 1 1 12
1.2595 0.10521 8.1579 14 46 14
1.2595 0.10521 8.1579 57 1 1
0.94936 0.33874 8.1715 12 106 26
-0.29845 0.35042 8.6411 19 9 9
-0.2227 0.60897 8.6348 23 2 25
0.27904 0.59611 8.4496 13 13 9
0 0 0 1 0 0 0 1 0 0 0 1 0 0 0 0 0 88 1 0 0
