ply
format ascii 1.0
comment PCL generated
element vertex 88
property float x
property float y
property float z
property uchar red
property uchar green
property uchar blue
element camera 1
property float view_px
property float view_py
property float view_pz
property float x_axisx
property float x_axisy
property float x_axisz
property float y_axisx
property float y_axisy
property float y_axisz
property float z_axisx
property float z_axisy
property float z_axisz
property float focal
property float scalex
property float scaley
property float centerx
property float centery
property int viewportx
property int viewporty
property float k1
property float k2
end_header
1.3573 -0.4855 10.312 3 3 6
1.3348 -0.41014 10.322 34 70 92
1.4289 0.12306 10.863 102 142 172
-0.11788 0.83589 11.189 16 2 5
-0.98396 -0.60061 10.573 43 148 3
1.3573 -0.54684 10.288 27 87 31
0.14203 -0.46247 10.464 131 0 1
0.052792 -0.4543 10.472 18 3 0
1.3444 -0.43494 10.319 81 121 142
0.08993 -0.41366 10.446 2 0 0
0.31605 -0.40832 10.411 5 33 83
-0.61129 -0.37339 10.579 48 82 102
1.7479 -0.16957 10.849 6 5 0
1.4176 -0.13391 10.867 1 0 0
1.1601 0.069499 10.907 1 51 23
1.1601 0.069499 10.907 28 60 87
1.1601 0.069499 10.907 28 60 87
1.005 0.078071 10.937 55 30 0
-0.38761 0.16127 11.198 96 133 166
-0.39202 0.20812 11.204 15 34 11
-0.31807 0.21045 11.188 56 98 130
-0.31807 0.21045 11.188 56 98 130
-0.31807 0.21045 11.188 129 27 3
-0.44988 0.21513 11.211 33 7 1
-0.091186 0.22749 11.154 12 55 16
0.28468 0.22515 11.104 47 0 0
0.1078 0.85668 11.147 69 60 5
-1.0716 0.88399 11.185 9 24 6
0.31391 0.88055 11.133 22 2 0
0.29452 0.91464 11.144 6 11 41
-1.034 -0.713 10.58 36 69 88
1.3877 -0.56774 10.293 13 10 34
1.3265 -0.45854 10.325 2 2 58
1.3265 -0.45842 10.323 12 9 71
1.3729 -0.46015 10.315 17 7 1
1.3729 -0.46015 10.315 7 0 0
-0.83531 -0.43771 10.537 15 38 54
0.28791 -0.43206 10.411 5 0 0
0.74911 -0.41795 10.245 31 0 1
0.74911 -0.41795 10.245 2 0 4
-0.51608 -0.39523 10.563 88 124 143
1.1716 -0.18995 10.891 3 0 7
-0.92618 -0.14186 10.527 7 66 1
1.2425 -0.11321 10.889 31 62 89
1.3874 -0.1095 10.87 19 16 4
1.3866 -0.10938 10.864 19 100 112
1.3274 -0.00023567 10.876 3 113 9
1.0336 0.046046 10.935 4 7 36
1.4207 0.072078 10.863 40 69 10
1.4508 0.079151 10.854 26 19 76
0.7936 0.15984 10.951 3 43 7
1.4481 0.15605 10.89 9 2 11
-0.20135 0.18636 11.175 31 36 5
0.32284 0.19289 11.097 19 1 6
0.32284 0.19289 11.097 66 131 32
-0.36489 0.22926 11.196 8 112 40
-0.36489 0.22926 11.196 11 3 1
0.34228 0.22492 11.095 1 0 27
0.5732 0.83505 11.122 26 159 58
-0.19216 0.85998 11.17 33 20 86
-0.11482 0.89518 11.178 123 111 9
-0.99441 -0.44926 10.569 20 130 13
-0.96699 -0.28384 10.541 33 59 80
-1.1351 0.17934 10.831 5 6 116
1.9284 0.22809 10.919 7 125 17
1.9284 0.22809 10.919 21 47 11
1.4296 -0.55573 10.26 2 26 36
1.391 -0.52247 10.276 1 0 76
-1.1584 -0.40852 10.584 13 16 2
1.9334 0.058129 10.892 10 15 16
-0.011546 0.33027 11.259 11 24 11
2.0109 -0.6881 10.569 14 0 1
2.1019 -0.61824 10.679 0 2 9
1.4891 -0.50887 10.204 88 0 0
2.1073 -0.62587 10.671 7 25 126
-0.20328 0.071511 11.295 3 34 58
-0.49922 1.098 11.382 80 9 0
-1.1021 0.28388 10.813 65 12 1
1.1628 0.78777 11.177 16 4 1
1.1628 0.78777 11.177 9 66 43
-1.1053 -0.10893 10.624 16 17 17
-1.2278 0.078153 10.616 1 1 12
1.8514 0.18495 10.958 14 46 14
1.8514 0.18495 10.958 57 1 1
1.4193 0.5158 11.071 12 106 26
-0.33685 0.5433 11.35 19 9 9
-0.23444 0.90357 11.363 23 2 25
0.462 0.88574 11.222 13 13 9
0 0 0 1 0 0 0 1 0 0 0 1 0 0 0 0 0 88 1 0 0
