ply
format ascii 1.0
comment PCL generated
element vertex 171
property float x
property float y
property float z
property uchar red
property uchar green
property uchar blue
element camera 1
property float view_px
property float view_py
property float view_pz
property float x_axisx
property float x_axisy
property float x_axisz
property float y_axisx
property float y_axisy
property float y_axisz
property float z_axisx
property float z_axisy
property float z_axisz
property float focal
property float scalex
property float scaley
property float centerx
property float centery
property int viewportx
property int viewporty
property float k1
property float k2
end_header
0.64434 -0.49319 11.632 18 42 82
0.61487 -0.44463 11.636 65 16 62
0.73948 -0.41189 11.531 50 87 57
0.86091 -0.39167 11.311 13 1 3
0.89429 -1.0175 12.398 1 71 118
-0.49526 -1.0226 12.886 46 22 4
1.092 -0.71951 11.897 16 2 1
0.67162 -0.58704 11.728 55 109 140
1.4334 -0.55707 11.419 9 82 1
0.33938 -0.53634 11.722 8 1 0
0.2152 -0.51423 11.722 137 193 231
-0.13162 -0.49209 11.751 9 16 43
0.20838 -0.48063 11.709 135 195 240
1.4072 -0.44843 11.233 54 66 3
0.21085 -0.45347 11.703 4 25 116
0.59738 -0.42122 11.639 1 1 37
0.59738 -0.42122 11.639 39 94 133
1.3921 -0.38747 11.097 85 11 2
1.9176 -0.38809 11.459 5 135 36
1.8925 -0.31242 11.271 69 95 116
1.901 -0.27165 11.285 2 19 10
1.3492 -0.23565 10.774 3 0 0
0.58515 -0.12667 10.793 4 31 4
1.4761 -0.10155 9.9947 137 189 213
0.70255 -0.067792 10.58 1 16 22
-0.44732 -0.055377 10.847 27 0 0
0.44592 -0.014094 10.72 11 0 1
0.56525 -0.0031657 10.694 9 47 20
1.2755 0.02823 10.442 46 94 6
0.66953 0.035145 10.609 11 1 20
1.2936 0.060073 10.395 17 122 2
1.2853 0.083724 10.507 63 30 8
1.2319 0.15551 10.755 74 25 0
1.4968 0.17432 10.24 65 1 0
1.4968 0.17432 10.24 115 147 174
1.3231 0.20619 10.583 110 147 178
1.3278 0.24397 10.613 1 58 11
1.3162 0.2578 10.724 2 0 43
1.1803 0.26178 10.789 129 193 230
1.348 0.37908 10.799 24 3 5
-1.058 0.37277 10.651 9 56 1
0.71039 0.42289 11.052 1 0 0
0.97606 0.42923 11.032 75 30 8
0.97606 0.42923 11.032 2 22 32
1.3562 0.46096 10.9 7 13 11
1.2717 0.46831 10.998 28 3 1
1.3626 0.50051 10.966 54 46 9
1.2775 0.51156 11.043 1 1 23
1.6972 0.56418 10.978 17 5 5
1.564 0.62851 11.101 36 83 115
0.43736 -1.1699 12.947 48 80 18
0.29865 -1.1184 12.893 8 7 39
0.079015 -0.98458 12.758 79 142 184
-0.47378 -0.98597 12.872 19 0 0
0.9245 -0.93199 12.458 108 159 185
1.3866 -0.69915 11.805 40 3 1
1.4065 -0.66635 11.708 26 32 0
1.4247 -0.60793 11.588 12 4 24
0.89702 -0.6054 11.719 27 25 24
-1.1637 -0.52762 10.841 3 40 77
0.46011 -0.56271 11.734 6 42 19
0.46011 -0.56271 11.734 30 12 32
-0.37993 -0.55058 11.816 13 91 6
0.49695 -0.5335 11.692 58 119 159
0.65858 -0.52076 11.649 8 45 8
-0.39799 -0.51746 11.79 6 0 2
-0.12031 -0.51549 11.747 21 141 26
-0.44388 -0.51636 11.801 23 12 9
0.12263 -0.50811 11.697 152 225 255
1.548 -0.40606 11.044 2 8 51
1.4507 -0.32106 10.363 1 127 62
1.3583 -0.32375 11.072 6 3 78
1.3654 -0.29499 10.902 84 121 144
0.37887 -0.11658 8.1023 21 26 19
1.3586 -0.10168 10.213 12 1 0
0.17012 -0.058419 10.76 7 1 0
0.55079 -0.02894 10.692 58 14 0
1.2277 -0.0032476 10.409 18 29 35
-0.20589 0.068531 6.1173 127 184 215
1.5564 0.21241 10.036 27 2 6
1.255 0.24087 10.765 16 41 7
1.6086 0.28428 10.749 24 70 97
1.3461 0.32902 10.765 6 135 4
1.6354 0.32123 10.163 20 32 41
1.9165 0.37179 10.642 7 13 2
1.0457 0.40616 10.931 2 15 29
1.3383 0.40892 10.946 69 118 158
1.6695 0.41775 10.521 4 0 9
1.6695 0.41775 10.521 128 8 2
1.1958 0.45108 10.981 135 199 241
1.2371 0.45049 10.981 16 134 28
1.6347 0.5565 10.994 13 36 40
1.2125 0.63184 11.16 4 7 16
-0.71529 -1.4538 13.239 13 3 18
0.84615 -1.1856 12.819 33 27 5
0.29884 -1.1211 12.91 4 2 19
-1.1401 -0.84569 11.642 5 6 34
0.56929 -0.62123 11.836 2 18 31
0.53846 -0.49554 11.649 29 121 0
0.18261 -0.33291 8.894 20 4 14
1.3063 -0.4733 11.389 5 3 0
0.82633 -0.040925 10.571 38 11 5
-0.17868 -0.033033 10.799 2 126 87
0.65127 -0.0034507 10.619 192 254 255
0.60221 0.055873 10.782 1 39 126
0.46582 0.11627 13.859 7 0 0
1.2957 0.34223 10.855 3 34 31
0.76309 0.38927 11.009 2 1 8
1.2984 0.39343 10.909 15 118 62
1.3021 0.45436 10.951 13 10 2
1.314 0.5771 11.103 92 27 5
1.5967 0.6356 11.083 10 12 13
-0.88552 -1.492 13.163 2 2 8
0.93296 -1.3207 12.879 4 5 7
-0.57828 -1.2759 13.2 51 88 10
0.65212 -1.1675 12.972 20 10 20
-0.17047 -1.18 13.132 1 6 17
-2.0692 4.2318 -60.383 3 21 3
0.29731 -0.73755 11.736 91 124 142
1.1421 -0.63756 11.701 106 161 185
1.4741 -0.54848 11.179 13 14 8
1.4741 -0.54848 11.179 49 39 5
-1.158 -0.38881 10.506 3 16 66
1.8978 -0.0063194 10.783 36 132 68
0.4778 0.32997 11.276 1 16 6
0.71503 0.38492 11.03 59 14 17
1.1015 0.4179 10.985 23 129 16
1.1696 0.41832 10.979 49 82 118
1.4032 0.41576 10.592 123 176 209
-0.27653 0.48061 11.44 1 0 1
0.092655 0.19922 4.7663 19 60 27
-0.075668 0.4849 11.026 3 6 55
0.37159 0.34125 7.383 6 13 19
1.279 0.60891 11.14 3 11 12
1.279 0.60891 11.14 2 6 16
1.6355 0.62154 11.01 12 0 4
1.6994 0.62186 11.003 1 1 14
0.9115 0.65474 11.354 5 0 1
1.5533 0.68511 11.094 27 0 4
-0.8179 -1.4922 13.292 30 7 8
1.7808 -0.68423 11.532 91 124 142
1.808 -0.60811 11.481 92 126 143
-1.1465 -0.57258 10.922 29 0 0
0.28013 -0.50563 11.706 58 150 32
1.8607 -0.12826 10.948 12 0 0
1.427 -0.049729 9.9694 12 0 5
1.427 -0.049729 9.9694 20 79 71
1.0073 0.13961 10.628 59 94 129
1.3842 0.32828 10.415 132 184 216
1.1242 0.60438 11.155 1 0 0
-0.7859 0.68856 11.399 36 16 3
-0.7859 0.68856 11.399 161 216 251
-0.8603 0.74954 11.348 13 2 0
-0.8603 0.74954 11.348 32 3 0
-1.0332 0.79719 11.077 14 2 0
-0.7418 -1.3744 13.16 106 157 178
1.391 -0.90252 12.237 17 4 8
1.7674 -0.83736 11.551 21 3 0
1.4764 -0.0069133 9.9162 14 63 100
1.9333 0.42872 10.596 1 0 0
-0.65756 0.60484 11.498 60 99 25
-0.20948 -1.1408 13.122 86 84 6
-0.016989 -1.1417 13.084 7 19 44
0.81354 0.67978 11.204 0 6 13
-1.1148 -0.18812 10.091 45 129 2
0.73139 -1.2918 12.989 61 119 29
0.60205 0.63677 11.403 7 123 123
1.4187 -1.1665 12.318 0 0 1
-0.73511 -0.12942 10.979 5 10 6
-0.73511 -0.12942 10.979 4 0 0
1.1293 0.026997 10.904 8 5 1
0 0 0 1 0 0 0 1 0 0 0 1 0 0 0 0 0 171 1 0 0
