ply
format ascii 1.0
comment PCL generated
element vertex 171
property float x
property float y
property float z
property uchar red
property uchar green
property uchar blue
element camera 1
property float view_px
property float view_py
property float view_pz
property float x_axisx
property float x_axisy
property float x_axisz
property float y_axisx
property float y_axisy
property float y_axisz
property float z_axisx
property float z_axisy
property float z_axisz
property float focal
property float scalex
property float scaley
property float centerx
property float centery
property int viewportx
property int viewporty
property float k1
property float k2
end_header
0.64434 -0.49319 11.632 9 1 5
0.61487 -0.44463 11.636 3 2 73
0.73948 -0.41189 11.531 2 102 84
0.86091 -0.39167 11.311 70 50 31
0.89429 -1.0175 12.398 18 71 21
-0.49526 -1.0226 12.886 124 20 16
1.092 -0.71951 11.897 14 57 67
0.67162 -0.58704 11.728 140 109 55
1.4334 -0.55707 11.419 18 124 31
0.33938 -0.53634 11.722 23 9 47
0.2152 -0.51423 11.722 28 29 6
-0.13162 -0.49209 11.751 82 32 5
0.20838 -0.48063 11.709 16 3 5
1.4072 -0.44843 11.233 4 7 31
0.21085 -0.45347 11.703 193 149 82
0.59738 -0.42122 11.639 59 24 6
0.59738 -0.42122 11.639 8 92 104
1.3921 -0.38747 11.097 5 10 2
1.9176 -0.38809 11.459 1 0 2
1.8925 -0.31242 11.271 51 17 0
1.901 -0.27165 11.285 21 39 8
1.3492 -0.23565 10.774 32 4 23
0.58515 -0.12667 10.793 11 38 95
1.4761 -0.10155 9.9947 10 42 36
0.70255 -0.067792 10.58 1 177 10
-0.44732 -0.055377 10.847 255 222 161
0.44592 -0.014094 10.72 180 132 73
0.56525 -0.0031657 10.694 168 132 72
1.2755 0.02823 10.442 147 116 68
0.66953 0.035145 10.609 14 7 18
1.2936 0.060073 10.395 170 141 102
1.2853 0.083724 10.507 24 6 7
1.2319 0.15551 10.755 68 67 0
1.4968 0.17432 10.24 12 3 5
1.4968 0.17432 10.24 6 110 5
1.3231 0.20619 10.583 9 31 122
1.3278 0.24397 10.613 28 82 1
1.3162 0.2578 10.724 128 12 0
1.1803 0.26178 10.789 32 43 4
1.348 0.37908 10.799 6 29 24
-1.058 0.37277 10.651 5 147 0
0.71039 0.42289 11.052 4 0 0
0.97606 0.42923 11.032 3 10 6
0.97606 0.42923 11.032 146 108 59
1.3562 0.46096 10.9 1 17 30
1.2717 0.46831 10.998 130 91 42
1.3626 0.50051 10.966 36 50 14
1.2775 0.51156 11.043 5 5 2
1.6972 0.56418 10.978 39 6 4
1.564 0.62851 11.101 113 72 27
0.43736 -1.1699 12.947 11 4 6
0.29865 -1.1184 12.893 7 1 1
0.079015 -0.98458 12.758 58 61 2
-0.47378 -0.98597 12.872 21 14 30
0.9245 -0.93199 12.458 19 6 0
1.3866 -0.69915 11.805 1 2 132
1.4065 -0.66635 11.708 4 59 2
1.4247 -0.60793 11.588 1 0 13
0.89702 -0.6054 11.719 1 4 4
-1.1637 -0.52762 10.841 43 17 5
0.46011 -0.56271 11.734 1 12 26
0.46011 -0.56271 11.734 254 230 168
-0.37993 -0.55058 11.816 81 123 0
0.49695 -0.5335 11.692 37 52 68
0.65858 -0.52076 11.649 86 16 0
-0.39799 -0.51746 11.79 66 3 8
-0.12031 -0.51549 11.747 14 6 1
-0.44388 -0.51636 11.801 15 0 0
0.12263 -0.50811 11.697 17 48 2
1.548 -0.40606 11.044 7 2 22
1.4507 -0.32106 10.363 8 80 5
1.3583 -0.32375 11.072 1 1 9
1.3654 -0.29499 10.902 23 116 46
0.37887 -0.11658 8.1023 205 170 109
1.3586 -0.10168 10.213 75 0 0
0.17012 -0.058419 10.76 17 24 46
0.55079 -0.02894 10.692 26 16 0
1.2277 -0.0032476 10.409 176 138 86
-0.20589 0.068531 6.1173 215 184 127
1.5564 0.21241 10.036 1 0 0
1.255 0.24087 10.765 115 21 5
1.6086 0.28428 10.749 18 0 1
1.3461 0.32902 10.765 106 18 0
1.6354 0.32123 10.163 20 67 54
1.9165 0.37179 10.642 9 135 2
1.0457 0.40616 10.931 237 200 148
1.3383 0.40892 10.946 5 1 1
1.6695 0.41775 10.521 4 0 1
1.6695 0.41775 10.521 3 125 23
1.1958 0.45108 10.981 4 0 3
1.2371 0.45049 10.981 6 23 4
1.6347 0.5565 10.994 60 4 1
1.2125 0.63184 11.16 59 27 1
-0.71529 -1.4538 13.239 1 1 33
0.84615 -1.1856 12.819 4 5 15
0.29884 -1.1211 12.91 16 0 2
-1.1401 -0.84569 11.642 27 33 6
0.56929 -0.62123 11.836 2 17 25
0.53846 -0.49554 11.649 8 121 2
0.18261 -0.33291 8.894 2 1 1
1.3063 -0.4733 11.389 3 66 17
0.82633 -0.040925 10.571 22 24 19
-0.17868 -0.033033 10.799 34 29 10
0.65127 -0.0034507 10.619 255 254 192
0.60221 0.055873 10.782 1 140 4
0.46582 0.11627 13.859 25 10 6
1.2957 0.34223 10.855 24 0 0
0.76309 0.38927 11.009 8 3 2
1.2984 0.39343 10.909 35 0 0
1.3021 0.45436 10.951 71 17 11
1.314 0.5771 11.103 114 91 15
1.5967 0.6356 11.083 118 81 10
-0.88552 -1.492 13.163 19 14 24
0.93296 -1.3207 12.879 16 4 0
-0.57828 -1.2759 13.2 50 44 1
0.65212 -1.1675 12.972 9 75 116
-0.17047 -1.18 13.132 4 42 75
-2.0692 4.2318 -60.383 24 99 87
0.29731 -0.73755 11.736 4 1 1
1.1421 -0.63756 11.701 86 41 1
1.4741 -0.54848 11.179 22 126 12
1.4741 -0.54848 11.179 37 119 11
-1.158 -0.38881 10.506 241 207 146
1.8978 -0.0063194 10.783 3 0 0
0.4778 0.32997 11.276 12 11 12
0.71503 0.38492 11.03 55 120 13
1.1015 0.4179 10.985 56 52 16
1.1696 0.41832 10.979 11 27 9
1.4032 0.41576 10.592 61 3 2
-0.27653 0.48061 11.44 218 172 108
0.092655 0.19922 4.7663 27 6 5
-0.075668 0.4849 11.026 19 13 7
0.37159 0.34125 7.383 11 43 5
1.279 0.60891 11.14 57 18 17
1.279 0.60891 11.14 10 124 10
1.6355 0.62154 11.01 131 0 0
1.6994 0.62186 11.003 6 1 0
0.9115 0.65474 11.354 78 130 15
1.5533 0.68511 11.094 1 0 1
-0.8179 -1.4922 13.292 7 3 33
1.7808 -0.68423 11.532 2 2 1
1.808 -0.60811 11.481 129 57 8
-1.1465 -0.57258 10.922 215 184 127
0.28013 -0.50563 11.706 3 10 17
1.8607 -0.12826 10.948 121 9 1
1.427 -0.049729 9.9694 11 16 25
1.427 -0.049729 9.9694 18 22 33
1.0073 0.13961 10.628 23 1 0
1.3842 0.32828 10.415 19 8 1
1.1242 0.60438 11.155 19 9 0
-0.7859 0.68856 11.399 251 216 161
-0.7859 0.68856 11.399 10 0 0
-0.8603 0.74954 11.348 31 21 15
-0.8603 0.74954 11.348 82 126 36
-1.0332 0.79719 11.077 240 205 150
-0.7418 -1.3744 13.16 2 1 2
1.391 -0.90252 12.237 2 0 2
1.7674 -0.83736 11.551 12 0 0
1.4764 -0.0069133 9.9162 239 210 146
1.9333 0.42872 10.596 154 7 0
-0.65756 0.60484 11.498 24 33 18
-0.20948 -1.1408 13.122 4 3 1
-0.016989 -1.1417 13.084 212 178 105
0.81354 0.67978 11.204 41 11 26
-1.1148 -0.18812 10.091 51 5 14
0.73139 -1.2918 12.989 10 7 36
0.60205 0.63677 11.403 1 2 26
1.4187 -1.1665 12.318 58 0 0
-0.73511 -0.12942 10.979 255 226 155
-0.73511 -0.12942 10.979 3 2 96
1.1293 0.026997 10.904 63 41 8
0 0 0 1 0 0 0 1 0 0 0 1 0 0 0 0 0 171 1 0 0
