ply
format ascii 1.0
comment PCL generated
element vertex 171
property float x
property float y
property float z
property uchar red
property uchar green
property uchar blue
element camera 1
property float view_px
property float view_py
property float view_pz
property float x_axisx
property float x_axisy
property float x_axisz
property float y_axisx
property float y_axisy
property float y_axisz
property float z_axisx
property float z_axisy
property float z_axisz
property float focal
property float scalex
property float scaley
property float centerx
property float centery
property int viewportx
property int viewporty
property float k1
property float k2
end_header
0.61243 -0.40689 10.293 18 42 82
0.58813 -0.36622 10.306 65 16 62
0.69599 -0.34206 10.251 50 87 57
0.80379 -0.33102 10.122 13 1 3
0.79846 -0.8074 10.6 1 71 118
-0.33491 -0.79085 10.886 46 22 4
0.97825 -0.58531 10.378 16 2 1
0.63243 -0.4816 10.324 55 109 140
1.2653 -0.46339 9.9906 9 82 1
0.3529 -0.43891 10.332 8 1 0
0.24883 -0.42076 10.346 137 193 231
-0.044534 -0.4005 10.368 9 16 43
0.24295 -0.39314 10.344 135 195 240
1.2694 -0.38121 10.039 54 66 3
0.24587 -0.3708 10.348 4 25 116
0.57354 -0.34646 10.31 1 1 37
0.57354 -0.34646 10.31 39 94 133
1.2645 -0.33418 9.9846 85 11 2
2.0913 -0.33314 12.517 5 135 36
1.6864 -0.26672 10.083 69 95 116
1.6939 -0.23169 10.092 2 19 10
1.2427 -0.21276 9.8261 3 0 0
0.57928 -0.11669 9.8824 4 31 4
1.3878 -0.11382 9.3745 137 189 213
0.68699 -0.070122 9.7629 1 16 22
-0.32583 -0.050713 9.9491 27 0 0
0.45902 -0.019836 9.8659 11 0 1
0.56482 -0.011065 9.8485 9 47 20
1.197 0.010147 9.6785 46 94 6
0.65893 0.02069 9.8019 11 1 20
1.2162 0.037292 9.6603 17 122 2
1.2053 0.060049 9.7299 63 30 8
1.1512 0.12708 9.8897 74 25 0
1.4066 0.13569 9.5874 65 1 0
1.4052 0.13567 9.5774 115 147 174
1.2397 0.16909 9.7993 110 147 178
1.2437 0.20283 9.823 1 58 11
1.2299 0.21636 9.8913 2 0 43
1.1081 0.22103 9.9341 129 193 230
1.2581 0.32398 9.954 24 3 5
-0.87661 0.32636 9.9357 9 56 1
0.69238 0.36669 10.127 1 0 0
0.92608 0.37131 10.115 75 30 8
0.92638 0.37136 10.117 2 22 32
1.2638 0.39697 10.027 7 13 11
1.1861 0.40425 10.086 28 3 1
1.2663 0.43195 10.063 54 46 9
1.1906 0.44258 10.12 1 1 23
1.562 0.48725 10.08 17 5 5
1.4405 0.54435 10.154 36 83 115
0.41792 -0.90518 10.869 48 80 18
0.30708 -0.86704 10.855 8 7 39
0.13035 -0.76704 10.82 79 142 184
-0.31782 -0.76249 10.885 19 0 0
0.82286 -0.7359 10.635 108 159 185
1.2266 -0.57186 10.321 40 3 1
1.2484 -0.54883 10.281 26 32 0
1.2674 -0.50347 10.209 12 4 24
0.82171 -0.4973 10.308 27 25 24
-0.94465 -0.45433 9.8461 3 40 77
0.4544 -0.46097 10.337 6 42 19
0.4544 -0.46097 10.337 30 12 32
-0.25375 -0.44656 10.399 13 91 6
0.48667 -0.43808 10.318 58 119 159
0.62367 -0.42912 10.293 8 45 8
-0.26949 -0.41996 10.393 6 0 2
-0.035397 -0.4204 10.368 21 141 26
-0.30839 -0.41861 10.401 23 12 9
0.17075 -0.4163 10.336 152 225 255
1.3984 -0.35123 9.939 2 8 51
1.3444 -0.29733 9.5612 1 127 62
1.2391 -0.28109 9.993 6 3 78
1.2497 -0.2601 9.8786 84 121 144
0.40773 -0.16911 8.1373 21 26 19
1.2747 -0.10892 9.5109 12 1 0
0.21664 -0.056985 9.8874 7 1 0
0.55198 -0.033578 9.8418 58 14 0
1.1562 -0.018108 9.6563 18 29 35
0.26059 -0.063771 7.0638 127 184 215
1.4682 0.16676 9.4572 27 2 6
1.1735 0.20213 9.9146 16 41 7
1.4149 0.21449 9.4641 24 70 97
1.2566 0.27952 9.9272 6 135 4
1.5369 0.26571 9.5521 20 32 41
1.7635 0.31424 9.8364 7 13 2
0.98894 0.35007 10.05 2 15 29
1.1413 0.29255 9.1791 69 118 158
1.5539 0.35504 9.7842 4 0 9
1.5533 0.35492 9.7805 128 8 2
1.1203 0.38939 10.08 135 199 241
1.1564 0.38875 10.08 16 134 28
1.5056 0.48055 10.084 13 36 40
1.1357 0.54992 10.227 4 7 16
-0.50323 -1.11 10.978 13 3 18
0.74943 -0.92667 10.83 33 27 5
0.30711 -0.86854 10.864 4 2 19
-0.8944 -0.69283 10.243 5 6 34
0.5443 -0.5061 10.377 2 18 31
0.52255 -0.408 10.302 29 121 0
1.5703 -0.57196 10.175 20 4 14
1.179 -0.39784 10.134 5 3 0
0.7965 -0.047129 9.7601 38 11 5
-0.090665 -0.033084 9.9248 2 126 87
0.6418 -0.012956 9.8018 192 254 255
0.59717 0.041975 9.913 1 39 126
0.30555 0.18315 11.066 7 0 0
1.2097 0.29225 9.9886 3 34 31
0.73922 0.3368 10.103 2 1 8
1.2111 0.33769 10.023 15 118 62
1.214 0.39165 10.057 13 10 2
1.2216 0.50024 10.16 92 27 5
1.4714 0.55079 10.152 10 12 13
-0.63969 -1.1423 10.933 2 2 8
0.81561 -1.0253 10.789 4 5 7
-0.39676 -0.97602 11.002 51 88 10
0.59023 -0.90246 10.879 20 10 20
-0.070566 -0.90502 10.978 1 6 17
0.54396 -0.90737 16.285 3 21 3
-0.97126 -0.6394 10.758 91 124 142
1.026 -0.52429 10.279 106 161 185
1.3278 -0.46807 10.006 13 14 8
1.3278 -0.46807 10.006 49 39 5
-0.95186 -0.34521 9.6711 3 16 66
1.7255 -0.015215 9.8509 36 132 68
0.37387 0.12996 7.6206 1 16 6
0.69661 0.33333 10.117 59 14 17
1.0361 0.36045 10.076 23 129 16
1.0966 0.3606 10.074 49 82 118
1.3157 0.35479 9.8383 123 176 209
-0.12496 0.30082 8.7171 1 0 1
-0.0032556 0.069408 5.5497 19 60 27
0.14272 0.20869 7.3744 3 6 55
0.43277 0.25849 7.7339 6 13 19
1.1912 0.52831 10.183 3 11 12
1.1912 0.52831 10.183 2 6 16
1.5117 0.53885 10.123 12 0 4
1.5642 0.53812 10.1 1 1 14
0.86612 0.571 10.34 5 0 1
1.4352 0.59486 10.171 27 0 4
-0.58259 -1.1358 10.992 30 7 8
1.5661 -0.56865 10.154 91 124 142
1.5938 -0.50744 10.14 92 126 143
-0.92488 -0.48946 9.8763 29 0 0
0.30353 -0.41427 10.339 58 150 32
1.6802 -0.11698 9.9188 12 0 0
1.3463 -0.068215 9.3683 12 0 5
1.3463 -0.068215 9.3683 20 79 71
0.95822 0.1119 9.8246 59 94 129
1.3065 0.27564 9.736 132 184 216
1.056 0.52556 10.211 1 0 0
-0.61954 0.60832 10.419 36 16 3
-0.36462 0.28096 6.8467 161 216 251
-0.68695 0.66315 10.411 13 2 0
-0.68695 0.66315 10.411 32 3 0
-0.84655 0.707 10.261 14 2 0
-0.52747 -1.0535 10.963 106 157 178
1.2111 -0.72151 10.518 17 4 8
1.548 -0.6927 10.124 21 3 0
1.3958 -0.031449 9.3519 14 63 100
1.7818 0.36444 9.8258 1 0 0
-0.5052 0.53495 10.479 60 99 25
-0.10187 -0.87484 10.981 86 84 6
0.052501 -0.87753 10.96 7 19 44
0.78271 0.59409 10.281 0 4 9
-0.94066 -0.18073 9.4938 45 129 2
0.64818 -0.99499 10.83 61 119 29
0.60635 0.55575 10.427 7 123 123
2.7445 -1.7554 23.428 0 2 9
-0.58677 -0.10975 10.132 5 10 6
-0.58677 -0.10975 10.132 4 0 0
1.048 0.017605 9.9622 8 5 1
0 0 0 1 0 0 0 1 0 0 0 1 0 0 0 0 0 171 1 0 0
