ply
format ascii 1.0
comment PCL generated
element vertex 171
property float x
property float y
property float z
property uchar red
property uchar green
property uchar blue
element camera 1
property float view_px
property float view_py
property float view_pz
property float x_axisx
property float x_axisy
property float x_axisz
property float y_axisx
property float y_axisy
property float y_axisz
property float z_axisx
property float z_axisy
property float z_axisz
property float focal
property float scalex
property float scaley
property float centerx
property float centery
property int viewportx
property int viewporty
property float k1
property float k2
end_header
0.61243 -0.40689 10.293 19 12 1
0.58813 -0.36622 10.306 1 0 5
0.69599 -0.34206 10.251 3 92 62
0.80379 -0.33102 10.122 9 11 6
0.79846 -0.8074 10.6 3 128 13
-0.33491 -0.79085 10.886 143 101 40
0.97825 -0.58531 10.378 4 7 3
0.63243 -0.4816 10.324 1 36 74
1.2653 -0.46339 9.9906 114 92 62
0.3529 -0.43891 10.332 86 15 9
0.24883 -0.42076 10.346 3 18 30
-0.044534 -0.4005 10.368 13 7 8
0.24295 -0.39314 10.344 2 29 15
1.2694 -0.38121 10.039 54 99 87
0.24587 -0.3708 10.348 1 8 10
0.57354 -0.34646 10.31 125 34 2
0.57354 -0.34646 10.31 85 29 4
1.2645 -0.33418 9.9846 9 1 1
2.0913 -0.33314 12.517 7 6 11
1.6864 -0.26672 10.083 22 22 19
1.6939 -0.23169 10.092 7 121 51
1.2427 -0.21276 9.8261 149 124 90
0.57928 -0.11669 9.8824 78 61 1
1.3878 -0.11382 9.3745 76 41 3
0.68699 -0.070122 9.7629 5 119 45
-0.32583 -0.050713 9.9491 4 1 12
0.45902 -0.019836 9.8659 6 57 18
0.56482 -0.011065 9.8485 66 2 0
1.197 0.010147 9.6785 70 84 5
0.65893 0.02069 9.8019 215 179 118
1.2162 0.037292 9.6603 37 28 5
1.2053 0.060049 9.7299 7 1 6
1.1512 0.12708 9.8897 4 73 17
1.4066 0.13569 9.5874 174 147 115
1.4052 0.13567 9.5774 174 147 115
1.2397 0.16909 9.7993 33 62 134
1.2437 0.20283 9.823 31 132 19
1.2299 0.21636 9.8913 134 101 55
1.1081 0.22103 9.9341 2 9 0
1.2581 0.32398 9.954 192 158 118
-0.87661 0.32636 9.9357 6 117 14
0.69238 0.36669 10.127 49 59 46
0.92608 0.37131 10.115 57 22 6
0.92638 0.37136 10.117 5 0 0
1.2638 0.39697 10.027 13 14 26
1.1861 0.40425 10.086 130 91 42
1.2663 0.43195 10.063 168 132 92
1.1906 0.44258 10.12 15 16 12
1.562 0.48725 10.08 114 83 40
1.4405 0.54435 10.154 1 0 0
0.41792 -0.90518 10.869 5 29 5
0.30708 -0.86704 10.855 16 0 0
0.13035 -0.76704 10.82 45 70 2
-0.31782 -0.76249 10.885 2 78 80
0.82286 -0.7359 10.635 185 159 108
1.2266 -0.57186 10.321 73 0 1
1.2484 -0.54883 10.281 158 132 86
1.2674 -0.50347 10.209 11 2 4
0.82171 -0.4973 10.308 1 1 0
-0.94465 -0.45433 9.8461 2 1 93
0.4544 -0.46097 10.337 49 5 4
0.4544 -0.46097 10.337 3 1 9
-0.25375 -0.44656 10.399 8 77 11
0.48667 -0.43808 10.318 30 2 1
0.62367 -0.42912 10.293 41 49 24
-0.26949 -0.41996 10.393 95 3 11
-0.035397 -0.4204 10.368 3 24 10
-0.30839 -0.41861 10.401 147 105 40
0.17075 -0.4163 10.336 76 86 11
1.3984 -0.35123 9.939 13 15 25
1.3444 -0.29733 9.5612 4 3 2
1.2391 -0.28109 9.993 23 3 20
1.2497 -0.2601 9.8786 11 151 9
0.40773 -0.16911 8.1373 30 4 13
1.2747 -0.10892 9.5109 1 20 9
0.21664 -0.056985 9.8874 19 13 40
0.55198 -0.033578 9.8418 33 13 14
1.1562 -0.018108 9.6563 176 138 86
0.26059 -0.063771 7.0638 11 35 1
1.4682 0.16676 9.4572 70 39 28
1.1735 0.20213 9.9146 20 125 6
1.4149 0.21449 9.4641 3 2 8
1.2566 0.27952 9.9272 176 142 105
1.5369 0.26571 9.5521 6 5 6
1.7635 0.31424 9.8364 25 131 8
0.98894 0.35007 10.05 7 3 8
1.1413 0.29255 9.1791 12 18 26
1.5539 0.35504 9.7842 159 133 98
1.5533 0.35492 9.7805 16 10 6
1.1203 0.38939 10.08 8 2 7
1.1564 0.38875 10.08 7 1 0
1.5056 0.48055 10.084 128 34 2
1.1357 0.54992 10.227 15 11 2
-0.50323 -1.11 10.978 10 0 1
0.74943 -0.92667 10.83 14 110 49
0.30711 -0.86854 10.864 11 3 21
-0.8944 -0.69283 10.243 4 104 27
0.5443 -0.5061 10.377 47 28 4
0.52255 -0.408 10.302 2 6 9
1.5703 -0.57196 10.175 25 1 12
1.179 -0.39784 10.134 62 70 31
0.7965 -0.047129 9.7601 255 255 189
-0.090665 -0.033084 9.9248 6 9 3
0.6418 -0.012956 9.8018 3 1 12
0.59717 0.041975 9.913 1 139 8
0.30555 0.18315 11.066 31 103 79
1.2097 0.29225 9.9886 13 19 22
0.73922 0.3368 10.103 23 8 16
1.2111 0.33769 10.023 23 3 47
1.214 0.39165 10.057 10 0 1
1.2216 0.50024 10.16 4 35 122
1.4714 0.55079 10.152 10 30 91
-0.63969 -1.1423 10.933 126 8 1
0.81561 -1.0253 10.789 3 0 0
-0.39676 -0.97602 11.002 5 18 37
0.59023 -0.90246 10.879 9 16 2
-0.070566 -0.90502 10.978 5 129 15
0.54396 -0.90737 16.285 2 1 11
-0.97126 -0.6394 10.758 142 124 91
1.026 -0.52429 10.279 48 68 21
1.3278 -0.46807 10.006 2 58 16
1.3278 -0.46807 10.006 17 9 6
-0.95186 -0.34521 9.6711 6 1 14
1.7255 -0.015215 9.8509 22 133 79
0.37387 0.12996 7.6206 14 57 6
0.69661 0.33333 10.117 59 135 28
1.0361 0.36045 10.076 125 89 55
1.0966 0.3606 10.074 35 2 4
1.3157 0.35479 9.8383 5 2 9
-0.12496 0.30082 8.7171 1 0 3
-0.0032556 0.069408 5.5497 1 15 45
0.14272 0.20869 7.3744 218 172 108
0.43277 0.25849 7.7339 15 26 74
1.1912 0.52831 10.183 5 6 9
1.1912 0.52831 10.183 3 2 2
1.5117 0.53885 10.123 3 73 76
1.5642 0.53812 10.1 11 49 4
0.86612 0.571 10.34 2 1 2
1.4352 0.59486 10.171 7 22 0
-0.58259 -1.1358 10.992 28 9 3
1.5661 -0.56865 10.154 8 34 65
1.5938 -0.50744 10.14 8 130 121
-0.92488 -0.48946 9.8763 84 25 6
0.30353 -0.41427 10.339 31 2 2
1.6802 -0.11698 9.9188 5 116 112
1.3463 -0.068215 9.3683 139 112 70
1.3463 -0.068215 9.3683 139 112 70
0.95822 0.1119 9.8246 6 5 1
1.3065 0.27564 9.736 32 121 23
1.056 0.52556 10.211 74 84 82
-0.61954 0.60832 10.419 121 31 10
-0.36462 0.28096 6.8467 251 216 161
-0.68695 0.66315 10.411 5 163 21
-0.68695 0.66315 10.411 31 21 15
-0.84655 0.707 10.261 240 205 150
-0.52747 -1.0535 10.963 29 17 0
1.2111 -0.72151 10.518 144 8 16
1.548 -0.6927 10.124 1 101 87
1.3958 -0.031449 9.3519 239 210 146
1.7818 0.36444 9.8258 23 0 0
-0.5052 0.53495 10.479 2 19 5
-0.10187 -0.87484 10.981 221 187 116
0.052501 -0.87753 10.96 1 25 145
0.78271 0.59409 10.281 1 0 0
-0.94066 -0.18073 9.4938 1 47 30
0.64818 -0.99499 10.83 1 5 51
0.60635 0.55575 10.427 9 12 4
2.7445 -1.7554 23.428 1 4 74
-0.58677 -0.10975 10.132 255 226 155
-0.58677 -0.10975 10.132 255 226 155
1.048 0.017605 9.9622 90 112 81
0 0 0 1 0 0 0 1 0 0 0 1 0 0 0 0 0 171 1 0 0
