ply
format ascii 1.0
comment PCL generated
element vertex 171
property float x
property float y
property float z
property uchar red
property uchar green
property uchar blue
element camera 1
property float view_px
property float view_py
property float view_pz
property float x_axisx
property float x_axisy
property float x_axisz
property float y_axisx
property float y_axisy
property float y_axisz
property float z_axisx
property float z_axisy
property float z_axisz
property float focal
property float scalex
property float scaley
property float centerx
property float centery
property int viewportx
property int viewporty
property float k1
property float k2
end_header
0.61243 -0.40689 10.293 9 1 5
0.58813 -0.36622 10.306 3 2 73
0.69599 -0.34206 10.251 2 102 84
0.80379 -0.33102 10.122 70 50 31
0.79846 -0.8074 10.6 18 71 21
-0.33491 -0.79085 10.886 124 20 16
0.97825 -0.58531 10.378 14 57 67
0.63243 -0.4816 10.324 140 109 55
1.2653 -0.46339 9.9906 18 124 31
0.3529 -0.43891 10.332 23 9 47
0.24883 -0.42076 10.346 28 29 6
-0.044534 -0.4005 10.368 82 32 5
0.24295 -0.39314 10.344 16 3 5
1.2694 -0.38121 10.039 4 7 31
0.24587 -0.3708 10.348 193 149 82
0.57354 -0.34646 10.31 59 24 6
0.57354 -0.34646 10.31 8 92 104
1.2645 -0.33418 9.9846 5 10 2
2.0913 -0.33314 12.517 1 0 2
1.6864 -0.26672 10.083 51 17 0
1.6939 -0.23169 10.092 21 39 8
1.2427 -0.21276 9.8261 32 4 23
0.57928 -0.11669 9.8824 11 38 95
1.3878 -0.11382 9.3745 10 42 36
0.68699 -0.070122 9.7629 1 177 10
-0.32583 -0.050713 9.9491 255 222 161
0.45902 -0.019836 9.8659 180 132 73
0.56482 -0.011065 9.8485 168 132 72
1.197 0.010147 9.6785 147 116 68
0.65893 0.02069 9.8019 14 7 18
1.2162 0.037292 9.6603 170 141 102
1.2053 0.060049 9.7299 24 6 7
1.1512 0.12708 9.8897 68 67 0
1.4066 0.13569 9.5874 12 3 5
1.4052 0.13567 9.5774 6 110 5
1.2397 0.16909 9.7993 9 31 122
1.2437 0.20283 9.823 28 82 1
1.2299 0.21636 9.8913 128 12 0
1.1081 0.22103 9.9341 32 43 4
1.2581 0.32398 9.954 6 29 24
-0.87661 0.32636 9.9357 5 147 0
0.69238 0.36669 10.127 4 0 0
0.92608 0.37131 10.115 3 10 6
0.92638 0.37136 10.117 146 108 59
1.2638 0.39697 10.027 1 17 30
1.1861 0.40425 10.086 130 91 42
1.2663 0.43195 10.063 36 50 14
1.1906 0.44258 10.12 5 5 2
1.562 0.48725 10.08 39 6 4
1.4405 0.54435 10.154 113 72 27
0.41792 -0.90518 10.869 11 4 6
0.30708 -0.86704 10.855 7 1 1
0.13035 -0.76704 10.82 58 61 2
-0.31782 -0.76249 10.885 21 14 30
0.82286 -0.7359 10.635 19 6 0
1.2266 -0.57186 10.321 1 2 132
1.2484 -0.54883 10.281 4 59 2
1.2674 -0.50347 10.209 1 0 13
0.82171 -0.4973 10.308 1 4 4
-0.94465 -0.45433 9.8461 43 17 5
0.4544 -0.46097 10.337 1 12 26
0.4544 -0.46097 10.337 254 230 168
-0.25375 -0.44656 10.399 81 123 0
0.48667 -0.43808 10.318 37 52 68
0.62367 -0.42912 10.293 86 16 0
-0.26949 -0.41996 10.393 66 3 8
-0.035397 -0.4204 10.368 14 6 1
-0.30839 -0.41861 10.401 15 0 0
0.17075 -0.4163 10.336 17 48 2
1.3984 -0.35123 9.939 7 2 22
1.3444 -0.29733 9.5612 8 80 5
1.2391 -0.28109 9.993 1 1 9
1.2497 -0.2601 9.8786 23 116 46
0.40773 -0.16911 8.1373 205 170 109
1.2747 -0.10892 9.5109 75 0 0
0.21664 -0.056985 9.8874 17 24 46
0.55198 -0.033578 9.8418 26 16 0
1.1562 -0.018108 9.6563 176 138 86
0.26059 -0.063771 7.0638 215 184 127
1.4682 0.16676 9.4572 1 0 0
1.1735 0.20213 9.9146 115 21 5
1.4149 0.21449 9.4641 18 0 1
1.2566 0.27952 9.9272 106 18 0
1.5369 0.26571 9.5521 20 67 54
1.7635 0.31424 9.8364 9 135 2
0.98894 0.35007 10.05 237 200 148
1.1413 0.29255 9.1791 5 1 1
1.5539 0.35504 9.7842 4 0 1
1.5533 0.35492 9.7805 3 125 23
1.1203 0.38939 10.08 4 0 3
1.1564 0.38875 10.08 6 23 4
1.5056 0.48055 10.084 60 4 1
1.1357 0.54992 10.227 59 27 1
-0.50323 -1.11 10.978 1 1 33
0.74943 -0.92667 10.83 4 5 15
0.30711 -0.86854 10.864 16 0 2
-0.8944 -0.69283 10.243 27 33 6
0.5443 -0.5061 10.377 2 17 25
0.52255 -0.408 10.302 8 121 2
1.5703 -0.57196 10.175 2 1 1
1.179 -0.39784 10.134 3 66 17
0.7965 -0.047129 9.7601 22 24 19
-0.090665 -0.033084 9.9248 34 29 10
0.6418 -0.012956 9.8018 255 254 192
0.59717 0.041975 9.913 1 140 4
0.30555 0.18315 11.066 25 10 6
1.2097 0.29225 9.9886 24 0 0
0.73922 0.3368 10.103 8 3 2
1.2111 0.33769 10.023 35 0 0
1.214 0.39165 10.057 71 17 11
1.2216 0.50024 10.16 114 91 15
1.4714 0.55079 10.152 118 81 10
-0.63969 -1.1423 10.933 19 14 24
0.81561 -1.0253 10.789 16 4 0
-0.39676 -0.97602 11.002 50 44 1
0.59023 -0.90246 10.879 9 75 116
-0.070566 -0.90502 10.978 4 42 75
0.54396 -0.90737 16.285 24 99 87
-0.97126 -0.6394 10.758 4 1 1
1.026 -0.52429 10.279 86 41 1
1.3278 -0.46807 10.006 22 126 12
1.3278 -0.46807 10.006 37 119 11
-0.95186 -0.34521 9.6711 241 207 146
1.7255 -0.015215 9.8509 3 0 0
0.37387 0.12996 7.6206 12 11 12
0.69661 0.33333 10.117 55 120 13
1.0361 0.36045 10.076 56 52 16
1.0966 0.3606 10.074 11 27 9
1.3157 0.35479 9.8383 61 3 2
-0.12496 0.30082 8.7171 218 172 108
-0.0032556 0.069408 5.5497 27 6 5
0.14272 0.20869 7.3744 19 13 7
0.43277 0.25849 7.7339 11 43 5
1.1912 0.52831 10.183 57 18 17
1.1912 0.52831 10.183 10 124 10
1.5117 0.53885 10.123 131 0 0
1.5642 0.53812 10.1 6 1 0
0.86612 0.571 10.34 78 130 15
1.4352 0.59486 10.171 1 0 1
-0.58259 -1.1358 10.992 7 3 33
1.5661 -0.56865 10.154 2 2 1
1.5938 -0.50744 10.14 129 57 8
-0.92488 -0.48946 9.8763 215 184 127
0.30353 -0.41427 10.339 3 10 17
1.6802 -0.11698 9.9188 121 9 1
1.3463 -0.068215 9.3683 11 16 25
1.3463 -0.068215 9.3683 18 22 33
0.95822 0.1119 9.8246 23 1 0
1.3065 0.27564 9.736 19 8 1
1.056 0.52556 10.211 19 9 0
-0.61954 0.60832 10.419 251 216 161
-0.36462 0.28096 6.8467 10 0 0
-0.68695 0.66315 10.411 31 21 15
-0.68695 0.66315 10.411 82 126 36
-0.84655 0.707 10.261 240 205 150
-0.52747 -1.0535 10.963 2 1 2
1.2111 -0.72151 10.518 2 0 2
1.548 -0.6927 10.124 12 0 0
1.3958 -0.031449 9.3519 239 210 146
1.7818 0.36444 9.8258 154 7 0
-0.5052 0.53495 10.479 24 33 18
-0.10187 -0.87484 10.981 4 3 1
0.052501 -0.87753 10.96 212 178 105
0.78271 0.59409 10.281 41 11 26
-0.94066 -0.18073 9.4938 51 5 14
0.64818 -0.99499 10.83 10 7 36
0.60635 0.55575 10.427 1 2 26
2.7445 -1.7554 23.428 58 0 0
-0.58677 -0.10975 10.132 255 226 155
-0.58677 -0.10975 10.132 3 2 96
1.048 0.017605 9.9622 63 41 8
0 0 0 1 0 0 0 1 0 0 0 1 0 0 0 0 0 171 1 0 0
