ply
format ascii 1.0
comment PCL generated
element vertex 47
property float x
property float y
property float z
property uchar red
property uchar green
property uchar blue
element camera 1
property float view_px
property float view_py
property float view_pz
property float x_axisx
property float x_axisy
property float x_axisz
property float y_axisx
property float y_axisy
property float y_axisz
property float z_axisx
property float z_axisy
property float z_axisz
property float focal
property float scalex
property float scaley
property float centerx
property float centery
property int viewportx
property int viewporty
property float k1
property float k2
end_header
-0.00073099 0.12333 0.50935 128 128 0
0.074404 0.12231 0.50737 128 128 0
0.1486 0.12093 0.49541 128 128 0
0.22053 0.1192 0.47366 128 128 0
0.28892 0.11716 0.44253 128 128 0
0.56345 0.10066 0.09992 128 128 0
0.57891 0.097659 0.02642 128 128 0
0.58442 0.094731 -0.048488 128 128 0
0.5799 0.091925 -0.12347 128 128 0
0.56541 0.089292 -0.19718 128 128 0
0.54123 0.086879 -0.26831 128 128 0
0.50777 0.084728 -0.33559 128 128 0
-0.393 0.092263 -0.43259 128 128 0
-0.43997 0.095087 -0.37397 128 128 0
-0.4787 0.098027 -0.30962 128 128 0
-0.5085 0.10103 -0.24067 128 128 0
-0.52884 0.10404 -0.16837 128 128 0
-0.53935 0.10701 -0.094 128 128 0
-0.53984 0.10989 -0.018889 128 128 0
-0.53032 0.11261 0.055622 128 128 0
-0.51094 0.11514 0.12821 128 128 0
-0.48206 0.11743 0.19756 128 128 0
-0.49476 0.13805 0.29764 128 128 0
-0.44633 0.13436 0.35545 128 128 0
-0.40591 0.13238 0.43783 128 128 0
-0.31562 0.13035 0.46056 128 128 0
-0.24389 0.12959 0.5055 128 128 0
-0.1488 0.1051 0.48485 128 128 0
-0.06894 0.11255 0.46394 128 128 0
-0.00068718 0.12188 0.51223 128 128 0
0.047781 0.12105 0.50148 128 128 0
0.065593 0.030147 -0.059369 128 128 0
0.34481 -2.2536 -2.3474 128 128 0
0.11277 0.055292 0.042959 128 128 0
0.10119 0.043895 0.019499 128 128 0
0.085787 0.019175 -0.022348 128 128 0
0.078731 0.031613 -0.014295 128 128 0
0.077058 0.034726 -0.012208 128 128 0
0.075891 0.035817 -0.011993 128 128 0
0.53357 0.10364 0.12984 128 128 0
0.49722 0.10595 0.1917 128 128 0
-0.36254 0.090238 -0.46018 128 128 0
-0.30983 0.090763 -0.5153 128 128 0
-0.23991 0.082696 -0.53309 128 128 0
-0.15927 0.081681 -0.50882 128 128 0
0.10687 0.01228 -0.013784 128 128 0
0.098728 0.04181 0.014766 128 128 0
0 0 0 1 0 0 0 1 0 0 0 1 0 0 0 0 0 47 1 0 0
