ply
format ascii 1.0
comment PCL generated
element vertex 5
property float x
property float y
property float z
property uchar red
property uchar green
property uchar blue
element camera 1
property float view_px
property float view_py
property float view_pz
property float x_axisx
property float x_axisy
property float x_axisz
property float y_axisx
property float y_axisy
property float y_axisz
property float z_axisx
property float z_axisy
property float z_axisz
property float focal
property float scalex
property float scaley
property float centerx
property float centery
property int viewportx
property int viewporty
property float k1
property float k2
end_header
-0.00073099 0.12333 0.50935 128 128 0
0.074404 0.12231 0.50737 128 128 0
0.14322 0.1226 0.49964 128 128 0
0.21573 0.125 0.50699 128 128 0
0.22674 0.12032 0.46553 128 128 0
0 0 0 1 0 0 0 1 0 0 0 1 0 0 0 0 0 5 1 0 0
