ply
format ascii 1.0
comment PCL generated
element vertex 423
property float x
property float y
property float z
property uchar red
property uchar green
property uchar blue
element camera 1
property float view_px
property float view_py
property float view_pz
property float x_axisx
property float x_axisy
property float x_axisz
property float y_axisx
property float y_axisy
property float y_axisz
property float z_axisx
property float z_axisy
property float z_axisz
property float focal
property float scalex
property float scaley
property float centerx
property float centery
property int viewportx
property int viewporty
property float k1
property float k2
end_header
0.040687 -0.030802 0.085452 41 34 30
0.076026 -0.030765 0.059171 51 38 33
0.0037281 -0.03441 -0.019375 105 83 54
-0.0038297 -0.032527 -0.021699 110 91 50
0.032633 -0.035941 -0.03038 138 112 77
0.0052843 -0.031519 -0.019596 143 123 85
-0.011414 -0.030586 -0.019874 117 100 64
0.043385 -0.033272 -0.031093 136 108 71
-0.016856 0.020707 0.11293 63 53 37
0.028412 -0.031783 -0.029879 128 102 68
-0.0090415 -0.027554 -0.019925 121 102 64
-0.0015233 -0.027408 -0.018622 117 97 67
-0.0015233 -0.027408 -0.018622 117 97 67
0.0020296 -0.026087 -0.019324 119 102 74
0.07261 -0.036088 -0.047338 158 121 81
-0.033686 -0.036193 -0.061578 48 40 30
0.010094 -0.02483 -0.018619 133 113 75
0.011347 -0.02241 -0.01835 128 107 67
0.00080463 -0.020847 -0.018144 115 97 63
0.07268 -0.030213 -0.047325 136 100 61
0.026098 -0.023183 -0.030355 128 101 69
0.020361 -0.019288 -0.019164 142 118 83
0.021351 -0.01845 -0.023822 127 101 72
0.035274 0.17314 0.78623 52 46 36
0.043978 -0.020049 -0.030621 150 120 82
0.0072382 -0.014575 -0.020358 125 94 63
0.0074452 -0.012943 -0.022771 117 91 57
0.063412 -0.0204 -0.047797 135 104 67
0.058935 -0.017955 -0.044098 117 87 49
0.0072225 -0.0096218 -0.023638 211 183 144
0.068138 -0.015351 -0.048077 192 157 119
-0.036301 -0.041809 -0.16832 43 35 28
0.035512 -0.014013 -0.050077 187 156 121
0.03631 -0.013184 -0.054573 128 95 60
0.069698 -0.012083 -0.053491 152 113 66
0.033425 -0.0096025 -0.054025 121 89 52
0.067286 -0.005544 -0.053964 126 100 66
0.067286 -0.005544 -0.053964 126 100 66
0.036322 0.0045628 -0.05476 136 108 67
0.036322 0.0045629 -0.05476 136 108 67
0.031663 0.0078733 -0.055178 150 115 75
0.031663 0.0078733 -0.055178 150 115 75
0.033277 0.010293 -0.054402 107 78 44
0.036477 0.013469 -0.054476 153 125 87
0.038582 0.016306 -0.054463 157 124 72
0.067673 0.024025 -0.055903 131 100 60
0.036883 0.026445 -0.053889 155 124 80
0.033817 0.029497 -0.055981 172 139 89
0.067935 0.032791 -0.057065 123 92 56
0.067956 0.0395 -0.057242 116 84 50
0.064679 0.041587 -0.058669 162 126 83
0.064869 0.044016 -0.05847 134 107 70
0.036692 0.048913 -0.056251 167 133 90
0.042781 0.050585 -0.062528 119 94 62
0.030812 0.056813 -0.055303 149 124 82
0.034612 0.059589 -0.053615 176 144 98
0.038447 0.059747 -0.052953 173 142 95
0.0071058 0.064332 -0.019483 105 84 55
0.0010065 0.067803 -0.019195 171 149 104
0.046675 0.068593 -0.055676 138 110 71
0.000917 0.073988 -0.02449 164 135 87
0.015136 0.072634 -0.052925 146 119 77
-0.00066132 0.07551 -0.028151 128 101 72
0.013074 0.073773 -0.05524 100 74 40
0.015528 0.075544 -0.053768 147 118 76
0.032814 0.075773 -0.05473 148 118 78
0.019563 0.076529 -0.053722 149 123 79
0.052579 0.077444 -0.057633 99 76 43
0.0017503 0.081826 -0.025359 143 120 75
0.0084948 0.082793 -0.028235 110 84 49
0.052083 0.083313 -0.056058 171 143 100
0.016761 0.085208 -0.054183 156 125 81
0.047542 0.0856 -0.055627 169 139 97
0.047542 0.0856 -0.055627 169 139 97
0.014563 0.089095 -0.055345 138 110 69
0.014563 0.089095 -0.055345 138 110 69
0.016998 0.088908 -0.054636 132 105 66
0.002741 0.093633 -0.025825 67 47 11
0.049276 0.09085 -0.065209 181 146 92
0.026285 0.094072 -0.055132 121 95 59
0.027948 0.094015 -0.055637 118 92 55
0.024739 0.095716 -0.054509 157 131 90
-5.5419e-05 0.10016 -0.025821 167 145 94
0.032945 0.10185 -0.056902 147 117 70
0.034819 0.1043 -0.055558 168 135 85
0.0051492 0.10622 -0.031261 173 145 92
0.038688 0.10982 -0.062362 181 154 117
0.030379 0.11052 -0.060609 148 121 87
0.087279 -0.030668 0.062393 44 37 34
0.002449 -0.035 0.025081 44 35 29
0.021572 -0.028579 -0.016821 130 100 63
0.074329 -0.037893 -0.046896 140 108 67
0.041024 0.099312 0.37021 115 87 52
-0.023416 -0.018404 -0.044492 53 45 34
-0.04132 -0.03345 -0.056839 56 44 35
-0.015629 0.011769 0.16933 48 38 29
0.035771 0.087631 0.32198 143 115 78
0.054046 -0.025753 -0.031329 115 87 59
-0.057486 -0.038476 -0.094436 50 42 35
-0.057486 -0.038476 -0.094436 50 42 35
0.015391 -0.019648 -0.018433 137 111 75
0.039517 -0.023634 -0.032446 126 100 70
0.046133 -0.021528 -0.030787 159 126 87
-0.035529 -0.036608 -0.10273 62 54 46
0.0029967 -0.014355 -0.021096 144 123 85
0.00093923 -0.013073 -0.024109 96 79 54
0.0050055 -0.011586 -0.022865 85 64 37
0.013477 -0.012533 -0.045953 135 109 79
0.03029 -0.013264 -0.050975 219 187 145
0.06909 -0.013299 -0.047753 158 122 82
0.038932 -0.012297 -0.054645 141 102 65
0.065596 -0.011535 -0.054271 116 86 53
0.044162 0.082589 0.27262 148 111 60
0.031498 -0.0013353 -0.055159 158 122 78
0.033557 0.0030235 -0.054979 150 121 87
0.041611 0.013691 -0.060686 167 130 77
0.038304 0.029242 -0.056147 72 46 23
0.06463 0.030154 -0.058231 150 123 79
0.075045 0.048034 -0.062206 105 78 45
0.032774 0.052692 -0.054937 121 96 57
0.068561 0.051969 -0.055375 107 80 49
0.0035916 0.062224 -0.019395 166 148 109
0.02648 0.059493 -0.053411 176 147 100
0.064011 0.060384 -0.057159 109 80 47
0.044872 0.065762 -0.054507 142 110 69
0.0039396 0.070359 -0.019503 116 98 59
0.0036282 0.074268 -0.02697 131 110 73
0.048206 0.072261 -0.055599 158 130 86
0.048206 0.072261 -0.055599 158 130 86
-0.0035298 0.075952 -0.029025 57 35 9
0.023424 0.076129 -0.054189 154 125 80
0.0063551 0.084504 -0.029252 121 99 63
0.023597 0.08308 -0.054869 141 110 66
-0.0072846 0.085742 -0.03102 132 113 74
-0.00051501 0.086608 -0.028913 118 99 59
0.028078 0.085195 -0.055045 172 147 105
0.0011387 0.090776 -0.026788 152 127 85
-0.0059065 0.091179 -0.028065 108 87 61
-0.0088281 0.091897 -0.03109 80 62 39
0.03711 0.089714 -0.053101 160 135 90
0.040063 0.090139 -0.055014 158 130 87
-0.00048186 0.092745 -0.026965 91 74 49
0.0063969 0.093304 -0.027133 124 102 71
0.0063969 0.093304 -0.027133 124 102 71
0.020172 0.096742 -0.055727 132 106 67
0.00045185 0.10256 -0.029472 203 175 117
0.017618 0.10445 -0.058457 146 117 73
0.01407 0.11171 -0.058647 138 109 64
-0.0028989 0.11538 -0.045233 132 109 61
-0.0063695 0.11793 -0.048929 155 130 93
-0.0031152 0.11847 -0.046546 156 133 92
0.0077973 -0.031425 0.040227 46 38 33
-0.0032712 -0.033172 0.030861 46 38 33
0.00574 -0.033325 0.017268 54 44 40
0.00574 -0.033325 0.017268 54 44 40
-0.00096316 -0.034397 -0.019604 80 58 30
0.054929 -0.035919 -0.033668 72 52 32
0.054929 -0.035919 -0.033668 72 52 32
0.058562 -0.035954 -0.037583 161 133 96
0.058562 -0.035954 -0.037583 161 133 96
-0.044236 -0.034105 -0.052294 48 39 30
0.017137 -0.02217 -0.018115 115 88 58
-9.8381e-06 -0.022431 -0.02396 124 104 71
0.067694 -0.027191 -0.047729 134 100 61
-0.059388 -0.037831 -0.10483 45 40 32
0.046097 -0.015336 -0.030774 177 146 107
0.052982 -0.015353 -0.036027 177 148 108
0.049007 -0.014104 -0.033118 154 121 86
0.025879 -0.01375 -0.058439 206 187 156
-0.0050818 -0.0092484 -0.035163 79 59 34
0.078065 -0.011735 -0.061129 150 114 70
0.044797 0.039647 0.18998 161 124 85
0.040798 0.0059912 -0.059567 177 142 90
0.029417 0.020537 -0.059595 181 148 100
0.029949 0.029948 -0.058502 165 132 84
-0.0007544 0.057081 -0.021124 115 97 59
0.062434 0.05405 -0.055056 61 43 15
-0.0021193 0.0025092 -0.98154 163 147 102
0.04785 0.062434 -0.055494 124 94 58
0.0056012 0.076784 -0.027368 109 83 50
0.060665 0.073097 -0.058714 152 128 101
0.045108 0.074813 -0.055081 124 93 56
0.032057 0.081265 -0.054556 155 128 87
-0.0049922 0.086166 -0.034341 120 105 68
0.05743 0.085154 -0.066036 172 134 83
0.0018238 0.096038 -0.024616 169 150 103
0.029418 0.096795 -0.054227 159 134 90
0.025149 0.10388 -0.057678 176 147 96
0.025149 0.10388 -0.057678 176 147 96
0.034479 0.10997 -0.060384 163 134 91
0.02515 0.11049 -0.061888 171 142 92
-0.001381 0.1127 -0.037817 143 119 76
0.0098537 0.11748 -0.04778 167 141 99
-0.006176 0.11793 -0.047594 155 130 93
-0.0033711 -0.033369 0.030246 46 38 33
0.014534 -0.030248 0.026381 48 41 37
0.028663 -0.035603 -0.031922 134 106 72
0.03712 0.013493 0.13898 72 52 32
-0.0039765 -0.028893 -0.019979 121 101 67
0.050243 -0.026491 -0.030923 137 108 66
-0.049984 -0.038975 -0.094131 45 39 31
0.0093512 -0.012452 -0.022299 140 112 73
0.078375 -0.011206 -0.060737 173 132 80
0.028738 0.0047169 -0.060329 99 61 19
0.040731 0.0057672 -0.060702 168 135 98
0.030085 0.044325 -0.059311 185 152 104
0.07678 0.057638 -0.063294 172 145 110
0.019234 0.062444 -0.055182 139 111 69
0.047932 0.062703 -0.053765 137 109 69
0.060057 0.068375 -0.055437 135 104 66
0.0076254 0.090176 -0.029932 92 74 48
0.024013 0.097615 -0.054602 156 131 89
0.029515 0.097078 -0.05453 157 130 86
0.043617 0.096659 -0.068513 162 130 86
0.025058 0.10388 -0.05757 177 149 98
0.025058 0.10388 -0.05757 177 149 98
0.024842 0.11031 -0.061063 167 135 81
0.0016235 0.11925 -0.050298 156 131 81
0.042737 -0.028292 0.077865 46 39 34
0.062721 -0.033399 -0.04199 153 124 89
0.0060307 -0.022546 -0.019015 114 92 59
0.027548 -0.022726 -0.030766 152 125 89
0.036053 -0.023468 -0.033505 87 70 54
0.0045853 0.077951 -0.024758 116 93 60
0.037708 -0.034206 -0.029333 142 116 81
0.040495 -0.020552 -0.03911 101 70 49
0.045292 -0.015518 -0.050033 166 142 109
0.071009 0.062854 -0.064382 177 137 90
0.065128 0.070303 -0.066525 149 115 71
0.065128 0.070303 -0.066525 149 115 71
0.033692 0.078874 -0.053773 147 115 76
-0.014441 0.11526 -0.043276 160 135 78
0.018498 -0.03226 -0.020753 136 106 72
0.073646 -0.030837 -0.046758 150 115 71
0.036299 0.08775 0.31277 121 102 81
0.061252 -0.020226 -0.04119 134 101 64
0.01635 -0.012393 -0.037426 195 170 128
0.052133 0.083805 -0.064021 179 148 105
0.027997 0.091327 -0.056207 138 108 71
0.036053 0.10577 -0.055449 162 130 84
0.036053 0.10577 -0.055449 162 130 84
0.0044573 0.036513 -0.049013 94 66 28
0.0044573 0.036513 -0.049013 94 66 28
0.069202 0.0017524 -0.062458 173 142 96
0.035673 0.017372 -0.061345 166 133 83
0.035673 0.017372 -0.061345 166 133 83
0.035986 0.036237 -0.062331 161 124 82
0.035986 0.036237 -0.062331 161 124 82
0.069098 0.035888 -0.062602 147 116 73
0.069098 0.035888 -0.062602 147 116 73
0.034742 0.058796 -0.054171 175 143 99
0.0033087 0.064083 -0.034187 116 92 57
-0.052983 -0.02564 -0.059691 48 40 33
0.0023244 0.10716 -0.035829 179 153 95
0.0023244 0.10716 -0.035829 179 153 95
0.064619 -0.023233 -0.0541 131 97 61
0.0029124 0.10712 -0.031346 179 152 94
0.0029124 0.10712 -0.031346 179 152 94
0.016252 0.10391 0.080257 140 113 74
0.024623 0.090591 -0.055394 64 48 22
0.023449 0.092306 -0.054819 143 115 78
0.021594 0.094851 -0.053583 126 94 57
0.024636 0.09057 -0.055419 114 96 62
0.02209 0.09417 -0.053983 139 107 64
0.023371 0.092416 -0.054857 139 112 76
0.024187 0.091245 -0.055285 152 126 85
0.023226 0.092618 -0.054798 94 72 52
0.022862 0.093119 -0.054632 187 154 115
0.024575 0.09066 -0.055472 120 98 64
0.022211 0.093995 -0.054205 158 128 86
0.024415 0.090903 -0.055438 106 81 45
0.020329 0.096489 -0.052848 63 51 42
0.023838 0.091752 -0.055243 121 94 53
0.020552 0.096158 -0.053094 174 140 98
0.020397 0.096361 -0.052967 175 140 90
0.020841 0.095776 -0.053347 129 101 63
0.020841 0.095776 -0.053347 129 101 63
0.020568 0.096122 -0.053126 172 135 86
0.022102 0.094133 -0.054397 139 109 78
0.021858 0.094454 -0.054379 144 119 88
0.021142 0.095351 -0.053634 141 107 69
0.02209 0.09416 -0.054604 104 75 46
0.023055 0.092925 -0.05494 172 138 92
0.024242 0.091149 -0.055671 159 130 85
0.022518 0.093619 -0.054797 150 117 75
0.022518 0.093619 -0.054797 150 117 75
0.031765 0.082437 -0.061219 171 136 88
0.029645 0.085211 -0.059907 105 75 32
0.025224 0.089525 -0.055833 154 125 80
0.025616 0.088773 -0.055757 62 51 38
0.019163 0.098261 -0.055663 162 130 89
0.025147 0.089517 -0.05584 76 55 26
0.018614 0.098817 -0.055548 121 96 68
0.033564 0.080928 -0.06244 142 112 70
0.026051 0.087952 -0.05559 151 128 87
0.018463 0.099098 -0.055886 64 44 17
0.021673 0.095502 -0.057178 167 140 101
0.026068 0.087792 -0.055376 98 73 44
0.026361 0.087252 -0.055238 131 109 71
0.026407 0.087129 -0.055074 145 120 81
0.050445 0.068841 -0.076077 142 112 73
0.03726 0.068935 -0.04715 139 109 72
0.029223 0.086303 -0.059034 150 119 84
0.027213 0.085575 -0.054668 107 85 52
0.028926 0.087278 -0.05852 156 130 95
0.027122 0.085847 -0.055157 84 64 38
0.02808 0.088015 -0.057147 167 143 97
0.027636 0.084417 -0.053985 142 119 84
0.027786 0.08816 -0.056333 170 141 99
0.027786 0.08816 -0.056333 170 141 99
0.027735 0.083996 -0.053817 132 104 66
0.027928 0.083295 -0.054392 107 83 46
0.026549 0.088098 -0.054545 108 83 48
0.029872 0.07821 -0.055959 138 109 67
0.029872 0.07821 -0.055959 138 109 67
0.027989 0.083843 -0.055307 188 156 95
0.027896 0.084229 -0.055486 160 136 84
0.025575 0.090151 -0.05372 132 103 58
0.024016 0.091495 -0.055123 54 37 18
0.021568 0.09489 -0.05355 146 114 76
0.024011 0.091503 -0.05515 94 72 44
0.023321 0.092487 -0.054786 143 117 78
0.023685 0.091972 -0.054999 115 87 49
0.02266 0.093397 -0.054386 144 115 78
0.021304 0.095223 -0.053453 152 117 76
0.022711 0.093324 -0.054476 132 98 57
0.02121 0.095342 -0.053411 159 122 81
0.021313 0.095199 -0.053501 144 107 68
0.022555 0.093535 -0.054411 135 103 64
0.022992 0.092941 -0.054733 197 165 126
0.022819 0.093178 -0.054628 195 167 131
0.024315 0.091054 -0.055405 243 220 178
0.025174 0.089716 -0.055611 55 48 39
0.021169 0.095364 -0.053521 137 105 65
0.023324 0.092499 -0.055065 48 32 22
0.022589 0.093493 -0.054691 146 110 63
0.020627 0.096006 -0.053395 158 127 96
0.02422 0.091189 -0.055567 135 104 58
0.021856 0.094488 -0.054782 162 125 74
0.024094 0.091365 -0.05582 151 115 56
0.024726 0.090256 -0.05596 147 116 69
0.033875 0.080799 -0.062723 96 76 51
0.022661 0.094308 -0.057164 124 97 54
0.026394 0.087377 -0.055548 102 85 53
0.025918 0.088041 -0.055403 96 74 40
0.026506 0.087058 -0.055319 105 81 45
0.036731 0.079848 -0.065337 164 130 88
0.026885 0.086347 -0.055258 165 137 88
0.029381 0.086441 -0.059167 172 145 117
0.027147 0.085809 -0.055213 96 76 44
0.027209 0.085631 -0.055052 106 84 51
0.032476 0.090315 -0.060422 159 130 86
0.027334 0.085424 -0.055242 106 85 57
0.027468 0.084979 -0.054761 153 128 82
0.027199 0.087831 -0.054747 161 134 91
0.027658 0.084818 -0.055514 120 96 45
0.026152 0.088712 -0.054205 174 141 91
0.026152 0.088712 -0.054205 174 141 91
0.02957 0.079349 -0.055946 120 91 50
0.028205 0.083352 -0.055458 165 139 86
0.028519 0.082527 -0.055566 134 109 70
0.026203 0.088469 -0.054602 154 122 71
0.028484 0.083096 -0.055993 160 133 88
0.029093 0.081996 -0.056518 157 134 93
0.029373 0.081384 -0.05666 161 137 102
0.024915 0.090142 -0.05551 122 105 69
0.023706 0.091943 -0.055008 127 98 64
0.02252 0.093586 -0.054312 115 86 56
0.023208 0.092643 -0.054828 144 114 74
0.021185 0.09535 -0.05349 164 130 91
0.021185 0.09535 -0.05349 164 130 91
0.023042 0.092874 -0.054794 222 194 158
0.023974 0.091557 -0.055474 173 138 91
0.021226 0.095216 -0.053854 73 48 29
0.021226 0.095216 -0.053854 73 48 29
0.020065 0.097239 -0.056118 133 103 61
0.045499 0.068214 -0.071286 144 113 76
0.025236 0.089403 -0.055819 120 90 48
0.019705 0.097479 -0.056022 75 58 41
0.042074 0.078558 -0.070625 150 125 82
0.027956 0.090139 -0.060821 89 61 32
0.028419 0.083567 -0.053588 135 105 65
0.02756 0.084773 -0.054869 163 143 99
0.025899 0.089019 -0.054241 180 152 110
0.0042226 0.13977 -0.040771 146 116 70
0.029113 0.081951 -0.056528 157 134 93
0.031098 0.077741 -0.057704 161 137 93
0.024347 0.091007 -0.055284 120 101 63
0.022991 0.092946 -0.054536 163 133 91
0.023686 0.091969 -0.054961 127 102 65
0.024633 0.090575 -0.05542 108 89 53
0.024326 0.091038 -0.055367 95 70 43
0.024667 0.090519 -0.055498 163 146 112
0.024199 0.091225 -0.055364 242 219 183
0.0244 0.091456 -0.056384 155 123 78
0.051897 0.061092 -0.075863 138 105 65
0.043656 0.070892 -0.070113 101 75 42
0.026026 0.088026 -0.055628 74 56 26
0.028142 0.082269 -0.054298 128 104 68
0.028329 0.08214 -0.054767 165 136 89
0.023398 0.092378 -0.054796 132 104 67
0.02211 0.094147 -0.053967 153 122 85
0.020452 0.096196 -0.053378 179 145 100
0.02804 0.083597 -0.053164 146 115 68
0.027506 0.085079 -0.055324 143 124 75
0.031967 0.075451 -0.058079 167 140 90
0.023893 0.09168 -0.054926 61 55 50
0.024662 0.090531 -0.055417 115 93 60
0.02305 0.092859 -0.054701 105 79 54
0.027153 0.085723 -0.054888 87 71 41
0.028391 0.083493 -0.056171 161 134 79
0.024591 0.090628 -0.055565 128 108 75
0.024093 0.091386 -0.055475 176 145 97
0.024725 0.090298 -0.055933 163 127 71
0.013027 0.10816 -0.059468 164 132 88
0.046543 0.07507 -0.073541 159 128 84
0.027579 0.084771 -0.054149 106 81 47
0.027645 0.084334 -0.054287 107 82 54
0.026169 0.088751 -0.054178 172 140 90
0.028106 0.083722 -0.055566 180 150 94
0.028106 0.083722 -0.055566 180 150 94
0.023991 0.09153 -0.055233 133 105 68
0.023991 0.09153 -0.055233 133 105 68
0 0 0 1 0 0 0 1 0 0 0 1 0 0 0 0 0 423 1 0 0
