ply
format ascii 1.0
comment PCL generated
element vertex 43
property float x
property float y
property float z
property uchar red
property uchar green
property uchar blue
element camera 1
property float view_px
property float view_py
property float view_pz
property float x_axisx
property float x_axisy
property float x_axisz
property float y_axisx
property float y_axisy
property float y_axisz
property float z_axisx
property float z_axisy
property float z_axisz
property float focal
property float scalex
property float scaley
property float centerx
property float centery
property int viewportx
property int viewporty
property float k1
property float k2
end_header
0.042781 0.050585 -0.062528 179 148 99
0.030812 0.056813 -0.055303 149 124 82
0.034612 0.059589 -0.053615 176 144 98
0.046675 0.068593 -0.055676 138 106 69
0.015136 0.072634 -0.052925 146 119 77
0.013074 0.073773 -0.05524 100 74 40
0.015528 0.075544 -0.053768 147 118 76
0.032814 0.075773 -0.05473 148 118 78
0.019563 0.076529 -0.053722 149 123 79
0.0017503 0.081826 -0.025359 129 107 70
0.016761 0.085208 -0.054183 156 125 81
0.047542 0.0856 -0.055627 177 147 105
0.047542 0.0856 -0.055627 177 147 105
0.014563 0.089095 -0.055345 138 110 69
0.014563 0.089095 -0.055345 138 110 69
0.016998 0.088908 -0.054636 142 114 73
0.026285 0.094072 -0.055132 108 84 47
0.024739 0.095716 -0.054509 153 128 86
0.02648 0.059493 -0.053411 176 147 100
0.044872 0.065762 -0.054507 145 116 73
0.048206 0.072261 -0.055599 162 131 88
0.048206 0.072261 -0.055599 162 131 88
0.023424 0.076129 -0.054189 154 125 80
0.023597 0.08308 -0.054869 148 118 75
0.028078 0.085195 -0.055045 172 147 105
0.03711 0.089714 -0.053101 160 135 90
-0.0028989 0.11538 -0.045233 127 103 61
0.029417 0.020537 -0.059595 181 148 100
0.045108 0.074813 -0.05508 128 96 62
0.032057 0.081265 -0.054556 155 128 87
0.029418 0.096795 -0.054227 163 138 94
0.030085 0.044325 -0.059311 185 152 104
0.019234 0.062444 -0.055182 139 111 69
0.060057 0.068375 -0.055437 136 103 68
0.0045853 0.077951 -0.024758 48 37 25
0.033692 0.078874 -0.053773 147 115 76
-0.014441 0.11526 -0.043276 164 137 79
0.027997 0.091327 -0.056207 137 107 70
0.035986 0.036237 -0.062331 116 86 46
0.035986 0.036237 -0.062331 116 86 46
0.069098 0.035888 -0.062601 160 124 80
0.069098 0.035888 -0.062601 160 124 80
0.034742 0.058796 -0.054171 175 143 99
0 0 0 1 0 0 0 1 0 0 0 1 0 0 0 0 0 43 1 0 0
