ply
format ascii 1.0
comment PCL generated
element vertex 250
property float x
property float y
property float z
property uchar red
property uchar green
property uchar blue
element camera 1
property float view_px
property float view_py
property float view_pz
property float x_axisx
property float x_axisy
property float x_axisz
property float y_axisx
property float y_axisy
property float y_axisz
property float z_axisx
property float z_axisy
property float z_axisz
property float focal
property float scalex
property float scaley
property float centerx
property float centery
property int viewportx
property int viewporty
property float k1
property float k2
end_header
0.040687 -0.030802 0.085452 41 34 30
0.076026 -0.030765 0.059171 51 38 33
0.016363 0.01076 0.10233 105 83 54
0.010733 0.01131 0.092851 110 91 50
0.032516 0.010326 0.13266 138 112 77
0.016521 0.010943 0.10101 143 123 85
0.0049449 0.011771 0.083748 117 100 64
0.037034 0.010388 0.1416 136 108 71
-0.016926 0.018792 0.060863 63 53 37
0.029333 0.010571 0.12438 128 102 68
-0.0090415 -0.027554 -0.019925 121 102 64
-0.0015233 -0.027408 -0.018622 117 97 67
0.010875 0.011613 0.090474 117 97 67
0.0020296 -0.026087 -0.019324 119 102 74
0.07261 -0.036088 -0.047338 158 121 81
-0.033686 -0.036193 -0.061578 48 40 30
0.017765 0.01141 0.09933 133 113 75
0.017878 0.011607 0.098297 128 107 67
0.00080463 -0.020847 -0.018144 115 97 63
0.07268 -0.030213 -0.047325 139 105 67
0.026098 -0.023183 -0.030355 128 101 69
0.022488 0.011628 0.10454 142 118 83
0.022476 0.011839 0.10451 127 101 72
0.035274 0.17314 0.78623 52 46 36
0.043978 -0.020049 -0.030621 150 120 82
0.012853 0.01291 0.086203 125 94 63
0.012358 0.013289 0.08511 117 91 57
0.040914 0.011428 0.15037 110 77 45
0.058935 -0.017955 -0.044098 117 87 49
0.0072225 -0.0096218 -0.023638 211 183 144
0.041571 0.011823 0.15157 192 157 119
-0.0099022 0.016763 0.053894 43 35 28
0.035512 -0.014013 -0.050077 187 156 121
0.03631 -0.013184 -0.054573 128 95 60
0.069698 -0.012083 -0.053491 152 113 66
0.033425 -0.0096025 -0.054025 121 89 52
0.067286 -0.005544 -0.053964 126 100 66
0.038448 0.013032 0.14187 126 100 66
0.022031 0.016042 0.098626 68 47 22
0.022031 0.016042 0.098626 68 47 22
0.031663 0.0078733 -0.055178 150 115 75
0.031663 0.0078733 -0.055178 150 115 75
0.033277 0.010293 -0.054402 175 140 88
0.019737 0.017965 0.091268 193 164 119
0.020013 0.018425 0.091167 157 124 72
0.031424 0.018279 0.11813 131 100 60
0.036883 0.026445 -0.053889 155 124 80
0.033817 0.029497 -0.055981 138 109 67
0.029158 0.020464 0.11158 123 92 56
0.02736 0.022287 0.10639 116 84 50
0.025225 0.023226 0.1007 162 126 83
0.064869 0.044016 -0.05847 134 107 70
0.0093995 0.028705 0.0629 115 87 48
0.042781 0.050585 -0.062528 119 94 62
0.030812 0.056813 -0.055303 152 124 84
0.0050306 0.033046 0.052194 171 137 93
0.00719 0.032513 0.056258 173 142 95
-0.013154 0.03835 0.016481 129 106 68
0.0010065 0.067803 -0.019195 171 149 104
0.046675 0.068593 -0.055676 138 110 71
0.000917 0.073988 -0.02449 164 135 87
0.015136 0.072634 -0.052925 146 119 77
-0.023377 0.045758 0.00086265 128 101 72
0.013074 0.073773 -0.05524 100 74 40
-0.012332 0.043369 0.019988 147 118 76
-0.0015221 0.040523 0.037908 147 121 79
-0.010019 0.043156 0.023387 149 123 79
0.0087561 0.038158 0.059403 99 76 43
-0.023995 0.048692 -0.0020073 143 120 75
0.0084948 0.082793 -0.028235 110 84 49
0.052083 0.083313 -0.056058 171 143 100
-0.015062 0.048121 0.014079 156 125 81
0.047542 0.0856 -0.055627 177 147 105
0.047542 0.0856 -0.055627 177 147 105
0.014563 0.089095 -0.055345 138 110 69
0.014563 0.089095 -0.055345 138 110 69
-0.016288 0.05008 0.011609 142 114 73
0.026285 0.094072 -0.055132 108 84 47
-0.011083 0.050781 0.019146 122 94 58
0.024739 0.095716 -0.054509 153 128 86
-5.5419e-05 0.10016 -0.025821 167 145 94
-0.010961 0.054205 0.018967 147 117 70
0.034819 0.1043 -0.055558 168 135 85
0.0051492 0.10622 -0.031261 173 145 92
-0.010731 0.057696 0.020215 181 154 117
-0.016014 0.059872 0.010465 148 121 87
0.087279 -0.030668 0.062393 44 37 34
0.01848 0.0094691 0.10097 44 35 29
0.021572 -0.028579 -0.016821 130 100 63
0.048477 0.0114 0.17857 140 108 67
0.041024 0.099312 0.37021 115 87 52
-0.023416 -0.018404 -0.044492 53 45 34
-0.04132 -0.03345 -0.056839 56 44 35
-0.015629 0.011769 0.16933 48 38 29
0.035771 0.087631 0.32198 143 115 78
0.054046 -0.025753 -0.031329 115 87 59
-0.057486 -0.038476 -0.094436 50 42 35
-0.057486 -0.038476 -0.094436 50 42 35
0.015391 -0.019648 -0.018433 137 111 75
0.039517 -0.023634 -0.032446 126 100 70
0.046133 -0.021528 -0.030787 159 126 87
-0.035529 -0.036608 -0.10273 62 54 46
0.0029967 -0.014355 -0.021096 144 123 85
0.00093923 -0.013073 -0.024109 96 79 54
0.010345 0.013584 0.080793 85 64 37
0.013477 -0.012533 -0.045953 135 109 79
0.03029 -0.013264 -0.050975 219 187 145
0.06909 -0.013299 -0.047753 158 122 82
0.027688 0.013046 0.11587 141 102 65
0.065596 -0.011535 -0.054271 116 86 53
0.015601 0.0097726 0.088829 148 111 60
0.031498 -0.0013353 -0.055159 158 122 78
0.033557 0.0030235 -0.054979 150 121 87
0.021682 0.017822 0.096648 167 130 77
0.016161 0.022055 0.080332 151 117 83
0.06463 0.030154 -0.058231 150 123 79
0.027421 0.024407 0.1088 105 78 45
0.032774 0.052692 -0.054937 113 88 60
0.024338 0.025957 0.097645 107 80 49
-0.01501 0.037939 0.014626 149 121 76
0.0002359 0.034203 0.043586 176 147 100
0.019749 0.029514 0.085545 109 80 47
0.0086965 0.034138 0.059073 142 110 69
-0.017826 0.041934 0.0084055 116 98 59
-0.019592 0.044279 0.0058798 131 110 73
0.0083264 0.036462 0.057867 158 130 86
0.0083264 0.036462 0.057867 158 130 86
-0.0035298 0.075952 -0.029025 57 35 9
-0.0074405 0.042272 0.027654 154 125 80
-0.02156 0.049363 0.0009843 121 99 63
-0.0098544 0.045734 0.022562 148 118 75
-0.032621 0.052823 -0.013134 132 113 74
-0.02762 0.051956 -0.0074046 118 99 59
-0.0077571 0.046038 0.025827 172 147 105
-0.028009 0.054058 -0.0091543 145 122 87
-0.0059065 0.091179 -0.028065 108 87 61
-0.0088281 0.091897 -0.03109 80 62 39
0.03711 0.089714 -0.053101 160 135 90
0.040063 0.090139 -0.055014 158 130 89
-0.017107 0.053871 0.0091361 131 107 68
-0.033305 0.061584 -0.01837 203 175 117
-0.021822 0.058938 0.0012982 161 131 84
0.01407 0.11171 -0.058647 138 109 64
-0.0092846 0.094622 0.020994 132 109 61
-0.0063695 0.11793 -0.048929 155 130 93
-0.0031152 0.11847 -0.046546 156 133 92
0.0077973 -0.031425 0.040227 46 38 33
-0.0032712 -0.033172 0.030861 46 38 33
0.019728 0.0099189 0.10532 54 44 40
0.019728 0.0099189 0.10532 54 44 40
0.013278 0.010936 0.097732 80 58 30
0.054929 -0.035919 -0.033668 72 52 32
0.054929 -0.035919 -0.033668 72 52 32
0.058562 -0.035954 -0.037583 161 133 96
0.058562 -0.035954 -0.037583 161 133 96
-0.044236 -0.034105 -0.052294 48 39 30
0.021417 0.01139 0.104 115 88 58
-9.8381e-06 -0.022431 -0.02396 124 104 71
0.043889 0.01112 0.16138 134 100 61
-0.059388 -0.037831 -0.10483 45 40 32
0.046097 -0.015336 -0.030774 177 146 107
0.052982 -0.015353 -0.036027 177 148 108
0.049007 -0.014104 -0.033118 154 121 86
0.021108 0.013612 0.10344 206 187 156
-0.0050818 -0.0092484 -0.035163 79 59 34
0.078065 -0.011735 -0.061129 150 114 70
0.044797 0.039647 0.18998 161 124 85
0.040798 0.0059912 -0.059567 168 135 98
-0.0007544 0.057081 -0.021124 156 139 95
0.062434 0.05405 -0.055056 61 43 15
-0.0021193 0.0025092 -0.98154 163 147 102
0.04785 0.062434 -0.055494 124 94 58
-0.019104 0.045242 0.0061552 109 83 50
0.060665 0.073097 -0.058714 152 128 101
0.0058263 0.038062 0.052403 124 93 56
-0.0038659 0.043325 0.032925 152 125 84
-0.030759 0.052764 -0.010889 136 114 70
0.0060501 0.037813 0.030112 172 134 83
-0.029562 0.057156 -0.012789 169 150 103
-0.011133 0.052031 0.018821 163 138 94
0.025149 0.10388 -0.057678 176 146 95
0.025149 0.10388 -0.057678 176 146 95
0.0043113 0.068577 0.011953 163 134 91
-0.019342 0.060979 0.0050866 171 142 92
-0.001381 0.1127 -0.037817 143 119 76
0.0098537 0.11748 -0.04778 167 141 99
-0.006176 0.11793 -0.047594 155 130 93
-0.0033711 -0.033369 0.030246 46 38 33
0.014534 -0.030248 0.026381 48 41 37
0.028663 -0.035603 -0.031922 134 106 72
0.03712 0.013493 0.13898 72 52 32
0.0096113 0.011615 0.089247 121 101 67
0.038634 0.010682 0.14289 137 108 66
-0.049984 -0.038975 -0.094131 45 39 31
0.013353 0.01301 0.086437 140 112 73
0.078375 -0.011206 -0.060737 173 132 80
0.040731 0.0057672 -0.060702 168 135 98
0.025325 0.027311 0.10371 172 145 110
-0.0054021 0.03663 0.033919 139 111 69
0.047932 0.062703 -0.053765 137 109 69
0.060057 0.068375 -0.055437 135 104 66
-0.022814 0.052401 -0.0019714 149 124 80
-0.014962 0.053548 0.012376 154 129 87
0.029515 0.097078 -0.05453 162 135 94
0.043617 0.096659 -0.068513 162 130 86
-0.016713 0.057024 0.0092755 174 144 90
-0.016713 0.057024 0.0092755 174 144 90
-0.019486 0.060921 0.0048882 167 135 81
0.0016235 0.11925 -0.050298 156 131 81
0.042737 -0.028292 0.077865 46 39 34
0.062721 -0.033399 -0.04199 153 124 89
0.0060307 -0.022546 -0.019015 114 92 59
0.027548 -0.022726 -0.030766 152 125 89
0.030952 0.011076 0.12391 87 70 54
0.0045853 0.077951 -0.024758 116 93 60
0.037708 -0.034206 -0.029333 142 116 81
0.040495 -0.020552 -0.03911 101 70 49
0.045292 -0.015518 -0.050033 166 142 109
0.021352 0.029869 0.092758 177 137 90
0.016431 0.033609 0.08004 149 115 71
0.016431 0.033609 0.08004 149 115 71
0.033692 0.078874 -0.053773 147 115 76
-0.050166 0.073303 -0.038342 160 135 78
0.024808 0.010564 0.11474 136 106 72
0.073646 -0.030837 -0.046758 150 115 71
0.036299 0.08775 0.31277 121 102 81
0.061252 -0.020226 -0.04119 134 101 64
0.01635 -0.012393 -0.037426 195 170 128
0.0057708 0.041248 0.054268 179 148 105
-0.010044 0.049329 0.021077 137 107 70
0.036053 0.10577 -0.055449 160 130 78
0.036053 0.10577 -0.055449 160 130 78
0.0044573 0.036513 -0.049013 94 66 28
0.0044573 0.036513 -0.049013 94 66 28
0.036612 0.014184 0.13705 173 142 96
0.017618 0.019162 0.086817 166 133 83
0.017618 0.019162 0.086817 166 133 83
0.01232 0.02457 0.071873 161 124 82
0.01232 0.02457 0.071873 161 124 82
0.028087 0.021175 0.10971 147 116 73
0.028087 0.021175 0.10971 147 116 73
0.034742 0.058796 -0.054171 175 144 96
-0.016127 0.039267 0.012043 116 92 57
-0.052983 -0.02564 -0.059691 48 40 33
0.0023244 0.10716 -0.035829 165 140 92
0.0023244 0.10716 -0.035829 165 140 92
0.040356 0.01102 0.15568 131 97 61
0.0029124 0.10712 -0.031346 158 135 85
0.0029124 0.10712 -0.031346 158 135 85
0.016252 0.10391 0.080257 140 113 74
0 0 0 1 0 0 0 1 0 0 0 1 0 0 0 0 0 250 1 0 0
